<?xml version="1.0" encoding="UTF-8"?>
<!DOCTYPE xmeml>
<xmeml version="4">
	<project>
		<name>first</name>
		<children>
			<sequence id="sequence-5" TL.SQAudioVisibleBase="0" TL.SQVideoVisibleBase="0" TL.SQVisibleBaseTime="0" TL.SQAVDividerPosition="0.5" TL.SQHideShyTracks="0" TL.SQHeaderWidth="164" Monitor.ProgramZoomOut="152409600000000" Monitor.ProgramZoomIn="0" TL.SQTimePerPixel="0.2" MZ.EditLine="0" MZ.Sequence.PreviewFrameSizeHeight="1080" MZ.Sequence.PreviewFrameSizeWidth="1920" MZ.Sequence.AudioTimeDisplayFormat="200" MZ.Sequence.VideoTimeDisplayFormat="110" MZ.Sequence.PreviewRenderingClassID="1297106761" MZ.Sequence.PreviewRenderingPresetCodec="1297107278" MZ.Sequence.PreviewRenderingPresetPath="EncoderPresets/SequencePreview/cc7991f5-c236-4db1-957e-2c71f924e81c/I-Frame Only MPEG.epr" MZ.Sequence.PreviewUseMaxRenderQuality="false" MZ.Sequence.PreviewUseMaxBitDepth="false" MZ.Sequence.EditingModeGUID="cc7991f5-c236-4db1-957e-2c71f924e81c" MZ.WorkOutPoint="3051240192000" MZ.WorkInPoint="0">
				<uuid>9db2ed4a-69e5-4b50-968a-193799ebf69b</uuid>
				<duration>288</duration>
				<rate>
					<timebase>24</timebase>
					<ntsc>TRUE</ntsc>
				</rate>
				<name>Sequence 01</name>
				<media>
					<video>
						<format>
							<samplecharacteristics>
								<rate>
									<timebase>24</timebase>
									<ntsc>TRUE</ntsc>
								</rate>
								<codec>
									<name>Apple ProRes 422</name>
									<appspecificdata>
										<appname>Final Cut Pro</appname>
										<appmanufacturer>Apple Inc.</appmanufacturer>
										<appversion>7.0</appversion>
										<data>
											<qtcodec>
												<codecname>Apple ProRes 422</codecname>
												<codectypename>Apple ProRes 422</codectypename>
												<codectypecode>apcn</codectypecode>
												<codecvendorcode>appl</codecvendorcode>
												<spatialquality>1024</spatialquality>
												<temporalquality>0</temporalquality>
												<keyframerate>0</keyframerate>
												<datarate>0</datarate>
											</qtcodec>
										</data>
									</appspecificdata>
								</codec>
								<width>1920</width>
								<height>1080</height>
								<anamorphic>FALSE</anamorphic>
								<pixelaspectratio>square</pixelaspectratio>
								<fielddominance>none</fielddominance>
								<colordepth>24</colordepth>
							</samplecharacteristics>
						</format>
						<track TL.SQTrackShy="0" TL.SQTrackExpandedHeight="45" TL.SQTrackExpanded="1" TL.SQTrackVideoKeyframeStyle="0" TL.SQTrackVideoDisplayStyle="1" MZ.TrackTargeted="1">
							<enabled>TRUE</enabled>
							<locked>FALSE</locked>
							<clipitem id="clipitem-148" frameBlend="FALSE">
								<masterclipid>masterclip-49</masterclipid>
								<name>P2060009.mp4</name>
								<enabled>TRUE</enabled>
								<duration>288</duration>
								<start>0</start>
								<end>288</end>
								<in>0</in>
								<out>288</out>
								<alphatype>black</alphatype>
								<pixelaspectratio>square</pixelaspectratio>
								<anamorphic>FALSE</anamorphic>
								<file id="file-49">
									<name>P2060009.mp4</name>
									<pathurl>file://localhost/Users/jacksongsimac/Downloads/autorough/2016-04-16/P2060009.mp4</pathurl>
									<rate>
										<timebase>24</timebase>
										<ntsc>TRUE</ntsc>
									</rate>
									<duration>288</duration>
									<timecode>
										<rate>
											<timebase>24</timebase>
											<ntsc>TRUE</ntsc>
										</rate>
										<string>00:00:00:00</string>
										<frame>0</frame>
										<displayformat>NDF</displayformat>
										<reel>
											<name></name>
										</reel>
									</timecode>
									<media>
										<video>
											<duration>18000</duration>
											<samplecharacteristics>
												<rate>
													<timebase>24</timebase>
													<ntsc>TRUE</ntsc>
												</rate>
												<width>1920</width>
												<height>1080</height>
												<anamorphic>FALSE</anamorphic>
												<pixelaspectratio>square</pixelaspectratio>
												<fielddominance>none</fielddominance>
											</samplecharacteristics>
										</video>
										<audio>
											<samplecharacteristics>
												<depth>16</depth>
												<samplerate>48000</samplerate>
											</samplecharacteristics>
											<channelcount>2</channelcount>
										</audio>
									</media>
								</file>
							</clipitem>
						</track>
						<track TL.SQTrackShy="0" TL.SQTrackCollapsedHeight="25" TL.SQTrackExpanded="0" TL.SQTrackVideoKeyframeStyle="0" TL.SQTrackVideoDisplayStyle="1" MZ.TrackTargeted="0">
							<enabled>TRUE</enabled>
							<locked>FALSE</locked>
						</track>
						<track TL.SQTrackShy="0" TL.SQTrackCollapsedHeight="25" TL.SQTrackExpanded="0" TL.SQTrackVideoKeyframeStyle="0" TL.SQTrackVideoDisplayStyle="1" MZ.TrackTargeted="0">
							<enabled>TRUE</enabled>
							<locked>FALSE</locked>
						</track>
					</video>
					<audio>
						<format>
							<samplecharacteristics>
								<depth>16</depth>
								<samplerate>48000</samplerate>
							</samplecharacteristics>
						</format>
						<outputs>
							<group>
								<index>1</index>
								<numchannels>1</numchannels>
								<downmix>0</downmix>
								<channel>
									<index>1</index>
								</channel>
							</group>
							<group>
								<index>2</index>
								<numchannels>1</numchannels>
								<downmix>0</downmix>
								<channel>
									<index>2</index>
								</channel>
							</group>
						</outputs>
						<track TL.SQTrackAudioKeyframeStyle="0" TL.SQTrackAudioDisplayStyle="0" TL.SQTrackShy="0" TL.SQTrackCollapsedHeight="25" TL.SQTrackExpanded="0" MZ.TrackTargeted="1" MZ.TrackName="Audio 1" PannerCurrentValue="0.5" PannerIsInverted="true" PannerKeyframes="" PannerStartKeyframe="-91445760000000000,0.5,0,0,0,0,0,0" PannerName="Balance" currentExplodedTrackIndex="0" totalExplodedTrackCount="2" premiereTrackType="Stereo">
							<enabled>TRUE</enabled>
							<locked>FALSE</locked>
							<outputchannelindex>1</outputchannelindex>
						</track>
						<track TL.SQTrackAudioKeyframeStyle="0" TL.SQTrackAudioDisplayStyle="0" TL.SQTrackShy="0" TL.SQTrackCollapsedHeight="25" TL.SQTrackExpanded="0" MZ.TrackTargeted="1" MZ.TrackName="Audio 1" PannerCurrentValue="0.5" PannerIsInverted="true" PannerKeyframes="" PannerStartKeyframe="-91445760000000000,0.5,0,0,0,0,0,0" PannerName="Balance" currentExplodedTrackIndex="1" totalExplodedTrackCount="2" premiereTrackType="Stereo">
							<enabled>TRUE</enabled>
							<locked>FALSE</locked>
							<outputchannelindex>2</outputchannelindex>
						</track>
						<track TL.SQTrackAudioKeyframeStyle="0" TL.SQTrackAudioDisplayStyle="0" TL.SQTrackShy="0" TL.SQTrackCollapsedHeight="25" TL.SQTrackExpanded="0" MZ.TrackTargeted="1" MZ.TrackName="Audio 2" PannerCurrentValue="0.5" PannerIsInverted="true" PannerKeyframes="" PannerStartKeyframe="-91445760000000000,0.5,0,0,0,0,0,0" PannerName="Balance" currentExplodedTrackIndex="0" totalExplodedTrackCount="2" premiereTrackType="Stereo">
							<enabled>TRUE</enabled>
							<locked>FALSE</locked>
							<outputchannelindex>1</outputchannelindex>
						</track>
						<track TL.SQTrackAudioKeyframeStyle="0" TL.SQTrackAudioDisplayStyle="0" TL.SQTrackShy="0" TL.SQTrackCollapsedHeight="25" TL.SQTrackExpanded="0" MZ.TrackTargeted="1" MZ.TrackName="Audio 2" PannerCurrentValue="0.5" PannerIsInverted="true" PannerKeyframes="" PannerStartKeyframe="-91445760000000000,0.5,0,0,0,0,0,0" PannerName="Balance" currentExplodedTrackIndex="1" totalExplodedTrackCount="2" premiereTrackType="Stereo">
							<enabled>TRUE</enabled>
							<locked>FALSE</locked>
							<outputchannelindex>2</outputchannelindex>
						</track>
						<track TL.SQTrackAudioKeyframeStyle="0" TL.SQTrackAudioDisplayStyle="0" TL.SQTrackShy="0" TL.SQTrackCollapsedHeight="25" TL.SQTrackExpanded="0" MZ.TrackTargeted="1" MZ.TrackName="Audio 3" PannerCurrentValue="0.5" PannerIsInverted="true" PannerKeyframes="" PannerStartKeyframe="-91445760000000000,0.5,0,0,0,0,0,0" PannerName="Balance" currentExplodedTrackIndex="0" totalExplodedTrackCount="2" premiereTrackType="Stereo">
							<enabled>TRUE</enabled>
							<locked>FALSE</locked>
							<outputchannelindex>1</outputchannelindex>
						</track>
						<track TL.SQTrackAudioKeyframeStyle="0" TL.SQTrackAudioDisplayStyle="0" TL.SQTrackShy="0" TL.SQTrackCollapsedHeight="25" TL.SQTrackExpanded="0" MZ.TrackTargeted="1" MZ.TrackName="Audio 3" PannerCurrentValue="0.5" PannerIsInverted="true" PannerKeyframes="" PannerStartKeyframe="-91445760000000000,0.5,0,0,0,0,0,0" PannerName="Balance" currentExplodedTrackIndex="1" totalExplodedTrackCount="2" premiereTrackType="Stereo">
							<enabled>TRUE</enabled>
							<locked>FALSE</locked>
							<outputchannelindex>2</outputchannelindex>
						</track>
					</audio>
				</media>
				<timecode>
					<rate>
						<timebase>24</timebase>
						<ntsc>TRUE</ntsc>
					</rate>
					<string>00:00:00:00</string>
					<frame>0</frame>
					<displayformat>NDF</displayformat>
				</timecode>
			</sequence>
			<clip id="masterclip-50" frameBlend="FALSE">
				<uuid>fe488b10-37d5-4c0c-8c05-756c024b243d</uuid>
				<masterclipid>masterclip-50</masterclipid>
				<ismasterclip>TRUE</ismasterclip>
				<duration>168</duration>
				<rate>
					<timebase>24</timebase>
					<ntsc>TRUE</ntsc>
				</rate>
				<name>P4022294.mp4</name>
				<media>
					<video>
						<track>
							<clipitem id="clipitem-149" frameBlend="FALSE">
								<masterclipid>masterclip-50</masterclipid>
								<name>P4022294.mp4</name>
								<alphatype>black</alphatype>
								<pixelaspectratio>square</pixelaspectratio>
								<anamorphic>FALSE</anamorphic>
								<file id="file-50">
									<name>P4022294.mp4</name>
									<pathurl>file://localhost/Users/jacksongsimac/Downloads/autorough/2016-04-16/P4022294.mp4</pathurl>
									<rate>
										<timebase>24</timebase>
										<ntsc>TRUE</ntsc>
									</rate>
									<duration>168</duration>
									<timecode>
										<rate>
											<timebase>24</timebase>
											<ntsc>TRUE</ntsc>
										</rate>
										<string>00:00:00:00</string>
										<frame>0</frame>
										<displayformat>NDF</displayformat>
										<reel>
											<name></name>
										</reel>
									</timecode>
									<media>
										<video>
											<duration>18000</duration>
											<samplecharacteristics>
												<rate>
													<timebase>24</timebase>
													<ntsc>TRUE</ntsc>
												</rate>
												<width>1920</width>
												<height>1080</height>
												<anamorphic>FALSE</anamorphic>
												<pixelaspectratio>square</pixelaspectratio>
												<fielddominance>none</fielddominance>
											</samplecharacteristics>
										</video>
										<audio>
											<samplecharacteristics>
												<depth>16</depth>
												<samplerate>48000</samplerate>
											</samplecharacteristics>
											<channelcount>2</channelcount>
										</audio>
									</media>
								</file>
								<link>
									<linkclipref>clipitem-149</linkclipref>
									<mediatype>video</mediatype>
									<trackindex>1</trackindex>
									<clipindex>1</clipindex>
								</link>
								<link>
									<linkclipref>clipitem-150</linkclipref>
									<mediatype>audio</mediatype>
									<trackindex>1</trackindex>
									<clipindex>1</clipindex>
									<groupindex>1</groupindex>
								</link>
								<link>
									<linkclipref>clipitem-151</linkclipref>
									<mediatype>audio</mediatype>
									<trackindex>2</trackindex>
									<clipindex>1</clipindex>
									<groupindex>1</groupindex>
								</link>
							</clipitem>
						</track>
					</video>
					<audio>
						<track>
							<clipitem id="clipitem-150" frameBlend="FALSE">
								<masterclipid>masterclip-50</masterclipid>
								<name>P4022294.mp4</name>
								<file id="file-50"/>
								<sourcetrack>
									<mediatype>audio</mediatype>
									<trackindex>1</trackindex>
								</sourcetrack>
								<link>
									<linkclipref>clipitem-149</linkclipref>
									<mediatype>video</mediatype>
									<trackindex>1</trackindex>
									<clipindex>1</clipindex>
								</link>
								<link>
									<linkclipref>clipitem-150</linkclipref>
									<mediatype>audio</mediatype>
									<trackindex>1</trackindex>
									<clipindex>1</clipindex>
									<groupindex>1</groupindex>
								</link>
								<link>
									<linkclipref>clipitem-151</linkclipref>
									<mediatype>audio</mediatype>
									<trackindex>2</trackindex>
									<clipindex>1</clipindex>
									<groupindex>1</groupindex>
								</link>
							</clipitem>
						</track>
						<track>
							<clipitem id="clipitem-151" frameBlend="FALSE">
								<masterclipid>masterclip-50</masterclipid>
								<name>P4022294.mp4</name>
								<file id="file-50"/>
								<sourcetrack>
									<mediatype>audio</mediatype>
									<trackindex>2</trackindex>
								</sourcetrack>
								<link>
									<linkclipref>clipitem-149</linkclipref>
									<mediatype>video</mediatype>
									<trackindex>1</trackindex>
									<clipindex>1</clipindex>
								</link>
								<link>
									<linkclipref>clipitem-150</linkclipref>
									<mediatype>audio</mediatype>
									<trackindex>1</trackindex>
									<clipindex>1</clipindex>
									<groupindex>1</groupindex>
								</link>
								<link>
									<linkclipref>clipitem-151</linkclipref>
									<mediatype>audio</mediatype>
									<trackindex>2</trackindex>
									<clipindex>1</clipindex>
									<groupindex>1</groupindex>
								</link>
							</clipitem>
						</track>
					</audio>
				</media>
				<logginginfo>
					<description></description>
					<scene></scene>
					<shottake></shottake>
					<lognote></lognote>
				</logginginfo>
			</clip>
			<clip id="masterclip-51" frameBlend="FALSE">
				<uuid>d20ea878-77e6-47d1-8eb5-2ad4b981f7a9</uuid>
				<masterclipid>masterclip-51</masterclipid>
				<ismasterclip>TRUE</ismasterclip>
				<duration>672</duration>
				<rate>
					<timebase>24</timebase>
					<ntsc>TRUE</ntsc>
				</rate>
				<name>P3282121.mp4</name>
				<media>
					<video>
						<track>
							<clipitem id="clipitem-152" frameBlend="FALSE">
								<masterclipid>masterclip-51</masterclipid>
								<name>P3282121.mp4</name>
								<alphatype>black</alphatype>
								<pixelaspectratio>square</pixelaspectratio>
								<anamorphic>FALSE</anamorphic>
								<file id="file-51">
									<name>P3282121.mp4</name>
									<pathurl>file://localhost/Users/jacksongsimac/Downloads/autorough/2016-04-16/P3282121.mp4</pathurl>
									<rate>
										<timebase>24</timebase>
										<ntsc>TRUE</ntsc>
									</rate>
									<duration>672</duration>
									<timecode>
										<rate>
											<timebase>24</timebase>
											<ntsc>TRUE</ntsc>
										</rate>
										<string>00:00:00:00</string>
										<frame>0</frame>
										<displayformat>NDF</displayformat>
										<reel>
											<name></name>
										</reel>
									</timecode>
									<media>
										<video>
											<duration>18000</duration>
											<samplecharacteristics>
												<rate>
													<timebase>24</timebase>
													<ntsc>TRUE</ntsc>
												</rate>
												<width>1920</width>
												<height>1080</height>
												<anamorphic>FALSE</anamorphic>
												<pixelaspectratio>square</pixelaspectratio>
												<fielddominance>none</fielddominance>
											</samplecharacteristics>
										</video>
										<audio>
											<samplecharacteristics>
												<depth>16</depth>
												<samplerate>48000</samplerate>
											</samplecharacteristics>
											<channelcount>2</channelcount>
										</audio>
									</media>
								</file>
								<link>
									<linkclipref>clipitem-152</linkclipref>
									<mediatype>video</mediatype>
									<trackindex>1</trackindex>
									<clipindex>1</clipindex>
								</link>
								<link>
									<linkclipref>clipitem-153</linkclipref>
									<mediatype>audio</mediatype>
									<trackindex>1</trackindex>
									<clipindex>1</clipindex>
									<groupindex>1</groupindex>
								</link>
								<link>
									<linkclipref>clipitem-154</linkclipref>
									<mediatype>audio</mediatype>
									<trackindex>2</trackindex>
									<clipindex>1</clipindex>
									<groupindex>1</groupindex>
								</link>
							</clipitem>
						</track>
					</video>
					<audio>
						<track>
							<clipitem id="clipitem-153" frameBlend="FALSE">
								<masterclipid>masterclip-51</masterclipid>
								<name>P3282121.mp4</name>
								<file id="file-51"/>
								<sourcetrack>
									<mediatype>audio</mediatype>
									<trackindex>1</trackindex>
								</sourcetrack>
								<link>
									<linkclipref>clipitem-152</linkclipref>
									<mediatype>video</mediatype>
									<trackindex>1</trackindex>
									<clipindex>1</clipindex>
								</link>
								<link>
									<linkclipref>clipitem-153</linkclipref>
									<mediatype>audio</mediatype>
									<trackindex>1</trackindex>
									<clipindex>1</clipindex>
									<groupindex>1</groupindex>
								</link>
								<link>
									<linkclipref>clipitem-154</linkclipref>
									<mediatype>audio</mediatype>
									<trackindex>2</trackindex>
									<clipindex>1</clipindex>
									<groupindex>1</groupindex>
								</link>
							</clipitem>
						</track>
						<track>
							<clipitem id="clipitem-154" frameBlend="FALSE">
								<masterclipid>masterclip-51</masterclipid>
								<name>P3282121.mp4</name>
								<file id="file-51"/>
								<sourcetrack>
									<mediatype>audio</mediatype>
									<trackindex>2</trackindex>
								</sourcetrack>
								<link>
									<linkclipref>clipitem-152</linkclipref>
									<mediatype>video</mediatype>
									<trackindex>1</trackindex>
									<clipindex>1</clipindex>
								</link>
								<link>
									<linkclipref>clipitem-153</linkclipref>
									<mediatype>audio</mediatype>
									<trackindex>1</trackindex>
									<clipindex>1</clipindex>
									<groupindex>1</groupindex>
								</link>
								<link>
									<linkclipref>clipitem-154</linkclipref>
									<mediatype>audio</mediatype>
									<trackindex>2</trackindex>
									<clipindex>1</clipindex>
									<groupindex>1</groupindex>
								</link>
							</clipitem>
						</track>
					</audio>
				</media>
				<logginginfo>
					<description></description>
					<scene></scene>
					<shottake></shottake>
					<lognote></lognote>
				</logginginfo>
			</clip>
			<clip id="masterclip-52" frameBlend="FALSE">
				<uuid>cae14733-b9d1-445e-8899-fc7200d8c8dd</uuid>
				<masterclipid>masterclip-52</masterclipid>
				<ismasterclip>TRUE</ismasterclip>
				<duration>156</duration>
				<rate>
					<timebase>24</timebase>
					<ntsc>TRUE</ntsc>
				</rate>
				<name>P2141195.mp4</name>
				<media>
					<video>
						<track>
							<clipitem id="clipitem-155" frameBlend="FALSE">
								<masterclipid>masterclip-52</masterclipid>
								<name>P2141195.mp4</name>
								<alphatype>black</alphatype>
								<pixelaspectratio>square</pixelaspectratio>
								<anamorphic>FALSE</anamorphic>
								<file id="file-52">
									<name>P2141195.mp4</name>
									<pathurl>file://localhost/Users/jacksongsimac/Downloads/autorough/2016-04-16/P2141195.mp4</pathurl>
									<rate>
										<timebase>24</timebase>
										<ntsc>TRUE</ntsc>
									</rate>
									<duration>156</duration>
									<timecode>
										<rate>
											<timebase>24</timebase>
											<ntsc>TRUE</ntsc>
										</rate>
										<string>00:00:00:00</string>
										<frame>0</frame>
										<displayformat>NDF</displayformat>
										<reel>
											<name></name>
										</reel>
									</timecode>
									<media>
										<video>
											<duration>18000</duration>
											<samplecharacteristics>
												<rate>
													<timebase>24</timebase>
													<ntsc>TRUE</ntsc>
												</rate>
												<width>1920</width>
												<height>1080</height>
												<anamorphic>FALSE</anamorphic>
												<pixelaspectratio>square</pixelaspectratio>
												<fielddominance>none</fielddominance>
											</samplecharacteristics>
										</video>
										<audio>
											<samplecharacteristics>
												<depth>16</depth>
												<samplerate>48000</samplerate>
											</samplecharacteristics>
											<channelcount>2</channelcount>
										</audio>
									</media>
								</file>
								<link>
									<linkclipref>clipitem-155</linkclipref>
									<mediatype>video</mediatype>
									<trackindex>1</trackindex>
									<clipindex>1</clipindex>
								</link>
								<link>
									<linkclipref>clipitem-156</linkclipref>
									<mediatype>audio</mediatype>
									<trackindex>1</trackindex>
									<clipindex>1</clipindex>
									<groupindex>1</groupindex>
								</link>
								<link>
									<linkclipref>clipitem-157</linkclipref>
									<mediatype>audio</mediatype>
									<trackindex>2</trackindex>
									<clipindex>1</clipindex>
									<groupindex>1</groupindex>
								</link>
							</clipitem>
						</track>
					</video>
					<audio>
						<track>
							<clipitem id="clipitem-156" frameBlend="FALSE">
								<masterclipid>masterclip-52</masterclipid>
								<name>P2141195.mp4</name>
								<file id="file-52"/>
								<sourcetrack>
									<mediatype>audio</mediatype>
									<trackindex>1</trackindex>
								</sourcetrack>
								<link>
									<linkclipref>clipitem-155</linkclipref>
									<mediatype>video</mediatype>
									<trackindex>1</trackindex>
									<clipindex>1</clipindex>
								</link>
								<link>
									<linkclipref>clipitem-156</linkclipref>
									<mediatype>audio</mediatype>
									<trackindex>1</trackindex>
									<clipindex>1</clipindex>
									<groupindex>1</groupindex>
								</link>
								<link>
									<linkclipref>clipitem-157</linkclipref>
									<mediatype>audio</mediatype>
									<trackindex>2</trackindex>
									<clipindex>1</clipindex>
									<groupindex>1</groupindex>
								</link>
							</clipitem>
						</track>
						<track>
							<clipitem id="clipitem-157" frameBlend="FALSE">
								<masterclipid>masterclip-52</masterclipid>
								<name>P2141195.mp4</name>
								<file id="file-52"/>
								<sourcetrack>
									<mediatype>audio</mediatype>
									<trackindex>2</trackindex>
								</sourcetrack>
								<link>
									<linkclipref>clipitem-155</linkclipref>
									<mediatype>video</mediatype>
									<trackindex>1</trackindex>
									<clipindex>1</clipindex>
								</link>
								<link>
									<linkclipref>clipitem-156</linkclipref>
									<mediatype>audio</mediatype>
									<trackindex>1</trackindex>
									<clipindex>1</clipindex>
									<groupindex>1</groupindex>
								</link>
								<link>
									<linkclipref>clipitem-157</linkclipref>
									<mediatype>audio</mediatype>
									<trackindex>2</trackindex>
									<clipindex>1</clipindex>
									<groupindex>1</groupindex>
								</link>
							</clipitem>
						</track>
					</audio>
				</media>
				<logginginfo>
					<description></description>
					<scene></scene>
					<shottake></shottake>
					<lognote></lognote>
				</logginginfo>
			</clip>
			<clip id="masterclip-53" frameBlend="FALSE">
				<uuid>4068be65-fe8b-4ef6-a789-643e189582be</uuid>
				<masterclipid>masterclip-53</masterclipid>
				<ismasterclip>TRUE</ismasterclip>
				<duration>72</duration>
				<rate>
					<timebase>24</timebase>
					<ntsc>TRUE</ntsc>
				</rate>
				<name>P2141184.mp4</name>
				<media>
					<video>
						<track>
							<clipitem id="clipitem-158" frameBlend="FALSE">
								<masterclipid>masterclip-53</masterclipid>
								<name>P2141184.mp4</name>
								<alphatype>black</alphatype>
								<pixelaspectratio>square</pixelaspectratio>
								<anamorphic>FALSE</anamorphic>
								<file id="file-53">
									<name>P2141184.mp4</name>
									<pathurl>file://localhost/Users/jacksongsimac/Downloads/autorough/2016-04-16/P2141184.mp4</pathurl>
									<rate>
										<timebase>24</timebase>
										<ntsc>TRUE</ntsc>
									</rate>
									<duration>72</duration>
									<timecode>
										<rate>
											<timebase>24</timebase>
											<ntsc>TRUE</ntsc>
										</rate>
										<string>00:00:00:00</string>
										<frame>0</frame>
										<displayformat>NDF</displayformat>
										<reel>
											<name></name>
										</reel>
									</timecode>
									<media>
										<video>
											<duration>18000</duration>
											<samplecharacteristics>
												<rate>
													<timebase>24</timebase>
													<ntsc>TRUE</ntsc>
												</rate>
												<width>1920</width>
												<height>1080</height>
												<anamorphic>FALSE</anamorphic>
												<pixelaspectratio>square</pixelaspectratio>
												<fielddominance>none</fielddominance>
											</samplecharacteristics>
										</video>
										<audio>
											<samplecharacteristics>
												<depth>16</depth>
												<samplerate>48000</samplerate>
											</samplecharacteristics>
											<channelcount>2</channelcount>
										</audio>
									</media>
								</file>
								<link>
									<linkclipref>clipitem-158</linkclipref>
									<mediatype>video</mediatype>
									<trackindex>1</trackindex>
									<clipindex>1</clipindex>
								</link>
								<link>
									<linkclipref>clipitem-159</linkclipref>
									<mediatype>audio</mediatype>
									<trackindex>1</trackindex>
									<clipindex>1</clipindex>
									<groupindex>1</groupindex>
								</link>
								<link>
									<linkclipref>clipitem-160</linkclipref>
									<mediatype>audio</mediatype>
									<trackindex>2</trackindex>
									<clipindex>1</clipindex>
									<groupindex>1</groupindex>
								</link>
							</clipitem>
						</track>
					</video>
					<audio>
						<track>
							<clipitem id="clipitem-159" frameBlend="FALSE">
								<masterclipid>masterclip-53</masterclipid>
								<name>P2141184.mp4</name>
								<file id="file-53"/>
								<sourcetrack>
									<mediatype>audio</mediatype>
									<trackindex>1</trackindex>
								</sourcetrack>
								<link>
									<linkclipref>clipitem-158</linkclipref>
									<mediatype>video</mediatype>
									<trackindex>1</trackindex>
									<clipindex>1</clipindex>
								</link>
								<link>
									<linkclipref>clipitem-159</linkclipref>
									<mediatype>audio</mediatype>
									<trackindex>1</trackindex>
									<clipindex>1</clipindex>
									<groupindex>1</groupindex>
								</link>
								<link>
									<linkclipref>clipitem-160</linkclipref>
									<mediatype>audio</mediatype>
									<trackindex>2</trackindex>
									<clipindex>1</clipindex>
									<groupindex>1</groupindex>
								</link>
							</clipitem>
						</track>
						<track>
							<clipitem id="clipitem-160" frameBlend="FALSE">
								<masterclipid>masterclip-53</masterclipid>
								<name>P2141184.mp4</name>
								<file id="file-53"/>
								<sourcetrack>
									<mediatype>audio</mediatype>
									<trackindex>2</trackindex>
								</sourcetrack>
								<link>
									<linkclipref>clipitem-158</linkclipref>
									<mediatype>video</mediatype>
									<trackindex>1</trackindex>
									<clipindex>1</clipindex>
								</link>
								<link>
									<linkclipref>clipitem-159</linkclipref>
									<mediatype>audio</mediatype>
									<trackindex>1</trackindex>
									<clipindex>1</clipindex>
									<groupindex>1</groupindex>
								</link>
								<link>
									<linkclipref>clipitem-160</linkclipref>
									<mediatype>audio</mediatype>
									<trackindex>2</trackindex>
									<clipindex>1</clipindex>
									<groupindex>1</groupindex>
								</link>
							</clipitem>
						</track>
					</audio>
				</media>
				<logginginfo>
					<description></description>
					<scene></scene>
					<shottake></shottake>
					<lognote></lognote>
				</logginginfo>
			</clip>
			<clip id="masterclip-54" frameBlend="FALSE">
				<uuid>e4594899-0de3-4adb-9753-7d0cf2d5b043</uuid>
				<masterclipid>masterclip-54</masterclipid>
				<ismasterclip>TRUE</ismasterclip>
				<duration>168</duration>
				<rate>
					<timebase>24</timebase>
					<ntsc>TRUE</ntsc>
				</rate>
				<name>P2130970.mp4</name>
				<media>
					<video>
						<track>
							<clipitem id="clipitem-161" frameBlend="FALSE">
								<masterclipid>masterclip-54</masterclipid>
								<name>P2130970.mp4</name>
								<alphatype>black</alphatype>
								<pixelaspectratio>square</pixelaspectratio>
								<anamorphic>FALSE</anamorphic>
								<file id="file-54">
									<name>P2130970.mp4</name>
									<pathurl>file://localhost/Users/jacksongsimac/Downloads/autorough/2016-04-16/P2130970.mp4</pathurl>
									<rate>
										<timebase>24</timebase>
										<ntsc>TRUE</ntsc>
									</rate>
									<duration>168</duration>
									<timecode>
										<rate>
											<timebase>24</timebase>
											<ntsc>TRUE</ntsc>
										</rate>
										<string>00:00:00:00</string>
										<frame>0</frame>
										<displayformat>NDF</displayformat>
										<reel>
											<name></name>
										</reel>
									</timecode>
									<media>
										<video>
											<duration>18000</duration>
											<samplecharacteristics>
												<rate>
													<timebase>24</timebase>
													<ntsc>TRUE</ntsc>
												</rate>
												<width>1920</width>
												<height>1080</height>
												<anamorphic>FALSE</anamorphic>
												<pixelaspectratio>square</pixelaspectratio>
												<fielddominance>none</fielddominance>
											</samplecharacteristics>
										</video>
										<audio>
											<samplecharacteristics>
												<depth>16</depth>
												<samplerate>48000</samplerate>
											</samplecharacteristics>
											<channelcount>2</channelcount>
										</audio>
									</media>
								</file>
								<link>
									<linkclipref>clipitem-161</linkclipref>
									<mediatype>video</mediatype>
									<trackindex>1</trackindex>
									<clipindex>1</clipindex>
								</link>
								<link>
									<linkclipref>clipitem-162</linkclipref>
									<mediatype>audio</mediatype>
									<trackindex>1</trackindex>
									<clipindex>1</clipindex>
									<groupindex>1</groupindex>
								</link>
								<link>
									<linkclipref>clipitem-163</linkclipref>
									<mediatype>audio</mediatype>
									<trackindex>2</trackindex>
									<clipindex>1</clipindex>
									<groupindex>1</groupindex>
								</link>
							</clipitem>
						</track>
					</video>
					<audio>
						<track>
							<clipitem id="clipitem-162" frameBlend="FALSE">
								<masterclipid>masterclip-54</masterclipid>
								<name>P2130970.mp4</name>
								<file id="file-54"/>
								<sourcetrack>
									<mediatype>audio</mediatype>
									<trackindex>1</trackindex>
								</sourcetrack>
								<link>
									<linkclipref>clipitem-161</linkclipref>
									<mediatype>video</mediatype>
									<trackindex>1</trackindex>
									<clipindex>1</clipindex>
								</link>
								<link>
									<linkclipref>clipitem-162</linkclipref>
									<mediatype>audio</mediatype>
									<trackindex>1</trackindex>
									<clipindex>1</clipindex>
									<groupindex>1</groupindex>
								</link>
								<link>
									<linkclipref>clipitem-163</linkclipref>
									<mediatype>audio</mediatype>
									<trackindex>2</trackindex>
									<clipindex>1</clipindex>
									<groupindex>1</groupindex>
								</link>
							</clipitem>
						</track>
						<track>
							<clipitem id="clipitem-163" frameBlend="FALSE">
								<masterclipid>masterclip-54</masterclipid>
								<name>P2130970.mp4</name>
								<file id="file-54"/>
								<sourcetrack>
									<mediatype>audio</mediatype>
									<trackindex>2</trackindex>
								</sourcetrack>
								<link>
									<linkclipref>clipitem-161</linkclipref>
									<mediatype>video</mediatype>
									<trackindex>1</trackindex>
									<clipindex>1</clipindex>
								</link>
								<link>
									<linkclipref>clipitem-162</linkclipref>
									<mediatype>audio</mediatype>
									<trackindex>1</trackindex>
									<clipindex>1</clipindex>
									<groupindex>1</groupindex>
								</link>
								<link>
									<linkclipref>clipitem-163</linkclipref>
									<mediatype>audio</mediatype>
									<trackindex>2</trackindex>
									<clipindex>1</clipindex>
									<groupindex>1</groupindex>
								</link>
							</clipitem>
						</track>
					</audio>
				</media>
				<logginginfo>
					<description></description>
					<scene></scene>
					<shottake></shottake>
					<lognote></lognote>
				</logginginfo>
			</clip>
			<clip id="masterclip-55" frameBlend="FALSE">
				<uuid>67da5f1e-b055-4de5-9768-d71184fe8694</uuid>
				<masterclipid>masterclip-55</masterclipid>
				<ismasterclip>TRUE</ismasterclip>
				<duration>72</duration>
				<rate>
					<timebase>24</timebase>
					<ntsc>TRUE</ntsc>
				</rate>
				<name>P2100713.mp4</name>
				<media>
					<video>
						<track>
							<clipitem id="clipitem-164" frameBlend="FALSE">
								<masterclipid>masterclip-55</masterclipid>
								<name>P2100713.mp4</name>
								<alphatype>black</alphatype>
								<pixelaspectratio>square</pixelaspectratio>
								<anamorphic>FALSE</anamorphic>
								<file id="file-55">
									<name>P2100713.mp4</name>
									<pathurl>file://localhost/Users/jacksongsimac/Downloads/autorough/2016-04-16/P2100713.mp4</pathurl>
									<rate>
										<timebase>24</timebase>
										<ntsc>TRUE</ntsc>
									</rate>
									<duration>72</duration>
									<timecode>
										<rate>
											<timebase>24</timebase>
											<ntsc>TRUE</ntsc>
										</rate>
										<string>00:00:00:00</string>
										<frame>0</frame>
										<displayformat>NDF</displayformat>
										<reel>
											<name></name>
										</reel>
									</timecode>
									<media>
										<video>
											<duration>18000</duration>
											<samplecharacteristics>
												<rate>
													<timebase>24</timebase>
													<ntsc>TRUE</ntsc>
												</rate>
												<width>1920</width>
												<height>1080</height>
												<anamorphic>FALSE</anamorphic>
												<pixelaspectratio>square</pixelaspectratio>
												<fielddominance>none</fielddominance>
											</samplecharacteristics>
										</video>
										<audio>
											<samplecharacteristics>
												<depth>16</depth>
												<samplerate>48000</samplerate>
											</samplecharacteristics>
											<channelcount>2</channelcount>
										</audio>
									</media>
								</file>
								<link>
									<linkclipref>clipitem-164</linkclipref>
									<mediatype>video</mediatype>
									<trackindex>1</trackindex>
									<clipindex>1</clipindex>
								</link>
								<link>
									<linkclipref>clipitem-165</linkclipref>
									<mediatype>audio</mediatype>
									<trackindex>1</trackindex>
									<clipindex>1</clipindex>
									<groupindex>1</groupindex>
								</link>
								<link>
									<linkclipref>clipitem-166</linkclipref>
									<mediatype>audio</mediatype>
									<trackindex>2</trackindex>
									<clipindex>1</clipindex>
									<groupindex>1</groupindex>
								</link>
							</clipitem>
						</track>
					</video>
					<audio>
						<track>
							<clipitem id="clipitem-165" frameBlend="FALSE">
								<masterclipid>masterclip-55</masterclipid>
								<name>P2100713.mp4</name>
								<file id="file-55"/>
								<sourcetrack>
									<mediatype>audio</mediatype>
									<trackindex>1</trackindex>
								</sourcetrack>
								<link>
									<linkclipref>clipitem-164</linkclipref>
									<mediatype>video</mediatype>
									<trackindex>1</trackindex>
									<clipindex>1</clipindex>
								</link>
								<link>
									<linkclipref>clipitem-165</linkclipref>
									<mediatype>audio</mediatype>
									<trackindex>1</trackindex>
									<clipindex>1</clipindex>
									<groupindex>1</groupindex>
								</link>
								<link>
									<linkclipref>clipitem-166</linkclipref>
									<mediatype>audio</mediatype>
									<trackindex>2</trackindex>
									<clipindex>1</clipindex>
									<groupindex>1</groupindex>
								</link>
							</clipitem>
						</track>
						<track>
							<clipitem id="clipitem-166" frameBlend="FALSE">
								<masterclipid>masterclip-55</masterclipid>
								<name>P2100713.mp4</name>
								<file id="file-55"/>
								<sourcetrack>
									<mediatype>audio</mediatype>
									<trackindex>2</trackindex>
								</sourcetrack>
								<link>
									<linkclipref>clipitem-164</linkclipref>
									<mediatype>video</mediatype>
									<trackindex>1</trackindex>
									<clipindex>1</clipindex>
								</link>
								<link>
									<linkclipref>clipitem-165</linkclipref>
									<mediatype>audio</mediatype>
									<trackindex>1</trackindex>
									<clipindex>1</clipindex>
									<groupindex>1</groupindex>
								</link>
								<link>
									<linkclipref>clipitem-166</linkclipref>
									<mediatype>audio</mediatype>
									<trackindex>2</trackindex>
									<clipindex>1</clipindex>
									<groupindex>1</groupindex>
								</link>
							</clipitem>
						</track>
					</audio>
				</media>
				<logginginfo>
					<description></description>
					<scene></scene>
					<shottake></shottake>
					<lognote></lognote>
				</logginginfo>
			</clip>
			<clip id="masterclip-56" frameBlend="FALSE">
				<uuid>9e5bf5d8-d1fa-4d52-98bb-9b7b3cc0293b</uuid>
				<masterclipid>masterclip-56</masterclipid>
				<ismasterclip>TRUE</ismasterclip>
				<duration>780</duration>
				<rate>
					<timebase>24</timebase>
					<ntsc>TRUE</ntsc>
				</rate>
				<name>P2060015.mp4</name>
				<media>
					<video>
						<track>
							<clipitem id="clipitem-167" frameBlend="FALSE">
								<masterclipid>masterclip-56</masterclipid>
								<name>P2060015.mp4</name>
								<alphatype>black</alphatype>
								<pixelaspectratio>square</pixelaspectratio>
								<anamorphic>FALSE</anamorphic>
								<file id="file-56">
									<name>P2060015.mp4</name>
									<pathurl>file://localhost/Users/jacksongsimac/Downloads/autorough/2016-04-16/P2060015.mp4</pathurl>
									<rate>
										<timebase>24</timebase>
										<ntsc>TRUE</ntsc>
									</rate>
									<duration>780</duration>
									<timecode>
										<rate>
											<timebase>24</timebase>
											<ntsc>TRUE</ntsc>
										</rate>
										<string>00:00:00:00</string>
										<frame>0</frame>
										<displayformat>NDF</displayformat>
										<reel>
											<name></name>
										</reel>
									</timecode>
									<media>
										<video>
											<duration>18000</duration>
											<samplecharacteristics>
												<rate>
													<timebase>24</timebase>
													<ntsc>TRUE</ntsc>
												</rate>
												<width>1920</width>
												<height>1080</height>
												<anamorphic>FALSE</anamorphic>
												<pixelaspectratio>square</pixelaspectratio>
												<fielddominance>none</fielddominance>
											</samplecharacteristics>
										</video>
										<audio>
											<samplecharacteristics>
												<depth>16</depth>
												<samplerate>48000</samplerate>
											</samplecharacteristics>
											<channelcount>2</channelcount>
										</audio>
									</media>
								</file>
								<link>
									<linkclipref>clipitem-167</linkclipref>
									<mediatype>video</mediatype>
									<trackindex>1</trackindex>
									<clipindex>1</clipindex>
								</link>
								<link>
									<linkclipref>clipitem-168</linkclipref>
									<mediatype>audio</mediatype>
									<trackindex>1</trackindex>
									<clipindex>1</clipindex>
									<groupindex>1</groupindex>
								</link>
								<link>
									<linkclipref>clipitem-169</linkclipref>
									<mediatype>audio</mediatype>
									<trackindex>2</trackindex>
									<clipindex>1</clipindex>
									<groupindex>1</groupindex>
								</link>
							</clipitem>
						</track>
					</video>
					<audio>
						<track>
							<clipitem id="clipitem-168" frameBlend="FALSE">
								<masterclipid>masterclip-56</masterclipid>
								<name>P2060015.mp4</name>
								<file id="file-56"/>
								<sourcetrack>
									<mediatype>audio</mediatype>
									<trackindex>1</trackindex>
								</sourcetrack>
								<link>
									<linkclipref>clipitem-167</linkclipref>
									<mediatype>video</mediatype>
									<trackindex>1</trackindex>
									<clipindex>1</clipindex>
								</link>
								<link>
									<linkclipref>clipitem-168</linkclipref>
									<mediatype>audio</mediatype>
									<trackindex>1</trackindex>
									<clipindex>1</clipindex>
									<groupindex>1</groupindex>
								</link>
								<link>
									<linkclipref>clipitem-169</linkclipref>
									<mediatype>audio</mediatype>
									<trackindex>2</trackindex>
									<clipindex>1</clipindex>
									<groupindex>1</groupindex>
								</link>
							</clipitem>
						</track>
						<track>
							<clipitem id="clipitem-169" frameBlend="FALSE">
								<masterclipid>masterclip-56</masterclipid>
								<name>P2060015.mp4</name>
								<file id="file-56"/>
								<sourcetrack>
									<mediatype>audio</mediatype>
									<trackindex>2</trackindex>
								</sourcetrack>
								<link>
									<linkclipref>clipitem-167</linkclipref>
									<mediatype>video</mediatype>
									<trackindex>1</trackindex>
									<clipindex>1</clipindex>
								</link>
								<link>
									<linkclipref>clipitem-168</linkclipref>
									<mediatype>audio</mediatype>
									<trackindex>1</trackindex>
									<clipindex>1</clipindex>
									<groupindex>1</groupindex>
								</link>
								<link>
									<linkclipref>clipitem-169</linkclipref>
									<mediatype>audio</mediatype>
									<trackindex>2</trackindex>
									<clipindex>1</clipindex>
									<groupindex>1</groupindex>
								</link>
							</clipitem>
						</track>
					</audio>
				</media>
				<logginginfo>
					<description></description>
					<scene></scene>
					<shottake></shottake>
					<lognote></lognote>
				</logginginfo>
			</clip>
			<clip id="masterclip-57" frameBlend="FALSE">
				<uuid>a903922c-fa9b-4ca3-a420-9bdc07d99ae6</uuid>
				<masterclipid>masterclip-57</masterclipid>
				<ismasterclip>TRUE</ismasterclip>
				<duration>216</duration>
				<rate>
					<timebase>24</timebase>
					<ntsc>TRUE</ntsc>
				</rate>
				<name>P2060014.mp4</name>
				<media>
					<video>
						<track>
							<clipitem id="clipitem-170" frameBlend="FALSE">
								<masterclipid>masterclip-57</masterclipid>
								<name>P2060014.mp4</name>
								<alphatype>black</alphatype>
								<pixelaspectratio>square</pixelaspectratio>
								<anamorphic>FALSE</anamorphic>
								<file id="file-57">
									<name>P2060014.mp4</name>
									<pathurl>file://localhost/Users/jacksongsimac/Downloads/autorough/2016-04-16/P2060014.mp4</pathurl>
									<rate>
										<timebase>24</timebase>
										<ntsc>TRUE</ntsc>
									</rate>
									<duration>216</duration>
									<timecode>
										<rate>
											<timebase>24</timebase>
											<ntsc>TRUE</ntsc>
										</rate>
										<string>00:00:00:00</string>
										<frame>0</frame>
										<displayformat>NDF</displayformat>
										<reel>
											<name></name>
										</reel>
									</timecode>
									<media>
										<video>
											<duration>18000</duration>
											<samplecharacteristics>
												<rate>
													<timebase>24</timebase>
													<ntsc>TRUE</ntsc>
												</rate>
												<width>1920</width>
												<height>1080</height>
												<anamorphic>FALSE</anamorphic>
												<pixelaspectratio>square</pixelaspectratio>
												<fielddominance>none</fielddominance>
											</samplecharacteristics>
										</video>
										<audio>
											<samplecharacteristics>
												<depth>16</depth>
												<samplerate>48000</samplerate>
											</samplecharacteristics>
											<channelcount>2</channelcount>
										</audio>
									</media>
								</file>
								<link>
									<linkclipref>clipitem-170</linkclipref>
									<mediatype>video</mediatype>
									<trackindex>1</trackindex>
									<clipindex>1</clipindex>
								</link>
								<link>
									<linkclipref>clipitem-171</linkclipref>
									<mediatype>audio</mediatype>
									<trackindex>1</trackindex>
									<clipindex>1</clipindex>
									<groupindex>1</groupindex>
								</link>
								<link>
									<linkclipref>clipitem-172</linkclipref>
									<mediatype>audio</mediatype>
									<trackindex>2</trackindex>
									<clipindex>1</clipindex>
									<groupindex>1</groupindex>
								</link>
							</clipitem>
						</track>
					</video>
					<audio>
						<track>
							<clipitem id="clipitem-171" frameBlend="FALSE">
								<masterclipid>masterclip-57</masterclipid>
								<name>P2060014.mp4</name>
								<file id="file-57"/>
								<sourcetrack>
									<mediatype>audio</mediatype>
									<trackindex>1</trackindex>
								</sourcetrack>
								<link>
									<linkclipref>clipitem-170</linkclipref>
									<mediatype>video</mediatype>
									<trackindex>1</trackindex>
									<clipindex>1</clipindex>
								</link>
								<link>
									<linkclipref>clipitem-171</linkclipref>
									<mediatype>audio</mediatype>
									<trackindex>1</trackindex>
									<clipindex>1</clipindex>
									<groupindex>1</groupindex>
								</link>
								<link>
									<linkclipref>clipitem-172</linkclipref>
									<mediatype>audio</mediatype>
									<trackindex>2</trackindex>
									<clipindex>1</clipindex>
									<groupindex>1</groupindex>
								</link>
							</clipitem>
						</track>
						<track>
							<clipitem id="clipitem-172" frameBlend="FALSE">
								<masterclipid>masterclip-57</masterclipid>
								<name>P2060014.mp4</name>
								<file id="file-57"/>
								<sourcetrack>
									<mediatype>audio</mediatype>
									<trackindex>2</trackindex>
								</sourcetrack>
								<link>
									<linkclipref>clipitem-170</linkclipref>
									<mediatype>video</mediatype>
									<trackindex>1</trackindex>
									<clipindex>1</clipindex>
								</link>
								<link>
									<linkclipref>clipitem-171</linkclipref>
									<mediatype>audio</mediatype>
									<trackindex>1</trackindex>
									<clipindex>1</clipindex>
									<groupindex>1</groupindex>
								</link>
								<link>
									<linkclipref>clipitem-172</linkclipref>
									<mediatype>audio</mediatype>
									<trackindex>2</trackindex>
									<clipindex>1</clipindex>
									<groupindex>1</groupindex>
								</link>
							</clipitem>
						</track>
					</audio>
				</media>
				<logginginfo>
					<description></description>
					<scene></scene>
					<shottake></shottake>
					<lognote></lognote>
				</logginginfo>
			</clip>
			<clip id="masterclip-58" frameBlend="FALSE">
				<uuid>18aacec9-ea43-4ea9-9724-21c5c6e8cf68</uuid>
				<masterclipid>masterclip-58</masterclipid>
				<ismasterclip>TRUE</ismasterclip>
				<duration>108</duration>
				<rate>
					<timebase>24</timebase>
					<ntsc>TRUE</ntsc>
				</rate>
				<name>P2060013.mp4</name>
				<media>
					<video>
						<track>
							<clipitem id="clipitem-173" frameBlend="FALSE">
								<masterclipid>masterclip-58</masterclipid>
								<name>P2060013.mp4</name>
								<alphatype>black</alphatype>
								<pixelaspectratio>square</pixelaspectratio>
								<anamorphic>FALSE</anamorphic>
								<file id="file-58">
									<name>P2060013.mp4</name>
									<pathurl>file://localhost/Users/jacksongsimac/Downloads/autorough/2016-04-16/P2060013.mp4</pathurl>
									<rate>
										<timebase>24</timebase>
										<ntsc>TRUE</ntsc>
									</rate>
									<duration>108</duration>
									<timecode>
										<rate>
											<timebase>24</timebase>
											<ntsc>TRUE</ntsc>
										</rate>
										<string>00:00:00:00</string>
										<frame>0</frame>
										<displayformat>NDF</displayformat>
										<reel>
											<name></name>
										</reel>
									</timecode>
									<media>
										<video>
											<duration>18000</duration>
											<samplecharacteristics>
												<rate>
													<timebase>24</timebase>
													<ntsc>TRUE</ntsc>
												</rate>
												<width>1920</width>
												<height>1080</height>
												<anamorphic>FALSE</anamorphic>
												<pixelaspectratio>square</pixelaspectratio>
												<fielddominance>none</fielddominance>
											</samplecharacteristics>
										</video>
										<audio>
											<samplecharacteristics>
												<depth>16</depth>
												<samplerate>48000</samplerate>
											</samplecharacteristics>
											<channelcount>2</channelcount>
										</audio>
									</media>
								</file>
								<link>
									<linkclipref>clipitem-173</linkclipref>
									<mediatype>video</mediatype>
									<trackindex>1</trackindex>
									<clipindex>1</clipindex>
								</link>
								<link>
									<linkclipref>clipitem-174</linkclipref>
									<mediatype>audio</mediatype>
									<trackindex>1</trackindex>
									<clipindex>1</clipindex>
									<groupindex>1</groupindex>
								</link>
								<link>
									<linkclipref>clipitem-175</linkclipref>
									<mediatype>audio</mediatype>
									<trackindex>2</trackindex>
									<clipindex>1</clipindex>
									<groupindex>1</groupindex>
								</link>
							</clipitem>
						</track>
					</video>
					<audio>
						<track>
							<clipitem id="clipitem-174" frameBlend="FALSE">
								<masterclipid>masterclip-58</masterclipid>
								<name>P2060013.mp4</name>
								<file id="file-58"/>
								<sourcetrack>
									<mediatype>audio</mediatype>
									<trackindex>1</trackindex>
								</sourcetrack>
								<link>
									<linkclipref>clipitem-173</linkclipref>
									<mediatype>video</mediatype>
									<trackindex>1</trackindex>
									<clipindex>1</clipindex>
								</link>
								<link>
									<linkclipref>clipitem-174</linkclipref>
									<mediatype>audio</mediatype>
									<trackindex>1</trackindex>
									<clipindex>1</clipindex>
									<groupindex>1</groupindex>
								</link>
								<link>
									<linkclipref>clipitem-175</linkclipref>
									<mediatype>audio</mediatype>
									<trackindex>2</trackindex>
									<clipindex>1</clipindex>
									<groupindex>1</groupindex>
								</link>
							</clipitem>
						</track>
						<track>
							<clipitem id="clipitem-175" frameBlend="FALSE">
								<masterclipid>masterclip-58</masterclipid>
								<name>P2060013.mp4</name>
								<file id="file-58"/>
								<sourcetrack>
									<mediatype>audio</mediatype>
									<trackindex>2</trackindex>
								</sourcetrack>
								<link>
									<linkclipref>clipitem-173</linkclipref>
									<mediatype>video</mediatype>
									<trackindex>1</trackindex>
									<clipindex>1</clipindex>
								</link>
								<link>
									<linkclipref>clipitem-174</linkclipref>
									<mediatype>audio</mediatype>
									<trackindex>1</trackindex>
									<clipindex>1</clipindex>
									<groupindex>1</groupindex>
								</link>
								<link>
									<linkclipref>clipitem-175</linkclipref>
									<mediatype>audio</mediatype>
									<trackindex>2</trackindex>
									<clipindex>1</clipindex>
									<groupindex>1</groupindex>
								</link>
							</clipitem>
						</track>
					</audio>
				</media>
				<logginginfo>
					<description></description>
					<scene></scene>
					<shottake></shottake>
					<lognote></lognote>
				</logginginfo>
			</clip>
			<clip id="masterclip-59" frameBlend="FALSE">
				<uuid>79c9941f-9c4a-4267-a96a-9b7dd868e556</uuid>
				<masterclipid>masterclip-59</masterclipid>
				<ismasterclip>TRUE</ismasterclip>
				<duration>132</duration>
				<rate>
					<timebase>24</timebase>
					<ntsc>TRUE</ntsc>
				</rate>
				<name>P2060012.mp4</name>
				<media>
					<video>
						<track>
							<clipitem id="clipitem-176" frameBlend="FALSE">
								<masterclipid>masterclip-59</masterclipid>
								<name>P2060012.mp4</name>
								<alphatype>black</alphatype>
								<pixelaspectratio>square</pixelaspectratio>
								<anamorphic>FALSE</anamorphic>
								<file id="file-59">
									<name>P2060012.mp4</name>
									<pathurl>file://localhost/Users/jacksongsimac/Downloads/autorough/2016-04-16/P2060012.mp4</pathurl>
									<rate>
										<timebase>24</timebase>
										<ntsc>TRUE</ntsc>
									</rate>
									<duration>132</duration>
									<timecode>
										<rate>
											<timebase>24</timebase>
											<ntsc>TRUE</ntsc>
										</rate>
										<string>00:00:00:00</string>
										<frame>0</frame>
										<displayformat>NDF</displayformat>
										<reel>
											<name></name>
										</reel>
									</timecode>
									<media>
										<video>
											<duration>18000</duration>
											<samplecharacteristics>
												<rate>
													<timebase>24</timebase>
													<ntsc>TRUE</ntsc>
												</rate>
												<width>1920</width>
												<height>1080</height>
												<anamorphic>FALSE</anamorphic>
												<pixelaspectratio>square</pixelaspectratio>
												<fielddominance>none</fielddominance>
											</samplecharacteristics>
										</video>
										<audio>
											<samplecharacteristics>
												<depth>16</depth>
												<samplerate>48000</samplerate>
											</samplecharacteristics>
											<channelcount>2</channelcount>
										</audio>
									</media>
								</file>
								<link>
									<linkclipref>clipitem-176</linkclipref>
									<mediatype>video</mediatype>
									<trackindex>1</trackindex>
									<clipindex>1</clipindex>
								</link>
								<link>
									<linkclipref>clipitem-177</linkclipref>
									<mediatype>audio</mediatype>
									<trackindex>1</trackindex>
									<clipindex>1</clipindex>
									<groupindex>1</groupindex>
								</link>
								<link>
									<linkclipref>clipitem-178</linkclipref>
									<mediatype>audio</mediatype>
									<trackindex>2</trackindex>
									<clipindex>1</clipindex>
									<groupindex>1</groupindex>
								</link>
							</clipitem>
						</track>
					</video>
					<audio>
						<track>
							<clipitem id="clipitem-177" frameBlend="FALSE">
								<masterclipid>masterclip-59</masterclipid>
								<name>P2060012.mp4</name>
								<file id="file-59"/>
								<sourcetrack>
									<mediatype>audio</mediatype>
									<trackindex>1</trackindex>
								</sourcetrack>
								<link>
									<linkclipref>clipitem-176</linkclipref>
									<mediatype>video</mediatype>
									<trackindex>1</trackindex>
									<clipindex>1</clipindex>
								</link>
								<link>
									<linkclipref>clipitem-177</linkclipref>
									<mediatype>audio</mediatype>
									<trackindex>1</trackindex>
									<clipindex>1</clipindex>
									<groupindex>1</groupindex>
								</link>
								<link>
									<linkclipref>clipitem-178</linkclipref>
									<mediatype>audio</mediatype>
									<trackindex>2</trackindex>
									<clipindex>1</clipindex>
									<groupindex>1</groupindex>
								</link>
							</clipitem>
						</track>
						<track>
							<clipitem id="clipitem-178" frameBlend="FALSE">
								<masterclipid>masterclip-59</masterclipid>
								<name>P2060012.mp4</name>
								<file id="file-59"/>
								<sourcetrack>
									<mediatype>audio</mediatype>
									<trackindex>2</trackindex>
								</sourcetrack>
								<link>
									<linkclipref>clipitem-176</linkclipref>
									<mediatype>video</mediatype>
									<trackindex>1</trackindex>
									<clipindex>1</clipindex>
								</link>
								<link>
									<linkclipref>clipitem-177</linkclipref>
									<mediatype>audio</mediatype>
									<trackindex>1</trackindex>
									<clipindex>1</clipindex>
									<groupindex>1</groupindex>
								</link>
								<link>
									<linkclipref>clipitem-178</linkclipref>
									<mediatype>audio</mediatype>
									<trackindex>2</trackindex>
									<clipindex>1</clipindex>
									<groupindex>1</groupindex>
								</link>
							</clipitem>
						</track>
					</audio>
				</media>
				<logginginfo>
					<description></description>
					<scene></scene>
					<shottake></shottake>
					<lognote></lognote>
				</logginginfo>
			</clip>
			<clip id="masterclip-60" frameBlend="FALSE">
				<uuid>aee60b34-4c12-430b-8e60-a6f013cf7350</uuid>
				<masterclipid>masterclip-60</masterclipid>
				<ismasterclip>TRUE</ismasterclip>
				<duration>156</duration>
				<rate>
					<timebase>24</timebase>
					<ntsc>TRUE</ntsc>
				</rate>
				<name>P2060010.mp4</name>
				<media>
					<video>
						<track>
							<clipitem id="clipitem-179" frameBlend="FALSE">
								<masterclipid>masterclip-60</masterclipid>
								<name>P2060010.mp4</name>
								<alphatype>black</alphatype>
								<pixelaspectratio>square</pixelaspectratio>
								<anamorphic>FALSE</anamorphic>
								<file id="file-60">
									<name>P2060010.mp4</name>
									<pathurl>file://localhost/Users/jacksongsimac/Downloads/autorough/2016-04-16/P2060010.mp4</pathurl>
									<rate>
										<timebase>24</timebase>
										<ntsc>TRUE</ntsc>
									</rate>
									<duration>156</duration>
									<timecode>
										<rate>
											<timebase>24</timebase>
											<ntsc>TRUE</ntsc>
										</rate>
										<string>00:00:00:00</string>
										<frame>0</frame>
										<displayformat>NDF</displayformat>
										<reel>
											<name></name>
										</reel>
									</timecode>
									<media>
										<video>
											<duration>18000</duration>
											<samplecharacteristics>
												<rate>
													<timebase>24</timebase>
													<ntsc>TRUE</ntsc>
												</rate>
												<width>1920</width>
												<height>1080</height>
												<anamorphic>FALSE</anamorphic>
												<pixelaspectratio>square</pixelaspectratio>
												<fielddominance>none</fielddominance>
											</samplecharacteristics>
										</video>
										<audio>
											<samplecharacteristics>
												<depth>16</depth>
												<samplerate>48000</samplerate>
											</samplecharacteristics>
											<channelcount>2</channelcount>
										</audio>
									</media>
								</file>
								<link>
									<linkclipref>clipitem-179</linkclipref>
									<mediatype>video</mediatype>
									<trackindex>1</trackindex>
									<clipindex>1</clipindex>
								</link>
								<link>
									<linkclipref>clipitem-180</linkclipref>
									<mediatype>audio</mediatype>
									<trackindex>1</trackindex>
									<clipindex>1</clipindex>
									<groupindex>1</groupindex>
								</link>
								<link>
									<linkclipref>clipitem-181</linkclipref>
									<mediatype>audio</mediatype>
									<trackindex>2</trackindex>
									<clipindex>1</clipindex>
									<groupindex>1</groupindex>
								</link>
							</clipitem>
						</track>
					</video>
					<audio>
						<track>
							<clipitem id="clipitem-180" frameBlend="FALSE">
								<masterclipid>masterclip-60</masterclipid>
								<name>P2060010.mp4</name>
								<file id="file-60"/>
								<sourcetrack>
									<mediatype>audio</mediatype>
									<trackindex>1</trackindex>
								</sourcetrack>
								<link>
									<linkclipref>clipitem-179</linkclipref>
									<mediatype>video</mediatype>
									<trackindex>1</trackindex>
									<clipindex>1</clipindex>
								</link>
								<link>
									<linkclipref>clipitem-180</linkclipref>
									<mediatype>audio</mediatype>
									<trackindex>1</trackindex>
									<clipindex>1</clipindex>
									<groupindex>1</groupindex>
								</link>
								<link>
									<linkclipref>clipitem-181</linkclipref>
									<mediatype>audio</mediatype>
									<trackindex>2</trackindex>
									<clipindex>1</clipindex>
									<groupindex>1</groupindex>
								</link>
							</clipitem>
						</track>
						<track>
							<clipitem id="clipitem-181" frameBlend="FALSE">
								<masterclipid>masterclip-60</masterclipid>
								<name>P2060010.mp4</name>
								<file id="file-60"/>
								<sourcetrack>
									<mediatype>audio</mediatype>
									<trackindex>2</trackindex>
								</sourcetrack>
								<link>
									<linkclipref>clipitem-179</linkclipref>
									<mediatype>video</mediatype>
									<trackindex>1</trackindex>
									<clipindex>1</clipindex>
								</link>
								<link>
									<linkclipref>clipitem-180</linkclipref>
									<mediatype>audio</mediatype>
									<trackindex>1</trackindex>
									<clipindex>1</clipindex>
									<groupindex>1</groupindex>
								</link>
								<link>
									<linkclipref>clipitem-181</linkclipref>
									<mediatype>audio</mediatype>
									<trackindex>2</trackindex>
									<clipindex>1</clipindex>
									<groupindex>1</groupindex>
								</link>
							</clipitem>
						</track>
					</audio>
				</media>
				<logginginfo>
					<description></description>
					<scene></scene>
					<shottake></shottake>
					<lognote></lognote>
				</logginginfo>
			</clip>
			<clip id="masterclip-49" frameBlend="FALSE">
				<uuid>33187c0b-ab2b-4957-ba2d-b227dd37ef8b</uuid>
				<masterclipid>masterclip-49</masterclipid>
				<ismasterclip>TRUE</ismasterclip>
				<duration>288</duration>
				<rate>
					<timebase>24</timebase>
					<ntsc>TRUE</ntsc>
				</rate>
				<name>P2060009.mp4</name>
				<media>
					<video>
						<track>
							<clipitem id="clipitem-182" frameBlend="FALSE">
								<masterclipid>masterclip-49</masterclipid>
								<name>P2060009.mp4</name>
								<alphatype>black</alphatype>
								<file id="file-49"/>
								<link>
									<linkclipref>clipitem-182</linkclipref>
									<mediatype>video</mediatype>
									<trackindex>1</trackindex>
									<clipindex>1</clipindex>
								</link>
								<link>
									<linkclipref>clipitem-183</linkclipref>
									<mediatype>audio</mediatype>
									<trackindex>1</trackindex>
									<clipindex>1</clipindex>
									<groupindex>1</groupindex>
								</link>
								<link>
									<linkclipref>clipitem-184</linkclipref>
									<mediatype>audio</mediatype>
									<trackindex>2</trackindex>
									<clipindex>1</clipindex>
									<groupindex>1</groupindex>
								</link>
							</clipitem>
						</track>
					</video>
					<audio>
						<track>
							<clipitem id="clipitem-183" frameBlend="FALSE">
								<masterclipid>masterclip-49</masterclipid>
								<name>P2060009.mp4</name>
								<file id="file-49"/>
								<sourcetrack>
									<mediatype>audio</mediatype>
									<trackindex>1</trackindex>
								</sourcetrack>
								<link>
									<linkclipref>clipitem-182</linkclipref>
									<mediatype>video</mediatype>
									<trackindex>1</trackindex>
									<clipindex>1</clipindex>
								</link>
								<link>
									<linkclipref>clipitem-183</linkclipref>
									<mediatype>audio</mediatype>
									<trackindex>1</trackindex>
									<clipindex>1</clipindex>
									<groupindex>1</groupindex>
								</link>
								<link>
									<linkclipref>clipitem-184</linkclipref>
									<mediatype>audio</mediatype>
									<trackindex>2</trackindex>
									<clipindex>1</clipindex>
									<groupindex>1</groupindex>
								</link>
							</clipitem>
						</track>
						<track>
							<clipitem id="clipitem-184" frameBlend="FALSE">
								<masterclipid>masterclip-49</masterclipid>
								<name>P2060009.mp4</name>
								<file id="file-49"/>
								<sourcetrack>
									<mediatype>audio</mediatype>
									<trackindex>2</trackindex>
								</sourcetrack>
								<link>
									<linkclipref>clipitem-182</linkclipref>
									<mediatype>video</mediatype>
									<trackindex>1</trackindex>
									<clipindex>1</clipindex>
								</link>
								<link>
									<linkclipref>clipitem-183</linkclipref>
									<mediatype>audio</mediatype>
									<trackindex>1</trackindex>
									<clipindex>1</clipindex>
									<groupindex>1</groupindex>
								</link>
								<link>
									<linkclipref>clipitem-184</linkclipref>
									<mediatype>audio</mediatype>
									<trackindex>2</trackindex>
									<clipindex>1</clipindex>
									<groupindex>1</groupindex>
								</link>
							</clipitem>
						</track>
					</audio>
				</media>
				<logginginfo>
					<description></description>
					<scene></scene>
					<shottake></shottake>
					<lognote></lognote>
				</logginginfo>
			</clip>
		</children>
	</project>
</xmeml>
