<!DOCTYPE xmeml>
<xmeml version="4">
  <project>
    <name>Kakawoo</name>
    <children>
      <clip id="masterclip-105" frameBlend="FALSE">
        <uuid>b2441f86-c511-42b4-9973-bab7e17aef6c</uuid>
        <masterclipid>masterclip-105</masterclipid>
        <ismasterclip>TRUE</ismasterclip>
        <duration>205</duration>
        <rate>
          <timebase>24</timebase>
          <ntsc>TRUE</ntsc>
        </rate>
        <name>00324.MTS</name>
        <media>
          <video>
            <track>
              <clipitem id="clipitem-325" frameBlend="FALSE">
                <masterclipid>masterclip-105</masterclipid>
                <name>00324.MTS</name>
                <alphatype>black</alphatype>
                <pixelaspectratio>square</pixelaspectratio>
                <anamorphic>FALSE</anamorphic>
                <file id="file-105">
                  <name>00324.MTS</name>
                  <pathurl>file://localhost/Volumes/Macintosh%20HD/Users/jacksongs/Desktop/STREAM/00324.MTS</pathurl>
                  <rate>
                    <timebase>24</timebase>
                    <ntsc>TRUE</ntsc>
                  </rate>
                  <duration>205</duration>
                  <timecode>
                    <rate>
                      <timebase>24</timebase>
                      <ntsc>TRUE</ntsc>
                    </rate>
                    <string>00:00:00:00</string>
                    <frame>0</frame>
                    <displayformat>NDF</displayformat>
                    <reel>
                      <name/>
                    </reel>
                  </timecode>
                  <media>
                    <video>
                      <duration>18000</duration>
                      <samplecharacteristics>
                        <rate>
                          <timebase>24</timebase>
                          <ntsc>TRUE</ntsc>
                        </rate>
                        <width>1920</width>
                        <height>1080</height>
                        <anamorphic>FALSE</anamorphic>
                        <pixelaspectratio>square</pixelaspectratio>
                        <fielddominance>none</fielddominance>
                      </samplecharacteristics>
                    </video>
                    <audio>
                      <samplecharacteristics>
                        <depth>16</depth>
                        <samplerate>48000</samplerate>
                      </samplecharacteristics>
                      <channelcount>2</channelcount>
                    </audio>
                  </media>
                </file>
                <link>
                  <linkclipref>clipitem-325</linkclipref>
                  <mediatype>video</mediatype>
                  <trackindex>1</trackindex>
                  <clipindex>1</clipindex>
                </link>
                <link>
                  <linkclipref>clipitem-326</linkclipref>
                  <mediatype>audio</mediatype>
                  <trackindex>1</trackindex>
                  <clipindex>1</clipindex>
                  <groupindex>1</groupindex>
                </link>
                <link>
                  <linkclipref>clipitem-327</linkclipref>
                  <mediatype>audio</mediatype>
                  <trackindex>2</trackindex>
                  <clipindex>1</clipindex>
                  <groupindex>1</groupindex>
                </link>
              </clipitem>
            </track>
          </video>
          <audio>
            <track>
              <clipitem id="clipitem-326" frameBlend="FALSE">
                <masterclipid>masterclip-105</masterclipid>
                <name>00324.MTS</name>
                <file id="file-105"/>
                <sourcetrack>
                  <mediatype>audio</mediatype>
                  <trackindex>1</trackindex>
                </sourcetrack>
                <link>
                  <linkclipref>clipitem-325</linkclipref>
                  <mediatype>video</mediatype>
                  <trackindex>1</trackindex>
                  <clipindex>1</clipindex>
                </link>
                <link>
                  <linkclipref>clipitem-326</linkclipref>
                  <mediatype>audio</mediatype>
                  <trackindex>1</trackindex>
                  <clipindex>1</clipindex>
                  <groupindex>1</groupindex>
                </link>
                <link>
                  <linkclipref>clipitem-327</linkclipref>
                  <mediatype>audio</mediatype>
                  <trackindex>2</trackindex>
                  <clipindex>1</clipindex>
                  <groupindex>1</groupindex>
                </link>
              </clipitem>
            </track>
            <track>
              <clipitem id="clipitem-327" frameBlend="FALSE">
                <masterclipid>masterclip-105</masterclipid>
                <name>00324.MTS</name>
                <file id="file-105"/>
                <sourcetrack>
                  <mediatype>audio</mediatype>
                  <trackindex>2</trackindex>
                </sourcetrack>
                <link>
                  <linkclipref>clipitem-325</linkclipref>
                  <mediatype>video</mediatype>
                  <trackindex>1</trackindex>
                  <clipindex>1</clipindex>
                </link>
                <link>
                  <linkclipref>clipitem-326</linkclipref>
                  <mediatype>audio</mediatype>
                  <trackindex>1</trackindex>
                  <clipindex>1</clipindex>
                  <groupindex>1</groupindex>
                </link>
                <link>
                  <linkclipref>clipitem-327</linkclipref>
                  <mediatype>audio</mediatype>
                  <trackindex>2</trackindex>
                  <clipindex>1</clipindex>
                  <groupindex>1</groupindex>
                </link>
              </clipitem>
            </track>
          </audio>
        </media>
        <logginginfo>
          <description/>
          <scene/>
          <shottake/>
          <lognote/>
        </logginginfo>
      </clip>
      <clip id="masterclip-106" frameBlend="FALSE">
        <uuid>329e996f-8bf8-4bd7-b704-ed547481256a</uuid>
        <masterclipid>masterclip-106</masterclipid>
        <ismasterclip>TRUE</ismasterclip>
        <duration>205</duration>
        <rate>
          <timebase>24</timebase>
          <ntsc>TRUE</ntsc>
        </rate>
        <name>00325.MTS</name>
        <media>
          <video>
            <track>
              <clipitem id="clipitem-328" frameBlend="FALSE">
                <masterclipid>masterclip-106</masterclipid>
                <name>00325.MTS</name>
                <alphatype>black</alphatype>
                <pixelaspectratio>square</pixelaspectratio>
                <anamorphic>FALSE</anamorphic>
                <file id="file-106">
                  <name>00325.MTS</name>
                  <pathurl>file://localhost/Volumes/Macintosh%20HD/Users/jacksongs/Desktop/STREAM/00325.MTS</pathurl>
                  <rate>
                    <timebase>24</timebase>
                    <ntsc>TRUE</ntsc>
                  </rate>
                  <duration>205</duration>
                  <timecode>
                    <rate>
                      <timebase>24</timebase>
                      <ntsc>TRUE</ntsc>
                    </rate>
                    <string>00:00:00:00</string>
                    <frame>0</frame>
                    <displayformat>NDF</displayformat>
                    <reel>
                      <name/>
                    </reel>
                  </timecode>
                  <media>
                    <video>
                      <duration>18000</duration>
                      <samplecharacteristics>
                        <rate>
                          <timebase>24</timebase>
                          <ntsc>TRUE</ntsc>
                        </rate>
                        <width>1920</width>
                        <height>1080</height>
                        <anamorphic>FALSE</anamorphic>
                        <pixelaspectratio>square</pixelaspectratio>
                        <fielddominance>none</fielddominance>
                      </samplecharacteristics>
                    </video>
                    <audio>
                      <samplecharacteristics>
                        <depth>16</depth>
                        <samplerate>48000</samplerate>
                      </samplecharacteristics>
                      <channelcount>2</channelcount>
                    </audio>
                  </media>
                </file>
                <link>
                  <linkclipref>clipitem-328</linkclipref>
                  <mediatype>video</mediatype>
                  <trackindex>1</trackindex>
                  <clipindex>1</clipindex>
                </link>
                <link>
                  <linkclipref>clipitem-329</linkclipref>
                  <mediatype>audio</mediatype>
                  <trackindex>1</trackindex>
                  <clipindex>1</clipindex>
                  <groupindex>1</groupindex>
                </link>
                <link>
                  <linkclipref>clipitem-330</linkclipref>
                  <mediatype>audio</mediatype>
                  <trackindex>2</trackindex>
                  <clipindex>1</clipindex>
                  <groupindex>1</groupindex>
                </link>
              </clipitem>
            </track>
          </video>
          <audio>
            <track>
              <clipitem id="clipitem-329" frameBlend="FALSE">
                <masterclipid>masterclip-106</masterclipid>
                <name>00325.MTS</name>
                <file id="file-106"/>
                <sourcetrack>
                  <mediatype>audio</mediatype>
                  <trackindex>1</trackindex>
                </sourcetrack>
                <link>
                  <linkclipref>clipitem-328</linkclipref>
                  <mediatype>video</mediatype>
                  <trackindex>1</trackindex>
                  <clipindex>1</clipindex>
                </link>
                <link>
                  <linkclipref>clipitem-329</linkclipref>
                  <mediatype>audio</mediatype>
                  <trackindex>1</trackindex>
                  <clipindex>1</clipindex>
                  <groupindex>1</groupindex>
                </link>
                <link>
                  <linkclipref>clipitem-330</linkclipref>
                  <mediatype>audio</mediatype>
                  <trackindex>2</trackindex>
                  <clipindex>1</clipindex>
                  <groupindex>1</groupindex>
                </link>
              </clipitem>
            </track>
            <track>
              <clipitem id="clipitem-330" frameBlend="FALSE">
                <masterclipid>masterclip-106</masterclipid>
                <name>00325.MTS</name>
                <file id="file-106"/>
                <sourcetrack>
                  <mediatype>audio</mediatype>
                  <trackindex>2</trackindex>
                </sourcetrack>
                <link>
                  <linkclipref>clipitem-328</linkclipref>
                  <mediatype>video</mediatype>
                  <trackindex>1</trackindex>
                  <clipindex>1</clipindex>
                </link>
                <link>
                  <linkclipref>clipitem-329</linkclipref>
                  <mediatype>audio</mediatype>
                  <trackindex>1</trackindex>
                  <clipindex>1</clipindex>
                  <groupindex>1</groupindex>
                </link>
                <link>
                  <linkclipref>clipitem-330</linkclipref>
                  <mediatype>audio</mediatype>
                  <trackindex>2</trackindex>
                  <clipindex>1</clipindex>
                  <groupindex>1</groupindex>
                </link>
              </clipitem>
            </track>
          </audio>
        </media>
        <logginginfo>
          <description/>
          <scene/>
          <shottake/>
          <lognote/>
        </logginginfo>
      </clip>
      <clip id="masterclip-107" frameBlend="FALSE">
        <uuid>115d3aa9-6a3f-413c-a791-9db3a3a32d63</uuid>
        <masterclipid>masterclip-107</masterclipid>
        <ismasterclip>TRUE</ismasterclip>
        <duration>745</duration>
        <rate>
          <timebase>24</timebase>
          <ntsc>TRUE</ntsc>
        </rate>
        <name>00326.MTS</name>
        <media>
          <video>
            <track>
              <clipitem id="clipitem-331" frameBlend="FALSE">
                <masterclipid>masterclip-107</masterclipid>
                <name>00326.MTS</name>
                <alphatype>black</alphatype>
                <pixelaspectratio>square</pixelaspectratio>
                <anamorphic>FALSE</anamorphic>
                <file id="file-107">
                  <name>00326.MTS</name>
                  <pathurl>file://localhost/Volumes/Macintosh%20HD/Users/jacksongs/Desktop/STREAM/00326.MTS</pathurl>
                  <rate>
                    <timebase>24</timebase>
                    <ntsc>TRUE</ntsc>
                  </rate>
                  <duration>745</duration>
                  <timecode>
                    <rate>
                      <timebase>24</timebase>
                      <ntsc>TRUE</ntsc>
                    </rate>
                    <string>00:00:00:00</string>
                    <frame>0</frame>
                    <displayformat>NDF</displayformat>
                    <reel>
                      <name/>
                    </reel>
                  </timecode>
                  <media>
                    <video>
                      <duration>18000</duration>
                      <samplecharacteristics>
                        <rate>
                          <timebase>24</timebase>
                          <ntsc>TRUE</ntsc>
                        </rate>
                        <width>1920</width>
                        <height>1080</height>
                        <anamorphic>FALSE</anamorphic>
                        <pixelaspectratio>square</pixelaspectratio>
                        <fielddominance>none</fielddominance>
                      </samplecharacteristics>
                    </video>
                    <audio>
                      <samplecharacteristics>
                        <depth>16</depth>
                        <samplerate>48000</samplerate>
                      </samplecharacteristics>
                      <channelcount>2</channelcount>
                    </audio>
                  </media>
                </file>
                <link>
                  <linkclipref>clipitem-331</linkclipref>
                  <mediatype>video</mediatype>
                  <trackindex>1</trackindex>
                  <clipindex>1</clipindex>
                </link>
                <link>
                  <linkclipref>clipitem-332</linkclipref>
                  <mediatype>audio</mediatype>
                  <trackindex>1</trackindex>
                  <clipindex>1</clipindex>
                  <groupindex>1</groupindex>
                </link>
                <link>
                  <linkclipref>clipitem-333</linkclipref>
                  <mediatype>audio</mediatype>
                  <trackindex>2</trackindex>
                  <clipindex>1</clipindex>
                  <groupindex>1</groupindex>
                </link>
              </clipitem>
            </track>
          </video>
          <audio>
            <track>
              <clipitem id="clipitem-332" frameBlend="FALSE">
                <masterclipid>masterclip-107</masterclipid>
                <name>00326.MTS</name>
                <file id="file-107"/>
                <sourcetrack>
                  <mediatype>audio</mediatype>
                  <trackindex>1</trackindex>
                </sourcetrack>
                <link>
                  <linkclipref>clipitem-331</linkclipref>
                  <mediatype>video</mediatype>
                  <trackindex>1</trackindex>
                  <clipindex>1</clipindex>
                </link>
                <link>
                  <linkclipref>clipitem-332</linkclipref>
                  <mediatype>audio</mediatype>
                  <trackindex>1</trackindex>
                  <clipindex>1</clipindex>
                  <groupindex>1</groupindex>
                </link>
                <link>
                  <linkclipref>clipitem-333</linkclipref>
                  <mediatype>audio</mediatype>
                  <trackindex>2</trackindex>
                  <clipindex>1</clipindex>
                  <groupindex>1</groupindex>
                </link>
              </clipitem>
            </track>
            <track>
              <clipitem id="clipitem-333" frameBlend="FALSE">
                <masterclipid>masterclip-107</masterclipid>
                <name>00326.MTS</name>
                <file id="file-107"/>
                <sourcetrack>
                  <mediatype>audio</mediatype>
                  <trackindex>2</trackindex>
                </sourcetrack>
                <link>
                  <linkclipref>clipitem-331</linkclipref>
                  <mediatype>video</mediatype>
                  <trackindex>1</trackindex>
                  <clipindex>1</clipindex>
                </link>
                <link>
                  <linkclipref>clipitem-332</linkclipref>
                  <mediatype>audio</mediatype>
                  <trackindex>1</trackindex>
                  <clipindex>1</clipindex>
                  <groupindex>1</groupindex>
                </link>
                <link>
                  <linkclipref>clipitem-333</linkclipref>
                  <mediatype>audio</mediatype>
                  <trackindex>2</trackindex>
                  <clipindex>1</clipindex>
                  <groupindex>1</groupindex>
                </link>
              </clipitem>
            </track>
          </audio>
        </media>
        <logginginfo>
          <description/>
          <scene/>
          <shottake/>
          <lognote/>
        </logginginfo>
      </clip>
      <clip id="masterclip-108" frameBlend="FALSE">
        <uuid>6599ee5b-553f-471d-bba4-6ad6441065aa</uuid>
        <masterclipid>masterclip-108</masterclipid>
        <ismasterclip>TRUE</ismasterclip>
        <duration>205</duration>
        <rate>
          <timebase>24</timebase>
          <ntsc>TRUE</ntsc>
        </rate>
        <name>00327.MTS</name>
        <media>
          <video>
            <track>
              <clipitem id="clipitem-334" frameBlend="FALSE">
                <masterclipid>masterclip-108</masterclipid>
                <name>00327.MTS</name>
                <alphatype>black</alphatype>
                <pixelaspectratio>square</pixelaspectratio>
                <anamorphic>FALSE</anamorphic>
                <file id="file-108">
                  <name>00327.MTS</name>
                  <pathurl>file://localhost/Volumes/Macintosh%20HD/Users/jacksongs/Desktop/STREAM/00327.MTS</pathurl>
                  <rate>
                    <timebase>24</timebase>
                    <ntsc>TRUE</ntsc>
                  </rate>
                  <duration>205</duration>
                  <timecode>
                    <rate>
                      <timebase>24</timebase>
                      <ntsc>TRUE</ntsc>
                    </rate>
                    <string>00:00:00:00</string>
                    <frame>0</frame>
                    <displayformat>NDF</displayformat>
                    <reel>
                      <name/>
                    </reel>
                  </timecode>
                  <media>
                    <video>
                      <duration>18000</duration>
                      <samplecharacteristics>
                        <rate>
                          <timebase>24</timebase>
                          <ntsc>TRUE</ntsc>
                        </rate>
                        <width>1920</width>
                        <height>1080</height>
                        <anamorphic>FALSE</anamorphic>
                        <pixelaspectratio>square</pixelaspectratio>
                        <fielddominance>none</fielddominance>
                      </samplecharacteristics>
                    </video>
                    <audio>
                      <samplecharacteristics>
                        <depth>16</depth>
                        <samplerate>48000</samplerate>
                      </samplecharacteristics>
                      <channelcount>2</channelcount>
                    </audio>
                  </media>
                </file>
                <link>
                  <linkclipref>clipitem-334</linkclipref>
                  <mediatype>video</mediatype>
                  <trackindex>1</trackindex>
                  <clipindex>1</clipindex>
                </link>
                <link>
                  <linkclipref>clipitem-335</linkclipref>
                  <mediatype>audio</mediatype>
                  <trackindex>1</trackindex>
                  <clipindex>1</clipindex>
                  <groupindex>1</groupindex>
                </link>
                <link>
                  <linkclipref>clipitem-336</linkclipref>
                  <mediatype>audio</mediatype>
                  <trackindex>2</trackindex>
                  <clipindex>1</clipindex>
                  <groupindex>1</groupindex>
                </link>
              </clipitem>
            </track>
          </video>
          <audio>
            <track>
              <clipitem id="clipitem-335" frameBlend="FALSE">
                <masterclipid>masterclip-108</masterclipid>
                <name>00327.MTS</name>
                <file id="file-108"/>
                <sourcetrack>
                  <mediatype>audio</mediatype>
                  <trackindex>1</trackindex>
                </sourcetrack>
                <link>
                  <linkclipref>clipitem-334</linkclipref>
                  <mediatype>video</mediatype>
                  <trackindex>1</trackindex>
                  <clipindex>1</clipindex>
                </link>
                <link>
                  <linkclipref>clipitem-335</linkclipref>
                  <mediatype>audio</mediatype>
                  <trackindex>1</trackindex>
                  <clipindex>1</clipindex>
                  <groupindex>1</groupindex>
                </link>
                <link>
                  <linkclipref>clipitem-336</linkclipref>
                  <mediatype>audio</mediatype>
                  <trackindex>2</trackindex>
                  <clipindex>1</clipindex>
                  <groupindex>1</groupindex>
                </link>
              </clipitem>
            </track>
            <track>
              <clipitem id="clipitem-336" frameBlend="FALSE">
                <masterclipid>masterclip-108</masterclipid>
                <name>00327.MTS</name>
                <file id="file-108"/>
                <sourcetrack>
                  <mediatype>audio</mediatype>
                  <trackindex>2</trackindex>
                </sourcetrack>
                <link>
                  <linkclipref>clipitem-334</linkclipref>
                  <mediatype>video</mediatype>
                  <trackindex>1</trackindex>
                  <clipindex>1</clipindex>
                </link>
                <link>
                  <linkclipref>clipitem-335</linkclipref>
                  <mediatype>audio</mediatype>
                  <trackindex>1</trackindex>
                  <clipindex>1</clipindex>
                  <groupindex>1</groupindex>
                </link>
                <link>
                  <linkclipref>clipitem-336</linkclipref>
                  <mediatype>audio</mediatype>
                  <trackindex>2</trackindex>
                  <clipindex>1</clipindex>
                  <groupindex>1</groupindex>
                </link>
              </clipitem>
            </track>
          </audio>
        </media>
        <logginginfo>
          <description/>
          <scene/>
          <shottake/>
          <lognote/>
        </logginginfo>
      </clip>
      <clip id="masterclip-109" frameBlend="FALSE">
        <uuid>ec14283e-f901-4a5c-907a-23cb09835c96</uuid>
        <masterclipid>masterclip-109</masterclipid>
        <ismasterclip>TRUE</ismasterclip>
        <duration>73</duration>
        <rate>
          <timebase>24</timebase>
          <ntsc>TRUE</ntsc>
        </rate>
        <name>00328.MTS</name>
        <media>
          <video>
            <track>
              <clipitem id="clipitem-337" frameBlend="FALSE">
                <masterclipid>masterclip-109</masterclipid>
                <name>00328.MTS</name>
                <alphatype>black</alphatype>
                <pixelaspectratio>square</pixelaspectratio>
                <anamorphic>FALSE</anamorphic>
                <file id="file-109">
                  <name>00328.MTS</name>
                  <pathurl>file://localhost/Volumes/Macintosh%20HD/Users/jacksongs/Desktop/STREAM/00328.MTS</pathurl>
                  <rate>
                    <timebase>24</timebase>
                    <ntsc>TRUE</ntsc>
                  </rate>
                  <duration>73</duration>
                  <timecode>
                    <rate>
                      <timebase>24</timebase>
                      <ntsc>TRUE</ntsc>
                    </rate>
                    <string>00:00:00:00</string>
                    <frame>0</frame>
                    <displayformat>NDF</displayformat>
                    <reel>
                      <name/>
                    </reel>
                  </timecode>
                  <media>
                    <video>
                      <duration>18000</duration>
                      <samplecharacteristics>
                        <rate>
                          <timebase>24</timebase>
                          <ntsc>TRUE</ntsc>
                        </rate>
                        <width>1920</width>
                        <height>1080</height>
                        <anamorphic>FALSE</anamorphic>
                        <pixelaspectratio>square</pixelaspectratio>
                        <fielddominance>none</fielddominance>
                      </samplecharacteristics>
                    </video>
                    <audio>
                      <samplecharacteristics>
                        <depth>16</depth>
                        <samplerate>48000</samplerate>
                      </samplecharacteristics>
                      <channelcount>2</channelcount>
                    </audio>
                  </media>
                </file>
                <link>
                  <linkclipref>clipitem-337</linkclipref>
                  <mediatype>video</mediatype>
                  <trackindex>1</trackindex>
                  <clipindex>1</clipindex>
                </link>
                <link>
                  <linkclipref>clipitem-338</linkclipref>
                  <mediatype>audio</mediatype>
                  <trackindex>1</trackindex>
                  <clipindex>1</clipindex>
                  <groupindex>1</groupindex>
                </link>
                <link>
                  <linkclipref>clipitem-339</linkclipref>
                  <mediatype>audio</mediatype>
                  <trackindex>2</trackindex>
                  <clipindex>1</clipindex>
                  <groupindex>1</groupindex>
                </link>
              </clipitem>
            </track>
          </video>
          <audio>
            <track>
              <clipitem id="clipitem-338" frameBlend="FALSE">
                <masterclipid>masterclip-109</masterclipid>
                <name>00328.MTS</name>
                <file id="file-109"/>
                <sourcetrack>
                  <mediatype>audio</mediatype>
                  <trackindex>1</trackindex>
                </sourcetrack>
                <link>
                  <linkclipref>clipitem-337</linkclipref>
                  <mediatype>video</mediatype>
                  <trackindex>1</trackindex>
                  <clipindex>1</clipindex>
                </link>
                <link>
                  <linkclipref>clipitem-338</linkclipref>
                  <mediatype>audio</mediatype>
                  <trackindex>1</trackindex>
                  <clipindex>1</clipindex>
                  <groupindex>1</groupindex>
                </link>
                <link>
                  <linkclipref>clipitem-339</linkclipref>
                  <mediatype>audio</mediatype>
                  <trackindex>2</trackindex>
                  <clipindex>1</clipindex>
                  <groupindex>1</groupindex>
                </link>
              </clipitem>
            </track>
            <track>
              <clipitem id="clipitem-339" frameBlend="FALSE">
                <masterclipid>masterclip-109</masterclipid>
                <name>00328.MTS</name>
                <file id="file-109"/>
                <sourcetrack>
                  <mediatype>audio</mediatype>
                  <trackindex>2</trackindex>
                </sourcetrack>
                <link>
                  <linkclipref>clipitem-337</linkclipref>
                  <mediatype>video</mediatype>
                  <trackindex>1</trackindex>
                  <clipindex>1</clipindex>
                </link>
                <link>
                  <linkclipref>clipitem-338</linkclipref>
                  <mediatype>audio</mediatype>
                  <trackindex>1</trackindex>
                  <clipindex>1</clipindex>
                  <groupindex>1</groupindex>
                </link>
                <link>
                  <linkclipref>clipitem-339</linkclipref>
                  <mediatype>audio</mediatype>
                  <trackindex>2</trackindex>
                  <clipindex>1</clipindex>
                  <groupindex>1</groupindex>
                </link>
              </clipitem>
            </track>
          </audio>
        </media>
        <logginginfo>
          <description/>
          <scene/>
          <shottake/>
          <lognote/>
        </logginginfo>
      </clip>
      <clip id="masterclip-110" frameBlend="FALSE">
        <uuid>a7f6b544-f98a-4c5f-befa-77771ff85f51</uuid>
        <masterclipid>masterclip-110</masterclipid>
        <ismasterclip>TRUE</ismasterclip>
        <duration>325</duration>
        <rate>
          <timebase>24</timebase>
          <ntsc>TRUE</ntsc>
        </rate>
        <name>00329.MTS</name>
        <media>
          <video>
            <track>
              <clipitem id="clipitem-340" frameBlend="FALSE">
                <masterclipid>masterclip-110</masterclipid>
                <name>00329.MTS</name>
                <alphatype>black</alphatype>
                <pixelaspectratio>square</pixelaspectratio>
                <anamorphic>FALSE</anamorphic>
                <file id="file-110">
                  <name>00329.MTS</name>
                  <pathurl>file://localhost/Volumes/Macintosh%20HD/Users/jacksongs/Desktop/STREAM/00329.MTS</pathurl>
                  <rate>
                    <timebase>24</timebase>
                    <ntsc>TRUE</ntsc>
                  </rate>
                  <duration>325</duration>
                  <timecode>
                    <rate>
                      <timebase>24</timebase>
                      <ntsc>TRUE</ntsc>
                    </rate>
                    <string>00:00:00:00</string>
                    <frame>0</frame>
                    <displayformat>NDF</displayformat>
                    <reel>
                      <name/>
                    </reel>
                  </timecode>
                  <media>
                    <video>
                      <duration>18000</duration>
                      <samplecharacteristics>
                        <rate>
                          <timebase>24</timebase>
                          <ntsc>TRUE</ntsc>
                        </rate>
                        <width>1920</width>
                        <height>1080</height>
                        <anamorphic>FALSE</anamorphic>
                        <pixelaspectratio>square</pixelaspectratio>
                        <fielddominance>none</fielddominance>
                      </samplecharacteristics>
                    </video>
                    <audio>
                      <samplecharacteristics>
                        <depth>16</depth>
                        <samplerate>48000</samplerate>
                      </samplecharacteristics>
                      <channelcount>2</channelcount>
                    </audio>
                  </media>
                </file>
                <link>
                  <linkclipref>clipitem-340</linkclipref>
                  <mediatype>video</mediatype>
                  <trackindex>1</trackindex>
                  <clipindex>1</clipindex>
                </link>
                <link>
                  <linkclipref>clipitem-341</linkclipref>
                  <mediatype>audio</mediatype>
                  <trackindex>1</trackindex>
                  <clipindex>1</clipindex>
                  <groupindex>1</groupindex>
                </link>
                <link>
                  <linkclipref>clipitem-342</linkclipref>
                  <mediatype>audio</mediatype>
                  <trackindex>2</trackindex>
                  <clipindex>1</clipindex>
                  <groupindex>1</groupindex>
                </link>
              </clipitem>
            </track>
          </video>
          <audio>
            <track>
              <clipitem id="clipitem-341" frameBlend="FALSE">
                <masterclipid>masterclip-110</masterclipid>
                <name>00329.MTS</name>
                <file id="file-110"/>
                <sourcetrack>
                  <mediatype>audio</mediatype>
                  <trackindex>1</trackindex>
                </sourcetrack>
                <link>
                  <linkclipref>clipitem-340</linkclipref>
                  <mediatype>video</mediatype>
                  <trackindex>1</trackindex>
                  <clipindex>1</clipindex>
                </link>
                <link>
                  <linkclipref>clipitem-341</linkclipref>
                  <mediatype>audio</mediatype>
                  <trackindex>1</trackindex>
                  <clipindex>1</clipindex>
                  <groupindex>1</groupindex>
                </link>
                <link>
                  <linkclipref>clipitem-342</linkclipref>
                  <mediatype>audio</mediatype>
                  <trackindex>2</trackindex>
                  <clipindex>1</clipindex>
                  <groupindex>1</groupindex>
                </link>
              </clipitem>
            </track>
            <track>
              <clipitem id="clipitem-342" frameBlend="FALSE">
                <masterclipid>masterclip-110</masterclipid>
                <name>00329.MTS</name>
                <file id="file-110"/>
                <sourcetrack>
                  <mediatype>audio</mediatype>
                  <trackindex>2</trackindex>
                </sourcetrack>
                <link>
                  <linkclipref>clipitem-340</linkclipref>
                  <mediatype>video</mediatype>
                  <trackindex>1</trackindex>
                  <clipindex>1</clipindex>
                </link>
                <link>
                  <linkclipref>clipitem-341</linkclipref>
                  <mediatype>audio</mediatype>
                  <trackindex>1</trackindex>
                  <clipindex>1</clipindex>
                  <groupindex>1</groupindex>
                </link>
                <link>
                  <linkclipref>clipitem-342</linkclipref>
                  <mediatype>audio</mediatype>
                  <trackindex>2</trackindex>
                  <clipindex>1</clipindex>
                  <groupindex>1</groupindex>
                </link>
              </clipitem>
            </track>
          </audio>
        </media>
        <logginginfo>
          <description/>
          <scene/>
          <shottake/>
          <lognote/>
        </logginginfo>
      </clip>
      <clip id="masterclip-111" frameBlend="FALSE">
        <uuid>5cde34d3-1b15-4774-b2a5-bed83b428d3a</uuid>
        <masterclipid>masterclip-111</masterclipid>
        <ismasterclip>TRUE</ismasterclip>
        <duration>313</duration>
        <rate>
          <timebase>24</timebase>
          <ntsc>TRUE</ntsc>
        </rate>
        <name>00330.MTS</name>
        <media>
          <video>
            <track>
              <clipitem id="clipitem-343" frameBlend="FALSE">
                <masterclipid>masterclip-111</masterclipid>
                <name>00330.MTS</name>
                <alphatype>black</alphatype>
                <pixelaspectratio>square</pixelaspectratio>
                <anamorphic>FALSE</anamorphic>
                <file id="file-111">
                  <name>00330.MTS</name>
                  <pathurl>file://localhost/Volumes/Macintosh%20HD/Users/jacksongs/Desktop/STREAM/00330.MTS</pathurl>
                  <rate>
                    <timebase>24</timebase>
                    <ntsc>TRUE</ntsc>
                  </rate>
                  <duration>313</duration>
                  <timecode>
                    <rate>
                      <timebase>24</timebase>
                      <ntsc>TRUE</ntsc>
                    </rate>
                    <string>00:00:00:00</string>
                    <frame>0</frame>
                    <displayformat>NDF</displayformat>
                    <reel>
                      <name/>
                    </reel>
                  </timecode>
                  <media>
                    <video>
                      <duration>18000</duration>
                      <samplecharacteristics>
                        <rate>
                          <timebase>24</timebase>
                          <ntsc>TRUE</ntsc>
                        </rate>
                        <width>1920</width>
                        <height>1080</height>
                        <anamorphic>FALSE</anamorphic>
                        <pixelaspectratio>square</pixelaspectratio>
                        <fielddominance>none</fielddominance>
                      </samplecharacteristics>
                    </video>
                    <audio>
                      <samplecharacteristics>
                        <depth>16</depth>
                        <samplerate>48000</samplerate>
                      </samplecharacteristics>
                      <channelcount>2</channelcount>
                    </audio>
                  </media>
                </file>
                <link>
                  <linkclipref>clipitem-343</linkclipref>
                  <mediatype>video</mediatype>
                  <trackindex>1</trackindex>
                  <clipindex>1</clipindex>
                </link>
                <link>
                  <linkclipref>clipitem-344</linkclipref>
                  <mediatype>audio</mediatype>
                  <trackindex>1</trackindex>
                  <clipindex>1</clipindex>
                  <groupindex>1</groupindex>
                </link>
                <link>
                  <linkclipref>clipitem-345</linkclipref>
                  <mediatype>audio</mediatype>
                  <trackindex>2</trackindex>
                  <clipindex>1</clipindex>
                  <groupindex>1</groupindex>
                </link>
              </clipitem>
            </track>
          </video>
          <audio>
            <track>
              <clipitem id="clipitem-344" frameBlend="FALSE">
                <masterclipid>masterclip-111</masterclipid>
                <name>00330.MTS</name>
                <file id="file-111"/>
                <sourcetrack>
                  <mediatype>audio</mediatype>
                  <trackindex>1</trackindex>
                </sourcetrack>
                <link>
                  <linkclipref>clipitem-343</linkclipref>
                  <mediatype>video</mediatype>
                  <trackindex>1</trackindex>
                  <clipindex>1</clipindex>
                </link>
                <link>
                  <linkclipref>clipitem-344</linkclipref>
                  <mediatype>audio</mediatype>
                  <trackindex>1</trackindex>
                  <clipindex>1</clipindex>
                  <groupindex>1</groupindex>
                </link>
                <link>
                  <linkclipref>clipitem-345</linkclipref>
                  <mediatype>audio</mediatype>
                  <trackindex>2</trackindex>
                  <clipindex>1</clipindex>
                  <groupindex>1</groupindex>
                </link>
              </clipitem>
            </track>
            <track>
              <clipitem id="clipitem-345" frameBlend="FALSE">
                <masterclipid>masterclip-111</masterclipid>
                <name>00330.MTS</name>
                <file id="file-111"/>
                <sourcetrack>
                  <mediatype>audio</mediatype>
                  <trackindex>2</trackindex>
                </sourcetrack>
                <link>
                  <linkclipref>clipitem-343</linkclipref>
                  <mediatype>video</mediatype>
                  <trackindex>1</trackindex>
                  <clipindex>1</clipindex>
                </link>
                <link>
                  <linkclipref>clipitem-344</linkclipref>
                  <mediatype>audio</mediatype>
                  <trackindex>1</trackindex>
                  <clipindex>1</clipindex>
                  <groupindex>1</groupindex>
                </link>
                <link>
                  <linkclipref>clipitem-345</linkclipref>
                  <mediatype>audio</mediatype>
                  <trackindex>2</trackindex>
                  <clipindex>1</clipindex>
                  <groupindex>1</groupindex>
                </link>
              </clipitem>
            </track>
          </audio>
        </media>
        <logginginfo>
          <description/>
          <scene/>
          <shottake/>
          <lognote/>
        </logginginfo>
      </clip>
      <clip id="masterclip-112" frameBlend="FALSE">
        <uuid>ad9353a2-7186-4626-845b-b655566646af</uuid>
        <masterclipid>masterclip-112</masterclipid>
        <ismasterclip>TRUE</ismasterclip>
        <duration>205</duration>
        <rate>
          <timebase>24</timebase>
          <ntsc>TRUE</ntsc>
        </rate>
        <name>00331.MTS</name>
        <media>
          <video>
            <track>
              <clipitem id="clipitem-346" frameBlend="FALSE">
                <masterclipid>masterclip-112</masterclipid>
                <name>00331.MTS</name>
                <alphatype>black</alphatype>
                <pixelaspectratio>square</pixelaspectratio>
                <anamorphic>FALSE</anamorphic>
                <file id="file-112">
                  <name>00331.MTS</name>
                  <pathurl>file://localhost/Volumes/Macintosh%20HD/Users/jacksongs/Desktop/STREAM/00331.MTS</pathurl>
                  <rate>
                    <timebase>24</timebase>
                    <ntsc>TRUE</ntsc>
                  </rate>
                  <duration>205</duration>
                  <timecode>
                    <rate>
                      <timebase>24</timebase>
                      <ntsc>TRUE</ntsc>
                    </rate>
                    <string>00:00:00:00</string>
                    <frame>0</frame>
                    <displayformat>NDF</displayformat>
                    <reel>
                      <name/>
                    </reel>
                  </timecode>
                  <media>
                    <video>
                      <duration>18000</duration>
                      <samplecharacteristics>
                        <rate>
                          <timebase>24</timebase>
                          <ntsc>TRUE</ntsc>
                        </rate>
                        <width>1920</width>
                        <height>1080</height>
                        <anamorphic>FALSE</anamorphic>
                        <pixelaspectratio>square</pixelaspectratio>
                        <fielddominance>none</fielddominance>
                      </samplecharacteristics>
                    </video>
                    <audio>
                      <samplecharacteristics>
                        <depth>16</depth>
                        <samplerate>48000</samplerate>
                      </samplecharacteristics>
                      <channelcount>2</channelcount>
                    </audio>
                  </media>
                </file>
                <link>
                  <linkclipref>clipitem-346</linkclipref>
                  <mediatype>video</mediatype>
                  <trackindex>1</trackindex>
                  <clipindex>1</clipindex>
                </link>
                <link>
                  <linkclipref>clipitem-347</linkclipref>
                  <mediatype>audio</mediatype>
                  <trackindex>1</trackindex>
                  <clipindex>1</clipindex>
                  <groupindex>1</groupindex>
                </link>
                <link>
                  <linkclipref>clipitem-348</linkclipref>
                  <mediatype>audio</mediatype>
                  <trackindex>2</trackindex>
                  <clipindex>1</clipindex>
                  <groupindex>1</groupindex>
                </link>
              </clipitem>
            </track>
          </video>
          <audio>
            <track>
              <clipitem id="clipitem-347" frameBlend="FALSE">
                <masterclipid>masterclip-112</masterclipid>
                <name>00331.MTS</name>
                <file id="file-112"/>
                <sourcetrack>
                  <mediatype>audio</mediatype>
                  <trackindex>1</trackindex>
                </sourcetrack>
                <link>
                  <linkclipref>clipitem-346</linkclipref>
                  <mediatype>video</mediatype>
                  <trackindex>1</trackindex>
                  <clipindex>1</clipindex>
                </link>
                <link>
                  <linkclipref>clipitem-347</linkclipref>
                  <mediatype>audio</mediatype>
                  <trackindex>1</trackindex>
                  <clipindex>1</clipindex>
                  <groupindex>1</groupindex>
                </link>
                <link>
                  <linkclipref>clipitem-348</linkclipref>
                  <mediatype>audio</mediatype>
                  <trackindex>2</trackindex>
                  <clipindex>1</clipindex>
                  <groupindex>1</groupindex>
                </link>
              </clipitem>
            </track>
            <track>
              <clipitem id="clipitem-348" frameBlend="FALSE">
                <masterclipid>masterclip-112</masterclipid>
                <name>00331.MTS</name>
                <file id="file-112"/>
                <sourcetrack>
                  <mediatype>audio</mediatype>
                  <trackindex>2</trackindex>
                </sourcetrack>
                <link>
                  <linkclipref>clipitem-346</linkclipref>
                  <mediatype>video</mediatype>
                  <trackindex>1</trackindex>
                  <clipindex>1</clipindex>
                </link>
                <link>
                  <linkclipref>clipitem-347</linkclipref>
                  <mediatype>audio</mediatype>
                  <trackindex>1</trackindex>
                  <clipindex>1</clipindex>
                  <groupindex>1</groupindex>
                </link>
                <link>
                  <linkclipref>clipitem-348</linkclipref>
                  <mediatype>audio</mediatype>
                  <trackindex>2</trackindex>
                  <clipindex>1</clipindex>
                  <groupindex>1</groupindex>
                </link>
              </clipitem>
            </track>
          </audio>
        </media>
        <logginginfo>
          <description/>
          <scene/>
          <shottake/>
          <lognote/>
        </logginginfo>
      </clip>
      <clip id="masterclip-113" frameBlend="FALSE">
        <uuid>bd35f545-ee23-4b8e-a8e7-b1d2fd94ba44</uuid>
        <masterclipid>masterclip-113</masterclipid>
        <ismasterclip>TRUE</ismasterclip>
        <duration>277</duration>
        <rate>
          <timebase>24</timebase>
          <ntsc>TRUE</ntsc>
        </rate>
        <name>00332.MTS</name>
        <media>
          <video>
            <track>
              <clipitem id="clipitem-349" frameBlend="FALSE">
                <masterclipid>masterclip-113</masterclipid>
                <name>00332.MTS</name>
                <alphatype>black</alphatype>
                <pixelaspectratio>square</pixelaspectratio>
                <anamorphic>FALSE</anamorphic>
                <file id="file-113">
                  <name>00332.MTS</name>
                  <pathurl>file://localhost/Volumes/Macintosh%20HD/Users/jacksongs/Desktop/STREAM/00332.MTS</pathurl>
                  <rate>
                    <timebase>24</timebase>
                    <ntsc>TRUE</ntsc>
                  </rate>
                  <duration>277</duration>
                  <timecode>
                    <rate>
                      <timebase>24</timebase>
                      <ntsc>TRUE</ntsc>
                    </rate>
                    <string>00:00:00:00</string>
                    <frame>0</frame>
                    <displayformat>NDF</displayformat>
                    <reel>
                      <name/>
                    </reel>
                  </timecode>
                  <media>
                    <video>
                      <duration>18000</duration>
                      <samplecharacteristics>
                        <rate>
                          <timebase>24</timebase>
                          <ntsc>TRUE</ntsc>
                        </rate>
                        <width>1920</width>
                        <height>1080</height>
                        <anamorphic>FALSE</anamorphic>
                        <pixelaspectratio>square</pixelaspectratio>
                        <fielddominance>none</fielddominance>
                      </samplecharacteristics>
                    </video>
                    <audio>
                      <samplecharacteristics>
                        <depth>16</depth>
                        <samplerate>48000</samplerate>
                      </samplecharacteristics>
                      <channelcount>2</channelcount>
                    </audio>
                  </media>
                </file>
                <link>
                  <linkclipref>clipitem-349</linkclipref>
                  <mediatype>video</mediatype>
                  <trackindex>1</trackindex>
                  <clipindex>1</clipindex>
                </link>
                <link>
                  <linkclipref>clipitem-350</linkclipref>
                  <mediatype>audio</mediatype>
                  <trackindex>1</trackindex>
                  <clipindex>1</clipindex>
                  <groupindex>1</groupindex>
                </link>
                <link>
                  <linkclipref>clipitem-351</linkclipref>
                  <mediatype>audio</mediatype>
                  <trackindex>2</trackindex>
                  <clipindex>1</clipindex>
                  <groupindex>1</groupindex>
                </link>
              </clipitem>
            </track>
          </video>
          <audio>
            <track>
              <clipitem id="clipitem-350" frameBlend="FALSE">
                <masterclipid>masterclip-113</masterclipid>
                <name>00332.MTS</name>
                <file id="file-113"/>
                <sourcetrack>
                  <mediatype>audio</mediatype>
                  <trackindex>1</trackindex>
                </sourcetrack>
                <link>
                  <linkclipref>clipitem-349</linkclipref>
                  <mediatype>video</mediatype>
                  <trackindex>1</trackindex>
                  <clipindex>1</clipindex>
                </link>
                <link>
                  <linkclipref>clipitem-350</linkclipref>
                  <mediatype>audio</mediatype>
                  <trackindex>1</trackindex>
                  <clipindex>1</clipindex>
                  <groupindex>1</groupindex>
                </link>
                <link>
                  <linkclipref>clipitem-351</linkclipref>
                  <mediatype>audio</mediatype>
                  <trackindex>2</trackindex>
                  <clipindex>1</clipindex>
                  <groupindex>1</groupindex>
                </link>
              </clipitem>
            </track>
            <track>
              <clipitem id="clipitem-351" frameBlend="FALSE">
                <masterclipid>masterclip-113</masterclipid>
                <name>00332.MTS</name>
                <file id="file-113"/>
                <sourcetrack>
                  <mediatype>audio</mediatype>
                  <trackindex>2</trackindex>
                </sourcetrack>
                <link>
                  <linkclipref>clipitem-349</linkclipref>
                  <mediatype>video</mediatype>
                  <trackindex>1</trackindex>
                  <clipindex>1</clipindex>
                </link>
                <link>
                  <linkclipref>clipitem-350</linkclipref>
                  <mediatype>audio</mediatype>
                  <trackindex>1</trackindex>
                  <clipindex>1</clipindex>
                  <groupindex>1</groupindex>
                </link>
                <link>
                  <linkclipref>clipitem-351</linkclipref>
                  <mediatype>audio</mediatype>
                  <trackindex>2</trackindex>
                  <clipindex>1</clipindex>
                  <groupindex>1</groupindex>
                </link>
              </clipitem>
            </track>
          </audio>
        </media>
        <logginginfo>
          <description/>
          <scene/>
          <shottake/>
          <lognote/>
        </logginginfo>
      </clip>
      <clip id="masterclip-114" frameBlend="FALSE">
        <uuid>f3ec6664-4ad8-4b46-8bfc-9462de57a9a1</uuid>
        <masterclipid>masterclip-114</masterclipid>
        <ismasterclip>TRUE</ismasterclip>
        <duration>193</duration>
        <rate>
          <timebase>24</timebase>
          <ntsc>TRUE</ntsc>
        </rate>
        <name>00333.MTS</name>
        <media>
          <video>
            <track>
              <clipitem id="clipitem-352" frameBlend="FALSE">
                <masterclipid>masterclip-114</masterclipid>
                <name>00333.MTS</name>
                <alphatype>black</alphatype>
                <pixelaspectratio>square</pixelaspectratio>
                <anamorphic>FALSE</anamorphic>
                <file id="file-114">
                  <name>00333.MTS</name>
                  <pathurl>file://localhost/Volumes/Macintosh%20HD/Users/jacksongs/Desktop/STREAM/00333.MTS</pathurl>
                  <rate>
                    <timebase>24</timebase>
                    <ntsc>TRUE</ntsc>
                  </rate>
                  <duration>193</duration>
                  <timecode>
                    <rate>
                      <timebase>24</timebase>
                      <ntsc>TRUE</ntsc>
                    </rate>
                    <string>00:00:00:00</string>
                    <frame>0</frame>
                    <displayformat>NDF</displayformat>
                    <reel>
                      <name/>
                    </reel>
                  </timecode>
                  <media>
                    <video>
                      <duration>18000</duration>
                      <samplecharacteristics>
                        <rate>
                          <timebase>24</timebase>
                          <ntsc>TRUE</ntsc>
                        </rate>
                        <width>1920</width>
                        <height>1080</height>
                        <anamorphic>FALSE</anamorphic>
                        <pixelaspectratio>square</pixelaspectratio>
                        <fielddominance>none</fielddominance>
                      </samplecharacteristics>
                    </video>
                    <audio>
                      <samplecharacteristics>
                        <depth>16</depth>
                        <samplerate>48000</samplerate>
                      </samplecharacteristics>
                      <channelcount>2</channelcount>
                    </audio>
                  </media>
                </file>
                <link>
                  <linkclipref>clipitem-352</linkclipref>
                  <mediatype>video</mediatype>
                  <trackindex>1</trackindex>
                  <clipindex>1</clipindex>
                </link>
                <link>
                  <linkclipref>clipitem-353</linkclipref>
                  <mediatype>audio</mediatype>
                  <trackindex>1</trackindex>
                  <clipindex>1</clipindex>
                  <groupindex>1</groupindex>
                </link>
                <link>
                  <linkclipref>clipitem-354</linkclipref>
                  <mediatype>audio</mediatype>
                  <trackindex>2</trackindex>
                  <clipindex>1</clipindex>
                  <groupindex>1</groupindex>
                </link>
              </clipitem>
            </track>
          </video>
          <audio>
            <track>
              <clipitem id="clipitem-353" frameBlend="FALSE">
                <masterclipid>masterclip-114</masterclipid>
                <name>00333.MTS</name>
                <file id="file-114"/>
                <sourcetrack>
                  <mediatype>audio</mediatype>
                  <trackindex>1</trackindex>
                </sourcetrack>
                <link>
                  <linkclipref>clipitem-352</linkclipref>
                  <mediatype>video</mediatype>
                  <trackindex>1</trackindex>
                  <clipindex>1</clipindex>
                </link>
                <link>
                  <linkclipref>clipitem-353</linkclipref>
                  <mediatype>audio</mediatype>
                  <trackindex>1</trackindex>
                  <clipindex>1</clipindex>
                  <groupindex>1</groupindex>
                </link>
                <link>
                  <linkclipref>clipitem-354</linkclipref>
                  <mediatype>audio</mediatype>
                  <trackindex>2</trackindex>
                  <clipindex>1</clipindex>
                  <groupindex>1</groupindex>
                </link>
              </clipitem>
            </track>
            <track>
              <clipitem id="clipitem-354" frameBlend="FALSE">
                <masterclipid>masterclip-114</masterclipid>
                <name>00333.MTS</name>
                <file id="file-114"/>
                <sourcetrack>
                  <mediatype>audio</mediatype>
                  <trackindex>2</trackindex>
                </sourcetrack>
                <link>
                  <linkclipref>clipitem-352</linkclipref>
                  <mediatype>video</mediatype>
                  <trackindex>1</trackindex>
                  <clipindex>1</clipindex>
                </link>
                <link>
                  <linkclipref>clipitem-353</linkclipref>
                  <mediatype>audio</mediatype>
                  <trackindex>1</trackindex>
                  <clipindex>1</clipindex>
                  <groupindex>1</groupindex>
                </link>
                <link>
                  <linkclipref>clipitem-354</linkclipref>
                  <mediatype>audio</mediatype>
                  <trackindex>2</trackindex>
                  <clipindex>1</clipindex>
                  <groupindex>1</groupindex>
                </link>
              </clipitem>
            </track>
          </audio>
        </media>
        <logginginfo>
          <description/>
          <scene/>
          <shottake/>
          <lognote/>
        </logginginfo>
      </clip>
      <clip id="masterclip-115" frameBlend="FALSE">
        <uuid>e0cd4d49-1403-46c4-9cbd-c948ea511e9c</uuid>
        <masterclipid>masterclip-115</masterclipid>
        <ismasterclip>TRUE</ismasterclip>
        <duration>157</duration>
        <rate>
          <timebase>24</timebase>
          <ntsc>TRUE</ntsc>
        </rate>
        <name>00334.MTS</name>
        <media>
          <video>
            <track>
              <clipitem id="clipitem-355" frameBlend="FALSE">
                <masterclipid>masterclip-115</masterclipid>
                <name>00334.MTS</name>
                <alphatype>black</alphatype>
                <pixelaspectratio>square</pixelaspectratio>
                <anamorphic>FALSE</anamorphic>
                <file id="file-115">
                  <name>00334.MTS</name>
                  <pathurl>file://localhost/Volumes/Macintosh%20HD/Users/jacksongs/Desktop/STREAM/00334.MTS</pathurl>
                  <rate>
                    <timebase>24</timebase>
                    <ntsc>TRUE</ntsc>
                  </rate>
                  <duration>157</duration>
                  <timecode>
                    <rate>
                      <timebase>24</timebase>
                      <ntsc>TRUE</ntsc>
                    </rate>
                    <string>00:00:00:00</string>
                    <frame>0</frame>
                    <displayformat>NDF</displayformat>
                    <reel>
                      <name/>
                    </reel>
                  </timecode>
                  <media>
                    <video>
                      <duration>18000</duration>
                      <samplecharacteristics>
                        <rate>
                          <timebase>24</timebase>
                          <ntsc>TRUE</ntsc>
                        </rate>
                        <width>1920</width>
                        <height>1080</height>
                        <anamorphic>FALSE</anamorphic>
                        <pixelaspectratio>square</pixelaspectratio>
                        <fielddominance>none</fielddominance>
                      </samplecharacteristics>
                    </video>
                    <audio>
                      <samplecharacteristics>
                        <depth>16</depth>
                        <samplerate>48000</samplerate>
                      </samplecharacteristics>
                      <channelcount>2</channelcount>
                    </audio>
                  </media>
                </file>
                <link>
                  <linkclipref>clipitem-355</linkclipref>
                  <mediatype>video</mediatype>
                  <trackindex>1</trackindex>
                  <clipindex>1</clipindex>
                </link>
                <link>
                  <linkclipref>clipitem-356</linkclipref>
                  <mediatype>audio</mediatype>
                  <trackindex>1</trackindex>
                  <clipindex>1</clipindex>
                  <groupindex>1</groupindex>
                </link>
                <link>
                  <linkclipref>clipitem-357</linkclipref>
                  <mediatype>audio</mediatype>
                  <trackindex>2</trackindex>
                  <clipindex>1</clipindex>
                  <groupindex>1</groupindex>
                </link>
              </clipitem>
            </track>
          </video>
          <audio>
            <track>
              <clipitem id="clipitem-356" frameBlend="FALSE">
                <masterclipid>masterclip-115</masterclipid>
                <name>00334.MTS</name>
                <file id="file-115"/>
                <sourcetrack>
                  <mediatype>audio</mediatype>
                  <trackindex>1</trackindex>
                </sourcetrack>
                <link>
                  <linkclipref>clipitem-355</linkclipref>
                  <mediatype>video</mediatype>
                  <trackindex>1</trackindex>
                  <clipindex>1</clipindex>
                </link>
                <link>
                  <linkclipref>clipitem-356</linkclipref>
                  <mediatype>audio</mediatype>
                  <trackindex>1</trackindex>
                  <clipindex>1</clipindex>
                  <groupindex>1</groupindex>
                </link>
                <link>
                  <linkclipref>clipitem-357</linkclipref>
                  <mediatype>audio</mediatype>
                  <trackindex>2</trackindex>
                  <clipindex>1</clipindex>
                  <groupindex>1</groupindex>
                </link>
              </clipitem>
            </track>
            <track>
              <clipitem id="clipitem-357" frameBlend="FALSE">
                <masterclipid>masterclip-115</masterclipid>
                <name>00334.MTS</name>
                <file id="file-115"/>
                <sourcetrack>
                  <mediatype>audio</mediatype>
                  <trackindex>2</trackindex>
                </sourcetrack>
                <link>
                  <linkclipref>clipitem-355</linkclipref>
                  <mediatype>video</mediatype>
                  <trackindex>1</trackindex>
                  <clipindex>1</clipindex>
                </link>
                <link>
                  <linkclipref>clipitem-356</linkclipref>
                  <mediatype>audio</mediatype>
                  <trackindex>1</trackindex>
                  <clipindex>1</clipindex>
                  <groupindex>1</groupindex>
                </link>
                <link>
                  <linkclipref>clipitem-357</linkclipref>
                  <mediatype>audio</mediatype>
                  <trackindex>2</trackindex>
                  <clipindex>1</clipindex>
                  <groupindex>1</groupindex>
                </link>
              </clipitem>
            </track>
          </audio>
        </media>
        <logginginfo>
          <description/>
          <scene/>
          <shottake/>
          <lognote/>
        </logginginfo>
      </clip>
      <clip id="masterclip-116" frameBlend="FALSE">
        <uuid>669732f9-4648-4f9b-9adf-59a4a4b57edd</uuid>
        <masterclipid>masterclip-116</masterclipid>
        <ismasterclip>TRUE</ismasterclip>
        <duration>37</duration>
        <rate>
          <timebase>24</timebase>
          <ntsc>TRUE</ntsc>
        </rate>
        <name>00335.MTS</name>
        <media>
          <video>
            <track>
              <clipitem id="clipitem-358" frameBlend="FALSE">
                <masterclipid>masterclip-116</masterclipid>
                <name>00335.MTS</name>
                <alphatype>black</alphatype>
                <pixelaspectratio>square</pixelaspectratio>
                <anamorphic>FALSE</anamorphic>
                <file id="file-116">
                  <name>00335.MTS</name>
                  <pathurl>file://localhost/Volumes/Macintosh%20HD/Users/jacksongs/Desktop/STREAM/00335.MTS</pathurl>
                  <rate>
                    <timebase>24</timebase>
                    <ntsc>TRUE</ntsc>
                  </rate>
                  <duration>37</duration>
                  <timecode>
                    <rate>
                      <timebase>24</timebase>
                      <ntsc>TRUE</ntsc>
                    </rate>
                    <string>00:00:00:00</string>
                    <frame>0</frame>
                    <displayformat>NDF</displayformat>
                    <reel>
                      <name/>
                    </reel>
                  </timecode>
                  <media>
                    <video>
                      <duration>18000</duration>
                      <samplecharacteristics>
                        <rate>
                          <timebase>24</timebase>
                          <ntsc>TRUE</ntsc>
                        </rate>
                        <width>1920</width>
                        <height>1080</height>
                        <anamorphic>FALSE</anamorphic>
                        <pixelaspectratio>square</pixelaspectratio>
                        <fielddominance>none</fielddominance>
                      </samplecharacteristics>
                    </video>
                    <audio>
                      <samplecharacteristics>
                        <depth>16</depth>
                        <samplerate>48000</samplerate>
                      </samplecharacteristics>
                      <channelcount>2</channelcount>
                    </audio>
                  </media>
                </file>
                <link>
                  <linkclipref>clipitem-358</linkclipref>
                  <mediatype>video</mediatype>
                  <trackindex>1</trackindex>
                  <clipindex>1</clipindex>
                </link>
                <link>
                  <linkclipref>clipitem-359</linkclipref>
                  <mediatype>audio</mediatype>
                  <trackindex>1</trackindex>
                  <clipindex>1</clipindex>
                  <groupindex>1</groupindex>
                </link>
                <link>
                  <linkclipref>clipitem-360</linkclipref>
                  <mediatype>audio</mediatype>
                  <trackindex>2</trackindex>
                  <clipindex>1</clipindex>
                  <groupindex>1</groupindex>
                </link>
              </clipitem>
            </track>
          </video>
          <audio>
            <track>
              <clipitem id="clipitem-359" frameBlend="FALSE">
                <masterclipid>masterclip-116</masterclipid>
                <name>00335.MTS</name>
                <file id="file-116"/>
                <sourcetrack>
                  <mediatype>audio</mediatype>
                  <trackindex>1</trackindex>
                </sourcetrack>
                <link>
                  <linkclipref>clipitem-358</linkclipref>
                  <mediatype>video</mediatype>
                  <trackindex>1</trackindex>
                  <clipindex>1</clipindex>
                </link>
                <link>
                  <linkclipref>clipitem-359</linkclipref>
                  <mediatype>audio</mediatype>
                  <trackindex>1</trackindex>
                  <clipindex>1</clipindex>
                  <groupindex>1</groupindex>
                </link>
                <link>
                  <linkclipref>clipitem-360</linkclipref>
                  <mediatype>audio</mediatype>
                  <trackindex>2</trackindex>
                  <clipindex>1</clipindex>
                  <groupindex>1</groupindex>
                </link>
              </clipitem>
            </track>
            <track>
              <clipitem id="clipitem-360" frameBlend="FALSE">
                <masterclipid>masterclip-116</masterclipid>
                <name>00335.MTS</name>
                <file id="file-116"/>
                <sourcetrack>
                  <mediatype>audio</mediatype>
                  <trackindex>2</trackindex>
                </sourcetrack>
                <link>
                  <linkclipref>clipitem-358</linkclipref>
                  <mediatype>video</mediatype>
                  <trackindex>1</trackindex>
                  <clipindex>1</clipindex>
                </link>
                <link>
                  <linkclipref>clipitem-359</linkclipref>
                  <mediatype>audio</mediatype>
                  <trackindex>1</trackindex>
                  <clipindex>1</clipindex>
                  <groupindex>1</groupindex>
                </link>
                <link>
                  <linkclipref>clipitem-360</linkclipref>
                  <mediatype>audio</mediatype>
                  <trackindex>2</trackindex>
                  <clipindex>1</clipindex>
                  <groupindex>1</groupindex>
                </link>
              </clipitem>
            </track>
          </audio>
        </media>
        <logginginfo>
          <description/>
          <scene/>
          <shottake/>
          <lognote/>
        </logginginfo>
      </clip>
      <clip id="masterclip-117" frameBlend="FALSE">
        <uuid>ea77710f-cef8-42ec-ac06-45ac4871e606</uuid>
        <masterclipid>masterclip-117</masterclipid>
        <ismasterclip>TRUE</ismasterclip>
        <duration>361</duration>
        <rate>
          <timebase>24</timebase>
          <ntsc>TRUE</ntsc>
        </rate>
        <name>00336.MTS</name>
        <media>
          <video>
            <track>
              <clipitem id="clipitem-361" frameBlend="FALSE">
                <masterclipid>masterclip-117</masterclipid>
                <name>00336.MTS</name>
                <alphatype>black</alphatype>
                <pixelaspectratio>square</pixelaspectratio>
                <anamorphic>FALSE</anamorphic>
                <file id="file-117">
                  <name>00336.MTS</name>
                  <pathurl>file://localhost/Volumes/Macintosh%20HD/Users/jacksongs/Desktop/STREAM/00336.MTS</pathurl>
                  <rate>
                    <timebase>24</timebase>
                    <ntsc>TRUE</ntsc>
                  </rate>
                  <duration>361</duration>
                  <timecode>
                    <rate>
                      <timebase>24</timebase>
                      <ntsc>TRUE</ntsc>
                    </rate>
                    <string>00:00:00:00</string>
                    <frame>0</frame>
                    <displayformat>NDF</displayformat>
                    <reel>
                      <name/>
                    </reel>
                  </timecode>
                  <media>
                    <video>
                      <duration>18000</duration>
                      <samplecharacteristics>
                        <rate>
                          <timebase>24</timebase>
                          <ntsc>TRUE</ntsc>
                        </rate>
                        <width>1920</width>
                        <height>1080</height>
                        <anamorphic>FALSE</anamorphic>
                        <pixelaspectratio>square</pixelaspectratio>
                        <fielddominance>none</fielddominance>
                      </samplecharacteristics>
                    </video>
                    <audio>
                      <samplecharacteristics>
                        <depth>16</depth>
                        <samplerate>48000</samplerate>
                      </samplecharacteristics>
                      <channelcount>2</channelcount>
                    </audio>
                  </media>
                </file>
                <link>
                  <linkclipref>clipitem-361</linkclipref>
                  <mediatype>video</mediatype>
                  <trackindex>1</trackindex>
                  <clipindex>1</clipindex>
                </link>
                <link>
                  <linkclipref>clipitem-362</linkclipref>
                  <mediatype>audio</mediatype>
                  <trackindex>1</trackindex>
                  <clipindex>1</clipindex>
                  <groupindex>1</groupindex>
                </link>
                <link>
                  <linkclipref>clipitem-363</linkclipref>
                  <mediatype>audio</mediatype>
                  <trackindex>2</trackindex>
                  <clipindex>1</clipindex>
                  <groupindex>1</groupindex>
                </link>
              </clipitem>
            </track>
          </video>
          <audio>
            <track>
              <clipitem id="clipitem-362" frameBlend="FALSE">
                <masterclipid>masterclip-117</masterclipid>
                <name>00336.MTS</name>
                <file id="file-117"/>
                <sourcetrack>
                  <mediatype>audio</mediatype>
                  <trackindex>1</trackindex>
                </sourcetrack>
                <link>
                  <linkclipref>clipitem-361</linkclipref>
                  <mediatype>video</mediatype>
                  <trackindex>1</trackindex>
                  <clipindex>1</clipindex>
                </link>
                <link>
                  <linkclipref>clipitem-362</linkclipref>
                  <mediatype>audio</mediatype>
                  <trackindex>1</trackindex>
                  <clipindex>1</clipindex>
                  <groupindex>1</groupindex>
                </link>
                <link>
                  <linkclipref>clipitem-363</linkclipref>
                  <mediatype>audio</mediatype>
                  <trackindex>2</trackindex>
                  <clipindex>1</clipindex>
                  <groupindex>1</groupindex>
                </link>
              </clipitem>
            </track>
            <track>
              <clipitem id="clipitem-363" frameBlend="FALSE">
                <masterclipid>masterclip-117</masterclipid>
                <name>00336.MTS</name>
                <file id="file-117"/>
                <sourcetrack>
                  <mediatype>audio</mediatype>
                  <trackindex>2</trackindex>
                </sourcetrack>
                <link>
                  <linkclipref>clipitem-361</linkclipref>
                  <mediatype>video</mediatype>
                  <trackindex>1</trackindex>
                  <clipindex>1</clipindex>
                </link>
                <link>
                  <linkclipref>clipitem-362</linkclipref>
                  <mediatype>audio</mediatype>
                  <trackindex>1</trackindex>
                  <clipindex>1</clipindex>
                  <groupindex>1</groupindex>
                </link>
                <link>
                  <linkclipref>clipitem-363</linkclipref>
                  <mediatype>audio</mediatype>
                  <trackindex>2</trackindex>
                  <clipindex>1</clipindex>
                  <groupindex>1</groupindex>
                </link>
              </clipitem>
            </track>
          </audio>
        </media>
        <logginginfo>
          <description/>
          <scene/>
          <shottake/>
          <lognote/>
        </logginginfo>
      </clip>
      <clip id="masterclip-118" frameBlend="FALSE">
        <uuid>802a2cea-c2d3-48b3-b4c8-4bc0d6b8f04a</uuid>
        <masterclipid>masterclip-118</masterclipid>
        <ismasterclip>TRUE</ismasterclip>
        <duration>157</duration>
        <rate>
          <timebase>24</timebase>
          <ntsc>TRUE</ntsc>
        </rate>
        <name>00337.MTS</name>
        <media>
          <video>
            <track>
              <clipitem id="clipitem-364" frameBlend="FALSE">
                <masterclipid>masterclip-118</masterclipid>
                <name>00337.MTS</name>
                <alphatype>black</alphatype>
                <pixelaspectratio>square</pixelaspectratio>
                <anamorphic>FALSE</anamorphic>
                <file id="file-118">
                  <name>00337.MTS</name>
                  <pathurl>file://localhost/Volumes/Macintosh%20HD/Users/jacksongs/Desktop/STREAM/00337.MTS</pathurl>
                  <rate>
                    <timebase>24</timebase>
                    <ntsc>TRUE</ntsc>
                  </rate>
                  <duration>157</duration>
                  <timecode>
                    <rate>
                      <timebase>24</timebase>
                      <ntsc>TRUE</ntsc>
                    </rate>
                    <string>00:00:00:00</string>
                    <frame>0</frame>
                    <displayformat>NDF</displayformat>
                    <reel>
                      <name/>
                    </reel>
                  </timecode>
                  <media>
                    <video>
                      <duration>18000</duration>
                      <samplecharacteristics>
                        <rate>
                          <timebase>24</timebase>
                          <ntsc>TRUE</ntsc>
                        </rate>
                        <width>1920</width>
                        <height>1080</height>
                        <anamorphic>FALSE</anamorphic>
                        <pixelaspectratio>square</pixelaspectratio>
                        <fielddominance>none</fielddominance>
                      </samplecharacteristics>
                    </video>
                    <audio>
                      <samplecharacteristics>
                        <depth>16</depth>
                        <samplerate>48000</samplerate>
                      </samplecharacteristics>
                      <channelcount>2</channelcount>
                    </audio>
                  </media>
                </file>
                <link>
                  <linkclipref>clipitem-364</linkclipref>
                  <mediatype>video</mediatype>
                  <trackindex>1</trackindex>
                  <clipindex>1</clipindex>
                </link>
                <link>
                  <linkclipref>clipitem-365</linkclipref>
                  <mediatype>audio</mediatype>
                  <trackindex>1</trackindex>
                  <clipindex>1</clipindex>
                  <groupindex>1</groupindex>
                </link>
                <link>
                  <linkclipref>clipitem-366</linkclipref>
                  <mediatype>audio</mediatype>
                  <trackindex>2</trackindex>
                  <clipindex>1</clipindex>
                  <groupindex>1</groupindex>
                </link>
              </clipitem>
            </track>
          </video>
          <audio>
            <track>
              <clipitem id="clipitem-365" frameBlend="FALSE">
                <masterclipid>masterclip-118</masterclipid>
                <name>00337.MTS</name>
                <file id="file-118"/>
                <sourcetrack>
                  <mediatype>audio</mediatype>
                  <trackindex>1</trackindex>
                </sourcetrack>
                <link>
                  <linkclipref>clipitem-364</linkclipref>
                  <mediatype>video</mediatype>
                  <trackindex>1</trackindex>
                  <clipindex>1</clipindex>
                </link>
                <link>
                  <linkclipref>clipitem-365</linkclipref>
                  <mediatype>audio</mediatype>
                  <trackindex>1</trackindex>
                  <clipindex>1</clipindex>
                  <groupindex>1</groupindex>
                </link>
                <link>
                  <linkclipref>clipitem-366</linkclipref>
                  <mediatype>audio</mediatype>
                  <trackindex>2</trackindex>
                  <clipindex>1</clipindex>
                  <groupindex>1</groupindex>
                </link>
              </clipitem>
            </track>
            <track>
              <clipitem id="clipitem-366" frameBlend="FALSE">
                <masterclipid>masterclip-118</masterclipid>
                <name>00337.MTS</name>
                <file id="file-118"/>
                <sourcetrack>
                  <mediatype>audio</mediatype>
                  <trackindex>2</trackindex>
                </sourcetrack>
                <link>
                  <linkclipref>clipitem-364</linkclipref>
                  <mediatype>video</mediatype>
                  <trackindex>1</trackindex>
                  <clipindex>1</clipindex>
                </link>
                <link>
                  <linkclipref>clipitem-365</linkclipref>
                  <mediatype>audio</mediatype>
                  <trackindex>1</trackindex>
                  <clipindex>1</clipindex>
                  <groupindex>1</groupindex>
                </link>
                <link>
                  <linkclipref>clipitem-366</linkclipref>
                  <mediatype>audio</mediatype>
                  <trackindex>2</trackindex>
                  <clipindex>1</clipindex>
                  <groupindex>1</groupindex>
                </link>
              </clipitem>
            </track>
          </audio>
        </media>
        <logginginfo>
          <description/>
          <scene/>
          <shottake/>
          <lognote/>
        </logginginfo>
      </clip>
      <clip id="masterclip-119" frameBlend="FALSE">
        <uuid>e121ed94-1d29-49fd-a8e0-ca6c3737f85b</uuid>
        <masterclipid>masterclip-119</masterclipid>
        <ismasterclip>TRUE</ismasterclip>
        <duration>97</duration>
        <rate>
          <timebase>24</timebase>
          <ntsc>TRUE</ntsc>
        </rate>
        <name>00338.MTS</name>
        <media>
          <video>
            <track>
              <clipitem id="clipitem-367" frameBlend="FALSE">
                <masterclipid>masterclip-119</masterclipid>
                <name>00338.MTS</name>
                <alphatype>black</alphatype>
                <pixelaspectratio>square</pixelaspectratio>
                <anamorphic>FALSE</anamorphic>
                <file id="file-119">
                  <name>00338.MTS</name>
                  <pathurl>file://localhost/Volumes/Macintosh%20HD/Users/jacksongs/Desktop/STREAM/00338.MTS</pathurl>
                  <rate>
                    <timebase>24</timebase>
                    <ntsc>TRUE</ntsc>
                  </rate>
                  <duration>97</duration>
                  <timecode>
                    <rate>
                      <timebase>24</timebase>
                      <ntsc>TRUE</ntsc>
                    </rate>
                    <string>00:00:00:00</string>
                    <frame>0</frame>
                    <displayformat>NDF</displayformat>
                    <reel>
                      <name/>
                    </reel>
                  </timecode>
                  <media>
                    <video>
                      <duration>18000</duration>
                      <samplecharacteristics>
                        <rate>
                          <timebase>24</timebase>
                          <ntsc>TRUE</ntsc>
                        </rate>
                        <width>1920</width>
                        <height>1080</height>
                        <anamorphic>FALSE</anamorphic>
                        <pixelaspectratio>square</pixelaspectratio>
                        <fielddominance>none</fielddominance>
                      </samplecharacteristics>
                    </video>
                    <audio>
                      <samplecharacteristics>
                        <depth>16</depth>
                        <samplerate>48000</samplerate>
                      </samplecharacteristics>
                      <channelcount>2</channelcount>
                    </audio>
                  </media>
                </file>
                <link>
                  <linkclipref>clipitem-367</linkclipref>
                  <mediatype>video</mediatype>
                  <trackindex>1</trackindex>
                  <clipindex>1</clipindex>
                </link>
                <link>
                  <linkclipref>clipitem-368</linkclipref>
                  <mediatype>audio</mediatype>
                  <trackindex>1</trackindex>
                  <clipindex>1</clipindex>
                  <groupindex>1</groupindex>
                </link>
                <link>
                  <linkclipref>clipitem-369</linkclipref>
                  <mediatype>audio</mediatype>
                  <trackindex>2</trackindex>
                  <clipindex>1</clipindex>
                  <groupindex>1</groupindex>
                </link>
              </clipitem>
            </track>
          </video>
          <audio>
            <track>
              <clipitem id="clipitem-368" frameBlend="FALSE">
                <masterclipid>masterclip-119</masterclipid>
                <name>00338.MTS</name>
                <file id="file-119"/>
                <sourcetrack>
                  <mediatype>audio</mediatype>
                  <trackindex>1</trackindex>
                </sourcetrack>
                <link>
                  <linkclipref>clipitem-367</linkclipref>
                  <mediatype>video</mediatype>
                  <trackindex>1</trackindex>
                  <clipindex>1</clipindex>
                </link>
                <link>
                  <linkclipref>clipitem-368</linkclipref>
                  <mediatype>audio</mediatype>
                  <trackindex>1</trackindex>
                  <clipindex>1</clipindex>
                  <groupindex>1</groupindex>
                </link>
                <link>
                  <linkclipref>clipitem-369</linkclipref>
                  <mediatype>audio</mediatype>
                  <trackindex>2</trackindex>
                  <clipindex>1</clipindex>
                  <groupindex>1</groupindex>
                </link>
              </clipitem>
            </track>
            <track>
              <clipitem id="clipitem-369" frameBlend="FALSE">
                <masterclipid>masterclip-119</masterclipid>
                <name>00338.MTS</name>
                <file id="file-119"/>
                <sourcetrack>
                  <mediatype>audio</mediatype>
                  <trackindex>2</trackindex>
                </sourcetrack>
                <link>
                  <linkclipref>clipitem-367</linkclipref>
                  <mediatype>video</mediatype>
                  <trackindex>1</trackindex>
                  <clipindex>1</clipindex>
                </link>
                <link>
                  <linkclipref>clipitem-368</linkclipref>
                  <mediatype>audio</mediatype>
                  <trackindex>1</trackindex>
                  <clipindex>1</clipindex>
                  <groupindex>1</groupindex>
                </link>
                <link>
                  <linkclipref>clipitem-369</linkclipref>
                  <mediatype>audio</mediatype>
                  <trackindex>2</trackindex>
                  <clipindex>1</clipindex>
                  <groupindex>1</groupindex>
                </link>
              </clipitem>
            </track>
          </audio>
        </media>
        <logginginfo>
          <description/>
          <scene/>
          <shottake/>
          <lognote/>
        </logginginfo>
      </clip>
      <clip id="masterclip-120" frameBlend="FALSE">
        <uuid>bdf0d2f7-00c3-4e0c-b770-c96651b5f980</uuid>
        <masterclipid>masterclip-120</masterclipid>
        <ismasterclip>TRUE</ismasterclip>
        <duration>181</duration>
        <rate>
          <timebase>24</timebase>
          <ntsc>TRUE</ntsc>
        </rate>
        <name>00339.MTS</name>
        <media>
          <video>
            <track>
              <clipitem id="clipitem-370" frameBlend="FALSE">
                <masterclipid>masterclip-120</masterclipid>
                <name>00339.MTS</name>
                <alphatype>black</alphatype>
                <pixelaspectratio>square</pixelaspectratio>
                <anamorphic>FALSE</anamorphic>
                <file id="file-120">
                  <name>00339.MTS</name>
                  <pathurl>file://localhost/Volumes/Macintosh%20HD/Users/jacksongs/Desktop/STREAM/00339.MTS</pathurl>
                  <rate>
                    <timebase>24</timebase>
                    <ntsc>TRUE</ntsc>
                  </rate>
                  <duration>181</duration>
                  <timecode>
                    <rate>
                      <timebase>24</timebase>
                      <ntsc>TRUE</ntsc>
                    </rate>
                    <string>00:00:00:00</string>
                    <frame>0</frame>
                    <displayformat>NDF</displayformat>
                    <reel>
                      <name/>
                    </reel>
                  </timecode>
                  <media>
                    <video>
                      <duration>18000</duration>
                      <samplecharacteristics>
                        <rate>
                          <timebase>24</timebase>
                          <ntsc>TRUE</ntsc>
                        </rate>
                        <width>1920</width>
                        <height>1080</height>
                        <anamorphic>FALSE</anamorphic>
                        <pixelaspectratio>square</pixelaspectratio>
                        <fielddominance>none</fielddominance>
                      </samplecharacteristics>
                    </video>
                    <audio>
                      <samplecharacteristics>
                        <depth>16</depth>
                        <samplerate>48000</samplerate>
                      </samplecharacteristics>
                      <channelcount>2</channelcount>
                    </audio>
                  </media>
                </file>
                <link>
                  <linkclipref>clipitem-370</linkclipref>
                  <mediatype>video</mediatype>
                  <trackindex>1</trackindex>
                  <clipindex>1</clipindex>
                </link>
                <link>
                  <linkclipref>clipitem-371</linkclipref>
                  <mediatype>audio</mediatype>
                  <trackindex>1</trackindex>
                  <clipindex>1</clipindex>
                  <groupindex>1</groupindex>
                </link>
                <link>
                  <linkclipref>clipitem-372</linkclipref>
                  <mediatype>audio</mediatype>
                  <trackindex>2</trackindex>
                  <clipindex>1</clipindex>
                  <groupindex>1</groupindex>
                </link>
              </clipitem>
            </track>
          </video>
          <audio>
            <track>
              <clipitem id="clipitem-371" frameBlend="FALSE">
                <masterclipid>masterclip-120</masterclipid>
                <name>00339.MTS</name>
                <file id="file-120"/>
                <sourcetrack>
                  <mediatype>audio</mediatype>
                  <trackindex>1</trackindex>
                </sourcetrack>
                <link>
                  <linkclipref>clipitem-370</linkclipref>
                  <mediatype>video</mediatype>
                  <trackindex>1</trackindex>
                  <clipindex>1</clipindex>
                </link>
                <link>
                  <linkclipref>clipitem-371</linkclipref>
                  <mediatype>audio</mediatype>
                  <trackindex>1</trackindex>
                  <clipindex>1</clipindex>
                  <groupindex>1</groupindex>
                </link>
                <link>
                  <linkclipref>clipitem-372</linkclipref>
                  <mediatype>audio</mediatype>
                  <trackindex>2</trackindex>
                  <clipindex>1</clipindex>
                  <groupindex>1</groupindex>
                </link>
              </clipitem>
            </track>
            <track>
              <clipitem id="clipitem-372" frameBlend="FALSE">
                <masterclipid>masterclip-120</masterclipid>
                <name>00339.MTS</name>
                <file id="file-120"/>
                <sourcetrack>
                  <mediatype>audio</mediatype>
                  <trackindex>2</trackindex>
                </sourcetrack>
                <link>
                  <linkclipref>clipitem-370</linkclipref>
                  <mediatype>video</mediatype>
                  <trackindex>1</trackindex>
                  <clipindex>1</clipindex>
                </link>
                <link>
                  <linkclipref>clipitem-371</linkclipref>
                  <mediatype>audio</mediatype>
                  <trackindex>1</trackindex>
                  <clipindex>1</clipindex>
                  <groupindex>1</groupindex>
                </link>
                <link>
                  <linkclipref>clipitem-372</linkclipref>
                  <mediatype>audio</mediatype>
                  <trackindex>2</trackindex>
                  <clipindex>1</clipindex>
                  <groupindex>1</groupindex>
                </link>
              </clipitem>
            </track>
          </audio>
        </media>
        <logginginfo>
          <description/>
          <scene/>
          <shottake/>
          <lognote/>
        </logginginfo>
      </clip>
      <clip id="masterclip-121" frameBlend="FALSE">
        <uuid>bc48b697-21ad-4cc1-a361-102e502430cd</uuid>
        <masterclipid>masterclip-121</masterclipid>
        <ismasterclip>TRUE</ismasterclip>
        <duration>229</duration>
        <rate>
          <timebase>24</timebase>
          <ntsc>TRUE</ntsc>
        </rate>
        <name>00340.MTS</name>
        <media>
          <video>
            <track>
              <clipitem id="clipitem-373" frameBlend="FALSE">
                <masterclipid>masterclip-121</masterclipid>
                <name>00340.MTS</name>
                <alphatype>black</alphatype>
                <pixelaspectratio>square</pixelaspectratio>
                <anamorphic>FALSE</anamorphic>
                <file id="file-121">
                  <name>00340.MTS</name>
                  <pathurl>file://localhost/Volumes/Macintosh%20HD/Users/jacksongs/Desktop/STREAM/00340.MTS</pathurl>
                  <rate>
                    <timebase>24</timebase>
                    <ntsc>TRUE</ntsc>
                  </rate>
                  <duration>229</duration>
                  <timecode>
                    <rate>
                      <timebase>24</timebase>
                      <ntsc>TRUE</ntsc>
                    </rate>
                    <string>00:00:00:00</string>
                    <frame>0</frame>
                    <displayformat>NDF</displayformat>
                    <reel>
                      <name/>
                    </reel>
                  </timecode>
                  <media>
                    <video>
                      <duration>18000</duration>
                      <samplecharacteristics>
                        <rate>
                          <timebase>24</timebase>
                          <ntsc>TRUE</ntsc>
                        </rate>
                        <width>1920</width>
                        <height>1080</height>
                        <anamorphic>FALSE</anamorphic>
                        <pixelaspectratio>square</pixelaspectratio>
                        <fielddominance>none</fielddominance>
                      </samplecharacteristics>
                    </video>
                    <audio>
                      <samplecharacteristics>
                        <depth>16</depth>
                        <samplerate>48000</samplerate>
                      </samplecharacteristics>
                      <channelcount>2</channelcount>
                    </audio>
                  </media>
                </file>
                <link>
                  <linkclipref>clipitem-373</linkclipref>
                  <mediatype>video</mediatype>
                  <trackindex>1</trackindex>
                  <clipindex>1</clipindex>
                </link>
                <link>
                  <linkclipref>clipitem-374</linkclipref>
                  <mediatype>audio</mediatype>
                  <trackindex>1</trackindex>
                  <clipindex>1</clipindex>
                  <groupindex>1</groupindex>
                </link>
                <link>
                  <linkclipref>clipitem-375</linkclipref>
                  <mediatype>audio</mediatype>
                  <trackindex>2</trackindex>
                  <clipindex>1</clipindex>
                  <groupindex>1</groupindex>
                </link>
              </clipitem>
            </track>
          </video>
          <audio>
            <track>
              <clipitem id="clipitem-374" frameBlend="FALSE">
                <masterclipid>masterclip-121</masterclipid>
                <name>00340.MTS</name>
                <file id="file-121"/>
                <sourcetrack>
                  <mediatype>audio</mediatype>
                  <trackindex>1</trackindex>
                </sourcetrack>
                <link>
                  <linkclipref>clipitem-373</linkclipref>
                  <mediatype>video</mediatype>
                  <trackindex>1</trackindex>
                  <clipindex>1</clipindex>
                </link>
                <link>
                  <linkclipref>clipitem-374</linkclipref>
                  <mediatype>audio</mediatype>
                  <trackindex>1</trackindex>
                  <clipindex>1</clipindex>
                  <groupindex>1</groupindex>
                </link>
                <link>
                  <linkclipref>clipitem-375</linkclipref>
                  <mediatype>audio</mediatype>
                  <trackindex>2</trackindex>
                  <clipindex>1</clipindex>
                  <groupindex>1</groupindex>
                </link>
              </clipitem>
            </track>
            <track>
              <clipitem id="clipitem-375" frameBlend="FALSE">
                <masterclipid>masterclip-121</masterclipid>
                <name>00340.MTS</name>
                <file id="file-121"/>
                <sourcetrack>
                  <mediatype>audio</mediatype>
                  <trackindex>2</trackindex>
                </sourcetrack>
                <link>
                  <linkclipref>clipitem-373</linkclipref>
                  <mediatype>video</mediatype>
                  <trackindex>1</trackindex>
                  <clipindex>1</clipindex>
                </link>
                <link>
                  <linkclipref>clipitem-374</linkclipref>
                  <mediatype>audio</mediatype>
                  <trackindex>1</trackindex>
                  <clipindex>1</clipindex>
                  <groupindex>1</groupindex>
                </link>
                <link>
                  <linkclipref>clipitem-375</linkclipref>
                  <mediatype>audio</mediatype>
                  <trackindex>2</trackindex>
                  <clipindex>1</clipindex>
                  <groupindex>1</groupindex>
                </link>
              </clipitem>
            </track>
          </audio>
        </media>
        <logginginfo>
          <description/>
          <scene/>
          <shottake/>
          <lognote/>
        </logginginfo>
      </clip>
      <clip id="masterclip-122" frameBlend="FALSE">
        <uuid>ecdd7f10-619f-46fb-a4b5-06c707a0366a</uuid>
        <masterclipid>masterclip-122</masterclipid>
        <ismasterclip>TRUE</ismasterclip>
        <duration>241</duration>
        <rate>
          <timebase>24</timebase>
          <ntsc>TRUE</ntsc>
        </rate>
        <name>00341.MTS</name>
        <media>
          <video>
            <track>
              <clipitem id="clipitem-376" frameBlend="FALSE">
                <masterclipid>masterclip-122</masterclipid>
                <name>00341.MTS</name>
                <alphatype>black</alphatype>
                <pixelaspectratio>square</pixelaspectratio>
                <anamorphic>FALSE</anamorphic>
                <file id="file-122">
                  <name>00341.MTS</name>
                  <pathurl>file://localhost/Volumes/Macintosh%20HD/Users/jacksongs/Desktop/STREAM/00341.MTS</pathurl>
                  <rate>
                    <timebase>24</timebase>
                    <ntsc>TRUE</ntsc>
                  </rate>
                  <duration>241</duration>
                  <timecode>
                    <rate>
                      <timebase>24</timebase>
                      <ntsc>TRUE</ntsc>
                    </rate>
                    <string>00:00:00:00</string>
                    <frame>0</frame>
                    <displayformat>NDF</displayformat>
                    <reel>
                      <name/>
                    </reel>
                  </timecode>
                  <media>
                    <video>
                      <duration>18000</duration>
                      <samplecharacteristics>
                        <rate>
                          <timebase>24</timebase>
                          <ntsc>TRUE</ntsc>
                        </rate>
                        <width>1920</width>
                        <height>1080</height>
                        <anamorphic>FALSE</anamorphic>
                        <pixelaspectratio>square</pixelaspectratio>
                        <fielddominance>none</fielddominance>
                      </samplecharacteristics>
                    </video>
                    <audio>
                      <samplecharacteristics>
                        <depth>16</depth>
                        <samplerate>48000</samplerate>
                      </samplecharacteristics>
                      <channelcount>2</channelcount>
                    </audio>
                  </media>
                </file>
                <link>
                  <linkclipref>clipitem-376</linkclipref>
                  <mediatype>video</mediatype>
                  <trackindex>1</trackindex>
                  <clipindex>1</clipindex>
                </link>
                <link>
                  <linkclipref>clipitem-377</linkclipref>
                  <mediatype>audio</mediatype>
                  <trackindex>1</trackindex>
                  <clipindex>1</clipindex>
                  <groupindex>1</groupindex>
                </link>
                <link>
                  <linkclipref>clipitem-378</linkclipref>
                  <mediatype>audio</mediatype>
                  <trackindex>2</trackindex>
                  <clipindex>1</clipindex>
                  <groupindex>1</groupindex>
                </link>
              </clipitem>
            </track>
          </video>
          <audio>
            <track>
              <clipitem id="clipitem-377" frameBlend="FALSE">
                <masterclipid>masterclip-122</masterclipid>
                <name>00341.MTS</name>
                <file id="file-122"/>
                <sourcetrack>
                  <mediatype>audio</mediatype>
                  <trackindex>1</trackindex>
                </sourcetrack>
                <link>
                  <linkclipref>clipitem-376</linkclipref>
                  <mediatype>video</mediatype>
                  <trackindex>1</trackindex>
                  <clipindex>1</clipindex>
                </link>
                <link>
                  <linkclipref>clipitem-377</linkclipref>
                  <mediatype>audio</mediatype>
                  <trackindex>1</trackindex>
                  <clipindex>1</clipindex>
                  <groupindex>1</groupindex>
                </link>
                <link>
                  <linkclipref>clipitem-378</linkclipref>
                  <mediatype>audio</mediatype>
                  <trackindex>2</trackindex>
                  <clipindex>1</clipindex>
                  <groupindex>1</groupindex>
                </link>
              </clipitem>
            </track>
            <track>
              <clipitem id="clipitem-378" frameBlend="FALSE">
                <masterclipid>masterclip-122</masterclipid>
                <name>00341.MTS</name>
                <file id="file-122"/>
                <sourcetrack>
                  <mediatype>audio</mediatype>
                  <trackindex>2</trackindex>
                </sourcetrack>
                <link>
                  <linkclipref>clipitem-376</linkclipref>
                  <mediatype>video</mediatype>
                  <trackindex>1</trackindex>
                  <clipindex>1</clipindex>
                </link>
                <link>
                  <linkclipref>clipitem-377</linkclipref>
                  <mediatype>audio</mediatype>
                  <trackindex>1</trackindex>
                  <clipindex>1</clipindex>
                  <groupindex>1</groupindex>
                </link>
                <link>
                  <linkclipref>clipitem-378</linkclipref>
                  <mediatype>audio</mediatype>
                  <trackindex>2</trackindex>
                  <clipindex>1</clipindex>
                  <groupindex>1</groupindex>
                </link>
              </clipitem>
            </track>
          </audio>
        </media>
        <logginginfo>
          <description/>
          <scene/>
          <shottake/>
          <lognote/>
        </logginginfo>
      </clip>
      <clip id="masterclip-123" frameBlend="FALSE">
        <uuid>9408d763-2c58-4a55-9a76-f639f4b100e2</uuid>
        <masterclipid>masterclip-123</masterclipid>
        <ismasterclip>TRUE</ismasterclip>
        <duration>169</duration>
        <rate>
          <timebase>24</timebase>
          <ntsc>TRUE</ntsc>
        </rate>
        <name>00342.MTS</name>
        <media>
          <video>
            <track>
              <clipitem id="clipitem-379" frameBlend="FALSE">
                <masterclipid>masterclip-123</masterclipid>
                <name>00342.MTS</name>
                <alphatype>black</alphatype>
                <pixelaspectratio>square</pixelaspectratio>
                <anamorphic>FALSE</anamorphic>
                <file id="file-123">
                  <name>00342.MTS</name>
                  <pathurl>file://localhost/Volumes/Macintosh%20HD/Users/jacksongs/Desktop/STREAM/00342.MTS</pathurl>
                  <rate>
                    <timebase>24</timebase>
                    <ntsc>TRUE</ntsc>
                  </rate>
                  <duration>169</duration>
                  <timecode>
                    <rate>
                      <timebase>24</timebase>
                      <ntsc>TRUE</ntsc>
                    </rate>
                    <string>00:00:00:00</string>
                    <frame>0</frame>
                    <displayformat>NDF</displayformat>
                    <reel>
                      <name/>
                    </reel>
                  </timecode>
                  <media>
                    <video>
                      <duration>18000</duration>
                      <samplecharacteristics>
                        <rate>
                          <timebase>24</timebase>
                          <ntsc>TRUE</ntsc>
                        </rate>
                        <width>1920</width>
                        <height>1080</height>
                        <anamorphic>FALSE</anamorphic>
                        <pixelaspectratio>square</pixelaspectratio>
                        <fielddominance>none</fielddominance>
                      </samplecharacteristics>
                    </video>
                    <audio>
                      <samplecharacteristics>
                        <depth>16</depth>
                        <samplerate>48000</samplerate>
                      </samplecharacteristics>
                      <channelcount>2</channelcount>
                    </audio>
                  </media>
                </file>
                <link>
                  <linkclipref>clipitem-379</linkclipref>
                  <mediatype>video</mediatype>
                  <trackindex>1</trackindex>
                  <clipindex>1</clipindex>
                </link>
                <link>
                  <linkclipref>clipitem-380</linkclipref>
                  <mediatype>audio</mediatype>
                  <trackindex>1</trackindex>
                  <clipindex>1</clipindex>
                  <groupindex>1</groupindex>
                </link>
                <link>
                  <linkclipref>clipitem-381</linkclipref>
                  <mediatype>audio</mediatype>
                  <trackindex>2</trackindex>
                  <clipindex>1</clipindex>
                  <groupindex>1</groupindex>
                </link>
              </clipitem>
            </track>
          </video>
          <audio>
            <track>
              <clipitem id="clipitem-380" frameBlend="FALSE">
                <masterclipid>masterclip-123</masterclipid>
                <name>00342.MTS</name>
                <file id="file-123"/>
                <sourcetrack>
                  <mediatype>audio</mediatype>
                  <trackindex>1</trackindex>
                </sourcetrack>
                <link>
                  <linkclipref>clipitem-379</linkclipref>
                  <mediatype>video</mediatype>
                  <trackindex>1</trackindex>
                  <clipindex>1</clipindex>
                </link>
                <link>
                  <linkclipref>clipitem-380</linkclipref>
                  <mediatype>audio</mediatype>
                  <trackindex>1</trackindex>
                  <clipindex>1</clipindex>
                  <groupindex>1</groupindex>
                </link>
                <link>
                  <linkclipref>clipitem-381</linkclipref>
                  <mediatype>audio</mediatype>
                  <trackindex>2</trackindex>
                  <clipindex>1</clipindex>
                  <groupindex>1</groupindex>
                </link>
              </clipitem>
            </track>
            <track>
              <clipitem id="clipitem-381" frameBlend="FALSE">
                <masterclipid>masterclip-123</masterclipid>
                <name>00342.MTS</name>
                <file id="file-123"/>
                <sourcetrack>
                  <mediatype>audio</mediatype>
                  <trackindex>2</trackindex>
                </sourcetrack>
                <link>
                  <linkclipref>clipitem-379</linkclipref>
                  <mediatype>video</mediatype>
                  <trackindex>1</trackindex>
                  <clipindex>1</clipindex>
                </link>
                <link>
                  <linkclipref>clipitem-380</linkclipref>
                  <mediatype>audio</mediatype>
                  <trackindex>1</trackindex>
                  <clipindex>1</clipindex>
                  <groupindex>1</groupindex>
                </link>
                <link>
                  <linkclipref>clipitem-381</linkclipref>
                  <mediatype>audio</mediatype>
                  <trackindex>2</trackindex>
                  <clipindex>1</clipindex>
                  <groupindex>1</groupindex>
                </link>
              </clipitem>
            </track>
          </audio>
        </media>
        <logginginfo>
          <description/>
          <scene/>
          <shottake/>
          <lognote/>
        </logginginfo>
      </clip>
      <clip id="masterclip-124" frameBlend="FALSE">
        <uuid>914ced0f-c769-475d-9dd0-ab34f3fd619f</uuid>
        <masterclipid>masterclip-124</masterclipid>
        <ismasterclip>TRUE</ismasterclip>
        <duration>673</duration>
        <rate>
          <timebase>24</timebase>
          <ntsc>TRUE</ntsc>
        </rate>
        <name>00343.MTS</name>
        <media>
          <video>
            <track>
              <clipitem id="clipitem-382" frameBlend="FALSE">
                <masterclipid>masterclip-124</masterclipid>
                <name>00343.MTS</name>
                <alphatype>black</alphatype>
                <pixelaspectratio>square</pixelaspectratio>
                <anamorphic>FALSE</anamorphic>
                <file id="file-124">
                  <name>00343.MTS</name>
                  <pathurl>file://localhost/Volumes/Macintosh%20HD/Users/jacksongs/Desktop/STREAM/00343.MTS</pathurl>
                  <rate>
                    <timebase>24</timebase>
                    <ntsc>TRUE</ntsc>
                  </rate>
                  <duration>673</duration>
                  <timecode>
                    <rate>
                      <timebase>24</timebase>
                      <ntsc>TRUE</ntsc>
                    </rate>
                    <string>00:00:00:00</string>
                    <frame>0</frame>
                    <displayformat>NDF</displayformat>
                    <reel>
                      <name/>
                    </reel>
                  </timecode>
                  <media>
                    <video>
                      <duration>18000</duration>
                      <samplecharacteristics>
                        <rate>
                          <timebase>24</timebase>
                          <ntsc>TRUE</ntsc>
                        </rate>
                        <width>1920</width>
                        <height>1080</height>
                        <anamorphic>FALSE</anamorphic>
                        <pixelaspectratio>square</pixelaspectratio>
                        <fielddominance>none</fielddominance>
                      </samplecharacteristics>
                    </video>
                    <audio>
                      <samplecharacteristics>
                        <depth>16</depth>
                        <samplerate>48000</samplerate>
                      </samplecharacteristics>
                      <channelcount>2</channelcount>
                    </audio>
                  </media>
                </file>
                <link>
                  <linkclipref>clipitem-382</linkclipref>
                  <mediatype>video</mediatype>
                  <trackindex>1</trackindex>
                  <clipindex>1</clipindex>
                </link>
                <link>
                  <linkclipref>clipitem-383</linkclipref>
                  <mediatype>audio</mediatype>
                  <trackindex>1</trackindex>
                  <clipindex>1</clipindex>
                  <groupindex>1</groupindex>
                </link>
                <link>
                  <linkclipref>clipitem-384</linkclipref>
                  <mediatype>audio</mediatype>
                  <trackindex>2</trackindex>
                  <clipindex>1</clipindex>
                  <groupindex>1</groupindex>
                </link>
              </clipitem>
            </track>
          </video>
          <audio>
            <track>
              <clipitem id="clipitem-383" frameBlend="FALSE">
                <masterclipid>masterclip-124</masterclipid>
                <name>00343.MTS</name>
                <file id="file-124"/>
                <sourcetrack>
                  <mediatype>audio</mediatype>
                  <trackindex>1</trackindex>
                </sourcetrack>
                <link>
                  <linkclipref>clipitem-382</linkclipref>
                  <mediatype>video</mediatype>
                  <trackindex>1</trackindex>
                  <clipindex>1</clipindex>
                </link>
                <link>
                  <linkclipref>clipitem-383</linkclipref>
                  <mediatype>audio</mediatype>
                  <trackindex>1</trackindex>
                  <clipindex>1</clipindex>
                  <groupindex>1</groupindex>
                </link>
                <link>
                  <linkclipref>clipitem-384</linkclipref>
                  <mediatype>audio</mediatype>
                  <trackindex>2</trackindex>
                  <clipindex>1</clipindex>
                  <groupindex>1</groupindex>
                </link>
              </clipitem>
            </track>
            <track>
              <clipitem id="clipitem-384" frameBlend="FALSE">
                <masterclipid>masterclip-124</masterclipid>
                <name>00343.MTS</name>
                <file id="file-124"/>
                <sourcetrack>
                  <mediatype>audio</mediatype>
                  <trackindex>2</trackindex>
                </sourcetrack>
                <link>
                  <linkclipref>clipitem-382</linkclipref>
                  <mediatype>video</mediatype>
                  <trackindex>1</trackindex>
                  <clipindex>1</clipindex>
                </link>
                <link>
                  <linkclipref>clipitem-383</linkclipref>
                  <mediatype>audio</mediatype>
                  <trackindex>1</trackindex>
                  <clipindex>1</clipindex>
                  <groupindex>1</groupindex>
                </link>
                <link>
                  <linkclipref>clipitem-384</linkclipref>
                  <mediatype>audio</mediatype>
                  <trackindex>2</trackindex>
                  <clipindex>1</clipindex>
                  <groupindex>1</groupindex>
                </link>
              </clipitem>
            </track>
          </audio>
        </media>
        <logginginfo>
          <description/>
          <scene/>
          <shottake/>
          <lognote/>
        </logginginfo>
      </clip>
      <clip id="masterclip-125" frameBlend="FALSE">
        <uuid>9014e15f-abad-4e50-832c-4a2eb09bcfab</uuid>
        <masterclipid>masterclip-125</masterclipid>
        <ismasterclip>TRUE</ismasterclip>
        <duration>181</duration>
        <rate>
          <timebase>24</timebase>
          <ntsc>TRUE</ntsc>
        </rate>
        <name>00344.MTS</name>
        <media>
          <video>
            <track>
              <clipitem id="clipitem-385" frameBlend="FALSE">
                <masterclipid>masterclip-125</masterclipid>
                <name>00344.MTS</name>
                <alphatype>black</alphatype>
                <pixelaspectratio>square</pixelaspectratio>
                <anamorphic>FALSE</anamorphic>
                <file id="file-125">
                  <name>00344.MTS</name>
                  <pathurl>file://localhost/Volumes/Macintosh%20HD/Users/jacksongs/Desktop/STREAM/00344.MTS</pathurl>
                  <rate>
                    <timebase>24</timebase>
                    <ntsc>TRUE</ntsc>
                  </rate>
                  <duration>181</duration>
                  <timecode>
                    <rate>
                      <timebase>24</timebase>
                      <ntsc>TRUE</ntsc>
                    </rate>
                    <string>00:00:00:00</string>
                    <frame>0</frame>
                    <displayformat>NDF</displayformat>
                    <reel>
                      <name/>
                    </reel>
                  </timecode>
                  <media>
                    <video>
                      <duration>18000</duration>
                      <samplecharacteristics>
                        <rate>
                          <timebase>24</timebase>
                          <ntsc>TRUE</ntsc>
                        </rate>
                        <width>1920</width>
                        <height>1080</height>
                        <anamorphic>FALSE</anamorphic>
                        <pixelaspectratio>square</pixelaspectratio>
                        <fielddominance>none</fielddominance>
                      </samplecharacteristics>
                    </video>
                    <audio>
                      <samplecharacteristics>
                        <depth>16</depth>
                        <samplerate>48000</samplerate>
                      </samplecharacteristics>
                      <channelcount>2</channelcount>
                    </audio>
                  </media>
                </file>
                <link>
                  <linkclipref>clipitem-385</linkclipref>
                  <mediatype>video</mediatype>
                  <trackindex>1</trackindex>
                  <clipindex>1</clipindex>
                </link>
                <link>
                  <linkclipref>clipitem-386</linkclipref>
                  <mediatype>audio</mediatype>
                  <trackindex>1</trackindex>
                  <clipindex>1</clipindex>
                  <groupindex>1</groupindex>
                </link>
                <link>
                  <linkclipref>clipitem-387</linkclipref>
                  <mediatype>audio</mediatype>
                  <trackindex>2</trackindex>
                  <clipindex>1</clipindex>
                  <groupindex>1</groupindex>
                </link>
              </clipitem>
            </track>
          </video>
          <audio>
            <track>
              <clipitem id="clipitem-386" frameBlend="FALSE">
                <masterclipid>masterclip-125</masterclipid>
                <name>00344.MTS</name>
                <file id="file-125"/>
                <sourcetrack>
                  <mediatype>audio</mediatype>
                  <trackindex>1</trackindex>
                </sourcetrack>
                <link>
                  <linkclipref>clipitem-385</linkclipref>
                  <mediatype>video</mediatype>
                  <trackindex>1</trackindex>
                  <clipindex>1</clipindex>
                </link>
                <link>
                  <linkclipref>clipitem-386</linkclipref>
                  <mediatype>audio</mediatype>
                  <trackindex>1</trackindex>
                  <clipindex>1</clipindex>
                  <groupindex>1</groupindex>
                </link>
                <link>
                  <linkclipref>clipitem-387</linkclipref>
                  <mediatype>audio</mediatype>
                  <trackindex>2</trackindex>
                  <clipindex>1</clipindex>
                  <groupindex>1</groupindex>
                </link>
              </clipitem>
            </track>
            <track>
              <clipitem id="clipitem-387" frameBlend="FALSE">
                <masterclipid>masterclip-125</masterclipid>
                <name>00344.MTS</name>
                <file id="file-125"/>
                <sourcetrack>
                  <mediatype>audio</mediatype>
                  <trackindex>2</trackindex>
                </sourcetrack>
                <link>
                  <linkclipref>clipitem-385</linkclipref>
                  <mediatype>video</mediatype>
                  <trackindex>1</trackindex>
                  <clipindex>1</clipindex>
                </link>
                <link>
                  <linkclipref>clipitem-386</linkclipref>
                  <mediatype>audio</mediatype>
                  <trackindex>1</trackindex>
                  <clipindex>1</clipindex>
                  <groupindex>1</groupindex>
                </link>
                <link>
                  <linkclipref>clipitem-387</linkclipref>
                  <mediatype>audio</mediatype>
                  <trackindex>2</trackindex>
                  <clipindex>1</clipindex>
                  <groupindex>1</groupindex>
                </link>
              </clipitem>
            </track>
          </audio>
        </media>
        <logginginfo>
          <description/>
          <scene/>
          <shottake/>
          <lognote/>
        </logginginfo>
      </clip>
      <clip id="masterclip-126" frameBlend="FALSE">
        <uuid>056d6252-12d1-4b2b-b103-0b2686a11e1e</uuid>
        <masterclipid>masterclip-126</masterclipid>
        <ismasterclip>TRUE</ismasterclip>
        <duration>169</duration>
        <rate>
          <timebase>24</timebase>
          <ntsc>TRUE</ntsc>
        </rate>
        <name>00345.MTS</name>
        <media>
          <video>
            <track>
              <clipitem id="clipitem-388" frameBlend="FALSE">
                <masterclipid>masterclip-126</masterclipid>
                <name>00345.MTS</name>
                <alphatype>black</alphatype>
                <pixelaspectratio>square</pixelaspectratio>
                <anamorphic>FALSE</anamorphic>
                <file id="file-126">
                  <name>00345.MTS</name>
                  <pathurl>file://localhost/Volumes/Macintosh%20HD/Users/jacksongs/Desktop/STREAM/00345.MTS</pathurl>
                  <rate>
                    <timebase>24</timebase>
                    <ntsc>TRUE</ntsc>
                  </rate>
                  <duration>169</duration>
                  <timecode>
                    <rate>
                      <timebase>24</timebase>
                      <ntsc>TRUE</ntsc>
                    </rate>
                    <string>00:00:00:00</string>
                    <frame>0</frame>
                    <displayformat>NDF</displayformat>
                    <reel>
                      <name/>
                    </reel>
                  </timecode>
                  <media>
                    <video>
                      <duration>18000</duration>
                      <samplecharacteristics>
                        <rate>
                          <timebase>24</timebase>
                          <ntsc>TRUE</ntsc>
                        </rate>
                        <width>1920</width>
                        <height>1080</height>
                        <anamorphic>FALSE</anamorphic>
                        <pixelaspectratio>square</pixelaspectratio>
                        <fielddominance>none</fielddominance>
                      </samplecharacteristics>
                    </video>
                    <audio>
                      <samplecharacteristics>
                        <depth>16</depth>
                        <samplerate>48000</samplerate>
                      </samplecharacteristics>
                      <channelcount>2</channelcount>
                    </audio>
                  </media>
                </file>
                <link>
                  <linkclipref>clipitem-388</linkclipref>
                  <mediatype>video</mediatype>
                  <trackindex>1</trackindex>
                  <clipindex>1</clipindex>
                </link>
                <link>
                  <linkclipref>clipitem-389</linkclipref>
                  <mediatype>audio</mediatype>
                  <trackindex>1</trackindex>
                  <clipindex>1</clipindex>
                  <groupindex>1</groupindex>
                </link>
                <link>
                  <linkclipref>clipitem-390</linkclipref>
                  <mediatype>audio</mediatype>
                  <trackindex>2</trackindex>
                  <clipindex>1</clipindex>
                  <groupindex>1</groupindex>
                </link>
              </clipitem>
            </track>
          </video>
          <audio>
            <track>
              <clipitem id="clipitem-389" frameBlend="FALSE">
                <masterclipid>masterclip-126</masterclipid>
                <name>00345.MTS</name>
                <file id="file-126"/>
                <sourcetrack>
                  <mediatype>audio</mediatype>
                  <trackindex>1</trackindex>
                </sourcetrack>
                <link>
                  <linkclipref>clipitem-388</linkclipref>
                  <mediatype>video</mediatype>
                  <trackindex>1</trackindex>
                  <clipindex>1</clipindex>
                </link>
                <link>
                  <linkclipref>clipitem-389</linkclipref>
                  <mediatype>audio</mediatype>
                  <trackindex>1</trackindex>
                  <clipindex>1</clipindex>
                  <groupindex>1</groupindex>
                </link>
                <link>
                  <linkclipref>clipitem-390</linkclipref>
                  <mediatype>audio</mediatype>
                  <trackindex>2</trackindex>
                  <clipindex>1</clipindex>
                  <groupindex>1</groupindex>
                </link>
              </clipitem>
            </track>
            <track>
              <clipitem id="clipitem-390" frameBlend="FALSE">
                <masterclipid>masterclip-126</masterclipid>
                <name>00345.MTS</name>
                <file id="file-126"/>
                <sourcetrack>
                  <mediatype>audio</mediatype>
                  <trackindex>2</trackindex>
                </sourcetrack>
                <link>
                  <linkclipref>clipitem-388</linkclipref>
                  <mediatype>video</mediatype>
                  <trackindex>1</trackindex>
                  <clipindex>1</clipindex>
                </link>
                <link>
                  <linkclipref>clipitem-389</linkclipref>
                  <mediatype>audio</mediatype>
                  <trackindex>1</trackindex>
                  <clipindex>1</clipindex>
                  <groupindex>1</groupindex>
                </link>
                <link>
                  <linkclipref>clipitem-390</linkclipref>
                  <mediatype>audio</mediatype>
                  <trackindex>2</trackindex>
                  <clipindex>1</clipindex>
                  <groupindex>1</groupindex>
                </link>
              </clipitem>
            </track>
          </audio>
        </media>
        <logginginfo>
          <description/>
          <scene/>
          <shottake/>
          <lognote/>
        </logginginfo>
      </clip>
      <clip id="masterclip-127" frameBlend="FALSE">
        <uuid>7644e6dc-fc1f-4949-ad04-5e7515dbf653</uuid>
        <masterclipid>masterclip-127</masterclipid>
        <ismasterclip>TRUE</ismasterclip>
        <duration>181</duration>
        <rate>
          <timebase>24</timebase>
          <ntsc>TRUE</ntsc>
        </rate>
        <name>00346.MTS</name>
        <media>
          <video>
            <track>
              <clipitem id="clipitem-391" frameBlend="FALSE">
                <masterclipid>masterclip-127</masterclipid>
                <name>00346.MTS</name>
                <alphatype>black</alphatype>
                <pixelaspectratio>square</pixelaspectratio>
                <anamorphic>FALSE</anamorphic>
                <file id="file-127">
                  <name>00346.MTS</name>
                  <pathurl>file://localhost/Volumes/Macintosh%20HD/Users/jacksongs/Desktop/STREAM/00346.MTS</pathurl>
                  <rate>
                    <timebase>24</timebase>
                    <ntsc>TRUE</ntsc>
                  </rate>
                  <duration>181</duration>
                  <timecode>
                    <rate>
                      <timebase>24</timebase>
                      <ntsc>TRUE</ntsc>
                    </rate>
                    <string>00:00:00:00</string>
                    <frame>0</frame>
                    <displayformat>NDF</displayformat>
                    <reel>
                      <name/>
                    </reel>
                  </timecode>
                  <media>
                    <video>
                      <duration>18000</duration>
                      <samplecharacteristics>
                        <rate>
                          <timebase>24</timebase>
                          <ntsc>TRUE</ntsc>
                        </rate>
                        <width>1920</width>
                        <height>1080</height>
                        <anamorphic>FALSE</anamorphic>
                        <pixelaspectratio>square</pixelaspectratio>
                        <fielddominance>none</fielddominance>
                      </samplecharacteristics>
                    </video>
                    <audio>
                      <samplecharacteristics>
                        <depth>16</depth>
                        <samplerate>48000</samplerate>
                      </samplecharacteristics>
                      <channelcount>2</channelcount>
                    </audio>
                  </media>
                </file>
                <link>
                  <linkclipref>clipitem-391</linkclipref>
                  <mediatype>video</mediatype>
                  <trackindex>1</trackindex>
                  <clipindex>1</clipindex>
                </link>
                <link>
                  <linkclipref>clipitem-392</linkclipref>
                  <mediatype>audio</mediatype>
                  <trackindex>1</trackindex>
                  <clipindex>1</clipindex>
                  <groupindex>1</groupindex>
                </link>
                <link>
                  <linkclipref>clipitem-393</linkclipref>
                  <mediatype>audio</mediatype>
                  <trackindex>2</trackindex>
                  <clipindex>1</clipindex>
                  <groupindex>1</groupindex>
                </link>
              </clipitem>
            </track>
          </video>
          <audio>
            <track>
              <clipitem id="clipitem-392" frameBlend="FALSE">
                <masterclipid>masterclip-127</masterclipid>
                <name>00346.MTS</name>
                <file id="file-127"/>
                <sourcetrack>
                  <mediatype>audio</mediatype>
                  <trackindex>1</trackindex>
                </sourcetrack>
                <link>
                  <linkclipref>clipitem-391</linkclipref>
                  <mediatype>video</mediatype>
                  <trackindex>1</trackindex>
                  <clipindex>1</clipindex>
                </link>
                <link>
                  <linkclipref>clipitem-392</linkclipref>
                  <mediatype>audio</mediatype>
                  <trackindex>1</trackindex>
                  <clipindex>1</clipindex>
                  <groupindex>1</groupindex>
                </link>
                <link>
                  <linkclipref>clipitem-393</linkclipref>
                  <mediatype>audio</mediatype>
                  <trackindex>2</trackindex>
                  <clipindex>1</clipindex>
                  <groupindex>1</groupindex>
                </link>
              </clipitem>
            </track>
            <track>
              <clipitem id="clipitem-393" frameBlend="FALSE">
                <masterclipid>masterclip-127</masterclipid>
                <name>00346.MTS</name>
                <file id="file-127"/>
                <sourcetrack>
                  <mediatype>audio</mediatype>
                  <trackindex>2</trackindex>
                </sourcetrack>
                <link>
                  <linkclipref>clipitem-391</linkclipref>
                  <mediatype>video</mediatype>
                  <trackindex>1</trackindex>
                  <clipindex>1</clipindex>
                </link>
                <link>
                  <linkclipref>clipitem-392</linkclipref>
                  <mediatype>audio</mediatype>
                  <trackindex>1</trackindex>
                  <clipindex>1</clipindex>
                  <groupindex>1</groupindex>
                </link>
                <link>
                  <linkclipref>clipitem-393</linkclipref>
                  <mediatype>audio</mediatype>
                  <trackindex>2</trackindex>
                  <clipindex>1</clipindex>
                  <groupindex>1</groupindex>
                </link>
              </clipitem>
            </track>
          </audio>
        </media>
        <logginginfo>
          <description/>
          <scene/>
          <shottake/>
          <lognote/>
        </logginginfo>
      </clip>
      <clip id="masterclip-128" frameBlend="FALSE">
        <uuid>79482782-fe10-4d5e-835c-dfef24b19609</uuid>
        <masterclipid>masterclip-128</masterclipid>
        <ismasterclip>TRUE</ismasterclip>
        <duration>157</duration>
        <rate>
          <timebase>24</timebase>
          <ntsc>TRUE</ntsc>
        </rate>
        <name>00347.MTS</name>
        <media>
          <video>
            <track>
              <clipitem id="clipitem-394" frameBlend="FALSE">
                <masterclipid>masterclip-128</masterclipid>
                <name>00347.MTS</name>
                <alphatype>black</alphatype>
                <pixelaspectratio>square</pixelaspectratio>
                <anamorphic>FALSE</anamorphic>
                <file id="file-128">
                  <name>00347.MTS</name>
                  <pathurl>file://localhost/Volumes/Macintosh%20HD/Users/jacksongs/Desktop/STREAM/00347.MTS</pathurl>
                  <rate>
                    <timebase>24</timebase>
                    <ntsc>TRUE</ntsc>
                  </rate>
                  <duration>157</duration>
                  <timecode>
                    <rate>
                      <timebase>24</timebase>
                      <ntsc>TRUE</ntsc>
                    </rate>
                    <string>00:00:00:00</string>
                    <frame>0</frame>
                    <displayformat>NDF</displayformat>
                    <reel>
                      <name/>
                    </reel>
                  </timecode>
                  <media>
                    <video>
                      <duration>18000</duration>
                      <samplecharacteristics>
                        <rate>
                          <timebase>24</timebase>
                          <ntsc>TRUE</ntsc>
                        </rate>
                        <width>1920</width>
                        <height>1080</height>
                        <anamorphic>FALSE</anamorphic>
                        <pixelaspectratio>square</pixelaspectratio>
                        <fielddominance>none</fielddominance>
                      </samplecharacteristics>
                    </video>
                    <audio>
                      <samplecharacteristics>
                        <depth>16</depth>
                        <samplerate>48000</samplerate>
                      </samplecharacteristics>
                      <channelcount>2</channelcount>
                    </audio>
                  </media>
                </file>
                <link>
                  <linkclipref>clipitem-394</linkclipref>
                  <mediatype>video</mediatype>
                  <trackindex>1</trackindex>
                  <clipindex>1</clipindex>
                </link>
                <link>
                  <linkclipref>clipitem-395</linkclipref>
                  <mediatype>audio</mediatype>
                  <trackindex>1</trackindex>
                  <clipindex>1</clipindex>
                  <groupindex>1</groupindex>
                </link>
                <link>
                  <linkclipref>clipitem-396</linkclipref>
                  <mediatype>audio</mediatype>
                  <trackindex>2</trackindex>
                  <clipindex>1</clipindex>
                  <groupindex>1</groupindex>
                </link>
              </clipitem>
            </track>
          </video>
          <audio>
            <track>
              <clipitem id="clipitem-395" frameBlend="FALSE">
                <masterclipid>masterclip-128</masterclipid>
                <name>00347.MTS</name>
                <file id="file-128"/>
                <sourcetrack>
                  <mediatype>audio</mediatype>
                  <trackindex>1</trackindex>
                </sourcetrack>
                <link>
                  <linkclipref>clipitem-394</linkclipref>
                  <mediatype>video</mediatype>
                  <trackindex>1</trackindex>
                  <clipindex>1</clipindex>
                </link>
                <link>
                  <linkclipref>clipitem-395</linkclipref>
                  <mediatype>audio</mediatype>
                  <trackindex>1</trackindex>
                  <clipindex>1</clipindex>
                  <groupindex>1</groupindex>
                </link>
                <link>
                  <linkclipref>clipitem-396</linkclipref>
                  <mediatype>audio</mediatype>
                  <trackindex>2</trackindex>
                  <clipindex>1</clipindex>
                  <groupindex>1</groupindex>
                </link>
              </clipitem>
            </track>
            <track>
              <clipitem id="clipitem-396" frameBlend="FALSE">
                <masterclipid>masterclip-128</masterclipid>
                <name>00347.MTS</name>
                <file id="file-128"/>
                <sourcetrack>
                  <mediatype>audio</mediatype>
                  <trackindex>2</trackindex>
                </sourcetrack>
                <link>
                  <linkclipref>clipitem-394</linkclipref>
                  <mediatype>video</mediatype>
                  <trackindex>1</trackindex>
                  <clipindex>1</clipindex>
                </link>
                <link>
                  <linkclipref>clipitem-395</linkclipref>
                  <mediatype>audio</mediatype>
                  <trackindex>1</trackindex>
                  <clipindex>1</clipindex>
                  <groupindex>1</groupindex>
                </link>
                <link>
                  <linkclipref>clipitem-396</linkclipref>
                  <mediatype>audio</mediatype>
                  <trackindex>2</trackindex>
                  <clipindex>1</clipindex>
                  <groupindex>1</groupindex>
                </link>
              </clipitem>
            </track>
          </audio>
        </media>
        <logginginfo>
          <description/>
          <scene/>
          <shottake/>
          <lognote/>
        </logginginfo>
      </clip>
      <clip id="masterclip-129" frameBlend="FALSE">
        <uuid>b611918d-a728-49b0-9318-01e61e709b69</uuid>
        <masterclipid>masterclip-129</masterclipid>
        <ismasterclip>TRUE</ismasterclip>
        <duration>181</duration>
        <rate>
          <timebase>24</timebase>
          <ntsc>TRUE</ntsc>
        </rate>
        <name>00348.MTS</name>
        <media>
          <video>
            <track>
              <clipitem id="clipitem-397" frameBlend="FALSE">
                <masterclipid>masterclip-129</masterclipid>
                <name>00348.MTS</name>
                <alphatype>black</alphatype>
                <pixelaspectratio>square</pixelaspectratio>
                <anamorphic>FALSE</anamorphic>
                <file id="file-129">
                  <name>00348.MTS</name>
                  <pathurl>file://localhost/Volumes/Macintosh%20HD/Users/jacksongs/Desktop/STREAM/00348.MTS</pathurl>
                  <rate>
                    <timebase>24</timebase>
                    <ntsc>TRUE</ntsc>
                  </rate>
                  <duration>181</duration>
                  <timecode>
                    <rate>
                      <timebase>24</timebase>
                      <ntsc>TRUE</ntsc>
                    </rate>
                    <string>00:00:00:00</string>
                    <frame>0</frame>
                    <displayformat>NDF</displayformat>
                    <reel>
                      <name/>
                    </reel>
                  </timecode>
                  <media>
                    <video>
                      <duration>18000</duration>
                      <samplecharacteristics>
                        <rate>
                          <timebase>24</timebase>
                          <ntsc>TRUE</ntsc>
                        </rate>
                        <width>1920</width>
                        <height>1080</height>
                        <anamorphic>FALSE</anamorphic>
                        <pixelaspectratio>square</pixelaspectratio>
                        <fielddominance>none</fielddominance>
                      </samplecharacteristics>
                    </video>
                    <audio>
                      <samplecharacteristics>
                        <depth>16</depth>
                        <samplerate>48000</samplerate>
                      </samplecharacteristics>
                      <channelcount>2</channelcount>
                    </audio>
                  </media>
                </file>
                <link>
                  <linkclipref>clipitem-397</linkclipref>
                  <mediatype>video</mediatype>
                  <trackindex>1</trackindex>
                  <clipindex>1</clipindex>
                </link>
                <link>
                  <linkclipref>clipitem-398</linkclipref>
                  <mediatype>audio</mediatype>
                  <trackindex>1</trackindex>
                  <clipindex>1</clipindex>
                  <groupindex>1</groupindex>
                </link>
                <link>
                  <linkclipref>clipitem-399</linkclipref>
                  <mediatype>audio</mediatype>
                  <trackindex>2</trackindex>
                  <clipindex>1</clipindex>
                  <groupindex>1</groupindex>
                </link>
              </clipitem>
            </track>
          </video>
          <audio>
            <track>
              <clipitem id="clipitem-398" frameBlend="FALSE">
                <masterclipid>masterclip-129</masterclipid>
                <name>00348.MTS</name>
                <file id="file-129"/>
                <sourcetrack>
                  <mediatype>audio</mediatype>
                  <trackindex>1</trackindex>
                </sourcetrack>
                <link>
                  <linkclipref>clipitem-397</linkclipref>
                  <mediatype>video</mediatype>
                  <trackindex>1</trackindex>
                  <clipindex>1</clipindex>
                </link>
                <link>
                  <linkclipref>clipitem-398</linkclipref>
                  <mediatype>audio</mediatype>
                  <trackindex>1</trackindex>
                  <clipindex>1</clipindex>
                  <groupindex>1</groupindex>
                </link>
                <link>
                  <linkclipref>clipitem-399</linkclipref>
                  <mediatype>audio</mediatype>
                  <trackindex>2</trackindex>
                  <clipindex>1</clipindex>
                  <groupindex>1</groupindex>
                </link>
              </clipitem>
            </track>
            <track>
              <clipitem id="clipitem-399" frameBlend="FALSE">
                <masterclipid>masterclip-129</masterclipid>
                <name>00348.MTS</name>
                <file id="file-129"/>
                <sourcetrack>
                  <mediatype>audio</mediatype>
                  <trackindex>2</trackindex>
                </sourcetrack>
                <link>
                  <linkclipref>clipitem-397</linkclipref>
                  <mediatype>video</mediatype>
                  <trackindex>1</trackindex>
                  <clipindex>1</clipindex>
                </link>
                <link>
                  <linkclipref>clipitem-398</linkclipref>
                  <mediatype>audio</mediatype>
                  <trackindex>1</trackindex>
                  <clipindex>1</clipindex>
                  <groupindex>1</groupindex>
                </link>
                <link>
                  <linkclipref>clipitem-399</linkclipref>
                  <mediatype>audio</mediatype>
                  <trackindex>2</trackindex>
                  <clipindex>1</clipindex>
                  <groupindex>1</groupindex>
                </link>
              </clipitem>
            </track>
          </audio>
        </media>
        <logginginfo>
          <description/>
          <scene/>
          <shottake/>
          <lognote/>
        </logginginfo>
      </clip>
      <clip id="masterclip-130" frameBlend="FALSE">
        <uuid>5f4fa790-bef9-4d67-8ee1-d2d4d04945fb</uuid>
        <masterclipid>masterclip-130</masterclipid>
        <ismasterclip>TRUE</ismasterclip>
        <duration>181</duration>
        <rate>
          <timebase>24</timebase>
          <ntsc>TRUE</ntsc>
        </rate>
        <name>00349.MTS</name>
        <media>
          <video>
            <track>
              <clipitem id="clipitem-400" frameBlend="FALSE">
                <masterclipid>masterclip-130</masterclipid>
                <name>00349.MTS</name>
                <alphatype>black</alphatype>
                <pixelaspectratio>square</pixelaspectratio>
                <anamorphic>FALSE</anamorphic>
                <file id="file-130">
                  <name>00349.MTS</name>
                  <pathurl>file://localhost/Volumes/Macintosh%20HD/Users/jacksongs/Desktop/STREAM/00349.MTS</pathurl>
                  <rate>
                    <timebase>24</timebase>
                    <ntsc>TRUE</ntsc>
                  </rate>
                  <duration>181</duration>
                  <timecode>
                    <rate>
                      <timebase>24</timebase>
                      <ntsc>TRUE</ntsc>
                    </rate>
                    <string>00:00:00:00</string>
                    <frame>0</frame>
                    <displayformat>NDF</displayformat>
                    <reel>
                      <name/>
                    </reel>
                  </timecode>
                  <media>
                    <video>
                      <duration>18000</duration>
                      <samplecharacteristics>
                        <rate>
                          <timebase>24</timebase>
                          <ntsc>TRUE</ntsc>
                        </rate>
                        <width>1920</width>
                        <height>1080</height>
                        <anamorphic>FALSE</anamorphic>
                        <pixelaspectratio>square</pixelaspectratio>
                        <fielddominance>none</fielddominance>
                      </samplecharacteristics>
                    </video>
                    <audio>
                      <samplecharacteristics>
                        <depth>16</depth>
                        <samplerate>48000</samplerate>
                      </samplecharacteristics>
                      <channelcount>2</channelcount>
                    </audio>
                  </media>
                </file>
                <link>
                  <linkclipref>clipitem-400</linkclipref>
                  <mediatype>video</mediatype>
                  <trackindex>1</trackindex>
                  <clipindex>1</clipindex>
                </link>
                <link>
                  <linkclipref>clipitem-401</linkclipref>
                  <mediatype>audio</mediatype>
                  <trackindex>1</trackindex>
                  <clipindex>1</clipindex>
                  <groupindex>1</groupindex>
                </link>
                <link>
                  <linkclipref>clipitem-402</linkclipref>
                  <mediatype>audio</mediatype>
                  <trackindex>2</trackindex>
                  <clipindex>1</clipindex>
                  <groupindex>1</groupindex>
                </link>
              </clipitem>
            </track>
          </video>
          <audio>
            <track>
              <clipitem id="clipitem-401" frameBlend="FALSE">
                <masterclipid>masterclip-130</masterclipid>
                <name>00349.MTS</name>
                <file id="file-130"/>
                <sourcetrack>
                  <mediatype>audio</mediatype>
                  <trackindex>1</trackindex>
                </sourcetrack>
                <link>
                  <linkclipref>clipitem-400</linkclipref>
                  <mediatype>video</mediatype>
                  <trackindex>1</trackindex>
                  <clipindex>1</clipindex>
                </link>
                <link>
                  <linkclipref>clipitem-401</linkclipref>
                  <mediatype>audio</mediatype>
                  <trackindex>1</trackindex>
                  <clipindex>1</clipindex>
                  <groupindex>1</groupindex>
                </link>
                <link>
                  <linkclipref>clipitem-402</linkclipref>
                  <mediatype>audio</mediatype>
                  <trackindex>2</trackindex>
                  <clipindex>1</clipindex>
                  <groupindex>1</groupindex>
                </link>
              </clipitem>
            </track>
            <track>
              <clipitem id="clipitem-402" frameBlend="FALSE">
                <masterclipid>masterclip-130</masterclipid>
                <name>00349.MTS</name>
                <file id="file-130"/>
                <sourcetrack>
                  <mediatype>audio</mediatype>
                  <trackindex>2</trackindex>
                </sourcetrack>
                <link>
                  <linkclipref>clipitem-400</linkclipref>
                  <mediatype>video</mediatype>
                  <trackindex>1</trackindex>
                  <clipindex>1</clipindex>
                </link>
                <link>
                  <linkclipref>clipitem-401</linkclipref>
                  <mediatype>audio</mediatype>
                  <trackindex>1</trackindex>
                  <clipindex>1</clipindex>
                  <groupindex>1</groupindex>
                </link>
                <link>
                  <linkclipref>clipitem-402</linkclipref>
                  <mediatype>audio</mediatype>
                  <trackindex>2</trackindex>
                  <clipindex>1</clipindex>
                  <groupindex>1</groupindex>
                </link>
              </clipitem>
            </track>
          </audio>
        </media>
        <logginginfo>
          <description/>
          <scene/>
          <shottake/>
          <lognote/>
        </logginginfo>
      </clip>
      <clip id="masterclip-131" frameBlend="FALSE">
        <uuid>b6d7a228-7d8c-48f1-b173-6eefaf52ecab</uuid>
        <masterclipid>masterclip-131</masterclipid>
        <ismasterclip>TRUE</ismasterclip>
        <duration>145</duration>
        <rate>
          <timebase>24</timebase>
          <ntsc>TRUE</ntsc>
        </rate>
        <name>00350.MTS</name>
        <media>
          <video>
            <track>
              <clipitem id="clipitem-403" frameBlend="FALSE">
                <masterclipid>masterclip-131</masterclipid>
                <name>00350.MTS</name>
                <alphatype>black</alphatype>
                <pixelaspectratio>square</pixelaspectratio>
                <anamorphic>FALSE</anamorphic>
                <file id="file-131">
                  <name>00350.MTS</name>
                  <pathurl>file://localhost/Volumes/Macintosh%20HD/Users/jacksongs/Desktop/STREAM/00350.MTS</pathurl>
                  <rate>
                    <timebase>24</timebase>
                    <ntsc>TRUE</ntsc>
                  </rate>
                  <duration>145</duration>
                  <timecode>
                    <rate>
                      <timebase>24</timebase>
                      <ntsc>TRUE</ntsc>
                    </rate>
                    <string>00:00:00:00</string>
                    <frame>0</frame>
                    <displayformat>NDF</displayformat>
                    <reel>
                      <name/>
                    </reel>
                  </timecode>
                  <media>
                    <video>
                      <duration>18000</duration>
                      <samplecharacteristics>
                        <rate>
                          <timebase>24</timebase>
                          <ntsc>TRUE</ntsc>
                        </rate>
                        <width>1920</width>
                        <height>1080</height>
                        <anamorphic>FALSE</anamorphic>
                        <pixelaspectratio>square</pixelaspectratio>
                        <fielddominance>none</fielddominance>
                      </samplecharacteristics>
                    </video>
                    <audio>
                      <samplecharacteristics>
                        <depth>16</depth>
                        <samplerate>48000</samplerate>
                      </samplecharacteristics>
                      <channelcount>2</channelcount>
                    </audio>
                  </media>
                </file>
                <link>
                  <linkclipref>clipitem-403</linkclipref>
                  <mediatype>video</mediatype>
                  <trackindex>1</trackindex>
                  <clipindex>1</clipindex>
                </link>
                <link>
                  <linkclipref>clipitem-404</linkclipref>
                  <mediatype>audio</mediatype>
                  <trackindex>1</trackindex>
                  <clipindex>1</clipindex>
                  <groupindex>1</groupindex>
                </link>
                <link>
                  <linkclipref>clipitem-405</linkclipref>
                  <mediatype>audio</mediatype>
                  <trackindex>2</trackindex>
                  <clipindex>1</clipindex>
                  <groupindex>1</groupindex>
                </link>
              </clipitem>
            </track>
          </video>
          <audio>
            <track>
              <clipitem id="clipitem-404" frameBlend="FALSE">
                <masterclipid>masterclip-131</masterclipid>
                <name>00350.MTS</name>
                <file id="file-131"/>
                <sourcetrack>
                  <mediatype>audio</mediatype>
                  <trackindex>1</trackindex>
                </sourcetrack>
                <link>
                  <linkclipref>clipitem-403</linkclipref>
                  <mediatype>video</mediatype>
                  <trackindex>1</trackindex>
                  <clipindex>1</clipindex>
                </link>
                <link>
                  <linkclipref>clipitem-404</linkclipref>
                  <mediatype>audio</mediatype>
                  <trackindex>1</trackindex>
                  <clipindex>1</clipindex>
                  <groupindex>1</groupindex>
                </link>
                <link>
                  <linkclipref>clipitem-405</linkclipref>
                  <mediatype>audio</mediatype>
                  <trackindex>2</trackindex>
                  <clipindex>1</clipindex>
                  <groupindex>1</groupindex>
                </link>
              </clipitem>
            </track>
            <track>
              <clipitem id="clipitem-405" frameBlend="FALSE">
                <masterclipid>masterclip-131</masterclipid>
                <name>00350.MTS</name>
                <file id="file-131"/>
                <sourcetrack>
                  <mediatype>audio</mediatype>
                  <trackindex>2</trackindex>
                </sourcetrack>
                <link>
                  <linkclipref>clipitem-403</linkclipref>
                  <mediatype>video</mediatype>
                  <trackindex>1</trackindex>
                  <clipindex>1</clipindex>
                </link>
                <link>
                  <linkclipref>clipitem-404</linkclipref>
                  <mediatype>audio</mediatype>
                  <trackindex>1</trackindex>
                  <clipindex>1</clipindex>
                  <groupindex>1</groupindex>
                </link>
                <link>
                  <linkclipref>clipitem-405</linkclipref>
                  <mediatype>audio</mediatype>
                  <trackindex>2</trackindex>
                  <clipindex>1</clipindex>
                  <groupindex>1</groupindex>
                </link>
              </clipitem>
            </track>
          </audio>
        </media>
        <logginginfo>
          <description/>
          <scene/>
          <shottake/>
          <lognote/>
        </logginginfo>
      </clip>
      <clip id="masterclip-132" frameBlend="FALSE">
        <uuid>9f42d3bd-8e0c-484a-893c-f2f1e9697377</uuid>
        <masterclipid>masterclip-132</masterclipid>
        <ismasterclip>TRUE</ismasterclip>
        <duration>145</duration>
        <rate>
          <timebase>24</timebase>
          <ntsc>TRUE</ntsc>
        </rate>
        <name>00351.MTS</name>
        <media>
          <video>
            <track>
              <clipitem id="clipitem-406" frameBlend="FALSE">
                <masterclipid>masterclip-132</masterclipid>
                <name>00351.MTS</name>
                <alphatype>black</alphatype>
                <pixelaspectratio>square</pixelaspectratio>
                <anamorphic>FALSE</anamorphic>
                <file id="file-132">
                  <name>00351.MTS</name>
                  <pathurl>file://localhost/Volumes/Macintosh%20HD/Users/jacksongs/Desktop/STREAM/00351.MTS</pathurl>
                  <rate>
                    <timebase>24</timebase>
                    <ntsc>TRUE</ntsc>
                  </rate>
                  <duration>145</duration>
                  <timecode>
                    <rate>
                      <timebase>24</timebase>
                      <ntsc>TRUE</ntsc>
                    </rate>
                    <string>00:00:00:00</string>
                    <frame>0</frame>
                    <displayformat>NDF</displayformat>
                    <reel>
                      <name/>
                    </reel>
                  </timecode>
                  <media>
                    <video>
                      <duration>18000</duration>
                      <samplecharacteristics>
                        <rate>
                          <timebase>24</timebase>
                          <ntsc>TRUE</ntsc>
                        </rate>
                        <width>1920</width>
                        <height>1080</height>
                        <anamorphic>FALSE</anamorphic>
                        <pixelaspectratio>square</pixelaspectratio>
                        <fielddominance>none</fielddominance>
                      </samplecharacteristics>
                    </video>
                    <audio>
                      <samplecharacteristics>
                        <depth>16</depth>
                        <samplerate>48000</samplerate>
                      </samplecharacteristics>
                      <channelcount>2</channelcount>
                    </audio>
                  </media>
                </file>
                <link>
                  <linkclipref>clipitem-406</linkclipref>
                  <mediatype>video</mediatype>
                  <trackindex>1</trackindex>
                  <clipindex>1</clipindex>
                </link>
                <link>
                  <linkclipref>clipitem-407</linkclipref>
                  <mediatype>audio</mediatype>
                  <trackindex>1</trackindex>
                  <clipindex>1</clipindex>
                  <groupindex>1</groupindex>
                </link>
                <link>
                  <linkclipref>clipitem-408</linkclipref>
                  <mediatype>audio</mediatype>
                  <trackindex>2</trackindex>
                  <clipindex>1</clipindex>
                  <groupindex>1</groupindex>
                </link>
              </clipitem>
            </track>
          </video>
          <audio>
            <track>
              <clipitem id="clipitem-407" frameBlend="FALSE">
                <masterclipid>masterclip-132</masterclipid>
                <name>00351.MTS</name>
                <file id="file-132"/>
                <sourcetrack>
                  <mediatype>audio</mediatype>
                  <trackindex>1</trackindex>
                </sourcetrack>
                <link>
                  <linkclipref>clipitem-406</linkclipref>
                  <mediatype>video</mediatype>
                  <trackindex>1</trackindex>
                  <clipindex>1</clipindex>
                </link>
                <link>
                  <linkclipref>clipitem-407</linkclipref>
                  <mediatype>audio</mediatype>
                  <trackindex>1</trackindex>
                  <clipindex>1</clipindex>
                  <groupindex>1</groupindex>
                </link>
                <link>
                  <linkclipref>clipitem-408</linkclipref>
                  <mediatype>audio</mediatype>
                  <trackindex>2</trackindex>
                  <clipindex>1</clipindex>
                  <groupindex>1</groupindex>
                </link>
              </clipitem>
            </track>
            <track>
              <clipitem id="clipitem-408" frameBlend="FALSE">
                <masterclipid>masterclip-132</masterclipid>
                <name>00351.MTS</name>
                <file id="file-132"/>
                <sourcetrack>
                  <mediatype>audio</mediatype>
                  <trackindex>2</trackindex>
                </sourcetrack>
                <link>
                  <linkclipref>clipitem-406</linkclipref>
                  <mediatype>video</mediatype>
                  <trackindex>1</trackindex>
                  <clipindex>1</clipindex>
                </link>
                <link>
                  <linkclipref>clipitem-407</linkclipref>
                  <mediatype>audio</mediatype>
                  <trackindex>1</trackindex>
                  <clipindex>1</clipindex>
                  <groupindex>1</groupindex>
                </link>
                <link>
                  <linkclipref>clipitem-408</linkclipref>
                  <mediatype>audio</mediatype>
                  <trackindex>2</trackindex>
                  <clipindex>1</clipindex>
                  <groupindex>1</groupindex>
                </link>
              </clipitem>
            </track>
          </audio>
        </media>
        <logginginfo>
          <description/>
          <scene/>
          <shottake/>
          <lognote/>
        </logginginfo>
      </clip>
      <clip id="masterclip-133" frameBlend="FALSE">
        <uuid>b5876970-0627-405f-b657-0a97be760505</uuid>
        <masterclipid>masterclip-133</masterclipid>
        <ismasterclip>TRUE</ismasterclip>
        <duration>205</duration>
        <rate>
          <timebase>24</timebase>
          <ntsc>TRUE</ntsc>
        </rate>
        <name>00352.MTS</name>
        <media>
          <video>
            <track>
              <clipitem id="clipitem-409" frameBlend="FALSE">
                <masterclipid>masterclip-133</masterclipid>
                <name>00352.MTS</name>
                <alphatype>black</alphatype>
                <pixelaspectratio>square</pixelaspectratio>
                <anamorphic>FALSE</anamorphic>
                <file id="file-133">
                  <name>00352.MTS</name>
                  <pathurl>file://localhost/Volumes/Macintosh%20HD/Users/jacksongs/Desktop/STREAM/00352.MTS</pathurl>
                  <rate>
                    <timebase>24</timebase>
                    <ntsc>TRUE</ntsc>
                  </rate>
                  <duration>205</duration>
                  <timecode>
                    <rate>
                      <timebase>24</timebase>
                      <ntsc>TRUE</ntsc>
                    </rate>
                    <string>00:00:00:00</string>
                    <frame>0</frame>
                    <displayformat>NDF</displayformat>
                    <reel>
                      <name/>
                    </reel>
                  </timecode>
                  <media>
                    <video>
                      <duration>18000</duration>
                      <samplecharacteristics>
                        <rate>
                          <timebase>24</timebase>
                          <ntsc>TRUE</ntsc>
                        </rate>
                        <width>1920</width>
                        <height>1080</height>
                        <anamorphic>FALSE</anamorphic>
                        <pixelaspectratio>square</pixelaspectratio>
                        <fielddominance>none</fielddominance>
                      </samplecharacteristics>
                    </video>
                    <audio>
                      <samplecharacteristics>
                        <depth>16</depth>
                        <samplerate>48000</samplerate>
                      </samplecharacteristics>
                      <channelcount>2</channelcount>
                    </audio>
                  </media>
                </file>
                <link>
                  <linkclipref>clipitem-409</linkclipref>
                  <mediatype>video</mediatype>
                  <trackindex>1</trackindex>
                  <clipindex>1</clipindex>
                </link>
                <link>
                  <linkclipref>clipitem-410</linkclipref>
                  <mediatype>audio</mediatype>
                  <trackindex>1</trackindex>
                  <clipindex>1</clipindex>
                  <groupindex>1</groupindex>
                </link>
                <link>
                  <linkclipref>clipitem-411</linkclipref>
                  <mediatype>audio</mediatype>
                  <trackindex>2</trackindex>
                  <clipindex>1</clipindex>
                  <groupindex>1</groupindex>
                </link>
              </clipitem>
            </track>
          </video>
          <audio>
            <track>
              <clipitem id="clipitem-410" frameBlend="FALSE">
                <masterclipid>masterclip-133</masterclipid>
                <name>00352.MTS</name>
                <file id="file-133"/>
                <sourcetrack>
                  <mediatype>audio</mediatype>
                  <trackindex>1</trackindex>
                </sourcetrack>
                <link>
                  <linkclipref>clipitem-409</linkclipref>
                  <mediatype>video</mediatype>
                  <trackindex>1</trackindex>
                  <clipindex>1</clipindex>
                </link>
                <link>
                  <linkclipref>clipitem-410</linkclipref>
                  <mediatype>audio</mediatype>
                  <trackindex>1</trackindex>
                  <clipindex>1</clipindex>
                  <groupindex>1</groupindex>
                </link>
                <link>
                  <linkclipref>clipitem-411</linkclipref>
                  <mediatype>audio</mediatype>
                  <trackindex>2</trackindex>
                  <clipindex>1</clipindex>
                  <groupindex>1</groupindex>
                </link>
              </clipitem>
            </track>
            <track>
              <clipitem id="clipitem-411" frameBlend="FALSE">
                <masterclipid>masterclip-133</masterclipid>
                <name>00352.MTS</name>
                <file id="file-133"/>
                <sourcetrack>
                  <mediatype>audio</mediatype>
                  <trackindex>2</trackindex>
                </sourcetrack>
                <link>
                  <linkclipref>clipitem-409</linkclipref>
                  <mediatype>video</mediatype>
                  <trackindex>1</trackindex>
                  <clipindex>1</clipindex>
                </link>
                <link>
                  <linkclipref>clipitem-410</linkclipref>
                  <mediatype>audio</mediatype>
                  <trackindex>1</trackindex>
                  <clipindex>1</clipindex>
                  <groupindex>1</groupindex>
                </link>
                <link>
                  <linkclipref>clipitem-411</linkclipref>
                  <mediatype>audio</mediatype>
                  <trackindex>2</trackindex>
                  <clipindex>1</clipindex>
                  <groupindex>1</groupindex>
                </link>
              </clipitem>
            </track>
          </audio>
        </media>
        <logginginfo>
          <description/>
          <scene/>
          <shottake/>
          <lognote/>
        </logginginfo>
      </clip>
      <clip id="masterclip-134" frameBlend="FALSE">
        <uuid>3e31bd4a-cb92-4c3b-8f9f-74efeed85d80</uuid>
        <masterclipid>masterclip-134</masterclipid>
        <ismasterclip>TRUE</ismasterclip>
        <duration>133</duration>
        <rate>
          <timebase>24</timebase>
          <ntsc>TRUE</ntsc>
        </rate>
        <name>00353.MTS</name>
        <media>
          <video>
            <track>
              <clipitem id="clipitem-412" frameBlend="FALSE">
                <masterclipid>masterclip-134</masterclipid>
                <name>00353.MTS</name>
                <alphatype>black</alphatype>
                <pixelaspectratio>square</pixelaspectratio>
                <anamorphic>FALSE</anamorphic>
                <file id="file-134">
                  <name>00353.MTS</name>
                  <pathurl>file://localhost/Volumes/Macintosh%20HD/Users/jacksongs/Desktop/STREAM/00353.MTS</pathurl>
                  <rate>
                    <timebase>24</timebase>
                    <ntsc>TRUE</ntsc>
                  </rate>
                  <duration>133</duration>
                  <timecode>
                    <rate>
                      <timebase>24</timebase>
                      <ntsc>TRUE</ntsc>
                    </rate>
                    <string>00:00:00:00</string>
                    <frame>0</frame>
                    <displayformat>NDF</displayformat>
                    <reel>
                      <name/>
                    </reel>
                  </timecode>
                  <media>
                    <video>
                      <duration>18000</duration>
                      <samplecharacteristics>
                        <rate>
                          <timebase>24</timebase>
                          <ntsc>TRUE</ntsc>
                        </rate>
                        <width>1920</width>
                        <height>1080</height>
                        <anamorphic>FALSE</anamorphic>
                        <pixelaspectratio>square</pixelaspectratio>
                        <fielddominance>none</fielddominance>
                      </samplecharacteristics>
                    </video>
                    <audio>
                      <samplecharacteristics>
                        <depth>16</depth>
                        <samplerate>48000</samplerate>
                      </samplecharacteristics>
                      <channelcount>2</channelcount>
                    </audio>
                  </media>
                </file>
                <link>
                  <linkclipref>clipitem-412</linkclipref>
                  <mediatype>video</mediatype>
                  <trackindex>1</trackindex>
                  <clipindex>1</clipindex>
                </link>
                <link>
                  <linkclipref>clipitem-413</linkclipref>
                  <mediatype>audio</mediatype>
                  <trackindex>1</trackindex>
                  <clipindex>1</clipindex>
                  <groupindex>1</groupindex>
                </link>
                <link>
                  <linkclipref>clipitem-414</linkclipref>
                  <mediatype>audio</mediatype>
                  <trackindex>2</trackindex>
                  <clipindex>1</clipindex>
                  <groupindex>1</groupindex>
                </link>
              </clipitem>
            </track>
          </video>
          <audio>
            <track>
              <clipitem id="clipitem-413" frameBlend="FALSE">
                <masterclipid>masterclip-134</masterclipid>
                <name>00353.MTS</name>
                <file id="file-134"/>
                <sourcetrack>
                  <mediatype>audio</mediatype>
                  <trackindex>1</trackindex>
                </sourcetrack>
                <link>
                  <linkclipref>clipitem-412</linkclipref>
                  <mediatype>video</mediatype>
                  <trackindex>1</trackindex>
                  <clipindex>1</clipindex>
                </link>
                <link>
                  <linkclipref>clipitem-413</linkclipref>
                  <mediatype>audio</mediatype>
                  <trackindex>1</trackindex>
                  <clipindex>1</clipindex>
                  <groupindex>1</groupindex>
                </link>
                <link>
                  <linkclipref>clipitem-414</linkclipref>
                  <mediatype>audio</mediatype>
                  <trackindex>2</trackindex>
                  <clipindex>1</clipindex>
                  <groupindex>1</groupindex>
                </link>
              </clipitem>
            </track>
            <track>
              <clipitem id="clipitem-414" frameBlend="FALSE">
                <masterclipid>masterclip-134</masterclipid>
                <name>00353.MTS</name>
                <file id="file-134"/>
                <sourcetrack>
                  <mediatype>audio</mediatype>
                  <trackindex>2</trackindex>
                </sourcetrack>
                <link>
                  <linkclipref>clipitem-412</linkclipref>
                  <mediatype>video</mediatype>
                  <trackindex>1</trackindex>
                  <clipindex>1</clipindex>
                </link>
                <link>
                  <linkclipref>clipitem-413</linkclipref>
                  <mediatype>audio</mediatype>
                  <trackindex>1</trackindex>
                  <clipindex>1</clipindex>
                  <groupindex>1</groupindex>
                </link>
                <link>
                  <linkclipref>clipitem-414</linkclipref>
                  <mediatype>audio</mediatype>
                  <trackindex>2</trackindex>
                  <clipindex>1</clipindex>
                  <groupindex>1</groupindex>
                </link>
              </clipitem>
            </track>
          </audio>
        </media>
        <logginginfo>
          <description/>
          <scene/>
          <shottake/>
          <lognote/>
        </logginginfo>
      </clip>
      <clip id="masterclip-135" frameBlend="FALSE">
        <uuid>78f3a675-a240-424f-8e7b-c0bdef3d83d1</uuid>
        <masterclipid>masterclip-135</masterclipid>
        <ismasterclip>TRUE</ismasterclip>
        <duration>493</duration>
        <rate>
          <timebase>24</timebase>
          <ntsc>TRUE</ntsc>
        </rate>
        <name>00354.MTS</name>
        <media>
          <video>
            <track>
              <clipitem id="clipitem-415" frameBlend="FALSE">
                <masterclipid>masterclip-135</masterclipid>
                <name>00354.MTS</name>
                <alphatype>black</alphatype>
                <pixelaspectratio>square</pixelaspectratio>
                <anamorphic>FALSE</anamorphic>
                <file id="file-135">
                  <name>00354.MTS</name>
                  <pathurl>file://localhost/Volumes/Macintosh%20HD/Users/jacksongs/Desktop/STREAM/00354.MTS</pathurl>
                  <rate>
                    <timebase>24</timebase>
                    <ntsc>TRUE</ntsc>
                  </rate>
                  <duration>493</duration>
                  <timecode>
                    <rate>
                      <timebase>24</timebase>
                      <ntsc>TRUE</ntsc>
                    </rate>
                    <string>00:00:00:00</string>
                    <frame>0</frame>
                    <displayformat>NDF</displayformat>
                    <reel>
                      <name/>
                    </reel>
                  </timecode>
                  <media>
                    <video>
                      <duration>18000</duration>
                      <samplecharacteristics>
                        <rate>
                          <timebase>24</timebase>
                          <ntsc>TRUE</ntsc>
                        </rate>
                        <width>1920</width>
                        <height>1080</height>
                        <anamorphic>FALSE</anamorphic>
                        <pixelaspectratio>square</pixelaspectratio>
                        <fielddominance>none</fielddominance>
                      </samplecharacteristics>
                    </video>
                    <audio>
                      <samplecharacteristics>
                        <depth>16</depth>
                        <samplerate>48000</samplerate>
                      </samplecharacteristics>
                      <channelcount>2</channelcount>
                    </audio>
                  </media>
                </file>
                <link>
                  <linkclipref>clipitem-415</linkclipref>
                  <mediatype>video</mediatype>
                  <trackindex>1</trackindex>
                  <clipindex>1</clipindex>
                </link>
                <link>
                  <linkclipref>clipitem-416</linkclipref>
                  <mediatype>audio</mediatype>
                  <trackindex>1</trackindex>
                  <clipindex>1</clipindex>
                  <groupindex>1</groupindex>
                </link>
                <link>
                  <linkclipref>clipitem-417</linkclipref>
                  <mediatype>audio</mediatype>
                  <trackindex>2</trackindex>
                  <clipindex>1</clipindex>
                  <groupindex>1</groupindex>
                </link>
              </clipitem>
            </track>
          </video>
          <audio>
            <track>
              <clipitem id="clipitem-416" frameBlend="FALSE">
                <masterclipid>masterclip-135</masterclipid>
                <name>00354.MTS</name>
                <file id="file-135"/>
                <sourcetrack>
                  <mediatype>audio</mediatype>
                  <trackindex>1</trackindex>
                </sourcetrack>
                <link>
                  <linkclipref>clipitem-415</linkclipref>
                  <mediatype>video</mediatype>
                  <trackindex>1</trackindex>
                  <clipindex>1</clipindex>
                </link>
                <link>
                  <linkclipref>clipitem-416</linkclipref>
                  <mediatype>audio</mediatype>
                  <trackindex>1</trackindex>
                  <clipindex>1</clipindex>
                  <groupindex>1</groupindex>
                </link>
                <link>
                  <linkclipref>clipitem-417</linkclipref>
                  <mediatype>audio</mediatype>
                  <trackindex>2</trackindex>
                  <clipindex>1</clipindex>
                  <groupindex>1</groupindex>
                </link>
              </clipitem>
            </track>
            <track>
              <clipitem id="clipitem-417" frameBlend="FALSE">
                <masterclipid>masterclip-135</masterclipid>
                <name>00354.MTS</name>
                <file id="file-135"/>
                <sourcetrack>
                  <mediatype>audio</mediatype>
                  <trackindex>2</trackindex>
                </sourcetrack>
                <link>
                  <linkclipref>clipitem-415</linkclipref>
                  <mediatype>video</mediatype>
                  <trackindex>1</trackindex>
                  <clipindex>1</clipindex>
                </link>
                <link>
                  <linkclipref>clipitem-416</linkclipref>
                  <mediatype>audio</mediatype>
                  <trackindex>1</trackindex>
                  <clipindex>1</clipindex>
                  <groupindex>1</groupindex>
                </link>
                <link>
                  <linkclipref>clipitem-417</linkclipref>
                  <mediatype>audio</mediatype>
                  <trackindex>2</trackindex>
                  <clipindex>1</clipindex>
                  <groupindex>1</groupindex>
                </link>
              </clipitem>
            </track>
          </audio>
        </media>
        <logginginfo>
          <description/>
          <scene/>
          <shottake/>
          <lognote/>
        </logginginfo>
      </clip>
      <clip id="masterclip-136" frameBlend="FALSE">
        <uuid>a696e177-53dd-44d9-a318-954bb77f4f49</uuid>
        <masterclipid>masterclip-136</masterclipid>
        <ismasterclip>TRUE</ismasterclip>
        <duration>637</duration>
        <rate>
          <timebase>24</timebase>
          <ntsc>TRUE</ntsc>
        </rate>
        <name>00355.MTS</name>
        <media>
          <video>
            <track>
              <clipitem id="clipitem-418" frameBlend="FALSE">
                <masterclipid>masterclip-136</masterclipid>
                <name>00355.MTS</name>
                <alphatype>black</alphatype>
                <pixelaspectratio>square</pixelaspectratio>
                <anamorphic>FALSE</anamorphic>
                <file id="file-136">
                  <name>00355.MTS</name>
                  <pathurl>file://localhost/Volumes/Macintosh%20HD/Users/jacksongs/Desktop/STREAM/00355.MTS</pathurl>
                  <rate>
                    <timebase>24</timebase>
                    <ntsc>TRUE</ntsc>
                  </rate>
                  <duration>637</duration>
                  <timecode>
                    <rate>
                      <timebase>24</timebase>
                      <ntsc>TRUE</ntsc>
                    </rate>
                    <string>00:00:00:00</string>
                    <frame>0</frame>
                    <displayformat>NDF</displayformat>
                    <reel>
                      <name/>
                    </reel>
                  </timecode>
                  <media>
                    <video>
                      <duration>18000</duration>
                      <samplecharacteristics>
                        <rate>
                          <timebase>24</timebase>
                          <ntsc>TRUE</ntsc>
                        </rate>
                        <width>1920</width>
                        <height>1080</height>
                        <anamorphic>FALSE</anamorphic>
                        <pixelaspectratio>square</pixelaspectratio>
                        <fielddominance>none</fielddominance>
                      </samplecharacteristics>
                    </video>
                    <audio>
                      <samplecharacteristics>
                        <depth>16</depth>
                        <samplerate>48000</samplerate>
                      </samplecharacteristics>
                      <channelcount>2</channelcount>
                    </audio>
                  </media>
                </file>
                <link>
                  <linkclipref>clipitem-418</linkclipref>
                  <mediatype>video</mediatype>
                  <trackindex>1</trackindex>
                  <clipindex>1</clipindex>
                </link>
                <link>
                  <linkclipref>clipitem-419</linkclipref>
                  <mediatype>audio</mediatype>
                  <trackindex>1</trackindex>
                  <clipindex>1</clipindex>
                  <groupindex>1</groupindex>
                </link>
                <link>
                  <linkclipref>clipitem-420</linkclipref>
                  <mediatype>audio</mediatype>
                  <trackindex>2</trackindex>
                  <clipindex>1</clipindex>
                  <groupindex>1</groupindex>
                </link>
              </clipitem>
            </track>
          </video>
          <audio>
            <track>
              <clipitem id="clipitem-419" frameBlend="FALSE">
                <masterclipid>masterclip-136</masterclipid>
                <name>00355.MTS</name>
                <file id="file-136"/>
                <sourcetrack>
                  <mediatype>audio</mediatype>
                  <trackindex>1</trackindex>
                </sourcetrack>
                <link>
                  <linkclipref>clipitem-418</linkclipref>
                  <mediatype>video</mediatype>
                  <trackindex>1</trackindex>
                  <clipindex>1</clipindex>
                </link>
                <link>
                  <linkclipref>clipitem-419</linkclipref>
                  <mediatype>audio</mediatype>
                  <trackindex>1</trackindex>
                  <clipindex>1</clipindex>
                  <groupindex>1</groupindex>
                </link>
                <link>
                  <linkclipref>clipitem-420</linkclipref>
                  <mediatype>audio</mediatype>
                  <trackindex>2</trackindex>
                  <clipindex>1</clipindex>
                  <groupindex>1</groupindex>
                </link>
              </clipitem>
            </track>
            <track>
              <clipitem id="clipitem-420" frameBlend="FALSE">
                <masterclipid>masterclip-136</masterclipid>
                <name>00355.MTS</name>
                <file id="file-136"/>
                <sourcetrack>
                  <mediatype>audio</mediatype>
                  <trackindex>2</trackindex>
                </sourcetrack>
                <link>
                  <linkclipref>clipitem-418</linkclipref>
                  <mediatype>video</mediatype>
                  <trackindex>1</trackindex>
                  <clipindex>1</clipindex>
                </link>
                <link>
                  <linkclipref>clipitem-419</linkclipref>
                  <mediatype>audio</mediatype>
                  <trackindex>1</trackindex>
                  <clipindex>1</clipindex>
                  <groupindex>1</groupindex>
                </link>
                <link>
                  <linkclipref>clipitem-420</linkclipref>
                  <mediatype>audio</mediatype>
                  <trackindex>2</trackindex>
                  <clipindex>1</clipindex>
                  <groupindex>1</groupindex>
                </link>
              </clipitem>
            </track>
          </audio>
        </media>
        <logginginfo>
          <description/>
          <scene/>
          <shottake/>
          <lognote/>
        </logginginfo>
      </clip>
      <clip id="masterclip-137" frameBlend="FALSE">
        <uuid>fc6bec0e-fa7e-450e-8cd6-99e4bbdbe12c</uuid>
        <masterclipid>masterclip-137</masterclipid>
        <ismasterclip>TRUE</ismasterclip>
        <duration>409</duration>
        <rate>
          <timebase>24</timebase>
          <ntsc>TRUE</ntsc>
        </rate>
        <name>00356.MTS</name>
        <media>
          <video>
            <track>
              <clipitem id="clipitem-421" frameBlend="FALSE">
                <masterclipid>masterclip-137</masterclipid>
                <name>00356.MTS</name>
                <alphatype>black</alphatype>
                <pixelaspectratio>square</pixelaspectratio>
                <anamorphic>FALSE</anamorphic>
                <file id="file-137">
                  <name>00356.MTS</name>
                  <pathurl>file://localhost/Volumes/Macintosh%20HD/Users/jacksongs/Desktop/STREAM/00356.MTS</pathurl>
                  <rate>
                    <timebase>24</timebase>
                    <ntsc>TRUE</ntsc>
                  </rate>
                  <duration>409</duration>
                  <timecode>
                    <rate>
                      <timebase>24</timebase>
                      <ntsc>TRUE</ntsc>
                    </rate>
                    <string>00:00:00:00</string>
                    <frame>0</frame>
                    <displayformat>NDF</displayformat>
                    <reel>
                      <name/>
                    </reel>
                  </timecode>
                  <media>
                    <video>
                      <duration>18000</duration>
                      <samplecharacteristics>
                        <rate>
                          <timebase>24</timebase>
                          <ntsc>TRUE</ntsc>
                        </rate>
                        <width>1920</width>
                        <height>1080</height>
                        <anamorphic>FALSE</anamorphic>
                        <pixelaspectratio>square</pixelaspectratio>
                        <fielddominance>none</fielddominance>
                      </samplecharacteristics>
                    </video>
                    <audio>
                      <samplecharacteristics>
                        <depth>16</depth>
                        <samplerate>48000</samplerate>
                      </samplecharacteristics>
                      <channelcount>2</channelcount>
                    </audio>
                  </media>
                </file>
                <link>
                  <linkclipref>clipitem-421</linkclipref>
                  <mediatype>video</mediatype>
                  <trackindex>1</trackindex>
                  <clipindex>1</clipindex>
                </link>
                <link>
                  <linkclipref>clipitem-422</linkclipref>
                  <mediatype>audio</mediatype>
                  <trackindex>1</trackindex>
                  <clipindex>1</clipindex>
                  <groupindex>1</groupindex>
                </link>
                <link>
                  <linkclipref>clipitem-423</linkclipref>
                  <mediatype>audio</mediatype>
                  <trackindex>2</trackindex>
                  <clipindex>1</clipindex>
                  <groupindex>1</groupindex>
                </link>
              </clipitem>
            </track>
          </video>
          <audio>
            <track>
              <clipitem id="clipitem-422" frameBlend="FALSE">
                <masterclipid>masterclip-137</masterclipid>
                <name>00356.MTS</name>
                <file id="file-137"/>
                <sourcetrack>
                  <mediatype>audio</mediatype>
                  <trackindex>1</trackindex>
                </sourcetrack>
                <link>
                  <linkclipref>clipitem-421</linkclipref>
                  <mediatype>video</mediatype>
                  <trackindex>1</trackindex>
                  <clipindex>1</clipindex>
                </link>
                <link>
                  <linkclipref>clipitem-422</linkclipref>
                  <mediatype>audio</mediatype>
                  <trackindex>1</trackindex>
                  <clipindex>1</clipindex>
                  <groupindex>1</groupindex>
                </link>
                <link>
                  <linkclipref>clipitem-423</linkclipref>
                  <mediatype>audio</mediatype>
                  <trackindex>2</trackindex>
                  <clipindex>1</clipindex>
                  <groupindex>1</groupindex>
                </link>
              </clipitem>
            </track>
            <track>
              <clipitem id="clipitem-423" frameBlend="FALSE">
                <masterclipid>masterclip-137</masterclipid>
                <name>00356.MTS</name>
                <file id="file-137"/>
                <sourcetrack>
                  <mediatype>audio</mediatype>
                  <trackindex>2</trackindex>
                </sourcetrack>
                <link>
                  <linkclipref>clipitem-421</linkclipref>
                  <mediatype>video</mediatype>
                  <trackindex>1</trackindex>
                  <clipindex>1</clipindex>
                </link>
                <link>
                  <linkclipref>clipitem-422</linkclipref>
                  <mediatype>audio</mediatype>
                  <trackindex>1</trackindex>
                  <clipindex>1</clipindex>
                  <groupindex>1</groupindex>
                </link>
                <link>
                  <linkclipref>clipitem-423</linkclipref>
                  <mediatype>audio</mediatype>
                  <trackindex>2</trackindex>
                  <clipindex>1</clipindex>
                  <groupindex>1</groupindex>
                </link>
              </clipitem>
            </track>
          </audio>
        </media>
        <logginginfo>
          <description/>
          <scene/>
          <shottake/>
          <lognote/>
        </logginginfo>
      </clip>
      <clip id="masterclip-138" frameBlend="FALSE">
        <uuid>6299c699-3aae-4539-8209-901740cca35b</uuid>
        <masterclipid>masterclip-138</masterclipid>
        <ismasterclip>TRUE</ismasterclip>
        <duration>217</duration>
        <rate>
          <timebase>24</timebase>
          <ntsc>TRUE</ntsc>
        </rate>
        <name>00357.MTS</name>
        <media>
          <video>
            <track>
              <clipitem id="clipitem-424" frameBlend="FALSE">
                <masterclipid>masterclip-138</masterclipid>
                <name>00357.MTS</name>
                <alphatype>black</alphatype>
                <pixelaspectratio>square</pixelaspectratio>
                <anamorphic>FALSE</anamorphic>
                <file id="file-138">
                  <name>00357.MTS</name>
                  <pathurl>file://localhost/Volumes/Macintosh%20HD/Users/jacksongs/Desktop/STREAM/00357.MTS</pathurl>
                  <rate>
                    <timebase>24</timebase>
                    <ntsc>TRUE</ntsc>
                  </rate>
                  <duration>217</duration>
                  <timecode>
                    <rate>
                      <timebase>24</timebase>
                      <ntsc>TRUE</ntsc>
                    </rate>
                    <string>00:00:00:00</string>
                    <frame>0</frame>
                    <displayformat>NDF</displayformat>
                    <reel>
                      <name/>
                    </reel>
                  </timecode>
                  <media>
                    <video>
                      <duration>18000</duration>
                      <samplecharacteristics>
                        <rate>
                          <timebase>24</timebase>
                          <ntsc>TRUE</ntsc>
                        </rate>
                        <width>1920</width>
                        <height>1080</height>
                        <anamorphic>FALSE</anamorphic>
                        <pixelaspectratio>square</pixelaspectratio>
                        <fielddominance>none</fielddominance>
                      </samplecharacteristics>
                    </video>
                    <audio>
                      <samplecharacteristics>
                        <depth>16</depth>
                        <samplerate>48000</samplerate>
                      </samplecharacteristics>
                      <channelcount>2</channelcount>
                    </audio>
                  </media>
                </file>
                <link>
                  <linkclipref>clipitem-424</linkclipref>
                  <mediatype>video</mediatype>
                  <trackindex>1</trackindex>
                  <clipindex>1</clipindex>
                </link>
                <link>
                  <linkclipref>clipitem-425</linkclipref>
                  <mediatype>audio</mediatype>
                  <trackindex>1</trackindex>
                  <clipindex>1</clipindex>
                  <groupindex>1</groupindex>
                </link>
                <link>
                  <linkclipref>clipitem-426</linkclipref>
                  <mediatype>audio</mediatype>
                  <trackindex>2</trackindex>
                  <clipindex>1</clipindex>
                  <groupindex>1</groupindex>
                </link>
              </clipitem>
            </track>
          </video>
          <audio>
            <track>
              <clipitem id="clipitem-425" frameBlend="FALSE">
                <masterclipid>masterclip-138</masterclipid>
                <name>00357.MTS</name>
                <file id="file-138"/>
                <sourcetrack>
                  <mediatype>audio</mediatype>
                  <trackindex>1</trackindex>
                </sourcetrack>
                <link>
                  <linkclipref>clipitem-424</linkclipref>
                  <mediatype>video</mediatype>
                  <trackindex>1</trackindex>
                  <clipindex>1</clipindex>
                </link>
                <link>
                  <linkclipref>clipitem-425</linkclipref>
                  <mediatype>audio</mediatype>
                  <trackindex>1</trackindex>
                  <clipindex>1</clipindex>
                  <groupindex>1</groupindex>
                </link>
                <link>
                  <linkclipref>clipitem-426</linkclipref>
                  <mediatype>audio</mediatype>
                  <trackindex>2</trackindex>
                  <clipindex>1</clipindex>
                  <groupindex>1</groupindex>
                </link>
              </clipitem>
            </track>
            <track>
              <clipitem id="clipitem-426" frameBlend="FALSE">
                <masterclipid>masterclip-138</masterclipid>
                <name>00357.MTS</name>
                <file id="file-138"/>
                <sourcetrack>
                  <mediatype>audio</mediatype>
                  <trackindex>2</trackindex>
                </sourcetrack>
                <link>
                  <linkclipref>clipitem-424</linkclipref>
                  <mediatype>video</mediatype>
                  <trackindex>1</trackindex>
                  <clipindex>1</clipindex>
                </link>
                <link>
                  <linkclipref>clipitem-425</linkclipref>
                  <mediatype>audio</mediatype>
                  <trackindex>1</trackindex>
                  <clipindex>1</clipindex>
                  <groupindex>1</groupindex>
                </link>
                <link>
                  <linkclipref>clipitem-426</linkclipref>
                  <mediatype>audio</mediatype>
                  <trackindex>2</trackindex>
                  <clipindex>1</clipindex>
                  <groupindex>1</groupindex>
                </link>
              </clipitem>
            </track>
          </audio>
        </media>
        <logginginfo>
          <description/>
          <scene/>
          <shottake/>
          <lognote/>
        </logginginfo>
      </clip>
      <clip id="masterclip-139" frameBlend="FALSE">
        <uuid>e74fe150-0fe3-4a8c-b6fd-be070e44fff2</uuid>
        <masterclipid>masterclip-139</masterclipid>
        <ismasterclip>TRUE</ismasterclip>
        <duration>229</duration>
        <rate>
          <timebase>24</timebase>
          <ntsc>TRUE</ntsc>
        </rate>
        <name>00358.MTS</name>
        <media>
          <video>
            <track>
              <clipitem id="clipitem-427" frameBlend="FALSE">
                <masterclipid>masterclip-139</masterclipid>
                <name>00358.MTS</name>
                <alphatype>black</alphatype>
                <pixelaspectratio>square</pixelaspectratio>
                <anamorphic>FALSE</anamorphic>
                <file id="file-139">
                  <name>00358.MTS</name>
                  <pathurl>file://localhost/Volumes/Macintosh%20HD/Users/jacksongs/Desktop/STREAM/00358.MTS</pathurl>
                  <rate>
                    <timebase>24</timebase>
                    <ntsc>TRUE</ntsc>
                  </rate>
                  <duration>229</duration>
                  <timecode>
                    <rate>
                      <timebase>24</timebase>
                      <ntsc>TRUE</ntsc>
                    </rate>
                    <string>00:00:00:00</string>
                    <frame>0</frame>
                    <displayformat>NDF</displayformat>
                    <reel>
                      <name/>
                    </reel>
                  </timecode>
                  <media>
                    <video>
                      <duration>18000</duration>
                      <samplecharacteristics>
                        <rate>
                          <timebase>24</timebase>
                          <ntsc>TRUE</ntsc>
                        </rate>
                        <width>1920</width>
                        <height>1080</height>
                        <anamorphic>FALSE</anamorphic>
                        <pixelaspectratio>square</pixelaspectratio>
                        <fielddominance>none</fielddominance>
                      </samplecharacteristics>
                    </video>
                    <audio>
                      <samplecharacteristics>
                        <depth>16</depth>
                        <samplerate>48000</samplerate>
                      </samplecharacteristics>
                      <channelcount>2</channelcount>
                    </audio>
                  </media>
                </file>
                <link>
                  <linkclipref>clipitem-427</linkclipref>
                  <mediatype>video</mediatype>
                  <trackindex>1</trackindex>
                  <clipindex>1</clipindex>
                </link>
                <link>
                  <linkclipref>clipitem-428</linkclipref>
                  <mediatype>audio</mediatype>
                  <trackindex>1</trackindex>
                  <clipindex>1</clipindex>
                  <groupindex>1</groupindex>
                </link>
                <link>
                  <linkclipref>clipitem-429</linkclipref>
                  <mediatype>audio</mediatype>
                  <trackindex>2</trackindex>
                  <clipindex>1</clipindex>
                  <groupindex>1</groupindex>
                </link>
              </clipitem>
            </track>
          </video>
          <audio>
            <track>
              <clipitem id="clipitem-428" frameBlend="FALSE">
                <masterclipid>masterclip-139</masterclipid>
                <name>00358.MTS</name>
                <file id="file-139"/>
                <sourcetrack>
                  <mediatype>audio</mediatype>
                  <trackindex>1</trackindex>
                </sourcetrack>
                <link>
                  <linkclipref>clipitem-427</linkclipref>
                  <mediatype>video</mediatype>
                  <trackindex>1</trackindex>
                  <clipindex>1</clipindex>
                </link>
                <link>
                  <linkclipref>clipitem-428</linkclipref>
                  <mediatype>audio</mediatype>
                  <trackindex>1</trackindex>
                  <clipindex>1</clipindex>
                  <groupindex>1</groupindex>
                </link>
                <link>
                  <linkclipref>clipitem-429</linkclipref>
                  <mediatype>audio</mediatype>
                  <trackindex>2</trackindex>
                  <clipindex>1</clipindex>
                  <groupindex>1</groupindex>
                </link>
              </clipitem>
            </track>
            <track>
              <clipitem id="clipitem-429" frameBlend="FALSE">
                <masterclipid>masterclip-139</masterclipid>
                <name>00358.MTS</name>
                <file id="file-139"/>
                <sourcetrack>
                  <mediatype>audio</mediatype>
                  <trackindex>2</trackindex>
                </sourcetrack>
                <link>
                  <linkclipref>clipitem-427</linkclipref>
                  <mediatype>video</mediatype>
                  <trackindex>1</trackindex>
                  <clipindex>1</clipindex>
                </link>
                <link>
                  <linkclipref>clipitem-428</linkclipref>
                  <mediatype>audio</mediatype>
                  <trackindex>1</trackindex>
                  <clipindex>1</clipindex>
                  <groupindex>1</groupindex>
                </link>
                <link>
                  <linkclipref>clipitem-429</linkclipref>
                  <mediatype>audio</mediatype>
                  <trackindex>2</trackindex>
                  <clipindex>1</clipindex>
                  <groupindex>1</groupindex>
                </link>
              </clipitem>
            </track>
          </audio>
        </media>
        <logginginfo>
          <description/>
          <scene/>
          <shottake/>
          <lognote/>
        </logginginfo>
      </clip>
      <clip id="masterclip-140" frameBlend="FALSE">
        <uuid>c7d34351-edc7-44d0-9baa-4cff842d6e2a</uuid>
        <masterclipid>masterclip-140</masterclipid>
        <ismasterclip>TRUE</ismasterclip>
        <duration>193</duration>
        <rate>
          <timebase>24</timebase>
          <ntsc>TRUE</ntsc>
        </rate>
        <name>00359.MTS</name>
        <media>
          <video>
            <track>
              <clipitem id="clipitem-430" frameBlend="FALSE">
                <masterclipid>masterclip-140</masterclipid>
                <name>00359.MTS</name>
                <alphatype>black</alphatype>
                <pixelaspectratio>square</pixelaspectratio>
                <anamorphic>FALSE</anamorphic>
                <file id="file-140">
                  <name>00359.MTS</name>
                  <pathurl>file://localhost/Volumes/Macintosh%20HD/Users/jacksongs/Desktop/STREAM/00359.MTS</pathurl>
                  <rate>
                    <timebase>24</timebase>
                    <ntsc>TRUE</ntsc>
                  </rate>
                  <duration>193</duration>
                  <timecode>
                    <rate>
                      <timebase>24</timebase>
                      <ntsc>TRUE</ntsc>
                    </rate>
                    <string>00:00:00:00</string>
                    <frame>0</frame>
                    <displayformat>NDF</displayformat>
                    <reel>
                      <name/>
                    </reel>
                  </timecode>
                  <media>
                    <video>
                      <duration>18000</duration>
                      <samplecharacteristics>
                        <rate>
                          <timebase>24</timebase>
                          <ntsc>TRUE</ntsc>
                        </rate>
                        <width>1920</width>
                        <height>1080</height>
                        <anamorphic>FALSE</anamorphic>
                        <pixelaspectratio>square</pixelaspectratio>
                        <fielddominance>none</fielddominance>
                      </samplecharacteristics>
                    </video>
                    <audio>
                      <samplecharacteristics>
                        <depth>16</depth>
                        <samplerate>48000</samplerate>
                      </samplecharacteristics>
                      <channelcount>2</channelcount>
                    </audio>
                  </media>
                </file>
                <link>
                  <linkclipref>clipitem-430</linkclipref>
                  <mediatype>video</mediatype>
                  <trackindex>1</trackindex>
                  <clipindex>1</clipindex>
                </link>
                <link>
                  <linkclipref>clipitem-431</linkclipref>
                  <mediatype>audio</mediatype>
                  <trackindex>1</trackindex>
                  <clipindex>1</clipindex>
                  <groupindex>1</groupindex>
                </link>
                <link>
                  <linkclipref>clipitem-432</linkclipref>
                  <mediatype>audio</mediatype>
                  <trackindex>2</trackindex>
                  <clipindex>1</clipindex>
                  <groupindex>1</groupindex>
                </link>
              </clipitem>
            </track>
          </video>
          <audio>
            <track>
              <clipitem id="clipitem-431" frameBlend="FALSE">
                <masterclipid>masterclip-140</masterclipid>
                <name>00359.MTS</name>
                <file id="file-140"/>
                <sourcetrack>
                  <mediatype>audio</mediatype>
                  <trackindex>1</trackindex>
                </sourcetrack>
                <link>
                  <linkclipref>clipitem-430</linkclipref>
                  <mediatype>video</mediatype>
                  <trackindex>1</trackindex>
                  <clipindex>1</clipindex>
                </link>
                <link>
                  <linkclipref>clipitem-431</linkclipref>
                  <mediatype>audio</mediatype>
                  <trackindex>1</trackindex>
                  <clipindex>1</clipindex>
                  <groupindex>1</groupindex>
                </link>
                <link>
                  <linkclipref>clipitem-432</linkclipref>
                  <mediatype>audio</mediatype>
                  <trackindex>2</trackindex>
                  <clipindex>1</clipindex>
                  <groupindex>1</groupindex>
                </link>
              </clipitem>
            </track>
            <track>
              <clipitem id="clipitem-432" frameBlend="FALSE">
                <masterclipid>masterclip-140</masterclipid>
                <name>00359.MTS</name>
                <file id="file-140"/>
                <sourcetrack>
                  <mediatype>audio</mediatype>
                  <trackindex>2</trackindex>
                </sourcetrack>
                <link>
                  <linkclipref>clipitem-430</linkclipref>
                  <mediatype>video</mediatype>
                  <trackindex>1</trackindex>
                  <clipindex>1</clipindex>
                </link>
                <link>
                  <linkclipref>clipitem-431</linkclipref>
                  <mediatype>audio</mediatype>
                  <trackindex>1</trackindex>
                  <clipindex>1</clipindex>
                  <groupindex>1</groupindex>
                </link>
                <link>
                  <linkclipref>clipitem-432</linkclipref>
                  <mediatype>audio</mediatype>
                  <trackindex>2</trackindex>
                  <clipindex>1</clipindex>
                  <groupindex>1</groupindex>
                </link>
              </clipitem>
            </track>
          </audio>
        </media>
        <logginginfo>
          <description/>
          <scene/>
          <shottake/>
          <lognote/>
        </logginginfo>
      </clip>
      <clip id="masterclip-141" frameBlend="FALSE">
        <uuid>7db44ef8-bbfa-4139-81d5-b322899bb6c0</uuid>
        <masterclipid>masterclip-141</masterclipid>
        <ismasterclip>TRUE</ismasterclip>
        <duration>133</duration>
        <rate>
          <timebase>24</timebase>
          <ntsc>TRUE</ntsc>
        </rate>
        <name>00360.MTS</name>
        <media>
          <video>
            <track>
              <clipitem id="clipitem-433" frameBlend="FALSE">
                <masterclipid>masterclip-141</masterclipid>
                <name>00360.MTS</name>
                <alphatype>black</alphatype>
                <pixelaspectratio>square</pixelaspectratio>
                <anamorphic>FALSE</anamorphic>
                <file id="file-141">
                  <name>00360.MTS</name>
                  <pathurl>file://localhost/Volumes/Macintosh%20HD/Users/jacksongs/Desktop/STREAM/00360.MTS</pathurl>
                  <rate>
                    <timebase>24</timebase>
                    <ntsc>TRUE</ntsc>
                  </rate>
                  <duration>133</duration>
                  <timecode>
                    <rate>
                      <timebase>24</timebase>
                      <ntsc>TRUE</ntsc>
                    </rate>
                    <string>00:00:00:00</string>
                    <frame>0</frame>
                    <displayformat>NDF</displayformat>
                    <reel>
                      <name/>
                    </reel>
                  </timecode>
                  <media>
                    <video>
                      <duration>18000</duration>
                      <samplecharacteristics>
                        <rate>
                          <timebase>24</timebase>
                          <ntsc>TRUE</ntsc>
                        </rate>
                        <width>1920</width>
                        <height>1080</height>
                        <anamorphic>FALSE</anamorphic>
                        <pixelaspectratio>square</pixelaspectratio>
                        <fielddominance>none</fielddominance>
                      </samplecharacteristics>
                    </video>
                    <audio>
                      <samplecharacteristics>
                        <depth>16</depth>
                        <samplerate>48000</samplerate>
                      </samplecharacteristics>
                      <channelcount>2</channelcount>
                    </audio>
                  </media>
                </file>
                <link>
                  <linkclipref>clipitem-433</linkclipref>
                  <mediatype>video</mediatype>
                  <trackindex>1</trackindex>
                  <clipindex>1</clipindex>
                </link>
                <link>
                  <linkclipref>clipitem-434</linkclipref>
                  <mediatype>audio</mediatype>
                  <trackindex>1</trackindex>
                  <clipindex>1</clipindex>
                  <groupindex>1</groupindex>
                </link>
                <link>
                  <linkclipref>clipitem-435</linkclipref>
                  <mediatype>audio</mediatype>
                  <trackindex>2</trackindex>
                  <clipindex>1</clipindex>
                  <groupindex>1</groupindex>
                </link>
              </clipitem>
            </track>
          </video>
          <audio>
            <track>
              <clipitem id="clipitem-434" frameBlend="FALSE">
                <masterclipid>masterclip-141</masterclipid>
                <name>00360.MTS</name>
                <file id="file-141"/>
                <sourcetrack>
                  <mediatype>audio</mediatype>
                  <trackindex>1</trackindex>
                </sourcetrack>
                <link>
                  <linkclipref>clipitem-433</linkclipref>
                  <mediatype>video</mediatype>
                  <trackindex>1</trackindex>
                  <clipindex>1</clipindex>
                </link>
                <link>
                  <linkclipref>clipitem-434</linkclipref>
                  <mediatype>audio</mediatype>
                  <trackindex>1</trackindex>
                  <clipindex>1</clipindex>
                  <groupindex>1</groupindex>
                </link>
                <link>
                  <linkclipref>clipitem-435</linkclipref>
                  <mediatype>audio</mediatype>
                  <trackindex>2</trackindex>
                  <clipindex>1</clipindex>
                  <groupindex>1</groupindex>
                </link>
              </clipitem>
            </track>
            <track>
              <clipitem id="clipitem-435" frameBlend="FALSE">
                <masterclipid>masterclip-141</masterclipid>
                <name>00360.MTS</name>
                <file id="file-141"/>
                <sourcetrack>
                  <mediatype>audio</mediatype>
                  <trackindex>2</trackindex>
                </sourcetrack>
                <link>
                  <linkclipref>clipitem-433</linkclipref>
                  <mediatype>video</mediatype>
                  <trackindex>1</trackindex>
                  <clipindex>1</clipindex>
                </link>
                <link>
                  <linkclipref>clipitem-434</linkclipref>
                  <mediatype>audio</mediatype>
                  <trackindex>1</trackindex>
                  <clipindex>1</clipindex>
                  <groupindex>1</groupindex>
                </link>
                <link>
                  <linkclipref>clipitem-435</linkclipref>
                  <mediatype>audio</mediatype>
                  <trackindex>2</trackindex>
                  <clipindex>1</clipindex>
                  <groupindex>1</groupindex>
                </link>
              </clipitem>
            </track>
          </audio>
        </media>
        <logginginfo>
          <description/>
          <scene/>
          <shottake/>
          <lognote/>
        </logginginfo>
      </clip>
      <clip id="masterclip-142" frameBlend="FALSE">
        <uuid>8d96d456-0af3-4b40-93f8-8d34a730d3af</uuid>
        <masterclipid>masterclip-142</masterclipid>
        <ismasterclip>TRUE</ismasterclip>
        <duration>241</duration>
        <rate>
          <timebase>24</timebase>
          <ntsc>TRUE</ntsc>
        </rate>
        <name>00361.MTS</name>
        <media>
          <video>
            <track>
              <clipitem id="clipitem-436" frameBlend="FALSE">
                <masterclipid>masterclip-142</masterclipid>
                <name>00361.MTS</name>
                <alphatype>black</alphatype>
                <pixelaspectratio>square</pixelaspectratio>
                <anamorphic>FALSE</anamorphic>
                <file id="file-142">
                  <name>00361.MTS</name>
                  <pathurl>file://localhost/Volumes/Macintosh%20HD/Users/jacksongs/Desktop/STREAM/00361.MTS</pathurl>
                  <rate>
                    <timebase>24</timebase>
                    <ntsc>TRUE</ntsc>
                  </rate>
                  <duration>241</duration>
                  <timecode>
                    <rate>
                      <timebase>24</timebase>
                      <ntsc>TRUE</ntsc>
                    </rate>
                    <string>00:00:00:00</string>
                    <frame>0</frame>
                    <displayformat>NDF</displayformat>
                    <reel>
                      <name/>
                    </reel>
                  </timecode>
                  <media>
                    <video>
                      <duration>18000</duration>
                      <samplecharacteristics>
                        <rate>
                          <timebase>24</timebase>
                          <ntsc>TRUE</ntsc>
                        </rate>
                        <width>1920</width>
                        <height>1080</height>
                        <anamorphic>FALSE</anamorphic>
                        <pixelaspectratio>square</pixelaspectratio>
                        <fielddominance>none</fielddominance>
                      </samplecharacteristics>
                    </video>
                    <audio>
                      <samplecharacteristics>
                        <depth>16</depth>
                        <samplerate>48000</samplerate>
                      </samplecharacteristics>
                      <channelcount>2</channelcount>
                    </audio>
                  </media>
                </file>
                <link>
                  <linkclipref>clipitem-436</linkclipref>
                  <mediatype>video</mediatype>
                  <trackindex>1</trackindex>
                  <clipindex>1</clipindex>
                </link>
                <link>
                  <linkclipref>clipitem-437</linkclipref>
                  <mediatype>audio</mediatype>
                  <trackindex>1</trackindex>
                  <clipindex>1</clipindex>
                  <groupindex>1</groupindex>
                </link>
                <link>
                  <linkclipref>clipitem-438</linkclipref>
                  <mediatype>audio</mediatype>
                  <trackindex>2</trackindex>
                  <clipindex>1</clipindex>
                  <groupindex>1</groupindex>
                </link>
              </clipitem>
            </track>
          </video>
          <audio>
            <track>
              <clipitem id="clipitem-437" frameBlend="FALSE">
                <masterclipid>masterclip-142</masterclipid>
                <name>00361.MTS</name>
                <file id="file-142"/>
                <sourcetrack>
                  <mediatype>audio</mediatype>
                  <trackindex>1</trackindex>
                </sourcetrack>
                <link>
                  <linkclipref>clipitem-436</linkclipref>
                  <mediatype>video</mediatype>
                  <trackindex>1</trackindex>
                  <clipindex>1</clipindex>
                </link>
                <link>
                  <linkclipref>clipitem-437</linkclipref>
                  <mediatype>audio</mediatype>
                  <trackindex>1</trackindex>
                  <clipindex>1</clipindex>
                  <groupindex>1</groupindex>
                </link>
                <link>
                  <linkclipref>clipitem-438</linkclipref>
                  <mediatype>audio</mediatype>
                  <trackindex>2</trackindex>
                  <clipindex>1</clipindex>
                  <groupindex>1</groupindex>
                </link>
              </clipitem>
            </track>
            <track>
              <clipitem id="clipitem-438" frameBlend="FALSE">
                <masterclipid>masterclip-142</masterclipid>
                <name>00361.MTS</name>
                <file id="file-142"/>
                <sourcetrack>
                  <mediatype>audio</mediatype>
                  <trackindex>2</trackindex>
                </sourcetrack>
                <link>
                  <linkclipref>clipitem-436</linkclipref>
                  <mediatype>video</mediatype>
                  <trackindex>1</trackindex>
                  <clipindex>1</clipindex>
                </link>
                <link>
                  <linkclipref>clipitem-437</linkclipref>
                  <mediatype>audio</mediatype>
                  <trackindex>1</trackindex>
                  <clipindex>1</clipindex>
                  <groupindex>1</groupindex>
                </link>
                <link>
                  <linkclipref>clipitem-438</linkclipref>
                  <mediatype>audio</mediatype>
                  <trackindex>2</trackindex>
                  <clipindex>1</clipindex>
                  <groupindex>1</groupindex>
                </link>
              </clipitem>
            </track>
          </audio>
        </media>
        <logginginfo>
          <description/>
          <scene/>
          <shottake/>
          <lognote/>
        </logginginfo>
      </clip>
      <clip id="masterclip-143" frameBlend="FALSE">
        <uuid>b69a0bea-6b98-484f-a5c2-38cbae4c5739</uuid>
        <masterclipid>masterclip-143</masterclipid>
        <ismasterclip>TRUE</ismasterclip>
        <duration>205</duration>
        <rate>
          <timebase>24</timebase>
          <ntsc>TRUE</ntsc>
        </rate>
        <name>00362.MTS</name>
        <media>
          <video>
            <track>
              <clipitem id="clipitem-439" frameBlend="FALSE">
                <masterclipid>masterclip-143</masterclipid>
                <name>00362.MTS</name>
                <alphatype>black</alphatype>
                <pixelaspectratio>square</pixelaspectratio>
                <anamorphic>FALSE</anamorphic>
                <file id="file-143">
                  <name>00362.MTS</name>
                  <pathurl>file://localhost/Volumes/Macintosh%20HD/Users/jacksongs/Desktop/STREAM/00362.MTS</pathurl>
                  <rate>
                    <timebase>24</timebase>
                    <ntsc>TRUE</ntsc>
                  </rate>
                  <duration>205</duration>
                  <timecode>
                    <rate>
                      <timebase>24</timebase>
                      <ntsc>TRUE</ntsc>
                    </rate>
                    <string>00:00:00:00</string>
                    <frame>0</frame>
                    <displayformat>NDF</displayformat>
                    <reel>
                      <name/>
                    </reel>
                  </timecode>
                  <media>
                    <video>
                      <duration>18000</duration>
                      <samplecharacteristics>
                        <rate>
                          <timebase>24</timebase>
                          <ntsc>TRUE</ntsc>
                        </rate>
                        <width>1920</width>
                        <height>1080</height>
                        <anamorphic>FALSE</anamorphic>
                        <pixelaspectratio>square</pixelaspectratio>
                        <fielddominance>none</fielddominance>
                      </samplecharacteristics>
                    </video>
                    <audio>
                      <samplecharacteristics>
                        <depth>16</depth>
                        <samplerate>48000</samplerate>
                      </samplecharacteristics>
                      <channelcount>2</channelcount>
                    </audio>
                  </media>
                </file>
                <link>
                  <linkclipref>clipitem-439</linkclipref>
                  <mediatype>video</mediatype>
                  <trackindex>1</trackindex>
                  <clipindex>1</clipindex>
                </link>
                <link>
                  <linkclipref>clipitem-440</linkclipref>
                  <mediatype>audio</mediatype>
                  <trackindex>1</trackindex>
                  <clipindex>1</clipindex>
                  <groupindex>1</groupindex>
                </link>
                <link>
                  <linkclipref>clipitem-441</linkclipref>
                  <mediatype>audio</mediatype>
                  <trackindex>2</trackindex>
                  <clipindex>1</clipindex>
                  <groupindex>1</groupindex>
                </link>
              </clipitem>
            </track>
          </video>
          <audio>
            <track>
              <clipitem id="clipitem-440" frameBlend="FALSE">
                <masterclipid>masterclip-143</masterclipid>
                <name>00362.MTS</name>
                <file id="file-143"/>
                <sourcetrack>
                  <mediatype>audio</mediatype>
                  <trackindex>1</trackindex>
                </sourcetrack>
                <link>
                  <linkclipref>clipitem-439</linkclipref>
                  <mediatype>video</mediatype>
                  <trackindex>1</trackindex>
                  <clipindex>1</clipindex>
                </link>
                <link>
                  <linkclipref>clipitem-440</linkclipref>
                  <mediatype>audio</mediatype>
                  <trackindex>1</trackindex>
                  <clipindex>1</clipindex>
                  <groupindex>1</groupindex>
                </link>
                <link>
                  <linkclipref>clipitem-441</linkclipref>
                  <mediatype>audio</mediatype>
                  <trackindex>2</trackindex>
                  <clipindex>1</clipindex>
                  <groupindex>1</groupindex>
                </link>
              </clipitem>
            </track>
            <track>
              <clipitem id="clipitem-441" frameBlend="FALSE">
                <masterclipid>masterclip-143</masterclipid>
                <name>00362.MTS</name>
                <file id="file-143"/>
                <sourcetrack>
                  <mediatype>audio</mediatype>
                  <trackindex>2</trackindex>
                </sourcetrack>
                <link>
                  <linkclipref>clipitem-439</linkclipref>
                  <mediatype>video</mediatype>
                  <trackindex>1</trackindex>
                  <clipindex>1</clipindex>
                </link>
                <link>
                  <linkclipref>clipitem-440</linkclipref>
                  <mediatype>audio</mediatype>
                  <trackindex>1</trackindex>
                  <clipindex>1</clipindex>
                  <groupindex>1</groupindex>
                </link>
                <link>
                  <linkclipref>clipitem-441</linkclipref>
                  <mediatype>audio</mediatype>
                  <trackindex>2</trackindex>
                  <clipindex>1</clipindex>
                  <groupindex>1</groupindex>
                </link>
              </clipitem>
            </track>
          </audio>
        </media>
        <logginginfo>
          <description/>
          <scene/>
          <shottake/>
          <lognote/>
        </logginginfo>
      </clip>
      <clip id="masterclip-144" frameBlend="FALSE">
        <uuid>d297d54c-f6ec-4e87-949d-b396a90fdb0f</uuid>
        <masterclipid>masterclip-144</masterclipid>
        <ismasterclip>TRUE</ismasterclip>
        <duration>157</duration>
        <rate>
          <timebase>24</timebase>
          <ntsc>TRUE</ntsc>
        </rate>
        <name>00363.MTS</name>
        <media>
          <video>
            <track>
              <clipitem id="clipitem-442" frameBlend="FALSE">
                <masterclipid>masterclip-144</masterclipid>
                <name>00363.MTS</name>
                <alphatype>black</alphatype>
                <pixelaspectratio>square</pixelaspectratio>
                <anamorphic>FALSE</anamorphic>
                <file id="file-144">
                  <name>00363.MTS</name>
                  <pathurl>file://localhost/Volumes/Macintosh%20HD/Users/jacksongs/Desktop/STREAM/00363.MTS</pathurl>
                  <rate>
                    <timebase>24</timebase>
                    <ntsc>TRUE</ntsc>
                  </rate>
                  <duration>157</duration>
                  <timecode>
                    <rate>
                      <timebase>24</timebase>
                      <ntsc>TRUE</ntsc>
                    </rate>
                    <string>00:00:00:00</string>
                    <frame>0</frame>
                    <displayformat>NDF</displayformat>
                    <reel>
                      <name/>
                    </reel>
                  </timecode>
                  <media>
                    <video>
                      <duration>18000</duration>
                      <samplecharacteristics>
                        <rate>
                          <timebase>24</timebase>
                          <ntsc>TRUE</ntsc>
                        </rate>
                        <width>1920</width>
                        <height>1080</height>
                        <anamorphic>FALSE</anamorphic>
                        <pixelaspectratio>square</pixelaspectratio>
                        <fielddominance>none</fielddominance>
                      </samplecharacteristics>
                    </video>
                    <audio>
                      <samplecharacteristics>
                        <depth>16</depth>
                        <samplerate>48000</samplerate>
                      </samplecharacteristics>
                      <channelcount>2</channelcount>
                    </audio>
                  </media>
                </file>
                <link>
                  <linkclipref>clipitem-442</linkclipref>
                  <mediatype>video</mediatype>
                  <trackindex>1</trackindex>
                  <clipindex>1</clipindex>
                </link>
                <link>
                  <linkclipref>clipitem-443</linkclipref>
                  <mediatype>audio</mediatype>
                  <trackindex>1</trackindex>
                  <clipindex>1</clipindex>
                  <groupindex>1</groupindex>
                </link>
                <link>
                  <linkclipref>clipitem-444</linkclipref>
                  <mediatype>audio</mediatype>
                  <trackindex>2</trackindex>
                  <clipindex>1</clipindex>
                  <groupindex>1</groupindex>
                </link>
              </clipitem>
            </track>
          </video>
          <audio>
            <track>
              <clipitem id="clipitem-443" frameBlend="FALSE">
                <masterclipid>masterclip-144</masterclipid>
                <name>00363.MTS</name>
                <file id="file-144"/>
                <sourcetrack>
                  <mediatype>audio</mediatype>
                  <trackindex>1</trackindex>
                </sourcetrack>
                <link>
                  <linkclipref>clipitem-442</linkclipref>
                  <mediatype>video</mediatype>
                  <trackindex>1</trackindex>
                  <clipindex>1</clipindex>
                </link>
                <link>
                  <linkclipref>clipitem-443</linkclipref>
                  <mediatype>audio</mediatype>
                  <trackindex>1</trackindex>
                  <clipindex>1</clipindex>
                  <groupindex>1</groupindex>
                </link>
                <link>
                  <linkclipref>clipitem-444</linkclipref>
                  <mediatype>audio</mediatype>
                  <trackindex>2</trackindex>
                  <clipindex>1</clipindex>
                  <groupindex>1</groupindex>
                </link>
              </clipitem>
            </track>
            <track>
              <clipitem id="clipitem-444" frameBlend="FALSE">
                <masterclipid>masterclip-144</masterclipid>
                <name>00363.MTS</name>
                <file id="file-144"/>
                <sourcetrack>
                  <mediatype>audio</mediatype>
                  <trackindex>2</trackindex>
                </sourcetrack>
                <link>
                  <linkclipref>clipitem-442</linkclipref>
                  <mediatype>video</mediatype>
                  <trackindex>1</trackindex>
                  <clipindex>1</clipindex>
                </link>
                <link>
                  <linkclipref>clipitem-443</linkclipref>
                  <mediatype>audio</mediatype>
                  <trackindex>1</trackindex>
                  <clipindex>1</clipindex>
                  <groupindex>1</groupindex>
                </link>
                <link>
                  <linkclipref>clipitem-444</linkclipref>
                  <mediatype>audio</mediatype>
                  <trackindex>2</trackindex>
                  <clipindex>1</clipindex>
                  <groupindex>1</groupindex>
                </link>
              </clipitem>
            </track>
          </audio>
        </media>
        <logginginfo>
          <description/>
          <scene/>
          <shottake/>
          <lognote/>
        </logginginfo>
      </clip>
      <clip id="masterclip-145" frameBlend="FALSE">
        <uuid>f9befa80-6741-4f66-9be2-6079cd7119cb</uuid>
        <masterclipid>masterclip-145</masterclipid>
        <ismasterclip>TRUE</ismasterclip>
        <duration>97</duration>
        <rate>
          <timebase>24</timebase>
          <ntsc>TRUE</ntsc>
        </rate>
        <name>00364.MTS</name>
        <media>
          <video>
            <track>
              <clipitem id="clipitem-445" frameBlend="FALSE">
                <masterclipid>masterclip-145</masterclipid>
                <name>00364.MTS</name>
                <alphatype>black</alphatype>
                <pixelaspectratio>square</pixelaspectratio>
                <anamorphic>FALSE</anamorphic>
                <file id="file-145">
                  <name>00364.MTS</name>
                  <pathurl>file://localhost/Volumes/Macintosh%20HD/Users/jacksongs/Desktop/STREAM/00364.MTS</pathurl>
                  <rate>
                    <timebase>24</timebase>
                    <ntsc>TRUE</ntsc>
                  </rate>
                  <duration>97</duration>
                  <timecode>
                    <rate>
                      <timebase>24</timebase>
                      <ntsc>TRUE</ntsc>
                    </rate>
                    <string>00:00:00:00</string>
                    <frame>0</frame>
                    <displayformat>NDF</displayformat>
                    <reel>
                      <name/>
                    </reel>
                  </timecode>
                  <media>
                    <video>
                      <duration>18000</duration>
                      <samplecharacteristics>
                        <rate>
                          <timebase>24</timebase>
                          <ntsc>TRUE</ntsc>
                        </rate>
                        <width>1920</width>
                        <height>1080</height>
                        <anamorphic>FALSE</anamorphic>
                        <pixelaspectratio>square</pixelaspectratio>
                        <fielddominance>none</fielddominance>
                      </samplecharacteristics>
                    </video>
                    <audio>
                      <samplecharacteristics>
                        <depth>16</depth>
                        <samplerate>48000</samplerate>
                      </samplecharacteristics>
                      <channelcount>2</channelcount>
                    </audio>
                  </media>
                </file>
                <link>
                  <linkclipref>clipitem-445</linkclipref>
                  <mediatype>video</mediatype>
                  <trackindex>1</trackindex>
                  <clipindex>1</clipindex>
                </link>
                <link>
                  <linkclipref>clipitem-446</linkclipref>
                  <mediatype>audio</mediatype>
                  <trackindex>1</trackindex>
                  <clipindex>1</clipindex>
                  <groupindex>1</groupindex>
                </link>
                <link>
                  <linkclipref>clipitem-447</linkclipref>
                  <mediatype>audio</mediatype>
                  <trackindex>2</trackindex>
                  <clipindex>1</clipindex>
                  <groupindex>1</groupindex>
                </link>
              </clipitem>
            </track>
          </video>
          <audio>
            <track>
              <clipitem id="clipitem-446" frameBlend="FALSE">
                <masterclipid>masterclip-145</masterclipid>
                <name>00364.MTS</name>
                <file id="file-145"/>
                <sourcetrack>
                  <mediatype>audio</mediatype>
                  <trackindex>1</trackindex>
                </sourcetrack>
                <link>
                  <linkclipref>clipitem-445</linkclipref>
                  <mediatype>video</mediatype>
                  <trackindex>1</trackindex>
                  <clipindex>1</clipindex>
                </link>
                <link>
                  <linkclipref>clipitem-446</linkclipref>
                  <mediatype>audio</mediatype>
                  <trackindex>1</trackindex>
                  <clipindex>1</clipindex>
                  <groupindex>1</groupindex>
                </link>
                <link>
                  <linkclipref>clipitem-447</linkclipref>
                  <mediatype>audio</mediatype>
                  <trackindex>2</trackindex>
                  <clipindex>1</clipindex>
                  <groupindex>1</groupindex>
                </link>
              </clipitem>
            </track>
            <track>
              <clipitem id="clipitem-447" frameBlend="FALSE">
                <masterclipid>masterclip-145</masterclipid>
                <name>00364.MTS</name>
                <file id="file-145"/>
                <sourcetrack>
                  <mediatype>audio</mediatype>
                  <trackindex>2</trackindex>
                </sourcetrack>
                <link>
                  <linkclipref>clipitem-445</linkclipref>
                  <mediatype>video</mediatype>
                  <trackindex>1</trackindex>
                  <clipindex>1</clipindex>
                </link>
                <link>
                  <linkclipref>clipitem-446</linkclipref>
                  <mediatype>audio</mediatype>
                  <trackindex>1</trackindex>
                  <clipindex>1</clipindex>
                  <groupindex>1</groupindex>
                </link>
                <link>
                  <linkclipref>clipitem-447</linkclipref>
                  <mediatype>audio</mediatype>
                  <trackindex>2</trackindex>
                  <clipindex>1</clipindex>
                  <groupindex>1</groupindex>
                </link>
              </clipitem>
            </track>
          </audio>
        </media>
        <logginginfo>
          <description/>
          <scene/>
          <shottake/>
          <lognote/>
        </logginginfo>
      </clip>
      <clip id="masterclip-146" frameBlend="FALSE">
        <uuid>5d6299de-5be6-490d-85a7-f21b834751e4</uuid>
        <masterclipid>masterclip-146</masterclipid>
        <ismasterclip>TRUE</ismasterclip>
        <duration>229</duration>
        <rate>
          <timebase>24</timebase>
          <ntsc>TRUE</ntsc>
        </rate>
        <name>00365.MTS</name>
        <media>
          <video>
            <track>
              <clipitem id="clipitem-448" frameBlend="FALSE">
                <masterclipid>masterclip-146</masterclipid>
                <name>00365.MTS</name>
                <alphatype>black</alphatype>
                <pixelaspectratio>square</pixelaspectratio>
                <anamorphic>FALSE</anamorphic>
                <file id="file-146">
                  <name>00365.MTS</name>
                  <pathurl>file://localhost/Volumes/Macintosh%20HD/Users/jacksongs/Desktop/STREAM/00365.MTS</pathurl>
                  <rate>
                    <timebase>24</timebase>
                    <ntsc>TRUE</ntsc>
                  </rate>
                  <duration>229</duration>
                  <timecode>
                    <rate>
                      <timebase>24</timebase>
                      <ntsc>TRUE</ntsc>
                    </rate>
                    <string>00:00:00:00</string>
                    <frame>0</frame>
                    <displayformat>NDF</displayformat>
                    <reel>
                      <name/>
                    </reel>
                  </timecode>
                  <media>
                    <video>
                      <duration>18000</duration>
                      <samplecharacteristics>
                        <rate>
                          <timebase>24</timebase>
                          <ntsc>TRUE</ntsc>
                        </rate>
                        <width>1920</width>
                        <height>1080</height>
                        <anamorphic>FALSE</anamorphic>
                        <pixelaspectratio>square</pixelaspectratio>
                        <fielddominance>none</fielddominance>
                      </samplecharacteristics>
                    </video>
                    <audio>
                      <samplecharacteristics>
                        <depth>16</depth>
                        <samplerate>48000</samplerate>
                      </samplecharacteristics>
                      <channelcount>2</channelcount>
                    </audio>
                  </media>
                </file>
                <link>
                  <linkclipref>clipitem-448</linkclipref>
                  <mediatype>video</mediatype>
                  <trackindex>1</trackindex>
                  <clipindex>1</clipindex>
                </link>
                <link>
                  <linkclipref>clipitem-449</linkclipref>
                  <mediatype>audio</mediatype>
                  <trackindex>1</trackindex>
                  <clipindex>1</clipindex>
                  <groupindex>1</groupindex>
                </link>
                <link>
                  <linkclipref>clipitem-450</linkclipref>
                  <mediatype>audio</mediatype>
                  <trackindex>2</trackindex>
                  <clipindex>1</clipindex>
                  <groupindex>1</groupindex>
                </link>
              </clipitem>
            </track>
          </video>
          <audio>
            <track>
              <clipitem id="clipitem-449" frameBlend="FALSE">
                <masterclipid>masterclip-146</masterclipid>
                <name>00365.MTS</name>
                <file id="file-146"/>
                <sourcetrack>
                  <mediatype>audio</mediatype>
                  <trackindex>1</trackindex>
                </sourcetrack>
                <link>
                  <linkclipref>clipitem-448</linkclipref>
                  <mediatype>video</mediatype>
                  <trackindex>1</trackindex>
                  <clipindex>1</clipindex>
                </link>
                <link>
                  <linkclipref>clipitem-449</linkclipref>
                  <mediatype>audio</mediatype>
                  <trackindex>1</trackindex>
                  <clipindex>1</clipindex>
                  <groupindex>1</groupindex>
                </link>
                <link>
                  <linkclipref>clipitem-450</linkclipref>
                  <mediatype>audio</mediatype>
                  <trackindex>2</trackindex>
                  <clipindex>1</clipindex>
                  <groupindex>1</groupindex>
                </link>
              </clipitem>
            </track>
            <track>
              <clipitem id="clipitem-450" frameBlend="FALSE">
                <masterclipid>masterclip-146</masterclipid>
                <name>00365.MTS</name>
                <file id="file-146"/>
                <sourcetrack>
                  <mediatype>audio</mediatype>
                  <trackindex>2</trackindex>
                </sourcetrack>
                <link>
                  <linkclipref>clipitem-448</linkclipref>
                  <mediatype>video</mediatype>
                  <trackindex>1</trackindex>
                  <clipindex>1</clipindex>
                </link>
                <link>
                  <linkclipref>clipitem-449</linkclipref>
                  <mediatype>audio</mediatype>
                  <trackindex>1</trackindex>
                  <clipindex>1</clipindex>
                  <groupindex>1</groupindex>
                </link>
                <link>
                  <linkclipref>clipitem-450</linkclipref>
                  <mediatype>audio</mediatype>
                  <trackindex>2</trackindex>
                  <clipindex>1</clipindex>
                  <groupindex>1</groupindex>
                </link>
              </clipitem>
            </track>
          </audio>
        </media>
        <logginginfo>
          <description/>
          <scene/>
          <shottake/>
          <lognote/>
        </logginginfo>
      </clip>
      <clip id="masterclip-147" frameBlend="FALSE">
        <uuid>116b8419-3892-4658-8ed2-d505c8af7978</uuid>
        <masterclipid>masterclip-147</masterclipid>
        <ismasterclip>TRUE</ismasterclip>
        <duration>325</duration>
        <rate>
          <timebase>24</timebase>
          <ntsc>TRUE</ntsc>
        </rate>
        <name>00366.MTS</name>
        <media>
          <video>
            <track>
              <clipitem id="clipitem-451" frameBlend="FALSE">
                <masterclipid>masterclip-147</masterclipid>
                <name>00366.MTS</name>
                <alphatype>black</alphatype>
                <pixelaspectratio>square</pixelaspectratio>
                <anamorphic>FALSE</anamorphic>
                <file id="file-147">
                  <name>00366.MTS</name>
                  <pathurl>file://localhost/Volumes/Macintosh%20HD/Users/jacksongs/Desktop/STREAM/00366.MTS</pathurl>
                  <rate>
                    <timebase>24</timebase>
                    <ntsc>TRUE</ntsc>
                  </rate>
                  <duration>325</duration>
                  <timecode>
                    <rate>
                      <timebase>24</timebase>
                      <ntsc>TRUE</ntsc>
                    </rate>
                    <string>00:00:00:00</string>
                    <frame>0</frame>
                    <displayformat>NDF</displayformat>
                    <reel>
                      <name/>
                    </reel>
                  </timecode>
                  <media>
                    <video>
                      <duration>18000</duration>
                      <samplecharacteristics>
                        <rate>
                          <timebase>24</timebase>
                          <ntsc>TRUE</ntsc>
                        </rate>
                        <width>1920</width>
                        <height>1080</height>
                        <anamorphic>FALSE</anamorphic>
                        <pixelaspectratio>square</pixelaspectratio>
                        <fielddominance>none</fielddominance>
                      </samplecharacteristics>
                    </video>
                    <audio>
                      <samplecharacteristics>
                        <depth>16</depth>
                        <samplerate>48000</samplerate>
                      </samplecharacteristics>
                      <channelcount>2</channelcount>
                    </audio>
                  </media>
                </file>
                <link>
                  <linkclipref>clipitem-451</linkclipref>
                  <mediatype>video</mediatype>
                  <trackindex>1</trackindex>
                  <clipindex>1</clipindex>
                </link>
                <link>
                  <linkclipref>clipitem-452</linkclipref>
                  <mediatype>audio</mediatype>
                  <trackindex>1</trackindex>
                  <clipindex>1</clipindex>
                  <groupindex>1</groupindex>
                </link>
                <link>
                  <linkclipref>clipitem-453</linkclipref>
                  <mediatype>audio</mediatype>
                  <trackindex>2</trackindex>
                  <clipindex>1</clipindex>
                  <groupindex>1</groupindex>
                </link>
              </clipitem>
            </track>
          </video>
          <audio>
            <track>
              <clipitem id="clipitem-452" frameBlend="FALSE">
                <masterclipid>masterclip-147</masterclipid>
                <name>00366.MTS</name>
                <file id="file-147"/>
                <sourcetrack>
                  <mediatype>audio</mediatype>
                  <trackindex>1</trackindex>
                </sourcetrack>
                <link>
                  <linkclipref>clipitem-451</linkclipref>
                  <mediatype>video</mediatype>
                  <trackindex>1</trackindex>
                  <clipindex>1</clipindex>
                </link>
                <link>
                  <linkclipref>clipitem-452</linkclipref>
                  <mediatype>audio</mediatype>
                  <trackindex>1</trackindex>
                  <clipindex>1</clipindex>
                  <groupindex>1</groupindex>
                </link>
                <link>
                  <linkclipref>clipitem-453</linkclipref>
                  <mediatype>audio</mediatype>
                  <trackindex>2</trackindex>
                  <clipindex>1</clipindex>
                  <groupindex>1</groupindex>
                </link>
              </clipitem>
            </track>
            <track>
              <clipitem id="clipitem-453" frameBlend="FALSE">
                <masterclipid>masterclip-147</masterclipid>
                <name>00366.MTS</name>
                <file id="file-147"/>
                <sourcetrack>
                  <mediatype>audio</mediatype>
                  <trackindex>2</trackindex>
                </sourcetrack>
                <link>
                  <linkclipref>clipitem-451</linkclipref>
                  <mediatype>video</mediatype>
                  <trackindex>1</trackindex>
                  <clipindex>1</clipindex>
                </link>
                <link>
                  <linkclipref>clipitem-452</linkclipref>
                  <mediatype>audio</mediatype>
                  <trackindex>1</trackindex>
                  <clipindex>1</clipindex>
                  <groupindex>1</groupindex>
                </link>
                <link>
                  <linkclipref>clipitem-453</linkclipref>
                  <mediatype>audio</mediatype>
                  <trackindex>2</trackindex>
                  <clipindex>1</clipindex>
                  <groupindex>1</groupindex>
                </link>
              </clipitem>
            </track>
          </audio>
        </media>
        <logginginfo>
          <description/>
          <scene/>
          <shottake/>
          <lognote/>
        </logginginfo>
      </clip>
      <clip id="masterclip-148" frameBlend="FALSE">
        <uuid>0daf9f54-56a7-4988-be05-3389385fac12</uuid>
        <masterclipid>masterclip-148</masterclipid>
        <ismasterclip>TRUE</ismasterclip>
        <duration>613</duration>
        <rate>
          <timebase>24</timebase>
          <ntsc>TRUE</ntsc>
        </rate>
        <name>00367.MTS</name>
        <media>
          <video>
            <track>
              <clipitem id="clipitem-454" frameBlend="FALSE">
                <masterclipid>masterclip-148</masterclipid>
                <name>00367.MTS</name>
                <alphatype>black</alphatype>
                <pixelaspectratio>square</pixelaspectratio>
                <anamorphic>FALSE</anamorphic>
                <file id="file-148">
                  <name>00367.MTS</name>
                  <pathurl>file://localhost/Volumes/Macintosh%20HD/Users/jacksongs/Desktop/STREAM/00367.MTS</pathurl>
                  <rate>
                    <timebase>24</timebase>
                    <ntsc>TRUE</ntsc>
                  </rate>
                  <duration>613</duration>
                  <timecode>
                    <rate>
                      <timebase>24</timebase>
                      <ntsc>TRUE</ntsc>
                    </rate>
                    <string>00:00:00:00</string>
                    <frame>0</frame>
                    <displayformat>NDF</displayformat>
                    <reel>
                      <name/>
                    </reel>
                  </timecode>
                  <media>
                    <video>
                      <duration>18000</duration>
                      <samplecharacteristics>
                        <rate>
                          <timebase>24</timebase>
                          <ntsc>TRUE</ntsc>
                        </rate>
                        <width>1920</width>
                        <height>1080</height>
                        <anamorphic>FALSE</anamorphic>
                        <pixelaspectratio>square</pixelaspectratio>
                        <fielddominance>none</fielddominance>
                      </samplecharacteristics>
                    </video>
                    <audio>
                      <samplecharacteristics>
                        <depth>16</depth>
                        <samplerate>48000</samplerate>
                      </samplecharacteristics>
                      <channelcount>2</channelcount>
                    </audio>
                  </media>
                </file>
                <link>
                  <linkclipref>clipitem-454</linkclipref>
                  <mediatype>video</mediatype>
                  <trackindex>1</trackindex>
                  <clipindex>1</clipindex>
                </link>
                <link>
                  <linkclipref>clipitem-455</linkclipref>
                  <mediatype>audio</mediatype>
                  <trackindex>1</trackindex>
                  <clipindex>1</clipindex>
                  <groupindex>1</groupindex>
                </link>
                <link>
                  <linkclipref>clipitem-456</linkclipref>
                  <mediatype>audio</mediatype>
                  <trackindex>2</trackindex>
                  <clipindex>1</clipindex>
                  <groupindex>1</groupindex>
                </link>
              </clipitem>
            </track>
          </video>
          <audio>
            <track>
              <clipitem id="clipitem-455" frameBlend="FALSE">
                <masterclipid>masterclip-148</masterclipid>
                <name>00367.MTS</name>
                <file id="file-148"/>
                <sourcetrack>
                  <mediatype>audio</mediatype>
                  <trackindex>1</trackindex>
                </sourcetrack>
                <link>
                  <linkclipref>clipitem-454</linkclipref>
                  <mediatype>video</mediatype>
                  <trackindex>1</trackindex>
                  <clipindex>1</clipindex>
                </link>
                <link>
                  <linkclipref>clipitem-455</linkclipref>
                  <mediatype>audio</mediatype>
                  <trackindex>1</trackindex>
                  <clipindex>1</clipindex>
                  <groupindex>1</groupindex>
                </link>
                <link>
                  <linkclipref>clipitem-456</linkclipref>
                  <mediatype>audio</mediatype>
                  <trackindex>2</trackindex>
                  <clipindex>1</clipindex>
                  <groupindex>1</groupindex>
                </link>
              </clipitem>
            </track>
            <track>
              <clipitem id="clipitem-456" frameBlend="FALSE">
                <masterclipid>masterclip-148</masterclipid>
                <name>00367.MTS</name>
                <file id="file-148"/>
                <sourcetrack>
                  <mediatype>audio</mediatype>
                  <trackindex>2</trackindex>
                </sourcetrack>
                <link>
                  <linkclipref>clipitem-454</linkclipref>
                  <mediatype>video</mediatype>
                  <trackindex>1</trackindex>
                  <clipindex>1</clipindex>
                </link>
                <link>
                  <linkclipref>clipitem-455</linkclipref>
                  <mediatype>audio</mediatype>
                  <trackindex>1</trackindex>
                  <clipindex>1</clipindex>
                  <groupindex>1</groupindex>
                </link>
                <link>
                  <linkclipref>clipitem-456</linkclipref>
                  <mediatype>audio</mediatype>
                  <trackindex>2</trackindex>
                  <clipindex>1</clipindex>
                  <groupindex>1</groupindex>
                </link>
              </clipitem>
            </track>
          </audio>
        </media>
        <logginginfo>
          <description/>
          <scene/>
          <shottake/>
          <lognote/>
        </logginginfo>
      </clip>
      <clip id="masterclip-149" frameBlend="FALSE">
        <uuid>65f2fd7e-92e2-485c-9fed-b056f3aeed3b</uuid>
        <masterclipid>masterclip-149</masterclipid>
        <ismasterclip>TRUE</ismasterclip>
        <duration>625</duration>
        <rate>
          <timebase>24</timebase>
          <ntsc>TRUE</ntsc>
        </rate>
        <name>00368.MTS</name>
        <media>
          <video>
            <track>
              <clipitem id="clipitem-457" frameBlend="FALSE">
                <masterclipid>masterclip-149</masterclipid>
                <name>00368.MTS</name>
                <alphatype>black</alphatype>
                <pixelaspectratio>square</pixelaspectratio>
                <anamorphic>FALSE</anamorphic>
                <file id="file-149">
                  <name>00368.MTS</name>
                  <pathurl>file://localhost/Volumes/Macintosh%20HD/Users/jacksongs/Desktop/STREAM/00368.MTS</pathurl>
                  <rate>
                    <timebase>24</timebase>
                    <ntsc>TRUE</ntsc>
                  </rate>
                  <duration>625</duration>
                  <timecode>
                    <rate>
                      <timebase>24</timebase>
                      <ntsc>TRUE</ntsc>
                    </rate>
                    <string>00:00:00:00</string>
                    <frame>0</frame>
                    <displayformat>NDF</displayformat>
                    <reel>
                      <name/>
                    </reel>
                  </timecode>
                  <media>
                    <video>
                      <duration>18000</duration>
                      <samplecharacteristics>
                        <rate>
                          <timebase>24</timebase>
                          <ntsc>TRUE</ntsc>
                        </rate>
                        <width>1920</width>
                        <height>1080</height>
                        <anamorphic>FALSE</anamorphic>
                        <pixelaspectratio>square</pixelaspectratio>
                        <fielddominance>none</fielddominance>
                      </samplecharacteristics>
                    </video>
                    <audio>
                      <samplecharacteristics>
                        <depth>16</depth>
                        <samplerate>48000</samplerate>
                      </samplecharacteristics>
                      <channelcount>2</channelcount>
                    </audio>
                  </media>
                </file>
                <link>
                  <linkclipref>clipitem-457</linkclipref>
                  <mediatype>video</mediatype>
                  <trackindex>1</trackindex>
                  <clipindex>1</clipindex>
                </link>
                <link>
                  <linkclipref>clipitem-458</linkclipref>
                  <mediatype>audio</mediatype>
                  <trackindex>1</trackindex>
                  <clipindex>1</clipindex>
                  <groupindex>1</groupindex>
                </link>
                <link>
                  <linkclipref>clipitem-459</linkclipref>
                  <mediatype>audio</mediatype>
                  <trackindex>2</trackindex>
                  <clipindex>1</clipindex>
                  <groupindex>1</groupindex>
                </link>
              </clipitem>
            </track>
          </video>
          <audio>
            <track>
              <clipitem id="clipitem-458" frameBlend="FALSE">
                <masterclipid>masterclip-149</masterclipid>
                <name>00368.MTS</name>
                <file id="file-149"/>
                <sourcetrack>
                  <mediatype>audio</mediatype>
                  <trackindex>1</trackindex>
                </sourcetrack>
                <link>
                  <linkclipref>clipitem-457</linkclipref>
                  <mediatype>video</mediatype>
                  <trackindex>1</trackindex>
                  <clipindex>1</clipindex>
                </link>
                <link>
                  <linkclipref>clipitem-458</linkclipref>
                  <mediatype>audio</mediatype>
                  <trackindex>1</trackindex>
                  <clipindex>1</clipindex>
                  <groupindex>1</groupindex>
                </link>
                <link>
                  <linkclipref>clipitem-459</linkclipref>
                  <mediatype>audio</mediatype>
                  <trackindex>2</trackindex>
                  <clipindex>1</clipindex>
                  <groupindex>1</groupindex>
                </link>
              </clipitem>
            </track>
            <track>
              <clipitem id="clipitem-459" frameBlend="FALSE">
                <masterclipid>masterclip-149</masterclipid>
                <name>00368.MTS</name>
                <file id="file-149"/>
                <sourcetrack>
                  <mediatype>audio</mediatype>
                  <trackindex>2</trackindex>
                </sourcetrack>
                <link>
                  <linkclipref>clipitem-457</linkclipref>
                  <mediatype>video</mediatype>
                  <trackindex>1</trackindex>
                  <clipindex>1</clipindex>
                </link>
                <link>
                  <linkclipref>clipitem-458</linkclipref>
                  <mediatype>audio</mediatype>
                  <trackindex>1</trackindex>
                  <clipindex>1</clipindex>
                  <groupindex>1</groupindex>
                </link>
                <link>
                  <linkclipref>clipitem-459</linkclipref>
                  <mediatype>audio</mediatype>
                  <trackindex>2</trackindex>
                  <clipindex>1</clipindex>
                  <groupindex>1</groupindex>
                </link>
              </clipitem>
            </track>
          </audio>
        </media>
        <logginginfo>
          <description/>
          <scene/>
          <shottake/>
          <lognote/>
        </logginginfo>
      </clip>
      <clip id="masterclip-150" frameBlend="FALSE">
        <uuid>77e535c7-5749-4969-b266-ee618bf45300</uuid>
        <masterclipid>masterclip-150</masterclipid>
        <ismasterclip>TRUE</ismasterclip>
        <duration>265</duration>
        <rate>
          <timebase>24</timebase>
          <ntsc>TRUE</ntsc>
        </rate>
        <name>00371.MTS</name>
        <media>
          <video>
            <track>
              <clipitem id="clipitem-460" frameBlend="FALSE">
                <masterclipid>masterclip-150</masterclipid>
                <name>00371.MTS</name>
                <alphatype>black</alphatype>
                <pixelaspectratio>square</pixelaspectratio>
                <anamorphic>FALSE</anamorphic>
                <file id="file-150">
                  <name>00371.MTS</name>
                  <pathurl>file://localhost/Volumes/Macintosh%20HD/Users/jacksongs/Desktop/STREAM/00371.MTS</pathurl>
                  <rate>
                    <timebase>24</timebase>
                    <ntsc>TRUE</ntsc>
                  </rate>
                  <duration>265</duration>
                  <timecode>
                    <rate>
                      <timebase>24</timebase>
                      <ntsc>TRUE</ntsc>
                    </rate>
                    <string>00:00:00:00</string>
                    <frame>0</frame>
                    <displayformat>NDF</displayformat>
                    <reel>
                      <name/>
                    </reel>
                  </timecode>
                  <media>
                    <video>
                      <duration>18000</duration>
                      <samplecharacteristics>
                        <rate>
                          <timebase>24</timebase>
                          <ntsc>TRUE</ntsc>
                        </rate>
                        <width>1920</width>
                        <height>1080</height>
                        <anamorphic>FALSE</anamorphic>
                        <pixelaspectratio>square</pixelaspectratio>
                        <fielddominance>none</fielddominance>
                      </samplecharacteristics>
                    </video>
                    <audio>
                      <samplecharacteristics>
                        <depth>16</depth>
                        <samplerate>48000</samplerate>
                      </samplecharacteristics>
                      <channelcount>2</channelcount>
                    </audio>
                  </media>
                </file>
                <link>
                  <linkclipref>clipitem-460</linkclipref>
                  <mediatype>video</mediatype>
                  <trackindex>1</trackindex>
                  <clipindex>1</clipindex>
                </link>
                <link>
                  <linkclipref>clipitem-461</linkclipref>
                  <mediatype>audio</mediatype>
                  <trackindex>1</trackindex>
                  <clipindex>1</clipindex>
                  <groupindex>1</groupindex>
                </link>
                <link>
                  <linkclipref>clipitem-462</linkclipref>
                  <mediatype>audio</mediatype>
                  <trackindex>2</trackindex>
                  <clipindex>1</clipindex>
                  <groupindex>1</groupindex>
                </link>
              </clipitem>
            </track>
          </video>
          <audio>
            <track>
              <clipitem id="clipitem-461" frameBlend="FALSE">
                <masterclipid>masterclip-150</masterclipid>
                <name>00371.MTS</name>
                <file id="file-150"/>
                <sourcetrack>
                  <mediatype>audio</mediatype>
                  <trackindex>1</trackindex>
                </sourcetrack>
                <link>
                  <linkclipref>clipitem-460</linkclipref>
                  <mediatype>video</mediatype>
                  <trackindex>1</trackindex>
                  <clipindex>1</clipindex>
                </link>
                <link>
                  <linkclipref>clipitem-461</linkclipref>
                  <mediatype>audio</mediatype>
                  <trackindex>1</trackindex>
                  <clipindex>1</clipindex>
                  <groupindex>1</groupindex>
                </link>
                <link>
                  <linkclipref>clipitem-462</linkclipref>
                  <mediatype>audio</mediatype>
                  <trackindex>2</trackindex>
                  <clipindex>1</clipindex>
                  <groupindex>1</groupindex>
                </link>
              </clipitem>
            </track>
            <track>
              <clipitem id="clipitem-462" frameBlend="FALSE">
                <masterclipid>masterclip-150</masterclipid>
                <name>00371.MTS</name>
                <file id="file-150"/>
                <sourcetrack>
                  <mediatype>audio</mediatype>
                  <trackindex>2</trackindex>
                </sourcetrack>
                <link>
                  <linkclipref>clipitem-460</linkclipref>
                  <mediatype>video</mediatype>
                  <trackindex>1</trackindex>
                  <clipindex>1</clipindex>
                </link>
                <link>
                  <linkclipref>clipitem-461</linkclipref>
                  <mediatype>audio</mediatype>
                  <trackindex>1</trackindex>
                  <clipindex>1</clipindex>
                  <groupindex>1</groupindex>
                </link>
                <link>
                  <linkclipref>clipitem-462</linkclipref>
                  <mediatype>audio</mediatype>
                  <trackindex>2</trackindex>
                  <clipindex>1</clipindex>
                  <groupindex>1</groupindex>
                </link>
              </clipitem>
            </track>
          </audio>
        </media>
        <logginginfo>
          <description/>
          <scene/>
          <shottake/>
          <lognote/>
        </logginginfo>
      </clip>
      <clip id="masterclip-151" frameBlend="FALSE">
        <uuid>7babe589-71cc-42e4-a39a-9608b876cbee</uuid>
        <masterclipid>masterclip-151</masterclipid>
        <ismasterclip>TRUE</ismasterclip>
        <duration>193</duration>
        <rate>
          <timebase>24</timebase>
          <ntsc>TRUE</ntsc>
        </rate>
        <name>00372.MTS</name>
        <media>
          <video>
            <track>
              <clipitem id="clipitem-463" frameBlend="FALSE">
                <masterclipid>masterclip-151</masterclipid>
                <name>00372.MTS</name>
                <alphatype>black</alphatype>
                <pixelaspectratio>square</pixelaspectratio>
                <anamorphic>FALSE</anamorphic>
                <file id="file-151">
                  <name>00372.MTS</name>
                  <pathurl>file://localhost/Volumes/Macintosh%20HD/Users/jacksongs/Desktop/STREAM/00372.MTS</pathurl>
                  <rate>
                    <timebase>24</timebase>
                    <ntsc>TRUE</ntsc>
                  </rate>
                  <duration>193</duration>
                  <timecode>
                    <rate>
                      <timebase>24</timebase>
                      <ntsc>TRUE</ntsc>
                    </rate>
                    <string>00:00:00:00</string>
                    <frame>0</frame>
                    <displayformat>NDF</displayformat>
                    <reel>
                      <name/>
                    </reel>
                  </timecode>
                  <media>
                    <video>
                      <duration>18000</duration>
                      <samplecharacteristics>
                        <rate>
                          <timebase>24</timebase>
                          <ntsc>TRUE</ntsc>
                        </rate>
                        <width>1920</width>
                        <height>1080</height>
                        <anamorphic>FALSE</anamorphic>
                        <pixelaspectratio>square</pixelaspectratio>
                        <fielddominance>none</fielddominance>
                      </samplecharacteristics>
                    </video>
                    <audio>
                      <samplecharacteristics>
                        <depth>16</depth>
                        <samplerate>48000</samplerate>
                      </samplecharacteristics>
                      <channelcount>2</channelcount>
                    </audio>
                  </media>
                </file>
                <link>
                  <linkclipref>clipitem-463</linkclipref>
                  <mediatype>video</mediatype>
                  <trackindex>1</trackindex>
                  <clipindex>1</clipindex>
                </link>
                <link>
                  <linkclipref>clipitem-464</linkclipref>
                  <mediatype>audio</mediatype>
                  <trackindex>1</trackindex>
                  <clipindex>1</clipindex>
                  <groupindex>1</groupindex>
                </link>
                <link>
                  <linkclipref>clipitem-465</linkclipref>
                  <mediatype>audio</mediatype>
                  <trackindex>2</trackindex>
                  <clipindex>1</clipindex>
                  <groupindex>1</groupindex>
                </link>
              </clipitem>
            </track>
          </video>
          <audio>
            <track>
              <clipitem id="clipitem-464" frameBlend="FALSE">
                <masterclipid>masterclip-151</masterclipid>
                <name>00372.MTS</name>
                <file id="file-151"/>
                <sourcetrack>
                  <mediatype>audio</mediatype>
                  <trackindex>1</trackindex>
                </sourcetrack>
                <link>
                  <linkclipref>clipitem-463</linkclipref>
                  <mediatype>video</mediatype>
                  <trackindex>1</trackindex>
                  <clipindex>1</clipindex>
                </link>
                <link>
                  <linkclipref>clipitem-464</linkclipref>
                  <mediatype>audio</mediatype>
                  <trackindex>1</trackindex>
                  <clipindex>1</clipindex>
                  <groupindex>1</groupindex>
                </link>
                <link>
                  <linkclipref>clipitem-465</linkclipref>
                  <mediatype>audio</mediatype>
                  <trackindex>2</trackindex>
                  <clipindex>1</clipindex>
                  <groupindex>1</groupindex>
                </link>
              </clipitem>
            </track>
            <track>
              <clipitem id="clipitem-465" frameBlend="FALSE">
                <masterclipid>masterclip-151</masterclipid>
                <name>00372.MTS</name>
                <file id="file-151"/>
                <sourcetrack>
                  <mediatype>audio</mediatype>
                  <trackindex>2</trackindex>
                </sourcetrack>
                <link>
                  <linkclipref>clipitem-463</linkclipref>
                  <mediatype>video</mediatype>
                  <trackindex>1</trackindex>
                  <clipindex>1</clipindex>
                </link>
                <link>
                  <linkclipref>clipitem-464</linkclipref>
                  <mediatype>audio</mediatype>
                  <trackindex>1</trackindex>
                  <clipindex>1</clipindex>
                  <groupindex>1</groupindex>
                </link>
                <link>
                  <linkclipref>clipitem-465</linkclipref>
                  <mediatype>audio</mediatype>
                  <trackindex>2</trackindex>
                  <clipindex>1</clipindex>
                  <groupindex>1</groupindex>
                </link>
              </clipitem>
            </track>
          </audio>
        </media>
        <logginginfo>
          <description/>
          <scene/>
          <shottake/>
          <lognote/>
        </logginginfo>
      </clip>
      <clip id="masterclip-152" frameBlend="FALSE">
        <uuid>d65d8d37-01bf-4871-b6ca-f87a3f4b0948</uuid>
        <masterclipid>masterclip-152</masterclipid>
        <ismasterclip>TRUE</ismasterclip>
        <duration>205</duration>
        <rate>
          <timebase>24</timebase>
          <ntsc>TRUE</ntsc>
        </rate>
        <name>00373.MTS</name>
        <media>
          <video>
            <track>
              <clipitem id="clipitem-466" frameBlend="FALSE">
                <masterclipid>masterclip-152</masterclipid>
                <name>00373.MTS</name>
                <alphatype>black</alphatype>
                <pixelaspectratio>square</pixelaspectratio>
                <anamorphic>FALSE</anamorphic>
                <file id="file-152">
                  <name>00373.MTS</name>
                  <pathurl>file://localhost/Volumes/Macintosh%20HD/Users/jacksongs/Desktop/STREAM/00373.MTS</pathurl>
                  <rate>
                    <timebase>24</timebase>
                    <ntsc>TRUE</ntsc>
                  </rate>
                  <duration>205</duration>
                  <timecode>
                    <rate>
                      <timebase>24</timebase>
                      <ntsc>TRUE</ntsc>
                    </rate>
                    <string>00:00:00:00</string>
                    <frame>0</frame>
                    <displayformat>NDF</displayformat>
                    <reel>
                      <name/>
                    </reel>
                  </timecode>
                  <media>
                    <video>
                      <duration>18000</duration>
                      <samplecharacteristics>
                        <rate>
                          <timebase>24</timebase>
                          <ntsc>TRUE</ntsc>
                        </rate>
                        <width>1920</width>
                        <height>1080</height>
                        <anamorphic>FALSE</anamorphic>
                        <pixelaspectratio>square</pixelaspectratio>
                        <fielddominance>none</fielddominance>
                      </samplecharacteristics>
                    </video>
                    <audio>
                      <samplecharacteristics>
                        <depth>16</depth>
                        <samplerate>48000</samplerate>
                      </samplecharacteristics>
                      <channelcount>2</channelcount>
                    </audio>
                  </media>
                </file>
                <link>
                  <linkclipref>clipitem-466</linkclipref>
                  <mediatype>video</mediatype>
                  <trackindex>1</trackindex>
                  <clipindex>1</clipindex>
                </link>
                <link>
                  <linkclipref>clipitem-467</linkclipref>
                  <mediatype>audio</mediatype>
                  <trackindex>1</trackindex>
                  <clipindex>1</clipindex>
                  <groupindex>1</groupindex>
                </link>
                <link>
                  <linkclipref>clipitem-468</linkclipref>
                  <mediatype>audio</mediatype>
                  <trackindex>2</trackindex>
                  <clipindex>1</clipindex>
                  <groupindex>1</groupindex>
                </link>
              </clipitem>
            </track>
          </video>
          <audio>
            <track>
              <clipitem id="clipitem-467" frameBlend="FALSE">
                <masterclipid>masterclip-152</masterclipid>
                <name>00373.MTS</name>
                <file id="file-152"/>
                <sourcetrack>
                  <mediatype>audio</mediatype>
                  <trackindex>1</trackindex>
                </sourcetrack>
                <link>
                  <linkclipref>clipitem-466</linkclipref>
                  <mediatype>video</mediatype>
                  <trackindex>1</trackindex>
                  <clipindex>1</clipindex>
                </link>
                <link>
                  <linkclipref>clipitem-467</linkclipref>
                  <mediatype>audio</mediatype>
                  <trackindex>1</trackindex>
                  <clipindex>1</clipindex>
                  <groupindex>1</groupindex>
                </link>
                <link>
                  <linkclipref>clipitem-468</linkclipref>
                  <mediatype>audio</mediatype>
                  <trackindex>2</trackindex>
                  <clipindex>1</clipindex>
                  <groupindex>1</groupindex>
                </link>
              </clipitem>
            </track>
            <track>
              <clipitem id="clipitem-468" frameBlend="FALSE">
                <masterclipid>masterclip-152</masterclipid>
                <name>00373.MTS</name>
                <file id="file-152"/>
                <sourcetrack>
                  <mediatype>audio</mediatype>
                  <trackindex>2</trackindex>
                </sourcetrack>
                <link>
                  <linkclipref>clipitem-466</linkclipref>
                  <mediatype>video</mediatype>
                  <trackindex>1</trackindex>
                  <clipindex>1</clipindex>
                </link>
                <link>
                  <linkclipref>clipitem-467</linkclipref>
                  <mediatype>audio</mediatype>
                  <trackindex>1</trackindex>
                  <clipindex>1</clipindex>
                  <groupindex>1</groupindex>
                </link>
                <link>
                  <linkclipref>clipitem-468</linkclipref>
                  <mediatype>audio</mediatype>
                  <trackindex>2</trackindex>
                  <clipindex>1</clipindex>
                  <groupindex>1</groupindex>
                </link>
              </clipitem>
            </track>
          </audio>
        </media>
        <logginginfo>
          <description/>
          <scene/>
          <shottake/>
          <lognote/>
        </logginginfo>
      </clip>
      <clip id="masterclip-153" frameBlend="FALSE">
        <uuid>de8ad301-2254-436e-9293-949a91e195ca</uuid>
        <masterclipid>masterclip-153</masterclipid>
        <ismasterclip>TRUE</ismasterclip>
        <duration>145</duration>
        <rate>
          <timebase>24</timebase>
          <ntsc>TRUE</ntsc>
        </rate>
        <name>00374.MTS</name>
        <media>
          <video>
            <track>
              <clipitem id="clipitem-469" frameBlend="FALSE">
                <masterclipid>masterclip-153</masterclipid>
                <name>00374.MTS</name>
                <alphatype>black</alphatype>
                <pixelaspectratio>square</pixelaspectratio>
                <anamorphic>FALSE</anamorphic>
                <file id="file-153">
                  <name>00374.MTS</name>
                  <pathurl>file://localhost/Volumes/Macintosh%20HD/Users/jacksongs/Desktop/STREAM/00374.MTS</pathurl>
                  <rate>
                    <timebase>24</timebase>
                    <ntsc>TRUE</ntsc>
                  </rate>
                  <duration>145</duration>
                  <timecode>
                    <rate>
                      <timebase>24</timebase>
                      <ntsc>TRUE</ntsc>
                    </rate>
                    <string>00:00:00:00</string>
                    <frame>0</frame>
                    <displayformat>NDF</displayformat>
                    <reel>
                      <name/>
                    </reel>
                  </timecode>
                  <media>
                    <video>
                      <duration>18000</duration>
                      <samplecharacteristics>
                        <rate>
                          <timebase>24</timebase>
                          <ntsc>TRUE</ntsc>
                        </rate>
                        <width>1920</width>
                        <height>1080</height>
                        <anamorphic>FALSE</anamorphic>
                        <pixelaspectratio>square</pixelaspectratio>
                        <fielddominance>none</fielddominance>
                      </samplecharacteristics>
                    </video>
                    <audio>
                      <samplecharacteristics>
                        <depth>16</depth>
                        <samplerate>48000</samplerate>
                      </samplecharacteristics>
                      <channelcount>2</channelcount>
                    </audio>
                  </media>
                </file>
                <link>
                  <linkclipref>clipitem-469</linkclipref>
                  <mediatype>video</mediatype>
                  <trackindex>1</trackindex>
                  <clipindex>1</clipindex>
                </link>
                <link>
                  <linkclipref>clipitem-470</linkclipref>
                  <mediatype>audio</mediatype>
                  <trackindex>1</trackindex>
                  <clipindex>1</clipindex>
                  <groupindex>1</groupindex>
                </link>
                <link>
                  <linkclipref>clipitem-471</linkclipref>
                  <mediatype>audio</mediatype>
                  <trackindex>2</trackindex>
                  <clipindex>1</clipindex>
                  <groupindex>1</groupindex>
                </link>
              </clipitem>
            </track>
          </video>
          <audio>
            <track>
              <clipitem id="clipitem-470" frameBlend="FALSE">
                <masterclipid>masterclip-153</masterclipid>
                <name>00374.MTS</name>
                <file id="file-153"/>
                <sourcetrack>
                  <mediatype>audio</mediatype>
                  <trackindex>1</trackindex>
                </sourcetrack>
                <link>
                  <linkclipref>clipitem-469</linkclipref>
                  <mediatype>video</mediatype>
                  <trackindex>1</trackindex>
                  <clipindex>1</clipindex>
                </link>
                <link>
                  <linkclipref>clipitem-470</linkclipref>
                  <mediatype>audio</mediatype>
                  <trackindex>1</trackindex>
                  <clipindex>1</clipindex>
                  <groupindex>1</groupindex>
                </link>
                <link>
                  <linkclipref>clipitem-471</linkclipref>
                  <mediatype>audio</mediatype>
                  <trackindex>2</trackindex>
                  <clipindex>1</clipindex>
                  <groupindex>1</groupindex>
                </link>
              </clipitem>
            </track>
            <track>
              <clipitem id="clipitem-471" frameBlend="FALSE">
                <masterclipid>masterclip-153</masterclipid>
                <name>00374.MTS</name>
                <file id="file-153"/>
                <sourcetrack>
                  <mediatype>audio</mediatype>
                  <trackindex>2</trackindex>
                </sourcetrack>
                <link>
                  <linkclipref>clipitem-469</linkclipref>
                  <mediatype>video</mediatype>
                  <trackindex>1</trackindex>
                  <clipindex>1</clipindex>
                </link>
                <link>
                  <linkclipref>clipitem-470</linkclipref>
                  <mediatype>audio</mediatype>
                  <trackindex>1</trackindex>
                  <clipindex>1</clipindex>
                  <groupindex>1</groupindex>
                </link>
                <link>
                  <linkclipref>clipitem-471</linkclipref>
                  <mediatype>audio</mediatype>
                  <trackindex>2</trackindex>
                  <clipindex>1</clipindex>
                  <groupindex>1</groupindex>
                </link>
              </clipitem>
            </track>
          </audio>
        </media>
        <logginginfo>
          <description/>
          <scene/>
          <shottake/>
          <lognote/>
        </logginginfo>
      </clip>
      <clip id="masterclip-154" frameBlend="FALSE">
        <uuid>57a01365-fd3f-4d35-b5cb-1851342bbf5d</uuid>
        <masterclipid>masterclip-154</masterclipid>
        <ismasterclip>TRUE</ismasterclip>
        <duration>217</duration>
        <rate>
          <timebase>24</timebase>
          <ntsc>TRUE</ntsc>
        </rate>
        <name>00375.MTS</name>
        <media>
          <video>
            <track>
              <clipitem id="clipitem-472" frameBlend="FALSE">
                <masterclipid>masterclip-154</masterclipid>
                <name>00375.MTS</name>
                <alphatype>black</alphatype>
                <pixelaspectratio>square</pixelaspectratio>
                <anamorphic>FALSE</anamorphic>
                <file id="file-154">
                  <name>00375.MTS</name>
                  <pathurl>file://localhost/Volumes/Macintosh%20HD/Users/jacksongs/Desktop/STREAM/00375.MTS</pathurl>
                  <rate>
                    <timebase>24</timebase>
                    <ntsc>TRUE</ntsc>
                  </rate>
                  <duration>217</duration>
                  <timecode>
                    <rate>
                      <timebase>24</timebase>
                      <ntsc>TRUE</ntsc>
                    </rate>
                    <string>00:00:00:00</string>
                    <frame>0</frame>
                    <displayformat>NDF</displayformat>
                    <reel>
                      <name/>
                    </reel>
                  </timecode>
                  <media>
                    <video>
                      <duration>18000</duration>
                      <samplecharacteristics>
                        <rate>
                          <timebase>24</timebase>
                          <ntsc>TRUE</ntsc>
                        </rate>
                        <width>1920</width>
                        <height>1080</height>
                        <anamorphic>FALSE</anamorphic>
                        <pixelaspectratio>square</pixelaspectratio>
                        <fielddominance>none</fielddominance>
                      </samplecharacteristics>
                    </video>
                    <audio>
                      <samplecharacteristics>
                        <depth>16</depth>
                        <samplerate>48000</samplerate>
                      </samplecharacteristics>
                      <channelcount>2</channelcount>
                    </audio>
                  </media>
                </file>
                <link>
                  <linkclipref>clipitem-472</linkclipref>
                  <mediatype>video</mediatype>
                  <trackindex>1</trackindex>
                  <clipindex>1</clipindex>
                </link>
                <link>
                  <linkclipref>clipitem-473</linkclipref>
                  <mediatype>audio</mediatype>
                  <trackindex>1</trackindex>
                  <clipindex>1</clipindex>
                  <groupindex>1</groupindex>
                </link>
                <link>
                  <linkclipref>clipitem-474</linkclipref>
                  <mediatype>audio</mediatype>
                  <trackindex>2</trackindex>
                  <clipindex>1</clipindex>
                  <groupindex>1</groupindex>
                </link>
              </clipitem>
            </track>
          </video>
          <audio>
            <track>
              <clipitem id="clipitem-473" frameBlend="FALSE">
                <masterclipid>masterclip-154</masterclipid>
                <name>00375.MTS</name>
                <file id="file-154"/>
                <sourcetrack>
                  <mediatype>audio</mediatype>
                  <trackindex>1</trackindex>
                </sourcetrack>
                <link>
                  <linkclipref>clipitem-472</linkclipref>
                  <mediatype>video</mediatype>
                  <trackindex>1</trackindex>
                  <clipindex>1</clipindex>
                </link>
                <link>
                  <linkclipref>clipitem-473</linkclipref>
                  <mediatype>audio</mediatype>
                  <trackindex>1</trackindex>
                  <clipindex>1</clipindex>
                  <groupindex>1</groupindex>
                </link>
                <link>
                  <linkclipref>clipitem-474</linkclipref>
                  <mediatype>audio</mediatype>
                  <trackindex>2</trackindex>
                  <clipindex>1</clipindex>
                  <groupindex>1</groupindex>
                </link>
              </clipitem>
            </track>
            <track>
              <clipitem id="clipitem-474" frameBlend="FALSE">
                <masterclipid>masterclip-154</masterclipid>
                <name>00375.MTS</name>
                <file id="file-154"/>
                <sourcetrack>
                  <mediatype>audio</mediatype>
                  <trackindex>2</trackindex>
                </sourcetrack>
                <link>
                  <linkclipref>clipitem-472</linkclipref>
                  <mediatype>video</mediatype>
                  <trackindex>1</trackindex>
                  <clipindex>1</clipindex>
                </link>
                <link>
                  <linkclipref>clipitem-473</linkclipref>
                  <mediatype>audio</mediatype>
                  <trackindex>1</trackindex>
                  <clipindex>1</clipindex>
                  <groupindex>1</groupindex>
                </link>
                <link>
                  <linkclipref>clipitem-474</linkclipref>
                  <mediatype>audio</mediatype>
                  <trackindex>2</trackindex>
                  <clipindex>1</clipindex>
                  <groupindex>1</groupindex>
                </link>
              </clipitem>
            </track>
          </audio>
        </media>
        <logginginfo>
          <description/>
          <scene/>
          <shottake/>
          <lognote/>
        </logginginfo>
      </clip>
      <clip id="masterclip-155" frameBlend="FALSE">
        <uuid>341a29b1-78b1-4cfa-b3f3-a8c4f4ac67f6</uuid>
        <masterclipid>masterclip-155</masterclipid>
        <ismasterclip>TRUE</ismasterclip>
        <duration>169</duration>
        <rate>
          <timebase>24</timebase>
          <ntsc>TRUE</ntsc>
        </rate>
        <name>00376.MTS</name>
        <media>
          <video>
            <track>
              <clipitem id="clipitem-475" frameBlend="FALSE">
                <masterclipid>masterclip-155</masterclipid>
                <name>00376.MTS</name>
                <alphatype>black</alphatype>
                <pixelaspectratio>square</pixelaspectratio>
                <anamorphic>FALSE</anamorphic>
                <file id="file-155">
                  <name>00376.MTS</name>
                  <pathurl>file://localhost/Volumes/Macintosh%20HD/Users/jacksongs/Desktop/STREAM/00376.MTS</pathurl>
                  <rate>
                    <timebase>24</timebase>
                    <ntsc>TRUE</ntsc>
                  </rate>
                  <duration>169</duration>
                  <timecode>
                    <rate>
                      <timebase>24</timebase>
                      <ntsc>TRUE</ntsc>
                    </rate>
                    <string>00:00:00:00</string>
                    <frame>0</frame>
                    <displayformat>NDF</displayformat>
                    <reel>
                      <name/>
                    </reel>
                  </timecode>
                  <media>
                    <video>
                      <duration>18000</duration>
                      <samplecharacteristics>
                        <rate>
                          <timebase>24</timebase>
                          <ntsc>TRUE</ntsc>
                        </rate>
                        <width>1920</width>
                        <height>1080</height>
                        <anamorphic>FALSE</anamorphic>
                        <pixelaspectratio>square</pixelaspectratio>
                        <fielddominance>none</fielddominance>
                      </samplecharacteristics>
                    </video>
                    <audio>
                      <samplecharacteristics>
                        <depth>16</depth>
                        <samplerate>48000</samplerate>
                      </samplecharacteristics>
                      <channelcount>2</channelcount>
                    </audio>
                  </media>
                </file>
                <link>
                  <linkclipref>clipitem-475</linkclipref>
                  <mediatype>video</mediatype>
                  <trackindex>1</trackindex>
                  <clipindex>1</clipindex>
                </link>
                <link>
                  <linkclipref>clipitem-476</linkclipref>
                  <mediatype>audio</mediatype>
                  <trackindex>1</trackindex>
                  <clipindex>1</clipindex>
                  <groupindex>1</groupindex>
                </link>
                <link>
                  <linkclipref>clipitem-477</linkclipref>
                  <mediatype>audio</mediatype>
                  <trackindex>2</trackindex>
                  <clipindex>1</clipindex>
                  <groupindex>1</groupindex>
                </link>
              </clipitem>
            </track>
          </video>
          <audio>
            <track>
              <clipitem id="clipitem-476" frameBlend="FALSE">
                <masterclipid>masterclip-155</masterclipid>
                <name>00376.MTS</name>
                <file id="file-155"/>
                <sourcetrack>
                  <mediatype>audio</mediatype>
                  <trackindex>1</trackindex>
                </sourcetrack>
                <link>
                  <linkclipref>clipitem-475</linkclipref>
                  <mediatype>video</mediatype>
                  <trackindex>1</trackindex>
                  <clipindex>1</clipindex>
                </link>
                <link>
                  <linkclipref>clipitem-476</linkclipref>
                  <mediatype>audio</mediatype>
                  <trackindex>1</trackindex>
                  <clipindex>1</clipindex>
                  <groupindex>1</groupindex>
                </link>
                <link>
                  <linkclipref>clipitem-477</linkclipref>
                  <mediatype>audio</mediatype>
                  <trackindex>2</trackindex>
                  <clipindex>1</clipindex>
                  <groupindex>1</groupindex>
                </link>
              </clipitem>
            </track>
            <track>
              <clipitem id="clipitem-477" frameBlend="FALSE">
                <masterclipid>masterclip-155</masterclipid>
                <name>00376.MTS</name>
                <file id="file-155"/>
                <sourcetrack>
                  <mediatype>audio</mediatype>
                  <trackindex>2</trackindex>
                </sourcetrack>
                <link>
                  <linkclipref>clipitem-475</linkclipref>
                  <mediatype>video</mediatype>
                  <trackindex>1</trackindex>
                  <clipindex>1</clipindex>
                </link>
                <link>
                  <linkclipref>clipitem-476</linkclipref>
                  <mediatype>audio</mediatype>
                  <trackindex>1</trackindex>
                  <clipindex>1</clipindex>
                  <groupindex>1</groupindex>
                </link>
                <link>
                  <linkclipref>clipitem-477</linkclipref>
                  <mediatype>audio</mediatype>
                  <trackindex>2</trackindex>
                  <clipindex>1</clipindex>
                  <groupindex>1</groupindex>
                </link>
              </clipitem>
            </track>
          </audio>
        </media>
        <logginginfo>
          <description/>
          <scene/>
          <shottake/>
          <lognote/>
        </logginginfo>
      </clip>
      <clip id="masterclip-156" frameBlend="FALSE">
        <uuid>0d1e0e00-ac68-4d0d-afcc-7121647d92f1</uuid>
        <masterclipid>masterclip-156</masterclipid>
        <ismasterclip>TRUE</ismasterclip>
        <duration>265</duration>
        <rate>
          <timebase>24</timebase>
          <ntsc>TRUE</ntsc>
        </rate>
        <name>00377.MTS</name>
        <media>
          <video>
            <track>
              <clipitem id="clipitem-478" frameBlend="FALSE">
                <masterclipid>masterclip-156</masterclipid>
                <name>00377.MTS</name>
                <alphatype>black</alphatype>
                <pixelaspectratio>square</pixelaspectratio>
                <anamorphic>FALSE</anamorphic>
                <file id="file-156">
                  <name>00377.MTS</name>
                  <pathurl>file://localhost/Volumes/Macintosh%20HD/Users/jacksongs/Desktop/STREAM/00377.MTS</pathurl>
                  <rate>
                    <timebase>24</timebase>
                    <ntsc>TRUE</ntsc>
                  </rate>
                  <duration>265</duration>
                  <timecode>
                    <rate>
                      <timebase>24</timebase>
                      <ntsc>TRUE</ntsc>
                    </rate>
                    <string>00:00:00:00</string>
                    <frame>0</frame>
                    <displayformat>NDF</displayformat>
                    <reel>
                      <name/>
                    </reel>
                  </timecode>
                  <media>
                    <video>
                      <duration>18000</duration>
                      <samplecharacteristics>
                        <rate>
                          <timebase>24</timebase>
                          <ntsc>TRUE</ntsc>
                        </rate>
                        <width>1920</width>
                        <height>1080</height>
                        <anamorphic>FALSE</anamorphic>
                        <pixelaspectratio>square</pixelaspectratio>
                        <fielddominance>none</fielddominance>
                      </samplecharacteristics>
                    </video>
                    <audio>
                      <samplecharacteristics>
                        <depth>16</depth>
                        <samplerate>48000</samplerate>
                      </samplecharacteristics>
                      <channelcount>2</channelcount>
                    </audio>
                  </media>
                </file>
                <link>
                  <linkclipref>clipitem-478</linkclipref>
                  <mediatype>video</mediatype>
                  <trackindex>1</trackindex>
                  <clipindex>1</clipindex>
                </link>
                <link>
                  <linkclipref>clipitem-479</linkclipref>
                  <mediatype>audio</mediatype>
                  <trackindex>1</trackindex>
                  <clipindex>1</clipindex>
                  <groupindex>1</groupindex>
                </link>
                <link>
                  <linkclipref>clipitem-480</linkclipref>
                  <mediatype>audio</mediatype>
                  <trackindex>2</trackindex>
                  <clipindex>1</clipindex>
                  <groupindex>1</groupindex>
                </link>
              </clipitem>
            </track>
          </video>
          <audio>
            <track>
              <clipitem id="clipitem-479" frameBlend="FALSE">
                <masterclipid>masterclip-156</masterclipid>
                <name>00377.MTS</name>
                <file id="file-156"/>
                <sourcetrack>
                  <mediatype>audio</mediatype>
                  <trackindex>1</trackindex>
                </sourcetrack>
                <link>
                  <linkclipref>clipitem-478</linkclipref>
                  <mediatype>video</mediatype>
                  <trackindex>1</trackindex>
                  <clipindex>1</clipindex>
                </link>
                <link>
                  <linkclipref>clipitem-479</linkclipref>
                  <mediatype>audio</mediatype>
                  <trackindex>1</trackindex>
                  <clipindex>1</clipindex>
                  <groupindex>1</groupindex>
                </link>
                <link>
                  <linkclipref>clipitem-480</linkclipref>
                  <mediatype>audio</mediatype>
                  <trackindex>2</trackindex>
                  <clipindex>1</clipindex>
                  <groupindex>1</groupindex>
                </link>
              </clipitem>
            </track>
            <track>
              <clipitem id="clipitem-480" frameBlend="FALSE">
                <masterclipid>masterclip-156</masterclipid>
                <name>00377.MTS</name>
                <file id="file-156"/>
                <sourcetrack>
                  <mediatype>audio</mediatype>
                  <trackindex>2</trackindex>
                </sourcetrack>
                <link>
                  <linkclipref>clipitem-478</linkclipref>
                  <mediatype>video</mediatype>
                  <trackindex>1</trackindex>
                  <clipindex>1</clipindex>
                </link>
                <link>
                  <linkclipref>clipitem-479</linkclipref>
                  <mediatype>audio</mediatype>
                  <trackindex>1</trackindex>
                  <clipindex>1</clipindex>
                  <groupindex>1</groupindex>
                </link>
                <link>
                  <linkclipref>clipitem-480</linkclipref>
                  <mediatype>audio</mediatype>
                  <trackindex>2</trackindex>
                  <clipindex>1</clipindex>
                  <groupindex>1</groupindex>
                </link>
              </clipitem>
            </track>
          </audio>
        </media>
        <logginginfo>
          <description/>
          <scene/>
          <shottake/>
          <lognote/>
        </logginginfo>
      </clip>
      <clip id="masterclip-157" frameBlend="FALSE">
        <uuid>47c497e6-2caa-4979-8e77-66801ee5f9d8</uuid>
        <masterclipid>masterclip-157</masterclipid>
        <ismasterclip>TRUE</ismasterclip>
        <duration>181</duration>
        <rate>
          <timebase>24</timebase>
          <ntsc>TRUE</ntsc>
        </rate>
        <name>00378.MTS</name>
        <media>
          <video>
            <track>
              <clipitem id="clipitem-481" frameBlend="FALSE">
                <masterclipid>masterclip-157</masterclipid>
                <name>00378.MTS</name>
                <alphatype>black</alphatype>
                <pixelaspectratio>square</pixelaspectratio>
                <anamorphic>FALSE</anamorphic>
                <file id="file-157">
                  <name>00378.MTS</name>
                  <pathurl>file://localhost/Volumes/Macintosh%20HD/Users/jacksongs/Desktop/STREAM/00378.MTS</pathurl>
                  <rate>
                    <timebase>24</timebase>
                    <ntsc>TRUE</ntsc>
                  </rate>
                  <duration>181</duration>
                  <timecode>
                    <rate>
                      <timebase>24</timebase>
                      <ntsc>TRUE</ntsc>
                    </rate>
                    <string>00:00:00:00</string>
                    <frame>0</frame>
                    <displayformat>NDF</displayformat>
                    <reel>
                      <name/>
                    </reel>
                  </timecode>
                  <media>
                    <video>
                      <duration>18000</duration>
                      <samplecharacteristics>
                        <rate>
                          <timebase>24</timebase>
                          <ntsc>TRUE</ntsc>
                        </rate>
                        <width>1920</width>
                        <height>1080</height>
                        <anamorphic>FALSE</anamorphic>
                        <pixelaspectratio>square</pixelaspectratio>
                        <fielddominance>none</fielddominance>
                      </samplecharacteristics>
                    </video>
                    <audio>
                      <samplecharacteristics>
                        <depth>16</depth>
                        <samplerate>48000</samplerate>
                      </samplecharacteristics>
                      <channelcount>2</channelcount>
                    </audio>
                  </media>
                </file>
                <link>
                  <linkclipref>clipitem-481</linkclipref>
                  <mediatype>video</mediatype>
                  <trackindex>1</trackindex>
                  <clipindex>1</clipindex>
                </link>
                <link>
                  <linkclipref>clipitem-482</linkclipref>
                  <mediatype>audio</mediatype>
                  <trackindex>1</trackindex>
                  <clipindex>1</clipindex>
                  <groupindex>1</groupindex>
                </link>
                <link>
                  <linkclipref>clipitem-483</linkclipref>
                  <mediatype>audio</mediatype>
                  <trackindex>2</trackindex>
                  <clipindex>1</clipindex>
                  <groupindex>1</groupindex>
                </link>
              </clipitem>
            </track>
          </video>
          <audio>
            <track>
              <clipitem id="clipitem-482" frameBlend="FALSE">
                <masterclipid>masterclip-157</masterclipid>
                <name>00378.MTS</name>
                <file id="file-157"/>
                <sourcetrack>
                  <mediatype>audio</mediatype>
                  <trackindex>1</trackindex>
                </sourcetrack>
                <link>
                  <linkclipref>clipitem-481</linkclipref>
                  <mediatype>video</mediatype>
                  <trackindex>1</trackindex>
                  <clipindex>1</clipindex>
                </link>
                <link>
                  <linkclipref>clipitem-482</linkclipref>
                  <mediatype>audio</mediatype>
                  <trackindex>1</trackindex>
                  <clipindex>1</clipindex>
                  <groupindex>1</groupindex>
                </link>
                <link>
                  <linkclipref>clipitem-483</linkclipref>
                  <mediatype>audio</mediatype>
                  <trackindex>2</trackindex>
                  <clipindex>1</clipindex>
                  <groupindex>1</groupindex>
                </link>
              </clipitem>
            </track>
            <track>
              <clipitem id="clipitem-483" frameBlend="FALSE">
                <masterclipid>masterclip-157</masterclipid>
                <name>00378.MTS</name>
                <file id="file-157"/>
                <sourcetrack>
                  <mediatype>audio</mediatype>
                  <trackindex>2</trackindex>
                </sourcetrack>
                <link>
                  <linkclipref>clipitem-481</linkclipref>
                  <mediatype>video</mediatype>
                  <trackindex>1</trackindex>
                  <clipindex>1</clipindex>
                </link>
                <link>
                  <linkclipref>clipitem-482</linkclipref>
                  <mediatype>audio</mediatype>
                  <trackindex>1</trackindex>
                  <clipindex>1</clipindex>
                  <groupindex>1</groupindex>
                </link>
                <link>
                  <linkclipref>clipitem-483</linkclipref>
                  <mediatype>audio</mediatype>
                  <trackindex>2</trackindex>
                  <clipindex>1</clipindex>
                  <groupindex>1</groupindex>
                </link>
              </clipitem>
            </track>
          </audio>
        </media>
        <logginginfo>
          <description/>
          <scene/>
          <shottake/>
          <lognote/>
        </logginginfo>
      </clip>
      <clip id="masterclip-158" frameBlend="FALSE">
        <uuid>e390a427-a68e-4b44-98c5-89a57893b1a3</uuid>
        <masterclipid>masterclip-158</masterclipid>
        <ismasterclip>TRUE</ismasterclip>
        <duration>565</duration>
        <rate>
          <timebase>24</timebase>
          <ntsc>TRUE</ntsc>
        </rate>
        <name>00379.MTS</name>
        <media>
          <video>
            <track>
              <clipitem id="clipitem-484" frameBlend="FALSE">
                <masterclipid>masterclip-158</masterclipid>
                <name>00379.MTS</name>
                <alphatype>black</alphatype>
                <pixelaspectratio>square</pixelaspectratio>
                <anamorphic>FALSE</anamorphic>
                <file id="file-158">
                  <name>00379.MTS</name>
                  <pathurl>file://localhost/Volumes/Macintosh%20HD/Users/jacksongs/Desktop/STREAM/00379.MTS</pathurl>
                  <rate>
                    <timebase>24</timebase>
                    <ntsc>TRUE</ntsc>
                  </rate>
                  <duration>565</duration>
                  <timecode>
                    <rate>
                      <timebase>24</timebase>
                      <ntsc>TRUE</ntsc>
                    </rate>
                    <string>00:00:00:00</string>
                    <frame>0</frame>
                    <displayformat>NDF</displayformat>
                    <reel>
                      <name/>
                    </reel>
                  </timecode>
                  <media>
                    <video>
                      <duration>18000</duration>
                      <samplecharacteristics>
                        <rate>
                          <timebase>24</timebase>
                          <ntsc>TRUE</ntsc>
                        </rate>
                        <width>1920</width>
                        <height>1080</height>
                        <anamorphic>FALSE</anamorphic>
                        <pixelaspectratio>square</pixelaspectratio>
                        <fielddominance>none</fielddominance>
                      </samplecharacteristics>
                    </video>
                    <audio>
                      <samplecharacteristics>
                        <depth>16</depth>
                        <samplerate>48000</samplerate>
                      </samplecharacteristics>
                      <channelcount>2</channelcount>
                    </audio>
                  </media>
                </file>
                <link>
                  <linkclipref>clipitem-484</linkclipref>
                  <mediatype>video</mediatype>
                  <trackindex>1</trackindex>
                  <clipindex>1</clipindex>
                </link>
                <link>
                  <linkclipref>clipitem-485</linkclipref>
                  <mediatype>audio</mediatype>
                  <trackindex>1</trackindex>
                  <clipindex>1</clipindex>
                  <groupindex>1</groupindex>
                </link>
                <link>
                  <linkclipref>clipitem-486</linkclipref>
                  <mediatype>audio</mediatype>
                  <trackindex>2</trackindex>
                  <clipindex>1</clipindex>
                  <groupindex>1</groupindex>
                </link>
              </clipitem>
            </track>
          </video>
          <audio>
            <track>
              <clipitem id="clipitem-485" frameBlend="FALSE">
                <masterclipid>masterclip-158</masterclipid>
                <name>00379.MTS</name>
                <file id="file-158"/>
                <sourcetrack>
                  <mediatype>audio</mediatype>
                  <trackindex>1</trackindex>
                </sourcetrack>
                <link>
                  <linkclipref>clipitem-484</linkclipref>
                  <mediatype>video</mediatype>
                  <trackindex>1</trackindex>
                  <clipindex>1</clipindex>
                </link>
                <link>
                  <linkclipref>clipitem-485</linkclipref>
                  <mediatype>audio</mediatype>
                  <trackindex>1</trackindex>
                  <clipindex>1</clipindex>
                  <groupindex>1</groupindex>
                </link>
                <link>
                  <linkclipref>clipitem-486</linkclipref>
                  <mediatype>audio</mediatype>
                  <trackindex>2</trackindex>
                  <clipindex>1</clipindex>
                  <groupindex>1</groupindex>
                </link>
              </clipitem>
            </track>
            <track>
              <clipitem id="clipitem-486" frameBlend="FALSE">
                <masterclipid>masterclip-158</masterclipid>
                <name>00379.MTS</name>
                <file id="file-158"/>
                <sourcetrack>
                  <mediatype>audio</mediatype>
                  <trackindex>2</trackindex>
                </sourcetrack>
                <link>
                  <linkclipref>clipitem-484</linkclipref>
                  <mediatype>video</mediatype>
                  <trackindex>1</trackindex>
                  <clipindex>1</clipindex>
                </link>
                <link>
                  <linkclipref>clipitem-485</linkclipref>
                  <mediatype>audio</mediatype>
                  <trackindex>1</trackindex>
                  <clipindex>1</clipindex>
                  <groupindex>1</groupindex>
                </link>
                <link>
                  <linkclipref>clipitem-486</linkclipref>
                  <mediatype>audio</mediatype>
                  <trackindex>2</trackindex>
                  <clipindex>1</clipindex>
                  <groupindex>1</groupindex>
                </link>
              </clipitem>
            </track>
          </audio>
        </media>
        <logginginfo>
          <description/>
          <scene/>
          <shottake/>
          <lognote/>
        </logginginfo>
      </clip>
      <clip id="masterclip-159" frameBlend="FALSE">
        <uuid>8aec287a-0133-425b-8250-bec059877674</uuid>
        <masterclipid>masterclip-159</masterclipid>
        <ismasterclip>TRUE</ismasterclip>
        <duration>541</duration>
        <rate>
          <timebase>24</timebase>
          <ntsc>TRUE</ntsc>
        </rate>
        <name>00380.MTS</name>
        <media>
          <video>
            <track>
              <clipitem id="clipitem-487" frameBlend="FALSE">
                <masterclipid>masterclip-159</masterclipid>
                <name>00380.MTS</name>
                <alphatype>black</alphatype>
                <pixelaspectratio>square</pixelaspectratio>
                <anamorphic>FALSE</anamorphic>
                <file id="file-159">
                  <name>00380.MTS</name>
                  <pathurl>file://localhost/Volumes/Macintosh%20HD/Users/jacksongs/Desktop/STREAM/00380.MTS</pathurl>
                  <rate>
                    <timebase>24</timebase>
                    <ntsc>TRUE</ntsc>
                  </rate>
                  <duration>541</duration>
                  <timecode>
                    <rate>
                      <timebase>24</timebase>
                      <ntsc>TRUE</ntsc>
                    </rate>
                    <string>00:00:00:00</string>
                    <frame>0</frame>
                    <displayformat>NDF</displayformat>
                    <reel>
                      <name/>
                    </reel>
                  </timecode>
                  <media>
                    <video>
                      <duration>18000</duration>
                      <samplecharacteristics>
                        <rate>
                          <timebase>24</timebase>
                          <ntsc>TRUE</ntsc>
                        </rate>
                        <width>1920</width>
                        <height>1080</height>
                        <anamorphic>FALSE</anamorphic>
                        <pixelaspectratio>square</pixelaspectratio>
                        <fielddominance>none</fielddominance>
                      </samplecharacteristics>
                    </video>
                    <audio>
                      <samplecharacteristics>
                        <depth>16</depth>
                        <samplerate>48000</samplerate>
                      </samplecharacteristics>
                      <channelcount>2</channelcount>
                    </audio>
                  </media>
                </file>
                <link>
                  <linkclipref>clipitem-487</linkclipref>
                  <mediatype>video</mediatype>
                  <trackindex>1</trackindex>
                  <clipindex>1</clipindex>
                </link>
                <link>
                  <linkclipref>clipitem-488</linkclipref>
                  <mediatype>audio</mediatype>
                  <trackindex>1</trackindex>
                  <clipindex>1</clipindex>
                  <groupindex>1</groupindex>
                </link>
                <link>
                  <linkclipref>clipitem-489</linkclipref>
                  <mediatype>audio</mediatype>
                  <trackindex>2</trackindex>
                  <clipindex>1</clipindex>
                  <groupindex>1</groupindex>
                </link>
              </clipitem>
            </track>
          </video>
          <audio>
            <track>
              <clipitem id="clipitem-488" frameBlend="FALSE">
                <masterclipid>masterclip-159</masterclipid>
                <name>00380.MTS</name>
                <file id="file-159"/>
                <sourcetrack>
                  <mediatype>audio</mediatype>
                  <trackindex>1</trackindex>
                </sourcetrack>
                <link>
                  <linkclipref>clipitem-487</linkclipref>
                  <mediatype>video</mediatype>
                  <trackindex>1</trackindex>
                  <clipindex>1</clipindex>
                </link>
                <link>
                  <linkclipref>clipitem-488</linkclipref>
                  <mediatype>audio</mediatype>
                  <trackindex>1</trackindex>
                  <clipindex>1</clipindex>
                  <groupindex>1</groupindex>
                </link>
                <link>
                  <linkclipref>clipitem-489</linkclipref>
                  <mediatype>audio</mediatype>
                  <trackindex>2</trackindex>
                  <clipindex>1</clipindex>
                  <groupindex>1</groupindex>
                </link>
              </clipitem>
            </track>
            <track>
              <clipitem id="clipitem-489" frameBlend="FALSE">
                <masterclipid>masterclip-159</masterclipid>
                <name>00380.MTS</name>
                <file id="file-159"/>
                <sourcetrack>
                  <mediatype>audio</mediatype>
                  <trackindex>2</trackindex>
                </sourcetrack>
                <link>
                  <linkclipref>clipitem-487</linkclipref>
                  <mediatype>video</mediatype>
                  <trackindex>1</trackindex>
                  <clipindex>1</clipindex>
                </link>
                <link>
                  <linkclipref>clipitem-488</linkclipref>
                  <mediatype>audio</mediatype>
                  <trackindex>1</trackindex>
                  <clipindex>1</clipindex>
                  <groupindex>1</groupindex>
                </link>
                <link>
                  <linkclipref>clipitem-489</linkclipref>
                  <mediatype>audio</mediatype>
                  <trackindex>2</trackindex>
                  <clipindex>1</clipindex>
                  <groupindex>1</groupindex>
                </link>
              </clipitem>
            </track>
          </audio>
        </media>
        <logginginfo>
          <description/>
          <scene/>
          <shottake/>
          <lognote/>
        </logginginfo>
      </clip>
      <clip id="masterclip-160" frameBlend="FALSE">
        <uuid>f2c23687-9333-4545-8f74-89541c59a16d</uuid>
        <masterclipid>masterclip-160</masterclipid>
        <ismasterclip>TRUE</ismasterclip>
        <duration>253</duration>
        <rate>
          <timebase>24</timebase>
          <ntsc>TRUE</ntsc>
        </rate>
        <name>00381.MTS</name>
        <media>
          <video>
            <track>
              <clipitem id="clipitem-490" frameBlend="FALSE">
                <masterclipid>masterclip-160</masterclipid>
                <name>00381.MTS</name>
                <alphatype>black</alphatype>
                <pixelaspectratio>square</pixelaspectratio>
                <anamorphic>FALSE</anamorphic>
                <file id="file-160">
                  <name>00381.MTS</name>
                  <pathurl>file://localhost/Volumes/Macintosh%20HD/Users/jacksongs/Desktop/STREAM/00381.MTS</pathurl>
                  <rate>
                    <timebase>24</timebase>
                    <ntsc>TRUE</ntsc>
                  </rate>
                  <duration>253</duration>
                  <timecode>
                    <rate>
                      <timebase>24</timebase>
                      <ntsc>TRUE</ntsc>
                    </rate>
                    <string>00:00:00:00</string>
                    <frame>0</frame>
                    <displayformat>NDF</displayformat>
                    <reel>
                      <name/>
                    </reel>
                  </timecode>
                  <media>
                    <video>
                      <duration>18000</duration>
                      <samplecharacteristics>
                        <rate>
                          <timebase>24</timebase>
                          <ntsc>TRUE</ntsc>
                        </rate>
                        <width>1920</width>
                        <height>1080</height>
                        <anamorphic>FALSE</anamorphic>
                        <pixelaspectratio>square</pixelaspectratio>
                        <fielddominance>none</fielddominance>
                      </samplecharacteristics>
                    </video>
                    <audio>
                      <samplecharacteristics>
                        <depth>16</depth>
                        <samplerate>48000</samplerate>
                      </samplecharacteristics>
                      <channelcount>2</channelcount>
                    </audio>
                  </media>
                </file>
                <link>
                  <linkclipref>clipitem-490</linkclipref>
                  <mediatype>video</mediatype>
                  <trackindex>1</trackindex>
                  <clipindex>1</clipindex>
                </link>
                <link>
                  <linkclipref>clipitem-491</linkclipref>
                  <mediatype>audio</mediatype>
                  <trackindex>1</trackindex>
                  <clipindex>1</clipindex>
                  <groupindex>1</groupindex>
                </link>
                <link>
                  <linkclipref>clipitem-492</linkclipref>
                  <mediatype>audio</mediatype>
                  <trackindex>2</trackindex>
                  <clipindex>1</clipindex>
                  <groupindex>1</groupindex>
                </link>
              </clipitem>
            </track>
          </video>
          <audio>
            <track>
              <clipitem id="clipitem-491" frameBlend="FALSE">
                <masterclipid>masterclip-160</masterclipid>
                <name>00381.MTS</name>
                <file id="file-160"/>
                <sourcetrack>
                  <mediatype>audio</mediatype>
                  <trackindex>1</trackindex>
                </sourcetrack>
                <link>
                  <linkclipref>clipitem-490</linkclipref>
                  <mediatype>video</mediatype>
                  <trackindex>1</trackindex>
                  <clipindex>1</clipindex>
                </link>
                <link>
                  <linkclipref>clipitem-491</linkclipref>
                  <mediatype>audio</mediatype>
                  <trackindex>1</trackindex>
                  <clipindex>1</clipindex>
                  <groupindex>1</groupindex>
                </link>
                <link>
                  <linkclipref>clipitem-492</linkclipref>
                  <mediatype>audio</mediatype>
                  <trackindex>2</trackindex>
                  <clipindex>1</clipindex>
                  <groupindex>1</groupindex>
                </link>
              </clipitem>
            </track>
            <track>
              <clipitem id="clipitem-492" frameBlend="FALSE">
                <masterclipid>masterclip-160</masterclipid>
                <name>00381.MTS</name>
                <file id="file-160"/>
                <sourcetrack>
                  <mediatype>audio</mediatype>
                  <trackindex>2</trackindex>
                </sourcetrack>
                <link>
                  <linkclipref>clipitem-490</linkclipref>
                  <mediatype>video</mediatype>
                  <trackindex>1</trackindex>
                  <clipindex>1</clipindex>
                </link>
                <link>
                  <linkclipref>clipitem-491</linkclipref>
                  <mediatype>audio</mediatype>
                  <trackindex>1</trackindex>
                  <clipindex>1</clipindex>
                  <groupindex>1</groupindex>
                </link>
                <link>
                  <linkclipref>clipitem-492</linkclipref>
                  <mediatype>audio</mediatype>
                  <trackindex>2</trackindex>
                  <clipindex>1</clipindex>
                  <groupindex>1</groupindex>
                </link>
              </clipitem>
            </track>
          </audio>
        </media>
        <logginginfo>
          <description/>
          <scene/>
          <shottake/>
          <lognote/>
        </logginginfo>
      </clip>
      <clip id="masterclip-161" frameBlend="FALSE">
        <uuid>7e100bce-f545-459e-abcb-90b410c36fe4</uuid>
        <masterclipid>masterclip-161</masterclipid>
        <ismasterclip>TRUE</ismasterclip>
        <duration>349</duration>
        <rate>
          <timebase>24</timebase>
          <ntsc>TRUE</ntsc>
        </rate>
        <name>00382.MTS</name>
        <media>
          <video>
            <track>
              <clipitem id="clipitem-493" frameBlend="FALSE">
                <masterclipid>masterclip-161</masterclipid>
                <name>00382.MTS</name>
                <alphatype>black</alphatype>
                <pixelaspectratio>square</pixelaspectratio>
                <anamorphic>FALSE</anamorphic>
                <file id="file-161">
                  <name>00382.MTS</name>
                  <pathurl>file://localhost/Volumes/Macintosh%20HD/Users/jacksongs/Desktop/STREAM/00382.MTS</pathurl>
                  <rate>
                    <timebase>24</timebase>
                    <ntsc>TRUE</ntsc>
                  </rate>
                  <duration>349</duration>
                  <timecode>
                    <rate>
                      <timebase>24</timebase>
                      <ntsc>TRUE</ntsc>
                    </rate>
                    <string>00:00:00:00</string>
                    <frame>0</frame>
                    <displayformat>NDF</displayformat>
                    <reel>
                      <name/>
                    </reel>
                  </timecode>
                  <media>
                    <video>
                      <duration>18000</duration>
                      <samplecharacteristics>
                        <rate>
                          <timebase>24</timebase>
                          <ntsc>TRUE</ntsc>
                        </rate>
                        <width>1920</width>
                        <height>1080</height>
                        <anamorphic>FALSE</anamorphic>
                        <pixelaspectratio>square</pixelaspectratio>
                        <fielddominance>none</fielddominance>
                      </samplecharacteristics>
                    </video>
                    <audio>
                      <samplecharacteristics>
                        <depth>16</depth>
                        <samplerate>48000</samplerate>
                      </samplecharacteristics>
                      <channelcount>2</channelcount>
                    </audio>
                  </media>
                </file>
                <link>
                  <linkclipref>clipitem-493</linkclipref>
                  <mediatype>video</mediatype>
                  <trackindex>1</trackindex>
                  <clipindex>1</clipindex>
                </link>
                <link>
                  <linkclipref>clipitem-494</linkclipref>
                  <mediatype>audio</mediatype>
                  <trackindex>1</trackindex>
                  <clipindex>1</clipindex>
                  <groupindex>1</groupindex>
                </link>
                <link>
                  <linkclipref>clipitem-495</linkclipref>
                  <mediatype>audio</mediatype>
                  <trackindex>2</trackindex>
                  <clipindex>1</clipindex>
                  <groupindex>1</groupindex>
                </link>
              </clipitem>
            </track>
          </video>
          <audio>
            <track>
              <clipitem id="clipitem-494" frameBlend="FALSE">
                <masterclipid>masterclip-161</masterclipid>
                <name>00382.MTS</name>
                <file id="file-161"/>
                <sourcetrack>
                  <mediatype>audio</mediatype>
                  <trackindex>1</trackindex>
                </sourcetrack>
                <link>
                  <linkclipref>clipitem-493</linkclipref>
                  <mediatype>video</mediatype>
                  <trackindex>1</trackindex>
                  <clipindex>1</clipindex>
                </link>
                <link>
                  <linkclipref>clipitem-494</linkclipref>
                  <mediatype>audio</mediatype>
                  <trackindex>1</trackindex>
                  <clipindex>1</clipindex>
                  <groupindex>1</groupindex>
                </link>
                <link>
                  <linkclipref>clipitem-495</linkclipref>
                  <mediatype>audio</mediatype>
                  <trackindex>2</trackindex>
                  <clipindex>1</clipindex>
                  <groupindex>1</groupindex>
                </link>
              </clipitem>
            </track>
            <track>
              <clipitem id="clipitem-495" frameBlend="FALSE">
                <masterclipid>masterclip-161</masterclipid>
                <name>00382.MTS</name>
                <file id="file-161"/>
                <sourcetrack>
                  <mediatype>audio</mediatype>
                  <trackindex>2</trackindex>
                </sourcetrack>
                <link>
                  <linkclipref>clipitem-493</linkclipref>
                  <mediatype>video</mediatype>
                  <trackindex>1</trackindex>
                  <clipindex>1</clipindex>
                </link>
                <link>
                  <linkclipref>clipitem-494</linkclipref>
                  <mediatype>audio</mediatype>
                  <trackindex>1</trackindex>
                  <clipindex>1</clipindex>
                  <groupindex>1</groupindex>
                </link>
                <link>
                  <linkclipref>clipitem-495</linkclipref>
                  <mediatype>audio</mediatype>
                  <trackindex>2</trackindex>
                  <clipindex>1</clipindex>
                  <groupindex>1</groupindex>
                </link>
              </clipitem>
            </track>
          </audio>
        </media>
        <logginginfo>
          <description/>
          <scene/>
          <shottake/>
          <lognote/>
        </logginginfo>
      </clip>
      <clip id="masterclip-162" frameBlend="FALSE">
        <uuid>268f23d7-4b65-47b4-980b-1e209a11f48e</uuid>
        <masterclipid>masterclip-162</masterclipid>
        <ismasterclip>TRUE</ismasterclip>
        <duration>169</duration>
        <rate>
          <timebase>24</timebase>
          <ntsc>TRUE</ntsc>
        </rate>
        <name>00383.MTS</name>
        <media>
          <video>
            <track>
              <clipitem id="clipitem-496" frameBlend="FALSE">
                <masterclipid>masterclip-162</masterclipid>
                <name>00383.MTS</name>
                <alphatype>black</alphatype>
                <pixelaspectratio>square</pixelaspectratio>
                <anamorphic>FALSE</anamorphic>
                <file id="file-162">
                  <name>00383.MTS</name>
                  <pathurl>file://localhost/Volumes/Macintosh%20HD/Users/jacksongs/Desktop/STREAM/00383.MTS</pathurl>
                  <rate>
                    <timebase>24</timebase>
                    <ntsc>TRUE</ntsc>
                  </rate>
                  <duration>169</duration>
                  <timecode>
                    <rate>
                      <timebase>24</timebase>
                      <ntsc>TRUE</ntsc>
                    </rate>
                    <string>00:00:00:00</string>
                    <frame>0</frame>
                    <displayformat>NDF</displayformat>
                    <reel>
                      <name/>
                    </reel>
                  </timecode>
                  <media>
                    <video>
                      <duration>18000</duration>
                      <samplecharacteristics>
                        <rate>
                          <timebase>24</timebase>
                          <ntsc>TRUE</ntsc>
                        </rate>
                        <width>1920</width>
                        <height>1080</height>
                        <anamorphic>FALSE</anamorphic>
                        <pixelaspectratio>square</pixelaspectratio>
                        <fielddominance>none</fielddominance>
                      </samplecharacteristics>
                    </video>
                    <audio>
                      <samplecharacteristics>
                        <depth>16</depth>
                        <samplerate>48000</samplerate>
                      </samplecharacteristics>
                      <channelcount>2</channelcount>
                    </audio>
                  </media>
                </file>
                <link>
                  <linkclipref>clipitem-496</linkclipref>
                  <mediatype>video</mediatype>
                  <trackindex>1</trackindex>
                  <clipindex>1</clipindex>
                </link>
                <link>
                  <linkclipref>clipitem-497</linkclipref>
                  <mediatype>audio</mediatype>
                  <trackindex>1</trackindex>
                  <clipindex>1</clipindex>
                  <groupindex>1</groupindex>
                </link>
                <link>
                  <linkclipref>clipitem-498</linkclipref>
                  <mediatype>audio</mediatype>
                  <trackindex>2</trackindex>
                  <clipindex>1</clipindex>
                  <groupindex>1</groupindex>
                </link>
              </clipitem>
            </track>
          </video>
          <audio>
            <track>
              <clipitem id="clipitem-497" frameBlend="FALSE">
                <masterclipid>masterclip-162</masterclipid>
                <name>00383.MTS</name>
                <file id="file-162"/>
                <sourcetrack>
                  <mediatype>audio</mediatype>
                  <trackindex>1</trackindex>
                </sourcetrack>
                <link>
                  <linkclipref>clipitem-496</linkclipref>
                  <mediatype>video</mediatype>
                  <trackindex>1</trackindex>
                  <clipindex>1</clipindex>
                </link>
                <link>
                  <linkclipref>clipitem-497</linkclipref>
                  <mediatype>audio</mediatype>
                  <trackindex>1</trackindex>
                  <clipindex>1</clipindex>
                  <groupindex>1</groupindex>
                </link>
                <link>
                  <linkclipref>clipitem-498</linkclipref>
                  <mediatype>audio</mediatype>
                  <trackindex>2</trackindex>
                  <clipindex>1</clipindex>
                  <groupindex>1</groupindex>
                </link>
              </clipitem>
            </track>
            <track>
              <clipitem id="clipitem-498" frameBlend="FALSE">
                <masterclipid>masterclip-162</masterclipid>
                <name>00383.MTS</name>
                <file id="file-162"/>
                <sourcetrack>
                  <mediatype>audio</mediatype>
                  <trackindex>2</trackindex>
                </sourcetrack>
                <link>
                  <linkclipref>clipitem-496</linkclipref>
                  <mediatype>video</mediatype>
                  <trackindex>1</trackindex>
                  <clipindex>1</clipindex>
                </link>
                <link>
                  <linkclipref>clipitem-497</linkclipref>
                  <mediatype>audio</mediatype>
                  <trackindex>1</trackindex>
                  <clipindex>1</clipindex>
                  <groupindex>1</groupindex>
                </link>
                <link>
                  <linkclipref>clipitem-498</linkclipref>
                  <mediatype>audio</mediatype>
                  <trackindex>2</trackindex>
                  <clipindex>1</clipindex>
                  <groupindex>1</groupindex>
                </link>
              </clipitem>
            </track>
          </audio>
        </media>
        <logginginfo>
          <description/>
          <scene/>
          <shottake/>
          <lognote/>
        </logginginfo>
      </clip>
      <clip id="masterclip-163" frameBlend="FALSE">
        <uuid>030a3c61-bde2-419e-849e-ece6b555fe89</uuid>
        <masterclipid>masterclip-163</masterclipid>
        <ismasterclip>TRUE</ismasterclip>
        <duration>241</duration>
        <rate>
          <timebase>24</timebase>
          <ntsc>TRUE</ntsc>
        </rate>
        <name>00384.MTS</name>
        <media>
          <video>
            <track>
              <clipitem id="clipitem-499" frameBlend="FALSE">
                <masterclipid>masterclip-163</masterclipid>
                <name>00384.MTS</name>
                <alphatype>black</alphatype>
                <pixelaspectratio>square</pixelaspectratio>
                <anamorphic>FALSE</anamorphic>
                <file id="file-163">
                  <name>00384.MTS</name>
                  <pathurl>file://localhost/Volumes/Macintosh%20HD/Users/jacksongs/Desktop/STREAM/00384.MTS</pathurl>
                  <rate>
                    <timebase>24</timebase>
                    <ntsc>TRUE</ntsc>
                  </rate>
                  <duration>241</duration>
                  <timecode>
                    <rate>
                      <timebase>24</timebase>
                      <ntsc>TRUE</ntsc>
                    </rate>
                    <string>00:00:00:00</string>
                    <frame>0</frame>
                    <displayformat>NDF</displayformat>
                    <reel>
                      <name/>
                    </reel>
                  </timecode>
                  <media>
                    <video>
                      <duration>18000</duration>
                      <samplecharacteristics>
                        <rate>
                          <timebase>24</timebase>
                          <ntsc>TRUE</ntsc>
                        </rate>
                        <width>1920</width>
                        <height>1080</height>
                        <anamorphic>FALSE</anamorphic>
                        <pixelaspectratio>square</pixelaspectratio>
                        <fielddominance>none</fielddominance>
                      </samplecharacteristics>
                    </video>
                    <audio>
                      <samplecharacteristics>
                        <depth>16</depth>
                        <samplerate>48000</samplerate>
                      </samplecharacteristics>
                      <channelcount>2</channelcount>
                    </audio>
                  </media>
                </file>
                <link>
                  <linkclipref>clipitem-499</linkclipref>
                  <mediatype>video</mediatype>
                  <trackindex>1</trackindex>
                  <clipindex>1</clipindex>
                </link>
                <link>
                  <linkclipref>clipitem-500</linkclipref>
                  <mediatype>audio</mediatype>
                  <trackindex>1</trackindex>
                  <clipindex>1</clipindex>
                  <groupindex>1</groupindex>
                </link>
                <link>
                  <linkclipref>clipitem-501</linkclipref>
                  <mediatype>audio</mediatype>
                  <trackindex>2</trackindex>
                  <clipindex>1</clipindex>
                  <groupindex>1</groupindex>
                </link>
              </clipitem>
            </track>
          </video>
          <audio>
            <track>
              <clipitem id="clipitem-500" frameBlend="FALSE">
                <masterclipid>masterclip-163</masterclipid>
                <name>00384.MTS</name>
                <file id="file-163"/>
                <sourcetrack>
                  <mediatype>audio</mediatype>
                  <trackindex>1</trackindex>
                </sourcetrack>
                <link>
                  <linkclipref>clipitem-499</linkclipref>
                  <mediatype>video</mediatype>
                  <trackindex>1</trackindex>
                  <clipindex>1</clipindex>
                </link>
                <link>
                  <linkclipref>clipitem-500</linkclipref>
                  <mediatype>audio</mediatype>
                  <trackindex>1</trackindex>
                  <clipindex>1</clipindex>
                  <groupindex>1</groupindex>
                </link>
                <link>
                  <linkclipref>clipitem-501</linkclipref>
                  <mediatype>audio</mediatype>
                  <trackindex>2</trackindex>
                  <clipindex>1</clipindex>
                  <groupindex>1</groupindex>
                </link>
              </clipitem>
            </track>
            <track>
              <clipitem id="clipitem-501" frameBlend="FALSE">
                <masterclipid>masterclip-163</masterclipid>
                <name>00384.MTS</name>
                <file id="file-163"/>
                <sourcetrack>
                  <mediatype>audio</mediatype>
                  <trackindex>2</trackindex>
                </sourcetrack>
                <link>
                  <linkclipref>clipitem-499</linkclipref>
                  <mediatype>video</mediatype>
                  <trackindex>1</trackindex>
                  <clipindex>1</clipindex>
                </link>
                <link>
                  <linkclipref>clipitem-500</linkclipref>
                  <mediatype>audio</mediatype>
                  <trackindex>1</trackindex>
                  <clipindex>1</clipindex>
                  <groupindex>1</groupindex>
                </link>
                <link>
                  <linkclipref>clipitem-501</linkclipref>
                  <mediatype>audio</mediatype>
                  <trackindex>2</trackindex>
                  <clipindex>1</clipindex>
                  <groupindex>1</groupindex>
                </link>
              </clipitem>
            </track>
          </audio>
        </media>
        <logginginfo>
          <description/>
          <scene/>
          <shottake/>
          <lognote/>
        </logginginfo>
      </clip>
      <clip id="masterclip-164" frameBlend="FALSE">
        <uuid>36d86326-0ed8-45c9-a610-bfe5e71f582d</uuid>
        <masterclipid>masterclip-164</masterclipid>
        <ismasterclip>TRUE</ismasterclip>
        <duration>253</duration>
        <rate>
          <timebase>24</timebase>
          <ntsc>TRUE</ntsc>
        </rate>
        <name>00385.MTS</name>
        <media>
          <video>
            <track>
              <clipitem id="clipitem-502" frameBlend="FALSE">
                <masterclipid>masterclip-164</masterclipid>
                <name>00385.MTS</name>
                <alphatype>black</alphatype>
                <pixelaspectratio>square</pixelaspectratio>
                <anamorphic>FALSE</anamorphic>
                <file id="file-164">
                  <name>00385.MTS</name>
                  <pathurl>file://localhost/Volumes/Macintosh%20HD/Users/jacksongs/Desktop/STREAM/00385.MTS</pathurl>
                  <rate>
                    <timebase>24</timebase>
                    <ntsc>TRUE</ntsc>
                  </rate>
                  <duration>253</duration>
                  <timecode>
                    <rate>
                      <timebase>24</timebase>
                      <ntsc>TRUE</ntsc>
                    </rate>
                    <string>00:00:00:00</string>
                    <frame>0</frame>
                    <displayformat>NDF</displayformat>
                    <reel>
                      <name/>
                    </reel>
                  </timecode>
                  <media>
                    <video>
                      <duration>18000</duration>
                      <samplecharacteristics>
                        <rate>
                          <timebase>24</timebase>
                          <ntsc>TRUE</ntsc>
                        </rate>
                        <width>1920</width>
                        <height>1080</height>
                        <anamorphic>FALSE</anamorphic>
                        <pixelaspectratio>square</pixelaspectratio>
                        <fielddominance>none</fielddominance>
                      </samplecharacteristics>
                    </video>
                    <audio>
                      <samplecharacteristics>
                        <depth>16</depth>
                        <samplerate>48000</samplerate>
                      </samplecharacteristics>
                      <channelcount>2</channelcount>
                    </audio>
                  </media>
                </file>
                <link>
                  <linkclipref>clipitem-502</linkclipref>
                  <mediatype>video</mediatype>
                  <trackindex>1</trackindex>
                  <clipindex>1</clipindex>
                </link>
                <link>
                  <linkclipref>clipitem-503</linkclipref>
                  <mediatype>audio</mediatype>
                  <trackindex>1</trackindex>
                  <clipindex>1</clipindex>
                  <groupindex>1</groupindex>
                </link>
                <link>
                  <linkclipref>clipitem-504</linkclipref>
                  <mediatype>audio</mediatype>
                  <trackindex>2</trackindex>
                  <clipindex>1</clipindex>
                  <groupindex>1</groupindex>
                </link>
              </clipitem>
            </track>
          </video>
          <audio>
            <track>
              <clipitem id="clipitem-503" frameBlend="FALSE">
                <masterclipid>masterclip-164</masterclipid>
                <name>00385.MTS</name>
                <file id="file-164"/>
                <sourcetrack>
                  <mediatype>audio</mediatype>
                  <trackindex>1</trackindex>
                </sourcetrack>
                <link>
                  <linkclipref>clipitem-502</linkclipref>
                  <mediatype>video</mediatype>
                  <trackindex>1</trackindex>
                  <clipindex>1</clipindex>
                </link>
                <link>
                  <linkclipref>clipitem-503</linkclipref>
                  <mediatype>audio</mediatype>
                  <trackindex>1</trackindex>
                  <clipindex>1</clipindex>
                  <groupindex>1</groupindex>
                </link>
                <link>
                  <linkclipref>clipitem-504</linkclipref>
                  <mediatype>audio</mediatype>
                  <trackindex>2</trackindex>
                  <clipindex>1</clipindex>
                  <groupindex>1</groupindex>
                </link>
              </clipitem>
            </track>
            <track>
              <clipitem id="clipitem-504" frameBlend="FALSE">
                <masterclipid>masterclip-164</masterclipid>
                <name>00385.MTS</name>
                <file id="file-164"/>
                <sourcetrack>
                  <mediatype>audio</mediatype>
                  <trackindex>2</trackindex>
                </sourcetrack>
                <link>
                  <linkclipref>clipitem-502</linkclipref>
                  <mediatype>video</mediatype>
                  <trackindex>1</trackindex>
                  <clipindex>1</clipindex>
                </link>
                <link>
                  <linkclipref>clipitem-503</linkclipref>
                  <mediatype>audio</mediatype>
                  <trackindex>1</trackindex>
                  <clipindex>1</clipindex>
                  <groupindex>1</groupindex>
                </link>
                <link>
                  <linkclipref>clipitem-504</linkclipref>
                  <mediatype>audio</mediatype>
                  <trackindex>2</trackindex>
                  <clipindex>1</clipindex>
                  <groupindex>1</groupindex>
                </link>
              </clipitem>
            </track>
          </audio>
        </media>
        <logginginfo>
          <description/>
          <scene/>
          <shottake/>
          <lognote/>
        </logginginfo>
      </clip>
      <clip id="masterclip-165" frameBlend="FALSE">
        <uuid>a37edd63-fe55-4429-82dc-bd685cf27703</uuid>
        <masterclipid>masterclip-165</masterclipid>
        <ismasterclip>TRUE</ismasterclip>
        <duration>469</duration>
        <rate>
          <timebase>24</timebase>
          <ntsc>TRUE</ntsc>
        </rate>
        <name>00386.MTS</name>
        <media>
          <video>
            <track>
              <clipitem id="clipitem-505" frameBlend="FALSE">
                <masterclipid>masterclip-165</masterclipid>
                <name>00386.MTS</name>
                <alphatype>black</alphatype>
                <pixelaspectratio>square</pixelaspectratio>
                <anamorphic>FALSE</anamorphic>
                <file id="file-165">
                  <name>00386.MTS</name>
                  <pathurl>file://localhost/Volumes/Macintosh%20HD/Users/jacksongs/Desktop/STREAM/00386.MTS</pathurl>
                  <rate>
                    <timebase>24</timebase>
                    <ntsc>TRUE</ntsc>
                  </rate>
                  <duration>469</duration>
                  <timecode>
                    <rate>
                      <timebase>24</timebase>
                      <ntsc>TRUE</ntsc>
                    </rate>
                    <string>00:00:00:00</string>
                    <frame>0</frame>
                    <displayformat>NDF</displayformat>
                    <reel>
                      <name/>
                    </reel>
                  </timecode>
                  <media>
                    <video>
                      <duration>18000</duration>
                      <samplecharacteristics>
                        <rate>
                          <timebase>24</timebase>
                          <ntsc>TRUE</ntsc>
                        </rate>
                        <width>1920</width>
                        <height>1080</height>
                        <anamorphic>FALSE</anamorphic>
                        <pixelaspectratio>square</pixelaspectratio>
                        <fielddominance>none</fielddominance>
                      </samplecharacteristics>
                    </video>
                    <audio>
                      <samplecharacteristics>
                        <depth>16</depth>
                        <samplerate>48000</samplerate>
                      </samplecharacteristics>
                      <channelcount>2</channelcount>
                    </audio>
                  </media>
                </file>
                <link>
                  <linkclipref>clipitem-505</linkclipref>
                  <mediatype>video</mediatype>
                  <trackindex>1</trackindex>
                  <clipindex>1</clipindex>
                </link>
                <link>
                  <linkclipref>clipitem-506</linkclipref>
                  <mediatype>audio</mediatype>
                  <trackindex>1</trackindex>
                  <clipindex>1</clipindex>
                  <groupindex>1</groupindex>
                </link>
                <link>
                  <linkclipref>clipitem-507</linkclipref>
                  <mediatype>audio</mediatype>
                  <trackindex>2</trackindex>
                  <clipindex>1</clipindex>
                  <groupindex>1</groupindex>
                </link>
              </clipitem>
            </track>
          </video>
          <audio>
            <track>
              <clipitem id="clipitem-506" frameBlend="FALSE">
                <masterclipid>masterclip-165</masterclipid>
                <name>00386.MTS</name>
                <file id="file-165"/>
                <sourcetrack>
                  <mediatype>audio</mediatype>
                  <trackindex>1</trackindex>
                </sourcetrack>
                <link>
                  <linkclipref>clipitem-505</linkclipref>
                  <mediatype>video</mediatype>
                  <trackindex>1</trackindex>
                  <clipindex>1</clipindex>
                </link>
                <link>
                  <linkclipref>clipitem-506</linkclipref>
                  <mediatype>audio</mediatype>
                  <trackindex>1</trackindex>
                  <clipindex>1</clipindex>
                  <groupindex>1</groupindex>
                </link>
                <link>
                  <linkclipref>clipitem-507</linkclipref>
                  <mediatype>audio</mediatype>
                  <trackindex>2</trackindex>
                  <clipindex>1</clipindex>
                  <groupindex>1</groupindex>
                </link>
              </clipitem>
            </track>
            <track>
              <clipitem id="clipitem-507" frameBlend="FALSE">
                <masterclipid>masterclip-165</masterclipid>
                <name>00386.MTS</name>
                <file id="file-165"/>
                <sourcetrack>
                  <mediatype>audio</mediatype>
                  <trackindex>2</trackindex>
                </sourcetrack>
                <link>
                  <linkclipref>clipitem-505</linkclipref>
                  <mediatype>video</mediatype>
                  <trackindex>1</trackindex>
                  <clipindex>1</clipindex>
                </link>
                <link>
                  <linkclipref>clipitem-506</linkclipref>
                  <mediatype>audio</mediatype>
                  <trackindex>1</trackindex>
                  <clipindex>1</clipindex>
                  <groupindex>1</groupindex>
                </link>
                <link>
                  <linkclipref>clipitem-507</linkclipref>
                  <mediatype>audio</mediatype>
                  <trackindex>2</trackindex>
                  <clipindex>1</clipindex>
                  <groupindex>1</groupindex>
                </link>
              </clipitem>
            </track>
          </audio>
        </media>
        <logginginfo>
          <description/>
          <scene/>
          <shottake/>
          <lognote/>
        </logginginfo>
      </clip>
      <clip id="masterclip-166" frameBlend="FALSE">
        <uuid>4dcba959-8577-4d1a-8f01-2584257495ce</uuid>
        <masterclipid>masterclip-166</masterclipid>
        <ismasterclip>TRUE</ismasterclip>
        <duration>157</duration>
        <rate>
          <timebase>24</timebase>
          <ntsc>TRUE</ntsc>
        </rate>
        <name>00387.MTS</name>
        <media>
          <video>
            <track>
              <clipitem id="clipitem-508" frameBlend="FALSE">
                <masterclipid>masterclip-166</masterclipid>
                <name>00387.MTS</name>
                <alphatype>black</alphatype>
                <pixelaspectratio>square</pixelaspectratio>
                <anamorphic>FALSE</anamorphic>
                <file id="file-166">
                  <name>00387.MTS</name>
                  <pathurl>file://localhost/Volumes/Macintosh%20HD/Users/jacksongs/Desktop/STREAM/00387.MTS</pathurl>
                  <rate>
                    <timebase>24</timebase>
                    <ntsc>TRUE</ntsc>
                  </rate>
                  <duration>157</duration>
                  <timecode>
                    <rate>
                      <timebase>24</timebase>
                      <ntsc>TRUE</ntsc>
                    </rate>
                    <string>00:00:00:00</string>
                    <frame>0</frame>
                    <displayformat>NDF</displayformat>
                    <reel>
                      <name/>
                    </reel>
                  </timecode>
                  <media>
                    <video>
                      <duration>18000</duration>
                      <samplecharacteristics>
                        <rate>
                          <timebase>24</timebase>
                          <ntsc>TRUE</ntsc>
                        </rate>
                        <width>1920</width>
                        <height>1080</height>
                        <anamorphic>FALSE</anamorphic>
                        <pixelaspectratio>square</pixelaspectratio>
                        <fielddominance>none</fielddominance>
                      </samplecharacteristics>
                    </video>
                    <audio>
                      <samplecharacteristics>
                        <depth>16</depth>
                        <samplerate>48000</samplerate>
                      </samplecharacteristics>
                      <channelcount>2</channelcount>
                    </audio>
                  </media>
                </file>
                <link>
                  <linkclipref>clipitem-508</linkclipref>
                  <mediatype>video</mediatype>
                  <trackindex>1</trackindex>
                  <clipindex>1</clipindex>
                </link>
                <link>
                  <linkclipref>clipitem-509</linkclipref>
                  <mediatype>audio</mediatype>
                  <trackindex>1</trackindex>
                  <clipindex>1</clipindex>
                  <groupindex>1</groupindex>
                </link>
                <link>
                  <linkclipref>clipitem-510</linkclipref>
                  <mediatype>audio</mediatype>
                  <trackindex>2</trackindex>
                  <clipindex>1</clipindex>
                  <groupindex>1</groupindex>
                </link>
              </clipitem>
            </track>
          </video>
          <audio>
            <track>
              <clipitem id="clipitem-509" frameBlend="FALSE">
                <masterclipid>masterclip-166</masterclipid>
                <name>00387.MTS</name>
                <file id="file-166"/>
                <sourcetrack>
                  <mediatype>audio</mediatype>
                  <trackindex>1</trackindex>
                </sourcetrack>
                <link>
                  <linkclipref>clipitem-508</linkclipref>
                  <mediatype>video</mediatype>
                  <trackindex>1</trackindex>
                  <clipindex>1</clipindex>
                </link>
                <link>
                  <linkclipref>clipitem-509</linkclipref>
                  <mediatype>audio</mediatype>
                  <trackindex>1</trackindex>
                  <clipindex>1</clipindex>
                  <groupindex>1</groupindex>
                </link>
                <link>
                  <linkclipref>clipitem-510</linkclipref>
                  <mediatype>audio</mediatype>
                  <trackindex>2</trackindex>
                  <clipindex>1</clipindex>
                  <groupindex>1</groupindex>
                </link>
              </clipitem>
            </track>
            <track>
              <clipitem id="clipitem-510" frameBlend="FALSE">
                <masterclipid>masterclip-166</masterclipid>
                <name>00387.MTS</name>
                <file id="file-166"/>
                <sourcetrack>
                  <mediatype>audio</mediatype>
                  <trackindex>2</trackindex>
                </sourcetrack>
                <link>
                  <linkclipref>clipitem-508</linkclipref>
                  <mediatype>video</mediatype>
                  <trackindex>1</trackindex>
                  <clipindex>1</clipindex>
                </link>
                <link>
                  <linkclipref>clipitem-509</linkclipref>
                  <mediatype>audio</mediatype>
                  <trackindex>1</trackindex>
                  <clipindex>1</clipindex>
                  <groupindex>1</groupindex>
                </link>
                <link>
                  <linkclipref>clipitem-510</linkclipref>
                  <mediatype>audio</mediatype>
                  <trackindex>2</trackindex>
                  <clipindex>1</clipindex>
                  <groupindex>1</groupindex>
                </link>
              </clipitem>
            </track>
          </audio>
        </media>
        <logginginfo>
          <description/>
          <scene/>
          <shottake/>
          <lognote/>
        </logginginfo>
      </clip>
      <clip id="masterclip-167" frameBlend="FALSE">
        <uuid>e3893038-2f8c-4009-81c7-d926fadf5f1a</uuid>
        <masterclipid>masterclip-167</masterclipid>
        <ismasterclip>TRUE</ismasterclip>
        <duration>205</duration>
        <rate>
          <timebase>24</timebase>
          <ntsc>TRUE</ntsc>
        </rate>
        <name>00388.MTS</name>
        <media>
          <video>
            <track>
              <clipitem id="clipitem-511" frameBlend="FALSE">
                <masterclipid>masterclip-167</masterclipid>
                <name>00388.MTS</name>
                <alphatype>black</alphatype>
                <pixelaspectratio>square</pixelaspectratio>
                <anamorphic>FALSE</anamorphic>
                <file id="file-167">
                  <name>00388.MTS</name>
                  <pathurl>file://localhost/Volumes/Macintosh%20HD/Users/jacksongs/Desktop/STREAM/00388.MTS</pathurl>
                  <rate>
                    <timebase>24</timebase>
                    <ntsc>TRUE</ntsc>
                  </rate>
                  <duration>205</duration>
                  <timecode>
                    <rate>
                      <timebase>24</timebase>
                      <ntsc>TRUE</ntsc>
                    </rate>
                    <string>00:00:00:00</string>
                    <frame>0</frame>
                    <displayformat>NDF</displayformat>
                    <reel>
                      <name/>
                    </reel>
                  </timecode>
                  <media>
                    <video>
                      <duration>18000</duration>
                      <samplecharacteristics>
                        <rate>
                          <timebase>24</timebase>
                          <ntsc>TRUE</ntsc>
                        </rate>
                        <width>1920</width>
                        <height>1080</height>
                        <anamorphic>FALSE</anamorphic>
                        <pixelaspectratio>square</pixelaspectratio>
                        <fielddominance>none</fielddominance>
                      </samplecharacteristics>
                    </video>
                    <audio>
                      <samplecharacteristics>
                        <depth>16</depth>
                        <samplerate>48000</samplerate>
                      </samplecharacteristics>
                      <channelcount>2</channelcount>
                    </audio>
                  </media>
                </file>
                <link>
                  <linkclipref>clipitem-511</linkclipref>
                  <mediatype>video</mediatype>
                  <trackindex>1</trackindex>
                  <clipindex>1</clipindex>
                </link>
                <link>
                  <linkclipref>clipitem-512</linkclipref>
                  <mediatype>audio</mediatype>
                  <trackindex>1</trackindex>
                  <clipindex>1</clipindex>
                  <groupindex>1</groupindex>
                </link>
                <link>
                  <linkclipref>clipitem-513</linkclipref>
                  <mediatype>audio</mediatype>
                  <trackindex>2</trackindex>
                  <clipindex>1</clipindex>
                  <groupindex>1</groupindex>
                </link>
              </clipitem>
            </track>
          </video>
          <audio>
            <track>
              <clipitem id="clipitem-512" frameBlend="FALSE">
                <masterclipid>masterclip-167</masterclipid>
                <name>00388.MTS</name>
                <file id="file-167"/>
                <sourcetrack>
                  <mediatype>audio</mediatype>
                  <trackindex>1</trackindex>
                </sourcetrack>
                <link>
                  <linkclipref>clipitem-511</linkclipref>
                  <mediatype>video</mediatype>
                  <trackindex>1</trackindex>
                  <clipindex>1</clipindex>
                </link>
                <link>
                  <linkclipref>clipitem-512</linkclipref>
                  <mediatype>audio</mediatype>
                  <trackindex>1</trackindex>
                  <clipindex>1</clipindex>
                  <groupindex>1</groupindex>
                </link>
                <link>
                  <linkclipref>clipitem-513</linkclipref>
                  <mediatype>audio</mediatype>
                  <trackindex>2</trackindex>
                  <clipindex>1</clipindex>
                  <groupindex>1</groupindex>
                </link>
              </clipitem>
            </track>
            <track>
              <clipitem id="clipitem-513" frameBlend="FALSE">
                <masterclipid>masterclip-167</masterclipid>
                <name>00388.MTS</name>
                <file id="file-167"/>
                <sourcetrack>
                  <mediatype>audio</mediatype>
                  <trackindex>2</trackindex>
                </sourcetrack>
                <link>
                  <linkclipref>clipitem-511</linkclipref>
                  <mediatype>video</mediatype>
                  <trackindex>1</trackindex>
                  <clipindex>1</clipindex>
                </link>
                <link>
                  <linkclipref>clipitem-512</linkclipref>
                  <mediatype>audio</mediatype>
                  <trackindex>1</trackindex>
                  <clipindex>1</clipindex>
                  <groupindex>1</groupindex>
                </link>
                <link>
                  <linkclipref>clipitem-513</linkclipref>
                  <mediatype>audio</mediatype>
                  <trackindex>2</trackindex>
                  <clipindex>1</clipindex>
                  <groupindex>1</groupindex>
                </link>
              </clipitem>
            </track>
          </audio>
        </media>
        <logginginfo>
          <description/>
          <scene/>
          <shottake/>
          <lognote/>
        </logginginfo>
      </clip>
      <clip id="masterclip-168" frameBlend="FALSE">
        <uuid>71a8352b-0b2b-4baf-95db-7b20cc1c9c7f</uuid>
        <masterclipid>masterclip-168</masterclipid>
        <ismasterclip>TRUE</ismasterclip>
        <duration>217</duration>
        <rate>
          <timebase>24</timebase>
          <ntsc>TRUE</ntsc>
        </rate>
        <name>00389.MTS</name>
        <media>
          <video>
            <track>
              <clipitem id="clipitem-514" frameBlend="FALSE">
                <masterclipid>masterclip-168</masterclipid>
                <name>00389.MTS</name>
                <alphatype>black</alphatype>
                <pixelaspectratio>square</pixelaspectratio>
                <anamorphic>FALSE</anamorphic>
                <file id="file-168">
                  <name>00389.MTS</name>
                  <pathurl>file://localhost/Volumes/Macintosh%20HD/Users/jacksongs/Desktop/STREAM/00389.MTS</pathurl>
                  <rate>
                    <timebase>24</timebase>
                    <ntsc>TRUE</ntsc>
                  </rate>
                  <duration>217</duration>
                  <timecode>
                    <rate>
                      <timebase>24</timebase>
                      <ntsc>TRUE</ntsc>
                    </rate>
                    <string>00:00:00:00</string>
                    <frame>0</frame>
                    <displayformat>NDF</displayformat>
                    <reel>
                      <name/>
                    </reel>
                  </timecode>
                  <media>
                    <video>
                      <duration>18000</duration>
                      <samplecharacteristics>
                        <rate>
                          <timebase>24</timebase>
                          <ntsc>TRUE</ntsc>
                        </rate>
                        <width>1920</width>
                        <height>1080</height>
                        <anamorphic>FALSE</anamorphic>
                        <pixelaspectratio>square</pixelaspectratio>
                        <fielddominance>none</fielddominance>
                      </samplecharacteristics>
                    </video>
                    <audio>
                      <samplecharacteristics>
                        <depth>16</depth>
                        <samplerate>48000</samplerate>
                      </samplecharacteristics>
                      <channelcount>2</channelcount>
                    </audio>
                  </media>
                </file>
                <link>
                  <linkclipref>clipitem-514</linkclipref>
                  <mediatype>video</mediatype>
                  <trackindex>1</trackindex>
                  <clipindex>1</clipindex>
                </link>
                <link>
                  <linkclipref>clipitem-515</linkclipref>
                  <mediatype>audio</mediatype>
                  <trackindex>1</trackindex>
                  <clipindex>1</clipindex>
                  <groupindex>1</groupindex>
                </link>
                <link>
                  <linkclipref>clipitem-516</linkclipref>
                  <mediatype>audio</mediatype>
                  <trackindex>2</trackindex>
                  <clipindex>1</clipindex>
                  <groupindex>1</groupindex>
                </link>
              </clipitem>
            </track>
          </video>
          <audio>
            <track>
              <clipitem id="clipitem-515" frameBlend="FALSE">
                <masterclipid>masterclip-168</masterclipid>
                <name>00389.MTS</name>
                <file id="file-168"/>
                <sourcetrack>
                  <mediatype>audio</mediatype>
                  <trackindex>1</trackindex>
                </sourcetrack>
                <link>
                  <linkclipref>clipitem-514</linkclipref>
                  <mediatype>video</mediatype>
                  <trackindex>1</trackindex>
                  <clipindex>1</clipindex>
                </link>
                <link>
                  <linkclipref>clipitem-515</linkclipref>
                  <mediatype>audio</mediatype>
                  <trackindex>1</trackindex>
                  <clipindex>1</clipindex>
                  <groupindex>1</groupindex>
                </link>
                <link>
                  <linkclipref>clipitem-516</linkclipref>
                  <mediatype>audio</mediatype>
                  <trackindex>2</trackindex>
                  <clipindex>1</clipindex>
                  <groupindex>1</groupindex>
                </link>
              </clipitem>
            </track>
            <track>
              <clipitem id="clipitem-516" frameBlend="FALSE">
                <masterclipid>masterclip-168</masterclipid>
                <name>00389.MTS</name>
                <file id="file-168"/>
                <sourcetrack>
                  <mediatype>audio</mediatype>
                  <trackindex>2</trackindex>
                </sourcetrack>
                <link>
                  <linkclipref>clipitem-514</linkclipref>
                  <mediatype>video</mediatype>
                  <trackindex>1</trackindex>
                  <clipindex>1</clipindex>
                </link>
                <link>
                  <linkclipref>clipitem-515</linkclipref>
                  <mediatype>audio</mediatype>
                  <trackindex>1</trackindex>
                  <clipindex>1</clipindex>
                  <groupindex>1</groupindex>
                </link>
                <link>
                  <linkclipref>clipitem-516</linkclipref>
                  <mediatype>audio</mediatype>
                  <trackindex>2</trackindex>
                  <clipindex>1</clipindex>
                  <groupindex>1</groupindex>
                </link>
              </clipitem>
            </track>
          </audio>
        </media>
        <logginginfo>
          <description/>
          <scene/>
          <shottake/>
          <lognote/>
        </logginginfo>
      </clip>
      <clip id="masterclip-169" frameBlend="FALSE">
        <uuid>07a534e7-1bdb-447f-ac42-e02e176f704e</uuid>
        <masterclipid>masterclip-169</masterclipid>
        <ismasterclip>TRUE</ismasterclip>
        <duration>349</duration>
        <rate>
          <timebase>24</timebase>
          <ntsc>TRUE</ntsc>
        </rate>
        <name>00390.MTS</name>
        <media>
          <video>
            <track>
              <clipitem id="clipitem-517" frameBlend="FALSE">
                <masterclipid>masterclip-169</masterclipid>
                <name>00390.MTS</name>
                <alphatype>black</alphatype>
                <pixelaspectratio>square</pixelaspectratio>
                <anamorphic>FALSE</anamorphic>
                <file id="file-169">
                  <name>00390.MTS</name>
                  <pathurl>file://localhost/Volumes/Macintosh%20HD/Users/jacksongs/Desktop/STREAM/00390.MTS</pathurl>
                  <rate>
                    <timebase>24</timebase>
                    <ntsc>TRUE</ntsc>
                  </rate>
                  <duration>349</duration>
                  <timecode>
                    <rate>
                      <timebase>24</timebase>
                      <ntsc>TRUE</ntsc>
                    </rate>
                    <string>00:00:00:00</string>
                    <frame>0</frame>
                    <displayformat>NDF</displayformat>
                    <reel>
                      <name/>
                    </reel>
                  </timecode>
                  <media>
                    <video>
                      <duration>18000</duration>
                      <samplecharacteristics>
                        <rate>
                          <timebase>24</timebase>
                          <ntsc>TRUE</ntsc>
                        </rate>
                        <width>1920</width>
                        <height>1080</height>
                        <anamorphic>FALSE</anamorphic>
                        <pixelaspectratio>square</pixelaspectratio>
                        <fielddominance>none</fielddominance>
                      </samplecharacteristics>
                    </video>
                    <audio>
                      <samplecharacteristics>
                        <depth>16</depth>
                        <samplerate>48000</samplerate>
                      </samplecharacteristics>
                      <channelcount>2</channelcount>
                    </audio>
                  </media>
                </file>
                <link>
                  <linkclipref>clipitem-517</linkclipref>
                  <mediatype>video</mediatype>
                  <trackindex>1</trackindex>
                  <clipindex>1</clipindex>
                </link>
                <link>
                  <linkclipref>clipitem-518</linkclipref>
                  <mediatype>audio</mediatype>
                  <trackindex>1</trackindex>
                  <clipindex>1</clipindex>
                  <groupindex>1</groupindex>
                </link>
                <link>
                  <linkclipref>clipitem-519</linkclipref>
                  <mediatype>audio</mediatype>
                  <trackindex>2</trackindex>
                  <clipindex>1</clipindex>
                  <groupindex>1</groupindex>
                </link>
              </clipitem>
            </track>
          </video>
          <audio>
            <track>
              <clipitem id="clipitem-518" frameBlend="FALSE">
                <masterclipid>masterclip-169</masterclipid>
                <name>00390.MTS</name>
                <file id="file-169"/>
                <sourcetrack>
                  <mediatype>audio</mediatype>
                  <trackindex>1</trackindex>
                </sourcetrack>
                <link>
                  <linkclipref>clipitem-517</linkclipref>
                  <mediatype>video</mediatype>
                  <trackindex>1</trackindex>
                  <clipindex>1</clipindex>
                </link>
                <link>
                  <linkclipref>clipitem-518</linkclipref>
                  <mediatype>audio</mediatype>
                  <trackindex>1</trackindex>
                  <clipindex>1</clipindex>
                  <groupindex>1</groupindex>
                </link>
                <link>
                  <linkclipref>clipitem-519</linkclipref>
                  <mediatype>audio</mediatype>
                  <trackindex>2</trackindex>
                  <clipindex>1</clipindex>
                  <groupindex>1</groupindex>
                </link>
              </clipitem>
            </track>
            <track>
              <clipitem id="clipitem-519" frameBlend="FALSE">
                <masterclipid>masterclip-169</masterclipid>
                <name>00390.MTS</name>
                <file id="file-169"/>
                <sourcetrack>
                  <mediatype>audio</mediatype>
                  <trackindex>2</trackindex>
                </sourcetrack>
                <link>
                  <linkclipref>clipitem-517</linkclipref>
                  <mediatype>video</mediatype>
                  <trackindex>1</trackindex>
                  <clipindex>1</clipindex>
                </link>
                <link>
                  <linkclipref>clipitem-518</linkclipref>
                  <mediatype>audio</mediatype>
                  <trackindex>1</trackindex>
                  <clipindex>1</clipindex>
                  <groupindex>1</groupindex>
                </link>
                <link>
                  <linkclipref>clipitem-519</linkclipref>
                  <mediatype>audio</mediatype>
                  <trackindex>2</trackindex>
                  <clipindex>1</clipindex>
                  <groupindex>1</groupindex>
                </link>
              </clipitem>
            </track>
          </audio>
        </media>
        <logginginfo>
          <description/>
          <scene/>
          <shottake/>
          <lognote/>
        </logginginfo>
      </clip>
      <clip id="masterclip-170" frameBlend="FALSE">
        <uuid>2701d707-3d7d-479e-a797-6a423cd59f8b</uuid>
        <masterclipid>masterclip-170</masterclipid>
        <ismasterclip>TRUE</ismasterclip>
        <duration>613</duration>
        <rate>
          <timebase>24</timebase>
          <ntsc>TRUE</ntsc>
        </rate>
        <name>00391.MTS</name>
        <media>
          <video>
            <track>
              <clipitem id="clipitem-520" frameBlend="FALSE">
                <masterclipid>masterclip-170</masterclipid>
                <name>00391.MTS</name>
                <alphatype>black</alphatype>
                <pixelaspectratio>square</pixelaspectratio>
                <anamorphic>FALSE</anamorphic>
                <file id="file-170">
                  <name>00391.MTS</name>
                  <pathurl>file://localhost/Volumes/Macintosh%20HD/Users/jacksongs/Desktop/STREAM/00391.MTS</pathurl>
                  <rate>
                    <timebase>24</timebase>
                    <ntsc>TRUE</ntsc>
                  </rate>
                  <duration>613</duration>
                  <timecode>
                    <rate>
                      <timebase>24</timebase>
                      <ntsc>TRUE</ntsc>
                    </rate>
                    <string>00:00:00:00</string>
                    <frame>0</frame>
                    <displayformat>NDF</displayformat>
                    <reel>
                      <name/>
                    </reel>
                  </timecode>
                  <media>
                    <video>
                      <duration>18000</duration>
                      <samplecharacteristics>
                        <rate>
                          <timebase>24</timebase>
                          <ntsc>TRUE</ntsc>
                        </rate>
                        <width>1920</width>
                        <height>1080</height>
                        <anamorphic>FALSE</anamorphic>
                        <pixelaspectratio>square</pixelaspectratio>
                        <fielddominance>none</fielddominance>
                      </samplecharacteristics>
                    </video>
                    <audio>
                      <samplecharacteristics>
                        <depth>16</depth>
                        <samplerate>48000</samplerate>
                      </samplecharacteristics>
                      <channelcount>2</channelcount>
                    </audio>
                  </media>
                </file>
                <link>
                  <linkclipref>clipitem-520</linkclipref>
                  <mediatype>video</mediatype>
                  <trackindex>1</trackindex>
                  <clipindex>1</clipindex>
                </link>
                <link>
                  <linkclipref>clipitem-521</linkclipref>
                  <mediatype>audio</mediatype>
                  <trackindex>1</trackindex>
                  <clipindex>1</clipindex>
                  <groupindex>1</groupindex>
                </link>
                <link>
                  <linkclipref>clipitem-522</linkclipref>
                  <mediatype>audio</mediatype>
                  <trackindex>2</trackindex>
                  <clipindex>1</clipindex>
                  <groupindex>1</groupindex>
                </link>
              </clipitem>
            </track>
          </video>
          <audio>
            <track>
              <clipitem id="clipitem-521" frameBlend="FALSE">
                <masterclipid>masterclip-170</masterclipid>
                <name>00391.MTS</name>
                <file id="file-170"/>
                <sourcetrack>
                  <mediatype>audio</mediatype>
                  <trackindex>1</trackindex>
                </sourcetrack>
                <link>
                  <linkclipref>clipitem-520</linkclipref>
                  <mediatype>video</mediatype>
                  <trackindex>1</trackindex>
                  <clipindex>1</clipindex>
                </link>
                <link>
                  <linkclipref>clipitem-521</linkclipref>
                  <mediatype>audio</mediatype>
                  <trackindex>1</trackindex>
                  <clipindex>1</clipindex>
                  <groupindex>1</groupindex>
                </link>
                <link>
                  <linkclipref>clipitem-522</linkclipref>
                  <mediatype>audio</mediatype>
                  <trackindex>2</trackindex>
                  <clipindex>1</clipindex>
                  <groupindex>1</groupindex>
                </link>
              </clipitem>
            </track>
            <track>
              <clipitem id="clipitem-522" frameBlend="FALSE">
                <masterclipid>masterclip-170</masterclipid>
                <name>00391.MTS</name>
                <file id="file-170"/>
                <sourcetrack>
                  <mediatype>audio</mediatype>
                  <trackindex>2</trackindex>
                </sourcetrack>
                <link>
                  <linkclipref>clipitem-520</linkclipref>
                  <mediatype>video</mediatype>
                  <trackindex>1</trackindex>
                  <clipindex>1</clipindex>
                </link>
                <link>
                  <linkclipref>clipitem-521</linkclipref>
                  <mediatype>audio</mediatype>
                  <trackindex>1</trackindex>
                  <clipindex>1</clipindex>
                  <groupindex>1</groupindex>
                </link>
                <link>
                  <linkclipref>clipitem-522</linkclipref>
                  <mediatype>audio</mediatype>
                  <trackindex>2</trackindex>
                  <clipindex>1</clipindex>
                  <groupindex>1</groupindex>
                </link>
              </clipitem>
            </track>
          </audio>
        </media>
        <logginginfo>
          <description/>
          <scene/>
          <shottake/>
          <lognote/>
        </logginginfo>
      </clip>
      <clip id="masterclip-171" frameBlend="FALSE">
        <uuid>6769b774-912d-42da-849f-d21f82e67ff1</uuid>
        <masterclipid>masterclip-171</masterclipid>
        <ismasterclip>TRUE</ismasterclip>
        <duration>109</duration>
        <rate>
          <timebase>24</timebase>
          <ntsc>TRUE</ntsc>
        </rate>
        <name>00392.MTS</name>
        <media>
          <video>
            <track>
              <clipitem id="clipitem-523" frameBlend="FALSE">
                <masterclipid>masterclip-171</masterclipid>
                <name>00392.MTS</name>
                <alphatype>black</alphatype>
                <pixelaspectratio>square</pixelaspectratio>
                <anamorphic>FALSE</anamorphic>
                <file id="file-171">
                  <name>00392.MTS</name>
                  <pathurl>file://localhost/Volumes/Macintosh%20HD/Users/jacksongs/Desktop/STREAM/00392.MTS</pathurl>
                  <rate>
                    <timebase>24</timebase>
                    <ntsc>TRUE</ntsc>
                  </rate>
                  <duration>109</duration>
                  <timecode>
                    <rate>
                      <timebase>24</timebase>
                      <ntsc>TRUE</ntsc>
                    </rate>
                    <string>00:00:00:00</string>
                    <frame>0</frame>
                    <displayformat>NDF</displayformat>
                    <reel>
                      <name/>
                    </reel>
                  </timecode>
                  <media>
                    <video>
                      <duration>18000</duration>
                      <samplecharacteristics>
                        <rate>
                          <timebase>24</timebase>
                          <ntsc>TRUE</ntsc>
                        </rate>
                        <width>1920</width>
                        <height>1080</height>
                        <anamorphic>FALSE</anamorphic>
                        <pixelaspectratio>square</pixelaspectratio>
                        <fielddominance>none</fielddominance>
                      </samplecharacteristics>
                    </video>
                    <audio>
                      <samplecharacteristics>
                        <depth>16</depth>
                        <samplerate>48000</samplerate>
                      </samplecharacteristics>
                      <channelcount>2</channelcount>
                    </audio>
                  </media>
                </file>
                <link>
                  <linkclipref>clipitem-523</linkclipref>
                  <mediatype>video</mediatype>
                  <trackindex>1</trackindex>
                  <clipindex>1</clipindex>
                </link>
                <link>
                  <linkclipref>clipitem-524</linkclipref>
                  <mediatype>audio</mediatype>
                  <trackindex>1</trackindex>
                  <clipindex>1</clipindex>
                  <groupindex>1</groupindex>
                </link>
                <link>
                  <linkclipref>clipitem-525</linkclipref>
                  <mediatype>audio</mediatype>
                  <trackindex>2</trackindex>
                  <clipindex>1</clipindex>
                  <groupindex>1</groupindex>
                </link>
              </clipitem>
            </track>
          </video>
          <audio>
            <track>
              <clipitem id="clipitem-524" frameBlend="FALSE">
                <masterclipid>masterclip-171</masterclipid>
                <name>00392.MTS</name>
                <file id="file-171"/>
                <sourcetrack>
                  <mediatype>audio</mediatype>
                  <trackindex>1</trackindex>
                </sourcetrack>
                <link>
                  <linkclipref>clipitem-523</linkclipref>
                  <mediatype>video</mediatype>
                  <trackindex>1</trackindex>
                  <clipindex>1</clipindex>
                </link>
                <link>
                  <linkclipref>clipitem-524</linkclipref>
                  <mediatype>audio</mediatype>
                  <trackindex>1</trackindex>
                  <clipindex>1</clipindex>
                  <groupindex>1</groupindex>
                </link>
                <link>
                  <linkclipref>clipitem-525</linkclipref>
                  <mediatype>audio</mediatype>
                  <trackindex>2</trackindex>
                  <clipindex>1</clipindex>
                  <groupindex>1</groupindex>
                </link>
              </clipitem>
            </track>
            <track>
              <clipitem id="clipitem-525" frameBlend="FALSE">
                <masterclipid>masterclip-171</masterclipid>
                <name>00392.MTS</name>
                <file id="file-171"/>
                <sourcetrack>
                  <mediatype>audio</mediatype>
                  <trackindex>2</trackindex>
                </sourcetrack>
                <link>
                  <linkclipref>clipitem-523</linkclipref>
                  <mediatype>video</mediatype>
                  <trackindex>1</trackindex>
                  <clipindex>1</clipindex>
                </link>
                <link>
                  <linkclipref>clipitem-524</linkclipref>
                  <mediatype>audio</mediatype>
                  <trackindex>1</trackindex>
                  <clipindex>1</clipindex>
                  <groupindex>1</groupindex>
                </link>
                <link>
                  <linkclipref>clipitem-525</linkclipref>
                  <mediatype>audio</mediatype>
                  <trackindex>2</trackindex>
                  <clipindex>1</clipindex>
                  <groupindex>1</groupindex>
                </link>
              </clipitem>
            </track>
          </audio>
        </media>
        <logginginfo>
          <description/>
          <scene/>
          <shottake/>
          <lognote/>
        </logginginfo>
      </clip>
      <clip id="masterclip-172" frameBlend="FALSE">
        <uuid>bcc4adbf-9d2f-4a58-a3e5-6bfbd3276eb2</uuid>
        <masterclipid>masterclip-172</masterclipid>
        <ismasterclip>TRUE</ismasterclip>
        <duration>253</duration>
        <rate>
          <timebase>24</timebase>
          <ntsc>TRUE</ntsc>
        </rate>
        <name>00393.MTS</name>
        <media>
          <video>
            <track>
              <clipitem id="clipitem-526" frameBlend="FALSE">
                <masterclipid>masterclip-172</masterclipid>
                <name>00393.MTS</name>
                <alphatype>black</alphatype>
                <pixelaspectratio>square</pixelaspectratio>
                <anamorphic>FALSE</anamorphic>
                <file id="file-172">
                  <name>00393.MTS</name>
                  <pathurl>file://localhost/Volumes/Macintosh%20HD/Users/jacksongs/Desktop/STREAM/00393.MTS</pathurl>
                  <rate>
                    <timebase>24</timebase>
                    <ntsc>TRUE</ntsc>
                  </rate>
                  <duration>253</duration>
                  <timecode>
                    <rate>
                      <timebase>24</timebase>
                      <ntsc>TRUE</ntsc>
                    </rate>
                    <string>00:00:00:00</string>
                    <frame>0</frame>
                    <displayformat>NDF</displayformat>
                    <reel>
                      <name/>
                    </reel>
                  </timecode>
                  <media>
                    <video>
                      <duration>18000</duration>
                      <samplecharacteristics>
                        <rate>
                          <timebase>24</timebase>
                          <ntsc>TRUE</ntsc>
                        </rate>
                        <width>1920</width>
                        <height>1080</height>
                        <anamorphic>FALSE</anamorphic>
                        <pixelaspectratio>square</pixelaspectratio>
                        <fielddominance>none</fielddominance>
                      </samplecharacteristics>
                    </video>
                    <audio>
                      <samplecharacteristics>
                        <depth>16</depth>
                        <samplerate>48000</samplerate>
                      </samplecharacteristics>
                      <channelcount>2</channelcount>
                    </audio>
                  </media>
                </file>
                <link>
                  <linkclipref>clipitem-526</linkclipref>
                  <mediatype>video</mediatype>
                  <trackindex>1</trackindex>
                  <clipindex>1</clipindex>
                </link>
                <link>
                  <linkclipref>clipitem-527</linkclipref>
                  <mediatype>audio</mediatype>
                  <trackindex>1</trackindex>
                  <clipindex>1</clipindex>
                  <groupindex>1</groupindex>
                </link>
                <link>
                  <linkclipref>clipitem-528</linkclipref>
                  <mediatype>audio</mediatype>
                  <trackindex>2</trackindex>
                  <clipindex>1</clipindex>
                  <groupindex>1</groupindex>
                </link>
              </clipitem>
            </track>
          </video>
          <audio>
            <track>
              <clipitem id="clipitem-527" frameBlend="FALSE">
                <masterclipid>masterclip-172</masterclipid>
                <name>00393.MTS</name>
                <file id="file-172"/>
                <sourcetrack>
                  <mediatype>audio</mediatype>
                  <trackindex>1</trackindex>
                </sourcetrack>
                <link>
                  <linkclipref>clipitem-526</linkclipref>
                  <mediatype>video</mediatype>
                  <trackindex>1</trackindex>
                  <clipindex>1</clipindex>
                </link>
                <link>
                  <linkclipref>clipitem-527</linkclipref>
                  <mediatype>audio</mediatype>
                  <trackindex>1</trackindex>
                  <clipindex>1</clipindex>
                  <groupindex>1</groupindex>
                </link>
                <link>
                  <linkclipref>clipitem-528</linkclipref>
                  <mediatype>audio</mediatype>
                  <trackindex>2</trackindex>
                  <clipindex>1</clipindex>
                  <groupindex>1</groupindex>
                </link>
              </clipitem>
            </track>
            <track>
              <clipitem id="clipitem-528" frameBlend="FALSE">
                <masterclipid>masterclip-172</masterclipid>
                <name>00393.MTS</name>
                <file id="file-172"/>
                <sourcetrack>
                  <mediatype>audio</mediatype>
                  <trackindex>2</trackindex>
                </sourcetrack>
                <link>
                  <linkclipref>clipitem-526</linkclipref>
                  <mediatype>video</mediatype>
                  <trackindex>1</trackindex>
                  <clipindex>1</clipindex>
                </link>
                <link>
                  <linkclipref>clipitem-527</linkclipref>
                  <mediatype>audio</mediatype>
                  <trackindex>1</trackindex>
                  <clipindex>1</clipindex>
                  <groupindex>1</groupindex>
                </link>
                <link>
                  <linkclipref>clipitem-528</linkclipref>
                  <mediatype>audio</mediatype>
                  <trackindex>2</trackindex>
                  <clipindex>1</clipindex>
                  <groupindex>1</groupindex>
                </link>
              </clipitem>
            </track>
          </audio>
        </media>
        <logginginfo>
          <description/>
          <scene/>
          <shottake/>
          <lognote/>
        </logginginfo>
      </clip>
      <clip id="masterclip-173" frameBlend="FALSE">
        <uuid>be908d01-d3f6-413a-a62d-557af7be1176</uuid>
        <masterclipid>masterclip-173</masterclipid>
        <ismasterclip>TRUE</ismasterclip>
        <duration>217</duration>
        <rate>
          <timebase>24</timebase>
          <ntsc>TRUE</ntsc>
        </rate>
        <name>00394.MTS</name>
        <media>
          <video>
            <track>
              <clipitem id="clipitem-529" frameBlend="FALSE">
                <masterclipid>masterclip-173</masterclipid>
                <name>00394.MTS</name>
                <alphatype>black</alphatype>
                <pixelaspectratio>square</pixelaspectratio>
                <anamorphic>FALSE</anamorphic>
                <file id="file-173">
                  <name>00394.MTS</name>
                  <pathurl>file://localhost/Volumes/Macintosh%20HD/Users/jacksongs/Desktop/STREAM/00394.MTS</pathurl>
                  <rate>
                    <timebase>24</timebase>
                    <ntsc>TRUE</ntsc>
                  </rate>
                  <duration>217</duration>
                  <timecode>
                    <rate>
                      <timebase>24</timebase>
                      <ntsc>TRUE</ntsc>
                    </rate>
                    <string>00:00:00:00</string>
                    <frame>0</frame>
                    <displayformat>NDF</displayformat>
                    <reel>
                      <name/>
                    </reel>
                  </timecode>
                  <media>
                    <video>
                      <duration>18000</duration>
                      <samplecharacteristics>
                        <rate>
                          <timebase>24</timebase>
                          <ntsc>TRUE</ntsc>
                        </rate>
                        <width>1920</width>
                        <height>1080</height>
                        <anamorphic>FALSE</anamorphic>
                        <pixelaspectratio>square</pixelaspectratio>
                        <fielddominance>none</fielddominance>
                      </samplecharacteristics>
                    </video>
                    <audio>
                      <samplecharacteristics>
                        <depth>16</depth>
                        <samplerate>48000</samplerate>
                      </samplecharacteristics>
                      <channelcount>2</channelcount>
                    </audio>
                  </media>
                </file>
                <link>
                  <linkclipref>clipitem-529</linkclipref>
                  <mediatype>video</mediatype>
                  <trackindex>1</trackindex>
                  <clipindex>1</clipindex>
                </link>
                <link>
                  <linkclipref>clipitem-530</linkclipref>
                  <mediatype>audio</mediatype>
                  <trackindex>1</trackindex>
                  <clipindex>1</clipindex>
                  <groupindex>1</groupindex>
                </link>
                <link>
                  <linkclipref>clipitem-531</linkclipref>
                  <mediatype>audio</mediatype>
                  <trackindex>2</trackindex>
                  <clipindex>1</clipindex>
                  <groupindex>1</groupindex>
                </link>
              </clipitem>
            </track>
          </video>
          <audio>
            <track>
              <clipitem id="clipitem-530" frameBlend="FALSE">
                <masterclipid>masterclip-173</masterclipid>
                <name>00394.MTS</name>
                <file id="file-173"/>
                <sourcetrack>
                  <mediatype>audio</mediatype>
                  <trackindex>1</trackindex>
                </sourcetrack>
                <link>
                  <linkclipref>clipitem-529</linkclipref>
                  <mediatype>video</mediatype>
                  <trackindex>1</trackindex>
                  <clipindex>1</clipindex>
                </link>
                <link>
                  <linkclipref>clipitem-530</linkclipref>
                  <mediatype>audio</mediatype>
                  <trackindex>1</trackindex>
                  <clipindex>1</clipindex>
                  <groupindex>1</groupindex>
                </link>
                <link>
                  <linkclipref>clipitem-531</linkclipref>
                  <mediatype>audio</mediatype>
                  <trackindex>2</trackindex>
                  <clipindex>1</clipindex>
                  <groupindex>1</groupindex>
                </link>
              </clipitem>
            </track>
            <track>
              <clipitem id="clipitem-531" frameBlend="FALSE">
                <masterclipid>masterclip-173</masterclipid>
                <name>00394.MTS</name>
                <file id="file-173"/>
                <sourcetrack>
                  <mediatype>audio</mediatype>
                  <trackindex>2</trackindex>
                </sourcetrack>
                <link>
                  <linkclipref>clipitem-529</linkclipref>
                  <mediatype>video</mediatype>
                  <trackindex>1</trackindex>
                  <clipindex>1</clipindex>
                </link>
                <link>
                  <linkclipref>clipitem-530</linkclipref>
                  <mediatype>audio</mediatype>
                  <trackindex>1</trackindex>
                  <clipindex>1</clipindex>
                  <groupindex>1</groupindex>
                </link>
                <link>
                  <linkclipref>clipitem-531</linkclipref>
                  <mediatype>audio</mediatype>
                  <trackindex>2</trackindex>
                  <clipindex>1</clipindex>
                  <groupindex>1</groupindex>
                </link>
              </clipitem>
            </track>
          </audio>
        </media>
        <logginginfo>
          <description/>
          <scene/>
          <shottake/>
          <lognote/>
        </logginginfo>
      </clip>
      <clip id="masterclip-174" frameBlend="FALSE">
        <uuid>5fe081bc-862a-4fb1-817f-22b811b8c33f</uuid>
        <masterclipid>masterclip-174</masterclipid>
        <ismasterclip>TRUE</ismasterclip>
        <duration>205</duration>
        <rate>
          <timebase>24</timebase>
          <ntsc>TRUE</ntsc>
        </rate>
        <name>00395.MTS</name>
        <media>
          <video>
            <track>
              <clipitem id="clipitem-532" frameBlend="FALSE">
                <masterclipid>masterclip-174</masterclipid>
                <name>00395.MTS</name>
                <alphatype>black</alphatype>
                <pixelaspectratio>square</pixelaspectratio>
                <anamorphic>FALSE</anamorphic>
                <file id="file-174">
                  <name>00395.MTS</name>
                  <pathurl>file://localhost/Volumes/Macintosh%20HD/Users/jacksongs/Desktop/STREAM/00395.MTS</pathurl>
                  <rate>
                    <timebase>24</timebase>
                    <ntsc>TRUE</ntsc>
                  </rate>
                  <duration>205</duration>
                  <timecode>
                    <rate>
                      <timebase>24</timebase>
                      <ntsc>TRUE</ntsc>
                    </rate>
                    <string>00:00:00:00</string>
                    <frame>0</frame>
                    <displayformat>NDF</displayformat>
                    <reel>
                      <name/>
                    </reel>
                  </timecode>
                  <media>
                    <video>
                      <duration>18000</duration>
                      <samplecharacteristics>
                        <rate>
                          <timebase>24</timebase>
                          <ntsc>TRUE</ntsc>
                        </rate>
                        <width>1920</width>
                        <height>1080</height>
                        <anamorphic>FALSE</anamorphic>
                        <pixelaspectratio>square</pixelaspectratio>
                        <fielddominance>none</fielddominance>
                      </samplecharacteristics>
                    </video>
                    <audio>
                      <samplecharacteristics>
                        <depth>16</depth>
                        <samplerate>48000</samplerate>
                      </samplecharacteristics>
                      <channelcount>2</channelcount>
                    </audio>
                  </media>
                </file>
                <link>
                  <linkclipref>clipitem-532</linkclipref>
                  <mediatype>video</mediatype>
                  <trackindex>1</trackindex>
                  <clipindex>1</clipindex>
                </link>
                <link>
                  <linkclipref>clipitem-533</linkclipref>
                  <mediatype>audio</mediatype>
                  <trackindex>1</trackindex>
                  <clipindex>1</clipindex>
                  <groupindex>1</groupindex>
                </link>
                <link>
                  <linkclipref>clipitem-534</linkclipref>
                  <mediatype>audio</mediatype>
                  <trackindex>2</trackindex>
                  <clipindex>1</clipindex>
                  <groupindex>1</groupindex>
                </link>
              </clipitem>
            </track>
          </video>
          <audio>
            <track>
              <clipitem id="clipitem-533" frameBlend="FALSE">
                <masterclipid>masterclip-174</masterclipid>
                <name>00395.MTS</name>
                <file id="file-174"/>
                <sourcetrack>
                  <mediatype>audio</mediatype>
                  <trackindex>1</trackindex>
                </sourcetrack>
                <link>
                  <linkclipref>clipitem-532</linkclipref>
                  <mediatype>video</mediatype>
                  <trackindex>1</trackindex>
                  <clipindex>1</clipindex>
                </link>
                <link>
                  <linkclipref>clipitem-533</linkclipref>
                  <mediatype>audio</mediatype>
                  <trackindex>1</trackindex>
                  <clipindex>1</clipindex>
                  <groupindex>1</groupindex>
                </link>
                <link>
                  <linkclipref>clipitem-534</linkclipref>
                  <mediatype>audio</mediatype>
                  <trackindex>2</trackindex>
                  <clipindex>1</clipindex>
                  <groupindex>1</groupindex>
                </link>
              </clipitem>
            </track>
            <track>
              <clipitem id="clipitem-534" frameBlend="FALSE">
                <masterclipid>masterclip-174</masterclipid>
                <name>00395.MTS</name>
                <file id="file-174"/>
                <sourcetrack>
                  <mediatype>audio</mediatype>
                  <trackindex>2</trackindex>
                </sourcetrack>
                <link>
                  <linkclipref>clipitem-532</linkclipref>
                  <mediatype>video</mediatype>
                  <trackindex>1</trackindex>
                  <clipindex>1</clipindex>
                </link>
                <link>
                  <linkclipref>clipitem-533</linkclipref>
                  <mediatype>audio</mediatype>
                  <trackindex>1</trackindex>
                  <clipindex>1</clipindex>
                  <groupindex>1</groupindex>
                </link>
                <link>
                  <linkclipref>clipitem-534</linkclipref>
                  <mediatype>audio</mediatype>
                  <trackindex>2</trackindex>
                  <clipindex>1</clipindex>
                  <groupindex>1</groupindex>
                </link>
              </clipitem>
            </track>
          </audio>
        </media>
        <logginginfo>
          <description/>
          <scene/>
          <shottake/>
          <lognote/>
        </logginginfo>
      </clip>
      <clip id="masterclip-175" frameBlend="FALSE">
        <uuid>199c2740-93e4-4dc5-934c-83efdb7d7b43</uuid>
        <masterclipid>masterclip-175</masterclipid>
        <ismasterclip>TRUE</ismasterclip>
        <duration>229</duration>
        <rate>
          <timebase>24</timebase>
          <ntsc>TRUE</ntsc>
        </rate>
        <name>00396.MTS</name>
        <media>
          <video>
            <track>
              <clipitem id="clipitem-535" frameBlend="FALSE">
                <masterclipid>masterclip-175</masterclipid>
                <name>00396.MTS</name>
                <alphatype>black</alphatype>
                <pixelaspectratio>square</pixelaspectratio>
                <anamorphic>FALSE</anamorphic>
                <file id="file-175">
                  <name>00396.MTS</name>
                  <pathurl>file://localhost/Volumes/Macintosh%20HD/Users/jacksongs/Desktop/STREAM/00396.MTS</pathurl>
                  <rate>
                    <timebase>24</timebase>
                    <ntsc>TRUE</ntsc>
                  </rate>
                  <duration>229</duration>
                  <timecode>
                    <rate>
                      <timebase>24</timebase>
                      <ntsc>TRUE</ntsc>
                    </rate>
                    <string>00:00:00:00</string>
                    <frame>0</frame>
                    <displayformat>NDF</displayformat>
                    <reel>
                      <name/>
                    </reel>
                  </timecode>
                  <media>
                    <video>
                      <duration>18000</duration>
                      <samplecharacteristics>
                        <rate>
                          <timebase>24</timebase>
                          <ntsc>TRUE</ntsc>
                        </rate>
                        <width>1920</width>
                        <height>1080</height>
                        <anamorphic>FALSE</anamorphic>
                        <pixelaspectratio>square</pixelaspectratio>
                        <fielddominance>none</fielddominance>
                      </samplecharacteristics>
                    </video>
                    <audio>
                      <samplecharacteristics>
                        <depth>16</depth>
                        <samplerate>48000</samplerate>
                      </samplecharacteristics>
                      <channelcount>2</channelcount>
                    </audio>
                  </media>
                </file>
                <link>
                  <linkclipref>clipitem-535</linkclipref>
                  <mediatype>video</mediatype>
                  <trackindex>1</trackindex>
                  <clipindex>1</clipindex>
                </link>
                <link>
                  <linkclipref>clipitem-536</linkclipref>
                  <mediatype>audio</mediatype>
                  <trackindex>1</trackindex>
                  <clipindex>1</clipindex>
                  <groupindex>1</groupindex>
                </link>
                <link>
                  <linkclipref>clipitem-537</linkclipref>
                  <mediatype>audio</mediatype>
                  <trackindex>2</trackindex>
                  <clipindex>1</clipindex>
                  <groupindex>1</groupindex>
                </link>
              </clipitem>
            </track>
          </video>
          <audio>
            <track>
              <clipitem id="clipitem-536" frameBlend="FALSE">
                <masterclipid>masterclip-175</masterclipid>
                <name>00396.MTS</name>
                <file id="file-175"/>
                <sourcetrack>
                  <mediatype>audio</mediatype>
                  <trackindex>1</trackindex>
                </sourcetrack>
                <link>
                  <linkclipref>clipitem-535</linkclipref>
                  <mediatype>video</mediatype>
                  <trackindex>1</trackindex>
                  <clipindex>1</clipindex>
                </link>
                <link>
                  <linkclipref>clipitem-536</linkclipref>
                  <mediatype>audio</mediatype>
                  <trackindex>1</trackindex>
                  <clipindex>1</clipindex>
                  <groupindex>1</groupindex>
                </link>
                <link>
                  <linkclipref>clipitem-537</linkclipref>
                  <mediatype>audio</mediatype>
                  <trackindex>2</trackindex>
                  <clipindex>1</clipindex>
                  <groupindex>1</groupindex>
                </link>
              </clipitem>
            </track>
            <track>
              <clipitem id="clipitem-537" frameBlend="FALSE">
                <masterclipid>masterclip-175</masterclipid>
                <name>00396.MTS</name>
                <file id="file-175"/>
                <sourcetrack>
                  <mediatype>audio</mediatype>
                  <trackindex>2</trackindex>
                </sourcetrack>
                <link>
                  <linkclipref>clipitem-535</linkclipref>
                  <mediatype>video</mediatype>
                  <trackindex>1</trackindex>
                  <clipindex>1</clipindex>
                </link>
                <link>
                  <linkclipref>clipitem-536</linkclipref>
                  <mediatype>audio</mediatype>
                  <trackindex>1</trackindex>
                  <clipindex>1</clipindex>
                  <groupindex>1</groupindex>
                </link>
                <link>
                  <linkclipref>clipitem-537</linkclipref>
                  <mediatype>audio</mediatype>
                  <trackindex>2</trackindex>
                  <clipindex>1</clipindex>
                  <groupindex>1</groupindex>
                </link>
              </clipitem>
            </track>
          </audio>
        </media>
        <logginginfo>
          <description/>
          <scene/>
          <shottake/>
          <lognote/>
        </logginginfo>
      </clip>
      <clip id="masterclip-176" frameBlend="FALSE">
        <uuid>82662793-c73d-40aa-88cc-8b0483fd4b39</uuid>
        <masterclipid>masterclip-176</masterclipid>
        <ismasterclip>TRUE</ismasterclip>
        <duration>3085</duration>
        <rate>
          <timebase>24</timebase>
          <ntsc>TRUE</ntsc>
        </rate>
        <name>00397.MTS</name>
        <media>
          <video>
            <track>
              <clipitem id="clipitem-538" frameBlend="FALSE">
                <masterclipid>masterclip-176</masterclipid>
                <name>00397.MTS</name>
                <alphatype>black</alphatype>
                <pixelaspectratio>square</pixelaspectratio>
                <anamorphic>FALSE</anamorphic>
                <file id="file-176">
                  <name>00397.MTS</name>
                  <pathurl>file://localhost/Volumes/Macintosh%20HD/Users/jacksongs/Desktop/STREAM/00397.MTS</pathurl>
                  <rate>
                    <timebase>24</timebase>
                    <ntsc>TRUE</ntsc>
                  </rate>
                  <duration>3085</duration>
                  <timecode>
                    <rate>
                      <timebase>24</timebase>
                      <ntsc>TRUE</ntsc>
                    </rate>
                    <string>00:00:00:00</string>
                    <frame>0</frame>
                    <displayformat>NDF</displayformat>
                    <reel>
                      <name/>
                    </reel>
                  </timecode>
                  <media>
                    <video>
                      <duration>18000</duration>
                      <samplecharacteristics>
                        <rate>
                          <timebase>24</timebase>
                          <ntsc>TRUE</ntsc>
                        </rate>
                        <width>1920</width>
                        <height>1080</height>
                        <anamorphic>FALSE</anamorphic>
                        <pixelaspectratio>square</pixelaspectratio>
                        <fielddominance>none</fielddominance>
                      </samplecharacteristics>
                    </video>
                    <audio>
                      <samplecharacteristics>
                        <depth>16</depth>
                        <samplerate>48000</samplerate>
                      </samplecharacteristics>
                      <channelcount>2</channelcount>
                    </audio>
                  </media>
                </file>
                <link>
                  <linkclipref>clipitem-538</linkclipref>
                  <mediatype>video</mediatype>
                  <trackindex>1</trackindex>
                  <clipindex>1</clipindex>
                </link>
                <link>
                  <linkclipref>clipitem-539</linkclipref>
                  <mediatype>audio</mediatype>
                  <trackindex>1</trackindex>
                  <clipindex>1</clipindex>
                  <groupindex>1</groupindex>
                </link>
                <link>
                  <linkclipref>clipitem-540</linkclipref>
                  <mediatype>audio</mediatype>
                  <trackindex>2</trackindex>
                  <clipindex>1</clipindex>
                  <groupindex>1</groupindex>
                </link>
              </clipitem>
            </track>
          </video>
          <audio>
            <track>
              <clipitem id="clipitem-539" frameBlend="FALSE">
                <masterclipid>masterclip-176</masterclipid>
                <name>00397.MTS</name>
                <file id="file-176"/>
                <sourcetrack>
                  <mediatype>audio</mediatype>
                  <trackindex>1</trackindex>
                </sourcetrack>
                <link>
                  <linkclipref>clipitem-538</linkclipref>
                  <mediatype>video</mediatype>
                  <trackindex>1</trackindex>
                  <clipindex>1</clipindex>
                </link>
                <link>
                  <linkclipref>clipitem-539</linkclipref>
                  <mediatype>audio</mediatype>
                  <trackindex>1</trackindex>
                  <clipindex>1</clipindex>
                  <groupindex>1</groupindex>
                </link>
                <link>
                  <linkclipref>clipitem-540</linkclipref>
                  <mediatype>audio</mediatype>
                  <trackindex>2</trackindex>
                  <clipindex>1</clipindex>
                  <groupindex>1</groupindex>
                </link>
              </clipitem>
            </track>
            <track>
              <clipitem id="clipitem-540" frameBlend="FALSE">
                <masterclipid>masterclip-176</masterclipid>
                <name>00397.MTS</name>
                <file id="file-176"/>
                <sourcetrack>
                  <mediatype>audio</mediatype>
                  <trackindex>2</trackindex>
                </sourcetrack>
                <link>
                  <linkclipref>clipitem-538</linkclipref>
                  <mediatype>video</mediatype>
                  <trackindex>1</trackindex>
                  <clipindex>1</clipindex>
                </link>
                <link>
                  <linkclipref>clipitem-539</linkclipref>
                  <mediatype>audio</mediatype>
                  <trackindex>1</trackindex>
                  <clipindex>1</clipindex>
                  <groupindex>1</groupindex>
                </link>
                <link>
                  <linkclipref>clipitem-540</linkclipref>
                  <mediatype>audio</mediatype>
                  <trackindex>2</trackindex>
                  <clipindex>1</clipindex>
                  <groupindex>1</groupindex>
                </link>
              </clipitem>
            </track>
          </audio>
        </media>
        <logginginfo>
          <description/>
          <scene/>
          <shottake/>
          <lognote/>
        </logginginfo>
      </clip>
      <clip id="masterclip-177" frameBlend="FALSE">
        <uuid>b7a93abe-f662-4332-aead-a5e705f23591</uuid>
        <masterclipid>masterclip-177</masterclipid>
        <ismasterclip>TRUE</ismasterclip>
        <duration>289</duration>
        <rate>
          <timebase>24</timebase>
          <ntsc>TRUE</ntsc>
        </rate>
        <name>00398.MTS</name>
        <media>
          <video>
            <track>
              <clipitem id="clipitem-541" frameBlend="FALSE">
                <masterclipid>masterclip-177</masterclipid>
                <name>00398.MTS</name>
                <alphatype>black</alphatype>
                <pixelaspectratio>square</pixelaspectratio>
                <anamorphic>FALSE</anamorphic>
                <file id="file-177">
                  <name>00398.MTS</name>
                  <pathurl>file://localhost/Volumes/Macintosh%20HD/Users/jacksongs/Desktop/STREAM/00398.MTS</pathurl>
                  <rate>
                    <timebase>24</timebase>
                    <ntsc>TRUE</ntsc>
                  </rate>
                  <duration>289</duration>
                  <timecode>
                    <rate>
                      <timebase>24</timebase>
                      <ntsc>TRUE</ntsc>
                    </rate>
                    <string>00:00:00:00</string>
                    <frame>0</frame>
                    <displayformat>NDF</displayformat>
                    <reel>
                      <name/>
                    </reel>
                  </timecode>
                  <media>
                    <video>
                      <duration>18000</duration>
                      <samplecharacteristics>
                        <rate>
                          <timebase>24</timebase>
                          <ntsc>TRUE</ntsc>
                        </rate>
                        <width>1920</width>
                        <height>1080</height>
                        <anamorphic>FALSE</anamorphic>
                        <pixelaspectratio>square</pixelaspectratio>
                        <fielddominance>none</fielddominance>
                      </samplecharacteristics>
                    </video>
                    <audio>
                      <samplecharacteristics>
                        <depth>16</depth>
                        <samplerate>48000</samplerate>
                      </samplecharacteristics>
                      <channelcount>2</channelcount>
                    </audio>
                  </media>
                </file>
                <link>
                  <linkclipref>clipitem-541</linkclipref>
                  <mediatype>video</mediatype>
                  <trackindex>1</trackindex>
                  <clipindex>1</clipindex>
                </link>
                <link>
                  <linkclipref>clipitem-542</linkclipref>
                  <mediatype>audio</mediatype>
                  <trackindex>1</trackindex>
                  <clipindex>1</clipindex>
                  <groupindex>1</groupindex>
                </link>
                <link>
                  <linkclipref>clipitem-543</linkclipref>
                  <mediatype>audio</mediatype>
                  <trackindex>2</trackindex>
                  <clipindex>1</clipindex>
                  <groupindex>1</groupindex>
                </link>
              </clipitem>
            </track>
          </video>
          <audio>
            <track>
              <clipitem id="clipitem-542" frameBlend="FALSE">
                <masterclipid>masterclip-177</masterclipid>
                <name>00398.MTS</name>
                <file id="file-177"/>
                <sourcetrack>
                  <mediatype>audio</mediatype>
                  <trackindex>1</trackindex>
                </sourcetrack>
                <link>
                  <linkclipref>clipitem-541</linkclipref>
                  <mediatype>video</mediatype>
                  <trackindex>1</trackindex>
                  <clipindex>1</clipindex>
                </link>
                <link>
                  <linkclipref>clipitem-542</linkclipref>
                  <mediatype>audio</mediatype>
                  <trackindex>1</trackindex>
                  <clipindex>1</clipindex>
                  <groupindex>1</groupindex>
                </link>
                <link>
                  <linkclipref>clipitem-543</linkclipref>
                  <mediatype>audio</mediatype>
                  <trackindex>2</trackindex>
                  <clipindex>1</clipindex>
                  <groupindex>1</groupindex>
                </link>
              </clipitem>
            </track>
            <track>
              <clipitem id="clipitem-543" frameBlend="FALSE">
                <masterclipid>masterclip-177</masterclipid>
                <name>00398.MTS</name>
                <file id="file-177"/>
                <sourcetrack>
                  <mediatype>audio</mediatype>
                  <trackindex>2</trackindex>
                </sourcetrack>
                <link>
                  <linkclipref>clipitem-541</linkclipref>
                  <mediatype>video</mediatype>
                  <trackindex>1</trackindex>
                  <clipindex>1</clipindex>
                </link>
                <link>
                  <linkclipref>clipitem-542</linkclipref>
                  <mediatype>audio</mediatype>
                  <trackindex>1</trackindex>
                  <clipindex>1</clipindex>
                  <groupindex>1</groupindex>
                </link>
                <link>
                  <linkclipref>clipitem-543</linkclipref>
                  <mediatype>audio</mediatype>
                  <trackindex>2</trackindex>
                  <clipindex>1</clipindex>
                  <groupindex>1</groupindex>
                </link>
              </clipitem>
            </track>
          </audio>
        </media>
        <logginginfo>
          <description/>
          <scene/>
          <shottake/>
          <lognote/>
        </logginginfo>
      </clip>
      <clip id="masterclip-178" frameBlend="FALSE">
        <uuid>d3735643-b540-4b17-8714-4061bc0ef8ec</uuid>
        <masterclipid>masterclip-178</masterclipid>
        <ismasterclip>TRUE</ismasterclip>
        <duration>241</duration>
        <rate>
          <timebase>24</timebase>
          <ntsc>TRUE</ntsc>
        </rate>
        <name>00399.MTS</name>
        <media>
          <video>
            <track>
              <clipitem id="clipitem-544" frameBlend="FALSE">
                <masterclipid>masterclip-178</masterclipid>
                <name>00399.MTS</name>
                <alphatype>black</alphatype>
                <pixelaspectratio>square</pixelaspectratio>
                <anamorphic>FALSE</anamorphic>
                <file id="file-178">
                  <name>00399.MTS</name>
                  <pathurl>file://localhost/Volumes/Macintosh%20HD/Users/jacksongs/Desktop/STREAM/00399.MTS</pathurl>
                  <rate>
                    <timebase>24</timebase>
                    <ntsc>TRUE</ntsc>
                  </rate>
                  <duration>241</duration>
                  <timecode>
                    <rate>
                      <timebase>24</timebase>
                      <ntsc>TRUE</ntsc>
                    </rate>
                    <string>00:00:00:00</string>
                    <frame>0</frame>
                    <displayformat>NDF</displayformat>
                    <reel>
                      <name/>
                    </reel>
                  </timecode>
                  <media>
                    <video>
                      <duration>18000</duration>
                      <samplecharacteristics>
                        <rate>
                          <timebase>24</timebase>
                          <ntsc>TRUE</ntsc>
                        </rate>
                        <width>1920</width>
                        <height>1080</height>
                        <anamorphic>FALSE</anamorphic>
                        <pixelaspectratio>square</pixelaspectratio>
                        <fielddominance>none</fielddominance>
                      </samplecharacteristics>
                    </video>
                    <audio>
                      <samplecharacteristics>
                        <depth>16</depth>
                        <samplerate>48000</samplerate>
                      </samplecharacteristics>
                      <channelcount>2</channelcount>
                    </audio>
                  </media>
                </file>
                <link>
                  <linkclipref>clipitem-544</linkclipref>
                  <mediatype>video</mediatype>
                  <trackindex>1</trackindex>
                  <clipindex>1</clipindex>
                </link>
                <link>
                  <linkclipref>clipitem-545</linkclipref>
                  <mediatype>audio</mediatype>
                  <trackindex>1</trackindex>
                  <clipindex>1</clipindex>
                  <groupindex>1</groupindex>
                </link>
                <link>
                  <linkclipref>clipitem-546</linkclipref>
                  <mediatype>audio</mediatype>
                  <trackindex>2</trackindex>
                  <clipindex>1</clipindex>
                  <groupindex>1</groupindex>
                </link>
              </clipitem>
            </track>
          </video>
          <audio>
            <track>
              <clipitem id="clipitem-545" frameBlend="FALSE">
                <masterclipid>masterclip-178</masterclipid>
                <name>00399.MTS</name>
                <file id="file-178"/>
                <sourcetrack>
                  <mediatype>audio</mediatype>
                  <trackindex>1</trackindex>
                </sourcetrack>
                <link>
                  <linkclipref>clipitem-544</linkclipref>
                  <mediatype>video</mediatype>
                  <trackindex>1</trackindex>
                  <clipindex>1</clipindex>
                </link>
                <link>
                  <linkclipref>clipitem-545</linkclipref>
                  <mediatype>audio</mediatype>
                  <trackindex>1</trackindex>
                  <clipindex>1</clipindex>
                  <groupindex>1</groupindex>
                </link>
                <link>
                  <linkclipref>clipitem-546</linkclipref>
                  <mediatype>audio</mediatype>
                  <trackindex>2</trackindex>
                  <clipindex>1</clipindex>
                  <groupindex>1</groupindex>
                </link>
              </clipitem>
            </track>
            <track>
              <clipitem id="clipitem-546" frameBlend="FALSE">
                <masterclipid>masterclip-178</masterclipid>
                <name>00399.MTS</name>
                <file id="file-178"/>
                <sourcetrack>
                  <mediatype>audio</mediatype>
                  <trackindex>2</trackindex>
                </sourcetrack>
                <link>
                  <linkclipref>clipitem-544</linkclipref>
                  <mediatype>video</mediatype>
                  <trackindex>1</trackindex>
                  <clipindex>1</clipindex>
                </link>
                <link>
                  <linkclipref>clipitem-545</linkclipref>
                  <mediatype>audio</mediatype>
                  <trackindex>1</trackindex>
                  <clipindex>1</clipindex>
                  <groupindex>1</groupindex>
                </link>
                <link>
                  <linkclipref>clipitem-546</linkclipref>
                  <mediatype>audio</mediatype>
                  <trackindex>2</trackindex>
                  <clipindex>1</clipindex>
                  <groupindex>1</groupindex>
                </link>
              </clipitem>
            </track>
          </audio>
        </media>
        <logginginfo>
          <description/>
          <scene/>
          <shottake/>
          <lognote/>
        </logginginfo>
      </clip>
      <clip id="masterclip-179" frameBlend="FALSE">
        <uuid>d3db909c-1cb8-4b22-80c5-855d35cbc2fc</uuid>
        <masterclipid>masterclip-179</masterclipid>
        <ismasterclip>TRUE</ismasterclip>
        <duration>133</duration>
        <rate>
          <timebase>24</timebase>
          <ntsc>TRUE</ntsc>
        </rate>
        <name>00400.MTS</name>
        <media>
          <video>
            <track>
              <clipitem id="clipitem-547" frameBlend="FALSE">
                <masterclipid>masterclip-179</masterclipid>
                <name>00400.MTS</name>
                <alphatype>black</alphatype>
                <pixelaspectratio>square</pixelaspectratio>
                <anamorphic>FALSE</anamorphic>
                <file id="file-179">
                  <name>00400.MTS</name>
                  <pathurl>file://localhost/Volumes/Macintosh%20HD/Users/jacksongs/Desktop/STREAM/00400.MTS</pathurl>
                  <rate>
                    <timebase>24</timebase>
                    <ntsc>TRUE</ntsc>
                  </rate>
                  <duration>133</duration>
                  <timecode>
                    <rate>
                      <timebase>24</timebase>
                      <ntsc>TRUE</ntsc>
                    </rate>
                    <string>00:00:00:00</string>
                    <frame>0</frame>
                    <displayformat>NDF</displayformat>
                    <reel>
                      <name/>
                    </reel>
                  </timecode>
                  <media>
                    <video>
                      <duration>18000</duration>
                      <samplecharacteristics>
                        <rate>
                          <timebase>24</timebase>
                          <ntsc>TRUE</ntsc>
                        </rate>
                        <width>1920</width>
                        <height>1080</height>
                        <anamorphic>FALSE</anamorphic>
                        <pixelaspectratio>square</pixelaspectratio>
                        <fielddominance>none</fielddominance>
                      </samplecharacteristics>
                    </video>
                    <audio>
                      <samplecharacteristics>
                        <depth>16</depth>
                        <samplerate>48000</samplerate>
                      </samplecharacteristics>
                      <channelcount>2</channelcount>
                    </audio>
                  </media>
                </file>
                <link>
                  <linkclipref>clipitem-547</linkclipref>
                  <mediatype>video</mediatype>
                  <trackindex>1</trackindex>
                  <clipindex>1</clipindex>
                </link>
                <link>
                  <linkclipref>clipitem-548</linkclipref>
                  <mediatype>audio</mediatype>
                  <trackindex>1</trackindex>
                  <clipindex>1</clipindex>
                  <groupindex>1</groupindex>
                </link>
                <link>
                  <linkclipref>clipitem-549</linkclipref>
                  <mediatype>audio</mediatype>
                  <trackindex>2</trackindex>
                  <clipindex>1</clipindex>
                  <groupindex>1</groupindex>
                </link>
              </clipitem>
            </track>
          </video>
          <audio>
            <track>
              <clipitem id="clipitem-548" frameBlend="FALSE">
                <masterclipid>masterclip-179</masterclipid>
                <name>00400.MTS</name>
                <file id="file-179"/>
                <sourcetrack>
                  <mediatype>audio</mediatype>
                  <trackindex>1</trackindex>
                </sourcetrack>
                <link>
                  <linkclipref>clipitem-547</linkclipref>
                  <mediatype>video</mediatype>
                  <trackindex>1</trackindex>
                  <clipindex>1</clipindex>
                </link>
                <link>
                  <linkclipref>clipitem-548</linkclipref>
                  <mediatype>audio</mediatype>
                  <trackindex>1</trackindex>
                  <clipindex>1</clipindex>
                  <groupindex>1</groupindex>
                </link>
                <link>
                  <linkclipref>clipitem-549</linkclipref>
                  <mediatype>audio</mediatype>
                  <trackindex>2</trackindex>
                  <clipindex>1</clipindex>
                  <groupindex>1</groupindex>
                </link>
              </clipitem>
            </track>
            <track>
              <clipitem id="clipitem-549" frameBlend="FALSE">
                <masterclipid>masterclip-179</masterclipid>
                <name>00400.MTS</name>
                <file id="file-179"/>
                <sourcetrack>
                  <mediatype>audio</mediatype>
                  <trackindex>2</trackindex>
                </sourcetrack>
                <link>
                  <linkclipref>clipitem-547</linkclipref>
                  <mediatype>video</mediatype>
                  <trackindex>1</trackindex>
                  <clipindex>1</clipindex>
                </link>
                <link>
                  <linkclipref>clipitem-548</linkclipref>
                  <mediatype>audio</mediatype>
                  <trackindex>1</trackindex>
                  <clipindex>1</clipindex>
                  <groupindex>1</groupindex>
                </link>
                <link>
                  <linkclipref>clipitem-549</linkclipref>
                  <mediatype>audio</mediatype>
                  <trackindex>2</trackindex>
                  <clipindex>1</clipindex>
                  <groupindex>1</groupindex>
                </link>
              </clipitem>
            </track>
          </audio>
        </media>
        <logginginfo>
          <description/>
          <scene/>
          <shottake/>
          <lognote/>
        </logginginfo>
      </clip>
      <clip id="masterclip-180" frameBlend="FALSE">
        <uuid>7ee3abb2-9ccc-4c22-8d1b-5907570af0b6</uuid>
        <masterclipid>masterclip-180</masterclipid>
        <ismasterclip>TRUE</ismasterclip>
        <duration>445</duration>
        <rate>
          <timebase>24</timebase>
          <ntsc>TRUE</ntsc>
        </rate>
        <name>00401.MTS</name>
        <media>
          <video>
            <track>
              <clipitem id="clipitem-550" frameBlend="FALSE">
                <masterclipid>masterclip-180</masterclipid>
                <name>00401.MTS</name>
                <alphatype>black</alphatype>
                <pixelaspectratio>square</pixelaspectratio>
                <anamorphic>FALSE</anamorphic>
                <file id="file-180">
                  <name>00401.MTS</name>
                  <pathurl>file://localhost/Volumes/Macintosh%20HD/Users/jacksongs/Desktop/STREAM/00401.MTS</pathurl>
                  <rate>
                    <timebase>24</timebase>
                    <ntsc>TRUE</ntsc>
                  </rate>
                  <duration>445</duration>
                  <timecode>
                    <rate>
                      <timebase>24</timebase>
                      <ntsc>TRUE</ntsc>
                    </rate>
                    <string>00:00:00:00</string>
                    <frame>0</frame>
                    <displayformat>NDF</displayformat>
                    <reel>
                      <name/>
                    </reel>
                  </timecode>
                  <media>
                    <video>
                      <duration>18000</duration>
                      <samplecharacteristics>
                        <rate>
                          <timebase>24</timebase>
                          <ntsc>TRUE</ntsc>
                        </rate>
                        <width>1920</width>
                        <height>1080</height>
                        <anamorphic>FALSE</anamorphic>
                        <pixelaspectratio>square</pixelaspectratio>
                        <fielddominance>none</fielddominance>
                      </samplecharacteristics>
                    </video>
                    <audio>
                      <samplecharacteristics>
                        <depth>16</depth>
                        <samplerate>48000</samplerate>
                      </samplecharacteristics>
                      <channelcount>2</channelcount>
                    </audio>
                  </media>
                </file>
                <link>
                  <linkclipref>clipitem-550</linkclipref>
                  <mediatype>video</mediatype>
                  <trackindex>1</trackindex>
                  <clipindex>1</clipindex>
                </link>
                <link>
                  <linkclipref>clipitem-551</linkclipref>
                  <mediatype>audio</mediatype>
                  <trackindex>1</trackindex>
                  <clipindex>1</clipindex>
                  <groupindex>1</groupindex>
                </link>
                <link>
                  <linkclipref>clipitem-552</linkclipref>
                  <mediatype>audio</mediatype>
                  <trackindex>2</trackindex>
                  <clipindex>1</clipindex>
                  <groupindex>1</groupindex>
                </link>
              </clipitem>
            </track>
          </video>
          <audio>
            <track>
              <clipitem id="clipitem-551" frameBlend="FALSE">
                <masterclipid>masterclip-180</masterclipid>
                <name>00401.MTS</name>
                <file id="file-180"/>
                <sourcetrack>
                  <mediatype>audio</mediatype>
                  <trackindex>1</trackindex>
                </sourcetrack>
                <link>
                  <linkclipref>clipitem-550</linkclipref>
                  <mediatype>video</mediatype>
                  <trackindex>1</trackindex>
                  <clipindex>1</clipindex>
                </link>
                <link>
                  <linkclipref>clipitem-551</linkclipref>
                  <mediatype>audio</mediatype>
                  <trackindex>1</trackindex>
                  <clipindex>1</clipindex>
                  <groupindex>1</groupindex>
                </link>
                <link>
                  <linkclipref>clipitem-552</linkclipref>
                  <mediatype>audio</mediatype>
                  <trackindex>2</trackindex>
                  <clipindex>1</clipindex>
                  <groupindex>1</groupindex>
                </link>
              </clipitem>
            </track>
            <track>
              <clipitem id="clipitem-552" frameBlend="FALSE">
                <masterclipid>masterclip-180</masterclipid>
                <name>00401.MTS</name>
                <file id="file-180"/>
                <sourcetrack>
                  <mediatype>audio</mediatype>
                  <trackindex>2</trackindex>
                </sourcetrack>
                <link>
                  <linkclipref>clipitem-550</linkclipref>
                  <mediatype>video</mediatype>
                  <trackindex>1</trackindex>
                  <clipindex>1</clipindex>
                </link>
                <link>
                  <linkclipref>clipitem-551</linkclipref>
                  <mediatype>audio</mediatype>
                  <trackindex>1</trackindex>
                  <clipindex>1</clipindex>
                  <groupindex>1</groupindex>
                </link>
                <link>
                  <linkclipref>clipitem-552</linkclipref>
                  <mediatype>audio</mediatype>
                  <trackindex>2</trackindex>
                  <clipindex>1</clipindex>
                  <groupindex>1</groupindex>
                </link>
              </clipitem>
            </track>
          </audio>
        </media>
        <logginginfo>
          <description/>
          <scene/>
          <shottake/>
          <lognote/>
        </logginginfo>
      </clip>
      <clip id="masterclip-181" frameBlend="FALSE">
        <uuid>1b7e29f2-44bd-497f-a58f-b459df9cf2e1</uuid>
        <masterclipid>masterclip-181</masterclipid>
        <ismasterclip>TRUE</ismasterclip>
        <duration>205</duration>
        <rate>
          <timebase>24</timebase>
          <ntsc>TRUE</ntsc>
        </rate>
        <name>00402.MTS</name>
        <media>
          <video>
            <track>
              <clipitem id="clipitem-553" frameBlend="FALSE">
                <masterclipid>masterclip-181</masterclipid>
                <name>00402.MTS</name>
                <alphatype>black</alphatype>
                <pixelaspectratio>square</pixelaspectratio>
                <anamorphic>FALSE</anamorphic>
                <file id="file-181">
                  <name>00402.MTS</name>
                  <pathurl>file://localhost/Volumes/Macintosh%20HD/Users/jacksongs/Desktop/STREAM/00402.MTS</pathurl>
                  <rate>
                    <timebase>24</timebase>
                    <ntsc>TRUE</ntsc>
                  </rate>
                  <duration>205</duration>
                  <timecode>
                    <rate>
                      <timebase>24</timebase>
                      <ntsc>TRUE</ntsc>
                    </rate>
                    <string>00:00:00:00</string>
                    <frame>0</frame>
                    <displayformat>NDF</displayformat>
                    <reel>
                      <name/>
                    </reel>
                  </timecode>
                  <media>
                    <video>
                      <duration>18000</duration>
                      <samplecharacteristics>
                        <rate>
                          <timebase>24</timebase>
                          <ntsc>TRUE</ntsc>
                        </rate>
                        <width>1920</width>
                        <height>1080</height>
                        <anamorphic>FALSE</anamorphic>
                        <pixelaspectratio>square</pixelaspectratio>
                        <fielddominance>none</fielddominance>
                      </samplecharacteristics>
                    </video>
                    <audio>
                      <samplecharacteristics>
                        <depth>16</depth>
                        <samplerate>48000</samplerate>
                      </samplecharacteristics>
                      <channelcount>2</channelcount>
                    </audio>
                  </media>
                </file>
                <link>
                  <linkclipref>clipitem-553</linkclipref>
                  <mediatype>video</mediatype>
                  <trackindex>1</trackindex>
                  <clipindex>1</clipindex>
                </link>
                <link>
                  <linkclipref>clipitem-554</linkclipref>
                  <mediatype>audio</mediatype>
                  <trackindex>1</trackindex>
                  <clipindex>1</clipindex>
                  <groupindex>1</groupindex>
                </link>
                <link>
                  <linkclipref>clipitem-555</linkclipref>
                  <mediatype>audio</mediatype>
                  <trackindex>2</trackindex>
                  <clipindex>1</clipindex>
                  <groupindex>1</groupindex>
                </link>
              </clipitem>
            </track>
          </video>
          <audio>
            <track>
              <clipitem id="clipitem-554" frameBlend="FALSE">
                <masterclipid>masterclip-181</masterclipid>
                <name>00402.MTS</name>
                <file id="file-181"/>
                <sourcetrack>
                  <mediatype>audio</mediatype>
                  <trackindex>1</trackindex>
                </sourcetrack>
                <link>
                  <linkclipref>clipitem-553</linkclipref>
                  <mediatype>video</mediatype>
                  <trackindex>1</trackindex>
                  <clipindex>1</clipindex>
                </link>
                <link>
                  <linkclipref>clipitem-554</linkclipref>
                  <mediatype>audio</mediatype>
                  <trackindex>1</trackindex>
                  <clipindex>1</clipindex>
                  <groupindex>1</groupindex>
                </link>
                <link>
                  <linkclipref>clipitem-555</linkclipref>
                  <mediatype>audio</mediatype>
                  <trackindex>2</trackindex>
                  <clipindex>1</clipindex>
                  <groupindex>1</groupindex>
                </link>
              </clipitem>
            </track>
            <track>
              <clipitem id="clipitem-555" frameBlend="FALSE">
                <masterclipid>masterclip-181</masterclipid>
                <name>00402.MTS</name>
                <file id="file-181"/>
                <sourcetrack>
                  <mediatype>audio</mediatype>
                  <trackindex>2</trackindex>
                </sourcetrack>
                <link>
                  <linkclipref>clipitem-553</linkclipref>
                  <mediatype>video</mediatype>
                  <trackindex>1</trackindex>
                  <clipindex>1</clipindex>
                </link>
                <link>
                  <linkclipref>clipitem-554</linkclipref>
                  <mediatype>audio</mediatype>
                  <trackindex>1</trackindex>
                  <clipindex>1</clipindex>
                  <groupindex>1</groupindex>
                </link>
                <link>
                  <linkclipref>clipitem-555</linkclipref>
                  <mediatype>audio</mediatype>
                  <trackindex>2</trackindex>
                  <clipindex>1</clipindex>
                  <groupindex>1</groupindex>
                </link>
              </clipitem>
            </track>
          </audio>
        </media>
        <logginginfo>
          <description/>
          <scene/>
          <shottake/>
          <lognote/>
        </logginginfo>
      </clip>
      <clip id="masterclip-182" frameBlend="FALSE">
        <uuid>8751afe9-9928-4b1d-b54b-8e431c67f54a</uuid>
        <masterclipid>masterclip-182</masterclipid>
        <ismasterclip>TRUE</ismasterclip>
        <duration>469</duration>
        <rate>
          <timebase>24</timebase>
          <ntsc>TRUE</ntsc>
        </rate>
        <name>00403.MTS</name>
        <media>
          <video>
            <track>
              <clipitem id="clipitem-556" frameBlend="FALSE">
                <masterclipid>masterclip-182</masterclipid>
                <name>00403.MTS</name>
                <alphatype>black</alphatype>
                <pixelaspectratio>square</pixelaspectratio>
                <anamorphic>FALSE</anamorphic>
                <file id="file-182">
                  <name>00403.MTS</name>
                  <pathurl>file://localhost/Volumes/Macintosh%20HD/Users/jacksongs/Desktop/STREAM/00403.MTS</pathurl>
                  <rate>
                    <timebase>24</timebase>
                    <ntsc>TRUE</ntsc>
                  </rate>
                  <duration>469</duration>
                  <timecode>
                    <rate>
                      <timebase>24</timebase>
                      <ntsc>TRUE</ntsc>
                    </rate>
                    <string>00:00:00:00</string>
                    <frame>0</frame>
                    <displayformat>NDF</displayformat>
                    <reel>
                      <name/>
                    </reel>
                  </timecode>
                  <media>
                    <video>
                      <duration>18000</duration>
                      <samplecharacteristics>
                        <rate>
                          <timebase>24</timebase>
                          <ntsc>TRUE</ntsc>
                        </rate>
                        <width>1920</width>
                        <height>1080</height>
                        <anamorphic>FALSE</anamorphic>
                        <pixelaspectratio>square</pixelaspectratio>
                        <fielddominance>none</fielddominance>
                      </samplecharacteristics>
                    </video>
                    <audio>
                      <samplecharacteristics>
                        <depth>16</depth>
                        <samplerate>48000</samplerate>
                      </samplecharacteristics>
                      <channelcount>2</channelcount>
                    </audio>
                  </media>
                </file>
                <link>
                  <linkclipref>clipitem-556</linkclipref>
                  <mediatype>video</mediatype>
                  <trackindex>1</trackindex>
                  <clipindex>1</clipindex>
                </link>
                <link>
                  <linkclipref>clipitem-557</linkclipref>
                  <mediatype>audio</mediatype>
                  <trackindex>1</trackindex>
                  <clipindex>1</clipindex>
                  <groupindex>1</groupindex>
                </link>
                <link>
                  <linkclipref>clipitem-558</linkclipref>
                  <mediatype>audio</mediatype>
                  <trackindex>2</trackindex>
                  <clipindex>1</clipindex>
                  <groupindex>1</groupindex>
                </link>
              </clipitem>
            </track>
          </video>
          <audio>
            <track>
              <clipitem id="clipitem-557" frameBlend="FALSE">
                <masterclipid>masterclip-182</masterclipid>
                <name>00403.MTS</name>
                <file id="file-182"/>
                <sourcetrack>
                  <mediatype>audio</mediatype>
                  <trackindex>1</trackindex>
                </sourcetrack>
                <link>
                  <linkclipref>clipitem-556</linkclipref>
                  <mediatype>video</mediatype>
                  <trackindex>1</trackindex>
                  <clipindex>1</clipindex>
                </link>
                <link>
                  <linkclipref>clipitem-557</linkclipref>
                  <mediatype>audio</mediatype>
                  <trackindex>1</trackindex>
                  <clipindex>1</clipindex>
                  <groupindex>1</groupindex>
                </link>
                <link>
                  <linkclipref>clipitem-558</linkclipref>
                  <mediatype>audio</mediatype>
                  <trackindex>2</trackindex>
                  <clipindex>1</clipindex>
                  <groupindex>1</groupindex>
                </link>
              </clipitem>
            </track>
            <track>
              <clipitem id="clipitem-558" frameBlend="FALSE">
                <masterclipid>masterclip-182</masterclipid>
                <name>00403.MTS</name>
                <file id="file-182"/>
                <sourcetrack>
                  <mediatype>audio</mediatype>
                  <trackindex>2</trackindex>
                </sourcetrack>
                <link>
                  <linkclipref>clipitem-556</linkclipref>
                  <mediatype>video</mediatype>
                  <trackindex>1</trackindex>
                  <clipindex>1</clipindex>
                </link>
                <link>
                  <linkclipref>clipitem-557</linkclipref>
                  <mediatype>audio</mediatype>
                  <trackindex>1</trackindex>
                  <clipindex>1</clipindex>
                  <groupindex>1</groupindex>
                </link>
                <link>
                  <linkclipref>clipitem-558</linkclipref>
                  <mediatype>audio</mediatype>
                  <trackindex>2</trackindex>
                  <clipindex>1</clipindex>
                  <groupindex>1</groupindex>
                </link>
              </clipitem>
            </track>
          </audio>
        </media>
        <logginginfo>
          <description/>
          <scene/>
          <shottake/>
          <lognote/>
        </logginginfo>
      </clip>
      <clip id="masterclip-183" frameBlend="FALSE">
        <uuid>e495b6c3-4cc9-4029-8cce-99daaa739761</uuid>
        <masterclipid>masterclip-183</masterclipid>
        <ismasterclip>TRUE</ismasterclip>
        <duration>481</duration>
        <rate>
          <timebase>24</timebase>
          <ntsc>TRUE</ntsc>
        </rate>
        <name>00404.MTS</name>
        <media>
          <video>
            <track>
              <clipitem id="clipitem-559" frameBlend="FALSE">
                <masterclipid>masterclip-183</masterclipid>
                <name>00404.MTS</name>
                <alphatype>black</alphatype>
                <pixelaspectratio>square</pixelaspectratio>
                <anamorphic>FALSE</anamorphic>
                <file id="file-183">
                  <name>00404.MTS</name>
                  <pathurl>file://localhost/Volumes/Macintosh%20HD/Users/jacksongs/Desktop/STREAM/00404.MTS</pathurl>
                  <rate>
                    <timebase>24</timebase>
                    <ntsc>TRUE</ntsc>
                  </rate>
                  <duration>481</duration>
                  <timecode>
                    <rate>
                      <timebase>24</timebase>
                      <ntsc>TRUE</ntsc>
                    </rate>
                    <string>00:00:00:00</string>
                    <frame>0</frame>
                    <displayformat>NDF</displayformat>
                    <reel>
                      <name/>
                    </reel>
                  </timecode>
                  <media>
                    <video>
                      <duration>18000</duration>
                      <samplecharacteristics>
                        <rate>
                          <timebase>24</timebase>
                          <ntsc>TRUE</ntsc>
                        </rate>
                        <width>1920</width>
                        <height>1080</height>
                        <anamorphic>FALSE</anamorphic>
                        <pixelaspectratio>square</pixelaspectratio>
                        <fielddominance>none</fielddominance>
                      </samplecharacteristics>
                    </video>
                    <audio>
                      <samplecharacteristics>
                        <depth>16</depth>
                        <samplerate>48000</samplerate>
                      </samplecharacteristics>
                      <channelcount>2</channelcount>
                    </audio>
                  </media>
                </file>
                <link>
                  <linkclipref>clipitem-559</linkclipref>
                  <mediatype>video</mediatype>
                  <trackindex>1</trackindex>
                  <clipindex>1</clipindex>
                </link>
                <link>
                  <linkclipref>clipitem-560</linkclipref>
                  <mediatype>audio</mediatype>
                  <trackindex>1</trackindex>
                  <clipindex>1</clipindex>
                  <groupindex>1</groupindex>
                </link>
                <link>
                  <linkclipref>clipitem-561</linkclipref>
                  <mediatype>audio</mediatype>
                  <trackindex>2</trackindex>
                  <clipindex>1</clipindex>
                  <groupindex>1</groupindex>
                </link>
              </clipitem>
            </track>
          </video>
          <audio>
            <track>
              <clipitem id="clipitem-560" frameBlend="FALSE">
                <masterclipid>masterclip-183</masterclipid>
                <name>00404.MTS</name>
                <file id="file-183"/>
                <sourcetrack>
                  <mediatype>audio</mediatype>
                  <trackindex>1</trackindex>
                </sourcetrack>
                <link>
                  <linkclipref>clipitem-559</linkclipref>
                  <mediatype>video</mediatype>
                  <trackindex>1</trackindex>
                  <clipindex>1</clipindex>
                </link>
                <link>
                  <linkclipref>clipitem-560</linkclipref>
                  <mediatype>audio</mediatype>
                  <trackindex>1</trackindex>
                  <clipindex>1</clipindex>
                  <groupindex>1</groupindex>
                </link>
                <link>
                  <linkclipref>clipitem-561</linkclipref>
                  <mediatype>audio</mediatype>
                  <trackindex>2</trackindex>
                  <clipindex>1</clipindex>
                  <groupindex>1</groupindex>
                </link>
              </clipitem>
            </track>
            <track>
              <clipitem id="clipitem-561" frameBlend="FALSE">
                <masterclipid>masterclip-183</masterclipid>
                <name>00404.MTS</name>
                <file id="file-183"/>
                <sourcetrack>
                  <mediatype>audio</mediatype>
                  <trackindex>2</trackindex>
                </sourcetrack>
                <link>
                  <linkclipref>clipitem-559</linkclipref>
                  <mediatype>video</mediatype>
                  <trackindex>1</trackindex>
                  <clipindex>1</clipindex>
                </link>
                <link>
                  <linkclipref>clipitem-560</linkclipref>
                  <mediatype>audio</mediatype>
                  <trackindex>1</trackindex>
                  <clipindex>1</clipindex>
                  <groupindex>1</groupindex>
                </link>
                <link>
                  <linkclipref>clipitem-561</linkclipref>
                  <mediatype>audio</mediatype>
                  <trackindex>2</trackindex>
                  <clipindex>1</clipindex>
                  <groupindex>1</groupindex>
                </link>
              </clipitem>
            </track>
          </audio>
        </media>
        <logginginfo>
          <description/>
          <scene/>
          <shottake/>
          <lognote/>
        </logginginfo>
      </clip>
      <clip id="masterclip-184" frameBlend="FALSE">
        <uuid>d34fcbb1-4697-4591-8be5-cc897860f1f0</uuid>
        <masterclipid>masterclip-184</masterclipid>
        <ismasterclip>TRUE</ismasterclip>
        <duration>229</duration>
        <rate>
          <timebase>24</timebase>
          <ntsc>TRUE</ntsc>
        </rate>
        <name>00405.MTS</name>
        <media>
          <video>
            <track>
              <clipitem id="clipitem-562" frameBlend="FALSE">
                <masterclipid>masterclip-184</masterclipid>
                <name>00405.MTS</name>
                <alphatype>black</alphatype>
                <pixelaspectratio>square</pixelaspectratio>
                <anamorphic>FALSE</anamorphic>
                <file id="file-184">
                  <name>00405.MTS</name>
                  <pathurl>file://localhost/Volumes/Macintosh%20HD/Users/jacksongs/Desktop/STREAM/00405.MTS</pathurl>
                  <rate>
                    <timebase>24</timebase>
                    <ntsc>TRUE</ntsc>
                  </rate>
                  <duration>229</duration>
                  <timecode>
                    <rate>
                      <timebase>24</timebase>
                      <ntsc>TRUE</ntsc>
                    </rate>
                    <string>00:00:00:00</string>
                    <frame>0</frame>
                    <displayformat>NDF</displayformat>
                    <reel>
                      <name/>
                    </reel>
                  </timecode>
                  <media>
                    <video>
                      <duration>18000</duration>
                      <samplecharacteristics>
                        <rate>
                          <timebase>24</timebase>
                          <ntsc>TRUE</ntsc>
                        </rate>
                        <width>1920</width>
                        <height>1080</height>
                        <anamorphic>FALSE</anamorphic>
                        <pixelaspectratio>square</pixelaspectratio>
                        <fielddominance>none</fielddominance>
                      </samplecharacteristics>
                    </video>
                    <audio>
                      <samplecharacteristics>
                        <depth>16</depth>
                        <samplerate>48000</samplerate>
                      </samplecharacteristics>
                      <channelcount>2</channelcount>
                    </audio>
                  </media>
                </file>
                <link>
                  <linkclipref>clipitem-562</linkclipref>
                  <mediatype>video</mediatype>
                  <trackindex>1</trackindex>
                  <clipindex>1</clipindex>
                </link>
                <link>
                  <linkclipref>clipitem-563</linkclipref>
                  <mediatype>audio</mediatype>
                  <trackindex>1</trackindex>
                  <clipindex>1</clipindex>
                  <groupindex>1</groupindex>
                </link>
                <link>
                  <linkclipref>clipitem-564</linkclipref>
                  <mediatype>audio</mediatype>
                  <trackindex>2</trackindex>
                  <clipindex>1</clipindex>
                  <groupindex>1</groupindex>
                </link>
              </clipitem>
            </track>
          </video>
          <audio>
            <track>
              <clipitem id="clipitem-563" frameBlend="FALSE">
                <masterclipid>masterclip-184</masterclipid>
                <name>00405.MTS</name>
                <file id="file-184"/>
                <sourcetrack>
                  <mediatype>audio</mediatype>
                  <trackindex>1</trackindex>
                </sourcetrack>
                <link>
                  <linkclipref>clipitem-562</linkclipref>
                  <mediatype>video</mediatype>
                  <trackindex>1</trackindex>
                  <clipindex>1</clipindex>
                </link>
                <link>
                  <linkclipref>clipitem-563</linkclipref>
                  <mediatype>audio</mediatype>
                  <trackindex>1</trackindex>
                  <clipindex>1</clipindex>
                  <groupindex>1</groupindex>
                </link>
                <link>
                  <linkclipref>clipitem-564</linkclipref>
                  <mediatype>audio</mediatype>
                  <trackindex>2</trackindex>
                  <clipindex>1</clipindex>
                  <groupindex>1</groupindex>
                </link>
              </clipitem>
            </track>
            <track>
              <clipitem id="clipitem-564" frameBlend="FALSE">
                <masterclipid>masterclip-184</masterclipid>
                <name>00405.MTS</name>
                <file id="file-184"/>
                <sourcetrack>
                  <mediatype>audio</mediatype>
                  <trackindex>2</trackindex>
                </sourcetrack>
                <link>
                  <linkclipref>clipitem-562</linkclipref>
                  <mediatype>video</mediatype>
                  <trackindex>1</trackindex>
                  <clipindex>1</clipindex>
                </link>
                <link>
                  <linkclipref>clipitem-563</linkclipref>
                  <mediatype>audio</mediatype>
                  <trackindex>1</trackindex>
                  <clipindex>1</clipindex>
                  <groupindex>1</groupindex>
                </link>
                <link>
                  <linkclipref>clipitem-564</linkclipref>
                  <mediatype>audio</mediatype>
                  <trackindex>2</trackindex>
                  <clipindex>1</clipindex>
                  <groupindex>1</groupindex>
                </link>
              </clipitem>
            </track>
          </audio>
        </media>
        <logginginfo>
          <description/>
          <scene/>
          <shottake/>
          <lognote/>
        </logginginfo>
      </clip>
      <clip id="masterclip-185" frameBlend="FALSE">
        <uuid>80c97880-cc03-4b41-b943-29090251711c</uuid>
        <masterclipid>masterclip-185</masterclipid>
        <ismasterclip>TRUE</ismasterclip>
        <duration>217</duration>
        <rate>
          <timebase>24</timebase>
          <ntsc>TRUE</ntsc>
        </rate>
        <name>00406.MTS</name>
        <media>
          <video>
            <track>
              <clipitem id="clipitem-565" frameBlend="FALSE">
                <masterclipid>masterclip-185</masterclipid>
                <name>00406.MTS</name>
                <alphatype>black</alphatype>
                <pixelaspectratio>square</pixelaspectratio>
                <anamorphic>FALSE</anamorphic>
                <file id="file-185">
                  <name>00406.MTS</name>
                  <pathurl>file://localhost/Volumes/Macintosh%20HD/Users/jacksongs/Desktop/STREAM/00406.MTS</pathurl>
                  <rate>
                    <timebase>24</timebase>
                    <ntsc>TRUE</ntsc>
                  </rate>
                  <duration>217</duration>
                  <timecode>
                    <rate>
                      <timebase>24</timebase>
                      <ntsc>TRUE</ntsc>
                    </rate>
                    <string>00:00:00:00</string>
                    <frame>0</frame>
                    <displayformat>NDF</displayformat>
                    <reel>
                      <name/>
                    </reel>
                  </timecode>
                  <media>
                    <video>
                      <duration>18000</duration>
                      <samplecharacteristics>
                        <rate>
                          <timebase>24</timebase>
                          <ntsc>TRUE</ntsc>
                        </rate>
                        <width>1920</width>
                        <height>1080</height>
                        <anamorphic>FALSE</anamorphic>
                        <pixelaspectratio>square</pixelaspectratio>
                        <fielddominance>none</fielddominance>
                      </samplecharacteristics>
                    </video>
                    <audio>
                      <samplecharacteristics>
                        <depth>16</depth>
                        <samplerate>48000</samplerate>
                      </samplecharacteristics>
                      <channelcount>2</channelcount>
                    </audio>
                  </media>
                </file>
                <link>
                  <linkclipref>clipitem-565</linkclipref>
                  <mediatype>video</mediatype>
                  <trackindex>1</trackindex>
                  <clipindex>1</clipindex>
                </link>
                <link>
                  <linkclipref>clipitem-566</linkclipref>
                  <mediatype>audio</mediatype>
                  <trackindex>1</trackindex>
                  <clipindex>1</clipindex>
                  <groupindex>1</groupindex>
                </link>
                <link>
                  <linkclipref>clipitem-567</linkclipref>
                  <mediatype>audio</mediatype>
                  <trackindex>2</trackindex>
                  <clipindex>1</clipindex>
                  <groupindex>1</groupindex>
                </link>
              </clipitem>
            </track>
          </video>
          <audio>
            <track>
              <clipitem id="clipitem-566" frameBlend="FALSE">
                <masterclipid>masterclip-185</masterclipid>
                <name>00406.MTS</name>
                <file id="file-185"/>
                <sourcetrack>
                  <mediatype>audio</mediatype>
                  <trackindex>1</trackindex>
                </sourcetrack>
                <link>
                  <linkclipref>clipitem-565</linkclipref>
                  <mediatype>video</mediatype>
                  <trackindex>1</trackindex>
                  <clipindex>1</clipindex>
                </link>
                <link>
                  <linkclipref>clipitem-566</linkclipref>
                  <mediatype>audio</mediatype>
                  <trackindex>1</trackindex>
                  <clipindex>1</clipindex>
                  <groupindex>1</groupindex>
                </link>
                <link>
                  <linkclipref>clipitem-567</linkclipref>
                  <mediatype>audio</mediatype>
                  <trackindex>2</trackindex>
                  <clipindex>1</clipindex>
                  <groupindex>1</groupindex>
                </link>
              </clipitem>
            </track>
            <track>
              <clipitem id="clipitem-567" frameBlend="FALSE">
                <masterclipid>masterclip-185</masterclipid>
                <name>00406.MTS</name>
                <file id="file-185"/>
                <sourcetrack>
                  <mediatype>audio</mediatype>
                  <trackindex>2</trackindex>
                </sourcetrack>
                <link>
                  <linkclipref>clipitem-565</linkclipref>
                  <mediatype>video</mediatype>
                  <trackindex>1</trackindex>
                  <clipindex>1</clipindex>
                </link>
                <link>
                  <linkclipref>clipitem-566</linkclipref>
                  <mediatype>audio</mediatype>
                  <trackindex>1</trackindex>
                  <clipindex>1</clipindex>
                  <groupindex>1</groupindex>
                </link>
                <link>
                  <linkclipref>clipitem-567</linkclipref>
                  <mediatype>audio</mediatype>
                  <trackindex>2</trackindex>
                  <clipindex>1</clipindex>
                  <groupindex>1</groupindex>
                </link>
              </clipitem>
            </track>
          </audio>
        </media>
        <logginginfo>
          <description/>
          <scene/>
          <shottake/>
          <lognote/>
        </logginginfo>
      </clip>
      <clip id="masterclip-186" frameBlend="FALSE">
        <uuid>75ad856d-e68a-4104-9160-641f34c60188</uuid>
        <masterclipid>masterclip-186</masterclipid>
        <ismasterclip>TRUE</ismasterclip>
        <duration>325</duration>
        <rate>
          <timebase>24</timebase>
          <ntsc>TRUE</ntsc>
        </rate>
        <name>00407.MTS</name>
        <media>
          <video>
            <track>
              <clipitem id="clipitem-568" frameBlend="FALSE">
                <masterclipid>masterclip-186</masterclipid>
                <name>00407.MTS</name>
                <alphatype>black</alphatype>
                <pixelaspectratio>square</pixelaspectratio>
                <anamorphic>FALSE</anamorphic>
                <file id="file-186">
                  <name>00407.MTS</name>
                  <pathurl>file://localhost/Volumes/Macintosh%20HD/Users/jacksongs/Desktop/STREAM/00407.MTS</pathurl>
                  <rate>
                    <timebase>24</timebase>
                    <ntsc>TRUE</ntsc>
                  </rate>
                  <duration>325</duration>
                  <timecode>
                    <rate>
                      <timebase>24</timebase>
                      <ntsc>TRUE</ntsc>
                    </rate>
                    <string>00:00:00:00</string>
                    <frame>0</frame>
                    <displayformat>NDF</displayformat>
                    <reel>
                      <name/>
                    </reel>
                  </timecode>
                  <media>
                    <video>
                      <duration>18000</duration>
                      <samplecharacteristics>
                        <rate>
                          <timebase>24</timebase>
                          <ntsc>TRUE</ntsc>
                        </rate>
                        <width>1920</width>
                        <height>1080</height>
                        <anamorphic>FALSE</anamorphic>
                        <pixelaspectratio>square</pixelaspectratio>
                        <fielddominance>none</fielddominance>
                      </samplecharacteristics>
                    </video>
                    <audio>
                      <samplecharacteristics>
                        <depth>16</depth>
                        <samplerate>48000</samplerate>
                      </samplecharacteristics>
                      <channelcount>2</channelcount>
                    </audio>
                  </media>
                </file>
                <link>
                  <linkclipref>clipitem-568</linkclipref>
                  <mediatype>video</mediatype>
                  <trackindex>1</trackindex>
                  <clipindex>1</clipindex>
                </link>
                <link>
                  <linkclipref>clipitem-569</linkclipref>
                  <mediatype>audio</mediatype>
                  <trackindex>1</trackindex>
                  <clipindex>1</clipindex>
                  <groupindex>1</groupindex>
                </link>
                <link>
                  <linkclipref>clipitem-570</linkclipref>
                  <mediatype>audio</mediatype>
                  <trackindex>2</trackindex>
                  <clipindex>1</clipindex>
                  <groupindex>1</groupindex>
                </link>
              </clipitem>
            </track>
          </video>
          <audio>
            <track>
              <clipitem id="clipitem-569" frameBlend="FALSE">
                <masterclipid>masterclip-186</masterclipid>
                <name>00407.MTS</name>
                <file id="file-186"/>
                <sourcetrack>
                  <mediatype>audio</mediatype>
                  <trackindex>1</trackindex>
                </sourcetrack>
                <link>
                  <linkclipref>clipitem-568</linkclipref>
                  <mediatype>video</mediatype>
                  <trackindex>1</trackindex>
                  <clipindex>1</clipindex>
                </link>
                <link>
                  <linkclipref>clipitem-569</linkclipref>
                  <mediatype>audio</mediatype>
                  <trackindex>1</trackindex>
                  <clipindex>1</clipindex>
                  <groupindex>1</groupindex>
                </link>
                <link>
                  <linkclipref>clipitem-570</linkclipref>
                  <mediatype>audio</mediatype>
                  <trackindex>2</trackindex>
                  <clipindex>1</clipindex>
                  <groupindex>1</groupindex>
                </link>
              </clipitem>
            </track>
            <track>
              <clipitem id="clipitem-570" frameBlend="FALSE">
                <masterclipid>masterclip-186</masterclipid>
                <name>00407.MTS</name>
                <file id="file-186"/>
                <sourcetrack>
                  <mediatype>audio</mediatype>
                  <trackindex>2</trackindex>
                </sourcetrack>
                <link>
                  <linkclipref>clipitem-568</linkclipref>
                  <mediatype>video</mediatype>
                  <trackindex>1</trackindex>
                  <clipindex>1</clipindex>
                </link>
                <link>
                  <linkclipref>clipitem-569</linkclipref>
                  <mediatype>audio</mediatype>
                  <trackindex>1</trackindex>
                  <clipindex>1</clipindex>
                  <groupindex>1</groupindex>
                </link>
                <link>
                  <linkclipref>clipitem-570</linkclipref>
                  <mediatype>audio</mediatype>
                  <trackindex>2</trackindex>
                  <clipindex>1</clipindex>
                  <groupindex>1</groupindex>
                </link>
              </clipitem>
            </track>
          </audio>
        </media>
        <logginginfo>
          <description/>
          <scene/>
          <shottake/>
          <lognote/>
        </logginginfo>
      </clip>
      <clip id="masterclip-187" frameBlend="FALSE">
        <uuid>68b0fa67-3560-4658-b560-89297587afe8</uuid>
        <masterclipid>masterclip-187</masterclipid>
        <ismasterclip>TRUE</ismasterclip>
        <duration>169</duration>
        <rate>
          <timebase>24</timebase>
          <ntsc>TRUE</ntsc>
        </rate>
        <name>00408.MTS</name>
        <media>
          <video>
            <track>
              <clipitem id="clipitem-571" frameBlend="FALSE">
                <masterclipid>masterclip-187</masterclipid>
                <name>00408.MTS</name>
                <alphatype>black</alphatype>
                <pixelaspectratio>square</pixelaspectratio>
                <anamorphic>FALSE</anamorphic>
                <file id="file-187">
                  <name>00408.MTS</name>
                  <pathurl>file://localhost/Volumes/Macintosh%20HD/Users/jacksongs/Desktop/STREAM/00408.MTS</pathurl>
                  <rate>
                    <timebase>24</timebase>
                    <ntsc>TRUE</ntsc>
                  </rate>
                  <duration>169</duration>
                  <timecode>
                    <rate>
                      <timebase>24</timebase>
                      <ntsc>TRUE</ntsc>
                    </rate>
                    <string>00:00:00:00</string>
                    <frame>0</frame>
                    <displayformat>NDF</displayformat>
                    <reel>
                      <name/>
                    </reel>
                  </timecode>
                  <media>
                    <video>
                      <duration>18000</duration>
                      <samplecharacteristics>
                        <rate>
                          <timebase>24</timebase>
                          <ntsc>TRUE</ntsc>
                        </rate>
                        <width>1920</width>
                        <height>1080</height>
                        <anamorphic>FALSE</anamorphic>
                        <pixelaspectratio>square</pixelaspectratio>
                        <fielddominance>none</fielddominance>
                      </samplecharacteristics>
                    </video>
                    <audio>
                      <samplecharacteristics>
                        <depth>16</depth>
                        <samplerate>48000</samplerate>
                      </samplecharacteristics>
                      <channelcount>2</channelcount>
                    </audio>
                  </media>
                </file>
                <link>
                  <linkclipref>clipitem-571</linkclipref>
                  <mediatype>video</mediatype>
                  <trackindex>1</trackindex>
                  <clipindex>1</clipindex>
                </link>
                <link>
                  <linkclipref>clipitem-572</linkclipref>
                  <mediatype>audio</mediatype>
                  <trackindex>1</trackindex>
                  <clipindex>1</clipindex>
                  <groupindex>1</groupindex>
                </link>
                <link>
                  <linkclipref>clipitem-573</linkclipref>
                  <mediatype>audio</mediatype>
                  <trackindex>2</trackindex>
                  <clipindex>1</clipindex>
                  <groupindex>1</groupindex>
                </link>
              </clipitem>
            </track>
          </video>
          <audio>
            <track>
              <clipitem id="clipitem-572" frameBlend="FALSE">
                <masterclipid>masterclip-187</masterclipid>
                <name>00408.MTS</name>
                <file id="file-187"/>
                <sourcetrack>
                  <mediatype>audio</mediatype>
                  <trackindex>1</trackindex>
                </sourcetrack>
                <link>
                  <linkclipref>clipitem-571</linkclipref>
                  <mediatype>video</mediatype>
                  <trackindex>1</trackindex>
                  <clipindex>1</clipindex>
                </link>
                <link>
                  <linkclipref>clipitem-572</linkclipref>
                  <mediatype>audio</mediatype>
                  <trackindex>1</trackindex>
                  <clipindex>1</clipindex>
                  <groupindex>1</groupindex>
                </link>
                <link>
                  <linkclipref>clipitem-573</linkclipref>
                  <mediatype>audio</mediatype>
                  <trackindex>2</trackindex>
                  <clipindex>1</clipindex>
                  <groupindex>1</groupindex>
                </link>
              </clipitem>
            </track>
            <track>
              <clipitem id="clipitem-573" frameBlend="FALSE">
                <masterclipid>masterclip-187</masterclipid>
                <name>00408.MTS</name>
                <file id="file-187"/>
                <sourcetrack>
                  <mediatype>audio</mediatype>
                  <trackindex>2</trackindex>
                </sourcetrack>
                <link>
                  <linkclipref>clipitem-571</linkclipref>
                  <mediatype>video</mediatype>
                  <trackindex>1</trackindex>
                  <clipindex>1</clipindex>
                </link>
                <link>
                  <linkclipref>clipitem-572</linkclipref>
                  <mediatype>audio</mediatype>
                  <trackindex>1</trackindex>
                  <clipindex>1</clipindex>
                  <groupindex>1</groupindex>
                </link>
                <link>
                  <linkclipref>clipitem-573</linkclipref>
                  <mediatype>audio</mediatype>
                  <trackindex>2</trackindex>
                  <clipindex>1</clipindex>
                  <groupindex>1</groupindex>
                </link>
              </clipitem>
            </track>
          </audio>
        </media>
        <logginginfo>
          <description/>
          <scene/>
          <shottake/>
          <lognote/>
        </logginginfo>
      </clip>
      <clip id="masterclip-188" frameBlend="FALSE">
        <uuid>94288776-c268-4d4f-ad4e-c21f343f7f37</uuid>
        <masterclipid>masterclip-188</masterclipid>
        <ismasterclip>TRUE</ismasterclip>
        <duration>457</duration>
        <rate>
          <timebase>24</timebase>
          <ntsc>TRUE</ntsc>
        </rate>
        <name>00409.MTS</name>
        <media>
          <video>
            <track>
              <clipitem id="clipitem-574" frameBlend="FALSE">
                <masterclipid>masterclip-188</masterclipid>
                <name>00409.MTS</name>
                <alphatype>black</alphatype>
                <pixelaspectratio>square</pixelaspectratio>
                <anamorphic>FALSE</anamorphic>
                <file id="file-188">
                  <name>00409.MTS</name>
                  <pathurl>file://localhost/Volumes/Macintosh%20HD/Users/jacksongs/Desktop/STREAM/00409.MTS</pathurl>
                  <rate>
                    <timebase>24</timebase>
                    <ntsc>TRUE</ntsc>
                  </rate>
                  <duration>457</duration>
                  <timecode>
                    <rate>
                      <timebase>24</timebase>
                      <ntsc>TRUE</ntsc>
                    </rate>
                    <string>00:00:00:00</string>
                    <frame>0</frame>
                    <displayformat>NDF</displayformat>
                    <reel>
                      <name/>
                    </reel>
                  </timecode>
                  <media>
                    <video>
                      <duration>18000</duration>
                      <samplecharacteristics>
                        <rate>
                          <timebase>24</timebase>
                          <ntsc>TRUE</ntsc>
                        </rate>
                        <width>1920</width>
                        <height>1080</height>
                        <anamorphic>FALSE</anamorphic>
                        <pixelaspectratio>square</pixelaspectratio>
                        <fielddominance>none</fielddominance>
                      </samplecharacteristics>
                    </video>
                    <audio>
                      <samplecharacteristics>
                        <depth>16</depth>
                        <samplerate>48000</samplerate>
                      </samplecharacteristics>
                      <channelcount>2</channelcount>
                    </audio>
                  </media>
                </file>
                <link>
                  <linkclipref>clipitem-574</linkclipref>
                  <mediatype>video</mediatype>
                  <trackindex>1</trackindex>
                  <clipindex>1</clipindex>
                </link>
                <link>
                  <linkclipref>clipitem-575</linkclipref>
                  <mediatype>audio</mediatype>
                  <trackindex>1</trackindex>
                  <clipindex>1</clipindex>
                  <groupindex>1</groupindex>
                </link>
                <link>
                  <linkclipref>clipitem-576</linkclipref>
                  <mediatype>audio</mediatype>
                  <trackindex>2</trackindex>
                  <clipindex>1</clipindex>
                  <groupindex>1</groupindex>
                </link>
              </clipitem>
            </track>
          </video>
          <audio>
            <track>
              <clipitem id="clipitem-575" frameBlend="FALSE">
                <masterclipid>masterclip-188</masterclipid>
                <name>00409.MTS</name>
                <file id="file-188"/>
                <sourcetrack>
                  <mediatype>audio</mediatype>
                  <trackindex>1</trackindex>
                </sourcetrack>
                <link>
                  <linkclipref>clipitem-574</linkclipref>
                  <mediatype>video</mediatype>
                  <trackindex>1</trackindex>
                  <clipindex>1</clipindex>
                </link>
                <link>
                  <linkclipref>clipitem-575</linkclipref>
                  <mediatype>audio</mediatype>
                  <trackindex>1</trackindex>
                  <clipindex>1</clipindex>
                  <groupindex>1</groupindex>
                </link>
                <link>
                  <linkclipref>clipitem-576</linkclipref>
                  <mediatype>audio</mediatype>
                  <trackindex>2</trackindex>
                  <clipindex>1</clipindex>
                  <groupindex>1</groupindex>
                </link>
              </clipitem>
            </track>
            <track>
              <clipitem id="clipitem-576" frameBlend="FALSE">
                <masterclipid>masterclip-188</masterclipid>
                <name>00409.MTS</name>
                <file id="file-188"/>
                <sourcetrack>
                  <mediatype>audio</mediatype>
                  <trackindex>2</trackindex>
                </sourcetrack>
                <link>
                  <linkclipref>clipitem-574</linkclipref>
                  <mediatype>video</mediatype>
                  <trackindex>1</trackindex>
                  <clipindex>1</clipindex>
                </link>
                <link>
                  <linkclipref>clipitem-575</linkclipref>
                  <mediatype>audio</mediatype>
                  <trackindex>1</trackindex>
                  <clipindex>1</clipindex>
                  <groupindex>1</groupindex>
                </link>
                <link>
                  <linkclipref>clipitem-576</linkclipref>
                  <mediatype>audio</mediatype>
                  <trackindex>2</trackindex>
                  <clipindex>1</clipindex>
                  <groupindex>1</groupindex>
                </link>
              </clipitem>
            </track>
          </audio>
        </media>
        <logginginfo>
          <description/>
          <scene/>
          <shottake/>
          <lognote/>
        </logginginfo>
      </clip>
      <clip id="masterclip-189" frameBlend="FALSE">
        <uuid>ee2937de-82bc-4eab-8330-31221bc673d6</uuid>
        <masterclipid>masterclip-189</masterclipid>
        <ismasterclip>TRUE</ismasterclip>
        <duration>469</duration>
        <rate>
          <timebase>24</timebase>
          <ntsc>TRUE</ntsc>
        </rate>
        <name>00411.MTS</name>
        <media>
          <video>
            <track>
              <clipitem id="clipitem-577" frameBlend="FALSE">
                <masterclipid>masterclip-189</masterclipid>
                <name>00411.MTS</name>
                <alphatype>black</alphatype>
                <pixelaspectratio>square</pixelaspectratio>
                <anamorphic>FALSE</anamorphic>
                <file id="file-189">
                  <name>00411.MTS</name>
                  <pathurl>file://localhost/Volumes/Macintosh%20HD/Users/jacksongs/Desktop/STREAM/00411.MTS</pathurl>
                  <rate>
                    <timebase>24</timebase>
                    <ntsc>TRUE</ntsc>
                  </rate>
                  <duration>469</duration>
                  <timecode>
                    <rate>
                      <timebase>24</timebase>
                      <ntsc>TRUE</ntsc>
                    </rate>
                    <string>00:00:00:00</string>
                    <frame>0</frame>
                    <displayformat>NDF</displayformat>
                    <reel>
                      <name/>
                    </reel>
                  </timecode>
                  <media>
                    <video>
                      <duration>18000</duration>
                      <samplecharacteristics>
                        <rate>
                          <timebase>24</timebase>
                          <ntsc>TRUE</ntsc>
                        </rate>
                        <width>1920</width>
                        <height>1080</height>
                        <anamorphic>FALSE</anamorphic>
                        <pixelaspectratio>square</pixelaspectratio>
                        <fielddominance>none</fielddominance>
                      </samplecharacteristics>
                    </video>
                    <audio>
                      <samplecharacteristics>
                        <depth>16</depth>
                        <samplerate>48000</samplerate>
                      </samplecharacteristics>
                      <channelcount>2</channelcount>
                    </audio>
                  </media>
                </file>
                <link>
                  <linkclipref>clipitem-577</linkclipref>
                  <mediatype>video</mediatype>
                  <trackindex>1</trackindex>
                  <clipindex>1</clipindex>
                </link>
                <link>
                  <linkclipref>clipitem-578</linkclipref>
                  <mediatype>audio</mediatype>
                  <trackindex>1</trackindex>
                  <clipindex>1</clipindex>
                  <groupindex>1</groupindex>
                </link>
                <link>
                  <linkclipref>clipitem-579</linkclipref>
                  <mediatype>audio</mediatype>
                  <trackindex>2</trackindex>
                  <clipindex>1</clipindex>
                  <groupindex>1</groupindex>
                </link>
              </clipitem>
            </track>
          </video>
          <audio>
            <track>
              <clipitem id="clipitem-578" frameBlend="FALSE">
                <masterclipid>masterclip-189</masterclipid>
                <name>00411.MTS</name>
                <file id="file-189"/>
                <sourcetrack>
                  <mediatype>audio</mediatype>
                  <trackindex>1</trackindex>
                </sourcetrack>
                <link>
                  <linkclipref>clipitem-577</linkclipref>
                  <mediatype>video</mediatype>
                  <trackindex>1</trackindex>
                  <clipindex>1</clipindex>
                </link>
                <link>
                  <linkclipref>clipitem-578</linkclipref>
                  <mediatype>audio</mediatype>
                  <trackindex>1</trackindex>
                  <clipindex>1</clipindex>
                  <groupindex>1</groupindex>
                </link>
                <link>
                  <linkclipref>clipitem-579</linkclipref>
                  <mediatype>audio</mediatype>
                  <trackindex>2</trackindex>
                  <clipindex>1</clipindex>
                  <groupindex>1</groupindex>
                </link>
              </clipitem>
            </track>
            <track>
              <clipitem id="clipitem-579" frameBlend="FALSE">
                <masterclipid>masterclip-189</masterclipid>
                <name>00411.MTS</name>
                <file id="file-189"/>
                <sourcetrack>
                  <mediatype>audio</mediatype>
                  <trackindex>2</trackindex>
                </sourcetrack>
                <link>
                  <linkclipref>clipitem-577</linkclipref>
                  <mediatype>video</mediatype>
                  <trackindex>1</trackindex>
                  <clipindex>1</clipindex>
                </link>
                <link>
                  <linkclipref>clipitem-578</linkclipref>
                  <mediatype>audio</mediatype>
                  <trackindex>1</trackindex>
                  <clipindex>1</clipindex>
                  <groupindex>1</groupindex>
                </link>
                <link>
                  <linkclipref>clipitem-579</linkclipref>
                  <mediatype>audio</mediatype>
                  <trackindex>2</trackindex>
                  <clipindex>1</clipindex>
                  <groupindex>1</groupindex>
                </link>
              </clipitem>
            </track>
          </audio>
        </media>
        <logginginfo>
          <description/>
          <scene/>
          <shottake/>
          <lognote/>
        </logginginfo>
      </clip>
      <clip id="masterclip-190" frameBlend="FALSE">
        <uuid>32a92042-cd35-4a69-95f1-efbf884da2bb</uuid>
        <masterclipid>masterclip-190</masterclipid>
        <ismasterclip>TRUE</ismasterclip>
        <duration>517</duration>
        <rate>
          <timebase>24</timebase>
          <ntsc>TRUE</ntsc>
        </rate>
        <name>00412.MTS</name>
        <media>
          <video>
            <track>
              <clipitem id="clipitem-580" frameBlend="FALSE">
                <masterclipid>masterclip-190</masterclipid>
                <name>00412.MTS</name>
                <alphatype>black</alphatype>
                <pixelaspectratio>square</pixelaspectratio>
                <anamorphic>FALSE</anamorphic>
                <file id="file-190">
                  <name>00412.MTS</name>
                  <pathurl>file://localhost/Volumes/Macintosh%20HD/Users/jacksongs/Desktop/STREAM/00412.MTS</pathurl>
                  <rate>
                    <timebase>24</timebase>
                    <ntsc>TRUE</ntsc>
                  </rate>
                  <duration>517</duration>
                  <timecode>
                    <rate>
                      <timebase>24</timebase>
                      <ntsc>TRUE</ntsc>
                    </rate>
                    <string>00:00:00:00</string>
                    <frame>0</frame>
                    <displayformat>NDF</displayformat>
                    <reel>
                      <name/>
                    </reel>
                  </timecode>
                  <media>
                    <video>
                      <duration>18000</duration>
                      <samplecharacteristics>
                        <rate>
                          <timebase>24</timebase>
                          <ntsc>TRUE</ntsc>
                        </rate>
                        <width>1920</width>
                        <height>1080</height>
                        <anamorphic>FALSE</anamorphic>
                        <pixelaspectratio>square</pixelaspectratio>
                        <fielddominance>none</fielddominance>
                      </samplecharacteristics>
                    </video>
                    <audio>
                      <samplecharacteristics>
                        <depth>16</depth>
                        <samplerate>48000</samplerate>
                      </samplecharacteristics>
                      <channelcount>2</channelcount>
                    </audio>
                  </media>
                </file>
                <link>
                  <linkclipref>clipitem-580</linkclipref>
                  <mediatype>video</mediatype>
                  <trackindex>1</trackindex>
                  <clipindex>1</clipindex>
                </link>
                <link>
                  <linkclipref>clipitem-581</linkclipref>
                  <mediatype>audio</mediatype>
                  <trackindex>1</trackindex>
                  <clipindex>1</clipindex>
                  <groupindex>1</groupindex>
                </link>
                <link>
                  <linkclipref>clipitem-582</linkclipref>
                  <mediatype>audio</mediatype>
                  <trackindex>2</trackindex>
                  <clipindex>1</clipindex>
                  <groupindex>1</groupindex>
                </link>
              </clipitem>
            </track>
          </video>
          <audio>
            <track>
              <clipitem id="clipitem-581" frameBlend="FALSE">
                <masterclipid>masterclip-190</masterclipid>
                <name>00412.MTS</name>
                <file id="file-190"/>
                <sourcetrack>
                  <mediatype>audio</mediatype>
                  <trackindex>1</trackindex>
                </sourcetrack>
                <link>
                  <linkclipref>clipitem-580</linkclipref>
                  <mediatype>video</mediatype>
                  <trackindex>1</trackindex>
                  <clipindex>1</clipindex>
                </link>
                <link>
                  <linkclipref>clipitem-581</linkclipref>
                  <mediatype>audio</mediatype>
                  <trackindex>1</trackindex>
                  <clipindex>1</clipindex>
                  <groupindex>1</groupindex>
                </link>
                <link>
                  <linkclipref>clipitem-582</linkclipref>
                  <mediatype>audio</mediatype>
                  <trackindex>2</trackindex>
                  <clipindex>1</clipindex>
                  <groupindex>1</groupindex>
                </link>
              </clipitem>
            </track>
            <track>
              <clipitem id="clipitem-582" frameBlend="FALSE">
                <masterclipid>masterclip-190</masterclipid>
                <name>00412.MTS</name>
                <file id="file-190"/>
                <sourcetrack>
                  <mediatype>audio</mediatype>
                  <trackindex>2</trackindex>
                </sourcetrack>
                <link>
                  <linkclipref>clipitem-580</linkclipref>
                  <mediatype>video</mediatype>
                  <trackindex>1</trackindex>
                  <clipindex>1</clipindex>
                </link>
                <link>
                  <linkclipref>clipitem-581</linkclipref>
                  <mediatype>audio</mediatype>
                  <trackindex>1</trackindex>
                  <clipindex>1</clipindex>
                  <groupindex>1</groupindex>
                </link>
                <link>
                  <linkclipref>clipitem-582</linkclipref>
                  <mediatype>audio</mediatype>
                  <trackindex>2</trackindex>
                  <clipindex>1</clipindex>
                  <groupindex>1</groupindex>
                </link>
              </clipitem>
            </track>
          </audio>
        </media>
        <logginginfo>
          <description/>
          <scene/>
          <shottake/>
          <lognote/>
        </logginginfo>
      </clip>
      <clip id="masterclip-191" frameBlend="FALSE">
        <uuid>018b17c1-6878-4a71-95b7-0488c2ef7a11</uuid>
        <masterclipid>masterclip-191</masterclipid>
        <ismasterclip>TRUE</ismasterclip>
        <duration>529</duration>
        <rate>
          <timebase>24</timebase>
          <ntsc>TRUE</ntsc>
        </rate>
        <name>00413.MTS</name>
        <media>
          <video>
            <track>
              <clipitem id="clipitem-583" frameBlend="FALSE">
                <masterclipid>masterclip-191</masterclipid>
                <name>00413.MTS</name>
                <alphatype>black</alphatype>
                <pixelaspectratio>square</pixelaspectratio>
                <anamorphic>FALSE</anamorphic>
                <file id="file-191">
                  <name>00413.MTS</name>
                  <pathurl>file://localhost/Volumes/Macintosh%20HD/Users/jacksongs/Desktop/STREAM/00413.MTS</pathurl>
                  <rate>
                    <timebase>24</timebase>
                    <ntsc>TRUE</ntsc>
                  </rate>
                  <duration>529</duration>
                  <timecode>
                    <rate>
                      <timebase>24</timebase>
                      <ntsc>TRUE</ntsc>
                    </rate>
                    <string>00:00:00:00</string>
                    <frame>0</frame>
                    <displayformat>NDF</displayformat>
                    <reel>
                      <name/>
                    </reel>
                  </timecode>
                  <media>
                    <video>
                      <duration>18000</duration>
                      <samplecharacteristics>
                        <rate>
                          <timebase>24</timebase>
                          <ntsc>TRUE</ntsc>
                        </rate>
                        <width>1920</width>
                        <height>1080</height>
                        <anamorphic>FALSE</anamorphic>
                        <pixelaspectratio>square</pixelaspectratio>
                        <fielddominance>none</fielddominance>
                      </samplecharacteristics>
                    </video>
                    <audio>
                      <samplecharacteristics>
                        <depth>16</depth>
                        <samplerate>48000</samplerate>
                      </samplecharacteristics>
                      <channelcount>2</channelcount>
                    </audio>
                  </media>
                </file>
                <link>
                  <linkclipref>clipitem-583</linkclipref>
                  <mediatype>video</mediatype>
                  <trackindex>1</trackindex>
                  <clipindex>1</clipindex>
                </link>
                <link>
                  <linkclipref>clipitem-584</linkclipref>
                  <mediatype>audio</mediatype>
                  <trackindex>1</trackindex>
                  <clipindex>1</clipindex>
                  <groupindex>1</groupindex>
                </link>
                <link>
                  <linkclipref>clipitem-585</linkclipref>
                  <mediatype>audio</mediatype>
                  <trackindex>2</trackindex>
                  <clipindex>1</clipindex>
                  <groupindex>1</groupindex>
                </link>
              </clipitem>
            </track>
          </video>
          <audio>
            <track>
              <clipitem id="clipitem-584" frameBlend="FALSE">
                <masterclipid>masterclip-191</masterclipid>
                <name>00413.MTS</name>
                <file id="file-191"/>
                <sourcetrack>
                  <mediatype>audio</mediatype>
                  <trackindex>1</trackindex>
                </sourcetrack>
                <link>
                  <linkclipref>clipitem-583</linkclipref>
                  <mediatype>video</mediatype>
                  <trackindex>1</trackindex>
                  <clipindex>1</clipindex>
                </link>
                <link>
                  <linkclipref>clipitem-584</linkclipref>
                  <mediatype>audio</mediatype>
                  <trackindex>1</trackindex>
                  <clipindex>1</clipindex>
                  <groupindex>1</groupindex>
                </link>
                <link>
                  <linkclipref>clipitem-585</linkclipref>
                  <mediatype>audio</mediatype>
                  <trackindex>2</trackindex>
                  <clipindex>1</clipindex>
                  <groupindex>1</groupindex>
                </link>
              </clipitem>
            </track>
            <track>
              <clipitem id="clipitem-585" frameBlend="FALSE">
                <masterclipid>masterclip-191</masterclipid>
                <name>00413.MTS</name>
                <file id="file-191"/>
                <sourcetrack>
                  <mediatype>audio</mediatype>
                  <trackindex>2</trackindex>
                </sourcetrack>
                <link>
                  <linkclipref>clipitem-583</linkclipref>
                  <mediatype>video</mediatype>
                  <trackindex>1</trackindex>
                  <clipindex>1</clipindex>
                </link>
                <link>
                  <linkclipref>clipitem-584</linkclipref>
                  <mediatype>audio</mediatype>
                  <trackindex>1</trackindex>
                  <clipindex>1</clipindex>
                  <groupindex>1</groupindex>
                </link>
                <link>
                  <linkclipref>clipitem-585</linkclipref>
                  <mediatype>audio</mediatype>
                  <trackindex>2</trackindex>
                  <clipindex>1</clipindex>
                  <groupindex>1</groupindex>
                </link>
              </clipitem>
            </track>
          </audio>
        </media>
        <logginginfo>
          <description/>
          <scene/>
          <shottake/>
          <lognote/>
        </logginginfo>
      </clip>
      <clip id="masterclip-192" frameBlend="FALSE">
        <uuid>c5044b8d-edfe-4bdf-9851-5bc13c820ba7</uuid>
        <masterclipid>masterclip-192</masterclipid>
        <ismasterclip>TRUE</ismasterclip>
        <duration>49</duration>
        <rate>
          <timebase>24</timebase>
          <ntsc>TRUE</ntsc>
        </rate>
        <name>00414.MTS</name>
        <media>
          <video>
            <track>
              <clipitem id="clipitem-586" frameBlend="FALSE">
                <masterclipid>masterclip-192</masterclipid>
                <name>00414.MTS</name>
                <alphatype>black</alphatype>
                <pixelaspectratio>square</pixelaspectratio>
                <anamorphic>FALSE</anamorphic>
                <file id="file-192">
                  <name>00414.MTS</name>
                  <pathurl>file://localhost/Volumes/Macintosh%20HD/Users/jacksongs/Desktop/STREAM/00414.MTS</pathurl>
                  <rate>
                    <timebase>24</timebase>
                    <ntsc>TRUE</ntsc>
                  </rate>
                  <duration>49</duration>
                  <timecode>
                    <rate>
                      <timebase>24</timebase>
                      <ntsc>TRUE</ntsc>
                    </rate>
                    <string>00:00:00:00</string>
                    <frame>0</frame>
                    <displayformat>NDF</displayformat>
                    <reel>
                      <name/>
                    </reel>
                  </timecode>
                  <media>
                    <video>
                      <duration>18000</duration>
                      <samplecharacteristics>
                        <rate>
                          <timebase>24</timebase>
                          <ntsc>TRUE</ntsc>
                        </rate>
                        <width>1920</width>
                        <height>1080</height>
                        <anamorphic>FALSE</anamorphic>
                        <pixelaspectratio>square</pixelaspectratio>
                        <fielddominance>none</fielddominance>
                      </samplecharacteristics>
                    </video>
                    <audio>
                      <samplecharacteristics>
                        <depth>16</depth>
                        <samplerate>48000</samplerate>
                      </samplecharacteristics>
                      <channelcount>2</channelcount>
                    </audio>
                  </media>
                </file>
                <link>
                  <linkclipref>clipitem-586</linkclipref>
                  <mediatype>video</mediatype>
                  <trackindex>1</trackindex>
                  <clipindex>1</clipindex>
                </link>
                <link>
                  <linkclipref>clipitem-587</linkclipref>
                  <mediatype>audio</mediatype>
                  <trackindex>1</trackindex>
                  <clipindex>1</clipindex>
                  <groupindex>1</groupindex>
                </link>
                <link>
                  <linkclipref>clipitem-588</linkclipref>
                  <mediatype>audio</mediatype>
                  <trackindex>2</trackindex>
                  <clipindex>1</clipindex>
                  <groupindex>1</groupindex>
                </link>
              </clipitem>
            </track>
          </video>
          <audio>
            <track>
              <clipitem id="clipitem-587" frameBlend="FALSE">
                <masterclipid>masterclip-192</masterclipid>
                <name>00414.MTS</name>
                <file id="file-192"/>
                <sourcetrack>
                  <mediatype>audio</mediatype>
                  <trackindex>1</trackindex>
                </sourcetrack>
                <link>
                  <linkclipref>clipitem-586</linkclipref>
                  <mediatype>video</mediatype>
                  <trackindex>1</trackindex>
                  <clipindex>1</clipindex>
                </link>
                <link>
                  <linkclipref>clipitem-587</linkclipref>
                  <mediatype>audio</mediatype>
                  <trackindex>1</trackindex>
                  <clipindex>1</clipindex>
                  <groupindex>1</groupindex>
                </link>
                <link>
                  <linkclipref>clipitem-588</linkclipref>
                  <mediatype>audio</mediatype>
                  <trackindex>2</trackindex>
                  <clipindex>1</clipindex>
                  <groupindex>1</groupindex>
                </link>
              </clipitem>
            </track>
            <track>
              <clipitem id="clipitem-588" frameBlend="FALSE">
                <masterclipid>masterclip-192</masterclipid>
                <name>00414.MTS</name>
                <file id="file-192"/>
                <sourcetrack>
                  <mediatype>audio</mediatype>
                  <trackindex>2</trackindex>
                </sourcetrack>
                <link>
                  <linkclipref>clipitem-586</linkclipref>
                  <mediatype>video</mediatype>
                  <trackindex>1</trackindex>
                  <clipindex>1</clipindex>
                </link>
                <link>
                  <linkclipref>clipitem-587</linkclipref>
                  <mediatype>audio</mediatype>
                  <trackindex>1</trackindex>
                  <clipindex>1</clipindex>
                  <groupindex>1</groupindex>
                </link>
                <link>
                  <linkclipref>clipitem-588</linkclipref>
                  <mediatype>audio</mediatype>
                  <trackindex>2</trackindex>
                  <clipindex>1</clipindex>
                  <groupindex>1</groupindex>
                </link>
              </clipitem>
            </track>
          </audio>
        </media>
        <logginginfo>
          <description/>
          <scene/>
          <shottake/>
          <lognote/>
        </logginginfo>
      </clip>
      <clip id="masterclip-193" frameBlend="FALSE">
        <uuid>b2bfb4cc-6051-4094-b119-5b4df48573b3</uuid>
        <masterclipid>masterclip-193</masterclipid>
        <ismasterclip>TRUE</ismasterclip>
        <duration>37</duration>
        <rate>
          <timebase>24</timebase>
          <ntsc>TRUE</ntsc>
        </rate>
        <name>00415.MTS</name>
        <media>
          <video>
            <track>
              <clipitem id="clipitem-589" frameBlend="FALSE">
                <masterclipid>masterclip-193</masterclipid>
                <name>00415.MTS</name>
                <alphatype>black</alphatype>
                <pixelaspectratio>square</pixelaspectratio>
                <anamorphic>FALSE</anamorphic>
                <file id="file-193">
                  <name>00415.MTS</name>
                  <pathurl>file://localhost/Volumes/Macintosh%20HD/Users/jacksongs/Desktop/STREAM/00415.MTS</pathurl>
                  <rate>
                    <timebase>24</timebase>
                    <ntsc>TRUE</ntsc>
                  </rate>
                  <duration>37</duration>
                  <timecode>
                    <rate>
                      <timebase>24</timebase>
                      <ntsc>TRUE</ntsc>
                    </rate>
                    <string>00:00:00:00</string>
                    <frame>0</frame>
                    <displayformat>NDF</displayformat>
                    <reel>
                      <name/>
                    </reel>
                  </timecode>
                  <media>
                    <video>
                      <duration>18000</duration>
                      <samplecharacteristics>
                        <rate>
                          <timebase>24</timebase>
                          <ntsc>TRUE</ntsc>
                        </rate>
                        <width>1920</width>
                        <height>1080</height>
                        <anamorphic>FALSE</anamorphic>
                        <pixelaspectratio>square</pixelaspectratio>
                        <fielddominance>none</fielddominance>
                      </samplecharacteristics>
                    </video>
                    <audio>
                      <samplecharacteristics>
                        <depth>16</depth>
                        <samplerate>48000</samplerate>
                      </samplecharacteristics>
                      <channelcount>2</channelcount>
                    </audio>
                  </media>
                </file>
                <link>
                  <linkclipref>clipitem-589</linkclipref>
                  <mediatype>video</mediatype>
                  <trackindex>1</trackindex>
                  <clipindex>1</clipindex>
                </link>
                <link>
                  <linkclipref>clipitem-590</linkclipref>
                  <mediatype>audio</mediatype>
                  <trackindex>1</trackindex>
                  <clipindex>1</clipindex>
                  <groupindex>1</groupindex>
                </link>
                <link>
                  <linkclipref>clipitem-591</linkclipref>
                  <mediatype>audio</mediatype>
                  <trackindex>2</trackindex>
                  <clipindex>1</clipindex>
                  <groupindex>1</groupindex>
                </link>
              </clipitem>
            </track>
          </video>
          <audio>
            <track>
              <clipitem id="clipitem-590" frameBlend="FALSE">
                <masterclipid>masterclip-193</masterclipid>
                <name>00415.MTS</name>
                <file id="file-193"/>
                <sourcetrack>
                  <mediatype>audio</mediatype>
                  <trackindex>1</trackindex>
                </sourcetrack>
                <link>
                  <linkclipref>clipitem-589</linkclipref>
                  <mediatype>video</mediatype>
                  <trackindex>1</trackindex>
                  <clipindex>1</clipindex>
                </link>
                <link>
                  <linkclipref>clipitem-590</linkclipref>
                  <mediatype>audio</mediatype>
                  <trackindex>1</trackindex>
                  <clipindex>1</clipindex>
                  <groupindex>1</groupindex>
                </link>
                <link>
                  <linkclipref>clipitem-591</linkclipref>
                  <mediatype>audio</mediatype>
                  <trackindex>2</trackindex>
                  <clipindex>1</clipindex>
                  <groupindex>1</groupindex>
                </link>
              </clipitem>
            </track>
            <track>
              <clipitem id="clipitem-591" frameBlend="FALSE">
                <masterclipid>masterclip-193</masterclipid>
                <name>00415.MTS</name>
                <file id="file-193"/>
                <sourcetrack>
                  <mediatype>audio</mediatype>
                  <trackindex>2</trackindex>
                </sourcetrack>
                <link>
                  <linkclipref>clipitem-589</linkclipref>
                  <mediatype>video</mediatype>
                  <trackindex>1</trackindex>
                  <clipindex>1</clipindex>
                </link>
                <link>
                  <linkclipref>clipitem-590</linkclipref>
                  <mediatype>audio</mediatype>
                  <trackindex>1</trackindex>
                  <clipindex>1</clipindex>
                  <groupindex>1</groupindex>
                </link>
                <link>
                  <linkclipref>clipitem-591</linkclipref>
                  <mediatype>audio</mediatype>
                  <trackindex>2</trackindex>
                  <clipindex>1</clipindex>
                  <groupindex>1</groupindex>
                </link>
              </clipitem>
            </track>
          </audio>
        </media>
        <logginginfo>
          <description/>
          <scene/>
          <shottake/>
          <lognote/>
        </logginginfo>
      </clip>
      <clip id="masterclip-194" frameBlend="FALSE">
        <uuid>41b939dd-7e5c-4723-bbdc-5aa4e0cb8529</uuid>
        <masterclipid>masterclip-194</masterclipid>
        <ismasterclip>TRUE</ismasterclip>
        <duration>133</duration>
        <rate>
          <timebase>24</timebase>
          <ntsc>TRUE</ntsc>
        </rate>
        <name>00416.MTS</name>
        <media>
          <video>
            <track>
              <clipitem id="clipitem-592" frameBlend="FALSE">
                <masterclipid>masterclip-194</masterclipid>
                <name>00416.MTS</name>
                <alphatype>black</alphatype>
                <pixelaspectratio>square</pixelaspectratio>
                <anamorphic>FALSE</anamorphic>
                <file id="file-194">
                  <name>00416.MTS</name>
                  <pathurl>file://localhost/Volumes/Macintosh%20HD/Users/jacksongs/Desktop/STREAM/00416.MTS</pathurl>
                  <rate>
                    <timebase>24</timebase>
                    <ntsc>TRUE</ntsc>
                  </rate>
                  <duration>133</duration>
                  <timecode>
                    <rate>
                      <timebase>24</timebase>
                      <ntsc>TRUE</ntsc>
                    </rate>
                    <string>00:00:00:00</string>
                    <frame>0</frame>
                    <displayformat>NDF</displayformat>
                    <reel>
                      <name/>
                    </reel>
                  </timecode>
                  <media>
                    <video>
                      <duration>18000</duration>
                      <samplecharacteristics>
                        <rate>
                          <timebase>24</timebase>
                          <ntsc>TRUE</ntsc>
                        </rate>
                        <width>1920</width>
                        <height>1080</height>
                        <anamorphic>FALSE</anamorphic>
                        <pixelaspectratio>square</pixelaspectratio>
                        <fielddominance>none</fielddominance>
                      </samplecharacteristics>
                    </video>
                    <audio>
                      <samplecharacteristics>
                        <depth>16</depth>
                        <samplerate>48000</samplerate>
                      </samplecharacteristics>
                      <channelcount>2</channelcount>
                    </audio>
                  </media>
                </file>
                <link>
                  <linkclipref>clipitem-592</linkclipref>
                  <mediatype>video</mediatype>
                  <trackindex>1</trackindex>
                  <clipindex>1</clipindex>
                </link>
                <link>
                  <linkclipref>clipitem-593</linkclipref>
                  <mediatype>audio</mediatype>
                  <trackindex>1</trackindex>
                  <clipindex>1</clipindex>
                  <groupindex>1</groupindex>
                </link>
                <link>
                  <linkclipref>clipitem-594</linkclipref>
                  <mediatype>audio</mediatype>
                  <trackindex>2</trackindex>
                  <clipindex>1</clipindex>
                  <groupindex>1</groupindex>
                </link>
              </clipitem>
            </track>
          </video>
          <audio>
            <track>
              <clipitem id="clipitem-593" frameBlend="FALSE">
                <masterclipid>masterclip-194</masterclipid>
                <name>00416.MTS</name>
                <file id="file-194"/>
                <sourcetrack>
                  <mediatype>audio</mediatype>
                  <trackindex>1</trackindex>
                </sourcetrack>
                <link>
                  <linkclipref>clipitem-592</linkclipref>
                  <mediatype>video</mediatype>
                  <trackindex>1</trackindex>
                  <clipindex>1</clipindex>
                </link>
                <link>
                  <linkclipref>clipitem-593</linkclipref>
                  <mediatype>audio</mediatype>
                  <trackindex>1</trackindex>
                  <clipindex>1</clipindex>
                  <groupindex>1</groupindex>
                </link>
                <link>
                  <linkclipref>clipitem-594</linkclipref>
                  <mediatype>audio</mediatype>
                  <trackindex>2</trackindex>
                  <clipindex>1</clipindex>
                  <groupindex>1</groupindex>
                </link>
              </clipitem>
            </track>
            <track>
              <clipitem id="clipitem-594" frameBlend="FALSE">
                <masterclipid>masterclip-194</masterclipid>
                <name>00416.MTS</name>
                <file id="file-194"/>
                <sourcetrack>
                  <mediatype>audio</mediatype>
                  <trackindex>2</trackindex>
                </sourcetrack>
                <link>
                  <linkclipref>clipitem-592</linkclipref>
                  <mediatype>video</mediatype>
                  <trackindex>1</trackindex>
                  <clipindex>1</clipindex>
                </link>
                <link>
                  <linkclipref>clipitem-593</linkclipref>
                  <mediatype>audio</mediatype>
                  <trackindex>1</trackindex>
                  <clipindex>1</clipindex>
                  <groupindex>1</groupindex>
                </link>
                <link>
                  <linkclipref>clipitem-594</linkclipref>
                  <mediatype>audio</mediatype>
                  <trackindex>2</trackindex>
                  <clipindex>1</clipindex>
                  <groupindex>1</groupindex>
                </link>
              </clipitem>
            </track>
          </audio>
        </media>
        <logginginfo>
          <description/>
          <scene/>
          <shottake/>
          <lognote/>
        </logginginfo>
      </clip>
      <clip id="masterclip-195" frameBlend="FALSE">
        <uuid>e8a6713c-dc75-421f-a56f-81b5c988a211</uuid>
        <masterclipid>masterclip-195</masterclipid>
        <ismasterclip>TRUE</ismasterclip>
        <duration>361</duration>
        <rate>
          <timebase>24</timebase>
          <ntsc>TRUE</ntsc>
        </rate>
        <name>00417.MTS</name>
        <media>
          <video>
            <track>
              <clipitem id="clipitem-595" frameBlend="FALSE">
                <masterclipid>masterclip-195</masterclipid>
                <name>00417.MTS</name>
                <alphatype>black</alphatype>
                <pixelaspectratio>square</pixelaspectratio>
                <anamorphic>FALSE</anamorphic>
                <file id="file-195">
                  <name>00417.MTS</name>
                  <pathurl>file://localhost/Volumes/Macintosh%20HD/Users/jacksongs/Desktop/STREAM/00417.MTS</pathurl>
                  <rate>
                    <timebase>24</timebase>
                    <ntsc>TRUE</ntsc>
                  </rate>
                  <duration>361</duration>
                  <timecode>
                    <rate>
                      <timebase>24</timebase>
                      <ntsc>TRUE</ntsc>
                    </rate>
                    <string>00:00:00:00</string>
                    <frame>0</frame>
                    <displayformat>NDF</displayformat>
                    <reel>
                      <name/>
                    </reel>
                  </timecode>
                  <media>
                    <video>
                      <duration>18000</duration>
                      <samplecharacteristics>
                        <rate>
                          <timebase>24</timebase>
                          <ntsc>TRUE</ntsc>
                        </rate>
                        <width>1920</width>
                        <height>1080</height>
                        <anamorphic>FALSE</anamorphic>
                        <pixelaspectratio>square</pixelaspectratio>
                        <fielddominance>none</fielddominance>
                      </samplecharacteristics>
                    </video>
                    <audio>
                      <samplecharacteristics>
                        <depth>16</depth>
                        <samplerate>48000</samplerate>
                      </samplecharacteristics>
                      <channelcount>2</channelcount>
                    </audio>
                  </media>
                </file>
                <link>
                  <linkclipref>clipitem-595</linkclipref>
                  <mediatype>video</mediatype>
                  <trackindex>1</trackindex>
                  <clipindex>1</clipindex>
                </link>
                <link>
                  <linkclipref>clipitem-596</linkclipref>
                  <mediatype>audio</mediatype>
                  <trackindex>1</trackindex>
                  <clipindex>1</clipindex>
                  <groupindex>1</groupindex>
                </link>
                <link>
                  <linkclipref>clipitem-597</linkclipref>
                  <mediatype>audio</mediatype>
                  <trackindex>2</trackindex>
                  <clipindex>1</clipindex>
                  <groupindex>1</groupindex>
                </link>
              </clipitem>
            </track>
          </video>
          <audio>
            <track>
              <clipitem id="clipitem-596" frameBlend="FALSE">
                <masterclipid>masterclip-195</masterclipid>
                <name>00417.MTS</name>
                <file id="file-195"/>
                <sourcetrack>
                  <mediatype>audio</mediatype>
                  <trackindex>1</trackindex>
                </sourcetrack>
                <link>
                  <linkclipref>clipitem-595</linkclipref>
                  <mediatype>video</mediatype>
                  <trackindex>1</trackindex>
                  <clipindex>1</clipindex>
                </link>
                <link>
                  <linkclipref>clipitem-596</linkclipref>
                  <mediatype>audio</mediatype>
                  <trackindex>1</trackindex>
                  <clipindex>1</clipindex>
                  <groupindex>1</groupindex>
                </link>
                <link>
                  <linkclipref>clipitem-597</linkclipref>
                  <mediatype>audio</mediatype>
                  <trackindex>2</trackindex>
                  <clipindex>1</clipindex>
                  <groupindex>1</groupindex>
                </link>
              </clipitem>
            </track>
            <track>
              <clipitem id="clipitem-597" frameBlend="FALSE">
                <masterclipid>masterclip-195</masterclipid>
                <name>00417.MTS</name>
                <file id="file-195"/>
                <sourcetrack>
                  <mediatype>audio</mediatype>
                  <trackindex>2</trackindex>
                </sourcetrack>
                <link>
                  <linkclipref>clipitem-595</linkclipref>
                  <mediatype>video</mediatype>
                  <trackindex>1</trackindex>
                  <clipindex>1</clipindex>
                </link>
                <link>
                  <linkclipref>clipitem-596</linkclipref>
                  <mediatype>audio</mediatype>
                  <trackindex>1</trackindex>
                  <clipindex>1</clipindex>
                  <groupindex>1</groupindex>
                </link>
                <link>
                  <linkclipref>clipitem-597</linkclipref>
                  <mediatype>audio</mediatype>
                  <trackindex>2</trackindex>
                  <clipindex>1</clipindex>
                  <groupindex>1</groupindex>
                </link>
              </clipitem>
            </track>
          </audio>
        </media>
        <logginginfo>
          <description/>
          <scene/>
          <shottake/>
          <lognote/>
        </logginginfo>
      </clip>
      <clip id="masterclip-196" frameBlend="FALSE">
        <uuid>35504faa-4498-48c9-9c3c-b4f8905e0155</uuid>
        <masterclipid>masterclip-196</masterclipid>
        <ismasterclip>TRUE</ismasterclip>
        <duration>577</duration>
        <rate>
          <timebase>24</timebase>
          <ntsc>TRUE</ntsc>
        </rate>
        <name>00419.MTS</name>
        <media>
          <video>
            <track>
              <clipitem id="clipitem-598" frameBlend="FALSE">
                <masterclipid>masterclip-196</masterclipid>
                <name>00419.MTS</name>
                <alphatype>black</alphatype>
                <pixelaspectratio>square</pixelaspectratio>
                <anamorphic>FALSE</anamorphic>
                <file id="file-196">
                  <name>00419.MTS</name>
                  <pathurl>file://localhost/Volumes/Macintosh%20HD/Users/jacksongs/Desktop/STREAM/00419.MTS</pathurl>
                  <rate>
                    <timebase>24</timebase>
                    <ntsc>TRUE</ntsc>
                  </rate>
                  <duration>577</duration>
                  <timecode>
                    <rate>
                      <timebase>24</timebase>
                      <ntsc>TRUE</ntsc>
                    </rate>
                    <string>00:00:00:00</string>
                    <frame>0</frame>
                    <displayformat>NDF</displayformat>
                    <reel>
                      <name/>
                    </reel>
                  </timecode>
                  <media>
                    <video>
                      <duration>18000</duration>
                      <samplecharacteristics>
                        <rate>
                          <timebase>24</timebase>
                          <ntsc>TRUE</ntsc>
                        </rate>
                        <width>1920</width>
                        <height>1080</height>
                        <anamorphic>FALSE</anamorphic>
                        <pixelaspectratio>square</pixelaspectratio>
                        <fielddominance>none</fielddominance>
                      </samplecharacteristics>
                    </video>
                    <audio>
                      <samplecharacteristics>
                        <depth>16</depth>
                        <samplerate>48000</samplerate>
                      </samplecharacteristics>
                      <channelcount>2</channelcount>
                    </audio>
                  </media>
                </file>
                <link>
                  <linkclipref>clipitem-598</linkclipref>
                  <mediatype>video</mediatype>
                  <trackindex>1</trackindex>
                  <clipindex>1</clipindex>
                </link>
                <link>
                  <linkclipref>clipitem-599</linkclipref>
                  <mediatype>audio</mediatype>
                  <trackindex>1</trackindex>
                  <clipindex>1</clipindex>
                  <groupindex>1</groupindex>
                </link>
                <link>
                  <linkclipref>clipitem-600</linkclipref>
                  <mediatype>audio</mediatype>
                  <trackindex>2</trackindex>
                  <clipindex>1</clipindex>
                  <groupindex>1</groupindex>
                </link>
              </clipitem>
            </track>
          </video>
          <audio>
            <track>
              <clipitem id="clipitem-599" frameBlend="FALSE">
                <masterclipid>masterclip-196</masterclipid>
                <name>00419.MTS</name>
                <file id="file-196"/>
                <sourcetrack>
                  <mediatype>audio</mediatype>
                  <trackindex>1</trackindex>
                </sourcetrack>
                <link>
                  <linkclipref>clipitem-598</linkclipref>
                  <mediatype>video</mediatype>
                  <trackindex>1</trackindex>
                  <clipindex>1</clipindex>
                </link>
                <link>
                  <linkclipref>clipitem-599</linkclipref>
                  <mediatype>audio</mediatype>
                  <trackindex>1</trackindex>
                  <clipindex>1</clipindex>
                  <groupindex>1</groupindex>
                </link>
                <link>
                  <linkclipref>clipitem-600</linkclipref>
                  <mediatype>audio</mediatype>
                  <trackindex>2</trackindex>
                  <clipindex>1</clipindex>
                  <groupindex>1</groupindex>
                </link>
              </clipitem>
            </track>
            <track>
              <clipitem id="clipitem-600" frameBlend="FALSE">
                <masterclipid>masterclip-196</masterclipid>
                <name>00419.MTS</name>
                <file id="file-196"/>
                <sourcetrack>
                  <mediatype>audio</mediatype>
                  <trackindex>2</trackindex>
                </sourcetrack>
                <link>
                  <linkclipref>clipitem-598</linkclipref>
                  <mediatype>video</mediatype>
                  <trackindex>1</trackindex>
                  <clipindex>1</clipindex>
                </link>
                <link>
                  <linkclipref>clipitem-599</linkclipref>
                  <mediatype>audio</mediatype>
                  <trackindex>1</trackindex>
                  <clipindex>1</clipindex>
                  <groupindex>1</groupindex>
                </link>
                <link>
                  <linkclipref>clipitem-600</linkclipref>
                  <mediatype>audio</mediatype>
                  <trackindex>2</trackindex>
                  <clipindex>1</clipindex>
                  <groupindex>1</groupindex>
                </link>
              </clipitem>
            </track>
          </audio>
        </media>
        <logginginfo>
          <description/>
          <scene/>
          <shottake/>
          <lognote/>
        </logginginfo>
      </clip>
      <clip id="masterclip-197" frameBlend="FALSE">
        <uuid>68199d78-43f2-46ff-91a8-6ef8702abcd4</uuid>
        <masterclipid>masterclip-197</masterclipid>
        <ismasterclip>TRUE</ismasterclip>
        <duration>337</duration>
        <rate>
          <timebase>24</timebase>
          <ntsc>TRUE</ntsc>
        </rate>
        <name>00420.MTS</name>
        <media>
          <video>
            <track>
              <clipitem id="clipitem-601" frameBlend="FALSE">
                <masterclipid>masterclip-197</masterclipid>
                <name>00420.MTS</name>
                <alphatype>black</alphatype>
                <pixelaspectratio>square</pixelaspectratio>
                <anamorphic>FALSE</anamorphic>
                <file id="file-197">
                  <name>00420.MTS</name>
                  <pathurl>file://localhost/Volumes/Macintosh%20HD/Users/jacksongs/Desktop/STREAM/00420.MTS</pathurl>
                  <rate>
                    <timebase>24</timebase>
                    <ntsc>TRUE</ntsc>
                  </rate>
                  <duration>337</duration>
                  <timecode>
                    <rate>
                      <timebase>24</timebase>
                      <ntsc>TRUE</ntsc>
                    </rate>
                    <string>00:00:00:00</string>
                    <frame>0</frame>
                    <displayformat>NDF</displayformat>
                    <reel>
                      <name/>
                    </reel>
                  </timecode>
                  <media>
                    <video>
                      <duration>18000</duration>
                      <samplecharacteristics>
                        <rate>
                          <timebase>24</timebase>
                          <ntsc>TRUE</ntsc>
                        </rate>
                        <width>1920</width>
                        <height>1080</height>
                        <anamorphic>FALSE</anamorphic>
                        <pixelaspectratio>square</pixelaspectratio>
                        <fielddominance>none</fielddominance>
                      </samplecharacteristics>
                    </video>
                    <audio>
                      <samplecharacteristics>
                        <depth>16</depth>
                        <samplerate>48000</samplerate>
                      </samplecharacteristics>
                      <channelcount>2</channelcount>
                    </audio>
                  </media>
                </file>
                <link>
                  <linkclipref>clipitem-601</linkclipref>
                  <mediatype>video</mediatype>
                  <trackindex>1</trackindex>
                  <clipindex>1</clipindex>
                </link>
                <link>
                  <linkclipref>clipitem-602</linkclipref>
                  <mediatype>audio</mediatype>
                  <trackindex>1</trackindex>
                  <clipindex>1</clipindex>
                  <groupindex>1</groupindex>
                </link>
                <link>
                  <linkclipref>clipitem-603</linkclipref>
                  <mediatype>audio</mediatype>
                  <trackindex>2</trackindex>
                  <clipindex>1</clipindex>
                  <groupindex>1</groupindex>
                </link>
              </clipitem>
            </track>
          </video>
          <audio>
            <track>
              <clipitem id="clipitem-602" frameBlend="FALSE">
                <masterclipid>masterclip-197</masterclipid>
                <name>00420.MTS</name>
                <file id="file-197"/>
                <sourcetrack>
                  <mediatype>audio</mediatype>
                  <trackindex>1</trackindex>
                </sourcetrack>
                <link>
                  <linkclipref>clipitem-601</linkclipref>
                  <mediatype>video</mediatype>
                  <trackindex>1</trackindex>
                  <clipindex>1</clipindex>
                </link>
                <link>
                  <linkclipref>clipitem-602</linkclipref>
                  <mediatype>audio</mediatype>
                  <trackindex>1</trackindex>
                  <clipindex>1</clipindex>
                  <groupindex>1</groupindex>
                </link>
                <link>
                  <linkclipref>clipitem-603</linkclipref>
                  <mediatype>audio</mediatype>
                  <trackindex>2</trackindex>
                  <clipindex>1</clipindex>
                  <groupindex>1</groupindex>
                </link>
              </clipitem>
            </track>
            <track>
              <clipitem id="clipitem-603" frameBlend="FALSE">
                <masterclipid>masterclip-197</masterclipid>
                <name>00420.MTS</name>
                <file id="file-197"/>
                <sourcetrack>
                  <mediatype>audio</mediatype>
                  <trackindex>2</trackindex>
                </sourcetrack>
                <link>
                  <linkclipref>clipitem-601</linkclipref>
                  <mediatype>video</mediatype>
                  <trackindex>1</trackindex>
                  <clipindex>1</clipindex>
                </link>
                <link>
                  <linkclipref>clipitem-602</linkclipref>
                  <mediatype>audio</mediatype>
                  <trackindex>1</trackindex>
                  <clipindex>1</clipindex>
                  <groupindex>1</groupindex>
                </link>
                <link>
                  <linkclipref>clipitem-603</linkclipref>
                  <mediatype>audio</mediatype>
                  <trackindex>2</trackindex>
                  <clipindex>1</clipindex>
                  <groupindex>1</groupindex>
                </link>
              </clipitem>
            </track>
          </audio>
        </media>
        <logginginfo>
          <description/>
          <scene/>
          <shottake/>
          <lognote/>
        </logginginfo>
      </clip>
      <clip id="masterclip-198" frameBlend="FALSE">
        <uuid>85331bea-7374-428e-9b6b-903b423d89ee</uuid>
        <masterclipid>masterclip-198</masterclipid>
        <ismasterclip>TRUE</ismasterclip>
        <duration>253</duration>
        <rate>
          <timebase>24</timebase>
          <ntsc>TRUE</ntsc>
        </rate>
        <name>00421.MTS</name>
        <media>
          <video>
            <track>
              <clipitem id="clipitem-604" frameBlend="FALSE">
                <masterclipid>masterclip-198</masterclipid>
                <name>00421.MTS</name>
                <alphatype>black</alphatype>
                <pixelaspectratio>square</pixelaspectratio>
                <anamorphic>FALSE</anamorphic>
                <file id="file-198">
                  <name>00421.MTS</name>
                  <pathurl>file://localhost/Volumes/Macintosh%20HD/Users/jacksongs/Desktop/STREAM/00421.MTS</pathurl>
                  <rate>
                    <timebase>24</timebase>
                    <ntsc>TRUE</ntsc>
                  </rate>
                  <duration>253</duration>
                  <timecode>
                    <rate>
                      <timebase>24</timebase>
                      <ntsc>TRUE</ntsc>
                    </rate>
                    <string>00:00:00:00</string>
                    <frame>0</frame>
                    <displayformat>NDF</displayformat>
                    <reel>
                      <name/>
                    </reel>
                  </timecode>
                  <media>
                    <video>
                      <duration>18000</duration>
                      <samplecharacteristics>
                        <rate>
                          <timebase>24</timebase>
                          <ntsc>TRUE</ntsc>
                        </rate>
                        <width>1920</width>
                        <height>1080</height>
                        <anamorphic>FALSE</anamorphic>
                        <pixelaspectratio>square</pixelaspectratio>
                        <fielddominance>none</fielddominance>
                      </samplecharacteristics>
                    </video>
                    <audio>
                      <samplecharacteristics>
                        <depth>16</depth>
                        <samplerate>48000</samplerate>
                      </samplecharacteristics>
                      <channelcount>2</channelcount>
                    </audio>
                  </media>
                </file>
                <link>
                  <linkclipref>clipitem-604</linkclipref>
                  <mediatype>video</mediatype>
                  <trackindex>1</trackindex>
                  <clipindex>1</clipindex>
                </link>
                <link>
                  <linkclipref>clipitem-605</linkclipref>
                  <mediatype>audio</mediatype>
                  <trackindex>1</trackindex>
                  <clipindex>1</clipindex>
                  <groupindex>1</groupindex>
                </link>
                <link>
                  <linkclipref>clipitem-606</linkclipref>
                  <mediatype>audio</mediatype>
                  <trackindex>2</trackindex>
                  <clipindex>1</clipindex>
                  <groupindex>1</groupindex>
                </link>
              </clipitem>
            </track>
          </video>
          <audio>
            <track>
              <clipitem id="clipitem-605" frameBlend="FALSE">
                <masterclipid>masterclip-198</masterclipid>
                <name>00421.MTS</name>
                <file id="file-198"/>
                <sourcetrack>
                  <mediatype>audio</mediatype>
                  <trackindex>1</trackindex>
                </sourcetrack>
                <link>
                  <linkclipref>clipitem-604</linkclipref>
                  <mediatype>video</mediatype>
                  <trackindex>1</trackindex>
                  <clipindex>1</clipindex>
                </link>
                <link>
                  <linkclipref>clipitem-605</linkclipref>
                  <mediatype>audio</mediatype>
                  <trackindex>1</trackindex>
                  <clipindex>1</clipindex>
                  <groupindex>1</groupindex>
                </link>
                <link>
                  <linkclipref>clipitem-606</linkclipref>
                  <mediatype>audio</mediatype>
                  <trackindex>2</trackindex>
                  <clipindex>1</clipindex>
                  <groupindex>1</groupindex>
                </link>
              </clipitem>
            </track>
            <track>
              <clipitem id="clipitem-606" frameBlend="FALSE">
                <masterclipid>masterclip-198</masterclipid>
                <name>00421.MTS</name>
                <file id="file-198"/>
                <sourcetrack>
                  <mediatype>audio</mediatype>
                  <trackindex>2</trackindex>
                </sourcetrack>
                <link>
                  <linkclipref>clipitem-604</linkclipref>
                  <mediatype>video</mediatype>
                  <trackindex>1</trackindex>
                  <clipindex>1</clipindex>
                </link>
                <link>
                  <linkclipref>clipitem-605</linkclipref>
                  <mediatype>audio</mediatype>
                  <trackindex>1</trackindex>
                  <clipindex>1</clipindex>
                  <groupindex>1</groupindex>
                </link>
                <link>
                  <linkclipref>clipitem-606</linkclipref>
                  <mediatype>audio</mediatype>
                  <trackindex>2</trackindex>
                  <clipindex>1</clipindex>
                  <groupindex>1</groupindex>
                </link>
              </clipitem>
            </track>
          </audio>
        </media>
        <logginginfo>
          <description/>
          <scene/>
          <shottake/>
          <lognote/>
        </logginginfo>
      </clip>
      <clip id="masterclip-199" frameBlend="FALSE">
        <uuid>dd0a484c-1bfd-4ec2-abbb-6bbcf713a183</uuid>
        <masterclipid>masterclip-199</masterclipid>
        <ismasterclip>TRUE</ismasterclip>
        <duration>193</duration>
        <rate>
          <timebase>24</timebase>
          <ntsc>TRUE</ntsc>
        </rate>
        <name>00422.MTS</name>
        <media>
          <video>
            <track>
              <clipitem id="clipitem-607" frameBlend="FALSE">
                <masterclipid>masterclip-199</masterclipid>
                <name>00422.MTS</name>
                <alphatype>black</alphatype>
                <pixelaspectratio>square</pixelaspectratio>
                <anamorphic>FALSE</anamorphic>
                <file id="file-199">
                  <name>00422.MTS</name>
                  <pathurl>file://localhost/Volumes/Macintosh%20HD/Users/jacksongs/Desktop/STREAM/00422.MTS</pathurl>
                  <rate>
                    <timebase>24</timebase>
                    <ntsc>TRUE</ntsc>
                  </rate>
                  <duration>193</duration>
                  <timecode>
                    <rate>
                      <timebase>24</timebase>
                      <ntsc>TRUE</ntsc>
                    </rate>
                    <string>00:00:00:00</string>
                    <frame>0</frame>
                    <displayformat>NDF</displayformat>
                    <reel>
                      <name/>
                    </reel>
                  </timecode>
                  <media>
                    <video>
                      <duration>18000</duration>
                      <samplecharacteristics>
                        <rate>
                          <timebase>24</timebase>
                          <ntsc>TRUE</ntsc>
                        </rate>
                        <width>1920</width>
                        <height>1080</height>
                        <anamorphic>FALSE</anamorphic>
                        <pixelaspectratio>square</pixelaspectratio>
                        <fielddominance>none</fielddominance>
                      </samplecharacteristics>
                    </video>
                    <audio>
                      <samplecharacteristics>
                        <depth>16</depth>
                        <samplerate>48000</samplerate>
                      </samplecharacteristics>
                      <channelcount>2</channelcount>
                    </audio>
                  </media>
                </file>
                <link>
                  <linkclipref>clipitem-607</linkclipref>
                  <mediatype>video</mediatype>
                  <trackindex>1</trackindex>
                  <clipindex>1</clipindex>
                </link>
                <link>
                  <linkclipref>clipitem-608</linkclipref>
                  <mediatype>audio</mediatype>
                  <trackindex>1</trackindex>
                  <clipindex>1</clipindex>
                  <groupindex>1</groupindex>
                </link>
                <link>
                  <linkclipref>clipitem-609</linkclipref>
                  <mediatype>audio</mediatype>
                  <trackindex>2</trackindex>
                  <clipindex>1</clipindex>
                  <groupindex>1</groupindex>
                </link>
              </clipitem>
            </track>
          </video>
          <audio>
            <track>
              <clipitem id="clipitem-608" frameBlend="FALSE">
                <masterclipid>masterclip-199</masterclipid>
                <name>00422.MTS</name>
                <file id="file-199"/>
                <sourcetrack>
                  <mediatype>audio</mediatype>
                  <trackindex>1</trackindex>
                </sourcetrack>
                <link>
                  <linkclipref>clipitem-607</linkclipref>
                  <mediatype>video</mediatype>
                  <trackindex>1</trackindex>
                  <clipindex>1</clipindex>
                </link>
                <link>
                  <linkclipref>clipitem-608</linkclipref>
                  <mediatype>audio</mediatype>
                  <trackindex>1</trackindex>
                  <clipindex>1</clipindex>
                  <groupindex>1</groupindex>
                </link>
                <link>
                  <linkclipref>clipitem-609</linkclipref>
                  <mediatype>audio</mediatype>
                  <trackindex>2</trackindex>
                  <clipindex>1</clipindex>
                  <groupindex>1</groupindex>
                </link>
              </clipitem>
            </track>
            <track>
              <clipitem id="clipitem-609" frameBlend="FALSE">
                <masterclipid>masterclip-199</masterclipid>
                <name>00422.MTS</name>
                <file id="file-199"/>
                <sourcetrack>
                  <mediatype>audio</mediatype>
                  <trackindex>2</trackindex>
                </sourcetrack>
                <link>
                  <linkclipref>clipitem-607</linkclipref>
                  <mediatype>video</mediatype>
                  <trackindex>1</trackindex>
                  <clipindex>1</clipindex>
                </link>
                <link>
                  <linkclipref>clipitem-608</linkclipref>
                  <mediatype>audio</mediatype>
                  <trackindex>1</trackindex>
                  <clipindex>1</clipindex>
                  <groupindex>1</groupindex>
                </link>
                <link>
                  <linkclipref>clipitem-609</linkclipref>
                  <mediatype>audio</mediatype>
                  <trackindex>2</trackindex>
                  <clipindex>1</clipindex>
                  <groupindex>1</groupindex>
                </link>
              </clipitem>
            </track>
          </audio>
        </media>
        <logginginfo>
          <description/>
          <scene/>
          <shottake/>
          <lognote/>
        </logginginfo>
      </clip>
      <clip id="masterclip-200" frameBlend="FALSE">
        <uuid>674d00cb-29ac-471f-8cdc-725892b2cdab</uuid>
        <masterclipid>masterclip-200</masterclipid>
        <ismasterclip>TRUE</ismasterclip>
        <duration>673</duration>
        <rate>
          <timebase>24</timebase>
          <ntsc>TRUE</ntsc>
        </rate>
        <name>00423.MTS</name>
        <media>
          <video>
            <track>
              <clipitem id="clipitem-610" frameBlend="FALSE">
                <masterclipid>masterclip-200</masterclipid>
                <name>00423.MTS</name>
                <alphatype>black</alphatype>
                <pixelaspectratio>square</pixelaspectratio>
                <anamorphic>FALSE</anamorphic>
                <file id="file-200">
                  <name>00423.MTS</name>
                  <pathurl>file://localhost/Volumes/Macintosh%20HD/Users/jacksongs/Desktop/STREAM/00423.MTS</pathurl>
                  <rate>
                    <timebase>24</timebase>
                    <ntsc>TRUE</ntsc>
                  </rate>
                  <duration>673</duration>
                  <timecode>
                    <rate>
                      <timebase>24</timebase>
                      <ntsc>TRUE</ntsc>
                    </rate>
                    <string>00:00:00:00</string>
                    <frame>0</frame>
                    <displayformat>NDF</displayformat>
                    <reel>
                      <name/>
                    </reel>
                  </timecode>
                  <media>
                    <video>
                      <duration>18000</duration>
                      <samplecharacteristics>
                        <rate>
                          <timebase>24</timebase>
                          <ntsc>TRUE</ntsc>
                        </rate>
                        <width>1920</width>
                        <height>1080</height>
                        <anamorphic>FALSE</anamorphic>
                        <pixelaspectratio>square</pixelaspectratio>
                        <fielddominance>none</fielddominance>
                      </samplecharacteristics>
                    </video>
                    <audio>
                      <samplecharacteristics>
                        <depth>16</depth>
                        <samplerate>48000</samplerate>
                      </samplecharacteristics>
                      <channelcount>2</channelcount>
                    </audio>
                  </media>
                </file>
                <link>
                  <linkclipref>clipitem-610</linkclipref>
                  <mediatype>video</mediatype>
                  <trackindex>1</trackindex>
                  <clipindex>1</clipindex>
                </link>
                <link>
                  <linkclipref>clipitem-611</linkclipref>
                  <mediatype>audio</mediatype>
                  <trackindex>1</trackindex>
                  <clipindex>1</clipindex>
                  <groupindex>1</groupindex>
                </link>
                <link>
                  <linkclipref>clipitem-612</linkclipref>
                  <mediatype>audio</mediatype>
                  <trackindex>2</trackindex>
                  <clipindex>1</clipindex>
                  <groupindex>1</groupindex>
                </link>
              </clipitem>
            </track>
          </video>
          <audio>
            <track>
              <clipitem id="clipitem-611" frameBlend="FALSE">
                <masterclipid>masterclip-200</masterclipid>
                <name>00423.MTS</name>
                <file id="file-200"/>
                <sourcetrack>
                  <mediatype>audio</mediatype>
                  <trackindex>1</trackindex>
                </sourcetrack>
                <link>
                  <linkclipref>clipitem-610</linkclipref>
                  <mediatype>video</mediatype>
                  <trackindex>1</trackindex>
                  <clipindex>1</clipindex>
                </link>
                <link>
                  <linkclipref>clipitem-611</linkclipref>
                  <mediatype>audio</mediatype>
                  <trackindex>1</trackindex>
                  <clipindex>1</clipindex>
                  <groupindex>1</groupindex>
                </link>
                <link>
                  <linkclipref>clipitem-612</linkclipref>
                  <mediatype>audio</mediatype>
                  <trackindex>2</trackindex>
                  <clipindex>1</clipindex>
                  <groupindex>1</groupindex>
                </link>
              </clipitem>
            </track>
            <track>
              <clipitem id="clipitem-612" frameBlend="FALSE">
                <masterclipid>masterclip-200</masterclipid>
                <name>00423.MTS</name>
                <file id="file-200"/>
                <sourcetrack>
                  <mediatype>audio</mediatype>
                  <trackindex>2</trackindex>
                </sourcetrack>
                <link>
                  <linkclipref>clipitem-610</linkclipref>
                  <mediatype>video</mediatype>
                  <trackindex>1</trackindex>
                  <clipindex>1</clipindex>
                </link>
                <link>
                  <linkclipref>clipitem-611</linkclipref>
                  <mediatype>audio</mediatype>
                  <trackindex>1</trackindex>
                  <clipindex>1</clipindex>
                  <groupindex>1</groupindex>
                </link>
                <link>
                  <linkclipref>clipitem-612</linkclipref>
                  <mediatype>audio</mediatype>
                  <trackindex>2</trackindex>
                  <clipindex>1</clipindex>
                  <groupindex>1</groupindex>
                </link>
              </clipitem>
            </track>
          </audio>
        </media>
        <logginginfo>
          <description/>
          <scene/>
          <shottake/>
          <lognote/>
        </logginginfo>
      </clip>
      <clip id="masterclip-201" frameBlend="FALSE">
        <uuid>a1b8e97c-9822-4b1f-afb5-e69f554c5189</uuid>
        <masterclipid>masterclip-201</masterclipid>
        <ismasterclip>TRUE</ismasterclip>
        <duration>121</duration>
        <rate>
          <timebase>24</timebase>
          <ntsc>TRUE</ntsc>
        </rate>
        <name>00424.MTS</name>
        <media>
          <video>
            <track>
              <clipitem id="clipitem-613" frameBlend="FALSE">
                <masterclipid>masterclip-201</masterclipid>
                <name>00424.MTS</name>
                <alphatype>black</alphatype>
                <pixelaspectratio>square</pixelaspectratio>
                <anamorphic>FALSE</anamorphic>
                <file id="file-201">
                  <name>00424.MTS</name>
                  <pathurl>file://localhost/Volumes/Macintosh%20HD/Users/jacksongs/Desktop/STREAM/00424.MTS</pathurl>
                  <rate>
                    <timebase>24</timebase>
                    <ntsc>TRUE</ntsc>
                  </rate>
                  <duration>121</duration>
                  <timecode>
                    <rate>
                      <timebase>24</timebase>
                      <ntsc>TRUE</ntsc>
                    </rate>
                    <string>00:00:00:00</string>
                    <frame>0</frame>
                    <displayformat>NDF</displayformat>
                    <reel>
                      <name/>
                    </reel>
                  </timecode>
                  <media>
                    <video>
                      <duration>18000</duration>
                      <samplecharacteristics>
                        <rate>
                          <timebase>24</timebase>
                          <ntsc>TRUE</ntsc>
                        </rate>
                        <width>1920</width>
                        <height>1080</height>
                        <anamorphic>FALSE</anamorphic>
                        <pixelaspectratio>square</pixelaspectratio>
                        <fielddominance>none</fielddominance>
                      </samplecharacteristics>
                    </video>
                    <audio>
                      <samplecharacteristics>
                        <depth>16</depth>
                        <samplerate>48000</samplerate>
                      </samplecharacteristics>
                      <channelcount>2</channelcount>
                    </audio>
                  </media>
                </file>
                <link>
                  <linkclipref>clipitem-613</linkclipref>
                  <mediatype>video</mediatype>
                  <trackindex>1</trackindex>
                  <clipindex>1</clipindex>
                </link>
                <link>
                  <linkclipref>clipitem-614</linkclipref>
                  <mediatype>audio</mediatype>
                  <trackindex>1</trackindex>
                  <clipindex>1</clipindex>
                  <groupindex>1</groupindex>
                </link>
                <link>
                  <linkclipref>clipitem-615</linkclipref>
                  <mediatype>audio</mediatype>
                  <trackindex>2</trackindex>
                  <clipindex>1</clipindex>
                  <groupindex>1</groupindex>
                </link>
              </clipitem>
            </track>
          </video>
          <audio>
            <track>
              <clipitem id="clipitem-614" frameBlend="FALSE">
                <masterclipid>masterclip-201</masterclipid>
                <name>00424.MTS</name>
                <file id="file-201"/>
                <sourcetrack>
                  <mediatype>audio</mediatype>
                  <trackindex>1</trackindex>
                </sourcetrack>
                <link>
                  <linkclipref>clipitem-613</linkclipref>
                  <mediatype>video</mediatype>
                  <trackindex>1</trackindex>
                  <clipindex>1</clipindex>
                </link>
                <link>
                  <linkclipref>clipitem-614</linkclipref>
                  <mediatype>audio</mediatype>
                  <trackindex>1</trackindex>
                  <clipindex>1</clipindex>
                  <groupindex>1</groupindex>
                </link>
                <link>
                  <linkclipref>clipitem-615</linkclipref>
                  <mediatype>audio</mediatype>
                  <trackindex>2</trackindex>
                  <clipindex>1</clipindex>
                  <groupindex>1</groupindex>
                </link>
              </clipitem>
            </track>
            <track>
              <clipitem id="clipitem-615" frameBlend="FALSE">
                <masterclipid>masterclip-201</masterclipid>
                <name>00424.MTS</name>
                <file id="file-201"/>
                <sourcetrack>
                  <mediatype>audio</mediatype>
                  <trackindex>2</trackindex>
                </sourcetrack>
                <link>
                  <linkclipref>clipitem-613</linkclipref>
                  <mediatype>video</mediatype>
                  <trackindex>1</trackindex>
                  <clipindex>1</clipindex>
                </link>
                <link>
                  <linkclipref>clipitem-614</linkclipref>
                  <mediatype>audio</mediatype>
                  <trackindex>1</trackindex>
                  <clipindex>1</clipindex>
                  <groupindex>1</groupindex>
                </link>
                <link>
                  <linkclipref>clipitem-615</linkclipref>
                  <mediatype>audio</mediatype>
                  <trackindex>2</trackindex>
                  <clipindex>1</clipindex>
                  <groupindex>1</groupindex>
                </link>
              </clipitem>
            </track>
          </audio>
        </media>
        <logginginfo>
          <description/>
          <scene/>
          <shottake/>
          <lognote/>
        </logginginfo>
      </clip>
      <clip id="masterclip-202" frameBlend="FALSE">
        <uuid>0874d10e-9280-4d23-bb69-caca6f3c005d</uuid>
        <masterclipid>masterclip-202</masterclipid>
        <ismasterclip>TRUE</ismasterclip>
        <duration>349</duration>
        <rate>
          <timebase>24</timebase>
          <ntsc>TRUE</ntsc>
        </rate>
        <name>00425.MTS</name>
        <media>
          <video>
            <track>
              <clipitem id="clipitem-616" frameBlend="FALSE">
                <masterclipid>masterclip-202</masterclipid>
                <name>00425.MTS</name>
                <alphatype>black</alphatype>
                <pixelaspectratio>square</pixelaspectratio>
                <anamorphic>FALSE</anamorphic>
                <file id="file-202">
                  <name>00425.MTS</name>
                  <pathurl>file://localhost/Volumes/Macintosh%20HD/Users/jacksongs/Desktop/STREAM/00425.MTS</pathurl>
                  <rate>
                    <timebase>24</timebase>
                    <ntsc>TRUE</ntsc>
                  </rate>
                  <duration>349</duration>
                  <timecode>
                    <rate>
                      <timebase>24</timebase>
                      <ntsc>TRUE</ntsc>
                    </rate>
                    <string>00:00:00:00</string>
                    <frame>0</frame>
                    <displayformat>NDF</displayformat>
                    <reel>
                      <name/>
                    </reel>
                  </timecode>
                  <media>
                    <video>
                      <duration>18000</duration>
                      <samplecharacteristics>
                        <rate>
                          <timebase>24</timebase>
                          <ntsc>TRUE</ntsc>
                        </rate>
                        <width>1920</width>
                        <height>1080</height>
                        <anamorphic>FALSE</anamorphic>
                        <pixelaspectratio>square</pixelaspectratio>
                        <fielddominance>none</fielddominance>
                      </samplecharacteristics>
                    </video>
                    <audio>
                      <samplecharacteristics>
                        <depth>16</depth>
                        <samplerate>48000</samplerate>
                      </samplecharacteristics>
                      <channelcount>2</channelcount>
                    </audio>
                  </media>
                </file>
                <link>
                  <linkclipref>clipitem-616</linkclipref>
                  <mediatype>video</mediatype>
                  <trackindex>1</trackindex>
                  <clipindex>1</clipindex>
                </link>
                <link>
                  <linkclipref>clipitem-617</linkclipref>
                  <mediatype>audio</mediatype>
                  <trackindex>1</trackindex>
                  <clipindex>1</clipindex>
                  <groupindex>1</groupindex>
                </link>
                <link>
                  <linkclipref>clipitem-618</linkclipref>
                  <mediatype>audio</mediatype>
                  <trackindex>2</trackindex>
                  <clipindex>1</clipindex>
                  <groupindex>1</groupindex>
                </link>
              </clipitem>
            </track>
          </video>
          <audio>
            <track>
              <clipitem id="clipitem-617" frameBlend="FALSE">
                <masterclipid>masterclip-202</masterclipid>
                <name>00425.MTS</name>
                <file id="file-202"/>
                <sourcetrack>
                  <mediatype>audio</mediatype>
                  <trackindex>1</trackindex>
                </sourcetrack>
                <link>
                  <linkclipref>clipitem-616</linkclipref>
                  <mediatype>video</mediatype>
                  <trackindex>1</trackindex>
                  <clipindex>1</clipindex>
                </link>
                <link>
                  <linkclipref>clipitem-617</linkclipref>
                  <mediatype>audio</mediatype>
                  <trackindex>1</trackindex>
                  <clipindex>1</clipindex>
                  <groupindex>1</groupindex>
                </link>
                <link>
                  <linkclipref>clipitem-618</linkclipref>
                  <mediatype>audio</mediatype>
                  <trackindex>2</trackindex>
                  <clipindex>1</clipindex>
                  <groupindex>1</groupindex>
                </link>
              </clipitem>
            </track>
            <track>
              <clipitem id="clipitem-618" frameBlend="FALSE">
                <masterclipid>masterclip-202</masterclipid>
                <name>00425.MTS</name>
                <file id="file-202"/>
                <sourcetrack>
                  <mediatype>audio</mediatype>
                  <trackindex>2</trackindex>
                </sourcetrack>
                <link>
                  <linkclipref>clipitem-616</linkclipref>
                  <mediatype>video</mediatype>
                  <trackindex>1</trackindex>
                  <clipindex>1</clipindex>
                </link>
                <link>
                  <linkclipref>clipitem-617</linkclipref>
                  <mediatype>audio</mediatype>
                  <trackindex>1</trackindex>
                  <clipindex>1</clipindex>
                  <groupindex>1</groupindex>
                </link>
                <link>
                  <linkclipref>clipitem-618</linkclipref>
                  <mediatype>audio</mediatype>
                  <trackindex>2</trackindex>
                  <clipindex>1</clipindex>
                  <groupindex>1</groupindex>
                </link>
              </clipitem>
            </track>
          </audio>
        </media>
        <logginginfo>
          <description/>
          <scene/>
          <shottake/>
          <lognote/>
        </logginginfo>
      </clip>
      <clip id="masterclip-203" frameBlend="FALSE">
        <uuid>57680f25-a0fb-483e-9a4a-b1f710cccf3d</uuid>
        <masterclipid>masterclip-203</masterclipid>
        <ismasterclip>TRUE</ismasterclip>
        <duration>253</duration>
        <rate>
          <timebase>24</timebase>
          <ntsc>TRUE</ntsc>
        </rate>
        <name>00426.MTS</name>
        <media>
          <video>
            <track>
              <clipitem id="clipitem-619" frameBlend="FALSE">
                <masterclipid>masterclip-203</masterclipid>
                <name>00426.MTS</name>
                <alphatype>black</alphatype>
                <pixelaspectratio>square</pixelaspectratio>
                <anamorphic>FALSE</anamorphic>
                <file id="file-203">
                  <name>00426.MTS</name>
                  <pathurl>file://localhost/Volumes/Macintosh%20HD/Users/jacksongs/Desktop/STREAM/00426.MTS</pathurl>
                  <rate>
                    <timebase>24</timebase>
                    <ntsc>TRUE</ntsc>
                  </rate>
                  <duration>253</duration>
                  <timecode>
                    <rate>
                      <timebase>24</timebase>
                      <ntsc>TRUE</ntsc>
                    </rate>
                    <string>00:00:00:00</string>
                    <frame>0</frame>
                    <displayformat>NDF</displayformat>
                    <reel>
                      <name/>
                    </reel>
                  </timecode>
                  <media>
                    <video>
                      <duration>18000</duration>
                      <samplecharacteristics>
                        <rate>
                          <timebase>24</timebase>
                          <ntsc>TRUE</ntsc>
                        </rate>
                        <width>1920</width>
                        <height>1080</height>
                        <anamorphic>FALSE</anamorphic>
                        <pixelaspectratio>square</pixelaspectratio>
                        <fielddominance>none</fielddominance>
                      </samplecharacteristics>
                    </video>
                    <audio>
                      <samplecharacteristics>
                        <depth>16</depth>
                        <samplerate>48000</samplerate>
                      </samplecharacteristics>
                      <channelcount>2</channelcount>
                    </audio>
                  </media>
                </file>
                <link>
                  <linkclipref>clipitem-619</linkclipref>
                  <mediatype>video</mediatype>
                  <trackindex>1</trackindex>
                  <clipindex>1</clipindex>
                </link>
                <link>
                  <linkclipref>clipitem-620</linkclipref>
                  <mediatype>audio</mediatype>
                  <trackindex>1</trackindex>
                  <clipindex>1</clipindex>
                  <groupindex>1</groupindex>
                </link>
                <link>
                  <linkclipref>clipitem-621</linkclipref>
                  <mediatype>audio</mediatype>
                  <trackindex>2</trackindex>
                  <clipindex>1</clipindex>
                  <groupindex>1</groupindex>
                </link>
              </clipitem>
            </track>
          </video>
          <audio>
            <track>
              <clipitem id="clipitem-620" frameBlend="FALSE">
                <masterclipid>masterclip-203</masterclipid>
                <name>00426.MTS</name>
                <file id="file-203"/>
                <sourcetrack>
                  <mediatype>audio</mediatype>
                  <trackindex>1</trackindex>
                </sourcetrack>
                <link>
                  <linkclipref>clipitem-619</linkclipref>
                  <mediatype>video</mediatype>
                  <trackindex>1</trackindex>
                  <clipindex>1</clipindex>
                </link>
                <link>
                  <linkclipref>clipitem-620</linkclipref>
                  <mediatype>audio</mediatype>
                  <trackindex>1</trackindex>
                  <clipindex>1</clipindex>
                  <groupindex>1</groupindex>
                </link>
                <link>
                  <linkclipref>clipitem-621</linkclipref>
                  <mediatype>audio</mediatype>
                  <trackindex>2</trackindex>
                  <clipindex>1</clipindex>
                  <groupindex>1</groupindex>
                </link>
              </clipitem>
            </track>
            <track>
              <clipitem id="clipitem-621" frameBlend="FALSE">
                <masterclipid>masterclip-203</masterclipid>
                <name>00426.MTS</name>
                <file id="file-203"/>
                <sourcetrack>
                  <mediatype>audio</mediatype>
                  <trackindex>2</trackindex>
                </sourcetrack>
                <link>
                  <linkclipref>clipitem-619</linkclipref>
                  <mediatype>video</mediatype>
                  <trackindex>1</trackindex>
                  <clipindex>1</clipindex>
                </link>
                <link>
                  <linkclipref>clipitem-620</linkclipref>
                  <mediatype>audio</mediatype>
                  <trackindex>1</trackindex>
                  <clipindex>1</clipindex>
                  <groupindex>1</groupindex>
                </link>
                <link>
                  <linkclipref>clipitem-621</linkclipref>
                  <mediatype>audio</mediatype>
                  <trackindex>2</trackindex>
                  <clipindex>1</clipindex>
                  <groupindex>1</groupindex>
                </link>
              </clipitem>
            </track>
          </audio>
        </media>
        <logginginfo>
          <description/>
          <scene/>
          <shottake/>
          <lognote/>
        </logginginfo>
      </clip>
      <clip id="masterclip-204" frameBlend="FALSE">
        <uuid>01e2df12-1ae6-4b6e-8d6b-e9d0a767d516</uuid>
        <masterclipid>masterclip-204</masterclipid>
        <ismasterclip>TRUE</ismasterclip>
        <duration>433</duration>
        <rate>
          <timebase>24</timebase>
          <ntsc>TRUE</ntsc>
        </rate>
        <name>00427.MTS</name>
        <media>
          <video>
            <track>
              <clipitem id="clipitem-622" frameBlend="FALSE">
                <masterclipid>masterclip-204</masterclipid>
                <name>00427.MTS</name>
                <alphatype>black</alphatype>
                <pixelaspectratio>square</pixelaspectratio>
                <anamorphic>FALSE</anamorphic>
                <file id="file-204">
                  <name>00427.MTS</name>
                  <pathurl>file://localhost/Volumes/Macintosh%20HD/Users/jacksongs/Desktop/STREAM/00427.MTS</pathurl>
                  <rate>
                    <timebase>24</timebase>
                    <ntsc>TRUE</ntsc>
                  </rate>
                  <duration>433</duration>
                  <timecode>
                    <rate>
                      <timebase>24</timebase>
                      <ntsc>TRUE</ntsc>
                    </rate>
                    <string>00:00:00:00</string>
                    <frame>0</frame>
                    <displayformat>NDF</displayformat>
                    <reel>
                      <name/>
                    </reel>
                  </timecode>
                  <media>
                    <video>
                      <duration>18000</duration>
                      <samplecharacteristics>
                        <rate>
                          <timebase>24</timebase>
                          <ntsc>TRUE</ntsc>
                        </rate>
                        <width>1920</width>
                        <height>1080</height>
                        <anamorphic>FALSE</anamorphic>
                        <pixelaspectratio>square</pixelaspectratio>
                        <fielddominance>none</fielddominance>
                      </samplecharacteristics>
                    </video>
                    <audio>
                      <samplecharacteristics>
                        <depth>16</depth>
                        <samplerate>48000</samplerate>
                      </samplecharacteristics>
                      <channelcount>2</channelcount>
                    </audio>
                  </media>
                </file>
                <link>
                  <linkclipref>clipitem-622</linkclipref>
                  <mediatype>video</mediatype>
                  <trackindex>1</trackindex>
                  <clipindex>1</clipindex>
                </link>
                <link>
                  <linkclipref>clipitem-623</linkclipref>
                  <mediatype>audio</mediatype>
                  <trackindex>1</trackindex>
                  <clipindex>1</clipindex>
                  <groupindex>1</groupindex>
                </link>
                <link>
                  <linkclipref>clipitem-624</linkclipref>
                  <mediatype>audio</mediatype>
                  <trackindex>2</trackindex>
                  <clipindex>1</clipindex>
                  <groupindex>1</groupindex>
                </link>
              </clipitem>
            </track>
          </video>
          <audio>
            <track>
              <clipitem id="clipitem-623" frameBlend="FALSE">
                <masterclipid>masterclip-204</masterclipid>
                <name>00427.MTS</name>
                <file id="file-204"/>
                <sourcetrack>
                  <mediatype>audio</mediatype>
                  <trackindex>1</trackindex>
                </sourcetrack>
                <link>
                  <linkclipref>clipitem-622</linkclipref>
                  <mediatype>video</mediatype>
                  <trackindex>1</trackindex>
                  <clipindex>1</clipindex>
                </link>
                <link>
                  <linkclipref>clipitem-623</linkclipref>
                  <mediatype>audio</mediatype>
                  <trackindex>1</trackindex>
                  <clipindex>1</clipindex>
                  <groupindex>1</groupindex>
                </link>
                <link>
                  <linkclipref>clipitem-624</linkclipref>
                  <mediatype>audio</mediatype>
                  <trackindex>2</trackindex>
                  <clipindex>1</clipindex>
                  <groupindex>1</groupindex>
                </link>
              </clipitem>
            </track>
            <track>
              <clipitem id="clipitem-624" frameBlend="FALSE">
                <masterclipid>masterclip-204</masterclipid>
                <name>00427.MTS</name>
                <file id="file-204"/>
                <sourcetrack>
                  <mediatype>audio</mediatype>
                  <trackindex>2</trackindex>
                </sourcetrack>
                <link>
                  <linkclipref>clipitem-622</linkclipref>
                  <mediatype>video</mediatype>
                  <trackindex>1</trackindex>
                  <clipindex>1</clipindex>
                </link>
                <link>
                  <linkclipref>clipitem-623</linkclipref>
                  <mediatype>audio</mediatype>
                  <trackindex>1</trackindex>
                  <clipindex>1</clipindex>
                  <groupindex>1</groupindex>
                </link>
                <link>
                  <linkclipref>clipitem-624</linkclipref>
                  <mediatype>audio</mediatype>
                  <trackindex>2</trackindex>
                  <clipindex>1</clipindex>
                  <groupindex>1</groupindex>
                </link>
              </clipitem>
            </track>
          </audio>
        </media>
        <logginginfo>
          <description/>
          <scene/>
          <shottake/>
          <lognote/>
        </logginginfo>
      </clip>
      <clip id="masterclip-205" frameBlend="FALSE">
        <uuid>ba3baa8d-89a2-437b-ab0e-22b1adad7d08</uuid>
        <masterclipid>masterclip-205</masterclipid>
        <ismasterclip>TRUE</ismasterclip>
        <duration>289</duration>
        <rate>
          <timebase>24</timebase>
          <ntsc>TRUE</ntsc>
        </rate>
        <name>00428.MTS</name>
        <media>
          <video>
            <track>
              <clipitem id="clipitem-625" frameBlend="FALSE">
                <masterclipid>masterclip-205</masterclipid>
                <name>00428.MTS</name>
                <alphatype>black</alphatype>
                <pixelaspectratio>square</pixelaspectratio>
                <anamorphic>FALSE</anamorphic>
                <file id="file-205">
                  <name>00428.MTS</name>
                  <pathurl>file://localhost/Volumes/Macintosh%20HD/Users/jacksongs/Desktop/STREAM/00428.MTS</pathurl>
                  <rate>
                    <timebase>24</timebase>
                    <ntsc>TRUE</ntsc>
                  </rate>
                  <duration>289</duration>
                  <timecode>
                    <rate>
                      <timebase>24</timebase>
                      <ntsc>TRUE</ntsc>
                    </rate>
                    <string>00:00:00:00</string>
                    <frame>0</frame>
                    <displayformat>NDF</displayformat>
                    <reel>
                      <name/>
                    </reel>
                  </timecode>
                  <media>
                    <video>
                      <duration>18000</duration>
                      <samplecharacteristics>
                        <rate>
                          <timebase>24</timebase>
                          <ntsc>TRUE</ntsc>
                        </rate>
                        <width>1920</width>
                        <height>1080</height>
                        <anamorphic>FALSE</anamorphic>
                        <pixelaspectratio>square</pixelaspectratio>
                        <fielddominance>none</fielddominance>
                      </samplecharacteristics>
                    </video>
                    <audio>
                      <samplecharacteristics>
                        <depth>16</depth>
                        <samplerate>48000</samplerate>
                      </samplecharacteristics>
                      <channelcount>2</channelcount>
                    </audio>
                  </media>
                </file>
                <link>
                  <linkclipref>clipitem-625</linkclipref>
                  <mediatype>video</mediatype>
                  <trackindex>1</trackindex>
                  <clipindex>1</clipindex>
                </link>
                <link>
                  <linkclipref>clipitem-626</linkclipref>
                  <mediatype>audio</mediatype>
                  <trackindex>1</trackindex>
                  <clipindex>1</clipindex>
                  <groupindex>1</groupindex>
                </link>
                <link>
                  <linkclipref>clipitem-627</linkclipref>
                  <mediatype>audio</mediatype>
                  <trackindex>2</trackindex>
                  <clipindex>1</clipindex>
                  <groupindex>1</groupindex>
                </link>
              </clipitem>
            </track>
          </video>
          <audio>
            <track>
              <clipitem id="clipitem-626" frameBlend="FALSE">
                <masterclipid>masterclip-205</masterclipid>
                <name>00428.MTS</name>
                <file id="file-205"/>
                <sourcetrack>
                  <mediatype>audio</mediatype>
                  <trackindex>1</trackindex>
                </sourcetrack>
                <link>
                  <linkclipref>clipitem-625</linkclipref>
                  <mediatype>video</mediatype>
                  <trackindex>1</trackindex>
                  <clipindex>1</clipindex>
                </link>
                <link>
                  <linkclipref>clipitem-626</linkclipref>
                  <mediatype>audio</mediatype>
                  <trackindex>1</trackindex>
                  <clipindex>1</clipindex>
                  <groupindex>1</groupindex>
                </link>
                <link>
                  <linkclipref>clipitem-627</linkclipref>
                  <mediatype>audio</mediatype>
                  <trackindex>2</trackindex>
                  <clipindex>1</clipindex>
                  <groupindex>1</groupindex>
                </link>
              </clipitem>
            </track>
            <track>
              <clipitem id="clipitem-627" frameBlend="FALSE">
                <masterclipid>masterclip-205</masterclipid>
                <name>00428.MTS</name>
                <file id="file-205"/>
                <sourcetrack>
                  <mediatype>audio</mediatype>
                  <trackindex>2</trackindex>
                </sourcetrack>
                <link>
                  <linkclipref>clipitem-625</linkclipref>
                  <mediatype>video</mediatype>
                  <trackindex>1</trackindex>
                  <clipindex>1</clipindex>
                </link>
                <link>
                  <linkclipref>clipitem-626</linkclipref>
                  <mediatype>audio</mediatype>
                  <trackindex>1</trackindex>
                  <clipindex>1</clipindex>
                  <groupindex>1</groupindex>
                </link>
                <link>
                  <linkclipref>clipitem-627</linkclipref>
                  <mediatype>audio</mediatype>
                  <trackindex>2</trackindex>
                  <clipindex>1</clipindex>
                  <groupindex>1</groupindex>
                </link>
              </clipitem>
            </track>
          </audio>
        </media>
        <logginginfo>
          <description/>
          <scene/>
          <shottake/>
          <lognote/>
        </logginginfo>
      </clip>
      <clip id="masterclip-206" frameBlend="FALSE">
        <uuid>8978ec6d-3d3b-4757-b8c5-900cf8d4422e</uuid>
        <masterclipid>masterclip-206</masterclipid>
        <ismasterclip>TRUE</ismasterclip>
        <duration>157</duration>
        <rate>
          <timebase>24</timebase>
          <ntsc>TRUE</ntsc>
        </rate>
        <name>00429.MTS</name>
        <media>
          <video>
            <track>
              <clipitem id="clipitem-628" frameBlend="FALSE">
                <masterclipid>masterclip-206</masterclipid>
                <name>00429.MTS</name>
                <alphatype>black</alphatype>
                <pixelaspectratio>square</pixelaspectratio>
                <anamorphic>FALSE</anamorphic>
                <file id="file-206">
                  <name>00429.MTS</name>
                  <pathurl>file://localhost/Volumes/Macintosh%20HD/Users/jacksongs/Desktop/STREAM/00429.MTS</pathurl>
                  <rate>
                    <timebase>24</timebase>
                    <ntsc>TRUE</ntsc>
                  </rate>
                  <duration>157</duration>
                  <timecode>
                    <rate>
                      <timebase>24</timebase>
                      <ntsc>TRUE</ntsc>
                    </rate>
                    <string>00:00:00:00</string>
                    <frame>0</frame>
                    <displayformat>NDF</displayformat>
                    <reel>
                      <name/>
                    </reel>
                  </timecode>
                  <media>
                    <video>
                      <duration>18000</duration>
                      <samplecharacteristics>
                        <rate>
                          <timebase>24</timebase>
                          <ntsc>TRUE</ntsc>
                        </rate>
                        <width>1920</width>
                        <height>1080</height>
                        <anamorphic>FALSE</anamorphic>
                        <pixelaspectratio>square</pixelaspectratio>
                        <fielddominance>none</fielddominance>
                      </samplecharacteristics>
                    </video>
                    <audio>
                      <samplecharacteristics>
                        <depth>16</depth>
                        <samplerate>48000</samplerate>
                      </samplecharacteristics>
                      <channelcount>2</channelcount>
                    </audio>
                  </media>
                </file>
                <link>
                  <linkclipref>clipitem-628</linkclipref>
                  <mediatype>video</mediatype>
                  <trackindex>1</trackindex>
                  <clipindex>1</clipindex>
                </link>
                <link>
                  <linkclipref>clipitem-629</linkclipref>
                  <mediatype>audio</mediatype>
                  <trackindex>1</trackindex>
                  <clipindex>1</clipindex>
                  <groupindex>1</groupindex>
                </link>
                <link>
                  <linkclipref>clipitem-630</linkclipref>
                  <mediatype>audio</mediatype>
                  <trackindex>2</trackindex>
                  <clipindex>1</clipindex>
                  <groupindex>1</groupindex>
                </link>
              </clipitem>
            </track>
          </video>
          <audio>
            <track>
              <clipitem id="clipitem-629" frameBlend="FALSE">
                <masterclipid>masterclip-206</masterclipid>
                <name>00429.MTS</name>
                <file id="file-206"/>
                <sourcetrack>
                  <mediatype>audio</mediatype>
                  <trackindex>1</trackindex>
                </sourcetrack>
                <link>
                  <linkclipref>clipitem-628</linkclipref>
                  <mediatype>video</mediatype>
                  <trackindex>1</trackindex>
                  <clipindex>1</clipindex>
                </link>
                <link>
                  <linkclipref>clipitem-629</linkclipref>
                  <mediatype>audio</mediatype>
                  <trackindex>1</trackindex>
                  <clipindex>1</clipindex>
                  <groupindex>1</groupindex>
                </link>
                <link>
                  <linkclipref>clipitem-630</linkclipref>
                  <mediatype>audio</mediatype>
                  <trackindex>2</trackindex>
                  <clipindex>1</clipindex>
                  <groupindex>1</groupindex>
                </link>
              </clipitem>
            </track>
            <track>
              <clipitem id="clipitem-630" frameBlend="FALSE">
                <masterclipid>masterclip-206</masterclipid>
                <name>00429.MTS</name>
                <file id="file-206"/>
                <sourcetrack>
                  <mediatype>audio</mediatype>
                  <trackindex>2</trackindex>
                </sourcetrack>
                <link>
                  <linkclipref>clipitem-628</linkclipref>
                  <mediatype>video</mediatype>
                  <trackindex>1</trackindex>
                  <clipindex>1</clipindex>
                </link>
                <link>
                  <linkclipref>clipitem-629</linkclipref>
                  <mediatype>audio</mediatype>
                  <trackindex>1</trackindex>
                  <clipindex>1</clipindex>
                  <groupindex>1</groupindex>
                </link>
                <link>
                  <linkclipref>clipitem-630</linkclipref>
                  <mediatype>audio</mediatype>
                  <trackindex>2</trackindex>
                  <clipindex>1</clipindex>
                  <groupindex>1</groupindex>
                </link>
              </clipitem>
            </track>
          </audio>
        </media>
        <logginginfo>
          <description/>
          <scene/>
          <shottake/>
          <lognote/>
        </logginginfo>
      </clip>
      <clip id="masterclip-207" frameBlend="FALSE">
        <uuid>4c5b0f54-250a-4d04-8d23-3d5e88f01bda</uuid>
        <masterclipid>masterclip-207</masterclipid>
        <ismasterclip>TRUE</ismasterclip>
        <duration>193</duration>
        <rate>
          <timebase>24</timebase>
          <ntsc>TRUE</ntsc>
        </rate>
        <name>00430.MTS</name>
        <media>
          <video>
            <track>
              <clipitem id="clipitem-631" frameBlend="FALSE">
                <masterclipid>masterclip-207</masterclipid>
                <name>00430.MTS</name>
                <alphatype>black</alphatype>
                <pixelaspectratio>square</pixelaspectratio>
                <anamorphic>FALSE</anamorphic>
                <file id="file-207">
                  <name>00430.MTS</name>
                  <pathurl>file://localhost/Volumes/Macintosh%20HD/Users/jacksongs/Desktop/STREAM/00430.MTS</pathurl>
                  <rate>
                    <timebase>24</timebase>
                    <ntsc>TRUE</ntsc>
                  </rate>
                  <duration>193</duration>
                  <timecode>
                    <rate>
                      <timebase>24</timebase>
                      <ntsc>TRUE</ntsc>
                    </rate>
                    <string>00:00:00:00</string>
                    <frame>0</frame>
                    <displayformat>NDF</displayformat>
                    <reel>
                      <name/>
                    </reel>
                  </timecode>
                  <media>
                    <video>
                      <duration>18000</duration>
                      <samplecharacteristics>
                        <rate>
                          <timebase>24</timebase>
                          <ntsc>TRUE</ntsc>
                        </rate>
                        <width>1920</width>
                        <height>1080</height>
                        <anamorphic>FALSE</anamorphic>
                        <pixelaspectratio>square</pixelaspectratio>
                        <fielddominance>none</fielddominance>
                      </samplecharacteristics>
                    </video>
                    <audio>
                      <samplecharacteristics>
                        <depth>16</depth>
                        <samplerate>48000</samplerate>
                      </samplecharacteristics>
                      <channelcount>2</channelcount>
                    </audio>
                  </media>
                </file>
                <link>
                  <linkclipref>clipitem-631</linkclipref>
                  <mediatype>video</mediatype>
                  <trackindex>1</trackindex>
                  <clipindex>1</clipindex>
                </link>
                <link>
                  <linkclipref>clipitem-632</linkclipref>
                  <mediatype>audio</mediatype>
                  <trackindex>1</trackindex>
                  <clipindex>1</clipindex>
                  <groupindex>1</groupindex>
                </link>
                <link>
                  <linkclipref>clipitem-633</linkclipref>
                  <mediatype>audio</mediatype>
                  <trackindex>2</trackindex>
                  <clipindex>1</clipindex>
                  <groupindex>1</groupindex>
                </link>
              </clipitem>
            </track>
          </video>
          <audio>
            <track>
              <clipitem id="clipitem-632" frameBlend="FALSE">
                <masterclipid>masterclip-207</masterclipid>
                <name>00430.MTS</name>
                <file id="file-207"/>
                <sourcetrack>
                  <mediatype>audio</mediatype>
                  <trackindex>1</trackindex>
                </sourcetrack>
                <link>
                  <linkclipref>clipitem-631</linkclipref>
                  <mediatype>video</mediatype>
                  <trackindex>1</trackindex>
                  <clipindex>1</clipindex>
                </link>
                <link>
                  <linkclipref>clipitem-632</linkclipref>
                  <mediatype>audio</mediatype>
                  <trackindex>1</trackindex>
                  <clipindex>1</clipindex>
                  <groupindex>1</groupindex>
                </link>
                <link>
                  <linkclipref>clipitem-633</linkclipref>
                  <mediatype>audio</mediatype>
                  <trackindex>2</trackindex>
                  <clipindex>1</clipindex>
                  <groupindex>1</groupindex>
                </link>
              </clipitem>
            </track>
            <track>
              <clipitem id="clipitem-633" frameBlend="FALSE">
                <masterclipid>masterclip-207</masterclipid>
                <name>00430.MTS</name>
                <file id="file-207"/>
                <sourcetrack>
                  <mediatype>audio</mediatype>
                  <trackindex>2</trackindex>
                </sourcetrack>
                <link>
                  <linkclipref>clipitem-631</linkclipref>
                  <mediatype>video</mediatype>
                  <trackindex>1</trackindex>
                  <clipindex>1</clipindex>
                </link>
                <link>
                  <linkclipref>clipitem-632</linkclipref>
                  <mediatype>audio</mediatype>
                  <trackindex>1</trackindex>
                  <clipindex>1</clipindex>
                  <groupindex>1</groupindex>
                </link>
                <link>
                  <linkclipref>clipitem-633</linkclipref>
                  <mediatype>audio</mediatype>
                  <trackindex>2</trackindex>
                  <clipindex>1</clipindex>
                  <groupindex>1</groupindex>
                </link>
              </clipitem>
            </track>
          </audio>
        </media>
        <logginginfo>
          <description/>
          <scene/>
          <shottake/>
          <lognote/>
        </logginginfo>
      </clip>
      <clip id="masterclip-208" frameBlend="FALSE">
        <uuid>ab560640-6777-4b93-8787-e3a39aedffb3</uuid>
        <masterclipid>masterclip-208</masterclipid>
        <ismasterclip>TRUE</ismasterclip>
        <duration>445</duration>
        <rate>
          <timebase>24</timebase>
          <ntsc>TRUE</ntsc>
        </rate>
        <name>00431.MTS</name>
        <media>
          <video>
            <track>
              <clipitem id="clipitem-634" frameBlend="FALSE">
                <masterclipid>masterclip-208</masterclipid>
                <name>00431.MTS</name>
                <alphatype>black</alphatype>
                <pixelaspectratio>square</pixelaspectratio>
                <anamorphic>FALSE</anamorphic>
                <file id="file-208">
                  <name>00431.MTS</name>
                  <pathurl>file://localhost/Volumes/Macintosh%20HD/Users/jacksongs/Desktop/STREAM/00431.MTS</pathurl>
                  <rate>
                    <timebase>24</timebase>
                    <ntsc>TRUE</ntsc>
                  </rate>
                  <duration>445</duration>
                  <timecode>
                    <rate>
                      <timebase>24</timebase>
                      <ntsc>TRUE</ntsc>
                    </rate>
                    <string>00:00:00:00</string>
                    <frame>0</frame>
                    <displayformat>NDF</displayformat>
                    <reel>
                      <name/>
                    </reel>
                  </timecode>
                  <media>
                    <video>
                      <duration>18000</duration>
                      <samplecharacteristics>
                        <rate>
                          <timebase>24</timebase>
                          <ntsc>TRUE</ntsc>
                        </rate>
                        <width>1920</width>
                        <height>1080</height>
                        <anamorphic>FALSE</anamorphic>
                        <pixelaspectratio>square</pixelaspectratio>
                        <fielddominance>none</fielddominance>
                      </samplecharacteristics>
                    </video>
                    <audio>
                      <samplecharacteristics>
                        <depth>16</depth>
                        <samplerate>48000</samplerate>
                      </samplecharacteristics>
                      <channelcount>2</channelcount>
                    </audio>
                  </media>
                </file>
                <link>
                  <linkclipref>clipitem-634</linkclipref>
                  <mediatype>video</mediatype>
                  <trackindex>1</trackindex>
                  <clipindex>1</clipindex>
                </link>
                <link>
                  <linkclipref>clipitem-635</linkclipref>
                  <mediatype>audio</mediatype>
                  <trackindex>1</trackindex>
                  <clipindex>1</clipindex>
                  <groupindex>1</groupindex>
                </link>
                <link>
                  <linkclipref>clipitem-636</linkclipref>
                  <mediatype>audio</mediatype>
                  <trackindex>2</trackindex>
                  <clipindex>1</clipindex>
                  <groupindex>1</groupindex>
                </link>
              </clipitem>
            </track>
          </video>
          <audio>
            <track>
              <clipitem id="clipitem-635" frameBlend="FALSE">
                <masterclipid>masterclip-208</masterclipid>
                <name>00431.MTS</name>
                <file id="file-208"/>
                <sourcetrack>
                  <mediatype>audio</mediatype>
                  <trackindex>1</trackindex>
                </sourcetrack>
                <link>
                  <linkclipref>clipitem-634</linkclipref>
                  <mediatype>video</mediatype>
                  <trackindex>1</trackindex>
                  <clipindex>1</clipindex>
                </link>
                <link>
                  <linkclipref>clipitem-635</linkclipref>
                  <mediatype>audio</mediatype>
                  <trackindex>1</trackindex>
                  <clipindex>1</clipindex>
                  <groupindex>1</groupindex>
                </link>
                <link>
                  <linkclipref>clipitem-636</linkclipref>
                  <mediatype>audio</mediatype>
                  <trackindex>2</trackindex>
                  <clipindex>1</clipindex>
                  <groupindex>1</groupindex>
                </link>
              </clipitem>
            </track>
            <track>
              <clipitem id="clipitem-636" frameBlend="FALSE">
                <masterclipid>masterclip-208</masterclipid>
                <name>00431.MTS</name>
                <file id="file-208"/>
                <sourcetrack>
                  <mediatype>audio</mediatype>
                  <trackindex>2</trackindex>
                </sourcetrack>
                <link>
                  <linkclipref>clipitem-634</linkclipref>
                  <mediatype>video</mediatype>
                  <trackindex>1</trackindex>
                  <clipindex>1</clipindex>
                </link>
                <link>
                  <linkclipref>clipitem-635</linkclipref>
                  <mediatype>audio</mediatype>
                  <trackindex>1</trackindex>
                  <clipindex>1</clipindex>
                  <groupindex>1</groupindex>
                </link>
                <link>
                  <linkclipref>clipitem-636</linkclipref>
                  <mediatype>audio</mediatype>
                  <trackindex>2</trackindex>
                  <clipindex>1</clipindex>
                  <groupindex>1</groupindex>
                </link>
              </clipitem>
            </track>
          </audio>
        </media>
        <logginginfo>
          <description/>
          <scene/>
          <shottake/>
          <lognote/>
        </logginginfo>
      </clip>
      <clip id="masterclip-209" frameBlend="FALSE">
        <uuid>2dbbe0a4-1e5d-4874-afcb-b6e8ed80f2dc</uuid>
        <masterclipid>masterclip-209</masterclipid>
        <ismasterclip>TRUE</ismasterclip>
        <duration>37</duration>
        <rate>
          <timebase>24</timebase>
          <ntsc>TRUE</ntsc>
        </rate>
        <name>00432.MTS</name>
        <media>
          <video>
            <track>
              <clipitem id="clipitem-637" frameBlend="FALSE">
                <masterclipid>masterclip-209</masterclipid>
                <name>00432.MTS</name>
                <alphatype>black</alphatype>
                <pixelaspectratio>square</pixelaspectratio>
                <anamorphic>FALSE</anamorphic>
                <file id="file-209">
                  <name>00432.MTS</name>
                  <pathurl>file://localhost/Volumes/Macintosh%20HD/Users/jacksongs/Desktop/STREAM/00432.MTS</pathurl>
                  <rate>
                    <timebase>24</timebase>
                    <ntsc>TRUE</ntsc>
                  </rate>
                  <duration>37</duration>
                  <timecode>
                    <rate>
                      <timebase>24</timebase>
                      <ntsc>TRUE</ntsc>
                    </rate>
                    <string>00:00:00:00</string>
                    <frame>0</frame>
                    <displayformat>NDF</displayformat>
                    <reel>
                      <name/>
                    </reel>
                  </timecode>
                  <media>
                    <video>
                      <duration>18000</duration>
                      <samplecharacteristics>
                        <rate>
                          <timebase>24</timebase>
                          <ntsc>TRUE</ntsc>
                        </rate>
                        <width>1920</width>
                        <height>1080</height>
                        <anamorphic>FALSE</anamorphic>
                        <pixelaspectratio>square</pixelaspectratio>
                        <fielddominance>none</fielddominance>
                      </samplecharacteristics>
                    </video>
                    <audio>
                      <samplecharacteristics>
                        <depth>16</depth>
                        <samplerate>48000</samplerate>
                      </samplecharacteristics>
                      <channelcount>2</channelcount>
                    </audio>
                  </media>
                </file>
                <link>
                  <linkclipref>clipitem-637</linkclipref>
                  <mediatype>video</mediatype>
                  <trackindex>1</trackindex>
                  <clipindex>1</clipindex>
                </link>
                <link>
                  <linkclipref>clipitem-638</linkclipref>
                  <mediatype>audio</mediatype>
                  <trackindex>1</trackindex>
                  <clipindex>1</clipindex>
                  <groupindex>1</groupindex>
                </link>
                <link>
                  <linkclipref>clipitem-639</linkclipref>
                  <mediatype>audio</mediatype>
                  <trackindex>2</trackindex>
                  <clipindex>1</clipindex>
                  <groupindex>1</groupindex>
                </link>
              </clipitem>
            </track>
          </video>
          <audio>
            <track>
              <clipitem id="clipitem-638" frameBlend="FALSE">
                <masterclipid>masterclip-209</masterclipid>
                <name>00432.MTS</name>
                <file id="file-209"/>
                <sourcetrack>
                  <mediatype>audio</mediatype>
                  <trackindex>1</trackindex>
                </sourcetrack>
                <link>
                  <linkclipref>clipitem-637</linkclipref>
                  <mediatype>video</mediatype>
                  <trackindex>1</trackindex>
                  <clipindex>1</clipindex>
                </link>
                <link>
                  <linkclipref>clipitem-638</linkclipref>
                  <mediatype>audio</mediatype>
                  <trackindex>1</trackindex>
                  <clipindex>1</clipindex>
                  <groupindex>1</groupindex>
                </link>
                <link>
                  <linkclipref>clipitem-639</linkclipref>
                  <mediatype>audio</mediatype>
                  <trackindex>2</trackindex>
                  <clipindex>1</clipindex>
                  <groupindex>1</groupindex>
                </link>
              </clipitem>
            </track>
            <track>
              <clipitem id="clipitem-639" frameBlend="FALSE">
                <masterclipid>masterclip-209</masterclipid>
                <name>00432.MTS</name>
                <file id="file-209"/>
                <sourcetrack>
                  <mediatype>audio</mediatype>
                  <trackindex>2</trackindex>
                </sourcetrack>
                <link>
                  <linkclipref>clipitem-637</linkclipref>
                  <mediatype>video</mediatype>
                  <trackindex>1</trackindex>
                  <clipindex>1</clipindex>
                </link>
                <link>
                  <linkclipref>clipitem-638</linkclipref>
                  <mediatype>audio</mediatype>
                  <trackindex>1</trackindex>
                  <clipindex>1</clipindex>
                  <groupindex>1</groupindex>
                </link>
                <link>
                  <linkclipref>clipitem-639</linkclipref>
                  <mediatype>audio</mediatype>
                  <trackindex>2</trackindex>
                  <clipindex>1</clipindex>
                  <groupindex>1</groupindex>
                </link>
              </clipitem>
            </track>
          </audio>
        </media>
        <logginginfo>
          <description/>
          <scene/>
          <shottake/>
          <lognote/>
        </logginginfo>
      </clip>
      <clip id="masterclip-210" frameBlend="FALSE">
        <uuid>252432c6-b82c-4b00-af17-5fc6903ca291</uuid>
        <masterclipid>masterclip-210</masterclipid>
        <ismasterclip>TRUE</ismasterclip>
        <duration>325</duration>
        <rate>
          <timebase>24</timebase>
          <ntsc>TRUE</ntsc>
        </rate>
        <name>00433.MTS</name>
        <media>
          <video>
            <track>
              <clipitem id="clipitem-640" frameBlend="FALSE">
                <masterclipid>masterclip-210</masterclipid>
                <name>00433.MTS</name>
                <alphatype>black</alphatype>
                <pixelaspectratio>square</pixelaspectratio>
                <anamorphic>FALSE</anamorphic>
                <file id="file-210">
                  <name>00433.MTS</name>
                  <pathurl>file://localhost/Volumes/Macintosh%20HD/Users/jacksongs/Desktop/STREAM/00433.MTS</pathurl>
                  <rate>
                    <timebase>24</timebase>
                    <ntsc>TRUE</ntsc>
                  </rate>
                  <duration>325</duration>
                  <timecode>
                    <rate>
                      <timebase>24</timebase>
                      <ntsc>TRUE</ntsc>
                    </rate>
                    <string>00:00:00:00</string>
                    <frame>0</frame>
                    <displayformat>NDF</displayformat>
                    <reel>
                      <name/>
                    </reel>
                  </timecode>
                  <media>
                    <video>
                      <duration>18000</duration>
                      <samplecharacteristics>
                        <rate>
                          <timebase>24</timebase>
                          <ntsc>TRUE</ntsc>
                        </rate>
                        <width>1920</width>
                        <height>1080</height>
                        <anamorphic>FALSE</anamorphic>
                        <pixelaspectratio>square</pixelaspectratio>
                        <fielddominance>none</fielddominance>
                      </samplecharacteristics>
                    </video>
                    <audio>
                      <samplecharacteristics>
                        <depth>16</depth>
                        <samplerate>48000</samplerate>
                      </samplecharacteristics>
                      <channelcount>2</channelcount>
                    </audio>
                  </media>
                </file>
                <link>
                  <linkclipref>clipitem-640</linkclipref>
                  <mediatype>video</mediatype>
                  <trackindex>1</trackindex>
                  <clipindex>1</clipindex>
                </link>
                <link>
                  <linkclipref>clipitem-641</linkclipref>
                  <mediatype>audio</mediatype>
                  <trackindex>1</trackindex>
                  <clipindex>1</clipindex>
                  <groupindex>1</groupindex>
                </link>
                <link>
                  <linkclipref>clipitem-642</linkclipref>
                  <mediatype>audio</mediatype>
                  <trackindex>2</trackindex>
                  <clipindex>1</clipindex>
                  <groupindex>1</groupindex>
                </link>
              </clipitem>
            </track>
          </video>
          <audio>
            <track>
              <clipitem id="clipitem-641" frameBlend="FALSE">
                <masterclipid>masterclip-210</masterclipid>
                <name>00433.MTS</name>
                <file id="file-210"/>
                <sourcetrack>
                  <mediatype>audio</mediatype>
                  <trackindex>1</trackindex>
                </sourcetrack>
                <link>
                  <linkclipref>clipitem-640</linkclipref>
                  <mediatype>video</mediatype>
                  <trackindex>1</trackindex>
                  <clipindex>1</clipindex>
                </link>
                <link>
                  <linkclipref>clipitem-641</linkclipref>
                  <mediatype>audio</mediatype>
                  <trackindex>1</trackindex>
                  <clipindex>1</clipindex>
                  <groupindex>1</groupindex>
                </link>
                <link>
                  <linkclipref>clipitem-642</linkclipref>
                  <mediatype>audio</mediatype>
                  <trackindex>2</trackindex>
                  <clipindex>1</clipindex>
                  <groupindex>1</groupindex>
                </link>
              </clipitem>
            </track>
            <track>
              <clipitem id="clipitem-642" frameBlend="FALSE">
                <masterclipid>masterclip-210</masterclipid>
                <name>00433.MTS</name>
                <file id="file-210"/>
                <sourcetrack>
                  <mediatype>audio</mediatype>
                  <trackindex>2</trackindex>
                </sourcetrack>
                <link>
                  <linkclipref>clipitem-640</linkclipref>
                  <mediatype>video</mediatype>
                  <trackindex>1</trackindex>
                  <clipindex>1</clipindex>
                </link>
                <link>
                  <linkclipref>clipitem-641</linkclipref>
                  <mediatype>audio</mediatype>
                  <trackindex>1</trackindex>
                  <clipindex>1</clipindex>
                  <groupindex>1</groupindex>
                </link>
                <link>
                  <linkclipref>clipitem-642</linkclipref>
                  <mediatype>audio</mediatype>
                  <trackindex>2</trackindex>
                  <clipindex>1</clipindex>
                  <groupindex>1</groupindex>
                </link>
              </clipitem>
            </track>
          </audio>
        </media>
        <logginginfo>
          <description/>
          <scene/>
          <shottake/>
          <lognote/>
        </logginginfo>
      </clip>
      <clip id="masterclip-211" frameBlend="FALSE">
        <uuid>399e271d-627f-4a9c-b122-f641e2d69697</uuid>
        <masterclipid>masterclip-211</masterclipid>
        <ismasterclip>TRUE</ismasterclip>
        <duration>145</duration>
        <rate>
          <timebase>24</timebase>
          <ntsc>TRUE</ntsc>
        </rate>
        <name>00434.MTS</name>
        <media>
          <video>
            <track>
              <clipitem id="clipitem-643" frameBlend="FALSE">
                <masterclipid>masterclip-211</masterclipid>
                <name>00434.MTS</name>
                <alphatype>black</alphatype>
                <pixelaspectratio>square</pixelaspectratio>
                <anamorphic>FALSE</anamorphic>
                <file id="file-211">
                  <name>00434.MTS</name>
                  <pathurl>file://localhost/Volumes/Macintosh%20HD/Users/jacksongs/Desktop/STREAM/00434.MTS</pathurl>
                  <rate>
                    <timebase>24</timebase>
                    <ntsc>TRUE</ntsc>
                  </rate>
                  <duration>145</duration>
                  <timecode>
                    <rate>
                      <timebase>24</timebase>
                      <ntsc>TRUE</ntsc>
                    </rate>
                    <string>00:00:00:00</string>
                    <frame>0</frame>
                    <displayformat>NDF</displayformat>
                    <reel>
                      <name/>
                    </reel>
                  </timecode>
                  <media>
                    <video>
                      <duration>18000</duration>
                      <samplecharacteristics>
                        <rate>
                          <timebase>24</timebase>
                          <ntsc>TRUE</ntsc>
                        </rate>
                        <width>1920</width>
                        <height>1080</height>
                        <anamorphic>FALSE</anamorphic>
                        <pixelaspectratio>square</pixelaspectratio>
                        <fielddominance>none</fielddominance>
                      </samplecharacteristics>
                    </video>
                    <audio>
                      <samplecharacteristics>
                        <depth>16</depth>
                        <samplerate>48000</samplerate>
                      </samplecharacteristics>
                      <channelcount>2</channelcount>
                    </audio>
                  </media>
                </file>
                <link>
                  <linkclipref>clipitem-643</linkclipref>
                  <mediatype>video</mediatype>
                  <trackindex>1</trackindex>
                  <clipindex>1</clipindex>
                </link>
                <link>
                  <linkclipref>clipitem-644</linkclipref>
                  <mediatype>audio</mediatype>
                  <trackindex>1</trackindex>
                  <clipindex>1</clipindex>
                  <groupindex>1</groupindex>
                </link>
                <link>
                  <linkclipref>clipitem-645</linkclipref>
                  <mediatype>audio</mediatype>
                  <trackindex>2</trackindex>
                  <clipindex>1</clipindex>
                  <groupindex>1</groupindex>
                </link>
              </clipitem>
            </track>
          </video>
          <audio>
            <track>
              <clipitem id="clipitem-644" frameBlend="FALSE">
                <masterclipid>masterclip-211</masterclipid>
                <name>00434.MTS</name>
                <file id="file-211"/>
                <sourcetrack>
                  <mediatype>audio</mediatype>
                  <trackindex>1</trackindex>
                </sourcetrack>
                <link>
                  <linkclipref>clipitem-643</linkclipref>
                  <mediatype>video</mediatype>
                  <trackindex>1</trackindex>
                  <clipindex>1</clipindex>
                </link>
                <link>
                  <linkclipref>clipitem-644</linkclipref>
                  <mediatype>audio</mediatype>
                  <trackindex>1</trackindex>
                  <clipindex>1</clipindex>
                  <groupindex>1</groupindex>
                </link>
                <link>
                  <linkclipref>clipitem-645</linkclipref>
                  <mediatype>audio</mediatype>
                  <trackindex>2</trackindex>
                  <clipindex>1</clipindex>
                  <groupindex>1</groupindex>
                </link>
              </clipitem>
            </track>
            <track>
              <clipitem id="clipitem-645" frameBlend="FALSE">
                <masterclipid>masterclip-211</masterclipid>
                <name>00434.MTS</name>
                <file id="file-211"/>
                <sourcetrack>
                  <mediatype>audio</mediatype>
                  <trackindex>2</trackindex>
                </sourcetrack>
                <link>
                  <linkclipref>clipitem-643</linkclipref>
                  <mediatype>video</mediatype>
                  <trackindex>1</trackindex>
                  <clipindex>1</clipindex>
                </link>
                <link>
                  <linkclipref>clipitem-644</linkclipref>
                  <mediatype>audio</mediatype>
                  <trackindex>1</trackindex>
                  <clipindex>1</clipindex>
                  <groupindex>1</groupindex>
                </link>
                <link>
                  <linkclipref>clipitem-645</linkclipref>
                  <mediatype>audio</mediatype>
                  <trackindex>2</trackindex>
                  <clipindex>1</clipindex>
                  <groupindex>1</groupindex>
                </link>
              </clipitem>
            </track>
          </audio>
        </media>
        <logginginfo>
          <description/>
          <scene/>
          <shottake/>
          <lognote/>
        </logginginfo>
      </clip>
      <clip id="masterclip-212" frameBlend="FALSE">
        <uuid>05d225db-56f8-496b-8d02-3b95ca825d6c</uuid>
        <masterclipid>masterclip-212</masterclipid>
        <ismasterclip>TRUE</ismasterclip>
        <duration>373</duration>
        <rate>
          <timebase>24</timebase>
          <ntsc>TRUE</ntsc>
        </rate>
        <name>00435.MTS</name>
        <media>
          <video>
            <track>
              <clipitem id="clipitem-646" frameBlend="FALSE">
                <masterclipid>masterclip-212</masterclipid>
                <name>00435.MTS</name>
                <alphatype>black</alphatype>
                <pixelaspectratio>square</pixelaspectratio>
                <anamorphic>FALSE</anamorphic>
                <file id="file-212">
                  <name>00435.MTS</name>
                  <pathurl>file://localhost/Volumes/Macintosh%20HD/Users/jacksongs/Desktop/STREAM/00435.MTS</pathurl>
                  <rate>
                    <timebase>24</timebase>
                    <ntsc>TRUE</ntsc>
                  </rate>
                  <duration>373</duration>
                  <timecode>
                    <rate>
                      <timebase>24</timebase>
                      <ntsc>TRUE</ntsc>
                    </rate>
                    <string>00:00:00:00</string>
                    <frame>0</frame>
                    <displayformat>NDF</displayformat>
                    <reel>
                      <name/>
                    </reel>
                  </timecode>
                  <media>
                    <video>
                      <duration>18000</duration>
                      <samplecharacteristics>
                        <rate>
                          <timebase>24</timebase>
                          <ntsc>TRUE</ntsc>
                        </rate>
                        <width>1920</width>
                        <height>1080</height>
                        <anamorphic>FALSE</anamorphic>
                        <pixelaspectratio>square</pixelaspectratio>
                        <fielddominance>none</fielddominance>
                      </samplecharacteristics>
                    </video>
                    <audio>
                      <samplecharacteristics>
                        <depth>16</depth>
                        <samplerate>48000</samplerate>
                      </samplecharacteristics>
                      <channelcount>2</channelcount>
                    </audio>
                  </media>
                </file>
                <link>
                  <linkclipref>clipitem-646</linkclipref>
                  <mediatype>video</mediatype>
                  <trackindex>1</trackindex>
                  <clipindex>1</clipindex>
                </link>
                <link>
                  <linkclipref>clipitem-647</linkclipref>
                  <mediatype>audio</mediatype>
                  <trackindex>1</trackindex>
                  <clipindex>1</clipindex>
                  <groupindex>1</groupindex>
                </link>
                <link>
                  <linkclipref>clipitem-648</linkclipref>
                  <mediatype>audio</mediatype>
                  <trackindex>2</trackindex>
                  <clipindex>1</clipindex>
                  <groupindex>1</groupindex>
                </link>
              </clipitem>
            </track>
          </video>
          <audio>
            <track>
              <clipitem id="clipitem-647" frameBlend="FALSE">
                <masterclipid>masterclip-212</masterclipid>
                <name>00435.MTS</name>
                <file id="file-212"/>
                <sourcetrack>
                  <mediatype>audio</mediatype>
                  <trackindex>1</trackindex>
                </sourcetrack>
                <link>
                  <linkclipref>clipitem-646</linkclipref>
                  <mediatype>video</mediatype>
                  <trackindex>1</trackindex>
                  <clipindex>1</clipindex>
                </link>
                <link>
                  <linkclipref>clipitem-647</linkclipref>
                  <mediatype>audio</mediatype>
                  <trackindex>1</trackindex>
                  <clipindex>1</clipindex>
                  <groupindex>1</groupindex>
                </link>
                <link>
                  <linkclipref>clipitem-648</linkclipref>
                  <mediatype>audio</mediatype>
                  <trackindex>2</trackindex>
                  <clipindex>1</clipindex>
                  <groupindex>1</groupindex>
                </link>
              </clipitem>
            </track>
            <track>
              <clipitem id="clipitem-648" frameBlend="FALSE">
                <masterclipid>masterclip-212</masterclipid>
                <name>00435.MTS</name>
                <file id="file-212"/>
                <sourcetrack>
                  <mediatype>audio</mediatype>
                  <trackindex>2</trackindex>
                </sourcetrack>
                <link>
                  <linkclipref>clipitem-646</linkclipref>
                  <mediatype>video</mediatype>
                  <trackindex>1</trackindex>
                  <clipindex>1</clipindex>
                </link>
                <link>
                  <linkclipref>clipitem-647</linkclipref>
                  <mediatype>audio</mediatype>
                  <trackindex>1</trackindex>
                  <clipindex>1</clipindex>
                  <groupindex>1</groupindex>
                </link>
                <link>
                  <linkclipref>clipitem-648</linkclipref>
                  <mediatype>audio</mediatype>
                  <trackindex>2</trackindex>
                  <clipindex>1</clipindex>
                  <groupindex>1</groupindex>
                </link>
              </clipitem>
            </track>
          </audio>
        </media>
        <logginginfo>
          <description/>
          <scene/>
          <shottake/>
          <lognote/>
        </logginginfo>
      </clip>
      <clip id="masterclip-213" frameBlend="FALSE">
        <uuid>7d360e21-1fdd-4ee8-861c-5ba25c5b490a</uuid>
        <masterclipid>masterclip-213</masterclipid>
        <ismasterclip>TRUE</ismasterclip>
        <duration>481</duration>
        <rate>
          <timebase>24</timebase>
          <ntsc>TRUE</ntsc>
        </rate>
        <name>00436.MTS</name>
        <media>
          <video>
            <track>
              <clipitem id="clipitem-649" frameBlend="FALSE">
                <masterclipid>masterclip-213</masterclipid>
                <name>00436.MTS</name>
                <alphatype>black</alphatype>
                <pixelaspectratio>square</pixelaspectratio>
                <anamorphic>FALSE</anamorphic>
                <file id="file-213">
                  <name>00436.MTS</name>
                  <pathurl>file://localhost/Volumes/Macintosh%20HD/Users/jacksongs/Desktop/STREAM/00436.MTS</pathurl>
                  <rate>
                    <timebase>24</timebase>
                    <ntsc>TRUE</ntsc>
                  </rate>
                  <duration>481</duration>
                  <timecode>
                    <rate>
                      <timebase>24</timebase>
                      <ntsc>TRUE</ntsc>
                    </rate>
                    <string>00:00:00:00</string>
                    <frame>0</frame>
                    <displayformat>NDF</displayformat>
                    <reel>
                      <name/>
                    </reel>
                  </timecode>
                  <media>
                    <video>
                      <duration>18000</duration>
                      <samplecharacteristics>
                        <rate>
                          <timebase>24</timebase>
                          <ntsc>TRUE</ntsc>
                        </rate>
                        <width>1920</width>
                        <height>1080</height>
                        <anamorphic>FALSE</anamorphic>
                        <pixelaspectratio>square</pixelaspectratio>
                        <fielddominance>none</fielddominance>
                      </samplecharacteristics>
                    </video>
                    <audio>
                      <samplecharacteristics>
                        <depth>16</depth>
                        <samplerate>48000</samplerate>
                      </samplecharacteristics>
                      <channelcount>2</channelcount>
                    </audio>
                  </media>
                </file>
                <link>
                  <linkclipref>clipitem-649</linkclipref>
                  <mediatype>video</mediatype>
                  <trackindex>1</trackindex>
                  <clipindex>1</clipindex>
                </link>
                <link>
                  <linkclipref>clipitem-650</linkclipref>
                  <mediatype>audio</mediatype>
                  <trackindex>1</trackindex>
                  <clipindex>1</clipindex>
                  <groupindex>1</groupindex>
                </link>
                <link>
                  <linkclipref>clipitem-651</linkclipref>
                  <mediatype>audio</mediatype>
                  <trackindex>2</trackindex>
                  <clipindex>1</clipindex>
                  <groupindex>1</groupindex>
                </link>
              </clipitem>
            </track>
          </video>
          <audio>
            <track>
              <clipitem id="clipitem-650" frameBlend="FALSE">
                <masterclipid>masterclip-213</masterclipid>
                <name>00436.MTS</name>
                <file id="file-213"/>
                <sourcetrack>
                  <mediatype>audio</mediatype>
                  <trackindex>1</trackindex>
                </sourcetrack>
                <link>
                  <linkclipref>clipitem-649</linkclipref>
                  <mediatype>video</mediatype>
                  <trackindex>1</trackindex>
                  <clipindex>1</clipindex>
                </link>
                <link>
                  <linkclipref>clipitem-650</linkclipref>
                  <mediatype>audio</mediatype>
                  <trackindex>1</trackindex>
                  <clipindex>1</clipindex>
                  <groupindex>1</groupindex>
                </link>
                <link>
                  <linkclipref>clipitem-651</linkclipref>
                  <mediatype>audio</mediatype>
                  <trackindex>2</trackindex>
                  <clipindex>1</clipindex>
                  <groupindex>1</groupindex>
                </link>
              </clipitem>
            </track>
            <track>
              <clipitem id="clipitem-651" frameBlend="FALSE">
                <masterclipid>masterclip-213</masterclipid>
                <name>00436.MTS</name>
                <file id="file-213"/>
                <sourcetrack>
                  <mediatype>audio</mediatype>
                  <trackindex>2</trackindex>
                </sourcetrack>
                <link>
                  <linkclipref>clipitem-649</linkclipref>
                  <mediatype>video</mediatype>
                  <trackindex>1</trackindex>
                  <clipindex>1</clipindex>
                </link>
                <link>
                  <linkclipref>clipitem-650</linkclipref>
                  <mediatype>audio</mediatype>
                  <trackindex>1</trackindex>
                  <clipindex>1</clipindex>
                  <groupindex>1</groupindex>
                </link>
                <link>
                  <linkclipref>clipitem-651</linkclipref>
                  <mediatype>audio</mediatype>
                  <trackindex>2</trackindex>
                  <clipindex>1</clipindex>
                  <groupindex>1</groupindex>
                </link>
              </clipitem>
            </track>
          </audio>
        </media>
        <logginginfo>
          <description/>
          <scene/>
          <shottake/>
          <lognote/>
        </logginginfo>
      </clip>
      <clip id="masterclip-214" frameBlend="FALSE">
        <uuid>71047996-bed8-4066-bcad-bb3def6be6ef</uuid>
        <masterclipid>masterclip-214</masterclipid>
        <ismasterclip>TRUE</ismasterclip>
        <duration>229</duration>
        <rate>
          <timebase>24</timebase>
          <ntsc>TRUE</ntsc>
        </rate>
        <name>00437.MTS</name>
        <media>
          <video>
            <track>
              <clipitem id="clipitem-652" frameBlend="FALSE">
                <masterclipid>masterclip-214</masterclipid>
                <name>00437.MTS</name>
                <alphatype>black</alphatype>
                <pixelaspectratio>square</pixelaspectratio>
                <anamorphic>FALSE</anamorphic>
                <file id="file-214">
                  <name>00437.MTS</name>
                  <pathurl>file://localhost/Volumes/Macintosh%20HD/Users/jacksongs/Desktop/STREAM/00437.MTS</pathurl>
                  <rate>
                    <timebase>24</timebase>
                    <ntsc>TRUE</ntsc>
                  </rate>
                  <duration>229</duration>
                  <timecode>
                    <rate>
                      <timebase>24</timebase>
                      <ntsc>TRUE</ntsc>
                    </rate>
                    <string>00:00:00:00</string>
                    <frame>0</frame>
                    <displayformat>NDF</displayformat>
                    <reel>
                      <name/>
                    </reel>
                  </timecode>
                  <media>
                    <video>
                      <duration>18000</duration>
                      <samplecharacteristics>
                        <rate>
                          <timebase>24</timebase>
                          <ntsc>TRUE</ntsc>
                        </rate>
                        <width>1920</width>
                        <height>1080</height>
                        <anamorphic>FALSE</anamorphic>
                        <pixelaspectratio>square</pixelaspectratio>
                        <fielddominance>none</fielddominance>
                      </samplecharacteristics>
                    </video>
                    <audio>
                      <samplecharacteristics>
                        <depth>16</depth>
                        <samplerate>48000</samplerate>
                      </samplecharacteristics>
                      <channelcount>2</channelcount>
                    </audio>
                  </media>
                </file>
                <link>
                  <linkclipref>clipitem-652</linkclipref>
                  <mediatype>video</mediatype>
                  <trackindex>1</trackindex>
                  <clipindex>1</clipindex>
                </link>
                <link>
                  <linkclipref>clipitem-653</linkclipref>
                  <mediatype>audio</mediatype>
                  <trackindex>1</trackindex>
                  <clipindex>1</clipindex>
                  <groupindex>1</groupindex>
                </link>
                <link>
                  <linkclipref>clipitem-654</linkclipref>
                  <mediatype>audio</mediatype>
                  <trackindex>2</trackindex>
                  <clipindex>1</clipindex>
                  <groupindex>1</groupindex>
                </link>
              </clipitem>
            </track>
          </video>
          <audio>
            <track>
              <clipitem id="clipitem-653" frameBlend="FALSE">
                <masterclipid>masterclip-214</masterclipid>
                <name>00437.MTS</name>
                <file id="file-214"/>
                <sourcetrack>
                  <mediatype>audio</mediatype>
                  <trackindex>1</trackindex>
                </sourcetrack>
                <link>
                  <linkclipref>clipitem-652</linkclipref>
                  <mediatype>video</mediatype>
                  <trackindex>1</trackindex>
                  <clipindex>1</clipindex>
                </link>
                <link>
                  <linkclipref>clipitem-653</linkclipref>
                  <mediatype>audio</mediatype>
                  <trackindex>1</trackindex>
                  <clipindex>1</clipindex>
                  <groupindex>1</groupindex>
                </link>
                <link>
                  <linkclipref>clipitem-654</linkclipref>
                  <mediatype>audio</mediatype>
                  <trackindex>2</trackindex>
                  <clipindex>1</clipindex>
                  <groupindex>1</groupindex>
                </link>
              </clipitem>
            </track>
            <track>
              <clipitem id="clipitem-654" frameBlend="FALSE">
                <masterclipid>masterclip-214</masterclipid>
                <name>00437.MTS</name>
                <file id="file-214"/>
                <sourcetrack>
                  <mediatype>audio</mediatype>
                  <trackindex>2</trackindex>
                </sourcetrack>
                <link>
                  <linkclipref>clipitem-652</linkclipref>
                  <mediatype>video</mediatype>
                  <trackindex>1</trackindex>
                  <clipindex>1</clipindex>
                </link>
                <link>
                  <linkclipref>clipitem-653</linkclipref>
                  <mediatype>audio</mediatype>
                  <trackindex>1</trackindex>
                  <clipindex>1</clipindex>
                  <groupindex>1</groupindex>
                </link>
                <link>
                  <linkclipref>clipitem-654</linkclipref>
                  <mediatype>audio</mediatype>
                  <trackindex>2</trackindex>
                  <clipindex>1</clipindex>
                  <groupindex>1</groupindex>
                </link>
              </clipitem>
            </track>
          </audio>
        </media>
        <logginginfo>
          <description/>
          <scene/>
          <shottake/>
          <lognote/>
        </logginginfo>
      </clip>
      <clip id="masterclip-215" frameBlend="FALSE">
        <uuid>8ba9c0f0-d4d1-4d2d-95a4-98b7cfbbc552</uuid>
        <masterclipid>masterclip-215</masterclipid>
        <ismasterclip>TRUE</ismasterclip>
        <duration>505</duration>
        <rate>
          <timebase>24</timebase>
          <ntsc>TRUE</ntsc>
        </rate>
        <name>00438.MTS</name>
        <media>
          <video>
            <track>
              <clipitem id="clipitem-655" frameBlend="FALSE">
                <masterclipid>masterclip-215</masterclipid>
                <name>00438.MTS</name>
                <alphatype>black</alphatype>
                <pixelaspectratio>square</pixelaspectratio>
                <anamorphic>FALSE</anamorphic>
                <file id="file-215">
                  <name>00438.MTS</name>
                  <pathurl>file://localhost/Volumes/Macintosh%20HD/Users/jacksongs/Desktop/STREAM/00438.MTS</pathurl>
                  <rate>
                    <timebase>24</timebase>
                    <ntsc>TRUE</ntsc>
                  </rate>
                  <duration>505</duration>
                  <timecode>
                    <rate>
                      <timebase>24</timebase>
                      <ntsc>TRUE</ntsc>
                    </rate>
                    <string>00:00:00:00</string>
                    <frame>0</frame>
                    <displayformat>NDF</displayformat>
                    <reel>
                      <name/>
                    </reel>
                  </timecode>
                  <media>
                    <video>
                      <duration>18000</duration>
                      <samplecharacteristics>
                        <rate>
                          <timebase>24</timebase>
                          <ntsc>TRUE</ntsc>
                        </rate>
                        <width>1920</width>
                        <height>1080</height>
                        <anamorphic>FALSE</anamorphic>
                        <pixelaspectratio>square</pixelaspectratio>
                        <fielddominance>none</fielddominance>
                      </samplecharacteristics>
                    </video>
                    <audio>
                      <samplecharacteristics>
                        <depth>16</depth>
                        <samplerate>48000</samplerate>
                      </samplecharacteristics>
                      <channelcount>2</channelcount>
                    </audio>
                  </media>
                </file>
                <link>
                  <linkclipref>clipitem-655</linkclipref>
                  <mediatype>video</mediatype>
                  <trackindex>1</trackindex>
                  <clipindex>1</clipindex>
                </link>
                <link>
                  <linkclipref>clipitem-656</linkclipref>
                  <mediatype>audio</mediatype>
                  <trackindex>1</trackindex>
                  <clipindex>1</clipindex>
                  <groupindex>1</groupindex>
                </link>
                <link>
                  <linkclipref>clipitem-657</linkclipref>
                  <mediatype>audio</mediatype>
                  <trackindex>2</trackindex>
                  <clipindex>1</clipindex>
                  <groupindex>1</groupindex>
                </link>
              </clipitem>
            </track>
          </video>
          <audio>
            <track>
              <clipitem id="clipitem-656" frameBlend="FALSE">
                <masterclipid>masterclip-215</masterclipid>
                <name>00438.MTS</name>
                <file id="file-215"/>
                <sourcetrack>
                  <mediatype>audio</mediatype>
                  <trackindex>1</trackindex>
                </sourcetrack>
                <link>
                  <linkclipref>clipitem-655</linkclipref>
                  <mediatype>video</mediatype>
                  <trackindex>1</trackindex>
                  <clipindex>1</clipindex>
                </link>
                <link>
                  <linkclipref>clipitem-656</linkclipref>
                  <mediatype>audio</mediatype>
                  <trackindex>1</trackindex>
                  <clipindex>1</clipindex>
                  <groupindex>1</groupindex>
                </link>
                <link>
                  <linkclipref>clipitem-657</linkclipref>
                  <mediatype>audio</mediatype>
                  <trackindex>2</trackindex>
                  <clipindex>1</clipindex>
                  <groupindex>1</groupindex>
                </link>
              </clipitem>
            </track>
            <track>
              <clipitem id="clipitem-657" frameBlend="FALSE">
                <masterclipid>masterclip-215</masterclipid>
                <name>00438.MTS</name>
                <file id="file-215"/>
                <sourcetrack>
                  <mediatype>audio</mediatype>
                  <trackindex>2</trackindex>
                </sourcetrack>
                <link>
                  <linkclipref>clipitem-655</linkclipref>
                  <mediatype>video</mediatype>
                  <trackindex>1</trackindex>
                  <clipindex>1</clipindex>
                </link>
                <link>
                  <linkclipref>clipitem-656</linkclipref>
                  <mediatype>audio</mediatype>
                  <trackindex>1</trackindex>
                  <clipindex>1</clipindex>
                  <groupindex>1</groupindex>
                </link>
                <link>
                  <linkclipref>clipitem-657</linkclipref>
                  <mediatype>audio</mediatype>
                  <trackindex>2</trackindex>
                  <clipindex>1</clipindex>
                  <groupindex>1</groupindex>
                </link>
              </clipitem>
            </track>
          </audio>
        </media>
        <logginginfo>
          <description/>
          <scene/>
          <shottake/>
          <lognote/>
        </logginginfo>
      </clip>
      <clip id="masterclip-216" frameBlend="FALSE">
        <uuid>165fb25e-f871-4722-ab8a-a907f82cb474</uuid>
        <masterclipid>masterclip-216</masterclipid>
        <ismasterclip>TRUE</ismasterclip>
        <duration>361</duration>
        <rate>
          <timebase>24</timebase>
          <ntsc>TRUE</ntsc>
        </rate>
        <name>00439.MTS</name>
        <media>
          <video>
            <track>
              <clipitem id="clipitem-658" frameBlend="FALSE">
                <masterclipid>masterclip-216</masterclipid>
                <name>00439.MTS</name>
                <alphatype>black</alphatype>
                <pixelaspectratio>square</pixelaspectratio>
                <anamorphic>FALSE</anamorphic>
                <file id="file-216">
                  <name>00439.MTS</name>
                  <pathurl>file://localhost/Volumes/Macintosh%20HD/Users/jacksongs/Desktop/STREAM/00439.MTS</pathurl>
                  <rate>
                    <timebase>24</timebase>
                    <ntsc>TRUE</ntsc>
                  </rate>
                  <duration>361</duration>
                  <timecode>
                    <rate>
                      <timebase>24</timebase>
                      <ntsc>TRUE</ntsc>
                    </rate>
                    <string>00:00:00:00</string>
                    <frame>0</frame>
                    <displayformat>NDF</displayformat>
                    <reel>
                      <name/>
                    </reel>
                  </timecode>
                  <media>
                    <video>
                      <duration>18000</duration>
                      <samplecharacteristics>
                        <rate>
                          <timebase>24</timebase>
                          <ntsc>TRUE</ntsc>
                        </rate>
                        <width>1920</width>
                        <height>1080</height>
                        <anamorphic>FALSE</anamorphic>
                        <pixelaspectratio>square</pixelaspectratio>
                        <fielddominance>none</fielddominance>
                      </samplecharacteristics>
                    </video>
                    <audio>
                      <samplecharacteristics>
                        <depth>16</depth>
                        <samplerate>48000</samplerate>
                      </samplecharacteristics>
                      <channelcount>2</channelcount>
                    </audio>
                  </media>
                </file>
                <link>
                  <linkclipref>clipitem-658</linkclipref>
                  <mediatype>video</mediatype>
                  <trackindex>1</trackindex>
                  <clipindex>1</clipindex>
                </link>
                <link>
                  <linkclipref>clipitem-659</linkclipref>
                  <mediatype>audio</mediatype>
                  <trackindex>1</trackindex>
                  <clipindex>1</clipindex>
                  <groupindex>1</groupindex>
                </link>
                <link>
                  <linkclipref>clipitem-660</linkclipref>
                  <mediatype>audio</mediatype>
                  <trackindex>2</trackindex>
                  <clipindex>1</clipindex>
                  <groupindex>1</groupindex>
                </link>
              </clipitem>
            </track>
          </video>
          <audio>
            <track>
              <clipitem id="clipitem-659" frameBlend="FALSE">
                <masterclipid>masterclip-216</masterclipid>
                <name>00439.MTS</name>
                <file id="file-216"/>
                <sourcetrack>
                  <mediatype>audio</mediatype>
                  <trackindex>1</trackindex>
                </sourcetrack>
                <link>
                  <linkclipref>clipitem-658</linkclipref>
                  <mediatype>video</mediatype>
                  <trackindex>1</trackindex>
                  <clipindex>1</clipindex>
                </link>
                <link>
                  <linkclipref>clipitem-659</linkclipref>
                  <mediatype>audio</mediatype>
                  <trackindex>1</trackindex>
                  <clipindex>1</clipindex>
                  <groupindex>1</groupindex>
                </link>
                <link>
                  <linkclipref>clipitem-660</linkclipref>
                  <mediatype>audio</mediatype>
                  <trackindex>2</trackindex>
                  <clipindex>1</clipindex>
                  <groupindex>1</groupindex>
                </link>
              </clipitem>
            </track>
            <track>
              <clipitem id="clipitem-660" frameBlend="FALSE">
                <masterclipid>masterclip-216</masterclipid>
                <name>00439.MTS</name>
                <file id="file-216"/>
                <sourcetrack>
                  <mediatype>audio</mediatype>
                  <trackindex>2</trackindex>
                </sourcetrack>
                <link>
                  <linkclipref>clipitem-658</linkclipref>
                  <mediatype>video</mediatype>
                  <trackindex>1</trackindex>
                  <clipindex>1</clipindex>
                </link>
                <link>
                  <linkclipref>clipitem-659</linkclipref>
                  <mediatype>audio</mediatype>
                  <trackindex>1</trackindex>
                  <clipindex>1</clipindex>
                  <groupindex>1</groupindex>
                </link>
                <link>
                  <linkclipref>clipitem-660</linkclipref>
                  <mediatype>audio</mediatype>
                  <trackindex>2</trackindex>
                  <clipindex>1</clipindex>
                  <groupindex>1</groupindex>
                </link>
              </clipitem>
            </track>
          </audio>
        </media>
        <logginginfo>
          <description/>
          <scene/>
          <shottake/>
          <lognote/>
        </logginginfo>
      </clip>
      <clip id="masterclip-217" frameBlend="FALSE">
        <uuid>21d356fa-9bbf-41f1-999b-5fba9cc602f5</uuid>
        <masterclipid>masterclip-217</masterclipid>
        <ismasterclip>TRUE</ismasterclip>
        <duration>325</duration>
        <rate>
          <timebase>24</timebase>
          <ntsc>TRUE</ntsc>
        </rate>
        <name>00440.MTS</name>
        <media>
          <video>
            <track>
              <clipitem id="clipitem-661" frameBlend="FALSE">
                <masterclipid>masterclip-217</masterclipid>
                <name>00440.MTS</name>
                <alphatype>black</alphatype>
                <pixelaspectratio>square</pixelaspectratio>
                <anamorphic>FALSE</anamorphic>
                <file id="file-217">
                  <name>00440.MTS</name>
                  <pathurl>file://localhost/Volumes/Macintosh%20HD/Users/jacksongs/Desktop/STREAM/00440.MTS</pathurl>
                  <rate>
                    <timebase>24</timebase>
                    <ntsc>TRUE</ntsc>
                  </rate>
                  <duration>325</duration>
                  <timecode>
                    <rate>
                      <timebase>24</timebase>
                      <ntsc>TRUE</ntsc>
                    </rate>
                    <string>00:00:00:00</string>
                    <frame>0</frame>
                    <displayformat>NDF</displayformat>
                    <reel>
                      <name/>
                    </reel>
                  </timecode>
                  <media>
                    <video>
                      <duration>18000</duration>
                      <samplecharacteristics>
                        <rate>
                          <timebase>24</timebase>
                          <ntsc>TRUE</ntsc>
                        </rate>
                        <width>1920</width>
                        <height>1080</height>
                        <anamorphic>FALSE</anamorphic>
                        <pixelaspectratio>square</pixelaspectratio>
                        <fielddominance>none</fielddominance>
                      </samplecharacteristics>
                    </video>
                    <audio>
                      <samplecharacteristics>
                        <depth>16</depth>
                        <samplerate>48000</samplerate>
                      </samplecharacteristics>
                      <channelcount>2</channelcount>
                    </audio>
                  </media>
                </file>
                <link>
                  <linkclipref>clipitem-661</linkclipref>
                  <mediatype>video</mediatype>
                  <trackindex>1</trackindex>
                  <clipindex>1</clipindex>
                </link>
                <link>
                  <linkclipref>clipitem-662</linkclipref>
                  <mediatype>audio</mediatype>
                  <trackindex>1</trackindex>
                  <clipindex>1</clipindex>
                  <groupindex>1</groupindex>
                </link>
                <link>
                  <linkclipref>clipitem-663</linkclipref>
                  <mediatype>audio</mediatype>
                  <trackindex>2</trackindex>
                  <clipindex>1</clipindex>
                  <groupindex>1</groupindex>
                </link>
              </clipitem>
            </track>
          </video>
          <audio>
            <track>
              <clipitem id="clipitem-662" frameBlend="FALSE">
                <masterclipid>masterclip-217</masterclipid>
                <name>00440.MTS</name>
                <file id="file-217"/>
                <sourcetrack>
                  <mediatype>audio</mediatype>
                  <trackindex>1</trackindex>
                </sourcetrack>
                <link>
                  <linkclipref>clipitem-661</linkclipref>
                  <mediatype>video</mediatype>
                  <trackindex>1</trackindex>
                  <clipindex>1</clipindex>
                </link>
                <link>
                  <linkclipref>clipitem-662</linkclipref>
                  <mediatype>audio</mediatype>
                  <trackindex>1</trackindex>
                  <clipindex>1</clipindex>
                  <groupindex>1</groupindex>
                </link>
                <link>
                  <linkclipref>clipitem-663</linkclipref>
                  <mediatype>audio</mediatype>
                  <trackindex>2</trackindex>
                  <clipindex>1</clipindex>
                  <groupindex>1</groupindex>
                </link>
              </clipitem>
            </track>
            <track>
              <clipitem id="clipitem-663" frameBlend="FALSE">
                <masterclipid>masterclip-217</masterclipid>
                <name>00440.MTS</name>
                <file id="file-217"/>
                <sourcetrack>
                  <mediatype>audio</mediatype>
                  <trackindex>2</trackindex>
                </sourcetrack>
                <link>
                  <linkclipref>clipitem-661</linkclipref>
                  <mediatype>video</mediatype>
                  <trackindex>1</trackindex>
                  <clipindex>1</clipindex>
                </link>
                <link>
                  <linkclipref>clipitem-662</linkclipref>
                  <mediatype>audio</mediatype>
                  <trackindex>1</trackindex>
                  <clipindex>1</clipindex>
                  <groupindex>1</groupindex>
                </link>
                <link>
                  <linkclipref>clipitem-663</linkclipref>
                  <mediatype>audio</mediatype>
                  <trackindex>2</trackindex>
                  <clipindex>1</clipindex>
                  <groupindex>1</groupindex>
                </link>
              </clipitem>
            </track>
          </audio>
        </media>
        <logginginfo>
          <description/>
          <scene/>
          <shottake/>
          <lognote/>
        </logginginfo>
      </clip>
      <clip id="masterclip-218" frameBlend="FALSE">
        <uuid>1d51e039-be58-4d3a-bd7b-a24cdf141bab</uuid>
        <masterclipid>masterclip-218</masterclipid>
        <ismasterclip>TRUE</ismasterclip>
        <duration>505</duration>
        <rate>
          <timebase>24</timebase>
          <ntsc>TRUE</ntsc>
        </rate>
        <name>00441.MTS</name>
        <media>
          <video>
            <track>
              <clipitem id="clipitem-664" frameBlend="FALSE">
                <masterclipid>masterclip-218</masterclipid>
                <name>00441.MTS</name>
                <alphatype>black</alphatype>
                <pixelaspectratio>square</pixelaspectratio>
                <anamorphic>FALSE</anamorphic>
                <file id="file-218">
                  <name>00441.MTS</name>
                  <pathurl>file://localhost/Volumes/Macintosh%20HD/Users/jacksongs/Desktop/STREAM/00441.MTS</pathurl>
                  <rate>
                    <timebase>24</timebase>
                    <ntsc>TRUE</ntsc>
                  </rate>
                  <duration>505</duration>
                  <timecode>
                    <rate>
                      <timebase>24</timebase>
                      <ntsc>TRUE</ntsc>
                    </rate>
                    <string>00:00:00:00</string>
                    <frame>0</frame>
                    <displayformat>NDF</displayformat>
                    <reel>
                      <name/>
                    </reel>
                  </timecode>
                  <media>
                    <video>
                      <duration>18000</duration>
                      <samplecharacteristics>
                        <rate>
                          <timebase>24</timebase>
                          <ntsc>TRUE</ntsc>
                        </rate>
                        <width>1920</width>
                        <height>1080</height>
                        <anamorphic>FALSE</anamorphic>
                        <pixelaspectratio>square</pixelaspectratio>
                        <fielddominance>none</fielddominance>
                      </samplecharacteristics>
                    </video>
                    <audio>
                      <samplecharacteristics>
                        <depth>16</depth>
                        <samplerate>48000</samplerate>
                      </samplecharacteristics>
                      <channelcount>2</channelcount>
                    </audio>
                  </media>
                </file>
                <link>
                  <linkclipref>clipitem-664</linkclipref>
                  <mediatype>video</mediatype>
                  <trackindex>1</trackindex>
                  <clipindex>1</clipindex>
                </link>
                <link>
                  <linkclipref>clipitem-665</linkclipref>
                  <mediatype>audio</mediatype>
                  <trackindex>1</trackindex>
                  <clipindex>1</clipindex>
                  <groupindex>1</groupindex>
                </link>
                <link>
                  <linkclipref>clipitem-666</linkclipref>
                  <mediatype>audio</mediatype>
                  <trackindex>2</trackindex>
                  <clipindex>1</clipindex>
                  <groupindex>1</groupindex>
                </link>
              </clipitem>
            </track>
          </video>
          <audio>
            <track>
              <clipitem id="clipitem-665" frameBlend="FALSE">
                <masterclipid>masterclip-218</masterclipid>
                <name>00441.MTS</name>
                <file id="file-218"/>
                <sourcetrack>
                  <mediatype>audio</mediatype>
                  <trackindex>1</trackindex>
                </sourcetrack>
                <link>
                  <linkclipref>clipitem-664</linkclipref>
                  <mediatype>video</mediatype>
                  <trackindex>1</trackindex>
                  <clipindex>1</clipindex>
                </link>
                <link>
                  <linkclipref>clipitem-665</linkclipref>
                  <mediatype>audio</mediatype>
                  <trackindex>1</trackindex>
                  <clipindex>1</clipindex>
                  <groupindex>1</groupindex>
                </link>
                <link>
                  <linkclipref>clipitem-666</linkclipref>
                  <mediatype>audio</mediatype>
                  <trackindex>2</trackindex>
                  <clipindex>1</clipindex>
                  <groupindex>1</groupindex>
                </link>
              </clipitem>
            </track>
            <track>
              <clipitem id="clipitem-666" frameBlend="FALSE">
                <masterclipid>masterclip-218</masterclipid>
                <name>00441.MTS</name>
                <file id="file-218"/>
                <sourcetrack>
                  <mediatype>audio</mediatype>
                  <trackindex>2</trackindex>
                </sourcetrack>
                <link>
                  <linkclipref>clipitem-664</linkclipref>
                  <mediatype>video</mediatype>
                  <trackindex>1</trackindex>
                  <clipindex>1</clipindex>
                </link>
                <link>
                  <linkclipref>clipitem-665</linkclipref>
                  <mediatype>audio</mediatype>
                  <trackindex>1</trackindex>
                  <clipindex>1</clipindex>
                  <groupindex>1</groupindex>
                </link>
                <link>
                  <linkclipref>clipitem-666</linkclipref>
                  <mediatype>audio</mediatype>
                  <trackindex>2</trackindex>
                  <clipindex>1</clipindex>
                  <groupindex>1</groupindex>
                </link>
              </clipitem>
            </track>
          </audio>
        </media>
        <logginginfo>
          <description/>
          <scene/>
          <shottake/>
          <lognote/>
        </logginginfo>
      </clip>
      <clip id="masterclip-219" frameBlend="FALSE">
        <uuid>9872f7cb-94f4-4f20-a078-3f18606bf90b</uuid>
        <masterclipid>masterclip-219</masterclipid>
        <ismasterclip>TRUE</ismasterclip>
        <duration>205</duration>
        <rate>
          <timebase>24</timebase>
          <ntsc>TRUE</ntsc>
        </rate>
        <name>00442.MTS</name>
        <media>
          <video>
            <track>
              <clipitem id="clipitem-667" frameBlend="FALSE">
                <masterclipid>masterclip-219</masterclipid>
                <name>00442.MTS</name>
                <alphatype>black</alphatype>
                <pixelaspectratio>square</pixelaspectratio>
                <anamorphic>FALSE</anamorphic>
                <file id="file-219">
                  <name>00442.MTS</name>
                  <pathurl>file://localhost/Volumes/Macintosh%20HD/Users/jacksongs/Desktop/STREAM/00442.MTS</pathurl>
                  <rate>
                    <timebase>24</timebase>
                    <ntsc>TRUE</ntsc>
                  </rate>
                  <duration>205</duration>
                  <timecode>
                    <rate>
                      <timebase>24</timebase>
                      <ntsc>TRUE</ntsc>
                    </rate>
                    <string>00:00:00:00</string>
                    <frame>0</frame>
                    <displayformat>NDF</displayformat>
                    <reel>
                      <name/>
                    </reel>
                  </timecode>
                  <media>
                    <video>
                      <duration>18000</duration>
                      <samplecharacteristics>
                        <rate>
                          <timebase>24</timebase>
                          <ntsc>TRUE</ntsc>
                        </rate>
                        <width>1920</width>
                        <height>1080</height>
                        <anamorphic>FALSE</anamorphic>
                        <pixelaspectratio>square</pixelaspectratio>
                        <fielddominance>none</fielddominance>
                      </samplecharacteristics>
                    </video>
                    <audio>
                      <samplecharacteristics>
                        <depth>16</depth>
                        <samplerate>48000</samplerate>
                      </samplecharacteristics>
                      <channelcount>2</channelcount>
                    </audio>
                  </media>
                </file>
                <link>
                  <linkclipref>clipitem-667</linkclipref>
                  <mediatype>video</mediatype>
                  <trackindex>1</trackindex>
                  <clipindex>1</clipindex>
                </link>
                <link>
                  <linkclipref>clipitem-668</linkclipref>
                  <mediatype>audio</mediatype>
                  <trackindex>1</trackindex>
                  <clipindex>1</clipindex>
                  <groupindex>1</groupindex>
                </link>
                <link>
                  <linkclipref>clipitem-669</linkclipref>
                  <mediatype>audio</mediatype>
                  <trackindex>2</trackindex>
                  <clipindex>1</clipindex>
                  <groupindex>1</groupindex>
                </link>
              </clipitem>
            </track>
          </video>
          <audio>
            <track>
              <clipitem id="clipitem-668" frameBlend="FALSE">
                <masterclipid>masterclip-219</masterclipid>
                <name>00442.MTS</name>
                <file id="file-219"/>
                <sourcetrack>
                  <mediatype>audio</mediatype>
                  <trackindex>1</trackindex>
                </sourcetrack>
                <link>
                  <linkclipref>clipitem-667</linkclipref>
                  <mediatype>video</mediatype>
                  <trackindex>1</trackindex>
                  <clipindex>1</clipindex>
                </link>
                <link>
                  <linkclipref>clipitem-668</linkclipref>
                  <mediatype>audio</mediatype>
                  <trackindex>1</trackindex>
                  <clipindex>1</clipindex>
                  <groupindex>1</groupindex>
                </link>
                <link>
                  <linkclipref>clipitem-669</linkclipref>
                  <mediatype>audio</mediatype>
                  <trackindex>2</trackindex>
                  <clipindex>1</clipindex>
                  <groupindex>1</groupindex>
                </link>
              </clipitem>
            </track>
            <track>
              <clipitem id="clipitem-669" frameBlend="FALSE">
                <masterclipid>masterclip-219</masterclipid>
                <name>00442.MTS</name>
                <file id="file-219"/>
                <sourcetrack>
                  <mediatype>audio</mediatype>
                  <trackindex>2</trackindex>
                </sourcetrack>
                <link>
                  <linkclipref>clipitem-667</linkclipref>
                  <mediatype>video</mediatype>
                  <trackindex>1</trackindex>
                  <clipindex>1</clipindex>
                </link>
                <link>
                  <linkclipref>clipitem-668</linkclipref>
                  <mediatype>audio</mediatype>
                  <trackindex>1</trackindex>
                  <clipindex>1</clipindex>
                  <groupindex>1</groupindex>
                </link>
                <link>
                  <linkclipref>clipitem-669</linkclipref>
                  <mediatype>audio</mediatype>
                  <trackindex>2</trackindex>
                  <clipindex>1</clipindex>
                  <groupindex>1</groupindex>
                </link>
              </clipitem>
            </track>
          </audio>
        </media>
        <logginginfo>
          <description/>
          <scene/>
          <shottake/>
          <lognote/>
        </logginginfo>
      </clip>
      <clip id="masterclip-220" frameBlend="FALSE">
        <uuid>e20deec7-930d-4377-8d88-4cd2c6983da4</uuid>
        <masterclipid>masterclip-220</masterclipid>
        <ismasterclip>TRUE</ismasterclip>
        <duration>277</duration>
        <rate>
          <timebase>24</timebase>
          <ntsc>TRUE</ntsc>
        </rate>
        <name>00443.MTS</name>
        <media>
          <video>
            <track>
              <clipitem id="clipitem-670" frameBlend="FALSE">
                <masterclipid>masterclip-220</masterclipid>
                <name>00443.MTS</name>
                <alphatype>black</alphatype>
                <pixelaspectratio>square</pixelaspectratio>
                <anamorphic>FALSE</anamorphic>
                <file id="file-220">
                  <name>00443.MTS</name>
                  <pathurl>file://localhost/Volumes/Macintosh%20HD/Users/jacksongs/Desktop/STREAM/00443.MTS</pathurl>
                  <rate>
                    <timebase>24</timebase>
                    <ntsc>TRUE</ntsc>
                  </rate>
                  <duration>277</duration>
                  <timecode>
                    <rate>
                      <timebase>24</timebase>
                      <ntsc>TRUE</ntsc>
                    </rate>
                    <string>00:00:00:00</string>
                    <frame>0</frame>
                    <displayformat>NDF</displayformat>
                    <reel>
                      <name/>
                    </reel>
                  </timecode>
                  <media>
                    <video>
                      <duration>18000</duration>
                      <samplecharacteristics>
                        <rate>
                          <timebase>24</timebase>
                          <ntsc>TRUE</ntsc>
                        </rate>
                        <width>1920</width>
                        <height>1080</height>
                        <anamorphic>FALSE</anamorphic>
                        <pixelaspectratio>square</pixelaspectratio>
                        <fielddominance>none</fielddominance>
                      </samplecharacteristics>
                    </video>
                    <audio>
                      <samplecharacteristics>
                        <depth>16</depth>
                        <samplerate>48000</samplerate>
                      </samplecharacteristics>
                      <channelcount>2</channelcount>
                    </audio>
                  </media>
                </file>
                <link>
                  <linkclipref>clipitem-670</linkclipref>
                  <mediatype>video</mediatype>
                  <trackindex>1</trackindex>
                  <clipindex>1</clipindex>
                </link>
                <link>
                  <linkclipref>clipitem-671</linkclipref>
                  <mediatype>audio</mediatype>
                  <trackindex>1</trackindex>
                  <clipindex>1</clipindex>
                  <groupindex>1</groupindex>
                </link>
                <link>
                  <linkclipref>clipitem-672</linkclipref>
                  <mediatype>audio</mediatype>
                  <trackindex>2</trackindex>
                  <clipindex>1</clipindex>
                  <groupindex>1</groupindex>
                </link>
              </clipitem>
            </track>
          </video>
          <audio>
            <track>
              <clipitem id="clipitem-671" frameBlend="FALSE">
                <masterclipid>masterclip-220</masterclipid>
                <name>00443.MTS</name>
                <file id="file-220"/>
                <sourcetrack>
                  <mediatype>audio</mediatype>
                  <trackindex>1</trackindex>
                </sourcetrack>
                <link>
                  <linkclipref>clipitem-670</linkclipref>
                  <mediatype>video</mediatype>
                  <trackindex>1</trackindex>
                  <clipindex>1</clipindex>
                </link>
                <link>
                  <linkclipref>clipitem-671</linkclipref>
                  <mediatype>audio</mediatype>
                  <trackindex>1</trackindex>
                  <clipindex>1</clipindex>
                  <groupindex>1</groupindex>
                </link>
                <link>
                  <linkclipref>clipitem-672</linkclipref>
                  <mediatype>audio</mediatype>
                  <trackindex>2</trackindex>
                  <clipindex>1</clipindex>
                  <groupindex>1</groupindex>
                </link>
              </clipitem>
            </track>
            <track>
              <clipitem id="clipitem-672" frameBlend="FALSE">
                <masterclipid>masterclip-220</masterclipid>
                <name>00443.MTS</name>
                <file id="file-220"/>
                <sourcetrack>
                  <mediatype>audio</mediatype>
                  <trackindex>2</trackindex>
                </sourcetrack>
                <link>
                  <linkclipref>clipitem-670</linkclipref>
                  <mediatype>video</mediatype>
                  <trackindex>1</trackindex>
                  <clipindex>1</clipindex>
                </link>
                <link>
                  <linkclipref>clipitem-671</linkclipref>
                  <mediatype>audio</mediatype>
                  <trackindex>1</trackindex>
                  <clipindex>1</clipindex>
                  <groupindex>1</groupindex>
                </link>
                <link>
                  <linkclipref>clipitem-672</linkclipref>
                  <mediatype>audio</mediatype>
                  <trackindex>2</trackindex>
                  <clipindex>1</clipindex>
                  <groupindex>1</groupindex>
                </link>
              </clipitem>
            </track>
          </audio>
        </media>
        <logginginfo>
          <description/>
          <scene/>
          <shottake/>
          <lognote/>
        </logginginfo>
      </clip>
      <clip id="masterclip-221" frameBlend="FALSE">
        <uuid>416bbd9c-732b-499b-b17e-bbb567f47533</uuid>
        <masterclipid>masterclip-221</masterclipid>
        <ismasterclip>TRUE</ismasterclip>
        <duration>49</duration>
        <rate>
          <timebase>24</timebase>
          <ntsc>TRUE</ntsc>
        </rate>
        <name>00444.MTS</name>
        <media>
          <video>
            <track>
              <clipitem id="clipitem-673" frameBlend="FALSE">
                <masterclipid>masterclip-221</masterclipid>
                <name>00444.MTS</name>
                <alphatype>black</alphatype>
                <pixelaspectratio>square</pixelaspectratio>
                <anamorphic>FALSE</anamorphic>
                <file id="file-221">
                  <name>00444.MTS</name>
                  <pathurl>file://localhost/Volumes/Macintosh%20HD/Users/jacksongs/Desktop/STREAM/00444.MTS</pathurl>
                  <rate>
                    <timebase>24</timebase>
                    <ntsc>TRUE</ntsc>
                  </rate>
                  <duration>49</duration>
                  <timecode>
                    <rate>
                      <timebase>24</timebase>
                      <ntsc>TRUE</ntsc>
                    </rate>
                    <string>00:00:00:00</string>
                    <frame>0</frame>
                    <displayformat>NDF</displayformat>
                    <reel>
                      <name/>
                    </reel>
                  </timecode>
                  <media>
                    <video>
                      <duration>18000</duration>
                      <samplecharacteristics>
                        <rate>
                          <timebase>24</timebase>
                          <ntsc>TRUE</ntsc>
                        </rate>
                        <width>1920</width>
                        <height>1080</height>
                        <anamorphic>FALSE</anamorphic>
                        <pixelaspectratio>square</pixelaspectratio>
                        <fielddominance>none</fielddominance>
                      </samplecharacteristics>
                    </video>
                    <audio>
                      <samplecharacteristics>
                        <depth>16</depth>
                        <samplerate>48000</samplerate>
                      </samplecharacteristics>
                      <channelcount>2</channelcount>
                    </audio>
                  </media>
                </file>
                <link>
                  <linkclipref>clipitem-673</linkclipref>
                  <mediatype>video</mediatype>
                  <trackindex>1</trackindex>
                  <clipindex>1</clipindex>
                </link>
                <link>
                  <linkclipref>clipitem-674</linkclipref>
                  <mediatype>audio</mediatype>
                  <trackindex>1</trackindex>
                  <clipindex>1</clipindex>
                  <groupindex>1</groupindex>
                </link>
                <link>
                  <linkclipref>clipitem-675</linkclipref>
                  <mediatype>audio</mediatype>
                  <trackindex>2</trackindex>
                  <clipindex>1</clipindex>
                  <groupindex>1</groupindex>
                </link>
              </clipitem>
            </track>
          </video>
          <audio>
            <track>
              <clipitem id="clipitem-674" frameBlend="FALSE">
                <masterclipid>masterclip-221</masterclipid>
                <name>00444.MTS</name>
                <file id="file-221"/>
                <sourcetrack>
                  <mediatype>audio</mediatype>
                  <trackindex>1</trackindex>
                </sourcetrack>
                <link>
                  <linkclipref>clipitem-673</linkclipref>
                  <mediatype>video</mediatype>
                  <trackindex>1</trackindex>
                  <clipindex>1</clipindex>
                </link>
                <link>
                  <linkclipref>clipitem-674</linkclipref>
                  <mediatype>audio</mediatype>
                  <trackindex>1</trackindex>
                  <clipindex>1</clipindex>
                  <groupindex>1</groupindex>
                </link>
                <link>
                  <linkclipref>clipitem-675</linkclipref>
                  <mediatype>audio</mediatype>
                  <trackindex>2</trackindex>
                  <clipindex>1</clipindex>
                  <groupindex>1</groupindex>
                </link>
              </clipitem>
            </track>
            <track>
              <clipitem id="clipitem-675" frameBlend="FALSE">
                <masterclipid>masterclip-221</masterclipid>
                <name>00444.MTS</name>
                <file id="file-221"/>
                <sourcetrack>
                  <mediatype>audio</mediatype>
                  <trackindex>2</trackindex>
                </sourcetrack>
                <link>
                  <linkclipref>clipitem-673</linkclipref>
                  <mediatype>video</mediatype>
                  <trackindex>1</trackindex>
                  <clipindex>1</clipindex>
                </link>
                <link>
                  <linkclipref>clipitem-674</linkclipref>
                  <mediatype>audio</mediatype>
                  <trackindex>1</trackindex>
                  <clipindex>1</clipindex>
                  <groupindex>1</groupindex>
                </link>
                <link>
                  <linkclipref>clipitem-675</linkclipref>
                  <mediatype>audio</mediatype>
                  <trackindex>2</trackindex>
                  <clipindex>1</clipindex>
                  <groupindex>1</groupindex>
                </link>
              </clipitem>
            </track>
          </audio>
        </media>
        <logginginfo>
          <description/>
          <scene/>
          <shottake/>
          <lognote/>
        </logginginfo>
      </clip>
      <clip id="masterclip-222" frameBlend="FALSE">
        <uuid>69093387-1c01-4813-b39f-849e9e67bf05</uuid>
        <masterclipid>masterclip-222</masterclipid>
        <ismasterclip>TRUE</ismasterclip>
        <duration>457</duration>
        <rate>
          <timebase>24</timebase>
          <ntsc>TRUE</ntsc>
        </rate>
        <name>00445.MTS</name>
        <media>
          <video>
            <track>
              <clipitem id="clipitem-676" frameBlend="FALSE">
                <masterclipid>masterclip-222</masterclipid>
                <name>00445.MTS</name>
                <alphatype>black</alphatype>
                <pixelaspectratio>square</pixelaspectratio>
                <anamorphic>FALSE</anamorphic>
                <file id="file-222">
                  <name>00445.MTS</name>
                  <pathurl>file://localhost/Volumes/Macintosh%20HD/Users/jacksongs/Desktop/STREAM/00445.MTS</pathurl>
                  <rate>
                    <timebase>24</timebase>
                    <ntsc>TRUE</ntsc>
                  </rate>
                  <duration>457</duration>
                  <timecode>
                    <rate>
                      <timebase>24</timebase>
                      <ntsc>TRUE</ntsc>
                    </rate>
                    <string>00:00:00:00</string>
                    <frame>0</frame>
                    <displayformat>NDF</displayformat>
                    <reel>
                      <name/>
                    </reel>
                  </timecode>
                  <media>
                    <video>
                      <duration>18000</duration>
                      <samplecharacteristics>
                        <rate>
                          <timebase>24</timebase>
                          <ntsc>TRUE</ntsc>
                        </rate>
                        <width>1920</width>
                        <height>1080</height>
                        <anamorphic>FALSE</anamorphic>
                        <pixelaspectratio>square</pixelaspectratio>
                        <fielddominance>none</fielddominance>
                      </samplecharacteristics>
                    </video>
                    <audio>
                      <samplecharacteristics>
                        <depth>16</depth>
                        <samplerate>48000</samplerate>
                      </samplecharacteristics>
                      <channelcount>2</channelcount>
                    </audio>
                  </media>
                </file>
                <link>
                  <linkclipref>clipitem-676</linkclipref>
                  <mediatype>video</mediatype>
                  <trackindex>1</trackindex>
                  <clipindex>1</clipindex>
                </link>
                <link>
                  <linkclipref>clipitem-677</linkclipref>
                  <mediatype>audio</mediatype>
                  <trackindex>1</trackindex>
                  <clipindex>1</clipindex>
                  <groupindex>1</groupindex>
                </link>
                <link>
                  <linkclipref>clipitem-678</linkclipref>
                  <mediatype>audio</mediatype>
                  <trackindex>2</trackindex>
                  <clipindex>1</clipindex>
                  <groupindex>1</groupindex>
                </link>
              </clipitem>
            </track>
          </video>
          <audio>
            <track>
              <clipitem id="clipitem-677" frameBlend="FALSE">
                <masterclipid>masterclip-222</masterclipid>
                <name>00445.MTS</name>
                <file id="file-222"/>
                <sourcetrack>
                  <mediatype>audio</mediatype>
                  <trackindex>1</trackindex>
                </sourcetrack>
                <link>
                  <linkclipref>clipitem-676</linkclipref>
                  <mediatype>video</mediatype>
                  <trackindex>1</trackindex>
                  <clipindex>1</clipindex>
                </link>
                <link>
                  <linkclipref>clipitem-677</linkclipref>
                  <mediatype>audio</mediatype>
                  <trackindex>1</trackindex>
                  <clipindex>1</clipindex>
                  <groupindex>1</groupindex>
                </link>
                <link>
                  <linkclipref>clipitem-678</linkclipref>
                  <mediatype>audio</mediatype>
                  <trackindex>2</trackindex>
                  <clipindex>1</clipindex>
                  <groupindex>1</groupindex>
                </link>
              </clipitem>
            </track>
            <track>
              <clipitem id="clipitem-678" frameBlend="FALSE">
                <masterclipid>masterclip-222</masterclipid>
                <name>00445.MTS</name>
                <file id="file-222"/>
                <sourcetrack>
                  <mediatype>audio</mediatype>
                  <trackindex>2</trackindex>
                </sourcetrack>
                <link>
                  <linkclipref>clipitem-676</linkclipref>
                  <mediatype>video</mediatype>
                  <trackindex>1</trackindex>
                  <clipindex>1</clipindex>
                </link>
                <link>
                  <linkclipref>clipitem-677</linkclipref>
                  <mediatype>audio</mediatype>
                  <trackindex>1</trackindex>
                  <clipindex>1</clipindex>
                  <groupindex>1</groupindex>
                </link>
                <link>
                  <linkclipref>clipitem-678</linkclipref>
                  <mediatype>audio</mediatype>
                  <trackindex>2</trackindex>
                  <clipindex>1</clipindex>
                  <groupindex>1</groupindex>
                </link>
              </clipitem>
            </track>
          </audio>
        </media>
        <logginginfo>
          <description/>
          <scene/>
          <shottake/>
          <lognote/>
        </logginginfo>
      </clip>
      <clip id="masterclip-223" frameBlend="FALSE">
        <uuid>34997c97-ae0f-498b-accf-2950ca1146e9</uuid>
        <masterclipid>masterclip-223</masterclipid>
        <ismasterclip>TRUE</ismasterclip>
        <duration>217</duration>
        <rate>
          <timebase>24</timebase>
          <ntsc>TRUE</ntsc>
        </rate>
        <name>00446.MTS</name>
        <media>
          <video>
            <track>
              <clipitem id="clipitem-679" frameBlend="FALSE">
                <masterclipid>masterclip-223</masterclipid>
                <name>00446.MTS</name>
                <alphatype>black</alphatype>
                <pixelaspectratio>square</pixelaspectratio>
                <anamorphic>FALSE</anamorphic>
                <file id="file-223">
                  <name>00446.MTS</name>
                  <pathurl>file://localhost/Volumes/Macintosh%20HD/Users/jacksongs/Desktop/STREAM/00446.MTS</pathurl>
                  <rate>
                    <timebase>24</timebase>
                    <ntsc>TRUE</ntsc>
                  </rate>
                  <duration>217</duration>
                  <timecode>
                    <rate>
                      <timebase>24</timebase>
                      <ntsc>TRUE</ntsc>
                    </rate>
                    <string>00:00:00:00</string>
                    <frame>0</frame>
                    <displayformat>NDF</displayformat>
                    <reel>
                      <name/>
                    </reel>
                  </timecode>
                  <media>
                    <video>
                      <duration>18000</duration>
                      <samplecharacteristics>
                        <rate>
                          <timebase>24</timebase>
                          <ntsc>TRUE</ntsc>
                        </rate>
                        <width>1920</width>
                        <height>1080</height>
                        <anamorphic>FALSE</anamorphic>
                        <pixelaspectratio>square</pixelaspectratio>
                        <fielddominance>none</fielddominance>
                      </samplecharacteristics>
                    </video>
                    <audio>
                      <samplecharacteristics>
                        <depth>16</depth>
                        <samplerate>48000</samplerate>
                      </samplecharacteristics>
                      <channelcount>2</channelcount>
                    </audio>
                  </media>
                </file>
                <link>
                  <linkclipref>clipitem-679</linkclipref>
                  <mediatype>video</mediatype>
                  <trackindex>1</trackindex>
                  <clipindex>1</clipindex>
                </link>
                <link>
                  <linkclipref>clipitem-680</linkclipref>
                  <mediatype>audio</mediatype>
                  <trackindex>1</trackindex>
                  <clipindex>1</clipindex>
                  <groupindex>1</groupindex>
                </link>
                <link>
                  <linkclipref>clipitem-681</linkclipref>
                  <mediatype>audio</mediatype>
                  <trackindex>2</trackindex>
                  <clipindex>1</clipindex>
                  <groupindex>1</groupindex>
                </link>
              </clipitem>
            </track>
          </video>
          <audio>
            <track>
              <clipitem id="clipitem-680" frameBlend="FALSE">
                <masterclipid>masterclip-223</masterclipid>
                <name>00446.MTS</name>
                <file id="file-223"/>
                <sourcetrack>
                  <mediatype>audio</mediatype>
                  <trackindex>1</trackindex>
                </sourcetrack>
                <link>
                  <linkclipref>clipitem-679</linkclipref>
                  <mediatype>video</mediatype>
                  <trackindex>1</trackindex>
                  <clipindex>1</clipindex>
                </link>
                <link>
                  <linkclipref>clipitem-680</linkclipref>
                  <mediatype>audio</mediatype>
                  <trackindex>1</trackindex>
                  <clipindex>1</clipindex>
                  <groupindex>1</groupindex>
                </link>
                <link>
                  <linkclipref>clipitem-681</linkclipref>
                  <mediatype>audio</mediatype>
                  <trackindex>2</trackindex>
                  <clipindex>1</clipindex>
                  <groupindex>1</groupindex>
                </link>
              </clipitem>
            </track>
            <track>
              <clipitem id="clipitem-681" frameBlend="FALSE">
                <masterclipid>masterclip-223</masterclipid>
                <name>00446.MTS</name>
                <file id="file-223"/>
                <sourcetrack>
                  <mediatype>audio</mediatype>
                  <trackindex>2</trackindex>
                </sourcetrack>
                <link>
                  <linkclipref>clipitem-679</linkclipref>
                  <mediatype>video</mediatype>
                  <trackindex>1</trackindex>
                  <clipindex>1</clipindex>
                </link>
                <link>
                  <linkclipref>clipitem-680</linkclipref>
                  <mediatype>audio</mediatype>
                  <trackindex>1</trackindex>
                  <clipindex>1</clipindex>
                  <groupindex>1</groupindex>
                </link>
                <link>
                  <linkclipref>clipitem-681</linkclipref>
                  <mediatype>audio</mediatype>
                  <trackindex>2</trackindex>
                  <clipindex>1</clipindex>
                  <groupindex>1</groupindex>
                </link>
              </clipitem>
            </track>
          </audio>
        </media>
        <logginginfo>
          <description/>
          <scene/>
          <shottake/>
          <lognote/>
        </logginginfo>
      </clip>
      <clip id="masterclip-224" frameBlend="FALSE">
        <uuid>ee667559-5a8a-4935-89b4-817e0b269c5a</uuid>
        <masterclipid>masterclip-224</masterclipid>
        <ismasterclip>TRUE</ismasterclip>
        <duration>913</duration>
        <rate>
          <timebase>24</timebase>
          <ntsc>TRUE</ntsc>
        </rate>
        <name>00447.MTS</name>
        <media>
          <video>
            <track>
              <clipitem id="clipitem-682" frameBlend="FALSE">
                <masterclipid>masterclip-224</masterclipid>
                <name>00447.MTS</name>
                <alphatype>black</alphatype>
                <pixelaspectratio>square</pixelaspectratio>
                <anamorphic>FALSE</anamorphic>
                <file id="file-224">
                  <name>00447.MTS</name>
                  <pathurl>file://localhost/Volumes/Macintosh%20HD/Users/jacksongs/Desktop/STREAM/00447.MTS</pathurl>
                  <rate>
                    <timebase>24</timebase>
                    <ntsc>TRUE</ntsc>
                  </rate>
                  <duration>913</duration>
                  <timecode>
                    <rate>
                      <timebase>24</timebase>
                      <ntsc>TRUE</ntsc>
                    </rate>
                    <string>00:00:00:00</string>
                    <frame>0</frame>
                    <displayformat>NDF</displayformat>
                    <reel>
                      <name/>
                    </reel>
                  </timecode>
                  <media>
                    <video>
                      <duration>18000</duration>
                      <samplecharacteristics>
                        <rate>
                          <timebase>24</timebase>
                          <ntsc>TRUE</ntsc>
                        </rate>
                        <width>1920</width>
                        <height>1080</height>
                        <anamorphic>FALSE</anamorphic>
                        <pixelaspectratio>square</pixelaspectratio>
                        <fielddominance>none</fielddominance>
                      </samplecharacteristics>
                    </video>
                    <audio>
                      <samplecharacteristics>
                        <depth>16</depth>
                        <samplerate>48000</samplerate>
                      </samplecharacteristics>
                      <channelcount>2</channelcount>
                    </audio>
                  </media>
                </file>
                <link>
                  <linkclipref>clipitem-682</linkclipref>
                  <mediatype>video</mediatype>
                  <trackindex>1</trackindex>
                  <clipindex>1</clipindex>
                </link>
                <link>
                  <linkclipref>clipitem-683</linkclipref>
                  <mediatype>audio</mediatype>
                  <trackindex>1</trackindex>
                  <clipindex>1</clipindex>
                  <groupindex>1</groupindex>
                </link>
                <link>
                  <linkclipref>clipitem-684</linkclipref>
                  <mediatype>audio</mediatype>
                  <trackindex>2</trackindex>
                  <clipindex>1</clipindex>
                  <groupindex>1</groupindex>
                </link>
              </clipitem>
            </track>
          </video>
          <audio>
            <track>
              <clipitem id="clipitem-683" frameBlend="FALSE">
                <masterclipid>masterclip-224</masterclipid>
                <name>00447.MTS</name>
                <file id="file-224"/>
                <sourcetrack>
                  <mediatype>audio</mediatype>
                  <trackindex>1</trackindex>
                </sourcetrack>
                <link>
                  <linkclipref>clipitem-682</linkclipref>
                  <mediatype>video</mediatype>
                  <trackindex>1</trackindex>
                  <clipindex>1</clipindex>
                </link>
                <link>
                  <linkclipref>clipitem-683</linkclipref>
                  <mediatype>audio</mediatype>
                  <trackindex>1</trackindex>
                  <clipindex>1</clipindex>
                  <groupindex>1</groupindex>
                </link>
                <link>
                  <linkclipref>clipitem-684</linkclipref>
                  <mediatype>audio</mediatype>
                  <trackindex>2</trackindex>
                  <clipindex>1</clipindex>
                  <groupindex>1</groupindex>
                </link>
              </clipitem>
            </track>
            <track>
              <clipitem id="clipitem-684" frameBlend="FALSE">
                <masterclipid>masterclip-224</masterclipid>
                <name>00447.MTS</name>
                <file id="file-224"/>
                <sourcetrack>
                  <mediatype>audio</mediatype>
                  <trackindex>2</trackindex>
                </sourcetrack>
                <link>
                  <linkclipref>clipitem-682</linkclipref>
                  <mediatype>video</mediatype>
                  <trackindex>1</trackindex>
                  <clipindex>1</clipindex>
                </link>
                <link>
                  <linkclipref>clipitem-683</linkclipref>
                  <mediatype>audio</mediatype>
                  <trackindex>1</trackindex>
                  <clipindex>1</clipindex>
                  <groupindex>1</groupindex>
                </link>
                <link>
                  <linkclipref>clipitem-684</linkclipref>
                  <mediatype>audio</mediatype>
                  <trackindex>2</trackindex>
                  <clipindex>1</clipindex>
                  <groupindex>1</groupindex>
                </link>
              </clipitem>
            </track>
          </audio>
        </media>
        <logginginfo>
          <description/>
          <scene/>
          <shottake/>
          <lognote/>
        </logginginfo>
      </clip>
      <clip id="masterclip-225" frameBlend="FALSE">
        <uuid>8bb42fa4-8f72-4d04-8ea5-36b99762c570</uuid>
        <masterclipid>masterclip-225</masterclipid>
        <ismasterclip>TRUE</ismasterclip>
        <duration>349</duration>
        <rate>
          <timebase>24</timebase>
          <ntsc>TRUE</ntsc>
        </rate>
        <name>00448.MTS</name>
        <media>
          <video>
            <track>
              <clipitem id="clipitem-685" frameBlend="FALSE">
                <masterclipid>masterclip-225</masterclipid>
                <name>00448.MTS</name>
                <alphatype>black</alphatype>
                <pixelaspectratio>square</pixelaspectratio>
                <anamorphic>FALSE</anamorphic>
                <file id="file-225">
                  <name>00448.MTS</name>
                  <pathurl>file://localhost/Volumes/Macintosh%20HD/Users/jacksongs/Desktop/STREAM/00448.MTS</pathurl>
                  <rate>
                    <timebase>24</timebase>
                    <ntsc>TRUE</ntsc>
                  </rate>
                  <duration>349</duration>
                  <timecode>
                    <rate>
                      <timebase>24</timebase>
                      <ntsc>TRUE</ntsc>
                    </rate>
                    <string>00:00:00:00</string>
                    <frame>0</frame>
                    <displayformat>NDF</displayformat>
                    <reel>
                      <name/>
                    </reel>
                  </timecode>
                  <media>
                    <video>
                      <duration>18000</duration>
                      <samplecharacteristics>
                        <rate>
                          <timebase>24</timebase>
                          <ntsc>TRUE</ntsc>
                        </rate>
                        <width>1920</width>
                        <height>1080</height>
                        <anamorphic>FALSE</anamorphic>
                        <pixelaspectratio>square</pixelaspectratio>
                        <fielddominance>none</fielddominance>
                      </samplecharacteristics>
                    </video>
                    <audio>
                      <samplecharacteristics>
                        <depth>16</depth>
                        <samplerate>48000</samplerate>
                      </samplecharacteristics>
                      <channelcount>2</channelcount>
                    </audio>
                  </media>
                </file>
                <link>
                  <linkclipref>clipitem-685</linkclipref>
                  <mediatype>video</mediatype>
                  <trackindex>1</trackindex>
                  <clipindex>1</clipindex>
                </link>
                <link>
                  <linkclipref>clipitem-686</linkclipref>
                  <mediatype>audio</mediatype>
                  <trackindex>1</trackindex>
                  <clipindex>1</clipindex>
                  <groupindex>1</groupindex>
                </link>
                <link>
                  <linkclipref>clipitem-687</linkclipref>
                  <mediatype>audio</mediatype>
                  <trackindex>2</trackindex>
                  <clipindex>1</clipindex>
                  <groupindex>1</groupindex>
                </link>
              </clipitem>
            </track>
          </video>
          <audio>
            <track>
              <clipitem id="clipitem-686" frameBlend="FALSE">
                <masterclipid>masterclip-225</masterclipid>
                <name>00448.MTS</name>
                <file id="file-225"/>
                <sourcetrack>
                  <mediatype>audio</mediatype>
                  <trackindex>1</trackindex>
                </sourcetrack>
                <link>
                  <linkclipref>clipitem-685</linkclipref>
                  <mediatype>video</mediatype>
                  <trackindex>1</trackindex>
                  <clipindex>1</clipindex>
                </link>
                <link>
                  <linkclipref>clipitem-686</linkclipref>
                  <mediatype>audio</mediatype>
                  <trackindex>1</trackindex>
                  <clipindex>1</clipindex>
                  <groupindex>1</groupindex>
                </link>
                <link>
                  <linkclipref>clipitem-687</linkclipref>
                  <mediatype>audio</mediatype>
                  <trackindex>2</trackindex>
                  <clipindex>1</clipindex>
                  <groupindex>1</groupindex>
                </link>
              </clipitem>
            </track>
            <track>
              <clipitem id="clipitem-687" frameBlend="FALSE">
                <masterclipid>masterclip-225</masterclipid>
                <name>00448.MTS</name>
                <file id="file-225"/>
                <sourcetrack>
                  <mediatype>audio</mediatype>
                  <trackindex>2</trackindex>
                </sourcetrack>
                <link>
                  <linkclipref>clipitem-685</linkclipref>
                  <mediatype>video</mediatype>
                  <trackindex>1</trackindex>
                  <clipindex>1</clipindex>
                </link>
                <link>
                  <linkclipref>clipitem-686</linkclipref>
                  <mediatype>audio</mediatype>
                  <trackindex>1</trackindex>
                  <clipindex>1</clipindex>
                  <groupindex>1</groupindex>
                </link>
                <link>
                  <linkclipref>clipitem-687</linkclipref>
                  <mediatype>audio</mediatype>
                  <trackindex>2</trackindex>
                  <clipindex>1</clipindex>
                  <groupindex>1</groupindex>
                </link>
              </clipitem>
            </track>
          </audio>
        </media>
        <logginginfo>
          <description/>
          <scene/>
          <shottake/>
          <lognote/>
        </logginginfo>
      </clip>
      <clip id="masterclip-226" frameBlend="FALSE">
        <uuid>4adffb2d-29fd-477a-a198-7f5b6e8dfa2e</uuid>
        <masterclipid>masterclip-226</masterclipid>
        <ismasterclip>TRUE</ismasterclip>
        <duration>277</duration>
        <rate>
          <timebase>24</timebase>
          <ntsc>TRUE</ntsc>
        </rate>
        <name>00449.MTS</name>
        <media>
          <video>
            <track>
              <clipitem id="clipitem-688" frameBlend="FALSE">
                <masterclipid>masterclip-226</masterclipid>
                <name>00449.MTS</name>
                <alphatype>black</alphatype>
                <pixelaspectratio>square</pixelaspectratio>
                <anamorphic>FALSE</anamorphic>
                <file id="file-226">
                  <name>00449.MTS</name>
                  <pathurl>file://localhost/Volumes/Macintosh%20HD/Users/jacksongs/Desktop/STREAM/00449.MTS</pathurl>
                  <rate>
                    <timebase>24</timebase>
                    <ntsc>TRUE</ntsc>
                  </rate>
                  <duration>277</duration>
                  <timecode>
                    <rate>
                      <timebase>24</timebase>
                      <ntsc>TRUE</ntsc>
                    </rate>
                    <string>00:00:00:00</string>
                    <frame>0</frame>
                    <displayformat>NDF</displayformat>
                    <reel>
                      <name/>
                    </reel>
                  </timecode>
                  <media>
                    <video>
                      <duration>18000</duration>
                      <samplecharacteristics>
                        <rate>
                          <timebase>24</timebase>
                          <ntsc>TRUE</ntsc>
                        </rate>
                        <width>1920</width>
                        <height>1080</height>
                        <anamorphic>FALSE</anamorphic>
                        <pixelaspectratio>square</pixelaspectratio>
                        <fielddominance>none</fielddominance>
                      </samplecharacteristics>
                    </video>
                    <audio>
                      <samplecharacteristics>
                        <depth>16</depth>
                        <samplerate>48000</samplerate>
                      </samplecharacteristics>
                      <channelcount>2</channelcount>
                    </audio>
                  </media>
                </file>
                <link>
                  <linkclipref>clipitem-688</linkclipref>
                  <mediatype>video</mediatype>
                  <trackindex>1</trackindex>
                  <clipindex>1</clipindex>
                </link>
                <link>
                  <linkclipref>clipitem-689</linkclipref>
                  <mediatype>audio</mediatype>
                  <trackindex>1</trackindex>
                  <clipindex>1</clipindex>
                  <groupindex>1</groupindex>
                </link>
                <link>
                  <linkclipref>clipitem-690</linkclipref>
                  <mediatype>audio</mediatype>
                  <trackindex>2</trackindex>
                  <clipindex>1</clipindex>
                  <groupindex>1</groupindex>
                </link>
              </clipitem>
            </track>
          </video>
          <audio>
            <track>
              <clipitem id="clipitem-689" frameBlend="FALSE">
                <masterclipid>masterclip-226</masterclipid>
                <name>00449.MTS</name>
                <file id="file-226"/>
                <sourcetrack>
                  <mediatype>audio</mediatype>
                  <trackindex>1</trackindex>
                </sourcetrack>
                <link>
                  <linkclipref>clipitem-688</linkclipref>
                  <mediatype>video</mediatype>
                  <trackindex>1</trackindex>
                  <clipindex>1</clipindex>
                </link>
                <link>
                  <linkclipref>clipitem-689</linkclipref>
                  <mediatype>audio</mediatype>
                  <trackindex>1</trackindex>
                  <clipindex>1</clipindex>
                  <groupindex>1</groupindex>
                </link>
                <link>
                  <linkclipref>clipitem-690</linkclipref>
                  <mediatype>audio</mediatype>
                  <trackindex>2</trackindex>
                  <clipindex>1</clipindex>
                  <groupindex>1</groupindex>
                </link>
              </clipitem>
            </track>
            <track>
              <clipitem id="clipitem-690" frameBlend="FALSE">
                <masterclipid>masterclip-226</masterclipid>
                <name>00449.MTS</name>
                <file id="file-226"/>
                <sourcetrack>
                  <mediatype>audio</mediatype>
                  <trackindex>2</trackindex>
                </sourcetrack>
                <link>
                  <linkclipref>clipitem-688</linkclipref>
                  <mediatype>video</mediatype>
                  <trackindex>1</trackindex>
                  <clipindex>1</clipindex>
                </link>
                <link>
                  <linkclipref>clipitem-689</linkclipref>
                  <mediatype>audio</mediatype>
                  <trackindex>1</trackindex>
                  <clipindex>1</clipindex>
                  <groupindex>1</groupindex>
                </link>
                <link>
                  <linkclipref>clipitem-690</linkclipref>
                  <mediatype>audio</mediatype>
                  <trackindex>2</trackindex>
                  <clipindex>1</clipindex>
                  <groupindex>1</groupindex>
                </link>
              </clipitem>
            </track>
          </audio>
        </media>
        <logginginfo>
          <description/>
          <scene/>
          <shottake/>
          <lognote/>
        </logginginfo>
      </clip>
      <clip id="masterclip-227" frameBlend="FALSE">
        <uuid>883e4800-1439-4ccc-9247-dea244aa7bc0</uuid>
        <masterclipid>masterclip-227</masterclipid>
        <ismasterclip>TRUE</ismasterclip>
        <duration>217</duration>
        <rate>
          <timebase>24</timebase>
          <ntsc>TRUE</ntsc>
        </rate>
        <name>00450.MTS</name>
        <media>
          <video>
            <track>
              <clipitem id="clipitem-691" frameBlend="FALSE">
                <masterclipid>masterclip-227</masterclipid>
                <name>00450.MTS</name>
                <alphatype>black</alphatype>
                <pixelaspectratio>square</pixelaspectratio>
                <anamorphic>FALSE</anamorphic>
                <file id="file-227">
                  <name>00450.MTS</name>
                  <pathurl>file://localhost/Volumes/Macintosh%20HD/Users/jacksongs/Desktop/STREAM/00450.MTS</pathurl>
                  <rate>
                    <timebase>24</timebase>
                    <ntsc>TRUE</ntsc>
                  </rate>
                  <duration>217</duration>
                  <timecode>
                    <rate>
                      <timebase>24</timebase>
                      <ntsc>TRUE</ntsc>
                    </rate>
                    <string>00:00:00:00</string>
                    <frame>0</frame>
                    <displayformat>NDF</displayformat>
                    <reel>
                      <name/>
                    </reel>
                  </timecode>
                  <media>
                    <video>
                      <duration>18000</duration>
                      <samplecharacteristics>
                        <rate>
                          <timebase>24</timebase>
                          <ntsc>TRUE</ntsc>
                        </rate>
                        <width>1920</width>
                        <height>1080</height>
                        <anamorphic>FALSE</anamorphic>
                        <pixelaspectratio>square</pixelaspectratio>
                        <fielddominance>none</fielddominance>
                      </samplecharacteristics>
                    </video>
                    <audio>
                      <samplecharacteristics>
                        <depth>16</depth>
                        <samplerate>48000</samplerate>
                      </samplecharacteristics>
                      <channelcount>2</channelcount>
                    </audio>
                  </media>
                </file>
                <link>
                  <linkclipref>clipitem-691</linkclipref>
                  <mediatype>video</mediatype>
                  <trackindex>1</trackindex>
                  <clipindex>1</clipindex>
                </link>
                <link>
                  <linkclipref>clipitem-692</linkclipref>
                  <mediatype>audio</mediatype>
                  <trackindex>1</trackindex>
                  <clipindex>1</clipindex>
                  <groupindex>1</groupindex>
                </link>
                <link>
                  <linkclipref>clipitem-693</linkclipref>
                  <mediatype>audio</mediatype>
                  <trackindex>2</trackindex>
                  <clipindex>1</clipindex>
                  <groupindex>1</groupindex>
                </link>
              </clipitem>
            </track>
          </video>
          <audio>
            <track>
              <clipitem id="clipitem-692" frameBlend="FALSE">
                <masterclipid>masterclip-227</masterclipid>
                <name>00450.MTS</name>
                <file id="file-227"/>
                <sourcetrack>
                  <mediatype>audio</mediatype>
                  <trackindex>1</trackindex>
                </sourcetrack>
                <link>
                  <linkclipref>clipitem-691</linkclipref>
                  <mediatype>video</mediatype>
                  <trackindex>1</trackindex>
                  <clipindex>1</clipindex>
                </link>
                <link>
                  <linkclipref>clipitem-692</linkclipref>
                  <mediatype>audio</mediatype>
                  <trackindex>1</trackindex>
                  <clipindex>1</clipindex>
                  <groupindex>1</groupindex>
                </link>
                <link>
                  <linkclipref>clipitem-693</linkclipref>
                  <mediatype>audio</mediatype>
                  <trackindex>2</trackindex>
                  <clipindex>1</clipindex>
                  <groupindex>1</groupindex>
                </link>
              </clipitem>
            </track>
            <track>
              <clipitem id="clipitem-693" frameBlend="FALSE">
                <masterclipid>masterclip-227</masterclipid>
                <name>00450.MTS</name>
                <file id="file-227"/>
                <sourcetrack>
                  <mediatype>audio</mediatype>
                  <trackindex>2</trackindex>
                </sourcetrack>
                <link>
                  <linkclipref>clipitem-691</linkclipref>
                  <mediatype>video</mediatype>
                  <trackindex>1</trackindex>
                  <clipindex>1</clipindex>
                </link>
                <link>
                  <linkclipref>clipitem-692</linkclipref>
                  <mediatype>audio</mediatype>
                  <trackindex>1</trackindex>
                  <clipindex>1</clipindex>
                  <groupindex>1</groupindex>
                </link>
                <link>
                  <linkclipref>clipitem-693</linkclipref>
                  <mediatype>audio</mediatype>
                  <trackindex>2</trackindex>
                  <clipindex>1</clipindex>
                  <groupindex>1</groupindex>
                </link>
              </clipitem>
            </track>
          </audio>
        </media>
        <logginginfo>
          <description/>
          <scene/>
          <shottake/>
          <lognote/>
        </logginginfo>
      </clip>
      <clip id="masterclip-228" frameBlend="FALSE">
        <uuid>34037679-1a07-45c4-b406-43b6f0010705</uuid>
        <masterclipid>masterclip-228</masterclipid>
        <ismasterclip>TRUE</ismasterclip>
        <duration>241</duration>
        <rate>
          <timebase>24</timebase>
          <ntsc>TRUE</ntsc>
        </rate>
        <name>00451.MTS</name>
        <media>
          <video>
            <track>
              <clipitem id="clipitem-694" frameBlend="FALSE">
                <masterclipid>masterclip-228</masterclipid>
                <name>00451.MTS</name>
                <alphatype>black</alphatype>
                <pixelaspectratio>square</pixelaspectratio>
                <anamorphic>FALSE</anamorphic>
                <file id="file-228">
                  <name>00451.MTS</name>
                  <pathurl>file://localhost/Volumes/Macintosh%20HD/Users/jacksongs/Desktop/STREAM/00451.MTS</pathurl>
                  <rate>
                    <timebase>24</timebase>
                    <ntsc>TRUE</ntsc>
                  </rate>
                  <duration>241</duration>
                  <timecode>
                    <rate>
                      <timebase>24</timebase>
                      <ntsc>TRUE</ntsc>
                    </rate>
                    <string>00:00:00:00</string>
                    <frame>0</frame>
                    <displayformat>NDF</displayformat>
                    <reel>
                      <name/>
                    </reel>
                  </timecode>
                  <media>
                    <video>
                      <duration>18000</duration>
                      <samplecharacteristics>
                        <rate>
                          <timebase>24</timebase>
                          <ntsc>TRUE</ntsc>
                        </rate>
                        <width>1920</width>
                        <height>1080</height>
                        <anamorphic>FALSE</anamorphic>
                        <pixelaspectratio>square</pixelaspectratio>
                        <fielddominance>none</fielddominance>
                      </samplecharacteristics>
                    </video>
                    <audio>
                      <samplecharacteristics>
                        <depth>16</depth>
                        <samplerate>48000</samplerate>
                      </samplecharacteristics>
                      <channelcount>2</channelcount>
                    </audio>
                  </media>
                </file>
                <link>
                  <linkclipref>clipitem-694</linkclipref>
                  <mediatype>video</mediatype>
                  <trackindex>1</trackindex>
                  <clipindex>1</clipindex>
                </link>
                <link>
                  <linkclipref>clipitem-695</linkclipref>
                  <mediatype>audio</mediatype>
                  <trackindex>1</trackindex>
                  <clipindex>1</clipindex>
                  <groupindex>1</groupindex>
                </link>
                <link>
                  <linkclipref>clipitem-696</linkclipref>
                  <mediatype>audio</mediatype>
                  <trackindex>2</trackindex>
                  <clipindex>1</clipindex>
                  <groupindex>1</groupindex>
                </link>
              </clipitem>
            </track>
          </video>
          <audio>
            <track>
              <clipitem id="clipitem-695" frameBlend="FALSE">
                <masterclipid>masterclip-228</masterclipid>
                <name>00451.MTS</name>
                <file id="file-228"/>
                <sourcetrack>
                  <mediatype>audio</mediatype>
                  <trackindex>1</trackindex>
                </sourcetrack>
                <link>
                  <linkclipref>clipitem-694</linkclipref>
                  <mediatype>video</mediatype>
                  <trackindex>1</trackindex>
                  <clipindex>1</clipindex>
                </link>
                <link>
                  <linkclipref>clipitem-695</linkclipref>
                  <mediatype>audio</mediatype>
                  <trackindex>1</trackindex>
                  <clipindex>1</clipindex>
                  <groupindex>1</groupindex>
                </link>
                <link>
                  <linkclipref>clipitem-696</linkclipref>
                  <mediatype>audio</mediatype>
                  <trackindex>2</trackindex>
                  <clipindex>1</clipindex>
                  <groupindex>1</groupindex>
                </link>
              </clipitem>
            </track>
            <track>
              <clipitem id="clipitem-696" frameBlend="FALSE">
                <masterclipid>masterclip-228</masterclipid>
                <name>00451.MTS</name>
                <file id="file-228"/>
                <sourcetrack>
                  <mediatype>audio</mediatype>
                  <trackindex>2</trackindex>
                </sourcetrack>
                <link>
                  <linkclipref>clipitem-694</linkclipref>
                  <mediatype>video</mediatype>
                  <trackindex>1</trackindex>
                  <clipindex>1</clipindex>
                </link>
                <link>
                  <linkclipref>clipitem-695</linkclipref>
                  <mediatype>audio</mediatype>
                  <trackindex>1</trackindex>
                  <clipindex>1</clipindex>
                  <groupindex>1</groupindex>
                </link>
                <link>
                  <linkclipref>clipitem-696</linkclipref>
                  <mediatype>audio</mediatype>
                  <trackindex>2</trackindex>
                  <clipindex>1</clipindex>
                  <groupindex>1</groupindex>
                </link>
              </clipitem>
            </track>
          </audio>
        </media>
        <logginginfo>
          <description/>
          <scene/>
          <shottake/>
          <lognote/>
        </logginginfo>
      </clip>
      <clip id="masterclip-229" frameBlend="FALSE">
        <uuid>91f3efe0-e017-49f4-b9c4-8896e36c749f</uuid>
        <masterclipid>masterclip-229</masterclipid>
        <ismasterclip>TRUE</ismasterclip>
        <duration>217</duration>
        <rate>
          <timebase>24</timebase>
          <ntsc>TRUE</ntsc>
        </rate>
        <name>00452.MTS</name>
        <media>
          <video>
            <track>
              <clipitem id="clipitem-697" frameBlend="FALSE">
                <masterclipid>masterclip-229</masterclipid>
                <name>00452.MTS</name>
                <alphatype>black</alphatype>
                <pixelaspectratio>square</pixelaspectratio>
                <anamorphic>FALSE</anamorphic>
                <file id="file-229">
                  <name>00452.MTS</name>
                  <pathurl>file://localhost/Volumes/Macintosh%20HD/Users/jacksongs/Desktop/STREAM/00452.MTS</pathurl>
                  <rate>
                    <timebase>24</timebase>
                    <ntsc>TRUE</ntsc>
                  </rate>
                  <duration>217</duration>
                  <timecode>
                    <rate>
                      <timebase>24</timebase>
                      <ntsc>TRUE</ntsc>
                    </rate>
                    <string>00:00:00:00</string>
                    <frame>0</frame>
                    <displayformat>NDF</displayformat>
                    <reel>
                      <name/>
                    </reel>
                  </timecode>
                  <media>
                    <video>
                      <duration>18000</duration>
                      <samplecharacteristics>
                        <rate>
                          <timebase>24</timebase>
                          <ntsc>TRUE</ntsc>
                        </rate>
                        <width>1920</width>
                        <height>1080</height>
                        <anamorphic>FALSE</anamorphic>
                        <pixelaspectratio>square</pixelaspectratio>
                        <fielddominance>none</fielddominance>
                      </samplecharacteristics>
                    </video>
                    <audio>
                      <samplecharacteristics>
                        <depth>16</depth>
                        <samplerate>48000</samplerate>
                      </samplecharacteristics>
                      <channelcount>2</channelcount>
                    </audio>
                  </media>
                </file>
                <link>
                  <linkclipref>clipitem-697</linkclipref>
                  <mediatype>video</mediatype>
                  <trackindex>1</trackindex>
                  <clipindex>1</clipindex>
                </link>
                <link>
                  <linkclipref>clipitem-698</linkclipref>
                  <mediatype>audio</mediatype>
                  <trackindex>1</trackindex>
                  <clipindex>1</clipindex>
                  <groupindex>1</groupindex>
                </link>
                <link>
                  <linkclipref>clipitem-699</linkclipref>
                  <mediatype>audio</mediatype>
                  <trackindex>2</trackindex>
                  <clipindex>1</clipindex>
                  <groupindex>1</groupindex>
                </link>
              </clipitem>
            </track>
          </video>
          <audio>
            <track>
              <clipitem id="clipitem-698" frameBlend="FALSE">
                <masterclipid>masterclip-229</masterclipid>
                <name>00452.MTS</name>
                <file id="file-229"/>
                <sourcetrack>
                  <mediatype>audio</mediatype>
                  <trackindex>1</trackindex>
                </sourcetrack>
                <link>
                  <linkclipref>clipitem-697</linkclipref>
                  <mediatype>video</mediatype>
                  <trackindex>1</trackindex>
                  <clipindex>1</clipindex>
                </link>
                <link>
                  <linkclipref>clipitem-698</linkclipref>
                  <mediatype>audio</mediatype>
                  <trackindex>1</trackindex>
                  <clipindex>1</clipindex>
                  <groupindex>1</groupindex>
                </link>
                <link>
                  <linkclipref>clipitem-699</linkclipref>
                  <mediatype>audio</mediatype>
                  <trackindex>2</trackindex>
                  <clipindex>1</clipindex>
                  <groupindex>1</groupindex>
                </link>
              </clipitem>
            </track>
            <track>
              <clipitem id="clipitem-699" frameBlend="FALSE">
                <masterclipid>masterclip-229</masterclipid>
                <name>00452.MTS</name>
                <file id="file-229"/>
                <sourcetrack>
                  <mediatype>audio</mediatype>
                  <trackindex>2</trackindex>
                </sourcetrack>
                <link>
                  <linkclipref>clipitem-697</linkclipref>
                  <mediatype>video</mediatype>
                  <trackindex>1</trackindex>
                  <clipindex>1</clipindex>
                </link>
                <link>
                  <linkclipref>clipitem-698</linkclipref>
                  <mediatype>audio</mediatype>
                  <trackindex>1</trackindex>
                  <clipindex>1</clipindex>
                  <groupindex>1</groupindex>
                </link>
                <link>
                  <linkclipref>clipitem-699</linkclipref>
                  <mediatype>audio</mediatype>
                  <trackindex>2</trackindex>
                  <clipindex>1</clipindex>
                  <groupindex>1</groupindex>
                </link>
              </clipitem>
            </track>
          </audio>
        </media>
        <logginginfo>
          <description/>
          <scene/>
          <shottake/>
          <lognote/>
        </logginginfo>
      </clip>
      <clip id="masterclip-230" frameBlend="FALSE">
        <uuid>15702f0f-cdb8-4bcb-a253-f2d82147941f</uuid>
        <masterclipid>masterclip-230</masterclipid>
        <ismasterclip>TRUE</ismasterclip>
        <duration>157</duration>
        <rate>
          <timebase>24</timebase>
          <ntsc>TRUE</ntsc>
        </rate>
        <name>00453.MTS</name>
        <media>
          <video>
            <track>
              <clipitem id="clipitem-700" frameBlend="FALSE">
                <masterclipid>masterclip-230</masterclipid>
                <name>00453.MTS</name>
                <alphatype>black</alphatype>
                <pixelaspectratio>square</pixelaspectratio>
                <anamorphic>FALSE</anamorphic>
                <file id="file-230">
                  <name>00453.MTS</name>
                  <pathurl>file://localhost/Volumes/Macintosh%20HD/Users/jacksongs/Desktop/STREAM/00453.MTS</pathurl>
                  <rate>
                    <timebase>24</timebase>
                    <ntsc>TRUE</ntsc>
                  </rate>
                  <duration>157</duration>
                  <timecode>
                    <rate>
                      <timebase>24</timebase>
                      <ntsc>TRUE</ntsc>
                    </rate>
                    <string>00:00:00:00</string>
                    <frame>0</frame>
                    <displayformat>NDF</displayformat>
                    <reel>
                      <name/>
                    </reel>
                  </timecode>
                  <media>
                    <video>
                      <duration>18000</duration>
                      <samplecharacteristics>
                        <rate>
                          <timebase>24</timebase>
                          <ntsc>TRUE</ntsc>
                        </rate>
                        <width>1920</width>
                        <height>1080</height>
                        <anamorphic>FALSE</anamorphic>
                        <pixelaspectratio>square</pixelaspectratio>
                        <fielddominance>none</fielddominance>
                      </samplecharacteristics>
                    </video>
                    <audio>
                      <samplecharacteristics>
                        <depth>16</depth>
                        <samplerate>48000</samplerate>
                      </samplecharacteristics>
                      <channelcount>2</channelcount>
                    </audio>
                  </media>
                </file>
                <link>
                  <linkclipref>clipitem-700</linkclipref>
                  <mediatype>video</mediatype>
                  <trackindex>1</trackindex>
                  <clipindex>1</clipindex>
                </link>
                <link>
                  <linkclipref>clipitem-701</linkclipref>
                  <mediatype>audio</mediatype>
                  <trackindex>1</trackindex>
                  <clipindex>1</clipindex>
                  <groupindex>1</groupindex>
                </link>
                <link>
                  <linkclipref>clipitem-702</linkclipref>
                  <mediatype>audio</mediatype>
                  <trackindex>2</trackindex>
                  <clipindex>1</clipindex>
                  <groupindex>1</groupindex>
                </link>
              </clipitem>
            </track>
          </video>
          <audio>
            <track>
              <clipitem id="clipitem-701" frameBlend="FALSE">
                <masterclipid>masterclip-230</masterclipid>
                <name>00453.MTS</name>
                <file id="file-230"/>
                <sourcetrack>
                  <mediatype>audio</mediatype>
                  <trackindex>1</trackindex>
                </sourcetrack>
                <link>
                  <linkclipref>clipitem-700</linkclipref>
                  <mediatype>video</mediatype>
                  <trackindex>1</trackindex>
                  <clipindex>1</clipindex>
                </link>
                <link>
                  <linkclipref>clipitem-701</linkclipref>
                  <mediatype>audio</mediatype>
                  <trackindex>1</trackindex>
                  <clipindex>1</clipindex>
                  <groupindex>1</groupindex>
                </link>
                <link>
                  <linkclipref>clipitem-702</linkclipref>
                  <mediatype>audio</mediatype>
                  <trackindex>2</trackindex>
                  <clipindex>1</clipindex>
                  <groupindex>1</groupindex>
                </link>
              </clipitem>
            </track>
            <track>
              <clipitem id="clipitem-702" frameBlend="FALSE">
                <masterclipid>masterclip-230</masterclipid>
                <name>00453.MTS</name>
                <file id="file-230"/>
                <sourcetrack>
                  <mediatype>audio</mediatype>
                  <trackindex>2</trackindex>
                </sourcetrack>
                <link>
                  <linkclipref>clipitem-700</linkclipref>
                  <mediatype>video</mediatype>
                  <trackindex>1</trackindex>
                  <clipindex>1</clipindex>
                </link>
                <link>
                  <linkclipref>clipitem-701</linkclipref>
                  <mediatype>audio</mediatype>
                  <trackindex>1</trackindex>
                  <clipindex>1</clipindex>
                  <groupindex>1</groupindex>
                </link>
                <link>
                  <linkclipref>clipitem-702</linkclipref>
                  <mediatype>audio</mediatype>
                  <trackindex>2</trackindex>
                  <clipindex>1</clipindex>
                  <groupindex>1</groupindex>
                </link>
              </clipitem>
            </track>
          </audio>
        </media>
        <logginginfo>
          <description/>
          <scene/>
          <shottake/>
          <lognote/>
        </logginginfo>
      </clip>
      <clip id="masterclip-231" frameBlend="FALSE">
        <uuid>30586efc-7170-4d8d-8a77-8e8607917f1d</uuid>
        <masterclipid>masterclip-231</masterclipid>
        <ismasterclip>TRUE</ismasterclip>
        <duration>85</duration>
        <rate>
          <timebase>24</timebase>
          <ntsc>TRUE</ntsc>
        </rate>
        <name>00454.MTS</name>
        <media>
          <video>
            <track>
              <clipitem id="clipitem-703" frameBlend="FALSE">
                <masterclipid>masterclip-231</masterclipid>
                <name>00454.MTS</name>
                <alphatype>black</alphatype>
                <pixelaspectratio>square</pixelaspectratio>
                <anamorphic>FALSE</anamorphic>
                <file id="file-231">
                  <name>00454.MTS</name>
                  <pathurl>file://localhost/Volumes/Macintosh%20HD/Users/jacksongs/Desktop/STREAM/00454.MTS</pathurl>
                  <rate>
                    <timebase>24</timebase>
                    <ntsc>TRUE</ntsc>
                  </rate>
                  <duration>85</duration>
                  <timecode>
                    <rate>
                      <timebase>24</timebase>
                      <ntsc>TRUE</ntsc>
                    </rate>
                    <string>00:00:00:00</string>
                    <frame>0</frame>
                    <displayformat>NDF</displayformat>
                    <reel>
                      <name/>
                    </reel>
                  </timecode>
                  <media>
                    <video>
                      <duration>18000</duration>
                      <samplecharacteristics>
                        <rate>
                          <timebase>24</timebase>
                          <ntsc>TRUE</ntsc>
                        </rate>
                        <width>1920</width>
                        <height>1080</height>
                        <anamorphic>FALSE</anamorphic>
                        <pixelaspectratio>square</pixelaspectratio>
                        <fielddominance>none</fielddominance>
                      </samplecharacteristics>
                    </video>
                    <audio>
                      <samplecharacteristics>
                        <depth>16</depth>
                        <samplerate>48000</samplerate>
                      </samplecharacteristics>
                      <channelcount>2</channelcount>
                    </audio>
                  </media>
                </file>
                <link>
                  <linkclipref>clipitem-703</linkclipref>
                  <mediatype>video</mediatype>
                  <trackindex>1</trackindex>
                  <clipindex>1</clipindex>
                </link>
                <link>
                  <linkclipref>clipitem-704</linkclipref>
                  <mediatype>audio</mediatype>
                  <trackindex>1</trackindex>
                  <clipindex>1</clipindex>
                  <groupindex>1</groupindex>
                </link>
                <link>
                  <linkclipref>clipitem-705</linkclipref>
                  <mediatype>audio</mediatype>
                  <trackindex>2</trackindex>
                  <clipindex>1</clipindex>
                  <groupindex>1</groupindex>
                </link>
              </clipitem>
            </track>
          </video>
          <audio>
            <track>
              <clipitem id="clipitem-704" frameBlend="FALSE">
                <masterclipid>masterclip-231</masterclipid>
                <name>00454.MTS</name>
                <file id="file-231"/>
                <sourcetrack>
                  <mediatype>audio</mediatype>
                  <trackindex>1</trackindex>
                </sourcetrack>
                <link>
                  <linkclipref>clipitem-703</linkclipref>
                  <mediatype>video</mediatype>
                  <trackindex>1</trackindex>
                  <clipindex>1</clipindex>
                </link>
                <link>
                  <linkclipref>clipitem-704</linkclipref>
                  <mediatype>audio</mediatype>
                  <trackindex>1</trackindex>
                  <clipindex>1</clipindex>
                  <groupindex>1</groupindex>
                </link>
                <link>
                  <linkclipref>clipitem-705</linkclipref>
                  <mediatype>audio</mediatype>
                  <trackindex>2</trackindex>
                  <clipindex>1</clipindex>
                  <groupindex>1</groupindex>
                </link>
              </clipitem>
            </track>
            <track>
              <clipitem id="clipitem-705" frameBlend="FALSE">
                <masterclipid>masterclip-231</masterclipid>
                <name>00454.MTS</name>
                <file id="file-231"/>
                <sourcetrack>
                  <mediatype>audio</mediatype>
                  <trackindex>2</trackindex>
                </sourcetrack>
                <link>
                  <linkclipref>clipitem-703</linkclipref>
                  <mediatype>video</mediatype>
                  <trackindex>1</trackindex>
                  <clipindex>1</clipindex>
                </link>
                <link>
                  <linkclipref>clipitem-704</linkclipref>
                  <mediatype>audio</mediatype>
                  <trackindex>1</trackindex>
                  <clipindex>1</clipindex>
                  <groupindex>1</groupindex>
                </link>
                <link>
                  <linkclipref>clipitem-705</linkclipref>
                  <mediatype>audio</mediatype>
                  <trackindex>2</trackindex>
                  <clipindex>1</clipindex>
                  <groupindex>1</groupindex>
                </link>
              </clipitem>
            </track>
          </audio>
        </media>
        <logginginfo>
          <description/>
          <scene/>
          <shottake/>
          <lognote/>
        </logginginfo>
      </clip>
      <clip id="masterclip-232" frameBlend="FALSE">
        <uuid>8959ddb1-1d83-4592-9fdd-f8c666ac0d70</uuid>
        <masterclipid>masterclip-232</masterclipid>
        <ismasterclip>TRUE</ismasterclip>
        <duration>37</duration>
        <rate>
          <timebase>24</timebase>
          <ntsc>TRUE</ntsc>
        </rate>
        <name>00455.MTS</name>
        <media>
          <video>
            <track>
              <clipitem id="clipitem-706" frameBlend="FALSE">
                <masterclipid>masterclip-232</masterclipid>
                <name>00455.MTS</name>
                <alphatype>black</alphatype>
                <pixelaspectratio>square</pixelaspectratio>
                <anamorphic>FALSE</anamorphic>
                <file id="file-232">
                  <name>00455.MTS</name>
                  <pathurl>file://localhost/Volumes/Macintosh%20HD/Users/jacksongs/Desktop/STREAM/00455.MTS</pathurl>
                  <rate>
                    <timebase>24</timebase>
                    <ntsc>TRUE</ntsc>
                  </rate>
                  <duration>37</duration>
                  <timecode>
                    <rate>
                      <timebase>24</timebase>
                      <ntsc>TRUE</ntsc>
                    </rate>
                    <string>00:00:00:00</string>
                    <frame>0</frame>
                    <displayformat>NDF</displayformat>
                    <reel>
                      <name/>
                    </reel>
                  </timecode>
                  <media>
                    <video>
                      <duration>18000</duration>
                      <samplecharacteristics>
                        <rate>
                          <timebase>24</timebase>
                          <ntsc>TRUE</ntsc>
                        </rate>
                        <width>1920</width>
                        <height>1080</height>
                        <anamorphic>FALSE</anamorphic>
                        <pixelaspectratio>square</pixelaspectratio>
                        <fielddominance>none</fielddominance>
                      </samplecharacteristics>
                    </video>
                    <audio>
                      <samplecharacteristics>
                        <depth>16</depth>
                        <samplerate>48000</samplerate>
                      </samplecharacteristics>
                      <channelcount>2</channelcount>
                    </audio>
                  </media>
                </file>
                <link>
                  <linkclipref>clipitem-706</linkclipref>
                  <mediatype>video</mediatype>
                  <trackindex>1</trackindex>
                  <clipindex>1</clipindex>
                </link>
                <link>
                  <linkclipref>clipitem-707</linkclipref>
                  <mediatype>audio</mediatype>
                  <trackindex>1</trackindex>
                  <clipindex>1</clipindex>
                  <groupindex>1</groupindex>
                </link>
                <link>
                  <linkclipref>clipitem-708</linkclipref>
                  <mediatype>audio</mediatype>
                  <trackindex>2</trackindex>
                  <clipindex>1</clipindex>
                  <groupindex>1</groupindex>
                </link>
              </clipitem>
            </track>
          </video>
          <audio>
            <track>
              <clipitem id="clipitem-707" frameBlend="FALSE">
                <masterclipid>masterclip-232</masterclipid>
                <name>00455.MTS</name>
                <file id="file-232"/>
                <sourcetrack>
                  <mediatype>audio</mediatype>
                  <trackindex>1</trackindex>
                </sourcetrack>
                <link>
                  <linkclipref>clipitem-706</linkclipref>
                  <mediatype>video</mediatype>
                  <trackindex>1</trackindex>
                  <clipindex>1</clipindex>
                </link>
                <link>
                  <linkclipref>clipitem-707</linkclipref>
                  <mediatype>audio</mediatype>
                  <trackindex>1</trackindex>
                  <clipindex>1</clipindex>
                  <groupindex>1</groupindex>
                </link>
                <link>
                  <linkclipref>clipitem-708</linkclipref>
                  <mediatype>audio</mediatype>
                  <trackindex>2</trackindex>
                  <clipindex>1</clipindex>
                  <groupindex>1</groupindex>
                </link>
              </clipitem>
            </track>
            <track>
              <clipitem id="clipitem-708" frameBlend="FALSE">
                <masterclipid>masterclip-232</masterclipid>
                <name>00455.MTS</name>
                <file id="file-232"/>
                <sourcetrack>
                  <mediatype>audio</mediatype>
                  <trackindex>2</trackindex>
                </sourcetrack>
                <link>
                  <linkclipref>clipitem-706</linkclipref>
                  <mediatype>video</mediatype>
                  <trackindex>1</trackindex>
                  <clipindex>1</clipindex>
                </link>
                <link>
                  <linkclipref>clipitem-707</linkclipref>
                  <mediatype>audio</mediatype>
                  <trackindex>1</trackindex>
                  <clipindex>1</clipindex>
                  <groupindex>1</groupindex>
                </link>
                <link>
                  <linkclipref>clipitem-708</linkclipref>
                  <mediatype>audio</mediatype>
                  <trackindex>2</trackindex>
                  <clipindex>1</clipindex>
                  <groupindex>1</groupindex>
                </link>
              </clipitem>
            </track>
          </audio>
        </media>
        <logginginfo>
          <description/>
          <scene/>
          <shottake/>
          <lognote/>
        </logginginfo>
      </clip>
      <clip id="masterclip-233" frameBlend="FALSE">
        <uuid>8b212ec4-74cc-45e7-acf5-44372e6c64ea</uuid>
        <masterclipid>masterclip-233</masterclipid>
        <ismasterclip>TRUE</ismasterclip>
        <duration>169</duration>
        <rate>
          <timebase>24</timebase>
          <ntsc>TRUE</ntsc>
        </rate>
        <name>00456.MTS</name>
        <media>
          <video>
            <track>
              <clipitem id="clipitem-709" frameBlend="FALSE">
                <masterclipid>masterclip-233</masterclipid>
                <name>00456.MTS</name>
                <alphatype>black</alphatype>
                <pixelaspectratio>square</pixelaspectratio>
                <anamorphic>FALSE</anamorphic>
                <file id="file-233">
                  <name>00456.MTS</name>
                  <pathurl>file://localhost/Volumes/Macintosh%20HD/Users/jacksongs/Desktop/STREAM/00456.MTS</pathurl>
                  <rate>
                    <timebase>24</timebase>
                    <ntsc>TRUE</ntsc>
                  </rate>
                  <duration>169</duration>
                  <timecode>
                    <rate>
                      <timebase>24</timebase>
                      <ntsc>TRUE</ntsc>
                    </rate>
                    <string>00:00:00:00</string>
                    <frame>0</frame>
                    <displayformat>NDF</displayformat>
                    <reel>
                      <name/>
                    </reel>
                  </timecode>
                  <media>
                    <video>
                      <duration>18000</duration>
                      <samplecharacteristics>
                        <rate>
                          <timebase>24</timebase>
                          <ntsc>TRUE</ntsc>
                        </rate>
                        <width>1920</width>
                        <height>1080</height>
                        <anamorphic>FALSE</anamorphic>
                        <pixelaspectratio>square</pixelaspectratio>
                        <fielddominance>none</fielddominance>
                      </samplecharacteristics>
                    </video>
                    <audio>
                      <samplecharacteristics>
                        <depth>16</depth>
                        <samplerate>48000</samplerate>
                      </samplecharacteristics>
                      <channelcount>2</channelcount>
                    </audio>
                  </media>
                </file>
                <link>
                  <linkclipref>clipitem-709</linkclipref>
                  <mediatype>video</mediatype>
                  <trackindex>1</trackindex>
                  <clipindex>1</clipindex>
                </link>
                <link>
                  <linkclipref>clipitem-710</linkclipref>
                  <mediatype>audio</mediatype>
                  <trackindex>1</trackindex>
                  <clipindex>1</clipindex>
                  <groupindex>1</groupindex>
                </link>
                <link>
                  <linkclipref>clipitem-711</linkclipref>
                  <mediatype>audio</mediatype>
                  <trackindex>2</trackindex>
                  <clipindex>1</clipindex>
                  <groupindex>1</groupindex>
                </link>
              </clipitem>
            </track>
          </video>
          <audio>
            <track>
              <clipitem id="clipitem-710" frameBlend="FALSE">
                <masterclipid>masterclip-233</masterclipid>
                <name>00456.MTS</name>
                <file id="file-233"/>
                <sourcetrack>
                  <mediatype>audio</mediatype>
                  <trackindex>1</trackindex>
                </sourcetrack>
                <link>
                  <linkclipref>clipitem-709</linkclipref>
                  <mediatype>video</mediatype>
                  <trackindex>1</trackindex>
                  <clipindex>1</clipindex>
                </link>
                <link>
                  <linkclipref>clipitem-710</linkclipref>
                  <mediatype>audio</mediatype>
                  <trackindex>1</trackindex>
                  <clipindex>1</clipindex>
                  <groupindex>1</groupindex>
                </link>
                <link>
                  <linkclipref>clipitem-711</linkclipref>
                  <mediatype>audio</mediatype>
                  <trackindex>2</trackindex>
                  <clipindex>1</clipindex>
                  <groupindex>1</groupindex>
                </link>
              </clipitem>
            </track>
            <track>
              <clipitem id="clipitem-711" frameBlend="FALSE">
                <masterclipid>masterclip-233</masterclipid>
                <name>00456.MTS</name>
                <file id="file-233"/>
                <sourcetrack>
                  <mediatype>audio</mediatype>
                  <trackindex>2</trackindex>
                </sourcetrack>
                <link>
                  <linkclipref>clipitem-709</linkclipref>
                  <mediatype>video</mediatype>
                  <trackindex>1</trackindex>
                  <clipindex>1</clipindex>
                </link>
                <link>
                  <linkclipref>clipitem-710</linkclipref>
                  <mediatype>audio</mediatype>
                  <trackindex>1</trackindex>
                  <clipindex>1</clipindex>
                  <groupindex>1</groupindex>
                </link>
                <link>
                  <linkclipref>clipitem-711</linkclipref>
                  <mediatype>audio</mediatype>
                  <trackindex>2</trackindex>
                  <clipindex>1</clipindex>
                  <groupindex>1</groupindex>
                </link>
              </clipitem>
            </track>
          </audio>
        </media>
        <logginginfo>
          <description/>
          <scene/>
          <shottake/>
          <lognote/>
        </logginginfo>
      </clip>
      <clip id="masterclip-234" frameBlend="FALSE">
        <uuid>0842e7d8-94cc-46b6-a2a6-120799c196c3</uuid>
        <masterclipid>masterclip-234</masterclipid>
        <ismasterclip>TRUE</ismasterclip>
        <duration>61</duration>
        <rate>
          <timebase>24</timebase>
          <ntsc>TRUE</ntsc>
        </rate>
        <name>00457.MTS</name>
        <media>
          <video>
            <track>
              <clipitem id="clipitem-712" frameBlend="FALSE">
                <masterclipid>masterclip-234</masterclipid>
                <name>00457.MTS</name>
                <alphatype>black</alphatype>
                <pixelaspectratio>square</pixelaspectratio>
                <anamorphic>FALSE</anamorphic>
                <file id="file-234">
                  <name>00457.MTS</name>
                  <pathurl>file://localhost/Volumes/Macintosh%20HD/Users/jacksongs/Desktop/STREAM/00457.MTS</pathurl>
                  <rate>
                    <timebase>24</timebase>
                    <ntsc>TRUE</ntsc>
                  </rate>
                  <duration>61</duration>
                  <timecode>
                    <rate>
                      <timebase>24</timebase>
                      <ntsc>TRUE</ntsc>
                    </rate>
                    <string>00:00:00:00</string>
                    <frame>0</frame>
                    <displayformat>NDF</displayformat>
                    <reel>
                      <name/>
                    </reel>
                  </timecode>
                  <media>
                    <video>
                      <duration>18000</duration>
                      <samplecharacteristics>
                        <rate>
                          <timebase>24</timebase>
                          <ntsc>TRUE</ntsc>
                        </rate>
                        <width>1920</width>
                        <height>1080</height>
                        <anamorphic>FALSE</anamorphic>
                        <pixelaspectratio>square</pixelaspectratio>
                        <fielddominance>none</fielddominance>
                      </samplecharacteristics>
                    </video>
                    <audio>
                      <samplecharacteristics>
                        <depth>16</depth>
                        <samplerate>48000</samplerate>
                      </samplecharacteristics>
                      <channelcount>2</channelcount>
                    </audio>
                  </media>
                </file>
                <link>
                  <linkclipref>clipitem-712</linkclipref>
                  <mediatype>video</mediatype>
                  <trackindex>1</trackindex>
                  <clipindex>1</clipindex>
                </link>
                <link>
                  <linkclipref>clipitem-713</linkclipref>
                  <mediatype>audio</mediatype>
                  <trackindex>1</trackindex>
                  <clipindex>1</clipindex>
                  <groupindex>1</groupindex>
                </link>
                <link>
                  <linkclipref>clipitem-714</linkclipref>
                  <mediatype>audio</mediatype>
                  <trackindex>2</trackindex>
                  <clipindex>1</clipindex>
                  <groupindex>1</groupindex>
                </link>
              </clipitem>
            </track>
          </video>
          <audio>
            <track>
              <clipitem id="clipitem-713" frameBlend="FALSE">
                <masterclipid>masterclip-234</masterclipid>
                <name>00457.MTS</name>
                <file id="file-234"/>
                <sourcetrack>
                  <mediatype>audio</mediatype>
                  <trackindex>1</trackindex>
                </sourcetrack>
                <link>
                  <linkclipref>clipitem-712</linkclipref>
                  <mediatype>video</mediatype>
                  <trackindex>1</trackindex>
                  <clipindex>1</clipindex>
                </link>
                <link>
                  <linkclipref>clipitem-713</linkclipref>
                  <mediatype>audio</mediatype>
                  <trackindex>1</trackindex>
                  <clipindex>1</clipindex>
                  <groupindex>1</groupindex>
                </link>
                <link>
                  <linkclipref>clipitem-714</linkclipref>
                  <mediatype>audio</mediatype>
                  <trackindex>2</trackindex>
                  <clipindex>1</clipindex>
                  <groupindex>1</groupindex>
                </link>
              </clipitem>
            </track>
            <track>
              <clipitem id="clipitem-714" frameBlend="FALSE">
                <masterclipid>masterclip-234</masterclipid>
                <name>00457.MTS</name>
                <file id="file-234"/>
                <sourcetrack>
                  <mediatype>audio</mediatype>
                  <trackindex>2</trackindex>
                </sourcetrack>
                <link>
                  <linkclipref>clipitem-712</linkclipref>
                  <mediatype>video</mediatype>
                  <trackindex>1</trackindex>
                  <clipindex>1</clipindex>
                </link>
                <link>
                  <linkclipref>clipitem-713</linkclipref>
                  <mediatype>audio</mediatype>
                  <trackindex>1</trackindex>
                  <clipindex>1</clipindex>
                  <groupindex>1</groupindex>
                </link>
                <link>
                  <linkclipref>clipitem-714</linkclipref>
                  <mediatype>audio</mediatype>
                  <trackindex>2</trackindex>
                  <clipindex>1</clipindex>
                  <groupindex>1</groupindex>
                </link>
              </clipitem>
            </track>
          </audio>
        </media>
        <logginginfo>
          <description/>
          <scene/>
          <shottake/>
          <lognote/>
        </logginginfo>
      </clip>
      <clip id="masterclip-235" frameBlend="FALSE">
        <uuid>1ee3c2f8-9fab-43bc-92d3-954c5908c000</uuid>
        <masterclipid>masterclip-235</masterclipid>
        <ismasterclip>TRUE</ismasterclip>
        <duration>169</duration>
        <rate>
          <timebase>24</timebase>
          <ntsc>TRUE</ntsc>
        </rate>
        <name>00458.MTS</name>
        <media>
          <video>
            <track>
              <clipitem id="clipitem-715" frameBlend="FALSE">
                <masterclipid>masterclip-235</masterclipid>
                <name>00458.MTS</name>
                <alphatype>black</alphatype>
                <pixelaspectratio>square</pixelaspectratio>
                <anamorphic>FALSE</anamorphic>
                <file id="file-235">
                  <name>00458.MTS</name>
                  <pathurl>file://localhost/Volumes/Macintosh%20HD/Users/jacksongs/Desktop/STREAM/00458.MTS</pathurl>
                  <rate>
                    <timebase>24</timebase>
                    <ntsc>TRUE</ntsc>
                  </rate>
                  <duration>169</duration>
                  <timecode>
                    <rate>
                      <timebase>24</timebase>
                      <ntsc>TRUE</ntsc>
                    </rate>
                    <string>00:00:00:00</string>
                    <frame>0</frame>
                    <displayformat>NDF</displayformat>
                    <reel>
                      <name/>
                    </reel>
                  </timecode>
                  <media>
                    <video>
                      <duration>18000</duration>
                      <samplecharacteristics>
                        <rate>
                          <timebase>24</timebase>
                          <ntsc>TRUE</ntsc>
                        </rate>
                        <width>1920</width>
                        <height>1080</height>
                        <anamorphic>FALSE</anamorphic>
                        <pixelaspectratio>square</pixelaspectratio>
                        <fielddominance>none</fielddominance>
                      </samplecharacteristics>
                    </video>
                    <audio>
                      <samplecharacteristics>
                        <depth>16</depth>
                        <samplerate>48000</samplerate>
                      </samplecharacteristics>
                      <channelcount>2</channelcount>
                    </audio>
                  </media>
                </file>
                <link>
                  <linkclipref>clipitem-715</linkclipref>
                  <mediatype>video</mediatype>
                  <trackindex>1</trackindex>
                  <clipindex>1</clipindex>
                </link>
                <link>
                  <linkclipref>clipitem-716</linkclipref>
                  <mediatype>audio</mediatype>
                  <trackindex>1</trackindex>
                  <clipindex>1</clipindex>
                  <groupindex>1</groupindex>
                </link>
                <link>
                  <linkclipref>clipitem-717</linkclipref>
                  <mediatype>audio</mediatype>
                  <trackindex>2</trackindex>
                  <clipindex>1</clipindex>
                  <groupindex>1</groupindex>
                </link>
              </clipitem>
            </track>
          </video>
          <audio>
            <track>
              <clipitem id="clipitem-716" frameBlend="FALSE">
                <masterclipid>masterclip-235</masterclipid>
                <name>00458.MTS</name>
                <file id="file-235"/>
                <sourcetrack>
                  <mediatype>audio</mediatype>
                  <trackindex>1</trackindex>
                </sourcetrack>
                <link>
                  <linkclipref>clipitem-715</linkclipref>
                  <mediatype>video</mediatype>
                  <trackindex>1</trackindex>
                  <clipindex>1</clipindex>
                </link>
                <link>
                  <linkclipref>clipitem-716</linkclipref>
                  <mediatype>audio</mediatype>
                  <trackindex>1</trackindex>
                  <clipindex>1</clipindex>
                  <groupindex>1</groupindex>
                </link>
                <link>
                  <linkclipref>clipitem-717</linkclipref>
                  <mediatype>audio</mediatype>
                  <trackindex>2</trackindex>
                  <clipindex>1</clipindex>
                  <groupindex>1</groupindex>
                </link>
              </clipitem>
            </track>
            <track>
              <clipitem id="clipitem-717" frameBlend="FALSE">
                <masterclipid>masterclip-235</masterclipid>
                <name>00458.MTS</name>
                <file id="file-235"/>
                <sourcetrack>
                  <mediatype>audio</mediatype>
                  <trackindex>2</trackindex>
                </sourcetrack>
                <link>
                  <linkclipref>clipitem-715</linkclipref>
                  <mediatype>video</mediatype>
                  <trackindex>1</trackindex>
                  <clipindex>1</clipindex>
                </link>
                <link>
                  <linkclipref>clipitem-716</linkclipref>
                  <mediatype>audio</mediatype>
                  <trackindex>1</trackindex>
                  <clipindex>1</clipindex>
                  <groupindex>1</groupindex>
                </link>
                <link>
                  <linkclipref>clipitem-717</linkclipref>
                  <mediatype>audio</mediatype>
                  <trackindex>2</trackindex>
                  <clipindex>1</clipindex>
                  <groupindex>1</groupindex>
                </link>
              </clipitem>
            </track>
          </audio>
        </media>
        <logginginfo>
          <description/>
          <scene/>
          <shottake/>
          <lognote/>
        </logginginfo>
      </clip>
      <clip id="masterclip-236" frameBlend="FALSE">
        <uuid>15e22200-3f0b-47ae-a44a-a1c88bbb1002</uuid>
        <masterclipid>masterclip-236</masterclipid>
        <ismasterclip>TRUE</ismasterclip>
        <duration>97</duration>
        <rate>
          <timebase>24</timebase>
          <ntsc>TRUE</ntsc>
        </rate>
        <name>00459.MTS</name>
        <media>
          <video>
            <track>
              <clipitem id="clipitem-718" frameBlend="FALSE">
                <masterclipid>masterclip-236</masterclipid>
                <name>00459.MTS</name>
                <alphatype>black</alphatype>
                <pixelaspectratio>square</pixelaspectratio>
                <anamorphic>FALSE</anamorphic>
                <file id="file-236">
                  <name>00459.MTS</name>
                  <pathurl>file://localhost/Volumes/Macintosh%20HD/Users/jacksongs/Desktop/STREAM/00459.MTS</pathurl>
                  <rate>
                    <timebase>24</timebase>
                    <ntsc>TRUE</ntsc>
                  </rate>
                  <duration>97</duration>
                  <timecode>
                    <rate>
                      <timebase>24</timebase>
                      <ntsc>TRUE</ntsc>
                    </rate>
                    <string>00:00:00:00</string>
                    <frame>0</frame>
                    <displayformat>NDF</displayformat>
                    <reel>
                      <name/>
                    </reel>
                  </timecode>
                  <media>
                    <video>
                      <duration>18000</duration>
                      <samplecharacteristics>
                        <rate>
                          <timebase>24</timebase>
                          <ntsc>TRUE</ntsc>
                        </rate>
                        <width>1920</width>
                        <height>1080</height>
                        <anamorphic>FALSE</anamorphic>
                        <pixelaspectratio>square</pixelaspectratio>
                        <fielddominance>none</fielddominance>
                      </samplecharacteristics>
                    </video>
                    <audio>
                      <samplecharacteristics>
                        <depth>16</depth>
                        <samplerate>48000</samplerate>
                      </samplecharacteristics>
                      <channelcount>2</channelcount>
                    </audio>
                  </media>
                </file>
                <link>
                  <linkclipref>clipitem-718</linkclipref>
                  <mediatype>video</mediatype>
                  <trackindex>1</trackindex>
                  <clipindex>1</clipindex>
                </link>
                <link>
                  <linkclipref>clipitem-719</linkclipref>
                  <mediatype>audio</mediatype>
                  <trackindex>1</trackindex>
                  <clipindex>1</clipindex>
                  <groupindex>1</groupindex>
                </link>
                <link>
                  <linkclipref>clipitem-720</linkclipref>
                  <mediatype>audio</mediatype>
                  <trackindex>2</trackindex>
                  <clipindex>1</clipindex>
                  <groupindex>1</groupindex>
                </link>
              </clipitem>
            </track>
          </video>
          <audio>
            <track>
              <clipitem id="clipitem-719" frameBlend="FALSE">
                <masterclipid>masterclip-236</masterclipid>
                <name>00459.MTS</name>
                <file id="file-236"/>
                <sourcetrack>
                  <mediatype>audio</mediatype>
                  <trackindex>1</trackindex>
                </sourcetrack>
                <link>
                  <linkclipref>clipitem-718</linkclipref>
                  <mediatype>video</mediatype>
                  <trackindex>1</trackindex>
                  <clipindex>1</clipindex>
                </link>
                <link>
                  <linkclipref>clipitem-719</linkclipref>
                  <mediatype>audio</mediatype>
                  <trackindex>1</trackindex>
                  <clipindex>1</clipindex>
                  <groupindex>1</groupindex>
                </link>
                <link>
                  <linkclipref>clipitem-720</linkclipref>
                  <mediatype>audio</mediatype>
                  <trackindex>2</trackindex>
                  <clipindex>1</clipindex>
                  <groupindex>1</groupindex>
                </link>
              </clipitem>
            </track>
            <track>
              <clipitem id="clipitem-720" frameBlend="FALSE">
                <masterclipid>masterclip-236</masterclipid>
                <name>00459.MTS</name>
                <file id="file-236"/>
                <sourcetrack>
                  <mediatype>audio</mediatype>
                  <trackindex>2</trackindex>
                </sourcetrack>
                <link>
                  <linkclipref>clipitem-718</linkclipref>
                  <mediatype>video</mediatype>
                  <trackindex>1</trackindex>
                  <clipindex>1</clipindex>
                </link>
                <link>
                  <linkclipref>clipitem-719</linkclipref>
                  <mediatype>audio</mediatype>
                  <trackindex>1</trackindex>
                  <clipindex>1</clipindex>
                  <groupindex>1</groupindex>
                </link>
                <link>
                  <linkclipref>clipitem-720</linkclipref>
                  <mediatype>audio</mediatype>
                  <trackindex>2</trackindex>
                  <clipindex>1</clipindex>
                  <groupindex>1</groupindex>
                </link>
              </clipitem>
            </track>
          </audio>
        </media>
        <logginginfo>
          <description/>
          <scene/>
          <shottake/>
          <lognote/>
        </logginginfo>
      </clip>
      <clip id="masterclip-237" frameBlend="FALSE">
        <uuid>3c60c0b6-14df-46e4-b946-57c9b4621699</uuid>
        <masterclipid>masterclip-237</masterclipid>
        <ismasterclip>TRUE</ismasterclip>
        <duration>457</duration>
        <rate>
          <timebase>24</timebase>
          <ntsc>TRUE</ntsc>
        </rate>
        <name>00460.MTS</name>
        <media>
          <video>
            <track>
              <clipitem id="clipitem-721" frameBlend="FALSE">
                <masterclipid>masterclip-237</masterclipid>
                <name>00460.MTS</name>
                <alphatype>black</alphatype>
                <pixelaspectratio>square</pixelaspectratio>
                <anamorphic>FALSE</anamorphic>
                <file id="file-237">
                  <name>00460.MTS</name>
                  <pathurl>file://localhost/Volumes/Macintosh%20HD/Users/jacksongs/Desktop/STREAM/00460.MTS</pathurl>
                  <rate>
                    <timebase>24</timebase>
                    <ntsc>TRUE</ntsc>
                  </rate>
                  <duration>457</duration>
                  <timecode>
                    <rate>
                      <timebase>24</timebase>
                      <ntsc>TRUE</ntsc>
                    </rate>
                    <string>00:00:00:00</string>
                    <frame>0</frame>
                    <displayformat>NDF</displayformat>
                    <reel>
                      <name/>
                    </reel>
                  </timecode>
                  <media>
                    <video>
                      <duration>18000</duration>
                      <samplecharacteristics>
                        <rate>
                          <timebase>24</timebase>
                          <ntsc>TRUE</ntsc>
                        </rate>
                        <width>1920</width>
                        <height>1080</height>
                        <anamorphic>FALSE</anamorphic>
                        <pixelaspectratio>square</pixelaspectratio>
                        <fielddominance>none</fielddominance>
                      </samplecharacteristics>
                    </video>
                    <audio>
                      <samplecharacteristics>
                        <depth>16</depth>
                        <samplerate>48000</samplerate>
                      </samplecharacteristics>
                      <channelcount>2</channelcount>
                    </audio>
                  </media>
                </file>
                <link>
                  <linkclipref>clipitem-721</linkclipref>
                  <mediatype>video</mediatype>
                  <trackindex>1</trackindex>
                  <clipindex>1</clipindex>
                </link>
                <link>
                  <linkclipref>clipitem-722</linkclipref>
                  <mediatype>audio</mediatype>
                  <trackindex>1</trackindex>
                  <clipindex>1</clipindex>
                  <groupindex>1</groupindex>
                </link>
                <link>
                  <linkclipref>clipitem-723</linkclipref>
                  <mediatype>audio</mediatype>
                  <trackindex>2</trackindex>
                  <clipindex>1</clipindex>
                  <groupindex>1</groupindex>
                </link>
              </clipitem>
            </track>
          </video>
          <audio>
            <track>
              <clipitem id="clipitem-722" frameBlend="FALSE">
                <masterclipid>masterclip-237</masterclipid>
                <name>00460.MTS</name>
                <file id="file-237"/>
                <sourcetrack>
                  <mediatype>audio</mediatype>
                  <trackindex>1</trackindex>
                </sourcetrack>
                <link>
                  <linkclipref>clipitem-721</linkclipref>
                  <mediatype>video</mediatype>
                  <trackindex>1</trackindex>
                  <clipindex>1</clipindex>
                </link>
                <link>
                  <linkclipref>clipitem-722</linkclipref>
                  <mediatype>audio</mediatype>
                  <trackindex>1</trackindex>
                  <clipindex>1</clipindex>
                  <groupindex>1</groupindex>
                </link>
                <link>
                  <linkclipref>clipitem-723</linkclipref>
                  <mediatype>audio</mediatype>
                  <trackindex>2</trackindex>
                  <clipindex>1</clipindex>
                  <groupindex>1</groupindex>
                </link>
              </clipitem>
            </track>
            <track>
              <clipitem id="clipitem-723" frameBlend="FALSE">
                <masterclipid>masterclip-237</masterclipid>
                <name>00460.MTS</name>
                <file id="file-237"/>
                <sourcetrack>
                  <mediatype>audio</mediatype>
                  <trackindex>2</trackindex>
                </sourcetrack>
                <link>
                  <linkclipref>clipitem-721</linkclipref>
                  <mediatype>video</mediatype>
                  <trackindex>1</trackindex>
                  <clipindex>1</clipindex>
                </link>
                <link>
                  <linkclipref>clipitem-722</linkclipref>
                  <mediatype>audio</mediatype>
                  <trackindex>1</trackindex>
                  <clipindex>1</clipindex>
                  <groupindex>1</groupindex>
                </link>
                <link>
                  <linkclipref>clipitem-723</linkclipref>
                  <mediatype>audio</mediatype>
                  <trackindex>2</trackindex>
                  <clipindex>1</clipindex>
                  <groupindex>1</groupindex>
                </link>
              </clipitem>
            </track>
          </audio>
        </media>
        <logginginfo>
          <description/>
          <scene/>
          <shottake/>
          <lognote/>
        </logginginfo>
      </clip>
      <clip id="masterclip-238" frameBlend="FALSE">
        <uuid>21c455d6-1dba-47d3-a1b8-22dfd3f89e8d</uuid>
        <masterclipid>masterclip-238</masterclipid>
        <ismasterclip>TRUE</ismasterclip>
        <duration>241</duration>
        <rate>
          <timebase>24</timebase>
          <ntsc>TRUE</ntsc>
        </rate>
        <name>00461.MTS</name>
        <media>
          <video>
            <track>
              <clipitem id="clipitem-724" frameBlend="FALSE">
                <masterclipid>masterclip-238</masterclipid>
                <name>00461.MTS</name>
                <alphatype>black</alphatype>
                <pixelaspectratio>square</pixelaspectratio>
                <anamorphic>FALSE</anamorphic>
                <file id="file-238">
                  <name>00461.MTS</name>
                  <pathurl>file://localhost/Volumes/Macintosh%20HD/Users/jacksongs/Desktop/STREAM/00461.MTS</pathurl>
                  <rate>
                    <timebase>24</timebase>
                    <ntsc>TRUE</ntsc>
                  </rate>
                  <duration>241</duration>
                  <timecode>
                    <rate>
                      <timebase>24</timebase>
                      <ntsc>TRUE</ntsc>
                    </rate>
                    <string>00:00:00:00</string>
                    <frame>0</frame>
                    <displayformat>NDF</displayformat>
                    <reel>
                      <name/>
                    </reel>
                  </timecode>
                  <media>
                    <video>
                      <duration>18000</duration>
                      <samplecharacteristics>
                        <rate>
                          <timebase>24</timebase>
                          <ntsc>TRUE</ntsc>
                        </rate>
                        <width>1920</width>
                        <height>1080</height>
                        <anamorphic>FALSE</anamorphic>
                        <pixelaspectratio>square</pixelaspectratio>
                        <fielddominance>none</fielddominance>
                      </samplecharacteristics>
                    </video>
                    <audio>
                      <samplecharacteristics>
                        <depth>16</depth>
                        <samplerate>48000</samplerate>
                      </samplecharacteristics>
                      <channelcount>2</channelcount>
                    </audio>
                  </media>
                </file>
                <link>
                  <linkclipref>clipitem-724</linkclipref>
                  <mediatype>video</mediatype>
                  <trackindex>1</trackindex>
                  <clipindex>1</clipindex>
                </link>
                <link>
                  <linkclipref>clipitem-725</linkclipref>
                  <mediatype>audio</mediatype>
                  <trackindex>1</trackindex>
                  <clipindex>1</clipindex>
                  <groupindex>1</groupindex>
                </link>
                <link>
                  <linkclipref>clipitem-726</linkclipref>
                  <mediatype>audio</mediatype>
                  <trackindex>2</trackindex>
                  <clipindex>1</clipindex>
                  <groupindex>1</groupindex>
                </link>
              </clipitem>
            </track>
          </video>
          <audio>
            <track>
              <clipitem id="clipitem-725" frameBlend="FALSE">
                <masterclipid>masterclip-238</masterclipid>
                <name>00461.MTS</name>
                <file id="file-238"/>
                <sourcetrack>
                  <mediatype>audio</mediatype>
                  <trackindex>1</trackindex>
                </sourcetrack>
                <link>
                  <linkclipref>clipitem-724</linkclipref>
                  <mediatype>video</mediatype>
                  <trackindex>1</trackindex>
                  <clipindex>1</clipindex>
                </link>
                <link>
                  <linkclipref>clipitem-725</linkclipref>
                  <mediatype>audio</mediatype>
                  <trackindex>1</trackindex>
                  <clipindex>1</clipindex>
                  <groupindex>1</groupindex>
                </link>
                <link>
                  <linkclipref>clipitem-726</linkclipref>
                  <mediatype>audio</mediatype>
                  <trackindex>2</trackindex>
                  <clipindex>1</clipindex>
                  <groupindex>1</groupindex>
                </link>
              </clipitem>
            </track>
            <track>
              <clipitem id="clipitem-726" frameBlend="FALSE">
                <masterclipid>masterclip-238</masterclipid>
                <name>00461.MTS</name>
                <file id="file-238"/>
                <sourcetrack>
                  <mediatype>audio</mediatype>
                  <trackindex>2</trackindex>
                </sourcetrack>
                <link>
                  <linkclipref>clipitem-724</linkclipref>
                  <mediatype>video</mediatype>
                  <trackindex>1</trackindex>
                  <clipindex>1</clipindex>
                </link>
                <link>
                  <linkclipref>clipitem-725</linkclipref>
                  <mediatype>audio</mediatype>
                  <trackindex>1</trackindex>
                  <clipindex>1</clipindex>
                  <groupindex>1</groupindex>
                </link>
                <link>
                  <linkclipref>clipitem-726</linkclipref>
                  <mediatype>audio</mediatype>
                  <trackindex>2</trackindex>
                  <clipindex>1</clipindex>
                  <groupindex>1</groupindex>
                </link>
              </clipitem>
            </track>
          </audio>
        </media>
        <logginginfo>
          <description/>
          <scene/>
          <shottake/>
          <lognote/>
        </logginginfo>
      </clip>
      <clip id="masterclip-239" frameBlend="FALSE">
        <uuid>b5403b80-a143-488a-85b2-2b86f73b7be1</uuid>
        <masterclipid>masterclip-239</masterclipid>
        <ismasterclip>TRUE</ismasterclip>
        <duration>121</duration>
        <rate>
          <timebase>24</timebase>
          <ntsc>TRUE</ntsc>
        </rate>
        <name>00462.MTS</name>
        <media>
          <video>
            <track>
              <clipitem id="clipitem-727" frameBlend="FALSE">
                <masterclipid>masterclip-239</masterclipid>
                <name>00462.MTS</name>
                <alphatype>black</alphatype>
                <pixelaspectratio>square</pixelaspectratio>
                <anamorphic>FALSE</anamorphic>
                <file id="file-239">
                  <name>00462.MTS</name>
                  <pathurl>file://localhost/Volumes/Macintosh%20HD/Users/jacksongs/Desktop/STREAM/00462.MTS</pathurl>
                  <rate>
                    <timebase>24</timebase>
                    <ntsc>TRUE</ntsc>
                  </rate>
                  <duration>121</duration>
                  <timecode>
                    <rate>
                      <timebase>24</timebase>
                      <ntsc>TRUE</ntsc>
                    </rate>
                    <string>00:00:00:00</string>
                    <frame>0</frame>
                    <displayformat>NDF</displayformat>
                    <reel>
                      <name/>
                    </reel>
                  </timecode>
                  <media>
                    <video>
                      <duration>18000</duration>
                      <samplecharacteristics>
                        <rate>
                          <timebase>24</timebase>
                          <ntsc>TRUE</ntsc>
                        </rate>
                        <width>1920</width>
                        <height>1080</height>
                        <anamorphic>FALSE</anamorphic>
                        <pixelaspectratio>square</pixelaspectratio>
                        <fielddominance>none</fielddominance>
                      </samplecharacteristics>
                    </video>
                    <audio>
                      <samplecharacteristics>
                        <depth>16</depth>
                        <samplerate>48000</samplerate>
                      </samplecharacteristics>
                      <channelcount>2</channelcount>
                    </audio>
                  </media>
                </file>
                <link>
                  <linkclipref>clipitem-727</linkclipref>
                  <mediatype>video</mediatype>
                  <trackindex>1</trackindex>
                  <clipindex>1</clipindex>
                </link>
                <link>
                  <linkclipref>clipitem-728</linkclipref>
                  <mediatype>audio</mediatype>
                  <trackindex>1</trackindex>
                  <clipindex>1</clipindex>
                  <groupindex>1</groupindex>
                </link>
                <link>
                  <linkclipref>clipitem-729</linkclipref>
                  <mediatype>audio</mediatype>
                  <trackindex>2</trackindex>
                  <clipindex>1</clipindex>
                  <groupindex>1</groupindex>
                </link>
              </clipitem>
            </track>
          </video>
          <audio>
            <track>
              <clipitem id="clipitem-728" frameBlend="FALSE">
                <masterclipid>masterclip-239</masterclipid>
                <name>00462.MTS</name>
                <file id="file-239"/>
                <sourcetrack>
                  <mediatype>audio</mediatype>
                  <trackindex>1</trackindex>
                </sourcetrack>
                <link>
                  <linkclipref>clipitem-727</linkclipref>
                  <mediatype>video</mediatype>
                  <trackindex>1</trackindex>
                  <clipindex>1</clipindex>
                </link>
                <link>
                  <linkclipref>clipitem-728</linkclipref>
                  <mediatype>audio</mediatype>
                  <trackindex>1</trackindex>
                  <clipindex>1</clipindex>
                  <groupindex>1</groupindex>
                </link>
                <link>
                  <linkclipref>clipitem-729</linkclipref>
                  <mediatype>audio</mediatype>
                  <trackindex>2</trackindex>
                  <clipindex>1</clipindex>
                  <groupindex>1</groupindex>
                </link>
              </clipitem>
            </track>
            <track>
              <clipitem id="clipitem-729" frameBlend="FALSE">
                <masterclipid>masterclip-239</masterclipid>
                <name>00462.MTS</name>
                <file id="file-239"/>
                <sourcetrack>
                  <mediatype>audio</mediatype>
                  <trackindex>2</trackindex>
                </sourcetrack>
                <link>
                  <linkclipref>clipitem-727</linkclipref>
                  <mediatype>video</mediatype>
                  <trackindex>1</trackindex>
                  <clipindex>1</clipindex>
                </link>
                <link>
                  <linkclipref>clipitem-728</linkclipref>
                  <mediatype>audio</mediatype>
                  <trackindex>1</trackindex>
                  <clipindex>1</clipindex>
                  <groupindex>1</groupindex>
                </link>
                <link>
                  <linkclipref>clipitem-729</linkclipref>
                  <mediatype>audio</mediatype>
                  <trackindex>2</trackindex>
                  <clipindex>1</clipindex>
                  <groupindex>1</groupindex>
                </link>
              </clipitem>
            </track>
          </audio>
        </media>
        <logginginfo>
          <description/>
          <scene/>
          <shottake/>
          <lognote/>
        </logginginfo>
      </clip>
      <clip id="masterclip-240" frameBlend="FALSE">
        <uuid>3648b73e-1011-41f1-a746-53313f66db4c</uuid>
        <masterclipid>masterclip-240</masterclipid>
        <ismasterclip>TRUE</ismasterclip>
        <duration>145</duration>
        <rate>
          <timebase>24</timebase>
          <ntsc>TRUE</ntsc>
        </rate>
        <name>00463.MTS</name>
        <media>
          <video>
            <track>
              <clipitem id="clipitem-730" frameBlend="FALSE">
                <masterclipid>masterclip-240</masterclipid>
                <name>00463.MTS</name>
                <alphatype>black</alphatype>
                <pixelaspectratio>square</pixelaspectratio>
                <anamorphic>FALSE</anamorphic>
                <file id="file-240">
                  <name>00463.MTS</name>
                  <pathurl>file://localhost/Volumes/Macintosh%20HD/Users/jacksongs/Desktop/STREAM/00463.MTS</pathurl>
                  <rate>
                    <timebase>24</timebase>
                    <ntsc>TRUE</ntsc>
                  </rate>
                  <duration>145</duration>
                  <timecode>
                    <rate>
                      <timebase>24</timebase>
                      <ntsc>TRUE</ntsc>
                    </rate>
                    <string>00:00:00:00</string>
                    <frame>0</frame>
                    <displayformat>NDF</displayformat>
                    <reel>
                      <name/>
                    </reel>
                  </timecode>
                  <media>
                    <video>
                      <duration>18000</duration>
                      <samplecharacteristics>
                        <rate>
                          <timebase>24</timebase>
                          <ntsc>TRUE</ntsc>
                        </rate>
                        <width>1920</width>
                        <height>1080</height>
                        <anamorphic>FALSE</anamorphic>
                        <pixelaspectratio>square</pixelaspectratio>
                        <fielddominance>none</fielddominance>
                      </samplecharacteristics>
                    </video>
                    <audio>
                      <samplecharacteristics>
                        <depth>16</depth>
                        <samplerate>48000</samplerate>
                      </samplecharacteristics>
                      <channelcount>2</channelcount>
                    </audio>
                  </media>
                </file>
                <link>
                  <linkclipref>clipitem-730</linkclipref>
                  <mediatype>video</mediatype>
                  <trackindex>1</trackindex>
                  <clipindex>1</clipindex>
                </link>
                <link>
                  <linkclipref>clipitem-731</linkclipref>
                  <mediatype>audio</mediatype>
                  <trackindex>1</trackindex>
                  <clipindex>1</clipindex>
                  <groupindex>1</groupindex>
                </link>
                <link>
                  <linkclipref>clipitem-732</linkclipref>
                  <mediatype>audio</mediatype>
                  <trackindex>2</trackindex>
                  <clipindex>1</clipindex>
                  <groupindex>1</groupindex>
                </link>
              </clipitem>
            </track>
          </video>
          <audio>
            <track>
              <clipitem id="clipitem-731" frameBlend="FALSE">
                <masterclipid>masterclip-240</masterclipid>
                <name>00463.MTS</name>
                <file id="file-240"/>
                <sourcetrack>
                  <mediatype>audio</mediatype>
                  <trackindex>1</trackindex>
                </sourcetrack>
                <link>
                  <linkclipref>clipitem-730</linkclipref>
                  <mediatype>video</mediatype>
                  <trackindex>1</trackindex>
                  <clipindex>1</clipindex>
                </link>
                <link>
                  <linkclipref>clipitem-731</linkclipref>
                  <mediatype>audio</mediatype>
                  <trackindex>1</trackindex>
                  <clipindex>1</clipindex>
                  <groupindex>1</groupindex>
                </link>
                <link>
                  <linkclipref>clipitem-732</linkclipref>
                  <mediatype>audio</mediatype>
                  <trackindex>2</trackindex>
                  <clipindex>1</clipindex>
                  <groupindex>1</groupindex>
                </link>
              </clipitem>
            </track>
            <track>
              <clipitem id="clipitem-732" frameBlend="FALSE">
                <masterclipid>masterclip-240</masterclipid>
                <name>00463.MTS</name>
                <file id="file-240"/>
                <sourcetrack>
                  <mediatype>audio</mediatype>
                  <trackindex>2</trackindex>
                </sourcetrack>
                <link>
                  <linkclipref>clipitem-730</linkclipref>
                  <mediatype>video</mediatype>
                  <trackindex>1</trackindex>
                  <clipindex>1</clipindex>
                </link>
                <link>
                  <linkclipref>clipitem-731</linkclipref>
                  <mediatype>audio</mediatype>
                  <trackindex>1</trackindex>
                  <clipindex>1</clipindex>
                  <groupindex>1</groupindex>
                </link>
                <link>
                  <linkclipref>clipitem-732</linkclipref>
                  <mediatype>audio</mediatype>
                  <trackindex>2</trackindex>
                  <clipindex>1</clipindex>
                  <groupindex>1</groupindex>
                </link>
              </clipitem>
            </track>
          </audio>
        </media>
        <logginginfo>
          <description/>
          <scene/>
          <shottake/>
          <lognote/>
        </logginginfo>
      </clip>
      <clip id="masterclip-241" frameBlend="FALSE">
        <uuid>cfa9a0ab-0a9e-42cb-af02-772b208ed1d5</uuid>
        <masterclipid>masterclip-241</masterclipid>
        <ismasterclip>TRUE</ismasterclip>
        <duration>505</duration>
        <rate>
          <timebase>24</timebase>
          <ntsc>TRUE</ntsc>
        </rate>
        <name>00464.MTS</name>
        <media>
          <video>
            <track>
              <clipitem id="clipitem-733" frameBlend="FALSE">
                <masterclipid>masterclip-241</masterclipid>
                <name>00464.MTS</name>
                <alphatype>black</alphatype>
                <pixelaspectratio>square</pixelaspectratio>
                <anamorphic>FALSE</anamorphic>
                <file id="file-241">
                  <name>00464.MTS</name>
                  <pathurl>file://localhost/Volumes/Macintosh%20HD/Users/jacksongs/Desktop/STREAM/00464.MTS</pathurl>
                  <rate>
                    <timebase>24</timebase>
                    <ntsc>TRUE</ntsc>
                  </rate>
                  <duration>505</duration>
                  <timecode>
                    <rate>
                      <timebase>24</timebase>
                      <ntsc>TRUE</ntsc>
                    </rate>
                    <string>00:00:00:00</string>
                    <frame>0</frame>
                    <displayformat>NDF</displayformat>
                    <reel>
                      <name/>
                    </reel>
                  </timecode>
                  <media>
                    <video>
                      <duration>18000</duration>
                      <samplecharacteristics>
                        <rate>
                          <timebase>24</timebase>
                          <ntsc>TRUE</ntsc>
                        </rate>
                        <width>1920</width>
                        <height>1080</height>
                        <anamorphic>FALSE</anamorphic>
                        <pixelaspectratio>square</pixelaspectratio>
                        <fielddominance>none</fielddominance>
                      </samplecharacteristics>
                    </video>
                    <audio>
                      <samplecharacteristics>
                        <depth>16</depth>
                        <samplerate>48000</samplerate>
                      </samplecharacteristics>
                      <channelcount>2</channelcount>
                    </audio>
                  </media>
                </file>
                <link>
                  <linkclipref>clipitem-733</linkclipref>
                  <mediatype>video</mediatype>
                  <trackindex>1</trackindex>
                  <clipindex>1</clipindex>
                </link>
                <link>
                  <linkclipref>clipitem-734</linkclipref>
                  <mediatype>audio</mediatype>
                  <trackindex>1</trackindex>
                  <clipindex>1</clipindex>
                  <groupindex>1</groupindex>
                </link>
                <link>
                  <linkclipref>clipitem-735</linkclipref>
                  <mediatype>audio</mediatype>
                  <trackindex>2</trackindex>
                  <clipindex>1</clipindex>
                  <groupindex>1</groupindex>
                </link>
              </clipitem>
            </track>
          </video>
          <audio>
            <track>
              <clipitem id="clipitem-734" frameBlend="FALSE">
                <masterclipid>masterclip-241</masterclipid>
                <name>00464.MTS</name>
                <file id="file-241"/>
                <sourcetrack>
                  <mediatype>audio</mediatype>
                  <trackindex>1</trackindex>
                </sourcetrack>
                <link>
                  <linkclipref>clipitem-733</linkclipref>
                  <mediatype>video</mediatype>
                  <trackindex>1</trackindex>
                  <clipindex>1</clipindex>
                </link>
                <link>
                  <linkclipref>clipitem-734</linkclipref>
                  <mediatype>audio</mediatype>
                  <trackindex>1</trackindex>
                  <clipindex>1</clipindex>
                  <groupindex>1</groupindex>
                </link>
                <link>
                  <linkclipref>clipitem-735</linkclipref>
                  <mediatype>audio</mediatype>
                  <trackindex>2</trackindex>
                  <clipindex>1</clipindex>
                  <groupindex>1</groupindex>
                </link>
              </clipitem>
            </track>
            <track>
              <clipitem id="clipitem-735" frameBlend="FALSE">
                <masterclipid>masterclip-241</masterclipid>
                <name>00464.MTS</name>
                <file id="file-241"/>
                <sourcetrack>
                  <mediatype>audio</mediatype>
                  <trackindex>2</trackindex>
                </sourcetrack>
                <link>
                  <linkclipref>clipitem-733</linkclipref>
                  <mediatype>video</mediatype>
                  <trackindex>1</trackindex>
                  <clipindex>1</clipindex>
                </link>
                <link>
                  <linkclipref>clipitem-734</linkclipref>
                  <mediatype>audio</mediatype>
                  <trackindex>1</trackindex>
                  <clipindex>1</clipindex>
                  <groupindex>1</groupindex>
                </link>
                <link>
                  <linkclipref>clipitem-735</linkclipref>
                  <mediatype>audio</mediatype>
                  <trackindex>2</trackindex>
                  <clipindex>1</clipindex>
                  <groupindex>1</groupindex>
                </link>
              </clipitem>
            </track>
          </audio>
        </media>
        <logginginfo>
          <description/>
          <scene/>
          <shottake/>
          <lognote/>
        </logginginfo>
      </clip>
      <clip id="masterclip-242" frameBlend="FALSE">
        <uuid>77287939-87fa-4db4-9171-1cde5b2498b0</uuid>
        <masterclipid>masterclip-242</masterclipid>
        <ismasterclip>TRUE</ismasterclip>
        <duration>265</duration>
        <rate>
          <timebase>24</timebase>
          <ntsc>TRUE</ntsc>
        </rate>
        <name>00465.MTS</name>
        <media>
          <video>
            <track>
              <clipitem id="clipitem-736" frameBlend="FALSE">
                <masterclipid>masterclip-242</masterclipid>
                <name>00465.MTS</name>
                <alphatype>black</alphatype>
                <pixelaspectratio>square</pixelaspectratio>
                <anamorphic>FALSE</anamorphic>
                <file id="file-242">
                  <name>00465.MTS</name>
                  <pathurl>file://localhost/Volumes/Macintosh%20HD/Users/jacksongs/Desktop/STREAM/00465.MTS</pathurl>
                  <rate>
                    <timebase>24</timebase>
                    <ntsc>TRUE</ntsc>
                  </rate>
                  <duration>265</duration>
                  <timecode>
                    <rate>
                      <timebase>24</timebase>
                      <ntsc>TRUE</ntsc>
                    </rate>
                    <string>00:00:00:00</string>
                    <frame>0</frame>
                    <displayformat>NDF</displayformat>
                    <reel>
                      <name/>
                    </reel>
                  </timecode>
                  <media>
                    <video>
                      <duration>18000</duration>
                      <samplecharacteristics>
                        <rate>
                          <timebase>24</timebase>
                          <ntsc>TRUE</ntsc>
                        </rate>
                        <width>1920</width>
                        <height>1080</height>
                        <anamorphic>FALSE</anamorphic>
                        <pixelaspectratio>square</pixelaspectratio>
                        <fielddominance>none</fielddominance>
                      </samplecharacteristics>
                    </video>
                    <audio>
                      <samplecharacteristics>
                        <depth>16</depth>
                        <samplerate>48000</samplerate>
                      </samplecharacteristics>
                      <channelcount>2</channelcount>
                    </audio>
                  </media>
                </file>
                <link>
                  <linkclipref>clipitem-736</linkclipref>
                  <mediatype>video</mediatype>
                  <trackindex>1</trackindex>
                  <clipindex>1</clipindex>
                </link>
                <link>
                  <linkclipref>clipitem-737</linkclipref>
                  <mediatype>audio</mediatype>
                  <trackindex>1</trackindex>
                  <clipindex>1</clipindex>
                  <groupindex>1</groupindex>
                </link>
                <link>
                  <linkclipref>clipitem-738</linkclipref>
                  <mediatype>audio</mediatype>
                  <trackindex>2</trackindex>
                  <clipindex>1</clipindex>
                  <groupindex>1</groupindex>
                </link>
              </clipitem>
            </track>
          </video>
          <audio>
            <track>
              <clipitem id="clipitem-737" frameBlend="FALSE">
                <masterclipid>masterclip-242</masterclipid>
                <name>00465.MTS</name>
                <file id="file-242"/>
                <sourcetrack>
                  <mediatype>audio</mediatype>
                  <trackindex>1</trackindex>
                </sourcetrack>
                <link>
                  <linkclipref>clipitem-736</linkclipref>
                  <mediatype>video</mediatype>
                  <trackindex>1</trackindex>
                  <clipindex>1</clipindex>
                </link>
                <link>
                  <linkclipref>clipitem-737</linkclipref>
                  <mediatype>audio</mediatype>
                  <trackindex>1</trackindex>
                  <clipindex>1</clipindex>
                  <groupindex>1</groupindex>
                </link>
                <link>
                  <linkclipref>clipitem-738</linkclipref>
                  <mediatype>audio</mediatype>
                  <trackindex>2</trackindex>
                  <clipindex>1</clipindex>
                  <groupindex>1</groupindex>
                </link>
              </clipitem>
            </track>
            <track>
              <clipitem id="clipitem-738" frameBlend="FALSE">
                <masterclipid>masterclip-242</masterclipid>
                <name>00465.MTS</name>
                <file id="file-242"/>
                <sourcetrack>
                  <mediatype>audio</mediatype>
                  <trackindex>2</trackindex>
                </sourcetrack>
                <link>
                  <linkclipref>clipitem-736</linkclipref>
                  <mediatype>video</mediatype>
                  <trackindex>1</trackindex>
                  <clipindex>1</clipindex>
                </link>
                <link>
                  <linkclipref>clipitem-737</linkclipref>
                  <mediatype>audio</mediatype>
                  <trackindex>1</trackindex>
                  <clipindex>1</clipindex>
                  <groupindex>1</groupindex>
                </link>
                <link>
                  <linkclipref>clipitem-738</linkclipref>
                  <mediatype>audio</mediatype>
                  <trackindex>2</trackindex>
                  <clipindex>1</clipindex>
                  <groupindex>1</groupindex>
                </link>
              </clipitem>
            </track>
          </audio>
        </media>
        <logginginfo>
          <description/>
          <scene/>
          <shottake/>
          <lognote/>
        </logginginfo>
      </clip>
      <clip id="masterclip-243" frameBlend="FALSE">
        <uuid>b72e3440-ff1f-4c25-83ec-a354a4bcfa08</uuid>
        <masterclipid>masterclip-243</masterclipid>
        <ismasterclip>TRUE</ismasterclip>
        <duration>517</duration>
        <rate>
          <timebase>24</timebase>
          <ntsc>TRUE</ntsc>
        </rate>
        <name>00466.MTS</name>
        <media>
          <video>
            <track>
              <clipitem id="clipitem-739" frameBlend="FALSE">
                <masterclipid>masterclip-243</masterclipid>
                <name>00466.MTS</name>
                <alphatype>black</alphatype>
                <pixelaspectratio>square</pixelaspectratio>
                <anamorphic>FALSE</anamorphic>
                <file id="file-243">
                  <name>00466.MTS</name>
                  <pathurl>file://localhost/Volumes/Macintosh%20HD/Users/jacksongs/Desktop/STREAM/00466.MTS</pathurl>
                  <rate>
                    <timebase>24</timebase>
                    <ntsc>TRUE</ntsc>
                  </rate>
                  <duration>517</duration>
                  <timecode>
                    <rate>
                      <timebase>24</timebase>
                      <ntsc>TRUE</ntsc>
                    </rate>
                    <string>00:00:00:00</string>
                    <frame>0</frame>
                    <displayformat>NDF</displayformat>
                    <reel>
                      <name/>
                    </reel>
                  </timecode>
                  <media>
                    <video>
                      <duration>18000</duration>
                      <samplecharacteristics>
                        <rate>
                          <timebase>24</timebase>
                          <ntsc>TRUE</ntsc>
                        </rate>
                        <width>1920</width>
                        <height>1080</height>
                        <anamorphic>FALSE</anamorphic>
                        <pixelaspectratio>square</pixelaspectratio>
                        <fielddominance>none</fielddominance>
                      </samplecharacteristics>
                    </video>
                    <audio>
                      <samplecharacteristics>
                        <depth>16</depth>
                        <samplerate>48000</samplerate>
                      </samplecharacteristics>
                      <channelcount>2</channelcount>
                    </audio>
                  </media>
                </file>
                <link>
                  <linkclipref>clipitem-739</linkclipref>
                  <mediatype>video</mediatype>
                  <trackindex>1</trackindex>
                  <clipindex>1</clipindex>
                </link>
                <link>
                  <linkclipref>clipitem-740</linkclipref>
                  <mediatype>audio</mediatype>
                  <trackindex>1</trackindex>
                  <clipindex>1</clipindex>
                  <groupindex>1</groupindex>
                </link>
                <link>
                  <linkclipref>clipitem-741</linkclipref>
                  <mediatype>audio</mediatype>
                  <trackindex>2</trackindex>
                  <clipindex>1</clipindex>
                  <groupindex>1</groupindex>
                </link>
              </clipitem>
            </track>
          </video>
          <audio>
            <track>
              <clipitem id="clipitem-740" frameBlend="FALSE">
                <masterclipid>masterclip-243</masterclipid>
                <name>00466.MTS</name>
                <file id="file-243"/>
                <sourcetrack>
                  <mediatype>audio</mediatype>
                  <trackindex>1</trackindex>
                </sourcetrack>
                <link>
                  <linkclipref>clipitem-739</linkclipref>
                  <mediatype>video</mediatype>
                  <trackindex>1</trackindex>
                  <clipindex>1</clipindex>
                </link>
                <link>
                  <linkclipref>clipitem-740</linkclipref>
                  <mediatype>audio</mediatype>
                  <trackindex>1</trackindex>
                  <clipindex>1</clipindex>
                  <groupindex>1</groupindex>
                </link>
                <link>
                  <linkclipref>clipitem-741</linkclipref>
                  <mediatype>audio</mediatype>
                  <trackindex>2</trackindex>
                  <clipindex>1</clipindex>
                  <groupindex>1</groupindex>
                </link>
              </clipitem>
            </track>
            <track>
              <clipitem id="clipitem-741" frameBlend="FALSE">
                <masterclipid>masterclip-243</masterclipid>
                <name>00466.MTS</name>
                <file id="file-243"/>
                <sourcetrack>
                  <mediatype>audio</mediatype>
                  <trackindex>2</trackindex>
                </sourcetrack>
                <link>
                  <linkclipref>clipitem-739</linkclipref>
                  <mediatype>video</mediatype>
                  <trackindex>1</trackindex>
                  <clipindex>1</clipindex>
                </link>
                <link>
                  <linkclipref>clipitem-740</linkclipref>
                  <mediatype>audio</mediatype>
                  <trackindex>1</trackindex>
                  <clipindex>1</clipindex>
                  <groupindex>1</groupindex>
                </link>
                <link>
                  <linkclipref>clipitem-741</linkclipref>
                  <mediatype>audio</mediatype>
                  <trackindex>2</trackindex>
                  <clipindex>1</clipindex>
                  <groupindex>1</groupindex>
                </link>
              </clipitem>
            </track>
          </audio>
        </media>
        <logginginfo>
          <description/>
          <scene/>
          <shottake/>
          <lognote/>
        </logginginfo>
      </clip>
      <clip id="masterclip-244" frameBlend="FALSE">
        <uuid>929864d2-080d-4684-ac9f-388a6bf89ecd</uuid>
        <masterclipid>masterclip-244</masterclipid>
        <ismasterclip>TRUE</ismasterclip>
        <duration>157</duration>
        <rate>
          <timebase>24</timebase>
          <ntsc>TRUE</ntsc>
        </rate>
        <name>00467.MTS</name>
        <media>
          <video>
            <track>
              <clipitem id="clipitem-742" frameBlend="FALSE">
                <masterclipid>masterclip-244</masterclipid>
                <name>00467.MTS</name>
                <alphatype>black</alphatype>
                <pixelaspectratio>square</pixelaspectratio>
                <anamorphic>FALSE</anamorphic>
                <file id="file-244">
                  <name>00467.MTS</name>
                  <pathurl>file://localhost/Volumes/Macintosh%20HD/Users/jacksongs/Desktop/STREAM/00467.MTS</pathurl>
                  <rate>
                    <timebase>24</timebase>
                    <ntsc>TRUE</ntsc>
                  </rate>
                  <duration>157</duration>
                  <timecode>
                    <rate>
                      <timebase>24</timebase>
                      <ntsc>TRUE</ntsc>
                    </rate>
                    <string>00:00:00:00</string>
                    <frame>0</frame>
                    <displayformat>NDF</displayformat>
                    <reel>
                      <name/>
                    </reel>
                  </timecode>
                  <media>
                    <video>
                      <duration>18000</duration>
                      <samplecharacteristics>
                        <rate>
                          <timebase>24</timebase>
                          <ntsc>TRUE</ntsc>
                        </rate>
                        <width>1920</width>
                        <height>1080</height>
                        <anamorphic>FALSE</anamorphic>
                        <pixelaspectratio>square</pixelaspectratio>
                        <fielddominance>none</fielddominance>
                      </samplecharacteristics>
                    </video>
                    <audio>
                      <samplecharacteristics>
                        <depth>16</depth>
                        <samplerate>48000</samplerate>
                      </samplecharacteristics>
                      <channelcount>2</channelcount>
                    </audio>
                  </media>
                </file>
                <link>
                  <linkclipref>clipitem-742</linkclipref>
                  <mediatype>video</mediatype>
                  <trackindex>1</trackindex>
                  <clipindex>1</clipindex>
                </link>
                <link>
                  <linkclipref>clipitem-743</linkclipref>
                  <mediatype>audio</mediatype>
                  <trackindex>1</trackindex>
                  <clipindex>1</clipindex>
                  <groupindex>1</groupindex>
                </link>
                <link>
                  <linkclipref>clipitem-744</linkclipref>
                  <mediatype>audio</mediatype>
                  <trackindex>2</trackindex>
                  <clipindex>1</clipindex>
                  <groupindex>1</groupindex>
                </link>
              </clipitem>
            </track>
          </video>
          <audio>
            <track>
              <clipitem id="clipitem-743" frameBlend="FALSE">
                <masterclipid>masterclip-244</masterclipid>
                <name>00467.MTS</name>
                <file id="file-244"/>
                <sourcetrack>
                  <mediatype>audio</mediatype>
                  <trackindex>1</trackindex>
                </sourcetrack>
                <link>
                  <linkclipref>clipitem-742</linkclipref>
                  <mediatype>video</mediatype>
                  <trackindex>1</trackindex>
                  <clipindex>1</clipindex>
                </link>
                <link>
                  <linkclipref>clipitem-743</linkclipref>
                  <mediatype>audio</mediatype>
                  <trackindex>1</trackindex>
                  <clipindex>1</clipindex>
                  <groupindex>1</groupindex>
                </link>
                <link>
                  <linkclipref>clipitem-744</linkclipref>
                  <mediatype>audio</mediatype>
                  <trackindex>2</trackindex>
                  <clipindex>1</clipindex>
                  <groupindex>1</groupindex>
                </link>
              </clipitem>
            </track>
            <track>
              <clipitem id="clipitem-744" frameBlend="FALSE">
                <masterclipid>masterclip-244</masterclipid>
                <name>00467.MTS</name>
                <file id="file-244"/>
                <sourcetrack>
                  <mediatype>audio</mediatype>
                  <trackindex>2</trackindex>
                </sourcetrack>
                <link>
                  <linkclipref>clipitem-742</linkclipref>
                  <mediatype>video</mediatype>
                  <trackindex>1</trackindex>
                  <clipindex>1</clipindex>
                </link>
                <link>
                  <linkclipref>clipitem-743</linkclipref>
                  <mediatype>audio</mediatype>
                  <trackindex>1</trackindex>
                  <clipindex>1</clipindex>
                  <groupindex>1</groupindex>
                </link>
                <link>
                  <linkclipref>clipitem-744</linkclipref>
                  <mediatype>audio</mediatype>
                  <trackindex>2</trackindex>
                  <clipindex>1</clipindex>
                  <groupindex>1</groupindex>
                </link>
              </clipitem>
            </track>
          </audio>
        </media>
        <logginginfo>
          <description/>
          <scene/>
          <shottake/>
          <lognote/>
        </logginginfo>
      </clip>
      <clip id="masterclip-245" frameBlend="FALSE">
        <uuid>17574333-fe8f-4376-8822-8bfedeb1c0aa</uuid>
        <masterclipid>masterclip-245</masterclipid>
        <ismasterclip>TRUE</ismasterclip>
        <duration>313</duration>
        <rate>
          <timebase>24</timebase>
          <ntsc>TRUE</ntsc>
        </rate>
        <name>00468.MTS</name>
        <media>
          <video>
            <track>
              <clipitem id="clipitem-745" frameBlend="FALSE">
                <masterclipid>masterclip-245</masterclipid>
                <name>00468.MTS</name>
                <alphatype>black</alphatype>
                <pixelaspectratio>square</pixelaspectratio>
                <anamorphic>FALSE</anamorphic>
                <file id="file-245">
                  <name>00468.MTS</name>
                  <pathurl>file://localhost/Volumes/Macintosh%20HD/Users/jacksongs/Desktop/STREAM/00468.MTS</pathurl>
                  <rate>
                    <timebase>24</timebase>
                    <ntsc>TRUE</ntsc>
                  </rate>
                  <duration>313</duration>
                  <timecode>
                    <rate>
                      <timebase>24</timebase>
                      <ntsc>TRUE</ntsc>
                    </rate>
                    <string>00:00:00:00</string>
                    <frame>0</frame>
                    <displayformat>NDF</displayformat>
                    <reel>
                      <name/>
                    </reel>
                  </timecode>
                  <media>
                    <video>
                      <duration>18000</duration>
                      <samplecharacteristics>
                        <rate>
                          <timebase>24</timebase>
                          <ntsc>TRUE</ntsc>
                        </rate>
                        <width>1920</width>
                        <height>1080</height>
                        <anamorphic>FALSE</anamorphic>
                        <pixelaspectratio>square</pixelaspectratio>
                        <fielddominance>none</fielddominance>
                      </samplecharacteristics>
                    </video>
                    <audio>
                      <samplecharacteristics>
                        <depth>16</depth>
                        <samplerate>48000</samplerate>
                      </samplecharacteristics>
                      <channelcount>2</channelcount>
                    </audio>
                  </media>
                </file>
                <link>
                  <linkclipref>clipitem-745</linkclipref>
                  <mediatype>video</mediatype>
                  <trackindex>1</trackindex>
                  <clipindex>1</clipindex>
                </link>
                <link>
                  <linkclipref>clipitem-746</linkclipref>
                  <mediatype>audio</mediatype>
                  <trackindex>1</trackindex>
                  <clipindex>1</clipindex>
                  <groupindex>1</groupindex>
                </link>
                <link>
                  <linkclipref>clipitem-747</linkclipref>
                  <mediatype>audio</mediatype>
                  <trackindex>2</trackindex>
                  <clipindex>1</clipindex>
                  <groupindex>1</groupindex>
                </link>
              </clipitem>
            </track>
          </video>
          <audio>
            <track>
              <clipitem id="clipitem-746" frameBlend="FALSE">
                <masterclipid>masterclip-245</masterclipid>
                <name>00468.MTS</name>
                <file id="file-245"/>
                <sourcetrack>
                  <mediatype>audio</mediatype>
                  <trackindex>1</trackindex>
                </sourcetrack>
                <link>
                  <linkclipref>clipitem-745</linkclipref>
                  <mediatype>video</mediatype>
                  <trackindex>1</trackindex>
                  <clipindex>1</clipindex>
                </link>
                <link>
                  <linkclipref>clipitem-746</linkclipref>
                  <mediatype>audio</mediatype>
                  <trackindex>1</trackindex>
                  <clipindex>1</clipindex>
                  <groupindex>1</groupindex>
                </link>
                <link>
                  <linkclipref>clipitem-747</linkclipref>
                  <mediatype>audio</mediatype>
                  <trackindex>2</trackindex>
                  <clipindex>1</clipindex>
                  <groupindex>1</groupindex>
                </link>
              </clipitem>
            </track>
            <track>
              <clipitem id="clipitem-747" frameBlend="FALSE">
                <masterclipid>masterclip-245</masterclipid>
                <name>00468.MTS</name>
                <file id="file-245"/>
                <sourcetrack>
                  <mediatype>audio</mediatype>
                  <trackindex>2</trackindex>
                </sourcetrack>
                <link>
                  <linkclipref>clipitem-745</linkclipref>
                  <mediatype>video</mediatype>
                  <trackindex>1</trackindex>
                  <clipindex>1</clipindex>
                </link>
                <link>
                  <linkclipref>clipitem-746</linkclipref>
                  <mediatype>audio</mediatype>
                  <trackindex>1</trackindex>
                  <clipindex>1</clipindex>
                  <groupindex>1</groupindex>
                </link>
                <link>
                  <linkclipref>clipitem-747</linkclipref>
                  <mediatype>audio</mediatype>
                  <trackindex>2</trackindex>
                  <clipindex>1</clipindex>
                  <groupindex>1</groupindex>
                </link>
              </clipitem>
            </track>
          </audio>
        </media>
        <logginginfo>
          <description/>
          <scene/>
          <shottake/>
          <lognote/>
        </logginginfo>
      </clip>
      <clip id="masterclip-246" frameBlend="FALSE">
        <uuid>efae4ecc-c634-4439-9bd6-847c10a00052</uuid>
        <masterclipid>masterclip-246</masterclipid>
        <ismasterclip>TRUE</ismasterclip>
        <duration>421</duration>
        <rate>
          <timebase>24</timebase>
          <ntsc>TRUE</ntsc>
        </rate>
        <name>00469.MTS</name>
        <media>
          <video>
            <track>
              <clipitem id="clipitem-748" frameBlend="FALSE">
                <masterclipid>masterclip-246</masterclipid>
                <name>00469.MTS</name>
                <alphatype>black</alphatype>
                <pixelaspectratio>square</pixelaspectratio>
                <anamorphic>FALSE</anamorphic>
                <file id="file-246">
                  <name>00469.MTS</name>
                  <pathurl>file://localhost/Volumes/Macintosh%20HD/Users/jacksongs/Desktop/STREAM/00469.MTS</pathurl>
                  <rate>
                    <timebase>24</timebase>
                    <ntsc>TRUE</ntsc>
                  </rate>
                  <duration>421</duration>
                  <timecode>
                    <rate>
                      <timebase>24</timebase>
                      <ntsc>TRUE</ntsc>
                    </rate>
                    <string>00:00:00:00</string>
                    <frame>0</frame>
                    <displayformat>NDF</displayformat>
                    <reel>
                      <name/>
                    </reel>
                  </timecode>
                  <media>
                    <video>
                      <duration>18000</duration>
                      <samplecharacteristics>
                        <rate>
                          <timebase>24</timebase>
                          <ntsc>TRUE</ntsc>
                        </rate>
                        <width>1920</width>
                        <height>1080</height>
                        <anamorphic>FALSE</anamorphic>
                        <pixelaspectratio>square</pixelaspectratio>
                        <fielddominance>none</fielddominance>
                      </samplecharacteristics>
                    </video>
                    <audio>
                      <samplecharacteristics>
                        <depth>16</depth>
                        <samplerate>48000</samplerate>
                      </samplecharacteristics>
                      <channelcount>2</channelcount>
                    </audio>
                  </media>
                </file>
                <link>
                  <linkclipref>clipitem-748</linkclipref>
                  <mediatype>video</mediatype>
                  <trackindex>1</trackindex>
                  <clipindex>1</clipindex>
                </link>
                <link>
                  <linkclipref>clipitem-749</linkclipref>
                  <mediatype>audio</mediatype>
                  <trackindex>1</trackindex>
                  <clipindex>1</clipindex>
                  <groupindex>1</groupindex>
                </link>
                <link>
                  <linkclipref>clipitem-750</linkclipref>
                  <mediatype>audio</mediatype>
                  <trackindex>2</trackindex>
                  <clipindex>1</clipindex>
                  <groupindex>1</groupindex>
                </link>
              </clipitem>
            </track>
          </video>
          <audio>
            <track>
              <clipitem id="clipitem-749" frameBlend="FALSE">
                <masterclipid>masterclip-246</masterclipid>
                <name>00469.MTS</name>
                <file id="file-246"/>
                <sourcetrack>
                  <mediatype>audio</mediatype>
                  <trackindex>1</trackindex>
                </sourcetrack>
                <link>
                  <linkclipref>clipitem-748</linkclipref>
                  <mediatype>video</mediatype>
                  <trackindex>1</trackindex>
                  <clipindex>1</clipindex>
                </link>
                <link>
                  <linkclipref>clipitem-749</linkclipref>
                  <mediatype>audio</mediatype>
                  <trackindex>1</trackindex>
                  <clipindex>1</clipindex>
                  <groupindex>1</groupindex>
                </link>
                <link>
                  <linkclipref>clipitem-750</linkclipref>
                  <mediatype>audio</mediatype>
                  <trackindex>2</trackindex>
                  <clipindex>1</clipindex>
                  <groupindex>1</groupindex>
                </link>
              </clipitem>
            </track>
            <track>
              <clipitem id="clipitem-750" frameBlend="FALSE">
                <masterclipid>masterclip-246</masterclipid>
                <name>00469.MTS</name>
                <file id="file-246"/>
                <sourcetrack>
                  <mediatype>audio</mediatype>
                  <trackindex>2</trackindex>
                </sourcetrack>
                <link>
                  <linkclipref>clipitem-748</linkclipref>
                  <mediatype>video</mediatype>
                  <trackindex>1</trackindex>
                  <clipindex>1</clipindex>
                </link>
                <link>
                  <linkclipref>clipitem-749</linkclipref>
                  <mediatype>audio</mediatype>
                  <trackindex>1</trackindex>
                  <clipindex>1</clipindex>
                  <groupindex>1</groupindex>
                </link>
                <link>
                  <linkclipref>clipitem-750</linkclipref>
                  <mediatype>audio</mediatype>
                  <trackindex>2</trackindex>
                  <clipindex>1</clipindex>
                  <groupindex>1</groupindex>
                </link>
              </clipitem>
            </track>
          </audio>
        </media>
        <logginginfo>
          <description/>
          <scene/>
          <shottake/>
          <lognote/>
        </logginginfo>
      </clip>
      <clip id="masterclip-247" frameBlend="FALSE">
        <uuid>2b13ba5e-1da4-4429-9fb7-eb84060001b9</uuid>
        <masterclipid>masterclip-247</masterclipid>
        <ismasterclip>TRUE</ismasterclip>
        <duration>613</duration>
        <rate>
          <timebase>24</timebase>
          <ntsc>TRUE</ntsc>
        </rate>
        <name>00470.MTS</name>
        <media>
          <video>
            <track>
              <clipitem id="clipitem-751" frameBlend="FALSE">
                <masterclipid>masterclip-247</masterclipid>
                <name>00470.MTS</name>
                <alphatype>black</alphatype>
                <pixelaspectratio>square</pixelaspectratio>
                <anamorphic>FALSE</anamorphic>
                <file id="file-247">
                  <name>00470.MTS</name>
                  <pathurl>file://localhost/Volumes/Macintosh%20HD/Users/jacksongs/Desktop/STREAM/00470.MTS</pathurl>
                  <rate>
                    <timebase>24</timebase>
                    <ntsc>TRUE</ntsc>
                  </rate>
                  <duration>613</duration>
                  <timecode>
                    <rate>
                      <timebase>24</timebase>
                      <ntsc>TRUE</ntsc>
                    </rate>
                    <string>00:00:00:00</string>
                    <frame>0</frame>
                    <displayformat>NDF</displayformat>
                    <reel>
                      <name/>
                    </reel>
                  </timecode>
                  <media>
                    <video>
                      <duration>18000</duration>
                      <samplecharacteristics>
                        <rate>
                          <timebase>24</timebase>
                          <ntsc>TRUE</ntsc>
                        </rate>
                        <width>1920</width>
                        <height>1080</height>
                        <anamorphic>FALSE</anamorphic>
                        <pixelaspectratio>square</pixelaspectratio>
                        <fielddominance>none</fielddominance>
                      </samplecharacteristics>
                    </video>
                    <audio>
                      <samplecharacteristics>
                        <depth>16</depth>
                        <samplerate>48000</samplerate>
                      </samplecharacteristics>
                      <channelcount>2</channelcount>
                    </audio>
                  </media>
                </file>
                <link>
                  <linkclipref>clipitem-751</linkclipref>
                  <mediatype>video</mediatype>
                  <trackindex>1</trackindex>
                  <clipindex>1</clipindex>
                </link>
                <link>
                  <linkclipref>clipitem-752</linkclipref>
                  <mediatype>audio</mediatype>
                  <trackindex>1</trackindex>
                  <clipindex>1</clipindex>
                  <groupindex>1</groupindex>
                </link>
                <link>
                  <linkclipref>clipitem-753</linkclipref>
                  <mediatype>audio</mediatype>
                  <trackindex>2</trackindex>
                  <clipindex>1</clipindex>
                  <groupindex>1</groupindex>
                </link>
              </clipitem>
            </track>
          </video>
          <audio>
            <track>
              <clipitem id="clipitem-752" frameBlend="FALSE">
                <masterclipid>masterclip-247</masterclipid>
                <name>00470.MTS</name>
                <file id="file-247"/>
                <sourcetrack>
                  <mediatype>audio</mediatype>
                  <trackindex>1</trackindex>
                </sourcetrack>
                <link>
                  <linkclipref>clipitem-751</linkclipref>
                  <mediatype>video</mediatype>
                  <trackindex>1</trackindex>
                  <clipindex>1</clipindex>
                </link>
                <link>
                  <linkclipref>clipitem-752</linkclipref>
                  <mediatype>audio</mediatype>
                  <trackindex>1</trackindex>
                  <clipindex>1</clipindex>
                  <groupindex>1</groupindex>
                </link>
                <link>
                  <linkclipref>clipitem-753</linkclipref>
                  <mediatype>audio</mediatype>
                  <trackindex>2</trackindex>
                  <clipindex>1</clipindex>
                  <groupindex>1</groupindex>
                </link>
              </clipitem>
            </track>
            <track>
              <clipitem id="clipitem-753" frameBlend="FALSE">
                <masterclipid>masterclip-247</masterclipid>
                <name>00470.MTS</name>
                <file id="file-247"/>
                <sourcetrack>
                  <mediatype>audio</mediatype>
                  <trackindex>2</trackindex>
                </sourcetrack>
                <link>
                  <linkclipref>clipitem-751</linkclipref>
                  <mediatype>video</mediatype>
                  <trackindex>1</trackindex>
                  <clipindex>1</clipindex>
                </link>
                <link>
                  <linkclipref>clipitem-752</linkclipref>
                  <mediatype>audio</mediatype>
                  <trackindex>1</trackindex>
                  <clipindex>1</clipindex>
                  <groupindex>1</groupindex>
                </link>
                <link>
                  <linkclipref>clipitem-753</linkclipref>
                  <mediatype>audio</mediatype>
                  <trackindex>2</trackindex>
                  <clipindex>1</clipindex>
                  <groupindex>1</groupindex>
                </link>
              </clipitem>
            </track>
          </audio>
        </media>
        <logginginfo>
          <description/>
          <scene/>
          <shottake/>
          <lognote/>
        </logginginfo>
      </clip>
      <clip id="masterclip-248" frameBlend="FALSE">
        <uuid>1e943d4f-68e8-4afc-9b71-fdaac97b26b9</uuid>
        <masterclipid>masterclip-248</masterclipid>
        <ismasterclip>TRUE</ismasterclip>
        <duration>157</duration>
        <rate>
          <timebase>24</timebase>
          <ntsc>TRUE</ntsc>
        </rate>
        <name>00471.MTS</name>
        <media>
          <video>
            <track>
              <clipitem id="clipitem-754" frameBlend="FALSE">
                <masterclipid>masterclip-248</masterclipid>
                <name>00471.MTS</name>
                <alphatype>black</alphatype>
                <pixelaspectratio>square</pixelaspectratio>
                <anamorphic>FALSE</anamorphic>
                <file id="file-248">
                  <name>00471.MTS</name>
                  <pathurl>file://localhost/Volumes/Macintosh%20HD/Users/jacksongs/Desktop/STREAM/00471.MTS</pathurl>
                  <rate>
                    <timebase>24</timebase>
                    <ntsc>TRUE</ntsc>
                  </rate>
                  <duration>157</duration>
                  <timecode>
                    <rate>
                      <timebase>24</timebase>
                      <ntsc>TRUE</ntsc>
                    </rate>
                    <string>00:00:00:00</string>
                    <frame>0</frame>
                    <displayformat>NDF</displayformat>
                    <reel>
                      <name/>
                    </reel>
                  </timecode>
                  <media>
                    <video>
                      <duration>18000</duration>
                      <samplecharacteristics>
                        <rate>
                          <timebase>24</timebase>
                          <ntsc>TRUE</ntsc>
                        </rate>
                        <width>1920</width>
                        <height>1080</height>
                        <anamorphic>FALSE</anamorphic>
                        <pixelaspectratio>square</pixelaspectratio>
                        <fielddominance>none</fielddominance>
                      </samplecharacteristics>
                    </video>
                    <audio>
                      <samplecharacteristics>
                        <depth>16</depth>
                        <samplerate>48000</samplerate>
                      </samplecharacteristics>
                      <channelcount>2</channelcount>
                    </audio>
                  </media>
                </file>
                <link>
                  <linkclipref>clipitem-754</linkclipref>
                  <mediatype>video</mediatype>
                  <trackindex>1</trackindex>
                  <clipindex>1</clipindex>
                </link>
                <link>
                  <linkclipref>clipitem-755</linkclipref>
                  <mediatype>audio</mediatype>
                  <trackindex>1</trackindex>
                  <clipindex>1</clipindex>
                  <groupindex>1</groupindex>
                </link>
                <link>
                  <linkclipref>clipitem-756</linkclipref>
                  <mediatype>audio</mediatype>
                  <trackindex>2</trackindex>
                  <clipindex>1</clipindex>
                  <groupindex>1</groupindex>
                </link>
              </clipitem>
            </track>
          </video>
          <audio>
            <track>
              <clipitem id="clipitem-755" frameBlend="FALSE">
                <masterclipid>masterclip-248</masterclipid>
                <name>00471.MTS</name>
                <file id="file-248"/>
                <sourcetrack>
                  <mediatype>audio</mediatype>
                  <trackindex>1</trackindex>
                </sourcetrack>
                <link>
                  <linkclipref>clipitem-754</linkclipref>
                  <mediatype>video</mediatype>
                  <trackindex>1</trackindex>
                  <clipindex>1</clipindex>
                </link>
                <link>
                  <linkclipref>clipitem-755</linkclipref>
                  <mediatype>audio</mediatype>
                  <trackindex>1</trackindex>
                  <clipindex>1</clipindex>
                  <groupindex>1</groupindex>
                </link>
                <link>
                  <linkclipref>clipitem-756</linkclipref>
                  <mediatype>audio</mediatype>
                  <trackindex>2</trackindex>
                  <clipindex>1</clipindex>
                  <groupindex>1</groupindex>
                </link>
              </clipitem>
            </track>
            <track>
              <clipitem id="clipitem-756" frameBlend="FALSE">
                <masterclipid>masterclip-248</masterclipid>
                <name>00471.MTS</name>
                <file id="file-248"/>
                <sourcetrack>
                  <mediatype>audio</mediatype>
                  <trackindex>2</trackindex>
                </sourcetrack>
                <link>
                  <linkclipref>clipitem-754</linkclipref>
                  <mediatype>video</mediatype>
                  <trackindex>1</trackindex>
                  <clipindex>1</clipindex>
                </link>
                <link>
                  <linkclipref>clipitem-755</linkclipref>
                  <mediatype>audio</mediatype>
                  <trackindex>1</trackindex>
                  <clipindex>1</clipindex>
                  <groupindex>1</groupindex>
                </link>
                <link>
                  <linkclipref>clipitem-756</linkclipref>
                  <mediatype>audio</mediatype>
                  <trackindex>2</trackindex>
                  <clipindex>1</clipindex>
                  <groupindex>1</groupindex>
                </link>
              </clipitem>
            </track>
          </audio>
        </media>
        <logginginfo>
          <description/>
          <scene/>
          <shottake/>
          <lognote/>
        </logginginfo>
      </clip>
      <clip id="masterclip-249" frameBlend="FALSE">
        <uuid>5bf829b2-94ee-4270-aba4-af7666318929</uuid>
        <masterclipid>masterclip-249</masterclipid>
        <ismasterclip>TRUE</ismasterclip>
        <duration>325</duration>
        <rate>
          <timebase>24</timebase>
          <ntsc>TRUE</ntsc>
        </rate>
        <name>00472.MTS</name>
        <media>
          <video>
            <track>
              <clipitem id="clipitem-757" frameBlend="FALSE">
                <masterclipid>masterclip-249</masterclipid>
                <name>00472.MTS</name>
                <alphatype>black</alphatype>
                <pixelaspectratio>square</pixelaspectratio>
                <anamorphic>FALSE</anamorphic>
                <file id="file-249">
                  <name>00472.MTS</name>
                  <pathurl>file://localhost/Volumes/Macintosh%20HD/Users/jacksongs/Desktop/STREAM/00472.MTS</pathurl>
                  <rate>
                    <timebase>24</timebase>
                    <ntsc>TRUE</ntsc>
                  </rate>
                  <duration>325</duration>
                  <timecode>
                    <rate>
                      <timebase>24</timebase>
                      <ntsc>TRUE</ntsc>
                    </rate>
                    <string>00:00:00:00</string>
                    <frame>0</frame>
                    <displayformat>NDF</displayformat>
                    <reel>
                      <name/>
                    </reel>
                  </timecode>
                  <media>
                    <video>
                      <duration>18000</duration>
                      <samplecharacteristics>
                        <rate>
                          <timebase>24</timebase>
                          <ntsc>TRUE</ntsc>
                        </rate>
                        <width>1920</width>
                        <height>1080</height>
                        <anamorphic>FALSE</anamorphic>
                        <pixelaspectratio>square</pixelaspectratio>
                        <fielddominance>none</fielddominance>
                      </samplecharacteristics>
                    </video>
                    <audio>
                      <samplecharacteristics>
                        <depth>16</depth>
                        <samplerate>48000</samplerate>
                      </samplecharacteristics>
                      <channelcount>2</channelcount>
                    </audio>
                  </media>
                </file>
                <link>
                  <linkclipref>clipitem-757</linkclipref>
                  <mediatype>video</mediatype>
                  <trackindex>1</trackindex>
                  <clipindex>1</clipindex>
                </link>
                <link>
                  <linkclipref>clipitem-758</linkclipref>
                  <mediatype>audio</mediatype>
                  <trackindex>1</trackindex>
                  <clipindex>1</clipindex>
                  <groupindex>1</groupindex>
                </link>
                <link>
                  <linkclipref>clipitem-759</linkclipref>
                  <mediatype>audio</mediatype>
                  <trackindex>2</trackindex>
                  <clipindex>1</clipindex>
                  <groupindex>1</groupindex>
                </link>
              </clipitem>
            </track>
          </video>
          <audio>
            <track>
              <clipitem id="clipitem-758" frameBlend="FALSE">
                <masterclipid>masterclip-249</masterclipid>
                <name>00472.MTS</name>
                <file id="file-249"/>
                <sourcetrack>
                  <mediatype>audio</mediatype>
                  <trackindex>1</trackindex>
                </sourcetrack>
                <link>
                  <linkclipref>clipitem-757</linkclipref>
                  <mediatype>video</mediatype>
                  <trackindex>1</trackindex>
                  <clipindex>1</clipindex>
                </link>
                <link>
                  <linkclipref>clipitem-758</linkclipref>
                  <mediatype>audio</mediatype>
                  <trackindex>1</trackindex>
                  <clipindex>1</clipindex>
                  <groupindex>1</groupindex>
                </link>
                <link>
                  <linkclipref>clipitem-759</linkclipref>
                  <mediatype>audio</mediatype>
                  <trackindex>2</trackindex>
                  <clipindex>1</clipindex>
                  <groupindex>1</groupindex>
                </link>
              </clipitem>
            </track>
            <track>
              <clipitem id="clipitem-759" frameBlend="FALSE">
                <masterclipid>masterclip-249</masterclipid>
                <name>00472.MTS</name>
                <file id="file-249"/>
                <sourcetrack>
                  <mediatype>audio</mediatype>
                  <trackindex>2</trackindex>
                </sourcetrack>
                <link>
                  <linkclipref>clipitem-757</linkclipref>
                  <mediatype>video</mediatype>
                  <trackindex>1</trackindex>
                  <clipindex>1</clipindex>
                </link>
                <link>
                  <linkclipref>clipitem-758</linkclipref>
                  <mediatype>audio</mediatype>
                  <trackindex>1</trackindex>
                  <clipindex>1</clipindex>
                  <groupindex>1</groupindex>
                </link>
                <link>
                  <linkclipref>clipitem-759</linkclipref>
                  <mediatype>audio</mediatype>
                  <trackindex>2</trackindex>
                  <clipindex>1</clipindex>
                  <groupindex>1</groupindex>
                </link>
              </clipitem>
            </track>
          </audio>
        </media>
        <logginginfo>
          <description/>
          <scene/>
          <shottake/>
          <lognote/>
        </logginginfo>
      </clip>
      <clip id="masterclip-250" frameBlend="FALSE">
        <uuid>f8a80323-1bce-480a-ab8e-ad11a80b4231</uuid>
        <masterclipid>masterclip-250</masterclipid>
        <ismasterclip>TRUE</ismasterclip>
        <duration>181</duration>
        <rate>
          <timebase>24</timebase>
          <ntsc>TRUE</ntsc>
        </rate>
        <name>00473.MTS</name>
        <media>
          <video>
            <track>
              <clipitem id="clipitem-760" frameBlend="FALSE">
                <masterclipid>masterclip-250</masterclipid>
                <name>00473.MTS</name>
                <alphatype>black</alphatype>
                <pixelaspectratio>square</pixelaspectratio>
                <anamorphic>FALSE</anamorphic>
                <file id="file-250">
                  <name>00473.MTS</name>
                  <pathurl>file://localhost/Volumes/Macintosh%20HD/Users/jacksongs/Desktop/STREAM/00473.MTS</pathurl>
                  <rate>
                    <timebase>24</timebase>
                    <ntsc>TRUE</ntsc>
                  </rate>
                  <duration>181</duration>
                  <timecode>
                    <rate>
                      <timebase>24</timebase>
                      <ntsc>TRUE</ntsc>
                    </rate>
                    <string>00:00:00:00</string>
                    <frame>0</frame>
                    <displayformat>NDF</displayformat>
                    <reel>
                      <name/>
                    </reel>
                  </timecode>
                  <media>
                    <video>
                      <duration>18000</duration>
                      <samplecharacteristics>
                        <rate>
                          <timebase>24</timebase>
                          <ntsc>TRUE</ntsc>
                        </rate>
                        <width>1920</width>
                        <height>1080</height>
                        <anamorphic>FALSE</anamorphic>
                        <pixelaspectratio>square</pixelaspectratio>
                        <fielddominance>none</fielddominance>
                      </samplecharacteristics>
                    </video>
                    <audio>
                      <samplecharacteristics>
                        <depth>16</depth>
                        <samplerate>48000</samplerate>
                      </samplecharacteristics>
                      <channelcount>2</channelcount>
                    </audio>
                  </media>
                </file>
                <link>
                  <linkclipref>clipitem-760</linkclipref>
                  <mediatype>video</mediatype>
                  <trackindex>1</trackindex>
                  <clipindex>1</clipindex>
                </link>
                <link>
                  <linkclipref>clipitem-761</linkclipref>
                  <mediatype>audio</mediatype>
                  <trackindex>1</trackindex>
                  <clipindex>1</clipindex>
                  <groupindex>1</groupindex>
                </link>
                <link>
                  <linkclipref>clipitem-762</linkclipref>
                  <mediatype>audio</mediatype>
                  <trackindex>2</trackindex>
                  <clipindex>1</clipindex>
                  <groupindex>1</groupindex>
                </link>
              </clipitem>
            </track>
          </video>
          <audio>
            <track>
              <clipitem id="clipitem-761" frameBlend="FALSE">
                <masterclipid>masterclip-250</masterclipid>
                <name>00473.MTS</name>
                <file id="file-250"/>
                <sourcetrack>
                  <mediatype>audio</mediatype>
                  <trackindex>1</trackindex>
                </sourcetrack>
                <link>
                  <linkclipref>clipitem-760</linkclipref>
                  <mediatype>video</mediatype>
                  <trackindex>1</trackindex>
                  <clipindex>1</clipindex>
                </link>
                <link>
                  <linkclipref>clipitem-761</linkclipref>
                  <mediatype>audio</mediatype>
                  <trackindex>1</trackindex>
                  <clipindex>1</clipindex>
                  <groupindex>1</groupindex>
                </link>
                <link>
                  <linkclipref>clipitem-762</linkclipref>
                  <mediatype>audio</mediatype>
                  <trackindex>2</trackindex>
                  <clipindex>1</clipindex>
                  <groupindex>1</groupindex>
                </link>
              </clipitem>
            </track>
            <track>
              <clipitem id="clipitem-762" frameBlend="FALSE">
                <masterclipid>masterclip-250</masterclipid>
                <name>00473.MTS</name>
                <file id="file-250"/>
                <sourcetrack>
                  <mediatype>audio</mediatype>
                  <trackindex>2</trackindex>
                </sourcetrack>
                <link>
                  <linkclipref>clipitem-760</linkclipref>
                  <mediatype>video</mediatype>
                  <trackindex>1</trackindex>
                  <clipindex>1</clipindex>
                </link>
                <link>
                  <linkclipref>clipitem-761</linkclipref>
                  <mediatype>audio</mediatype>
                  <trackindex>1</trackindex>
                  <clipindex>1</clipindex>
                  <groupindex>1</groupindex>
                </link>
                <link>
                  <linkclipref>clipitem-762</linkclipref>
                  <mediatype>audio</mediatype>
                  <trackindex>2</trackindex>
                  <clipindex>1</clipindex>
                  <groupindex>1</groupindex>
                </link>
              </clipitem>
            </track>
          </audio>
        </media>
        <logginginfo>
          <description/>
          <scene/>
          <shottake/>
          <lognote/>
        </logginginfo>
      </clip>
      <clip id="masterclip-251" frameBlend="FALSE">
        <uuid>840f4789-16a4-4252-aea7-65cbe903945f</uuid>
        <masterclipid>masterclip-251</masterclipid>
        <ismasterclip>TRUE</ismasterclip>
        <duration>289</duration>
        <rate>
          <timebase>24</timebase>
          <ntsc>TRUE</ntsc>
        </rate>
        <name>00474.MTS</name>
        <media>
          <video>
            <track>
              <clipitem id="clipitem-763" frameBlend="FALSE">
                <masterclipid>masterclip-251</masterclipid>
                <name>00474.MTS</name>
                <alphatype>black</alphatype>
                <pixelaspectratio>square</pixelaspectratio>
                <anamorphic>FALSE</anamorphic>
                <file id="file-251">
                  <name>00474.MTS</name>
                  <pathurl>file://localhost/Volumes/Macintosh%20HD/Users/jacksongs/Desktop/STREAM/00474.MTS</pathurl>
                  <rate>
                    <timebase>24</timebase>
                    <ntsc>TRUE</ntsc>
                  </rate>
                  <duration>289</duration>
                  <timecode>
                    <rate>
                      <timebase>24</timebase>
                      <ntsc>TRUE</ntsc>
                    </rate>
                    <string>00:00:00:00</string>
                    <frame>0</frame>
                    <displayformat>NDF</displayformat>
                    <reel>
                      <name/>
                    </reel>
                  </timecode>
                  <media>
                    <video>
                      <duration>18000</duration>
                      <samplecharacteristics>
                        <rate>
                          <timebase>24</timebase>
                          <ntsc>TRUE</ntsc>
                        </rate>
                        <width>1920</width>
                        <height>1080</height>
                        <anamorphic>FALSE</anamorphic>
                        <pixelaspectratio>square</pixelaspectratio>
                        <fielddominance>none</fielddominance>
                      </samplecharacteristics>
                    </video>
                    <audio>
                      <samplecharacteristics>
                        <depth>16</depth>
                        <samplerate>48000</samplerate>
                      </samplecharacteristics>
                      <channelcount>2</channelcount>
                    </audio>
                  </media>
                </file>
                <link>
                  <linkclipref>clipitem-763</linkclipref>
                  <mediatype>video</mediatype>
                  <trackindex>1</trackindex>
                  <clipindex>1</clipindex>
                </link>
                <link>
                  <linkclipref>clipitem-764</linkclipref>
                  <mediatype>audio</mediatype>
                  <trackindex>1</trackindex>
                  <clipindex>1</clipindex>
                  <groupindex>1</groupindex>
                </link>
                <link>
                  <linkclipref>clipitem-765</linkclipref>
                  <mediatype>audio</mediatype>
                  <trackindex>2</trackindex>
                  <clipindex>1</clipindex>
                  <groupindex>1</groupindex>
                </link>
              </clipitem>
            </track>
          </video>
          <audio>
            <track>
              <clipitem id="clipitem-764" frameBlend="FALSE">
                <masterclipid>masterclip-251</masterclipid>
                <name>00474.MTS</name>
                <file id="file-251"/>
                <sourcetrack>
                  <mediatype>audio</mediatype>
                  <trackindex>1</trackindex>
                </sourcetrack>
                <link>
                  <linkclipref>clipitem-763</linkclipref>
                  <mediatype>video</mediatype>
                  <trackindex>1</trackindex>
                  <clipindex>1</clipindex>
                </link>
                <link>
                  <linkclipref>clipitem-764</linkclipref>
                  <mediatype>audio</mediatype>
                  <trackindex>1</trackindex>
                  <clipindex>1</clipindex>
                  <groupindex>1</groupindex>
                </link>
                <link>
                  <linkclipref>clipitem-765</linkclipref>
                  <mediatype>audio</mediatype>
                  <trackindex>2</trackindex>
                  <clipindex>1</clipindex>
                  <groupindex>1</groupindex>
                </link>
              </clipitem>
            </track>
            <track>
              <clipitem id="clipitem-765" frameBlend="FALSE">
                <masterclipid>masterclip-251</masterclipid>
                <name>00474.MTS</name>
                <file id="file-251"/>
                <sourcetrack>
                  <mediatype>audio</mediatype>
                  <trackindex>2</trackindex>
                </sourcetrack>
                <link>
                  <linkclipref>clipitem-763</linkclipref>
                  <mediatype>video</mediatype>
                  <trackindex>1</trackindex>
                  <clipindex>1</clipindex>
                </link>
                <link>
                  <linkclipref>clipitem-764</linkclipref>
                  <mediatype>audio</mediatype>
                  <trackindex>1</trackindex>
                  <clipindex>1</clipindex>
                  <groupindex>1</groupindex>
                </link>
                <link>
                  <linkclipref>clipitem-765</linkclipref>
                  <mediatype>audio</mediatype>
                  <trackindex>2</trackindex>
                  <clipindex>1</clipindex>
                  <groupindex>1</groupindex>
                </link>
              </clipitem>
            </track>
          </audio>
        </media>
        <logginginfo>
          <description/>
          <scene/>
          <shottake/>
          <lognote/>
        </logginginfo>
      </clip>
      <clip id="masterclip-252" frameBlend="FALSE">
        <uuid>3d152894-bde4-4da1-b244-8cd0999240ba</uuid>
        <masterclipid>masterclip-252</masterclipid>
        <ismasterclip>TRUE</ismasterclip>
        <duration>253</duration>
        <rate>
          <timebase>24</timebase>
          <ntsc>TRUE</ntsc>
        </rate>
        <name>00475.MTS</name>
        <media>
          <video>
            <track>
              <clipitem id="clipitem-766" frameBlend="FALSE">
                <masterclipid>masterclip-252</masterclipid>
                <name>00475.MTS</name>
                <alphatype>black</alphatype>
                <pixelaspectratio>square</pixelaspectratio>
                <anamorphic>FALSE</anamorphic>
                <file id="file-252">
                  <name>00475.MTS</name>
                  <pathurl>file://localhost/Volumes/Macintosh%20HD/Users/jacksongs/Desktop/STREAM/00475.MTS</pathurl>
                  <rate>
                    <timebase>24</timebase>
                    <ntsc>TRUE</ntsc>
                  </rate>
                  <duration>253</duration>
                  <timecode>
                    <rate>
                      <timebase>24</timebase>
                      <ntsc>TRUE</ntsc>
                    </rate>
                    <string>00:00:00:00</string>
                    <frame>0</frame>
                    <displayformat>NDF</displayformat>
                    <reel>
                      <name/>
                    </reel>
                  </timecode>
                  <media>
                    <video>
                      <duration>18000</duration>
                      <samplecharacteristics>
                        <rate>
                          <timebase>24</timebase>
                          <ntsc>TRUE</ntsc>
                        </rate>
                        <width>1920</width>
                        <height>1080</height>
                        <anamorphic>FALSE</anamorphic>
                        <pixelaspectratio>square</pixelaspectratio>
                        <fielddominance>none</fielddominance>
                      </samplecharacteristics>
                    </video>
                    <audio>
                      <samplecharacteristics>
                        <depth>16</depth>
                        <samplerate>48000</samplerate>
                      </samplecharacteristics>
                      <channelcount>2</channelcount>
                    </audio>
                  </media>
                </file>
                <link>
                  <linkclipref>clipitem-766</linkclipref>
                  <mediatype>video</mediatype>
                  <trackindex>1</trackindex>
                  <clipindex>1</clipindex>
                </link>
                <link>
                  <linkclipref>clipitem-767</linkclipref>
                  <mediatype>audio</mediatype>
                  <trackindex>1</trackindex>
                  <clipindex>1</clipindex>
                  <groupindex>1</groupindex>
                </link>
                <link>
                  <linkclipref>clipitem-768</linkclipref>
                  <mediatype>audio</mediatype>
                  <trackindex>2</trackindex>
                  <clipindex>1</clipindex>
                  <groupindex>1</groupindex>
                </link>
              </clipitem>
            </track>
          </video>
          <audio>
            <track>
              <clipitem id="clipitem-767" frameBlend="FALSE">
                <masterclipid>masterclip-252</masterclipid>
                <name>00475.MTS</name>
                <file id="file-252"/>
                <sourcetrack>
                  <mediatype>audio</mediatype>
                  <trackindex>1</trackindex>
                </sourcetrack>
                <link>
                  <linkclipref>clipitem-766</linkclipref>
                  <mediatype>video</mediatype>
                  <trackindex>1</trackindex>
                  <clipindex>1</clipindex>
                </link>
                <link>
                  <linkclipref>clipitem-767</linkclipref>
                  <mediatype>audio</mediatype>
                  <trackindex>1</trackindex>
                  <clipindex>1</clipindex>
                  <groupindex>1</groupindex>
                </link>
                <link>
                  <linkclipref>clipitem-768</linkclipref>
                  <mediatype>audio</mediatype>
                  <trackindex>2</trackindex>
                  <clipindex>1</clipindex>
                  <groupindex>1</groupindex>
                </link>
              </clipitem>
            </track>
            <track>
              <clipitem id="clipitem-768" frameBlend="FALSE">
                <masterclipid>masterclip-252</masterclipid>
                <name>00475.MTS</name>
                <file id="file-252"/>
                <sourcetrack>
                  <mediatype>audio</mediatype>
                  <trackindex>2</trackindex>
                </sourcetrack>
                <link>
                  <linkclipref>clipitem-766</linkclipref>
                  <mediatype>video</mediatype>
                  <trackindex>1</trackindex>
                  <clipindex>1</clipindex>
                </link>
                <link>
                  <linkclipref>clipitem-767</linkclipref>
                  <mediatype>audio</mediatype>
                  <trackindex>1</trackindex>
                  <clipindex>1</clipindex>
                  <groupindex>1</groupindex>
                </link>
                <link>
                  <linkclipref>clipitem-768</linkclipref>
                  <mediatype>audio</mediatype>
                  <trackindex>2</trackindex>
                  <clipindex>1</clipindex>
                  <groupindex>1</groupindex>
                </link>
              </clipitem>
            </track>
          </audio>
        </media>
        <logginginfo>
          <description/>
          <scene/>
          <shottake/>
          <lognote/>
        </logginginfo>
      </clip>
      <clip id="masterclip-253" frameBlend="FALSE">
        <uuid>3a4d3b17-8aac-43c3-a428-a27f30ed61b1</uuid>
        <masterclipid>masterclip-253</masterclipid>
        <ismasterclip>TRUE</ismasterclip>
        <duration>241</duration>
        <rate>
          <timebase>24</timebase>
          <ntsc>TRUE</ntsc>
        </rate>
        <name>00476.MTS</name>
        <media>
          <video>
            <track>
              <clipitem id="clipitem-769" frameBlend="FALSE">
                <masterclipid>masterclip-253</masterclipid>
                <name>00476.MTS</name>
                <alphatype>black</alphatype>
                <pixelaspectratio>square</pixelaspectratio>
                <anamorphic>FALSE</anamorphic>
                <file id="file-253">
                  <name>00476.MTS</name>
                  <pathurl>file://localhost/Volumes/Macintosh%20HD/Users/jacksongs/Desktop/STREAM/00476.MTS</pathurl>
                  <rate>
                    <timebase>24</timebase>
                    <ntsc>TRUE</ntsc>
                  </rate>
                  <duration>241</duration>
                  <timecode>
                    <rate>
                      <timebase>24</timebase>
                      <ntsc>TRUE</ntsc>
                    </rate>
                    <string>00:00:00:00</string>
                    <frame>0</frame>
                    <displayformat>NDF</displayformat>
                    <reel>
                      <name/>
                    </reel>
                  </timecode>
                  <media>
                    <video>
                      <duration>18000</duration>
                      <samplecharacteristics>
                        <rate>
                          <timebase>24</timebase>
                          <ntsc>TRUE</ntsc>
                        </rate>
                        <width>1920</width>
                        <height>1080</height>
                        <anamorphic>FALSE</anamorphic>
                        <pixelaspectratio>square</pixelaspectratio>
                        <fielddominance>none</fielddominance>
                      </samplecharacteristics>
                    </video>
                    <audio>
                      <samplecharacteristics>
                        <depth>16</depth>
                        <samplerate>48000</samplerate>
                      </samplecharacteristics>
                      <channelcount>2</channelcount>
                    </audio>
                  </media>
                </file>
                <link>
                  <linkclipref>clipitem-769</linkclipref>
                  <mediatype>video</mediatype>
                  <trackindex>1</trackindex>
                  <clipindex>1</clipindex>
                </link>
                <link>
                  <linkclipref>clipitem-770</linkclipref>
                  <mediatype>audio</mediatype>
                  <trackindex>1</trackindex>
                  <clipindex>1</clipindex>
                  <groupindex>1</groupindex>
                </link>
                <link>
                  <linkclipref>clipitem-771</linkclipref>
                  <mediatype>audio</mediatype>
                  <trackindex>2</trackindex>
                  <clipindex>1</clipindex>
                  <groupindex>1</groupindex>
                </link>
              </clipitem>
            </track>
          </video>
          <audio>
            <track>
              <clipitem id="clipitem-770" frameBlend="FALSE">
                <masterclipid>masterclip-253</masterclipid>
                <name>00476.MTS</name>
                <file id="file-253"/>
                <sourcetrack>
                  <mediatype>audio</mediatype>
                  <trackindex>1</trackindex>
                </sourcetrack>
                <link>
                  <linkclipref>clipitem-769</linkclipref>
                  <mediatype>video</mediatype>
                  <trackindex>1</trackindex>
                  <clipindex>1</clipindex>
                </link>
                <link>
                  <linkclipref>clipitem-770</linkclipref>
                  <mediatype>audio</mediatype>
                  <trackindex>1</trackindex>
                  <clipindex>1</clipindex>
                  <groupindex>1</groupindex>
                </link>
                <link>
                  <linkclipref>clipitem-771</linkclipref>
                  <mediatype>audio</mediatype>
                  <trackindex>2</trackindex>
                  <clipindex>1</clipindex>
                  <groupindex>1</groupindex>
                </link>
              </clipitem>
            </track>
            <track>
              <clipitem id="clipitem-771" frameBlend="FALSE">
                <masterclipid>masterclip-253</masterclipid>
                <name>00476.MTS</name>
                <file id="file-253"/>
                <sourcetrack>
                  <mediatype>audio</mediatype>
                  <trackindex>2</trackindex>
                </sourcetrack>
                <link>
                  <linkclipref>clipitem-769</linkclipref>
                  <mediatype>video</mediatype>
                  <trackindex>1</trackindex>
                  <clipindex>1</clipindex>
                </link>
                <link>
                  <linkclipref>clipitem-770</linkclipref>
                  <mediatype>audio</mediatype>
                  <trackindex>1</trackindex>
                  <clipindex>1</clipindex>
                  <groupindex>1</groupindex>
                </link>
                <link>
                  <linkclipref>clipitem-771</linkclipref>
                  <mediatype>audio</mediatype>
                  <trackindex>2</trackindex>
                  <clipindex>1</clipindex>
                  <groupindex>1</groupindex>
                </link>
              </clipitem>
            </track>
          </audio>
        </media>
        <logginginfo>
          <description/>
          <scene/>
          <shottake/>
          <lognote/>
        </logginginfo>
      </clip>
      <clip id="masterclip-254" frameBlend="FALSE">
        <uuid>6af95c37-121f-4da4-99d1-e62e6c5dc88f</uuid>
        <masterclipid>masterclip-254</masterclipid>
        <ismasterclip>TRUE</ismasterclip>
        <duration>181</duration>
        <rate>
          <timebase>24</timebase>
          <ntsc>TRUE</ntsc>
        </rate>
        <name>00477.MTS</name>
        <media>
          <video>
            <track>
              <clipitem id="clipitem-772" frameBlend="FALSE">
                <masterclipid>masterclip-254</masterclipid>
                <name>00477.MTS</name>
                <alphatype>black</alphatype>
                <pixelaspectratio>square</pixelaspectratio>
                <anamorphic>FALSE</anamorphic>
                <file id="file-254">
                  <name>00477.MTS</name>
                  <pathurl>file://localhost/Volumes/Macintosh%20HD/Users/jacksongs/Desktop/STREAM/00477.MTS</pathurl>
                  <rate>
                    <timebase>24</timebase>
                    <ntsc>TRUE</ntsc>
                  </rate>
                  <duration>181</duration>
                  <timecode>
                    <rate>
                      <timebase>24</timebase>
                      <ntsc>TRUE</ntsc>
                    </rate>
                    <string>00:00:00:00</string>
                    <frame>0</frame>
                    <displayformat>NDF</displayformat>
                    <reel>
                      <name/>
                    </reel>
                  </timecode>
                  <media>
                    <video>
                      <duration>18000</duration>
                      <samplecharacteristics>
                        <rate>
                          <timebase>24</timebase>
                          <ntsc>TRUE</ntsc>
                        </rate>
                        <width>1920</width>
                        <height>1080</height>
                        <anamorphic>FALSE</anamorphic>
                        <pixelaspectratio>square</pixelaspectratio>
                        <fielddominance>none</fielddominance>
                      </samplecharacteristics>
                    </video>
                    <audio>
                      <samplecharacteristics>
                        <depth>16</depth>
                        <samplerate>48000</samplerate>
                      </samplecharacteristics>
                      <channelcount>2</channelcount>
                    </audio>
                  </media>
                </file>
                <link>
                  <linkclipref>clipitem-772</linkclipref>
                  <mediatype>video</mediatype>
                  <trackindex>1</trackindex>
                  <clipindex>1</clipindex>
                </link>
                <link>
                  <linkclipref>clipitem-773</linkclipref>
                  <mediatype>audio</mediatype>
                  <trackindex>1</trackindex>
                  <clipindex>1</clipindex>
                  <groupindex>1</groupindex>
                </link>
                <link>
                  <linkclipref>clipitem-774</linkclipref>
                  <mediatype>audio</mediatype>
                  <trackindex>2</trackindex>
                  <clipindex>1</clipindex>
                  <groupindex>1</groupindex>
                </link>
              </clipitem>
            </track>
          </video>
          <audio>
            <track>
              <clipitem id="clipitem-773" frameBlend="FALSE">
                <masterclipid>masterclip-254</masterclipid>
                <name>00477.MTS</name>
                <file id="file-254"/>
                <sourcetrack>
                  <mediatype>audio</mediatype>
                  <trackindex>1</trackindex>
                </sourcetrack>
                <link>
                  <linkclipref>clipitem-772</linkclipref>
                  <mediatype>video</mediatype>
                  <trackindex>1</trackindex>
                  <clipindex>1</clipindex>
                </link>
                <link>
                  <linkclipref>clipitem-773</linkclipref>
                  <mediatype>audio</mediatype>
                  <trackindex>1</trackindex>
                  <clipindex>1</clipindex>
                  <groupindex>1</groupindex>
                </link>
                <link>
                  <linkclipref>clipitem-774</linkclipref>
                  <mediatype>audio</mediatype>
                  <trackindex>2</trackindex>
                  <clipindex>1</clipindex>
                  <groupindex>1</groupindex>
                </link>
              </clipitem>
            </track>
            <track>
              <clipitem id="clipitem-774" frameBlend="FALSE">
                <masterclipid>masterclip-254</masterclipid>
                <name>00477.MTS</name>
                <file id="file-254"/>
                <sourcetrack>
                  <mediatype>audio</mediatype>
                  <trackindex>2</trackindex>
                </sourcetrack>
                <link>
                  <linkclipref>clipitem-772</linkclipref>
                  <mediatype>video</mediatype>
                  <trackindex>1</trackindex>
                  <clipindex>1</clipindex>
                </link>
                <link>
                  <linkclipref>clipitem-773</linkclipref>
                  <mediatype>audio</mediatype>
                  <trackindex>1</trackindex>
                  <clipindex>1</clipindex>
                  <groupindex>1</groupindex>
                </link>
                <link>
                  <linkclipref>clipitem-774</linkclipref>
                  <mediatype>audio</mediatype>
                  <trackindex>2</trackindex>
                  <clipindex>1</clipindex>
                  <groupindex>1</groupindex>
                </link>
              </clipitem>
            </track>
          </audio>
        </media>
        <logginginfo>
          <description/>
          <scene/>
          <shottake/>
          <lognote/>
        </logginginfo>
      </clip>
      <clip id="masterclip-255" frameBlend="FALSE">
        <uuid>d34c622f-f488-4ea5-8417-1cea84355d97</uuid>
        <masterclipid>masterclip-255</masterclipid>
        <ismasterclip>TRUE</ismasterclip>
        <duration>133</duration>
        <rate>
          <timebase>24</timebase>
          <ntsc>TRUE</ntsc>
        </rate>
        <name>00478.MTS</name>
        <media>
          <video>
            <track>
              <clipitem id="clipitem-775" frameBlend="FALSE">
                <masterclipid>masterclip-255</masterclipid>
                <name>00478.MTS</name>
                <alphatype>black</alphatype>
                <pixelaspectratio>square</pixelaspectratio>
                <anamorphic>FALSE</anamorphic>
                <file id="file-255">
                  <name>00478.MTS</name>
                  <pathurl>file://localhost/Volumes/Macintosh%20HD/Users/jacksongs/Desktop/STREAM/00478.MTS</pathurl>
                  <rate>
                    <timebase>24</timebase>
                    <ntsc>TRUE</ntsc>
                  </rate>
                  <duration>133</duration>
                  <timecode>
                    <rate>
                      <timebase>24</timebase>
                      <ntsc>TRUE</ntsc>
                    </rate>
                    <string>00:00:00:00</string>
                    <frame>0</frame>
                    <displayformat>NDF</displayformat>
                    <reel>
                      <name/>
                    </reel>
                  </timecode>
                  <media>
                    <video>
                      <duration>18000</duration>
                      <samplecharacteristics>
                        <rate>
                          <timebase>24</timebase>
                          <ntsc>TRUE</ntsc>
                        </rate>
                        <width>1920</width>
                        <height>1080</height>
                        <anamorphic>FALSE</anamorphic>
                        <pixelaspectratio>square</pixelaspectratio>
                        <fielddominance>none</fielddominance>
                      </samplecharacteristics>
                    </video>
                    <audio>
                      <samplecharacteristics>
                        <depth>16</depth>
                        <samplerate>48000</samplerate>
                      </samplecharacteristics>
                      <channelcount>2</channelcount>
                    </audio>
                  </media>
                </file>
                <link>
                  <linkclipref>clipitem-775</linkclipref>
                  <mediatype>video</mediatype>
                  <trackindex>1</trackindex>
                  <clipindex>1</clipindex>
                </link>
                <link>
                  <linkclipref>clipitem-776</linkclipref>
                  <mediatype>audio</mediatype>
                  <trackindex>1</trackindex>
                  <clipindex>1</clipindex>
                  <groupindex>1</groupindex>
                </link>
                <link>
                  <linkclipref>clipitem-777</linkclipref>
                  <mediatype>audio</mediatype>
                  <trackindex>2</trackindex>
                  <clipindex>1</clipindex>
                  <groupindex>1</groupindex>
                </link>
              </clipitem>
            </track>
          </video>
          <audio>
            <track>
              <clipitem id="clipitem-776" frameBlend="FALSE">
                <masterclipid>masterclip-255</masterclipid>
                <name>00478.MTS</name>
                <file id="file-255"/>
                <sourcetrack>
                  <mediatype>audio</mediatype>
                  <trackindex>1</trackindex>
                </sourcetrack>
                <link>
                  <linkclipref>clipitem-775</linkclipref>
                  <mediatype>video</mediatype>
                  <trackindex>1</trackindex>
                  <clipindex>1</clipindex>
                </link>
                <link>
                  <linkclipref>clipitem-776</linkclipref>
                  <mediatype>audio</mediatype>
                  <trackindex>1</trackindex>
                  <clipindex>1</clipindex>
                  <groupindex>1</groupindex>
                </link>
                <link>
                  <linkclipref>clipitem-777</linkclipref>
                  <mediatype>audio</mediatype>
                  <trackindex>2</trackindex>
                  <clipindex>1</clipindex>
                  <groupindex>1</groupindex>
                </link>
              </clipitem>
            </track>
            <track>
              <clipitem id="clipitem-777" frameBlend="FALSE">
                <masterclipid>masterclip-255</masterclipid>
                <name>00478.MTS</name>
                <file id="file-255"/>
                <sourcetrack>
                  <mediatype>audio</mediatype>
                  <trackindex>2</trackindex>
                </sourcetrack>
                <link>
                  <linkclipref>clipitem-775</linkclipref>
                  <mediatype>video</mediatype>
                  <trackindex>1</trackindex>
                  <clipindex>1</clipindex>
                </link>
                <link>
                  <linkclipref>clipitem-776</linkclipref>
                  <mediatype>audio</mediatype>
                  <trackindex>1</trackindex>
                  <clipindex>1</clipindex>
                  <groupindex>1</groupindex>
                </link>
                <link>
                  <linkclipref>clipitem-777</linkclipref>
                  <mediatype>audio</mediatype>
                  <trackindex>2</trackindex>
                  <clipindex>1</clipindex>
                  <groupindex>1</groupindex>
                </link>
              </clipitem>
            </track>
          </audio>
        </media>
        <logginginfo>
          <description/>
          <scene/>
          <shottake/>
          <lognote/>
        </logginginfo>
      </clip>
      <clip id="masterclip-256" frameBlend="FALSE">
        <uuid>db0da9d6-dd75-4db7-9e9c-22d7aaabee72</uuid>
        <masterclipid>masterclip-256</masterclipid>
        <ismasterclip>TRUE</ismasterclip>
        <duration>733</duration>
        <rate>
          <timebase>24</timebase>
          <ntsc>TRUE</ntsc>
        </rate>
        <name>00479.MTS</name>
        <media>
          <video>
            <track>
              <clipitem id="clipitem-778" frameBlend="FALSE">
                <masterclipid>masterclip-256</masterclipid>
                <name>00479.MTS</name>
                <alphatype>black</alphatype>
                <pixelaspectratio>square</pixelaspectratio>
                <anamorphic>FALSE</anamorphic>
                <file id="file-256">
                  <name>00479.MTS</name>
                  <pathurl>file://localhost/Volumes/Macintosh%20HD/Users/jacksongs/Desktop/STREAM/00479.MTS</pathurl>
                  <rate>
                    <timebase>24</timebase>
                    <ntsc>TRUE</ntsc>
                  </rate>
                  <duration>733</duration>
                  <timecode>
                    <rate>
                      <timebase>24</timebase>
                      <ntsc>TRUE</ntsc>
                    </rate>
                    <string>00:00:00:00</string>
                    <frame>0</frame>
                    <displayformat>NDF</displayformat>
                    <reel>
                      <name/>
                    </reel>
                  </timecode>
                  <media>
                    <video>
                      <duration>18000</duration>
                      <samplecharacteristics>
                        <rate>
                          <timebase>24</timebase>
                          <ntsc>TRUE</ntsc>
                        </rate>
                        <width>1920</width>
                        <height>1080</height>
                        <anamorphic>FALSE</anamorphic>
                        <pixelaspectratio>square</pixelaspectratio>
                        <fielddominance>none</fielddominance>
                      </samplecharacteristics>
                    </video>
                    <audio>
                      <samplecharacteristics>
                        <depth>16</depth>
                        <samplerate>48000</samplerate>
                      </samplecharacteristics>
                      <channelcount>2</channelcount>
                    </audio>
                  </media>
                </file>
                <link>
                  <linkclipref>clipitem-778</linkclipref>
                  <mediatype>video</mediatype>
                  <trackindex>1</trackindex>
                  <clipindex>1</clipindex>
                </link>
                <link>
                  <linkclipref>clipitem-779</linkclipref>
                  <mediatype>audio</mediatype>
                  <trackindex>1</trackindex>
                  <clipindex>1</clipindex>
                  <groupindex>1</groupindex>
                </link>
                <link>
                  <linkclipref>clipitem-780</linkclipref>
                  <mediatype>audio</mediatype>
                  <trackindex>2</trackindex>
                  <clipindex>1</clipindex>
                  <groupindex>1</groupindex>
                </link>
              </clipitem>
            </track>
          </video>
          <audio>
            <track>
              <clipitem id="clipitem-779" frameBlend="FALSE">
                <masterclipid>masterclip-256</masterclipid>
                <name>00479.MTS</name>
                <file id="file-256"/>
                <sourcetrack>
                  <mediatype>audio</mediatype>
                  <trackindex>1</trackindex>
                </sourcetrack>
                <link>
                  <linkclipref>clipitem-778</linkclipref>
                  <mediatype>video</mediatype>
                  <trackindex>1</trackindex>
                  <clipindex>1</clipindex>
                </link>
                <link>
                  <linkclipref>clipitem-779</linkclipref>
                  <mediatype>audio</mediatype>
                  <trackindex>1</trackindex>
                  <clipindex>1</clipindex>
                  <groupindex>1</groupindex>
                </link>
                <link>
                  <linkclipref>clipitem-780</linkclipref>
                  <mediatype>audio</mediatype>
                  <trackindex>2</trackindex>
                  <clipindex>1</clipindex>
                  <groupindex>1</groupindex>
                </link>
              </clipitem>
            </track>
            <track>
              <clipitem id="clipitem-780" frameBlend="FALSE">
                <masterclipid>masterclip-256</masterclipid>
                <name>00479.MTS</name>
                <file id="file-256"/>
                <sourcetrack>
                  <mediatype>audio</mediatype>
                  <trackindex>2</trackindex>
                </sourcetrack>
                <link>
                  <linkclipref>clipitem-778</linkclipref>
                  <mediatype>video</mediatype>
                  <trackindex>1</trackindex>
                  <clipindex>1</clipindex>
                </link>
                <link>
                  <linkclipref>clipitem-779</linkclipref>
                  <mediatype>audio</mediatype>
                  <trackindex>1</trackindex>
                  <clipindex>1</clipindex>
                  <groupindex>1</groupindex>
                </link>
                <link>
                  <linkclipref>clipitem-780</linkclipref>
                  <mediatype>audio</mediatype>
                  <trackindex>2</trackindex>
                  <clipindex>1</clipindex>
                  <groupindex>1</groupindex>
                </link>
              </clipitem>
            </track>
          </audio>
        </media>
        <logginginfo>
          <description/>
          <scene/>
          <shottake/>
          <lognote/>
        </logginginfo>
      </clip>
      <clip id="masterclip-257" frameBlend="FALSE">
        <uuid>121da957-ade3-4a2a-8cee-c7cfaf91d292</uuid>
        <masterclipid>masterclip-257</masterclipid>
        <ismasterclip>TRUE</ismasterclip>
        <duration>241</duration>
        <rate>
          <timebase>24</timebase>
          <ntsc>TRUE</ntsc>
        </rate>
        <name>00480.MTS</name>
        <media>
          <video>
            <track>
              <clipitem id="clipitem-781" frameBlend="FALSE">
                <masterclipid>masterclip-257</masterclipid>
                <name>00480.MTS</name>
                <alphatype>black</alphatype>
                <pixelaspectratio>square</pixelaspectratio>
                <anamorphic>FALSE</anamorphic>
                <file id="file-257">
                  <name>00480.MTS</name>
                  <pathurl>file://localhost/Volumes/Macintosh%20HD/Users/jacksongs/Desktop/STREAM/00480.MTS</pathurl>
                  <rate>
                    <timebase>24</timebase>
                    <ntsc>TRUE</ntsc>
                  </rate>
                  <duration>241</duration>
                  <timecode>
                    <rate>
                      <timebase>24</timebase>
                      <ntsc>TRUE</ntsc>
                    </rate>
                    <string>00:00:00:00</string>
                    <frame>0</frame>
                    <displayformat>NDF</displayformat>
                    <reel>
                      <name/>
                    </reel>
                  </timecode>
                  <media>
                    <video>
                      <duration>18000</duration>
                      <samplecharacteristics>
                        <rate>
                          <timebase>24</timebase>
                          <ntsc>TRUE</ntsc>
                        </rate>
                        <width>1920</width>
                        <height>1080</height>
                        <anamorphic>FALSE</anamorphic>
                        <pixelaspectratio>square</pixelaspectratio>
                        <fielddominance>none</fielddominance>
                      </samplecharacteristics>
                    </video>
                    <audio>
                      <samplecharacteristics>
                        <depth>16</depth>
                        <samplerate>48000</samplerate>
                      </samplecharacteristics>
                      <channelcount>2</channelcount>
                    </audio>
                  </media>
                </file>
                <link>
                  <linkclipref>clipitem-781</linkclipref>
                  <mediatype>video</mediatype>
                  <trackindex>1</trackindex>
                  <clipindex>1</clipindex>
                </link>
                <link>
                  <linkclipref>clipitem-782</linkclipref>
                  <mediatype>audio</mediatype>
                  <trackindex>1</trackindex>
                  <clipindex>1</clipindex>
                  <groupindex>1</groupindex>
                </link>
                <link>
                  <linkclipref>clipitem-783</linkclipref>
                  <mediatype>audio</mediatype>
                  <trackindex>2</trackindex>
                  <clipindex>1</clipindex>
                  <groupindex>1</groupindex>
                </link>
              </clipitem>
            </track>
          </video>
          <audio>
            <track>
              <clipitem id="clipitem-782" frameBlend="FALSE">
                <masterclipid>masterclip-257</masterclipid>
                <name>00480.MTS</name>
                <file id="file-257"/>
                <sourcetrack>
                  <mediatype>audio</mediatype>
                  <trackindex>1</trackindex>
                </sourcetrack>
                <link>
                  <linkclipref>clipitem-781</linkclipref>
                  <mediatype>video</mediatype>
                  <trackindex>1</trackindex>
                  <clipindex>1</clipindex>
                </link>
                <link>
                  <linkclipref>clipitem-782</linkclipref>
                  <mediatype>audio</mediatype>
                  <trackindex>1</trackindex>
                  <clipindex>1</clipindex>
                  <groupindex>1</groupindex>
                </link>
                <link>
                  <linkclipref>clipitem-783</linkclipref>
                  <mediatype>audio</mediatype>
                  <trackindex>2</trackindex>
                  <clipindex>1</clipindex>
                  <groupindex>1</groupindex>
                </link>
              </clipitem>
            </track>
            <track>
              <clipitem id="clipitem-783" frameBlend="FALSE">
                <masterclipid>masterclip-257</masterclipid>
                <name>00480.MTS</name>
                <file id="file-257"/>
                <sourcetrack>
                  <mediatype>audio</mediatype>
                  <trackindex>2</trackindex>
                </sourcetrack>
                <link>
                  <linkclipref>clipitem-781</linkclipref>
                  <mediatype>video</mediatype>
                  <trackindex>1</trackindex>
                  <clipindex>1</clipindex>
                </link>
                <link>
                  <linkclipref>clipitem-782</linkclipref>
                  <mediatype>audio</mediatype>
                  <trackindex>1</trackindex>
                  <clipindex>1</clipindex>
                  <groupindex>1</groupindex>
                </link>
                <link>
                  <linkclipref>clipitem-783</linkclipref>
                  <mediatype>audio</mediatype>
                  <trackindex>2</trackindex>
                  <clipindex>1</clipindex>
                  <groupindex>1</groupindex>
                </link>
              </clipitem>
            </track>
          </audio>
        </media>
        <logginginfo>
          <description/>
          <scene/>
          <shottake/>
          <lognote/>
        </logginginfo>
      </clip>
      <clip id="masterclip-258" frameBlend="FALSE">
        <uuid>15dcc448-e660-49d3-b7c3-8290904dfab5</uuid>
        <masterclipid>masterclip-258</masterclipid>
        <ismasterclip>TRUE</ismasterclip>
        <duration>145</duration>
        <rate>
          <timebase>24</timebase>
          <ntsc>TRUE</ntsc>
        </rate>
        <name>00481.MTS</name>
        <media>
          <video>
            <track>
              <clipitem id="clipitem-784" frameBlend="FALSE">
                <masterclipid>masterclip-258</masterclipid>
                <name>00481.MTS</name>
                <alphatype>black</alphatype>
                <pixelaspectratio>square</pixelaspectratio>
                <anamorphic>FALSE</anamorphic>
                <file id="file-258">
                  <name>00481.MTS</name>
                  <pathurl>file://localhost/Volumes/Macintosh%20HD/Users/jacksongs/Desktop/STREAM/00481.MTS</pathurl>
                  <rate>
                    <timebase>24</timebase>
                    <ntsc>TRUE</ntsc>
                  </rate>
                  <duration>145</duration>
                  <timecode>
                    <rate>
                      <timebase>24</timebase>
                      <ntsc>TRUE</ntsc>
                    </rate>
                    <string>00:00:00:00</string>
                    <frame>0</frame>
                    <displayformat>NDF</displayformat>
                    <reel>
                      <name/>
                    </reel>
                  </timecode>
                  <media>
                    <video>
                      <duration>18000</duration>
                      <samplecharacteristics>
                        <rate>
                          <timebase>24</timebase>
                          <ntsc>TRUE</ntsc>
                        </rate>
                        <width>1920</width>
                        <height>1080</height>
                        <anamorphic>FALSE</anamorphic>
                        <pixelaspectratio>square</pixelaspectratio>
                        <fielddominance>none</fielddominance>
                      </samplecharacteristics>
                    </video>
                    <audio>
                      <samplecharacteristics>
                        <depth>16</depth>
                        <samplerate>48000</samplerate>
                      </samplecharacteristics>
                      <channelcount>2</channelcount>
                    </audio>
                  </media>
                </file>
                <link>
                  <linkclipref>clipitem-784</linkclipref>
                  <mediatype>video</mediatype>
                  <trackindex>1</trackindex>
                  <clipindex>1</clipindex>
                </link>
                <link>
                  <linkclipref>clipitem-785</linkclipref>
                  <mediatype>audio</mediatype>
                  <trackindex>1</trackindex>
                  <clipindex>1</clipindex>
                  <groupindex>1</groupindex>
                </link>
                <link>
                  <linkclipref>clipitem-786</linkclipref>
                  <mediatype>audio</mediatype>
                  <trackindex>2</trackindex>
                  <clipindex>1</clipindex>
                  <groupindex>1</groupindex>
                </link>
              </clipitem>
            </track>
          </video>
          <audio>
            <track>
              <clipitem id="clipitem-785" frameBlend="FALSE">
                <masterclipid>masterclip-258</masterclipid>
                <name>00481.MTS</name>
                <file id="file-258"/>
                <sourcetrack>
                  <mediatype>audio</mediatype>
                  <trackindex>1</trackindex>
                </sourcetrack>
                <link>
                  <linkclipref>clipitem-784</linkclipref>
                  <mediatype>video</mediatype>
                  <trackindex>1</trackindex>
                  <clipindex>1</clipindex>
                </link>
                <link>
                  <linkclipref>clipitem-785</linkclipref>
                  <mediatype>audio</mediatype>
                  <trackindex>1</trackindex>
                  <clipindex>1</clipindex>
                  <groupindex>1</groupindex>
                </link>
                <link>
                  <linkclipref>clipitem-786</linkclipref>
                  <mediatype>audio</mediatype>
                  <trackindex>2</trackindex>
                  <clipindex>1</clipindex>
                  <groupindex>1</groupindex>
                </link>
              </clipitem>
            </track>
            <track>
              <clipitem id="clipitem-786" frameBlend="FALSE">
                <masterclipid>masterclip-258</masterclipid>
                <name>00481.MTS</name>
                <file id="file-258"/>
                <sourcetrack>
                  <mediatype>audio</mediatype>
                  <trackindex>2</trackindex>
                </sourcetrack>
                <link>
                  <linkclipref>clipitem-784</linkclipref>
                  <mediatype>video</mediatype>
                  <trackindex>1</trackindex>
                  <clipindex>1</clipindex>
                </link>
                <link>
                  <linkclipref>clipitem-785</linkclipref>
                  <mediatype>audio</mediatype>
                  <trackindex>1</trackindex>
                  <clipindex>1</clipindex>
                  <groupindex>1</groupindex>
                </link>
                <link>
                  <linkclipref>clipitem-786</linkclipref>
                  <mediatype>audio</mediatype>
                  <trackindex>2</trackindex>
                  <clipindex>1</clipindex>
                  <groupindex>1</groupindex>
                </link>
              </clipitem>
            </track>
          </audio>
        </media>
        <logginginfo>
          <description/>
          <scene/>
          <shottake/>
          <lognote/>
        </logginginfo>
      </clip>
      <clip id="masterclip-259" frameBlend="FALSE">
        <uuid>4db0daeb-afa5-440b-96d1-0805fbedfbfa</uuid>
        <masterclipid>masterclip-259</masterclipid>
        <ismasterclip>TRUE</ismasterclip>
        <duration>121</duration>
        <rate>
          <timebase>24</timebase>
          <ntsc>TRUE</ntsc>
        </rate>
        <name>00482.MTS</name>
        <media>
          <video>
            <track>
              <clipitem id="clipitem-787" frameBlend="FALSE">
                <masterclipid>masterclip-259</masterclipid>
                <name>00482.MTS</name>
                <alphatype>black</alphatype>
                <pixelaspectratio>square</pixelaspectratio>
                <anamorphic>FALSE</anamorphic>
                <file id="file-259">
                  <name>00482.MTS</name>
                  <pathurl>file://localhost/Volumes/Macintosh%20HD/Users/jacksongs/Desktop/STREAM/00482.MTS</pathurl>
                  <rate>
                    <timebase>24</timebase>
                    <ntsc>TRUE</ntsc>
                  </rate>
                  <duration>121</duration>
                  <timecode>
                    <rate>
                      <timebase>24</timebase>
                      <ntsc>TRUE</ntsc>
                    </rate>
                    <string>00:00:00:00</string>
                    <frame>0</frame>
                    <displayformat>NDF</displayformat>
                    <reel>
                      <name/>
                    </reel>
                  </timecode>
                  <media>
                    <video>
                      <duration>18000</duration>
                      <samplecharacteristics>
                        <rate>
                          <timebase>24</timebase>
                          <ntsc>TRUE</ntsc>
                        </rate>
                        <width>1920</width>
                        <height>1080</height>
                        <anamorphic>FALSE</anamorphic>
                        <pixelaspectratio>square</pixelaspectratio>
                        <fielddominance>none</fielddominance>
                      </samplecharacteristics>
                    </video>
                    <audio>
                      <samplecharacteristics>
                        <depth>16</depth>
                        <samplerate>48000</samplerate>
                      </samplecharacteristics>
                      <channelcount>2</channelcount>
                    </audio>
                  </media>
                </file>
                <link>
                  <linkclipref>clipitem-787</linkclipref>
                  <mediatype>video</mediatype>
                  <trackindex>1</trackindex>
                  <clipindex>1</clipindex>
                </link>
                <link>
                  <linkclipref>clipitem-788</linkclipref>
                  <mediatype>audio</mediatype>
                  <trackindex>1</trackindex>
                  <clipindex>1</clipindex>
                  <groupindex>1</groupindex>
                </link>
                <link>
                  <linkclipref>clipitem-789</linkclipref>
                  <mediatype>audio</mediatype>
                  <trackindex>2</trackindex>
                  <clipindex>1</clipindex>
                  <groupindex>1</groupindex>
                </link>
              </clipitem>
            </track>
          </video>
          <audio>
            <track>
              <clipitem id="clipitem-788" frameBlend="FALSE">
                <masterclipid>masterclip-259</masterclipid>
                <name>00482.MTS</name>
                <file id="file-259"/>
                <sourcetrack>
                  <mediatype>audio</mediatype>
                  <trackindex>1</trackindex>
                </sourcetrack>
                <link>
                  <linkclipref>clipitem-787</linkclipref>
                  <mediatype>video</mediatype>
                  <trackindex>1</trackindex>
                  <clipindex>1</clipindex>
                </link>
                <link>
                  <linkclipref>clipitem-788</linkclipref>
                  <mediatype>audio</mediatype>
                  <trackindex>1</trackindex>
                  <clipindex>1</clipindex>
                  <groupindex>1</groupindex>
                </link>
                <link>
                  <linkclipref>clipitem-789</linkclipref>
                  <mediatype>audio</mediatype>
                  <trackindex>2</trackindex>
                  <clipindex>1</clipindex>
                  <groupindex>1</groupindex>
                </link>
              </clipitem>
            </track>
            <track>
              <clipitem id="clipitem-789" frameBlend="FALSE">
                <masterclipid>masterclip-259</masterclipid>
                <name>00482.MTS</name>
                <file id="file-259"/>
                <sourcetrack>
                  <mediatype>audio</mediatype>
                  <trackindex>2</trackindex>
                </sourcetrack>
                <link>
                  <linkclipref>clipitem-787</linkclipref>
                  <mediatype>video</mediatype>
                  <trackindex>1</trackindex>
                  <clipindex>1</clipindex>
                </link>
                <link>
                  <linkclipref>clipitem-788</linkclipref>
                  <mediatype>audio</mediatype>
                  <trackindex>1</trackindex>
                  <clipindex>1</clipindex>
                  <groupindex>1</groupindex>
                </link>
                <link>
                  <linkclipref>clipitem-789</linkclipref>
                  <mediatype>audio</mediatype>
                  <trackindex>2</trackindex>
                  <clipindex>1</clipindex>
                  <groupindex>1</groupindex>
                </link>
              </clipitem>
            </track>
          </audio>
        </media>
        <logginginfo>
          <description/>
          <scene/>
          <shottake/>
          <lognote/>
        </logginginfo>
      </clip>
      <clip id="masterclip-260" frameBlend="FALSE">
        <uuid>efdee463-e94a-4421-afe1-16d2a77503d2</uuid>
        <masterclipid>masterclip-260</masterclipid>
        <ismasterclip>TRUE</ismasterclip>
        <duration>325</duration>
        <rate>
          <timebase>24</timebase>
          <ntsc>TRUE</ntsc>
        </rate>
        <name>00483.MTS</name>
        <media>
          <video>
            <track>
              <clipitem id="clipitem-790" frameBlend="FALSE">
                <masterclipid>masterclip-260</masterclipid>
                <name>00483.MTS</name>
                <alphatype>black</alphatype>
                <pixelaspectratio>square</pixelaspectratio>
                <anamorphic>FALSE</anamorphic>
                <file id="file-260">
                  <name>00483.MTS</name>
                  <pathurl>file://localhost/Volumes/Macintosh%20HD/Users/jacksongs/Desktop/STREAM/00483.MTS</pathurl>
                  <rate>
                    <timebase>24</timebase>
                    <ntsc>TRUE</ntsc>
                  </rate>
                  <duration>325</duration>
                  <timecode>
                    <rate>
                      <timebase>24</timebase>
                      <ntsc>TRUE</ntsc>
                    </rate>
                    <string>00:00:00:00</string>
                    <frame>0</frame>
                    <displayformat>NDF</displayformat>
                    <reel>
                      <name/>
                    </reel>
                  </timecode>
                  <media>
                    <video>
                      <duration>18000</duration>
                      <samplecharacteristics>
                        <rate>
                          <timebase>24</timebase>
                          <ntsc>TRUE</ntsc>
                        </rate>
                        <width>1920</width>
                        <height>1080</height>
                        <anamorphic>FALSE</anamorphic>
                        <pixelaspectratio>square</pixelaspectratio>
                        <fielddominance>none</fielddominance>
                      </samplecharacteristics>
                    </video>
                    <audio>
                      <samplecharacteristics>
                        <depth>16</depth>
                        <samplerate>48000</samplerate>
                      </samplecharacteristics>
                      <channelcount>2</channelcount>
                    </audio>
                  </media>
                </file>
                <link>
                  <linkclipref>clipitem-790</linkclipref>
                  <mediatype>video</mediatype>
                  <trackindex>1</trackindex>
                  <clipindex>1</clipindex>
                </link>
                <link>
                  <linkclipref>clipitem-791</linkclipref>
                  <mediatype>audio</mediatype>
                  <trackindex>1</trackindex>
                  <clipindex>1</clipindex>
                  <groupindex>1</groupindex>
                </link>
                <link>
                  <linkclipref>clipitem-792</linkclipref>
                  <mediatype>audio</mediatype>
                  <trackindex>2</trackindex>
                  <clipindex>1</clipindex>
                  <groupindex>1</groupindex>
                </link>
              </clipitem>
            </track>
          </video>
          <audio>
            <track>
              <clipitem id="clipitem-791" frameBlend="FALSE">
                <masterclipid>masterclip-260</masterclipid>
                <name>00483.MTS</name>
                <file id="file-260"/>
                <sourcetrack>
                  <mediatype>audio</mediatype>
                  <trackindex>1</trackindex>
                </sourcetrack>
                <link>
                  <linkclipref>clipitem-790</linkclipref>
                  <mediatype>video</mediatype>
                  <trackindex>1</trackindex>
                  <clipindex>1</clipindex>
                </link>
                <link>
                  <linkclipref>clipitem-791</linkclipref>
                  <mediatype>audio</mediatype>
                  <trackindex>1</trackindex>
                  <clipindex>1</clipindex>
                  <groupindex>1</groupindex>
                </link>
                <link>
                  <linkclipref>clipitem-792</linkclipref>
                  <mediatype>audio</mediatype>
                  <trackindex>2</trackindex>
                  <clipindex>1</clipindex>
                  <groupindex>1</groupindex>
                </link>
              </clipitem>
            </track>
            <track>
              <clipitem id="clipitem-792" frameBlend="FALSE">
                <masterclipid>masterclip-260</masterclipid>
                <name>00483.MTS</name>
                <file id="file-260"/>
                <sourcetrack>
                  <mediatype>audio</mediatype>
                  <trackindex>2</trackindex>
                </sourcetrack>
                <link>
                  <linkclipref>clipitem-790</linkclipref>
                  <mediatype>video</mediatype>
                  <trackindex>1</trackindex>
                  <clipindex>1</clipindex>
                </link>
                <link>
                  <linkclipref>clipitem-791</linkclipref>
                  <mediatype>audio</mediatype>
                  <trackindex>1</trackindex>
                  <clipindex>1</clipindex>
                  <groupindex>1</groupindex>
                </link>
                <link>
                  <linkclipref>clipitem-792</linkclipref>
                  <mediatype>audio</mediatype>
                  <trackindex>2</trackindex>
                  <clipindex>1</clipindex>
                  <groupindex>1</groupindex>
                </link>
              </clipitem>
            </track>
          </audio>
        </media>
        <logginginfo>
          <description/>
          <scene/>
          <shottake/>
          <lognote/>
        </logginginfo>
      </clip>
      <clip id="masterclip-261" frameBlend="FALSE">
        <uuid>05ccbee0-361f-42d6-a9cf-565fd854d418</uuid>
        <masterclipid>masterclip-261</masterclipid>
        <ismasterclip>TRUE</ismasterclip>
        <duration>253</duration>
        <rate>
          <timebase>24</timebase>
          <ntsc>TRUE</ntsc>
        </rate>
        <name>00484.MTS</name>
        <media>
          <video>
            <track>
              <clipitem id="clipitem-793" frameBlend="FALSE">
                <masterclipid>masterclip-261</masterclipid>
                <name>00484.MTS</name>
                <alphatype>black</alphatype>
                <pixelaspectratio>square</pixelaspectratio>
                <anamorphic>FALSE</anamorphic>
                <file id="file-261">
                  <name>00484.MTS</name>
                  <pathurl>file://localhost/Volumes/Macintosh%20HD/Users/jacksongs/Desktop/STREAM/00484.MTS</pathurl>
                  <rate>
                    <timebase>24</timebase>
                    <ntsc>TRUE</ntsc>
                  </rate>
                  <duration>253</duration>
                  <timecode>
                    <rate>
                      <timebase>24</timebase>
                      <ntsc>TRUE</ntsc>
                    </rate>
                    <string>00:00:00:00</string>
                    <frame>0</frame>
                    <displayformat>NDF</displayformat>
                    <reel>
                      <name/>
                    </reel>
                  </timecode>
                  <media>
                    <video>
                      <duration>18000</duration>
                      <samplecharacteristics>
                        <rate>
                          <timebase>24</timebase>
                          <ntsc>TRUE</ntsc>
                        </rate>
                        <width>1920</width>
                        <height>1080</height>
                        <anamorphic>FALSE</anamorphic>
                        <pixelaspectratio>square</pixelaspectratio>
                        <fielddominance>none</fielddominance>
                      </samplecharacteristics>
                    </video>
                    <audio>
                      <samplecharacteristics>
                        <depth>16</depth>
                        <samplerate>48000</samplerate>
                      </samplecharacteristics>
                      <channelcount>2</channelcount>
                    </audio>
                  </media>
                </file>
                <link>
                  <linkclipref>clipitem-793</linkclipref>
                  <mediatype>video</mediatype>
                  <trackindex>1</trackindex>
                  <clipindex>1</clipindex>
                </link>
                <link>
                  <linkclipref>clipitem-794</linkclipref>
                  <mediatype>audio</mediatype>
                  <trackindex>1</trackindex>
                  <clipindex>1</clipindex>
                  <groupindex>1</groupindex>
                </link>
                <link>
                  <linkclipref>clipitem-795</linkclipref>
                  <mediatype>audio</mediatype>
                  <trackindex>2</trackindex>
                  <clipindex>1</clipindex>
                  <groupindex>1</groupindex>
                </link>
              </clipitem>
            </track>
          </video>
          <audio>
            <track>
              <clipitem id="clipitem-794" frameBlend="FALSE">
                <masterclipid>masterclip-261</masterclipid>
                <name>00484.MTS</name>
                <file id="file-261"/>
                <sourcetrack>
                  <mediatype>audio</mediatype>
                  <trackindex>1</trackindex>
                </sourcetrack>
                <link>
                  <linkclipref>clipitem-793</linkclipref>
                  <mediatype>video</mediatype>
                  <trackindex>1</trackindex>
                  <clipindex>1</clipindex>
                </link>
                <link>
                  <linkclipref>clipitem-794</linkclipref>
                  <mediatype>audio</mediatype>
                  <trackindex>1</trackindex>
                  <clipindex>1</clipindex>
                  <groupindex>1</groupindex>
                </link>
                <link>
                  <linkclipref>clipitem-795</linkclipref>
                  <mediatype>audio</mediatype>
                  <trackindex>2</trackindex>
                  <clipindex>1</clipindex>
                  <groupindex>1</groupindex>
                </link>
              </clipitem>
            </track>
            <track>
              <clipitem id="clipitem-795" frameBlend="FALSE">
                <masterclipid>masterclip-261</masterclipid>
                <name>00484.MTS</name>
                <file id="file-261"/>
                <sourcetrack>
                  <mediatype>audio</mediatype>
                  <trackindex>2</trackindex>
                </sourcetrack>
                <link>
                  <linkclipref>clipitem-793</linkclipref>
                  <mediatype>video</mediatype>
                  <trackindex>1</trackindex>
                  <clipindex>1</clipindex>
                </link>
                <link>
                  <linkclipref>clipitem-794</linkclipref>
                  <mediatype>audio</mediatype>
                  <trackindex>1</trackindex>
                  <clipindex>1</clipindex>
                  <groupindex>1</groupindex>
                </link>
                <link>
                  <linkclipref>clipitem-795</linkclipref>
                  <mediatype>audio</mediatype>
                  <trackindex>2</trackindex>
                  <clipindex>1</clipindex>
                  <groupindex>1</groupindex>
                </link>
              </clipitem>
            </track>
          </audio>
        </media>
        <logginginfo>
          <description/>
          <scene/>
          <shottake/>
          <lognote/>
        </logginginfo>
      </clip>
      <clip id="masterclip-262" frameBlend="FALSE">
        <uuid>10dc0579-8d4e-4a01-9a96-4cc9a8bcfbbb</uuid>
        <masterclipid>masterclip-262</masterclipid>
        <ismasterclip>TRUE</ismasterclip>
        <duration>145</duration>
        <rate>
          <timebase>24</timebase>
          <ntsc>TRUE</ntsc>
        </rate>
        <name>00485.MTS</name>
        <media>
          <video>
            <track>
              <clipitem id="clipitem-796" frameBlend="FALSE">
                <masterclipid>masterclip-262</masterclipid>
                <name>00485.MTS</name>
                <alphatype>black</alphatype>
                <pixelaspectratio>square</pixelaspectratio>
                <anamorphic>FALSE</anamorphic>
                <file id="file-262">
                  <name>00485.MTS</name>
                  <pathurl>file://localhost/Volumes/Macintosh%20HD/Users/jacksongs/Desktop/STREAM/00485.MTS</pathurl>
                  <rate>
                    <timebase>24</timebase>
                    <ntsc>TRUE</ntsc>
                  </rate>
                  <duration>145</duration>
                  <timecode>
                    <rate>
                      <timebase>24</timebase>
                      <ntsc>TRUE</ntsc>
                    </rate>
                    <string>00:00:00:00</string>
                    <frame>0</frame>
                    <displayformat>NDF</displayformat>
                    <reel>
                      <name/>
                    </reel>
                  </timecode>
                  <media>
                    <video>
                      <duration>18000</duration>
                      <samplecharacteristics>
                        <rate>
                          <timebase>24</timebase>
                          <ntsc>TRUE</ntsc>
                        </rate>
                        <width>1920</width>
                        <height>1080</height>
                        <anamorphic>FALSE</anamorphic>
                        <pixelaspectratio>square</pixelaspectratio>
                        <fielddominance>none</fielddominance>
                      </samplecharacteristics>
                    </video>
                    <audio>
                      <samplecharacteristics>
                        <depth>16</depth>
                        <samplerate>48000</samplerate>
                      </samplecharacteristics>
                      <channelcount>2</channelcount>
                    </audio>
                  </media>
                </file>
                <link>
                  <linkclipref>clipitem-796</linkclipref>
                  <mediatype>video</mediatype>
                  <trackindex>1</trackindex>
                  <clipindex>1</clipindex>
                </link>
                <link>
                  <linkclipref>clipitem-797</linkclipref>
                  <mediatype>audio</mediatype>
                  <trackindex>1</trackindex>
                  <clipindex>1</clipindex>
                  <groupindex>1</groupindex>
                </link>
                <link>
                  <linkclipref>clipitem-798</linkclipref>
                  <mediatype>audio</mediatype>
                  <trackindex>2</trackindex>
                  <clipindex>1</clipindex>
                  <groupindex>1</groupindex>
                </link>
              </clipitem>
            </track>
          </video>
          <audio>
            <track>
              <clipitem id="clipitem-797" frameBlend="FALSE">
                <masterclipid>masterclip-262</masterclipid>
                <name>00485.MTS</name>
                <file id="file-262"/>
                <sourcetrack>
                  <mediatype>audio</mediatype>
                  <trackindex>1</trackindex>
                </sourcetrack>
                <link>
                  <linkclipref>clipitem-796</linkclipref>
                  <mediatype>video</mediatype>
                  <trackindex>1</trackindex>
                  <clipindex>1</clipindex>
                </link>
                <link>
                  <linkclipref>clipitem-797</linkclipref>
                  <mediatype>audio</mediatype>
                  <trackindex>1</trackindex>
                  <clipindex>1</clipindex>
                  <groupindex>1</groupindex>
                </link>
                <link>
                  <linkclipref>clipitem-798</linkclipref>
                  <mediatype>audio</mediatype>
                  <trackindex>2</trackindex>
                  <clipindex>1</clipindex>
                  <groupindex>1</groupindex>
                </link>
              </clipitem>
            </track>
            <track>
              <clipitem id="clipitem-798" frameBlend="FALSE">
                <masterclipid>masterclip-262</masterclipid>
                <name>00485.MTS</name>
                <file id="file-262"/>
                <sourcetrack>
                  <mediatype>audio</mediatype>
                  <trackindex>2</trackindex>
                </sourcetrack>
                <link>
                  <linkclipref>clipitem-796</linkclipref>
                  <mediatype>video</mediatype>
                  <trackindex>1</trackindex>
                  <clipindex>1</clipindex>
                </link>
                <link>
                  <linkclipref>clipitem-797</linkclipref>
                  <mediatype>audio</mediatype>
                  <trackindex>1</trackindex>
                  <clipindex>1</clipindex>
                  <groupindex>1</groupindex>
                </link>
                <link>
                  <linkclipref>clipitem-798</linkclipref>
                  <mediatype>audio</mediatype>
                  <trackindex>2</trackindex>
                  <clipindex>1</clipindex>
                  <groupindex>1</groupindex>
                </link>
              </clipitem>
            </track>
          </audio>
        </media>
        <logginginfo>
          <description/>
          <scene/>
          <shottake/>
          <lognote/>
        </logginginfo>
      </clip>
      <clip id="masterclip-263" frameBlend="FALSE">
        <uuid>2f6a4f60-d96a-4aff-b1f3-bd3d7577c91a</uuid>
        <masterclipid>masterclip-263</masterclipid>
        <ismasterclip>TRUE</ismasterclip>
        <duration>793</duration>
        <rate>
          <timebase>24</timebase>
          <ntsc>TRUE</ntsc>
        </rate>
        <name>00486.MTS</name>
        <media>
          <video>
            <track>
              <clipitem id="clipitem-799" frameBlend="FALSE">
                <masterclipid>masterclip-263</masterclipid>
                <name>00486.MTS</name>
                <alphatype>black</alphatype>
                <pixelaspectratio>square</pixelaspectratio>
                <anamorphic>FALSE</anamorphic>
                <file id="file-263">
                  <name>00486.MTS</name>
                  <pathurl>file://localhost/Volumes/Macintosh%20HD/Users/jacksongs/Desktop/STREAM/00486.MTS</pathurl>
                  <rate>
                    <timebase>24</timebase>
                    <ntsc>TRUE</ntsc>
                  </rate>
                  <duration>793</duration>
                  <timecode>
                    <rate>
                      <timebase>24</timebase>
                      <ntsc>TRUE</ntsc>
                    </rate>
                    <string>00:00:00:00</string>
                    <frame>0</frame>
                    <displayformat>NDF</displayformat>
                    <reel>
                      <name/>
                    </reel>
                  </timecode>
                  <media>
                    <video>
                      <duration>18000</duration>
                      <samplecharacteristics>
                        <rate>
                          <timebase>24</timebase>
                          <ntsc>TRUE</ntsc>
                        </rate>
                        <width>1920</width>
                        <height>1080</height>
                        <anamorphic>FALSE</anamorphic>
                        <pixelaspectratio>square</pixelaspectratio>
                        <fielddominance>none</fielddominance>
                      </samplecharacteristics>
                    </video>
                    <audio>
                      <samplecharacteristics>
                        <depth>16</depth>
                        <samplerate>48000</samplerate>
                      </samplecharacteristics>
                      <channelcount>2</channelcount>
                    </audio>
                  </media>
                </file>
                <link>
                  <linkclipref>clipitem-799</linkclipref>
                  <mediatype>video</mediatype>
                  <trackindex>1</trackindex>
                  <clipindex>1</clipindex>
                </link>
                <link>
                  <linkclipref>clipitem-800</linkclipref>
                  <mediatype>audio</mediatype>
                  <trackindex>1</trackindex>
                  <clipindex>1</clipindex>
                  <groupindex>1</groupindex>
                </link>
                <link>
                  <linkclipref>clipitem-801</linkclipref>
                  <mediatype>audio</mediatype>
                  <trackindex>2</trackindex>
                  <clipindex>1</clipindex>
                  <groupindex>1</groupindex>
                </link>
              </clipitem>
            </track>
          </video>
          <audio>
            <track>
              <clipitem id="clipitem-800" frameBlend="FALSE">
                <masterclipid>masterclip-263</masterclipid>
                <name>00486.MTS</name>
                <file id="file-263"/>
                <sourcetrack>
                  <mediatype>audio</mediatype>
                  <trackindex>1</trackindex>
                </sourcetrack>
                <link>
                  <linkclipref>clipitem-799</linkclipref>
                  <mediatype>video</mediatype>
                  <trackindex>1</trackindex>
                  <clipindex>1</clipindex>
                </link>
                <link>
                  <linkclipref>clipitem-800</linkclipref>
                  <mediatype>audio</mediatype>
                  <trackindex>1</trackindex>
                  <clipindex>1</clipindex>
                  <groupindex>1</groupindex>
                </link>
                <link>
                  <linkclipref>clipitem-801</linkclipref>
                  <mediatype>audio</mediatype>
                  <trackindex>2</trackindex>
                  <clipindex>1</clipindex>
                  <groupindex>1</groupindex>
                </link>
              </clipitem>
            </track>
            <track>
              <clipitem id="clipitem-801" frameBlend="FALSE">
                <masterclipid>masterclip-263</masterclipid>
                <name>00486.MTS</name>
                <file id="file-263"/>
                <sourcetrack>
                  <mediatype>audio</mediatype>
                  <trackindex>2</trackindex>
                </sourcetrack>
                <link>
                  <linkclipref>clipitem-799</linkclipref>
                  <mediatype>video</mediatype>
                  <trackindex>1</trackindex>
                  <clipindex>1</clipindex>
                </link>
                <link>
                  <linkclipref>clipitem-800</linkclipref>
                  <mediatype>audio</mediatype>
                  <trackindex>1</trackindex>
                  <clipindex>1</clipindex>
                  <groupindex>1</groupindex>
                </link>
                <link>
                  <linkclipref>clipitem-801</linkclipref>
                  <mediatype>audio</mediatype>
                  <trackindex>2</trackindex>
                  <clipindex>1</clipindex>
                  <groupindex>1</groupindex>
                </link>
              </clipitem>
            </track>
          </audio>
        </media>
        <logginginfo>
          <description/>
          <scene/>
          <shottake/>
          <lognote/>
        </logginginfo>
      </clip>
      <clip id="masterclip-264" frameBlend="FALSE">
        <uuid>f08adba6-c110-43d7-9f54-71719bce64ce</uuid>
        <masterclipid>masterclip-264</masterclipid>
        <ismasterclip>TRUE</ismasterclip>
        <duration>265</duration>
        <rate>
          <timebase>24</timebase>
          <ntsc>TRUE</ntsc>
        </rate>
        <name>00487.MTS</name>
        <media>
          <video>
            <track>
              <clipitem id="clipitem-802" frameBlend="FALSE">
                <masterclipid>masterclip-264</masterclipid>
                <name>00487.MTS</name>
                <alphatype>black</alphatype>
                <pixelaspectratio>square</pixelaspectratio>
                <anamorphic>FALSE</anamorphic>
                <file id="file-264">
                  <name>00487.MTS</name>
                  <pathurl>file://localhost/Volumes/Macintosh%20HD/Users/jacksongs/Desktop/STREAM/00487.MTS</pathurl>
                  <rate>
                    <timebase>24</timebase>
                    <ntsc>TRUE</ntsc>
                  </rate>
                  <duration>265</duration>
                  <timecode>
                    <rate>
                      <timebase>24</timebase>
                      <ntsc>TRUE</ntsc>
                    </rate>
                    <string>00:00:00:00</string>
                    <frame>0</frame>
                    <displayformat>NDF</displayformat>
                    <reel>
                      <name/>
                    </reel>
                  </timecode>
                  <media>
                    <video>
                      <duration>18000</duration>
                      <samplecharacteristics>
                        <rate>
                          <timebase>24</timebase>
                          <ntsc>TRUE</ntsc>
                        </rate>
                        <width>1920</width>
                        <height>1080</height>
                        <anamorphic>FALSE</anamorphic>
                        <pixelaspectratio>square</pixelaspectratio>
                        <fielddominance>none</fielddominance>
                      </samplecharacteristics>
                    </video>
                    <audio>
                      <samplecharacteristics>
                        <depth>16</depth>
                        <samplerate>48000</samplerate>
                      </samplecharacteristics>
                      <channelcount>2</channelcount>
                    </audio>
                  </media>
                </file>
                <link>
                  <linkclipref>clipitem-802</linkclipref>
                  <mediatype>video</mediatype>
                  <trackindex>1</trackindex>
                  <clipindex>1</clipindex>
                </link>
                <link>
                  <linkclipref>clipitem-803</linkclipref>
                  <mediatype>audio</mediatype>
                  <trackindex>1</trackindex>
                  <clipindex>1</clipindex>
                  <groupindex>1</groupindex>
                </link>
                <link>
                  <linkclipref>clipitem-804</linkclipref>
                  <mediatype>audio</mediatype>
                  <trackindex>2</trackindex>
                  <clipindex>1</clipindex>
                  <groupindex>1</groupindex>
                </link>
              </clipitem>
            </track>
          </video>
          <audio>
            <track>
              <clipitem id="clipitem-803" frameBlend="FALSE">
                <masterclipid>masterclip-264</masterclipid>
                <name>00487.MTS</name>
                <file id="file-264"/>
                <sourcetrack>
                  <mediatype>audio</mediatype>
                  <trackindex>1</trackindex>
                </sourcetrack>
                <link>
                  <linkclipref>clipitem-802</linkclipref>
                  <mediatype>video</mediatype>
                  <trackindex>1</trackindex>
                  <clipindex>1</clipindex>
                </link>
                <link>
                  <linkclipref>clipitem-803</linkclipref>
                  <mediatype>audio</mediatype>
                  <trackindex>1</trackindex>
                  <clipindex>1</clipindex>
                  <groupindex>1</groupindex>
                </link>
                <link>
                  <linkclipref>clipitem-804</linkclipref>
                  <mediatype>audio</mediatype>
                  <trackindex>2</trackindex>
                  <clipindex>1</clipindex>
                  <groupindex>1</groupindex>
                </link>
              </clipitem>
            </track>
            <track>
              <clipitem id="clipitem-804" frameBlend="FALSE">
                <masterclipid>masterclip-264</masterclipid>
                <name>00487.MTS</name>
                <file id="file-264"/>
                <sourcetrack>
                  <mediatype>audio</mediatype>
                  <trackindex>2</trackindex>
                </sourcetrack>
                <link>
                  <linkclipref>clipitem-802</linkclipref>
                  <mediatype>video</mediatype>
                  <trackindex>1</trackindex>
                  <clipindex>1</clipindex>
                </link>
                <link>
                  <linkclipref>clipitem-803</linkclipref>
                  <mediatype>audio</mediatype>
                  <trackindex>1</trackindex>
                  <clipindex>1</clipindex>
                  <groupindex>1</groupindex>
                </link>
                <link>
                  <linkclipref>clipitem-804</linkclipref>
                  <mediatype>audio</mediatype>
                  <trackindex>2</trackindex>
                  <clipindex>1</clipindex>
                  <groupindex>1</groupindex>
                </link>
              </clipitem>
            </track>
          </audio>
        </media>
        <logginginfo>
          <description/>
          <scene/>
          <shottake/>
          <lognote/>
        </logginginfo>
      </clip>
      <clip id="masterclip-265" frameBlend="FALSE">
        <uuid>c8c550fd-4e7d-4bbd-aa3a-74953ec6d268</uuid>
        <masterclipid>masterclip-265</masterclipid>
        <ismasterclip>TRUE</ismasterclip>
        <duration>289</duration>
        <rate>
          <timebase>24</timebase>
          <ntsc>TRUE</ntsc>
        </rate>
        <name>00488.MTS</name>
        <media>
          <video>
            <track>
              <clipitem id="clipitem-805" frameBlend="FALSE">
                <masterclipid>masterclip-265</masterclipid>
                <name>00488.MTS</name>
                <alphatype>black</alphatype>
                <pixelaspectratio>square</pixelaspectratio>
                <anamorphic>FALSE</anamorphic>
                <file id="file-265">
                  <name>00488.MTS</name>
                  <pathurl>file://localhost/Volumes/Macintosh%20HD/Users/jacksongs/Desktop/STREAM/00488.MTS</pathurl>
                  <rate>
                    <timebase>24</timebase>
                    <ntsc>TRUE</ntsc>
                  </rate>
                  <duration>289</duration>
                  <timecode>
                    <rate>
                      <timebase>24</timebase>
                      <ntsc>TRUE</ntsc>
                    </rate>
                    <string>00:00:00:00</string>
                    <frame>0</frame>
                    <displayformat>NDF</displayformat>
                    <reel>
                      <name/>
                    </reel>
                  </timecode>
                  <media>
                    <video>
                      <duration>18000</duration>
                      <samplecharacteristics>
                        <rate>
                          <timebase>24</timebase>
                          <ntsc>TRUE</ntsc>
                        </rate>
                        <width>1920</width>
                        <height>1080</height>
                        <anamorphic>FALSE</anamorphic>
                        <pixelaspectratio>square</pixelaspectratio>
                        <fielddominance>none</fielddominance>
                      </samplecharacteristics>
                    </video>
                    <audio>
                      <samplecharacteristics>
                        <depth>16</depth>
                        <samplerate>48000</samplerate>
                      </samplecharacteristics>
                      <channelcount>2</channelcount>
                    </audio>
                  </media>
                </file>
                <link>
                  <linkclipref>clipitem-805</linkclipref>
                  <mediatype>video</mediatype>
                  <trackindex>1</trackindex>
                  <clipindex>1</clipindex>
                </link>
                <link>
                  <linkclipref>clipitem-806</linkclipref>
                  <mediatype>audio</mediatype>
                  <trackindex>1</trackindex>
                  <clipindex>1</clipindex>
                  <groupindex>1</groupindex>
                </link>
                <link>
                  <linkclipref>clipitem-807</linkclipref>
                  <mediatype>audio</mediatype>
                  <trackindex>2</trackindex>
                  <clipindex>1</clipindex>
                  <groupindex>1</groupindex>
                </link>
              </clipitem>
            </track>
          </video>
          <audio>
            <track>
              <clipitem id="clipitem-806" frameBlend="FALSE">
                <masterclipid>masterclip-265</masterclipid>
                <name>00488.MTS</name>
                <file id="file-265"/>
                <sourcetrack>
                  <mediatype>audio</mediatype>
                  <trackindex>1</trackindex>
                </sourcetrack>
                <link>
                  <linkclipref>clipitem-805</linkclipref>
                  <mediatype>video</mediatype>
                  <trackindex>1</trackindex>
                  <clipindex>1</clipindex>
                </link>
                <link>
                  <linkclipref>clipitem-806</linkclipref>
                  <mediatype>audio</mediatype>
                  <trackindex>1</trackindex>
                  <clipindex>1</clipindex>
                  <groupindex>1</groupindex>
                </link>
                <link>
                  <linkclipref>clipitem-807</linkclipref>
                  <mediatype>audio</mediatype>
                  <trackindex>2</trackindex>
                  <clipindex>1</clipindex>
                  <groupindex>1</groupindex>
                </link>
              </clipitem>
            </track>
            <track>
              <clipitem id="clipitem-807" frameBlend="FALSE">
                <masterclipid>masterclip-265</masterclipid>
                <name>00488.MTS</name>
                <file id="file-265"/>
                <sourcetrack>
                  <mediatype>audio</mediatype>
                  <trackindex>2</trackindex>
                </sourcetrack>
                <link>
                  <linkclipref>clipitem-805</linkclipref>
                  <mediatype>video</mediatype>
                  <trackindex>1</trackindex>
                  <clipindex>1</clipindex>
                </link>
                <link>
                  <linkclipref>clipitem-806</linkclipref>
                  <mediatype>audio</mediatype>
                  <trackindex>1</trackindex>
                  <clipindex>1</clipindex>
                  <groupindex>1</groupindex>
                </link>
                <link>
                  <linkclipref>clipitem-807</linkclipref>
                  <mediatype>audio</mediatype>
                  <trackindex>2</trackindex>
                  <clipindex>1</clipindex>
                  <groupindex>1</groupindex>
                </link>
              </clipitem>
            </track>
          </audio>
        </media>
        <logginginfo>
          <description/>
          <scene/>
          <shottake/>
          <lognote/>
        </logginginfo>
      </clip>
      <clip id="masterclip-266" frameBlend="FALSE">
        <uuid>0948446f-193a-4e0b-aa12-1253f5e65e84</uuid>
        <masterclipid>masterclip-266</masterclipid>
        <ismasterclip>TRUE</ismasterclip>
        <duration>397</duration>
        <rate>
          <timebase>24</timebase>
          <ntsc>TRUE</ntsc>
        </rate>
        <name>00489.MTS</name>
        <media>
          <video>
            <track>
              <clipitem id="clipitem-808" frameBlend="FALSE">
                <masterclipid>masterclip-266</masterclipid>
                <name>00489.MTS</name>
                <alphatype>black</alphatype>
                <pixelaspectratio>square</pixelaspectratio>
                <anamorphic>FALSE</anamorphic>
                <file id="file-266">
                  <name>00489.MTS</name>
                  <pathurl>file://localhost/Volumes/Macintosh%20HD/Users/jacksongs/Desktop/STREAM/00489.MTS</pathurl>
                  <rate>
                    <timebase>24</timebase>
                    <ntsc>TRUE</ntsc>
                  </rate>
                  <duration>397</duration>
                  <timecode>
                    <rate>
                      <timebase>24</timebase>
                      <ntsc>TRUE</ntsc>
                    </rate>
                    <string>00:00:00:00</string>
                    <frame>0</frame>
                    <displayformat>NDF</displayformat>
                    <reel>
                      <name/>
                    </reel>
                  </timecode>
                  <media>
                    <video>
                      <duration>18000</duration>
                      <samplecharacteristics>
                        <rate>
                          <timebase>24</timebase>
                          <ntsc>TRUE</ntsc>
                        </rate>
                        <width>1920</width>
                        <height>1080</height>
                        <anamorphic>FALSE</anamorphic>
                        <pixelaspectratio>square</pixelaspectratio>
                        <fielddominance>none</fielddominance>
                      </samplecharacteristics>
                    </video>
                    <audio>
                      <samplecharacteristics>
                        <depth>16</depth>
                        <samplerate>48000</samplerate>
                      </samplecharacteristics>
                      <channelcount>2</channelcount>
                    </audio>
                  </media>
                </file>
                <link>
                  <linkclipref>clipitem-808</linkclipref>
                  <mediatype>video</mediatype>
                  <trackindex>1</trackindex>
                  <clipindex>1</clipindex>
                </link>
                <link>
                  <linkclipref>clipitem-809</linkclipref>
                  <mediatype>audio</mediatype>
                  <trackindex>1</trackindex>
                  <clipindex>1</clipindex>
                  <groupindex>1</groupindex>
                </link>
                <link>
                  <linkclipref>clipitem-810</linkclipref>
                  <mediatype>audio</mediatype>
                  <trackindex>2</trackindex>
                  <clipindex>1</clipindex>
                  <groupindex>1</groupindex>
                </link>
              </clipitem>
            </track>
          </video>
          <audio>
            <track>
              <clipitem id="clipitem-809" frameBlend="FALSE">
                <masterclipid>masterclip-266</masterclipid>
                <name>00489.MTS</name>
                <file id="file-266"/>
                <sourcetrack>
                  <mediatype>audio</mediatype>
                  <trackindex>1</trackindex>
                </sourcetrack>
                <link>
                  <linkclipref>clipitem-808</linkclipref>
                  <mediatype>video</mediatype>
                  <trackindex>1</trackindex>
                  <clipindex>1</clipindex>
                </link>
                <link>
                  <linkclipref>clipitem-809</linkclipref>
                  <mediatype>audio</mediatype>
                  <trackindex>1</trackindex>
                  <clipindex>1</clipindex>
                  <groupindex>1</groupindex>
                </link>
                <link>
                  <linkclipref>clipitem-810</linkclipref>
                  <mediatype>audio</mediatype>
                  <trackindex>2</trackindex>
                  <clipindex>1</clipindex>
                  <groupindex>1</groupindex>
                </link>
              </clipitem>
            </track>
            <track>
              <clipitem id="clipitem-810" frameBlend="FALSE">
                <masterclipid>masterclip-266</masterclipid>
                <name>00489.MTS</name>
                <file id="file-266"/>
                <sourcetrack>
                  <mediatype>audio</mediatype>
                  <trackindex>2</trackindex>
                </sourcetrack>
                <link>
                  <linkclipref>clipitem-808</linkclipref>
                  <mediatype>video</mediatype>
                  <trackindex>1</trackindex>
                  <clipindex>1</clipindex>
                </link>
                <link>
                  <linkclipref>clipitem-809</linkclipref>
                  <mediatype>audio</mediatype>
                  <trackindex>1</trackindex>
                  <clipindex>1</clipindex>
                  <groupindex>1</groupindex>
                </link>
                <link>
                  <linkclipref>clipitem-810</linkclipref>
                  <mediatype>audio</mediatype>
                  <trackindex>2</trackindex>
                  <clipindex>1</clipindex>
                  <groupindex>1</groupindex>
                </link>
              </clipitem>
            </track>
          </audio>
        </media>
        <logginginfo>
          <description/>
          <scene/>
          <shottake/>
          <lognote/>
        </logginginfo>
      </clip>
      <clip id="masterclip-267" frameBlend="FALSE">
        <uuid>df2aca1d-df12-4589-906c-1e990e668aa6</uuid>
        <masterclipid>masterclip-267</masterclipid>
        <ismasterclip>TRUE</ismasterclip>
        <duration>217</duration>
        <rate>
          <timebase>24</timebase>
          <ntsc>TRUE</ntsc>
        </rate>
        <name>00490.MTS</name>
        <media>
          <video>
            <track>
              <clipitem id="clipitem-811" frameBlend="FALSE">
                <masterclipid>masterclip-267</masterclipid>
                <name>00490.MTS</name>
                <alphatype>black</alphatype>
                <pixelaspectratio>square</pixelaspectratio>
                <anamorphic>FALSE</anamorphic>
                <file id="file-267">
                  <name>00490.MTS</name>
                  <pathurl>file://localhost/Volumes/Macintosh%20HD/Users/jacksongs/Desktop/STREAM/00490.MTS</pathurl>
                  <rate>
                    <timebase>24</timebase>
                    <ntsc>TRUE</ntsc>
                  </rate>
                  <duration>217</duration>
                  <timecode>
                    <rate>
                      <timebase>24</timebase>
                      <ntsc>TRUE</ntsc>
                    </rate>
                    <string>00:00:00:00</string>
                    <frame>0</frame>
                    <displayformat>NDF</displayformat>
                    <reel>
                      <name/>
                    </reel>
                  </timecode>
                  <media>
                    <video>
                      <duration>18000</duration>
                      <samplecharacteristics>
                        <rate>
                          <timebase>24</timebase>
                          <ntsc>TRUE</ntsc>
                        </rate>
                        <width>1920</width>
                        <height>1080</height>
                        <anamorphic>FALSE</anamorphic>
                        <pixelaspectratio>square</pixelaspectratio>
                        <fielddominance>none</fielddominance>
                      </samplecharacteristics>
                    </video>
                    <audio>
                      <samplecharacteristics>
                        <depth>16</depth>
                        <samplerate>48000</samplerate>
                      </samplecharacteristics>
                      <channelcount>2</channelcount>
                    </audio>
                  </media>
                </file>
                <link>
                  <linkclipref>clipitem-811</linkclipref>
                  <mediatype>video</mediatype>
                  <trackindex>1</trackindex>
                  <clipindex>1</clipindex>
                </link>
                <link>
                  <linkclipref>clipitem-812</linkclipref>
                  <mediatype>audio</mediatype>
                  <trackindex>1</trackindex>
                  <clipindex>1</clipindex>
                  <groupindex>1</groupindex>
                </link>
                <link>
                  <linkclipref>clipitem-813</linkclipref>
                  <mediatype>audio</mediatype>
                  <trackindex>2</trackindex>
                  <clipindex>1</clipindex>
                  <groupindex>1</groupindex>
                </link>
              </clipitem>
            </track>
          </video>
          <audio>
            <track>
              <clipitem id="clipitem-812" frameBlend="FALSE">
                <masterclipid>masterclip-267</masterclipid>
                <name>00490.MTS</name>
                <file id="file-267"/>
                <sourcetrack>
                  <mediatype>audio</mediatype>
                  <trackindex>1</trackindex>
                </sourcetrack>
                <link>
                  <linkclipref>clipitem-811</linkclipref>
                  <mediatype>video</mediatype>
                  <trackindex>1</trackindex>
                  <clipindex>1</clipindex>
                </link>
                <link>
                  <linkclipref>clipitem-812</linkclipref>
                  <mediatype>audio</mediatype>
                  <trackindex>1</trackindex>
                  <clipindex>1</clipindex>
                  <groupindex>1</groupindex>
                </link>
                <link>
                  <linkclipref>clipitem-813</linkclipref>
                  <mediatype>audio</mediatype>
                  <trackindex>2</trackindex>
                  <clipindex>1</clipindex>
                  <groupindex>1</groupindex>
                </link>
              </clipitem>
            </track>
            <track>
              <clipitem id="clipitem-813" frameBlend="FALSE">
                <masterclipid>masterclip-267</masterclipid>
                <name>00490.MTS</name>
                <file id="file-267"/>
                <sourcetrack>
                  <mediatype>audio</mediatype>
                  <trackindex>2</trackindex>
                </sourcetrack>
                <link>
                  <linkclipref>clipitem-811</linkclipref>
                  <mediatype>video</mediatype>
                  <trackindex>1</trackindex>
                  <clipindex>1</clipindex>
                </link>
                <link>
                  <linkclipref>clipitem-812</linkclipref>
                  <mediatype>audio</mediatype>
                  <trackindex>1</trackindex>
                  <clipindex>1</clipindex>
                  <groupindex>1</groupindex>
                </link>
                <link>
                  <linkclipref>clipitem-813</linkclipref>
                  <mediatype>audio</mediatype>
                  <trackindex>2</trackindex>
                  <clipindex>1</clipindex>
                  <groupindex>1</groupindex>
                </link>
              </clipitem>
            </track>
          </audio>
        </media>
        <logginginfo>
          <description/>
          <scene/>
          <shottake/>
          <lognote/>
        </logginginfo>
      </clip>
      <clip id="masterclip-268" frameBlend="FALSE">
        <uuid>20a30c47-e854-4362-953f-e1196338b12c</uuid>
        <masterclipid>masterclip-268</masterclipid>
        <ismasterclip>TRUE</ismasterclip>
        <duration>301</duration>
        <rate>
          <timebase>24</timebase>
          <ntsc>TRUE</ntsc>
        </rate>
        <name>00491.MTS</name>
        <media>
          <video>
            <track>
              <clipitem id="clipitem-814" frameBlend="FALSE">
                <masterclipid>masterclip-268</masterclipid>
                <name>00491.MTS</name>
                <alphatype>black</alphatype>
                <pixelaspectratio>square</pixelaspectratio>
                <anamorphic>FALSE</anamorphic>
                <file id="file-268">
                  <name>00491.MTS</name>
                  <pathurl>file://localhost/Volumes/Macintosh%20HD/Users/jacksongs/Desktop/STREAM/00491.MTS</pathurl>
                  <rate>
                    <timebase>24</timebase>
                    <ntsc>TRUE</ntsc>
                  </rate>
                  <duration>301</duration>
                  <timecode>
                    <rate>
                      <timebase>24</timebase>
                      <ntsc>TRUE</ntsc>
                    </rate>
                    <string>00:00:00:00</string>
                    <frame>0</frame>
                    <displayformat>NDF</displayformat>
                    <reel>
                      <name/>
                    </reel>
                  </timecode>
                  <media>
                    <video>
                      <duration>18000</duration>
                      <samplecharacteristics>
                        <rate>
                          <timebase>24</timebase>
                          <ntsc>TRUE</ntsc>
                        </rate>
                        <width>1920</width>
                        <height>1080</height>
                        <anamorphic>FALSE</anamorphic>
                        <pixelaspectratio>square</pixelaspectratio>
                        <fielddominance>none</fielddominance>
                      </samplecharacteristics>
                    </video>
                    <audio>
                      <samplecharacteristics>
                        <depth>16</depth>
                        <samplerate>48000</samplerate>
                      </samplecharacteristics>
                      <channelcount>2</channelcount>
                    </audio>
                  </media>
                </file>
                <link>
                  <linkclipref>clipitem-814</linkclipref>
                  <mediatype>video</mediatype>
                  <trackindex>1</trackindex>
                  <clipindex>1</clipindex>
                </link>
                <link>
                  <linkclipref>clipitem-815</linkclipref>
                  <mediatype>audio</mediatype>
                  <trackindex>1</trackindex>
                  <clipindex>1</clipindex>
                  <groupindex>1</groupindex>
                </link>
                <link>
                  <linkclipref>clipitem-816</linkclipref>
                  <mediatype>audio</mediatype>
                  <trackindex>2</trackindex>
                  <clipindex>1</clipindex>
                  <groupindex>1</groupindex>
                </link>
              </clipitem>
            </track>
          </video>
          <audio>
            <track>
              <clipitem id="clipitem-815" frameBlend="FALSE">
                <masterclipid>masterclip-268</masterclipid>
                <name>00491.MTS</name>
                <file id="file-268"/>
                <sourcetrack>
                  <mediatype>audio</mediatype>
                  <trackindex>1</trackindex>
                </sourcetrack>
                <link>
                  <linkclipref>clipitem-814</linkclipref>
                  <mediatype>video</mediatype>
                  <trackindex>1</trackindex>
                  <clipindex>1</clipindex>
                </link>
                <link>
                  <linkclipref>clipitem-815</linkclipref>
                  <mediatype>audio</mediatype>
                  <trackindex>1</trackindex>
                  <clipindex>1</clipindex>
                  <groupindex>1</groupindex>
                </link>
                <link>
                  <linkclipref>clipitem-816</linkclipref>
                  <mediatype>audio</mediatype>
                  <trackindex>2</trackindex>
                  <clipindex>1</clipindex>
                  <groupindex>1</groupindex>
                </link>
              </clipitem>
            </track>
            <track>
              <clipitem id="clipitem-816" frameBlend="FALSE">
                <masterclipid>masterclip-268</masterclipid>
                <name>00491.MTS</name>
                <file id="file-268"/>
                <sourcetrack>
                  <mediatype>audio</mediatype>
                  <trackindex>2</trackindex>
                </sourcetrack>
                <link>
                  <linkclipref>clipitem-814</linkclipref>
                  <mediatype>video</mediatype>
                  <trackindex>1</trackindex>
                  <clipindex>1</clipindex>
                </link>
                <link>
                  <linkclipref>clipitem-815</linkclipref>
                  <mediatype>audio</mediatype>
                  <trackindex>1</trackindex>
                  <clipindex>1</clipindex>
                  <groupindex>1</groupindex>
                </link>
                <link>
                  <linkclipref>clipitem-816</linkclipref>
                  <mediatype>audio</mediatype>
                  <trackindex>2</trackindex>
                  <clipindex>1</clipindex>
                  <groupindex>1</groupindex>
                </link>
              </clipitem>
            </track>
          </audio>
        </media>
        <logginginfo>
          <description/>
          <scene/>
          <shottake/>
          <lognote/>
        </logginginfo>
      </clip>
      <clip id="masterclip-269" frameBlend="FALSE">
        <uuid>5a89e1f3-b909-41c9-a1ad-75a2ca961551</uuid>
        <masterclipid>masterclip-269</masterclipid>
        <ismasterclip>TRUE</ismasterclip>
        <duration>229</duration>
        <rate>
          <timebase>24</timebase>
          <ntsc>TRUE</ntsc>
        </rate>
        <name>00492.MTS</name>
        <media>
          <video>
            <track>
              <clipitem id="clipitem-817" frameBlend="FALSE">
                <masterclipid>masterclip-269</masterclipid>
                <name>00492.MTS</name>
                <alphatype>black</alphatype>
                <pixelaspectratio>square</pixelaspectratio>
                <anamorphic>FALSE</anamorphic>
                <file id="file-269">
                  <name>00492.MTS</name>
                  <pathurl>file://localhost/Volumes/Macintosh%20HD/Users/jacksongs/Desktop/STREAM/00492.MTS</pathurl>
                  <rate>
                    <timebase>24</timebase>
                    <ntsc>TRUE</ntsc>
                  </rate>
                  <duration>229</duration>
                  <timecode>
                    <rate>
                      <timebase>24</timebase>
                      <ntsc>TRUE</ntsc>
                    </rate>
                    <string>00:00:00:00</string>
                    <frame>0</frame>
                    <displayformat>NDF</displayformat>
                    <reel>
                      <name/>
                    </reel>
                  </timecode>
                  <media>
                    <video>
                      <duration>18000</duration>
                      <samplecharacteristics>
                        <rate>
                          <timebase>24</timebase>
                          <ntsc>TRUE</ntsc>
                        </rate>
                        <width>1920</width>
                        <height>1080</height>
                        <anamorphic>FALSE</anamorphic>
                        <pixelaspectratio>square</pixelaspectratio>
                        <fielddominance>none</fielddominance>
                      </samplecharacteristics>
                    </video>
                    <audio>
                      <samplecharacteristics>
                        <depth>16</depth>
                        <samplerate>48000</samplerate>
                      </samplecharacteristics>
                      <channelcount>2</channelcount>
                    </audio>
                  </media>
                </file>
                <link>
                  <linkclipref>clipitem-817</linkclipref>
                  <mediatype>video</mediatype>
                  <trackindex>1</trackindex>
                  <clipindex>1</clipindex>
                </link>
                <link>
                  <linkclipref>clipitem-818</linkclipref>
                  <mediatype>audio</mediatype>
                  <trackindex>1</trackindex>
                  <clipindex>1</clipindex>
                  <groupindex>1</groupindex>
                </link>
                <link>
                  <linkclipref>clipitem-819</linkclipref>
                  <mediatype>audio</mediatype>
                  <trackindex>2</trackindex>
                  <clipindex>1</clipindex>
                  <groupindex>1</groupindex>
                </link>
              </clipitem>
            </track>
          </video>
          <audio>
            <track>
              <clipitem id="clipitem-818" frameBlend="FALSE">
                <masterclipid>masterclip-269</masterclipid>
                <name>00492.MTS</name>
                <file id="file-269"/>
                <sourcetrack>
                  <mediatype>audio</mediatype>
                  <trackindex>1</trackindex>
                </sourcetrack>
                <link>
                  <linkclipref>clipitem-817</linkclipref>
                  <mediatype>video</mediatype>
                  <trackindex>1</trackindex>
                  <clipindex>1</clipindex>
                </link>
                <link>
                  <linkclipref>clipitem-818</linkclipref>
                  <mediatype>audio</mediatype>
                  <trackindex>1</trackindex>
                  <clipindex>1</clipindex>
                  <groupindex>1</groupindex>
                </link>
                <link>
                  <linkclipref>clipitem-819</linkclipref>
                  <mediatype>audio</mediatype>
                  <trackindex>2</trackindex>
                  <clipindex>1</clipindex>
                  <groupindex>1</groupindex>
                </link>
              </clipitem>
            </track>
            <track>
              <clipitem id="clipitem-819" frameBlend="FALSE">
                <masterclipid>masterclip-269</masterclipid>
                <name>00492.MTS</name>
                <file id="file-269"/>
                <sourcetrack>
                  <mediatype>audio</mediatype>
                  <trackindex>2</trackindex>
                </sourcetrack>
                <link>
                  <linkclipref>clipitem-817</linkclipref>
                  <mediatype>video</mediatype>
                  <trackindex>1</trackindex>
                  <clipindex>1</clipindex>
                </link>
                <link>
                  <linkclipref>clipitem-818</linkclipref>
                  <mediatype>audio</mediatype>
                  <trackindex>1</trackindex>
                  <clipindex>1</clipindex>
                  <groupindex>1</groupindex>
                </link>
                <link>
                  <linkclipref>clipitem-819</linkclipref>
                  <mediatype>audio</mediatype>
                  <trackindex>2</trackindex>
                  <clipindex>1</clipindex>
                  <groupindex>1</groupindex>
                </link>
              </clipitem>
            </track>
          </audio>
        </media>
        <logginginfo>
          <description/>
          <scene/>
          <shottake/>
          <lognote/>
        </logginginfo>
      </clip>
      <clip id="masterclip-270" frameBlend="FALSE">
        <uuid>c6106fbd-99a6-4394-aad6-f4d0451c5066</uuid>
        <masterclipid>masterclip-270</masterclipid>
        <ismasterclip>TRUE</ismasterclip>
        <duration>169</duration>
        <rate>
          <timebase>24</timebase>
          <ntsc>TRUE</ntsc>
        </rate>
        <name>00493.MTS</name>
        <media>
          <video>
            <track>
              <clipitem id="clipitem-820" frameBlend="FALSE">
                <masterclipid>masterclip-270</masterclipid>
                <name>00493.MTS</name>
                <alphatype>black</alphatype>
                <pixelaspectratio>square</pixelaspectratio>
                <anamorphic>FALSE</anamorphic>
                <file id="file-270">
                  <name>00493.MTS</name>
                  <pathurl>file://localhost/Volumes/Macintosh%20HD/Users/jacksongs/Desktop/STREAM/00493.MTS</pathurl>
                  <rate>
                    <timebase>24</timebase>
                    <ntsc>TRUE</ntsc>
                  </rate>
                  <duration>169</duration>
                  <timecode>
                    <rate>
                      <timebase>24</timebase>
                      <ntsc>TRUE</ntsc>
                    </rate>
                    <string>00:00:00:00</string>
                    <frame>0</frame>
                    <displayformat>NDF</displayformat>
                    <reel>
                      <name/>
                    </reel>
                  </timecode>
                  <media>
                    <video>
                      <duration>18000</duration>
                      <samplecharacteristics>
                        <rate>
                          <timebase>24</timebase>
                          <ntsc>TRUE</ntsc>
                        </rate>
                        <width>1920</width>
                        <height>1080</height>
                        <anamorphic>FALSE</anamorphic>
                        <pixelaspectratio>square</pixelaspectratio>
                        <fielddominance>none</fielddominance>
                      </samplecharacteristics>
                    </video>
                    <audio>
                      <samplecharacteristics>
                        <depth>16</depth>
                        <samplerate>48000</samplerate>
                      </samplecharacteristics>
                      <channelcount>2</channelcount>
                    </audio>
                  </media>
                </file>
                <link>
                  <linkclipref>clipitem-820</linkclipref>
                  <mediatype>video</mediatype>
                  <trackindex>1</trackindex>
                  <clipindex>1</clipindex>
                </link>
                <link>
                  <linkclipref>clipitem-821</linkclipref>
                  <mediatype>audio</mediatype>
                  <trackindex>1</trackindex>
                  <clipindex>1</clipindex>
                  <groupindex>1</groupindex>
                </link>
                <link>
                  <linkclipref>clipitem-822</linkclipref>
                  <mediatype>audio</mediatype>
                  <trackindex>2</trackindex>
                  <clipindex>1</clipindex>
                  <groupindex>1</groupindex>
                </link>
              </clipitem>
            </track>
          </video>
          <audio>
            <track>
              <clipitem id="clipitem-821" frameBlend="FALSE">
                <masterclipid>masterclip-270</masterclipid>
                <name>00493.MTS</name>
                <file id="file-270"/>
                <sourcetrack>
                  <mediatype>audio</mediatype>
                  <trackindex>1</trackindex>
                </sourcetrack>
                <link>
                  <linkclipref>clipitem-820</linkclipref>
                  <mediatype>video</mediatype>
                  <trackindex>1</trackindex>
                  <clipindex>1</clipindex>
                </link>
                <link>
                  <linkclipref>clipitem-821</linkclipref>
                  <mediatype>audio</mediatype>
                  <trackindex>1</trackindex>
                  <clipindex>1</clipindex>
                  <groupindex>1</groupindex>
                </link>
                <link>
                  <linkclipref>clipitem-822</linkclipref>
                  <mediatype>audio</mediatype>
                  <trackindex>2</trackindex>
                  <clipindex>1</clipindex>
                  <groupindex>1</groupindex>
                </link>
              </clipitem>
            </track>
            <track>
              <clipitem id="clipitem-822" frameBlend="FALSE">
                <masterclipid>masterclip-270</masterclipid>
                <name>00493.MTS</name>
                <file id="file-270"/>
                <sourcetrack>
                  <mediatype>audio</mediatype>
                  <trackindex>2</trackindex>
                </sourcetrack>
                <link>
                  <linkclipref>clipitem-820</linkclipref>
                  <mediatype>video</mediatype>
                  <trackindex>1</trackindex>
                  <clipindex>1</clipindex>
                </link>
                <link>
                  <linkclipref>clipitem-821</linkclipref>
                  <mediatype>audio</mediatype>
                  <trackindex>1</trackindex>
                  <clipindex>1</clipindex>
                  <groupindex>1</groupindex>
                </link>
                <link>
                  <linkclipref>clipitem-822</linkclipref>
                  <mediatype>audio</mediatype>
                  <trackindex>2</trackindex>
                  <clipindex>1</clipindex>
                  <groupindex>1</groupindex>
                </link>
              </clipitem>
            </track>
          </audio>
        </media>
        <logginginfo>
          <description/>
          <scene/>
          <shottake/>
          <lognote/>
        </logginginfo>
      </clip>
      <clip id="masterclip-271" frameBlend="FALSE">
        <uuid>2edb7a8a-e2e7-438f-bde8-2b5ecbc07c20</uuid>
        <masterclipid>masterclip-271</masterclipid>
        <ismasterclip>TRUE</ismasterclip>
        <duration>349</duration>
        <rate>
          <timebase>24</timebase>
          <ntsc>TRUE</ntsc>
        </rate>
        <name>00494.MTS</name>
        <media>
          <video>
            <track>
              <clipitem id="clipitem-823" frameBlend="FALSE">
                <masterclipid>masterclip-271</masterclipid>
                <name>00494.MTS</name>
                <alphatype>black</alphatype>
                <pixelaspectratio>square</pixelaspectratio>
                <anamorphic>FALSE</anamorphic>
                <file id="file-271">
                  <name>00494.MTS</name>
                  <pathurl>file://localhost/Volumes/Macintosh%20HD/Users/jacksongs/Desktop/STREAM/00494.MTS</pathurl>
                  <rate>
                    <timebase>24</timebase>
                    <ntsc>TRUE</ntsc>
                  </rate>
                  <duration>349</duration>
                  <timecode>
                    <rate>
                      <timebase>24</timebase>
                      <ntsc>TRUE</ntsc>
                    </rate>
                    <string>00:00:00:00</string>
                    <frame>0</frame>
                    <displayformat>NDF</displayformat>
                    <reel>
                      <name/>
                    </reel>
                  </timecode>
                  <media>
                    <video>
                      <duration>18000</duration>
                      <samplecharacteristics>
                        <rate>
                          <timebase>24</timebase>
                          <ntsc>TRUE</ntsc>
                        </rate>
                        <width>1920</width>
                        <height>1080</height>
                        <anamorphic>FALSE</anamorphic>
                        <pixelaspectratio>square</pixelaspectratio>
                        <fielddominance>none</fielddominance>
                      </samplecharacteristics>
                    </video>
                    <audio>
                      <samplecharacteristics>
                        <depth>16</depth>
                        <samplerate>48000</samplerate>
                      </samplecharacteristics>
                      <channelcount>2</channelcount>
                    </audio>
                  </media>
                </file>
                <link>
                  <linkclipref>clipitem-823</linkclipref>
                  <mediatype>video</mediatype>
                  <trackindex>1</trackindex>
                  <clipindex>1</clipindex>
                </link>
                <link>
                  <linkclipref>clipitem-824</linkclipref>
                  <mediatype>audio</mediatype>
                  <trackindex>1</trackindex>
                  <clipindex>1</clipindex>
                  <groupindex>1</groupindex>
                </link>
                <link>
                  <linkclipref>clipitem-825</linkclipref>
                  <mediatype>audio</mediatype>
                  <trackindex>2</trackindex>
                  <clipindex>1</clipindex>
                  <groupindex>1</groupindex>
                </link>
              </clipitem>
            </track>
          </video>
          <audio>
            <track>
              <clipitem id="clipitem-824" frameBlend="FALSE">
                <masterclipid>masterclip-271</masterclipid>
                <name>00494.MTS</name>
                <file id="file-271"/>
                <sourcetrack>
                  <mediatype>audio</mediatype>
                  <trackindex>1</trackindex>
                </sourcetrack>
                <link>
                  <linkclipref>clipitem-823</linkclipref>
                  <mediatype>video</mediatype>
                  <trackindex>1</trackindex>
                  <clipindex>1</clipindex>
                </link>
                <link>
                  <linkclipref>clipitem-824</linkclipref>
                  <mediatype>audio</mediatype>
                  <trackindex>1</trackindex>
                  <clipindex>1</clipindex>
                  <groupindex>1</groupindex>
                </link>
                <link>
                  <linkclipref>clipitem-825</linkclipref>
                  <mediatype>audio</mediatype>
                  <trackindex>2</trackindex>
                  <clipindex>1</clipindex>
                  <groupindex>1</groupindex>
                </link>
              </clipitem>
            </track>
            <track>
              <clipitem id="clipitem-825" frameBlend="FALSE">
                <masterclipid>masterclip-271</masterclipid>
                <name>00494.MTS</name>
                <file id="file-271"/>
                <sourcetrack>
                  <mediatype>audio</mediatype>
                  <trackindex>2</trackindex>
                </sourcetrack>
                <link>
                  <linkclipref>clipitem-823</linkclipref>
                  <mediatype>video</mediatype>
                  <trackindex>1</trackindex>
                  <clipindex>1</clipindex>
                </link>
                <link>
                  <linkclipref>clipitem-824</linkclipref>
                  <mediatype>audio</mediatype>
                  <trackindex>1</trackindex>
                  <clipindex>1</clipindex>
                  <groupindex>1</groupindex>
                </link>
                <link>
                  <linkclipref>clipitem-825</linkclipref>
                  <mediatype>audio</mediatype>
                  <trackindex>2</trackindex>
                  <clipindex>1</clipindex>
                  <groupindex>1</groupindex>
                </link>
              </clipitem>
            </track>
          </audio>
        </media>
        <logginginfo>
          <description/>
          <scene/>
          <shottake/>
          <lognote/>
        </logginginfo>
      </clip>
      <clip id="masterclip-272" frameBlend="FALSE">
        <uuid>d17bfa68-0d4e-496f-b4db-a81ca366ebbe</uuid>
        <masterclipid>masterclip-272</masterclipid>
        <ismasterclip>TRUE</ismasterclip>
        <duration>265</duration>
        <rate>
          <timebase>24</timebase>
          <ntsc>TRUE</ntsc>
        </rate>
        <name>00495.MTS</name>
        <media>
          <video>
            <track>
              <clipitem id="clipitem-826" frameBlend="FALSE">
                <masterclipid>masterclip-272</masterclipid>
                <name>00495.MTS</name>
                <alphatype>black</alphatype>
                <pixelaspectratio>square</pixelaspectratio>
                <anamorphic>FALSE</anamorphic>
                <file id="file-272">
                  <name>00495.MTS</name>
                  <pathurl>file://localhost/Volumes/Macintosh%20HD/Users/jacksongs/Desktop/STREAM/00495.MTS</pathurl>
                  <rate>
                    <timebase>24</timebase>
                    <ntsc>TRUE</ntsc>
                  </rate>
                  <duration>265</duration>
                  <timecode>
                    <rate>
                      <timebase>24</timebase>
                      <ntsc>TRUE</ntsc>
                    </rate>
                    <string>00:00:00:00</string>
                    <frame>0</frame>
                    <displayformat>NDF</displayformat>
                    <reel>
                      <name/>
                    </reel>
                  </timecode>
                  <media>
                    <video>
                      <duration>18000</duration>
                      <samplecharacteristics>
                        <rate>
                          <timebase>24</timebase>
                          <ntsc>TRUE</ntsc>
                        </rate>
                        <width>1920</width>
                        <height>1080</height>
                        <anamorphic>FALSE</anamorphic>
                        <pixelaspectratio>square</pixelaspectratio>
                        <fielddominance>none</fielddominance>
                      </samplecharacteristics>
                    </video>
                    <audio>
                      <samplecharacteristics>
                        <depth>16</depth>
                        <samplerate>48000</samplerate>
                      </samplecharacteristics>
                      <channelcount>2</channelcount>
                    </audio>
                  </media>
                </file>
                <link>
                  <linkclipref>clipitem-826</linkclipref>
                  <mediatype>video</mediatype>
                  <trackindex>1</trackindex>
                  <clipindex>1</clipindex>
                </link>
                <link>
                  <linkclipref>clipitem-827</linkclipref>
                  <mediatype>audio</mediatype>
                  <trackindex>1</trackindex>
                  <clipindex>1</clipindex>
                  <groupindex>1</groupindex>
                </link>
                <link>
                  <linkclipref>clipitem-828</linkclipref>
                  <mediatype>audio</mediatype>
                  <trackindex>2</trackindex>
                  <clipindex>1</clipindex>
                  <groupindex>1</groupindex>
                </link>
              </clipitem>
            </track>
          </video>
          <audio>
            <track>
              <clipitem id="clipitem-827" frameBlend="FALSE">
                <masterclipid>masterclip-272</masterclipid>
                <name>00495.MTS</name>
                <file id="file-272"/>
                <sourcetrack>
                  <mediatype>audio</mediatype>
                  <trackindex>1</trackindex>
                </sourcetrack>
                <link>
                  <linkclipref>clipitem-826</linkclipref>
                  <mediatype>video</mediatype>
                  <trackindex>1</trackindex>
                  <clipindex>1</clipindex>
                </link>
                <link>
                  <linkclipref>clipitem-827</linkclipref>
                  <mediatype>audio</mediatype>
                  <trackindex>1</trackindex>
                  <clipindex>1</clipindex>
                  <groupindex>1</groupindex>
                </link>
                <link>
                  <linkclipref>clipitem-828</linkclipref>
                  <mediatype>audio</mediatype>
                  <trackindex>2</trackindex>
                  <clipindex>1</clipindex>
                  <groupindex>1</groupindex>
                </link>
              </clipitem>
            </track>
            <track>
              <clipitem id="clipitem-828" frameBlend="FALSE">
                <masterclipid>masterclip-272</masterclipid>
                <name>00495.MTS</name>
                <file id="file-272"/>
                <sourcetrack>
                  <mediatype>audio</mediatype>
                  <trackindex>2</trackindex>
                </sourcetrack>
                <link>
                  <linkclipref>clipitem-826</linkclipref>
                  <mediatype>video</mediatype>
                  <trackindex>1</trackindex>
                  <clipindex>1</clipindex>
                </link>
                <link>
                  <linkclipref>clipitem-827</linkclipref>
                  <mediatype>audio</mediatype>
                  <trackindex>1</trackindex>
                  <clipindex>1</clipindex>
                  <groupindex>1</groupindex>
                </link>
                <link>
                  <linkclipref>clipitem-828</linkclipref>
                  <mediatype>audio</mediatype>
                  <trackindex>2</trackindex>
                  <clipindex>1</clipindex>
                  <groupindex>1</groupindex>
                </link>
              </clipitem>
            </track>
          </audio>
        </media>
        <logginginfo>
          <description/>
          <scene/>
          <shottake/>
          <lognote/>
        </logginginfo>
      </clip>
      <clip id="masterclip-273" frameBlend="FALSE">
        <uuid>cfbcc9e9-3d12-46ec-b2d2-2acd6360fdbc</uuid>
        <masterclipid>masterclip-273</masterclipid>
        <ismasterclip>TRUE</ismasterclip>
        <duration>385</duration>
        <rate>
          <timebase>24</timebase>
          <ntsc>TRUE</ntsc>
        </rate>
        <name>00496.MTS</name>
        <media>
          <video>
            <track>
              <clipitem id="clipitem-829" frameBlend="FALSE">
                <masterclipid>masterclip-273</masterclipid>
                <name>00496.MTS</name>
                <alphatype>black</alphatype>
                <pixelaspectratio>square</pixelaspectratio>
                <anamorphic>FALSE</anamorphic>
                <file id="file-273">
                  <name>00496.MTS</name>
                  <pathurl>file://localhost/Volumes/Macintosh%20HD/Users/jacksongs/Desktop/STREAM/00496.MTS</pathurl>
                  <rate>
                    <timebase>24</timebase>
                    <ntsc>TRUE</ntsc>
                  </rate>
                  <duration>385</duration>
                  <timecode>
                    <rate>
                      <timebase>24</timebase>
                      <ntsc>TRUE</ntsc>
                    </rate>
                    <string>00:00:00:00</string>
                    <frame>0</frame>
                    <displayformat>NDF</displayformat>
                    <reel>
                      <name/>
                    </reel>
                  </timecode>
                  <media>
                    <video>
                      <duration>18000</duration>
                      <samplecharacteristics>
                        <rate>
                          <timebase>24</timebase>
                          <ntsc>TRUE</ntsc>
                        </rate>
                        <width>1920</width>
                        <height>1080</height>
                        <anamorphic>FALSE</anamorphic>
                        <pixelaspectratio>square</pixelaspectratio>
                        <fielddominance>none</fielddominance>
                      </samplecharacteristics>
                    </video>
                    <audio>
                      <samplecharacteristics>
                        <depth>16</depth>
                        <samplerate>48000</samplerate>
                      </samplecharacteristics>
                      <channelcount>2</channelcount>
                    </audio>
                  </media>
                </file>
                <link>
                  <linkclipref>clipitem-829</linkclipref>
                  <mediatype>video</mediatype>
                  <trackindex>1</trackindex>
                  <clipindex>1</clipindex>
                </link>
                <link>
                  <linkclipref>clipitem-830</linkclipref>
                  <mediatype>audio</mediatype>
                  <trackindex>1</trackindex>
                  <clipindex>1</clipindex>
                  <groupindex>1</groupindex>
                </link>
                <link>
                  <linkclipref>clipitem-831</linkclipref>
                  <mediatype>audio</mediatype>
                  <trackindex>2</trackindex>
                  <clipindex>1</clipindex>
                  <groupindex>1</groupindex>
                </link>
              </clipitem>
            </track>
          </video>
          <audio>
            <track>
              <clipitem id="clipitem-830" frameBlend="FALSE">
                <masterclipid>masterclip-273</masterclipid>
                <name>00496.MTS</name>
                <file id="file-273"/>
                <sourcetrack>
                  <mediatype>audio</mediatype>
                  <trackindex>1</trackindex>
                </sourcetrack>
                <link>
                  <linkclipref>clipitem-829</linkclipref>
                  <mediatype>video</mediatype>
                  <trackindex>1</trackindex>
                  <clipindex>1</clipindex>
                </link>
                <link>
                  <linkclipref>clipitem-830</linkclipref>
                  <mediatype>audio</mediatype>
                  <trackindex>1</trackindex>
                  <clipindex>1</clipindex>
                  <groupindex>1</groupindex>
                </link>
                <link>
                  <linkclipref>clipitem-831</linkclipref>
                  <mediatype>audio</mediatype>
                  <trackindex>2</trackindex>
                  <clipindex>1</clipindex>
                  <groupindex>1</groupindex>
                </link>
              </clipitem>
            </track>
            <track>
              <clipitem id="clipitem-831" frameBlend="FALSE">
                <masterclipid>masterclip-273</masterclipid>
                <name>00496.MTS</name>
                <file id="file-273"/>
                <sourcetrack>
                  <mediatype>audio</mediatype>
                  <trackindex>2</trackindex>
                </sourcetrack>
                <link>
                  <linkclipref>clipitem-829</linkclipref>
                  <mediatype>video</mediatype>
                  <trackindex>1</trackindex>
                  <clipindex>1</clipindex>
                </link>
                <link>
                  <linkclipref>clipitem-830</linkclipref>
                  <mediatype>audio</mediatype>
                  <trackindex>1</trackindex>
                  <clipindex>1</clipindex>
                  <groupindex>1</groupindex>
                </link>
                <link>
                  <linkclipref>clipitem-831</linkclipref>
                  <mediatype>audio</mediatype>
                  <trackindex>2</trackindex>
                  <clipindex>1</clipindex>
                  <groupindex>1</groupindex>
                </link>
              </clipitem>
            </track>
          </audio>
        </media>
        <logginginfo>
          <description/>
          <scene/>
          <shottake/>
          <lognote/>
        </logginginfo>
      </clip>
      <clip id="masterclip-274" frameBlend="FALSE">
        <uuid>d8597de2-8973-46bc-9ef9-49726d56d956</uuid>
        <masterclipid>masterclip-274</masterclipid>
        <ismasterclip>TRUE</ismasterclip>
        <duration>433</duration>
        <rate>
          <timebase>24</timebase>
          <ntsc>TRUE</ntsc>
        </rate>
        <name>00497.MTS</name>
        <media>
          <video>
            <track>
              <clipitem id="clipitem-832" frameBlend="FALSE">
                <masterclipid>masterclip-274</masterclipid>
                <name>00497.MTS</name>
                <alphatype>black</alphatype>
                <pixelaspectratio>square</pixelaspectratio>
                <anamorphic>FALSE</anamorphic>
                <file id="file-274">
                  <name>00497.MTS</name>
                  <pathurl>file://localhost/Volumes/Macintosh%20HD/Users/jacksongs/Desktop/STREAM/00497.MTS</pathurl>
                  <rate>
                    <timebase>24</timebase>
                    <ntsc>TRUE</ntsc>
                  </rate>
                  <duration>433</duration>
                  <timecode>
                    <rate>
                      <timebase>24</timebase>
                      <ntsc>TRUE</ntsc>
                    </rate>
                    <string>00:00:00:00</string>
                    <frame>0</frame>
                    <displayformat>NDF</displayformat>
                    <reel>
                      <name/>
                    </reel>
                  </timecode>
                  <media>
                    <video>
                      <duration>18000</duration>
                      <samplecharacteristics>
                        <rate>
                          <timebase>24</timebase>
                          <ntsc>TRUE</ntsc>
                        </rate>
                        <width>1920</width>
                        <height>1080</height>
                        <anamorphic>FALSE</anamorphic>
                        <pixelaspectratio>square</pixelaspectratio>
                        <fielddominance>none</fielddominance>
                      </samplecharacteristics>
                    </video>
                    <audio>
                      <samplecharacteristics>
                        <depth>16</depth>
                        <samplerate>48000</samplerate>
                      </samplecharacteristics>
                      <channelcount>2</channelcount>
                    </audio>
                  </media>
                </file>
                <link>
                  <linkclipref>clipitem-832</linkclipref>
                  <mediatype>video</mediatype>
                  <trackindex>1</trackindex>
                  <clipindex>1</clipindex>
                </link>
                <link>
                  <linkclipref>clipitem-833</linkclipref>
                  <mediatype>audio</mediatype>
                  <trackindex>1</trackindex>
                  <clipindex>1</clipindex>
                  <groupindex>1</groupindex>
                </link>
                <link>
                  <linkclipref>clipitem-834</linkclipref>
                  <mediatype>audio</mediatype>
                  <trackindex>2</trackindex>
                  <clipindex>1</clipindex>
                  <groupindex>1</groupindex>
                </link>
              </clipitem>
            </track>
          </video>
          <audio>
            <track>
              <clipitem id="clipitem-833" frameBlend="FALSE">
                <masterclipid>masterclip-274</masterclipid>
                <name>00497.MTS</name>
                <file id="file-274"/>
                <sourcetrack>
                  <mediatype>audio</mediatype>
                  <trackindex>1</trackindex>
                </sourcetrack>
                <link>
                  <linkclipref>clipitem-832</linkclipref>
                  <mediatype>video</mediatype>
                  <trackindex>1</trackindex>
                  <clipindex>1</clipindex>
                </link>
                <link>
                  <linkclipref>clipitem-833</linkclipref>
                  <mediatype>audio</mediatype>
                  <trackindex>1</trackindex>
                  <clipindex>1</clipindex>
                  <groupindex>1</groupindex>
                </link>
                <link>
                  <linkclipref>clipitem-834</linkclipref>
                  <mediatype>audio</mediatype>
                  <trackindex>2</trackindex>
                  <clipindex>1</clipindex>
                  <groupindex>1</groupindex>
                </link>
              </clipitem>
            </track>
            <track>
              <clipitem id="clipitem-834" frameBlend="FALSE">
                <masterclipid>masterclip-274</masterclipid>
                <name>00497.MTS</name>
                <file id="file-274"/>
                <sourcetrack>
                  <mediatype>audio</mediatype>
                  <trackindex>2</trackindex>
                </sourcetrack>
                <link>
                  <linkclipref>clipitem-832</linkclipref>
                  <mediatype>video</mediatype>
                  <trackindex>1</trackindex>
                  <clipindex>1</clipindex>
                </link>
                <link>
                  <linkclipref>clipitem-833</linkclipref>
                  <mediatype>audio</mediatype>
                  <trackindex>1</trackindex>
                  <clipindex>1</clipindex>
                  <groupindex>1</groupindex>
                </link>
                <link>
                  <linkclipref>clipitem-834</linkclipref>
                  <mediatype>audio</mediatype>
                  <trackindex>2</trackindex>
                  <clipindex>1</clipindex>
                  <groupindex>1</groupindex>
                </link>
              </clipitem>
            </track>
          </audio>
        </media>
        <logginginfo>
          <description/>
          <scene/>
          <shottake/>
          <lognote/>
        </logginginfo>
      </clip>
      <clip id="masterclip-275" frameBlend="FALSE">
        <uuid>4cfee283-c893-4734-9265-40c9f8e33bb8</uuid>
        <masterclipid>masterclip-275</masterclipid>
        <ismasterclip>TRUE</ismasterclip>
        <duration>325</duration>
        <rate>
          <timebase>24</timebase>
          <ntsc>TRUE</ntsc>
        </rate>
        <name>00498.MTS</name>
        <media>
          <video>
            <track>
              <clipitem id="clipitem-835" frameBlend="FALSE">
                <masterclipid>masterclip-275</masterclipid>
                <name>00498.MTS</name>
                <alphatype>black</alphatype>
                <pixelaspectratio>square</pixelaspectratio>
                <anamorphic>FALSE</anamorphic>
                <file id="file-275">
                  <name>00498.MTS</name>
                  <pathurl>file://localhost/Volumes/Macintosh%20HD/Users/jacksongs/Desktop/STREAM/00498.MTS</pathurl>
                  <rate>
                    <timebase>24</timebase>
                    <ntsc>TRUE</ntsc>
                  </rate>
                  <duration>325</duration>
                  <timecode>
                    <rate>
                      <timebase>24</timebase>
                      <ntsc>TRUE</ntsc>
                    </rate>
                    <string>00:00:00:00</string>
                    <frame>0</frame>
                    <displayformat>NDF</displayformat>
                    <reel>
                      <name/>
                    </reel>
                  </timecode>
                  <media>
                    <video>
                      <duration>18000</duration>
                      <samplecharacteristics>
                        <rate>
                          <timebase>24</timebase>
                          <ntsc>TRUE</ntsc>
                        </rate>
                        <width>1920</width>
                        <height>1080</height>
                        <anamorphic>FALSE</anamorphic>
                        <pixelaspectratio>square</pixelaspectratio>
                        <fielddominance>none</fielddominance>
                      </samplecharacteristics>
                    </video>
                    <audio>
                      <samplecharacteristics>
                        <depth>16</depth>
                        <samplerate>48000</samplerate>
                      </samplecharacteristics>
                      <channelcount>2</channelcount>
                    </audio>
                  </media>
                </file>
                <link>
                  <linkclipref>clipitem-835</linkclipref>
                  <mediatype>video</mediatype>
                  <trackindex>1</trackindex>
                  <clipindex>1</clipindex>
                </link>
                <link>
                  <linkclipref>clipitem-836</linkclipref>
                  <mediatype>audio</mediatype>
                  <trackindex>1</trackindex>
                  <clipindex>1</clipindex>
                  <groupindex>1</groupindex>
                </link>
                <link>
                  <linkclipref>clipitem-837</linkclipref>
                  <mediatype>audio</mediatype>
                  <trackindex>2</trackindex>
                  <clipindex>1</clipindex>
                  <groupindex>1</groupindex>
                </link>
              </clipitem>
            </track>
          </video>
          <audio>
            <track>
              <clipitem id="clipitem-836" frameBlend="FALSE">
                <masterclipid>masterclip-275</masterclipid>
                <name>00498.MTS</name>
                <file id="file-275"/>
                <sourcetrack>
                  <mediatype>audio</mediatype>
                  <trackindex>1</trackindex>
                </sourcetrack>
                <link>
                  <linkclipref>clipitem-835</linkclipref>
                  <mediatype>video</mediatype>
                  <trackindex>1</trackindex>
                  <clipindex>1</clipindex>
                </link>
                <link>
                  <linkclipref>clipitem-836</linkclipref>
                  <mediatype>audio</mediatype>
                  <trackindex>1</trackindex>
                  <clipindex>1</clipindex>
                  <groupindex>1</groupindex>
                </link>
                <link>
                  <linkclipref>clipitem-837</linkclipref>
                  <mediatype>audio</mediatype>
                  <trackindex>2</trackindex>
                  <clipindex>1</clipindex>
                  <groupindex>1</groupindex>
                </link>
              </clipitem>
            </track>
            <track>
              <clipitem id="clipitem-837" frameBlend="FALSE">
                <masterclipid>masterclip-275</masterclipid>
                <name>00498.MTS</name>
                <file id="file-275"/>
                <sourcetrack>
                  <mediatype>audio</mediatype>
                  <trackindex>2</trackindex>
                </sourcetrack>
                <link>
                  <linkclipref>clipitem-835</linkclipref>
                  <mediatype>video</mediatype>
                  <trackindex>1</trackindex>
                  <clipindex>1</clipindex>
                </link>
                <link>
                  <linkclipref>clipitem-836</linkclipref>
                  <mediatype>audio</mediatype>
                  <trackindex>1</trackindex>
                  <clipindex>1</clipindex>
                  <groupindex>1</groupindex>
                </link>
                <link>
                  <linkclipref>clipitem-837</linkclipref>
                  <mediatype>audio</mediatype>
                  <trackindex>2</trackindex>
                  <clipindex>1</clipindex>
                  <groupindex>1</groupindex>
                </link>
              </clipitem>
            </track>
          </audio>
        </media>
        <logginginfo>
          <description/>
          <scene/>
          <shottake/>
          <lognote/>
        </logginginfo>
      </clip>
      <clip id="masterclip-276" frameBlend="FALSE">
        <uuid>7018e20c-392a-46b6-9e31-f680ee3dbbac</uuid>
        <masterclipid>masterclip-276</masterclipid>
        <ismasterclip>TRUE</ismasterclip>
        <duration>157</duration>
        <rate>
          <timebase>24</timebase>
          <ntsc>TRUE</ntsc>
        </rate>
        <name>00499.MTS</name>
        <media>
          <video>
            <track>
              <clipitem id="clipitem-838" frameBlend="FALSE">
                <masterclipid>masterclip-276</masterclipid>
                <name>00499.MTS</name>
                <alphatype>black</alphatype>
                <pixelaspectratio>square</pixelaspectratio>
                <anamorphic>FALSE</anamorphic>
                <file id="file-276">
                  <name>00499.MTS</name>
                  <pathurl>file://localhost/Volumes/Macintosh%20HD/Users/jacksongs/Desktop/STREAM/00499.MTS</pathurl>
                  <rate>
                    <timebase>24</timebase>
                    <ntsc>TRUE</ntsc>
                  </rate>
                  <duration>157</duration>
                  <timecode>
                    <rate>
                      <timebase>24</timebase>
                      <ntsc>TRUE</ntsc>
                    </rate>
                    <string>00:00:00:00</string>
                    <frame>0</frame>
                    <displayformat>NDF</displayformat>
                    <reel>
                      <name/>
                    </reel>
                  </timecode>
                  <media>
                    <video>
                      <duration>18000</duration>
                      <samplecharacteristics>
                        <rate>
                          <timebase>24</timebase>
                          <ntsc>TRUE</ntsc>
                        </rate>
                        <width>1920</width>
                        <height>1080</height>
                        <anamorphic>FALSE</anamorphic>
                        <pixelaspectratio>square</pixelaspectratio>
                        <fielddominance>none</fielddominance>
                      </samplecharacteristics>
                    </video>
                    <audio>
                      <samplecharacteristics>
                        <depth>16</depth>
                        <samplerate>48000</samplerate>
                      </samplecharacteristics>
                      <channelcount>2</channelcount>
                    </audio>
                  </media>
                </file>
                <link>
                  <linkclipref>clipitem-838</linkclipref>
                  <mediatype>video</mediatype>
                  <trackindex>1</trackindex>
                  <clipindex>1</clipindex>
                </link>
                <link>
                  <linkclipref>clipitem-839</linkclipref>
                  <mediatype>audio</mediatype>
                  <trackindex>1</trackindex>
                  <clipindex>1</clipindex>
                  <groupindex>1</groupindex>
                </link>
                <link>
                  <linkclipref>clipitem-840</linkclipref>
                  <mediatype>audio</mediatype>
                  <trackindex>2</trackindex>
                  <clipindex>1</clipindex>
                  <groupindex>1</groupindex>
                </link>
              </clipitem>
            </track>
          </video>
          <audio>
            <track>
              <clipitem id="clipitem-839" frameBlend="FALSE">
                <masterclipid>masterclip-276</masterclipid>
                <name>00499.MTS</name>
                <file id="file-276"/>
                <sourcetrack>
                  <mediatype>audio</mediatype>
                  <trackindex>1</trackindex>
                </sourcetrack>
                <link>
                  <linkclipref>clipitem-838</linkclipref>
                  <mediatype>video</mediatype>
                  <trackindex>1</trackindex>
                  <clipindex>1</clipindex>
                </link>
                <link>
                  <linkclipref>clipitem-839</linkclipref>
                  <mediatype>audio</mediatype>
                  <trackindex>1</trackindex>
                  <clipindex>1</clipindex>
                  <groupindex>1</groupindex>
                </link>
                <link>
                  <linkclipref>clipitem-840</linkclipref>
                  <mediatype>audio</mediatype>
                  <trackindex>2</trackindex>
                  <clipindex>1</clipindex>
                  <groupindex>1</groupindex>
                </link>
              </clipitem>
            </track>
            <track>
              <clipitem id="clipitem-840" frameBlend="FALSE">
                <masterclipid>masterclip-276</masterclipid>
                <name>00499.MTS</name>
                <file id="file-276"/>
                <sourcetrack>
                  <mediatype>audio</mediatype>
                  <trackindex>2</trackindex>
                </sourcetrack>
                <link>
                  <linkclipref>clipitem-838</linkclipref>
                  <mediatype>video</mediatype>
                  <trackindex>1</trackindex>
                  <clipindex>1</clipindex>
                </link>
                <link>
                  <linkclipref>clipitem-839</linkclipref>
                  <mediatype>audio</mediatype>
                  <trackindex>1</trackindex>
                  <clipindex>1</clipindex>
                  <groupindex>1</groupindex>
                </link>
                <link>
                  <linkclipref>clipitem-840</linkclipref>
                  <mediatype>audio</mediatype>
                  <trackindex>2</trackindex>
                  <clipindex>1</clipindex>
                  <groupindex>1</groupindex>
                </link>
              </clipitem>
            </track>
          </audio>
        </media>
        <logginginfo>
          <description/>
          <scene/>
          <shottake/>
          <lognote/>
        </logginginfo>
      </clip>
      <clip id="masterclip-277" frameBlend="FALSE">
        <uuid>cdd38273-e076-4752-abe4-f9422a5e5f19</uuid>
        <masterclipid>masterclip-277</masterclipid>
        <ismasterclip>TRUE</ismasterclip>
        <duration>361</duration>
        <rate>
          <timebase>24</timebase>
          <ntsc>TRUE</ntsc>
        </rate>
        <name>00500.MTS</name>
        <media>
          <video>
            <track>
              <clipitem id="clipitem-841" frameBlend="FALSE">
                <masterclipid>masterclip-277</masterclipid>
                <name>00500.MTS</name>
                <alphatype>black</alphatype>
                <pixelaspectratio>square</pixelaspectratio>
                <anamorphic>FALSE</anamorphic>
                <file id="file-277">
                  <name>00500.MTS</name>
                  <pathurl>file://localhost/Volumes/Macintosh%20HD/Users/jacksongs/Desktop/STREAM/00500.MTS</pathurl>
                  <rate>
                    <timebase>24</timebase>
                    <ntsc>TRUE</ntsc>
                  </rate>
                  <duration>361</duration>
                  <timecode>
                    <rate>
                      <timebase>24</timebase>
                      <ntsc>TRUE</ntsc>
                    </rate>
                    <string>00:00:00:00</string>
                    <frame>0</frame>
                    <displayformat>NDF</displayformat>
                    <reel>
                      <name/>
                    </reel>
                  </timecode>
                  <media>
                    <video>
                      <duration>18000</duration>
                      <samplecharacteristics>
                        <rate>
                          <timebase>24</timebase>
                          <ntsc>TRUE</ntsc>
                        </rate>
                        <width>1920</width>
                        <height>1080</height>
                        <anamorphic>FALSE</anamorphic>
                        <pixelaspectratio>square</pixelaspectratio>
                        <fielddominance>none</fielddominance>
                      </samplecharacteristics>
                    </video>
                    <audio>
                      <samplecharacteristics>
                        <depth>16</depth>
                        <samplerate>48000</samplerate>
                      </samplecharacteristics>
                      <channelcount>2</channelcount>
                    </audio>
                  </media>
                </file>
                <link>
                  <linkclipref>clipitem-841</linkclipref>
                  <mediatype>video</mediatype>
                  <trackindex>1</trackindex>
                  <clipindex>1</clipindex>
                </link>
                <link>
                  <linkclipref>clipitem-842</linkclipref>
                  <mediatype>audio</mediatype>
                  <trackindex>1</trackindex>
                  <clipindex>1</clipindex>
                  <groupindex>1</groupindex>
                </link>
                <link>
                  <linkclipref>clipitem-843</linkclipref>
                  <mediatype>audio</mediatype>
                  <trackindex>2</trackindex>
                  <clipindex>1</clipindex>
                  <groupindex>1</groupindex>
                </link>
              </clipitem>
            </track>
          </video>
          <audio>
            <track>
              <clipitem id="clipitem-842" frameBlend="FALSE">
                <masterclipid>masterclip-277</masterclipid>
                <name>00500.MTS</name>
                <file id="file-277"/>
                <sourcetrack>
                  <mediatype>audio</mediatype>
                  <trackindex>1</trackindex>
                </sourcetrack>
                <link>
                  <linkclipref>clipitem-841</linkclipref>
                  <mediatype>video</mediatype>
                  <trackindex>1</trackindex>
                  <clipindex>1</clipindex>
                </link>
                <link>
                  <linkclipref>clipitem-842</linkclipref>
                  <mediatype>audio</mediatype>
                  <trackindex>1</trackindex>
                  <clipindex>1</clipindex>
                  <groupindex>1</groupindex>
                </link>
                <link>
                  <linkclipref>clipitem-843</linkclipref>
                  <mediatype>audio</mediatype>
                  <trackindex>2</trackindex>
                  <clipindex>1</clipindex>
                  <groupindex>1</groupindex>
                </link>
              </clipitem>
            </track>
            <track>
              <clipitem id="clipitem-843" frameBlend="FALSE">
                <masterclipid>masterclip-277</masterclipid>
                <name>00500.MTS</name>
                <file id="file-277"/>
                <sourcetrack>
                  <mediatype>audio</mediatype>
                  <trackindex>2</trackindex>
                </sourcetrack>
                <link>
                  <linkclipref>clipitem-841</linkclipref>
                  <mediatype>video</mediatype>
                  <trackindex>1</trackindex>
                  <clipindex>1</clipindex>
                </link>
                <link>
                  <linkclipref>clipitem-842</linkclipref>
                  <mediatype>audio</mediatype>
                  <trackindex>1</trackindex>
                  <clipindex>1</clipindex>
                  <groupindex>1</groupindex>
                </link>
                <link>
                  <linkclipref>clipitem-843</linkclipref>
                  <mediatype>audio</mediatype>
                  <trackindex>2</trackindex>
                  <clipindex>1</clipindex>
                  <groupindex>1</groupindex>
                </link>
              </clipitem>
            </track>
          </audio>
        </media>
        <logginginfo>
          <description/>
          <scene/>
          <shottake/>
          <lognote/>
        </logginginfo>
      </clip>
      <clip id="masterclip-278" frameBlend="FALSE">
        <uuid>a77678d7-20cf-43fc-92a8-b11db56c7040</uuid>
        <masterclipid>masterclip-278</masterclipid>
        <ismasterclip>TRUE</ismasterclip>
        <duration>241</duration>
        <rate>
          <timebase>24</timebase>
          <ntsc>TRUE</ntsc>
        </rate>
        <name>00501.MTS</name>
        <media>
          <video>
            <track>
              <clipitem id="clipitem-844" frameBlend="FALSE">
                <masterclipid>masterclip-278</masterclipid>
                <name>00501.MTS</name>
                <alphatype>black</alphatype>
                <pixelaspectratio>square</pixelaspectratio>
                <anamorphic>FALSE</anamorphic>
                <file id="file-278">
                  <name>00501.MTS</name>
                  <pathurl>file://localhost/Volumes/Macintosh%20HD/Users/jacksongs/Desktop/STREAM/00501.MTS</pathurl>
                  <rate>
                    <timebase>24</timebase>
                    <ntsc>TRUE</ntsc>
                  </rate>
                  <duration>241</duration>
                  <timecode>
                    <rate>
                      <timebase>24</timebase>
                      <ntsc>TRUE</ntsc>
                    </rate>
                    <string>00:00:00:00</string>
                    <frame>0</frame>
                    <displayformat>NDF</displayformat>
                    <reel>
                      <name/>
                    </reel>
                  </timecode>
                  <media>
                    <video>
                      <duration>18000</duration>
                      <samplecharacteristics>
                        <rate>
                          <timebase>24</timebase>
                          <ntsc>TRUE</ntsc>
                        </rate>
                        <width>1920</width>
                        <height>1080</height>
                        <anamorphic>FALSE</anamorphic>
                        <pixelaspectratio>square</pixelaspectratio>
                        <fielddominance>none</fielddominance>
                      </samplecharacteristics>
                    </video>
                    <audio>
                      <samplecharacteristics>
                        <depth>16</depth>
                        <samplerate>48000</samplerate>
                      </samplecharacteristics>
                      <channelcount>2</channelcount>
                    </audio>
                  </media>
                </file>
                <link>
                  <linkclipref>clipitem-844</linkclipref>
                  <mediatype>video</mediatype>
                  <trackindex>1</trackindex>
                  <clipindex>1</clipindex>
                </link>
                <link>
                  <linkclipref>clipitem-845</linkclipref>
                  <mediatype>audio</mediatype>
                  <trackindex>1</trackindex>
                  <clipindex>1</clipindex>
                  <groupindex>1</groupindex>
                </link>
                <link>
                  <linkclipref>clipitem-846</linkclipref>
                  <mediatype>audio</mediatype>
                  <trackindex>2</trackindex>
                  <clipindex>1</clipindex>
                  <groupindex>1</groupindex>
                </link>
              </clipitem>
            </track>
          </video>
          <audio>
            <track>
              <clipitem id="clipitem-845" frameBlend="FALSE">
                <masterclipid>masterclip-278</masterclipid>
                <name>00501.MTS</name>
                <file id="file-278"/>
                <sourcetrack>
                  <mediatype>audio</mediatype>
                  <trackindex>1</trackindex>
                </sourcetrack>
                <link>
                  <linkclipref>clipitem-844</linkclipref>
                  <mediatype>video</mediatype>
                  <trackindex>1</trackindex>
                  <clipindex>1</clipindex>
                </link>
                <link>
                  <linkclipref>clipitem-845</linkclipref>
                  <mediatype>audio</mediatype>
                  <trackindex>1</trackindex>
                  <clipindex>1</clipindex>
                  <groupindex>1</groupindex>
                </link>
                <link>
                  <linkclipref>clipitem-846</linkclipref>
                  <mediatype>audio</mediatype>
                  <trackindex>2</trackindex>
                  <clipindex>1</clipindex>
                  <groupindex>1</groupindex>
                </link>
              </clipitem>
            </track>
            <track>
              <clipitem id="clipitem-846" frameBlend="FALSE">
                <masterclipid>masterclip-278</masterclipid>
                <name>00501.MTS</name>
                <file id="file-278"/>
                <sourcetrack>
                  <mediatype>audio</mediatype>
                  <trackindex>2</trackindex>
                </sourcetrack>
                <link>
                  <linkclipref>clipitem-844</linkclipref>
                  <mediatype>video</mediatype>
                  <trackindex>1</trackindex>
                  <clipindex>1</clipindex>
                </link>
                <link>
                  <linkclipref>clipitem-845</linkclipref>
                  <mediatype>audio</mediatype>
                  <trackindex>1</trackindex>
                  <clipindex>1</clipindex>
                  <groupindex>1</groupindex>
                </link>
                <link>
                  <linkclipref>clipitem-846</linkclipref>
                  <mediatype>audio</mediatype>
                  <trackindex>2</trackindex>
                  <clipindex>1</clipindex>
                  <groupindex>1</groupindex>
                </link>
              </clipitem>
            </track>
          </audio>
        </media>
        <logginginfo>
          <description/>
          <scene/>
          <shottake/>
          <lognote/>
        </logginginfo>
      </clip>
      <clip id="masterclip-279" frameBlend="FALSE">
        <uuid>232972df-7114-406f-9164-412cff1622f4</uuid>
        <masterclipid>masterclip-279</masterclipid>
        <ismasterclip>TRUE</ismasterclip>
        <duration>661</duration>
        <rate>
          <timebase>24</timebase>
          <ntsc>TRUE</ntsc>
        </rate>
        <name>00502.MTS</name>
        <media>
          <video>
            <track>
              <clipitem id="clipitem-847" frameBlend="FALSE">
                <masterclipid>masterclip-279</masterclipid>
                <name>00502.MTS</name>
                <alphatype>black</alphatype>
                <pixelaspectratio>square</pixelaspectratio>
                <anamorphic>FALSE</anamorphic>
                <file id="file-279">
                  <name>00502.MTS</name>
                  <pathurl>file://localhost/Volumes/Macintosh%20HD/Users/jacksongs/Desktop/STREAM/00502.MTS</pathurl>
                  <rate>
                    <timebase>24</timebase>
                    <ntsc>TRUE</ntsc>
                  </rate>
                  <duration>661</duration>
                  <timecode>
                    <rate>
                      <timebase>24</timebase>
                      <ntsc>TRUE</ntsc>
                    </rate>
                    <string>00:00:00:00</string>
                    <frame>0</frame>
                    <displayformat>NDF</displayformat>
                    <reel>
                      <name/>
                    </reel>
                  </timecode>
                  <media>
                    <video>
                      <duration>18000</duration>
                      <samplecharacteristics>
                        <rate>
                          <timebase>24</timebase>
                          <ntsc>TRUE</ntsc>
                        </rate>
                        <width>1920</width>
                        <height>1080</height>
                        <anamorphic>FALSE</anamorphic>
                        <pixelaspectratio>square</pixelaspectratio>
                        <fielddominance>none</fielddominance>
                      </samplecharacteristics>
                    </video>
                    <audio>
                      <samplecharacteristics>
                        <depth>16</depth>
                        <samplerate>48000</samplerate>
                      </samplecharacteristics>
                      <channelcount>2</channelcount>
                    </audio>
                  </media>
                </file>
                <link>
                  <linkclipref>clipitem-847</linkclipref>
                  <mediatype>video</mediatype>
                  <trackindex>1</trackindex>
                  <clipindex>1</clipindex>
                </link>
                <link>
                  <linkclipref>clipitem-848</linkclipref>
                  <mediatype>audio</mediatype>
                  <trackindex>1</trackindex>
                  <clipindex>1</clipindex>
                  <groupindex>1</groupindex>
                </link>
                <link>
                  <linkclipref>clipitem-849</linkclipref>
                  <mediatype>audio</mediatype>
                  <trackindex>2</trackindex>
                  <clipindex>1</clipindex>
                  <groupindex>1</groupindex>
                </link>
              </clipitem>
            </track>
          </video>
          <audio>
            <track>
              <clipitem id="clipitem-848" frameBlend="FALSE">
                <masterclipid>masterclip-279</masterclipid>
                <name>00502.MTS</name>
                <file id="file-279"/>
                <sourcetrack>
                  <mediatype>audio</mediatype>
                  <trackindex>1</trackindex>
                </sourcetrack>
                <link>
                  <linkclipref>clipitem-847</linkclipref>
                  <mediatype>video</mediatype>
                  <trackindex>1</trackindex>
                  <clipindex>1</clipindex>
                </link>
                <link>
                  <linkclipref>clipitem-848</linkclipref>
                  <mediatype>audio</mediatype>
                  <trackindex>1</trackindex>
                  <clipindex>1</clipindex>
                  <groupindex>1</groupindex>
                </link>
                <link>
                  <linkclipref>clipitem-849</linkclipref>
                  <mediatype>audio</mediatype>
                  <trackindex>2</trackindex>
                  <clipindex>1</clipindex>
                  <groupindex>1</groupindex>
                </link>
              </clipitem>
            </track>
            <track>
              <clipitem id="clipitem-849" frameBlend="FALSE">
                <masterclipid>masterclip-279</masterclipid>
                <name>00502.MTS</name>
                <file id="file-279"/>
                <sourcetrack>
                  <mediatype>audio</mediatype>
                  <trackindex>2</trackindex>
                </sourcetrack>
                <link>
                  <linkclipref>clipitem-847</linkclipref>
                  <mediatype>video</mediatype>
                  <trackindex>1</trackindex>
                  <clipindex>1</clipindex>
                </link>
                <link>
                  <linkclipref>clipitem-848</linkclipref>
                  <mediatype>audio</mediatype>
                  <trackindex>1</trackindex>
                  <clipindex>1</clipindex>
                  <groupindex>1</groupindex>
                </link>
                <link>
                  <linkclipref>clipitem-849</linkclipref>
                  <mediatype>audio</mediatype>
                  <trackindex>2</trackindex>
                  <clipindex>1</clipindex>
                  <groupindex>1</groupindex>
                </link>
              </clipitem>
            </track>
          </audio>
        </media>
        <logginginfo>
          <description/>
          <scene/>
          <shottake/>
          <lognote/>
        </logginginfo>
      </clip>
      <clip id="masterclip-280" frameBlend="FALSE">
        <uuid>39c5500e-834a-4cca-bc0b-d764bc0e3a88</uuid>
        <masterclipid>masterclip-280</masterclipid>
        <ismasterclip>TRUE</ismasterclip>
        <duration>253</duration>
        <rate>
          <timebase>24</timebase>
          <ntsc>TRUE</ntsc>
        </rate>
        <name>00503.MTS</name>
        <media>
          <video>
            <track>
              <clipitem id="clipitem-850" frameBlend="FALSE">
                <masterclipid>masterclip-280</masterclipid>
                <name>00503.MTS</name>
                <alphatype>black</alphatype>
                <pixelaspectratio>square</pixelaspectratio>
                <anamorphic>FALSE</anamorphic>
                <file id="file-280">
                  <name>00503.MTS</name>
                  <pathurl>file://localhost/Volumes/Macintosh%20HD/Users/jacksongs/Desktop/STREAM/00503.MTS</pathurl>
                  <rate>
                    <timebase>24</timebase>
                    <ntsc>TRUE</ntsc>
                  </rate>
                  <duration>253</duration>
                  <timecode>
                    <rate>
                      <timebase>24</timebase>
                      <ntsc>TRUE</ntsc>
                    </rate>
                    <string>00:00:00:00</string>
                    <frame>0</frame>
                    <displayformat>NDF</displayformat>
                    <reel>
                      <name/>
                    </reel>
                  </timecode>
                  <media>
                    <video>
                      <duration>18000</duration>
                      <samplecharacteristics>
                        <rate>
                          <timebase>24</timebase>
                          <ntsc>TRUE</ntsc>
                        </rate>
                        <width>1920</width>
                        <height>1080</height>
                        <anamorphic>FALSE</anamorphic>
                        <pixelaspectratio>square</pixelaspectratio>
                        <fielddominance>none</fielddominance>
                      </samplecharacteristics>
                    </video>
                    <audio>
                      <samplecharacteristics>
                        <depth>16</depth>
                        <samplerate>48000</samplerate>
                      </samplecharacteristics>
                      <channelcount>2</channelcount>
                    </audio>
                  </media>
                </file>
                <link>
                  <linkclipref>clipitem-850</linkclipref>
                  <mediatype>video</mediatype>
                  <trackindex>1</trackindex>
                  <clipindex>1</clipindex>
                </link>
                <link>
                  <linkclipref>clipitem-851</linkclipref>
                  <mediatype>audio</mediatype>
                  <trackindex>1</trackindex>
                  <clipindex>1</clipindex>
                  <groupindex>1</groupindex>
                </link>
                <link>
                  <linkclipref>clipitem-852</linkclipref>
                  <mediatype>audio</mediatype>
                  <trackindex>2</trackindex>
                  <clipindex>1</clipindex>
                  <groupindex>1</groupindex>
                </link>
              </clipitem>
            </track>
          </video>
          <audio>
            <track>
              <clipitem id="clipitem-851" frameBlend="FALSE">
                <masterclipid>masterclip-280</masterclipid>
                <name>00503.MTS</name>
                <file id="file-280"/>
                <sourcetrack>
                  <mediatype>audio</mediatype>
                  <trackindex>1</trackindex>
                </sourcetrack>
                <link>
                  <linkclipref>clipitem-850</linkclipref>
                  <mediatype>video</mediatype>
                  <trackindex>1</trackindex>
                  <clipindex>1</clipindex>
                </link>
                <link>
                  <linkclipref>clipitem-851</linkclipref>
                  <mediatype>audio</mediatype>
                  <trackindex>1</trackindex>
                  <clipindex>1</clipindex>
                  <groupindex>1</groupindex>
                </link>
                <link>
                  <linkclipref>clipitem-852</linkclipref>
                  <mediatype>audio</mediatype>
                  <trackindex>2</trackindex>
                  <clipindex>1</clipindex>
                  <groupindex>1</groupindex>
                </link>
              </clipitem>
            </track>
            <track>
              <clipitem id="clipitem-852" frameBlend="FALSE">
                <masterclipid>masterclip-280</masterclipid>
                <name>00503.MTS</name>
                <file id="file-280"/>
                <sourcetrack>
                  <mediatype>audio</mediatype>
                  <trackindex>2</trackindex>
                </sourcetrack>
                <link>
                  <linkclipref>clipitem-850</linkclipref>
                  <mediatype>video</mediatype>
                  <trackindex>1</trackindex>
                  <clipindex>1</clipindex>
                </link>
                <link>
                  <linkclipref>clipitem-851</linkclipref>
                  <mediatype>audio</mediatype>
                  <trackindex>1</trackindex>
                  <clipindex>1</clipindex>
                  <groupindex>1</groupindex>
                </link>
                <link>
                  <linkclipref>clipitem-852</linkclipref>
                  <mediatype>audio</mediatype>
                  <trackindex>2</trackindex>
                  <clipindex>1</clipindex>
                  <groupindex>1</groupindex>
                </link>
              </clipitem>
            </track>
          </audio>
        </media>
        <logginginfo>
          <description/>
          <scene/>
          <shottake/>
          <lognote/>
        </logginginfo>
      </clip>
      <clip id="masterclip-281" frameBlend="FALSE">
        <uuid>e2237f1e-a05c-496c-95ba-998f17d45cdf</uuid>
        <masterclipid>masterclip-281</masterclipid>
        <ismasterclip>TRUE</ismasterclip>
        <duration>301</duration>
        <rate>
          <timebase>24</timebase>
          <ntsc>TRUE</ntsc>
        </rate>
        <name>00504.MTS</name>
        <media>
          <video>
            <track>
              <clipitem id="clipitem-853" frameBlend="FALSE">
                <masterclipid>masterclip-281</masterclipid>
                <name>00504.MTS</name>
                <alphatype>black</alphatype>
                <pixelaspectratio>square</pixelaspectratio>
                <anamorphic>FALSE</anamorphic>
                <file id="file-281">
                  <name>00504.MTS</name>
                  <pathurl>file://localhost/Volumes/Macintosh%20HD/Users/jacksongs/Desktop/STREAM/00504.MTS</pathurl>
                  <rate>
                    <timebase>24</timebase>
                    <ntsc>TRUE</ntsc>
                  </rate>
                  <duration>301</duration>
                  <timecode>
                    <rate>
                      <timebase>24</timebase>
                      <ntsc>TRUE</ntsc>
                    </rate>
                    <string>00:00:00:00</string>
                    <frame>0</frame>
                    <displayformat>NDF</displayformat>
                    <reel>
                      <name/>
                    </reel>
                  </timecode>
                  <media>
                    <video>
                      <duration>18000</duration>
                      <samplecharacteristics>
                        <rate>
                          <timebase>24</timebase>
                          <ntsc>TRUE</ntsc>
                        </rate>
                        <width>1920</width>
                        <height>1080</height>
                        <anamorphic>FALSE</anamorphic>
                        <pixelaspectratio>square</pixelaspectratio>
                        <fielddominance>none</fielddominance>
                      </samplecharacteristics>
                    </video>
                    <audio>
                      <samplecharacteristics>
                        <depth>16</depth>
                        <samplerate>48000</samplerate>
                      </samplecharacteristics>
                      <channelcount>2</channelcount>
                    </audio>
                  </media>
                </file>
                <link>
                  <linkclipref>clipitem-853</linkclipref>
                  <mediatype>video</mediatype>
                  <trackindex>1</trackindex>
                  <clipindex>1</clipindex>
                </link>
                <link>
                  <linkclipref>clipitem-854</linkclipref>
                  <mediatype>audio</mediatype>
                  <trackindex>1</trackindex>
                  <clipindex>1</clipindex>
                  <groupindex>1</groupindex>
                </link>
                <link>
                  <linkclipref>clipitem-855</linkclipref>
                  <mediatype>audio</mediatype>
                  <trackindex>2</trackindex>
                  <clipindex>1</clipindex>
                  <groupindex>1</groupindex>
                </link>
              </clipitem>
            </track>
          </video>
          <audio>
            <track>
              <clipitem id="clipitem-854" frameBlend="FALSE">
                <masterclipid>masterclip-281</masterclipid>
                <name>00504.MTS</name>
                <file id="file-281"/>
                <sourcetrack>
                  <mediatype>audio</mediatype>
                  <trackindex>1</trackindex>
                </sourcetrack>
                <link>
                  <linkclipref>clipitem-853</linkclipref>
                  <mediatype>video</mediatype>
                  <trackindex>1</trackindex>
                  <clipindex>1</clipindex>
                </link>
                <link>
                  <linkclipref>clipitem-854</linkclipref>
                  <mediatype>audio</mediatype>
                  <trackindex>1</trackindex>
                  <clipindex>1</clipindex>
                  <groupindex>1</groupindex>
                </link>
                <link>
                  <linkclipref>clipitem-855</linkclipref>
                  <mediatype>audio</mediatype>
                  <trackindex>2</trackindex>
                  <clipindex>1</clipindex>
                  <groupindex>1</groupindex>
                </link>
              </clipitem>
            </track>
            <track>
              <clipitem id="clipitem-855" frameBlend="FALSE">
                <masterclipid>masterclip-281</masterclipid>
                <name>00504.MTS</name>
                <file id="file-281"/>
                <sourcetrack>
                  <mediatype>audio</mediatype>
                  <trackindex>2</trackindex>
                </sourcetrack>
                <link>
                  <linkclipref>clipitem-853</linkclipref>
                  <mediatype>video</mediatype>
                  <trackindex>1</trackindex>
                  <clipindex>1</clipindex>
                </link>
                <link>
                  <linkclipref>clipitem-854</linkclipref>
                  <mediatype>audio</mediatype>
                  <trackindex>1</trackindex>
                  <clipindex>1</clipindex>
                  <groupindex>1</groupindex>
                </link>
                <link>
                  <linkclipref>clipitem-855</linkclipref>
                  <mediatype>audio</mediatype>
                  <trackindex>2</trackindex>
                  <clipindex>1</clipindex>
                  <groupindex>1</groupindex>
                </link>
              </clipitem>
            </track>
          </audio>
        </media>
        <logginginfo>
          <description/>
          <scene/>
          <shottake/>
          <lognote/>
        </logginginfo>
      </clip>
      <clip id="masterclip-282" frameBlend="FALSE">
        <uuid>3e3cd6dd-779b-480b-8b7f-7e006ba5c059</uuid>
        <masterclipid>masterclip-282</masterclipid>
        <ismasterclip>TRUE</ismasterclip>
        <duration>421</duration>
        <rate>
          <timebase>24</timebase>
          <ntsc>TRUE</ntsc>
        </rate>
        <name>00505.MTS</name>
        <media>
          <video>
            <track>
              <clipitem id="clipitem-856" frameBlend="FALSE">
                <masterclipid>masterclip-282</masterclipid>
                <name>00505.MTS</name>
                <alphatype>black</alphatype>
                <pixelaspectratio>square</pixelaspectratio>
                <anamorphic>FALSE</anamorphic>
                <file id="file-282">
                  <name>00505.MTS</name>
                  <pathurl>file://localhost/Volumes/Macintosh%20HD/Users/jacksongs/Desktop/STREAM/00505.MTS</pathurl>
                  <rate>
                    <timebase>24</timebase>
                    <ntsc>TRUE</ntsc>
                  </rate>
                  <duration>421</duration>
                  <timecode>
                    <rate>
                      <timebase>24</timebase>
                      <ntsc>TRUE</ntsc>
                    </rate>
                    <string>00:00:00:00</string>
                    <frame>0</frame>
                    <displayformat>NDF</displayformat>
                    <reel>
                      <name/>
                    </reel>
                  </timecode>
                  <media>
                    <video>
                      <duration>18000</duration>
                      <samplecharacteristics>
                        <rate>
                          <timebase>24</timebase>
                          <ntsc>TRUE</ntsc>
                        </rate>
                        <width>1920</width>
                        <height>1080</height>
                        <anamorphic>FALSE</anamorphic>
                        <pixelaspectratio>square</pixelaspectratio>
                        <fielddominance>none</fielddominance>
                      </samplecharacteristics>
                    </video>
                    <audio>
                      <samplecharacteristics>
                        <depth>16</depth>
                        <samplerate>48000</samplerate>
                      </samplecharacteristics>
                      <channelcount>2</channelcount>
                    </audio>
                  </media>
                </file>
                <link>
                  <linkclipref>clipitem-856</linkclipref>
                  <mediatype>video</mediatype>
                  <trackindex>1</trackindex>
                  <clipindex>1</clipindex>
                </link>
                <link>
                  <linkclipref>clipitem-857</linkclipref>
                  <mediatype>audio</mediatype>
                  <trackindex>1</trackindex>
                  <clipindex>1</clipindex>
                  <groupindex>1</groupindex>
                </link>
                <link>
                  <linkclipref>clipitem-858</linkclipref>
                  <mediatype>audio</mediatype>
                  <trackindex>2</trackindex>
                  <clipindex>1</clipindex>
                  <groupindex>1</groupindex>
                </link>
              </clipitem>
            </track>
          </video>
          <audio>
            <track>
              <clipitem id="clipitem-857" frameBlend="FALSE">
                <masterclipid>masterclip-282</masterclipid>
                <name>00505.MTS</name>
                <file id="file-282"/>
                <sourcetrack>
                  <mediatype>audio</mediatype>
                  <trackindex>1</trackindex>
                </sourcetrack>
                <link>
                  <linkclipref>clipitem-856</linkclipref>
                  <mediatype>video</mediatype>
                  <trackindex>1</trackindex>
                  <clipindex>1</clipindex>
                </link>
                <link>
                  <linkclipref>clipitem-857</linkclipref>
                  <mediatype>audio</mediatype>
                  <trackindex>1</trackindex>
                  <clipindex>1</clipindex>
                  <groupindex>1</groupindex>
                </link>
                <link>
                  <linkclipref>clipitem-858</linkclipref>
                  <mediatype>audio</mediatype>
                  <trackindex>2</trackindex>
                  <clipindex>1</clipindex>
                  <groupindex>1</groupindex>
                </link>
              </clipitem>
            </track>
            <track>
              <clipitem id="clipitem-858" frameBlend="FALSE">
                <masterclipid>masterclip-282</masterclipid>
                <name>00505.MTS</name>
                <file id="file-282"/>
                <sourcetrack>
                  <mediatype>audio</mediatype>
                  <trackindex>2</trackindex>
                </sourcetrack>
                <link>
                  <linkclipref>clipitem-856</linkclipref>
                  <mediatype>video</mediatype>
                  <trackindex>1</trackindex>
                  <clipindex>1</clipindex>
                </link>
                <link>
                  <linkclipref>clipitem-857</linkclipref>
                  <mediatype>audio</mediatype>
                  <trackindex>1</trackindex>
                  <clipindex>1</clipindex>
                  <groupindex>1</groupindex>
                </link>
                <link>
                  <linkclipref>clipitem-858</linkclipref>
                  <mediatype>audio</mediatype>
                  <trackindex>2</trackindex>
                  <clipindex>1</clipindex>
                  <groupindex>1</groupindex>
                </link>
              </clipitem>
            </track>
          </audio>
        </media>
        <logginginfo>
          <description/>
          <scene/>
          <shottake/>
          <lognote/>
        </logginginfo>
      </clip>
      <clip id="masterclip-283" frameBlend="FALSE">
        <uuid>e69ebd3a-e0bc-4503-8379-20724e4cef2d</uuid>
        <masterclipid>masterclip-283</masterclipid>
        <ismasterclip>TRUE</ismasterclip>
        <duration>493</duration>
        <rate>
          <timebase>24</timebase>
          <ntsc>TRUE</ntsc>
        </rate>
        <name>00506.MTS</name>
        <media>
          <video>
            <track>
              <clipitem id="clipitem-859" frameBlend="FALSE">
                <masterclipid>masterclip-283</masterclipid>
                <name>00506.MTS</name>
                <alphatype>black</alphatype>
                <pixelaspectratio>square</pixelaspectratio>
                <anamorphic>FALSE</anamorphic>
                <file id="file-283">
                  <name>00506.MTS</name>
                  <pathurl>file://localhost/Volumes/Macintosh%20HD/Users/jacksongs/Desktop/STREAM/00506.MTS</pathurl>
                  <rate>
                    <timebase>24</timebase>
                    <ntsc>TRUE</ntsc>
                  </rate>
                  <duration>493</duration>
                  <timecode>
                    <rate>
                      <timebase>24</timebase>
                      <ntsc>TRUE</ntsc>
                    </rate>
                    <string>00:00:00:00</string>
                    <frame>0</frame>
                    <displayformat>NDF</displayformat>
                    <reel>
                      <name/>
                    </reel>
                  </timecode>
                  <media>
                    <video>
                      <duration>18000</duration>
                      <samplecharacteristics>
                        <rate>
                          <timebase>24</timebase>
                          <ntsc>TRUE</ntsc>
                        </rate>
                        <width>1920</width>
                        <height>1080</height>
                        <anamorphic>FALSE</anamorphic>
                        <pixelaspectratio>square</pixelaspectratio>
                        <fielddominance>none</fielddominance>
                      </samplecharacteristics>
                    </video>
                    <audio>
                      <samplecharacteristics>
                        <depth>16</depth>
                        <samplerate>48000</samplerate>
                      </samplecharacteristics>
                      <channelcount>2</channelcount>
                    </audio>
                  </media>
                </file>
                <link>
                  <linkclipref>clipitem-859</linkclipref>
                  <mediatype>video</mediatype>
                  <trackindex>1</trackindex>
                  <clipindex>1</clipindex>
                </link>
                <link>
                  <linkclipref>clipitem-860</linkclipref>
                  <mediatype>audio</mediatype>
                  <trackindex>1</trackindex>
                  <clipindex>1</clipindex>
                  <groupindex>1</groupindex>
                </link>
                <link>
                  <linkclipref>clipitem-861</linkclipref>
                  <mediatype>audio</mediatype>
                  <trackindex>2</trackindex>
                  <clipindex>1</clipindex>
                  <groupindex>1</groupindex>
                </link>
              </clipitem>
            </track>
          </video>
          <audio>
            <track>
              <clipitem id="clipitem-860" frameBlend="FALSE">
                <masterclipid>masterclip-283</masterclipid>
                <name>00506.MTS</name>
                <file id="file-283"/>
                <sourcetrack>
                  <mediatype>audio</mediatype>
                  <trackindex>1</trackindex>
                </sourcetrack>
                <link>
                  <linkclipref>clipitem-859</linkclipref>
                  <mediatype>video</mediatype>
                  <trackindex>1</trackindex>
                  <clipindex>1</clipindex>
                </link>
                <link>
                  <linkclipref>clipitem-860</linkclipref>
                  <mediatype>audio</mediatype>
                  <trackindex>1</trackindex>
                  <clipindex>1</clipindex>
                  <groupindex>1</groupindex>
                </link>
                <link>
                  <linkclipref>clipitem-861</linkclipref>
                  <mediatype>audio</mediatype>
                  <trackindex>2</trackindex>
                  <clipindex>1</clipindex>
                  <groupindex>1</groupindex>
                </link>
              </clipitem>
            </track>
            <track>
              <clipitem id="clipitem-861" frameBlend="FALSE">
                <masterclipid>masterclip-283</masterclipid>
                <name>00506.MTS</name>
                <file id="file-283"/>
                <sourcetrack>
                  <mediatype>audio</mediatype>
                  <trackindex>2</trackindex>
                </sourcetrack>
                <link>
                  <linkclipref>clipitem-859</linkclipref>
                  <mediatype>video</mediatype>
                  <trackindex>1</trackindex>
                  <clipindex>1</clipindex>
                </link>
                <link>
                  <linkclipref>clipitem-860</linkclipref>
                  <mediatype>audio</mediatype>
                  <trackindex>1</trackindex>
                  <clipindex>1</clipindex>
                  <groupindex>1</groupindex>
                </link>
                <link>
                  <linkclipref>clipitem-861</linkclipref>
                  <mediatype>audio</mediatype>
                  <trackindex>2</trackindex>
                  <clipindex>1</clipindex>
                  <groupindex>1</groupindex>
                </link>
              </clipitem>
            </track>
          </audio>
        </media>
        <logginginfo>
          <description/>
          <scene/>
          <shottake/>
          <lognote/>
        </logginginfo>
      </clip>
      <clip id="masterclip-284" frameBlend="FALSE">
        <uuid>c8e9b42f-aaf0-4ede-aad5-cc65a0a6ac2c</uuid>
        <masterclipid>masterclip-284</masterclipid>
        <ismasterclip>TRUE</ismasterclip>
        <duration>289</duration>
        <rate>
          <timebase>24</timebase>
          <ntsc>TRUE</ntsc>
        </rate>
        <name>00507.MTS</name>
        <media>
          <video>
            <track>
              <clipitem id="clipitem-862" frameBlend="FALSE">
                <masterclipid>masterclip-284</masterclipid>
                <name>00507.MTS</name>
                <alphatype>black</alphatype>
                <pixelaspectratio>square</pixelaspectratio>
                <anamorphic>FALSE</anamorphic>
                <file id="file-284">
                  <name>00507.MTS</name>
                  <pathurl>file://localhost/Volumes/Macintosh%20HD/Users/jacksongs/Desktop/STREAM/00507.MTS</pathurl>
                  <rate>
                    <timebase>24</timebase>
                    <ntsc>TRUE</ntsc>
                  </rate>
                  <duration>289</duration>
                  <timecode>
                    <rate>
                      <timebase>24</timebase>
                      <ntsc>TRUE</ntsc>
                    </rate>
                    <string>00:00:00:00</string>
                    <frame>0</frame>
                    <displayformat>NDF</displayformat>
                    <reel>
                      <name/>
                    </reel>
                  </timecode>
                  <media>
                    <video>
                      <duration>18000</duration>
                      <samplecharacteristics>
                        <rate>
                          <timebase>24</timebase>
                          <ntsc>TRUE</ntsc>
                        </rate>
                        <width>1920</width>
                        <height>1080</height>
                        <anamorphic>FALSE</anamorphic>
                        <pixelaspectratio>square</pixelaspectratio>
                        <fielddominance>none</fielddominance>
                      </samplecharacteristics>
                    </video>
                    <audio>
                      <samplecharacteristics>
                        <depth>16</depth>
                        <samplerate>48000</samplerate>
                      </samplecharacteristics>
                      <channelcount>2</channelcount>
                    </audio>
                  </media>
                </file>
                <link>
                  <linkclipref>clipitem-862</linkclipref>
                  <mediatype>video</mediatype>
                  <trackindex>1</trackindex>
                  <clipindex>1</clipindex>
                </link>
                <link>
                  <linkclipref>clipitem-863</linkclipref>
                  <mediatype>audio</mediatype>
                  <trackindex>1</trackindex>
                  <clipindex>1</clipindex>
                  <groupindex>1</groupindex>
                </link>
                <link>
                  <linkclipref>clipitem-864</linkclipref>
                  <mediatype>audio</mediatype>
                  <trackindex>2</trackindex>
                  <clipindex>1</clipindex>
                  <groupindex>1</groupindex>
                </link>
              </clipitem>
            </track>
          </video>
          <audio>
            <track>
              <clipitem id="clipitem-863" frameBlend="FALSE">
                <masterclipid>masterclip-284</masterclipid>
                <name>00507.MTS</name>
                <file id="file-284"/>
                <sourcetrack>
                  <mediatype>audio</mediatype>
                  <trackindex>1</trackindex>
                </sourcetrack>
                <link>
                  <linkclipref>clipitem-862</linkclipref>
                  <mediatype>video</mediatype>
                  <trackindex>1</trackindex>
                  <clipindex>1</clipindex>
                </link>
                <link>
                  <linkclipref>clipitem-863</linkclipref>
                  <mediatype>audio</mediatype>
                  <trackindex>1</trackindex>
                  <clipindex>1</clipindex>
                  <groupindex>1</groupindex>
                </link>
                <link>
                  <linkclipref>clipitem-864</linkclipref>
                  <mediatype>audio</mediatype>
                  <trackindex>2</trackindex>
                  <clipindex>1</clipindex>
                  <groupindex>1</groupindex>
                </link>
              </clipitem>
            </track>
            <track>
              <clipitem id="clipitem-864" frameBlend="FALSE">
                <masterclipid>masterclip-284</masterclipid>
                <name>00507.MTS</name>
                <file id="file-284"/>
                <sourcetrack>
                  <mediatype>audio</mediatype>
                  <trackindex>2</trackindex>
                </sourcetrack>
                <link>
                  <linkclipref>clipitem-862</linkclipref>
                  <mediatype>video</mediatype>
                  <trackindex>1</trackindex>
                  <clipindex>1</clipindex>
                </link>
                <link>
                  <linkclipref>clipitem-863</linkclipref>
                  <mediatype>audio</mediatype>
                  <trackindex>1</trackindex>
                  <clipindex>1</clipindex>
                  <groupindex>1</groupindex>
                </link>
                <link>
                  <linkclipref>clipitem-864</linkclipref>
                  <mediatype>audio</mediatype>
                  <trackindex>2</trackindex>
                  <clipindex>1</clipindex>
                  <groupindex>1</groupindex>
                </link>
              </clipitem>
            </track>
          </audio>
        </media>
        <logginginfo>
          <description/>
          <scene/>
          <shottake/>
          <lognote/>
        </logginginfo>
      </clip>
      <clip id="masterclip-285" frameBlend="FALSE">
        <uuid>702a1145-a458-46e6-b7cd-7f5b049c29dd</uuid>
        <masterclipid>masterclip-285</masterclipid>
        <ismasterclip>TRUE</ismasterclip>
        <duration>409</duration>
        <rate>
          <timebase>24</timebase>
          <ntsc>TRUE</ntsc>
        </rate>
        <name>00508.MTS</name>
        <media>
          <video>
            <track>
              <clipitem id="clipitem-865" frameBlend="FALSE">
                <masterclipid>masterclip-285</masterclipid>
                <name>00508.MTS</name>
                <alphatype>black</alphatype>
                <pixelaspectratio>square</pixelaspectratio>
                <anamorphic>FALSE</anamorphic>
                <file id="file-285">
                  <name>00508.MTS</name>
                  <pathurl>file://localhost/Volumes/Macintosh%20HD/Users/jacksongs/Desktop/STREAM/00508.MTS</pathurl>
                  <rate>
                    <timebase>24</timebase>
                    <ntsc>TRUE</ntsc>
                  </rate>
                  <duration>409</duration>
                  <timecode>
                    <rate>
                      <timebase>24</timebase>
                      <ntsc>TRUE</ntsc>
                    </rate>
                    <string>00:00:00:00</string>
                    <frame>0</frame>
                    <displayformat>NDF</displayformat>
                    <reel>
                      <name/>
                    </reel>
                  </timecode>
                  <media>
                    <video>
                      <duration>18000</duration>
                      <samplecharacteristics>
                        <rate>
                          <timebase>24</timebase>
                          <ntsc>TRUE</ntsc>
                        </rate>
                        <width>1920</width>
                        <height>1080</height>
                        <anamorphic>FALSE</anamorphic>
                        <pixelaspectratio>square</pixelaspectratio>
                        <fielddominance>none</fielddominance>
                      </samplecharacteristics>
                    </video>
                    <audio>
                      <samplecharacteristics>
                        <depth>16</depth>
                        <samplerate>48000</samplerate>
                      </samplecharacteristics>
                      <channelcount>2</channelcount>
                    </audio>
                  </media>
                </file>
                <link>
                  <linkclipref>clipitem-865</linkclipref>
                  <mediatype>video</mediatype>
                  <trackindex>1</trackindex>
                  <clipindex>1</clipindex>
                </link>
                <link>
                  <linkclipref>clipitem-866</linkclipref>
                  <mediatype>audio</mediatype>
                  <trackindex>1</trackindex>
                  <clipindex>1</clipindex>
                  <groupindex>1</groupindex>
                </link>
                <link>
                  <linkclipref>clipitem-867</linkclipref>
                  <mediatype>audio</mediatype>
                  <trackindex>2</trackindex>
                  <clipindex>1</clipindex>
                  <groupindex>1</groupindex>
                </link>
              </clipitem>
            </track>
          </video>
          <audio>
            <track>
              <clipitem id="clipitem-866" frameBlend="FALSE">
                <masterclipid>masterclip-285</masterclipid>
                <name>00508.MTS</name>
                <file id="file-285"/>
                <sourcetrack>
                  <mediatype>audio</mediatype>
                  <trackindex>1</trackindex>
                </sourcetrack>
                <link>
                  <linkclipref>clipitem-865</linkclipref>
                  <mediatype>video</mediatype>
                  <trackindex>1</trackindex>
                  <clipindex>1</clipindex>
                </link>
                <link>
                  <linkclipref>clipitem-866</linkclipref>
                  <mediatype>audio</mediatype>
                  <trackindex>1</trackindex>
                  <clipindex>1</clipindex>
                  <groupindex>1</groupindex>
                </link>
                <link>
                  <linkclipref>clipitem-867</linkclipref>
                  <mediatype>audio</mediatype>
                  <trackindex>2</trackindex>
                  <clipindex>1</clipindex>
                  <groupindex>1</groupindex>
                </link>
              </clipitem>
            </track>
            <track>
              <clipitem id="clipitem-867" frameBlend="FALSE">
                <masterclipid>masterclip-285</masterclipid>
                <name>00508.MTS</name>
                <file id="file-285"/>
                <sourcetrack>
                  <mediatype>audio</mediatype>
                  <trackindex>2</trackindex>
                </sourcetrack>
                <link>
                  <linkclipref>clipitem-865</linkclipref>
                  <mediatype>video</mediatype>
                  <trackindex>1</trackindex>
                  <clipindex>1</clipindex>
                </link>
                <link>
                  <linkclipref>clipitem-866</linkclipref>
                  <mediatype>audio</mediatype>
                  <trackindex>1</trackindex>
                  <clipindex>1</clipindex>
                  <groupindex>1</groupindex>
                </link>
                <link>
                  <linkclipref>clipitem-867</linkclipref>
                  <mediatype>audio</mediatype>
                  <trackindex>2</trackindex>
                  <clipindex>1</clipindex>
                  <groupindex>1</groupindex>
                </link>
              </clipitem>
            </track>
          </audio>
        </media>
        <logginginfo>
          <description/>
          <scene/>
          <shottake/>
          <lognote/>
        </logginginfo>
      </clip>
      <clip id="masterclip-286" frameBlend="FALSE">
        <uuid>deededef-725c-47a4-9fe5-97af711a0fb0</uuid>
        <masterclipid>masterclip-286</masterclipid>
        <ismasterclip>TRUE</ismasterclip>
        <duration>337</duration>
        <rate>
          <timebase>24</timebase>
          <ntsc>TRUE</ntsc>
        </rate>
        <name>00509.MTS</name>
        <media>
          <video>
            <track>
              <clipitem id="clipitem-868" frameBlend="FALSE">
                <masterclipid>masterclip-286</masterclipid>
                <name>00509.MTS</name>
                <alphatype>black</alphatype>
                <pixelaspectratio>square</pixelaspectratio>
                <anamorphic>FALSE</anamorphic>
                <file id="file-286">
                  <name>00509.MTS</name>
                  <pathurl>file://localhost/Volumes/Macintosh%20HD/Users/jacksongs/Desktop/STREAM/00509.MTS</pathurl>
                  <rate>
                    <timebase>24</timebase>
                    <ntsc>TRUE</ntsc>
                  </rate>
                  <duration>337</duration>
                  <timecode>
                    <rate>
                      <timebase>24</timebase>
                      <ntsc>TRUE</ntsc>
                    </rate>
                    <string>00:00:00:00</string>
                    <frame>0</frame>
                    <displayformat>NDF</displayformat>
                    <reel>
                      <name/>
                    </reel>
                  </timecode>
                  <media>
                    <video>
                      <duration>18000</duration>
                      <samplecharacteristics>
                        <rate>
                          <timebase>24</timebase>
                          <ntsc>TRUE</ntsc>
                        </rate>
                        <width>1920</width>
                        <height>1080</height>
                        <anamorphic>FALSE</anamorphic>
                        <pixelaspectratio>square</pixelaspectratio>
                        <fielddominance>none</fielddominance>
                      </samplecharacteristics>
                    </video>
                    <audio>
                      <samplecharacteristics>
                        <depth>16</depth>
                        <samplerate>48000</samplerate>
                      </samplecharacteristics>
                      <channelcount>2</channelcount>
                    </audio>
                  </media>
                </file>
                <link>
                  <linkclipref>clipitem-868</linkclipref>
                  <mediatype>video</mediatype>
                  <trackindex>1</trackindex>
                  <clipindex>1</clipindex>
                </link>
                <link>
                  <linkclipref>clipitem-869</linkclipref>
                  <mediatype>audio</mediatype>
                  <trackindex>1</trackindex>
                  <clipindex>1</clipindex>
                  <groupindex>1</groupindex>
                </link>
                <link>
                  <linkclipref>clipitem-870</linkclipref>
                  <mediatype>audio</mediatype>
                  <trackindex>2</trackindex>
                  <clipindex>1</clipindex>
                  <groupindex>1</groupindex>
                </link>
              </clipitem>
            </track>
          </video>
          <audio>
            <track>
              <clipitem id="clipitem-869" frameBlend="FALSE">
                <masterclipid>masterclip-286</masterclipid>
                <name>00509.MTS</name>
                <file id="file-286"/>
                <sourcetrack>
                  <mediatype>audio</mediatype>
                  <trackindex>1</trackindex>
                </sourcetrack>
                <link>
                  <linkclipref>clipitem-868</linkclipref>
                  <mediatype>video</mediatype>
                  <trackindex>1</trackindex>
                  <clipindex>1</clipindex>
                </link>
                <link>
                  <linkclipref>clipitem-869</linkclipref>
                  <mediatype>audio</mediatype>
                  <trackindex>1</trackindex>
                  <clipindex>1</clipindex>
                  <groupindex>1</groupindex>
                </link>
                <link>
                  <linkclipref>clipitem-870</linkclipref>
                  <mediatype>audio</mediatype>
                  <trackindex>2</trackindex>
                  <clipindex>1</clipindex>
                  <groupindex>1</groupindex>
                </link>
              </clipitem>
            </track>
            <track>
              <clipitem id="clipitem-870" frameBlend="FALSE">
                <masterclipid>masterclip-286</masterclipid>
                <name>00509.MTS</name>
                <file id="file-286"/>
                <sourcetrack>
                  <mediatype>audio</mediatype>
                  <trackindex>2</trackindex>
                </sourcetrack>
                <link>
                  <linkclipref>clipitem-868</linkclipref>
                  <mediatype>video</mediatype>
                  <trackindex>1</trackindex>
                  <clipindex>1</clipindex>
                </link>
                <link>
                  <linkclipref>clipitem-869</linkclipref>
                  <mediatype>audio</mediatype>
                  <trackindex>1</trackindex>
                  <clipindex>1</clipindex>
                  <groupindex>1</groupindex>
                </link>
                <link>
                  <linkclipref>clipitem-870</linkclipref>
                  <mediatype>audio</mediatype>
                  <trackindex>2</trackindex>
                  <clipindex>1</clipindex>
                  <groupindex>1</groupindex>
                </link>
              </clipitem>
            </track>
          </audio>
        </media>
        <logginginfo>
          <description/>
          <scene/>
          <shottake/>
          <lognote/>
        </logginginfo>
      </clip>
      <clip id="masterclip-287" frameBlend="FALSE">
        <uuid>f4f6252f-55fd-4d0c-a564-6ed4b9795b4e</uuid>
        <masterclipid>masterclip-287</masterclipid>
        <ismasterclip>TRUE</ismasterclip>
        <duration>457</duration>
        <rate>
          <timebase>24</timebase>
          <ntsc>TRUE</ntsc>
        </rate>
        <name>00510.MTS</name>
        <media>
          <video>
            <track>
              <clipitem id="clipitem-871" frameBlend="FALSE">
                <masterclipid>masterclip-287</masterclipid>
                <name>00510.MTS</name>
                <alphatype>black</alphatype>
                <pixelaspectratio>square</pixelaspectratio>
                <anamorphic>FALSE</anamorphic>
                <file id="file-287">
                  <name>00510.MTS</name>
                  <pathurl>file://localhost/Volumes/Macintosh%20HD/Users/jacksongs/Desktop/STREAM/00510.MTS</pathurl>
                  <rate>
                    <timebase>24</timebase>
                    <ntsc>TRUE</ntsc>
                  </rate>
                  <duration>457</duration>
                  <timecode>
                    <rate>
                      <timebase>24</timebase>
                      <ntsc>TRUE</ntsc>
                    </rate>
                    <string>00:00:00:00</string>
                    <frame>0</frame>
                    <displayformat>NDF</displayformat>
                    <reel>
                      <name/>
                    </reel>
                  </timecode>
                  <media>
                    <video>
                      <duration>18000</duration>
                      <samplecharacteristics>
                        <rate>
                          <timebase>24</timebase>
                          <ntsc>TRUE</ntsc>
                        </rate>
                        <width>1920</width>
                        <height>1080</height>
                        <anamorphic>FALSE</anamorphic>
                        <pixelaspectratio>square</pixelaspectratio>
                        <fielddominance>none</fielddominance>
                      </samplecharacteristics>
                    </video>
                    <audio>
                      <samplecharacteristics>
                        <depth>16</depth>
                        <samplerate>48000</samplerate>
                      </samplecharacteristics>
                      <channelcount>2</channelcount>
                    </audio>
                  </media>
                </file>
                <link>
                  <linkclipref>clipitem-871</linkclipref>
                  <mediatype>video</mediatype>
                  <trackindex>1</trackindex>
                  <clipindex>1</clipindex>
                </link>
                <link>
                  <linkclipref>clipitem-872</linkclipref>
                  <mediatype>audio</mediatype>
                  <trackindex>1</trackindex>
                  <clipindex>1</clipindex>
                  <groupindex>1</groupindex>
                </link>
                <link>
                  <linkclipref>clipitem-873</linkclipref>
                  <mediatype>audio</mediatype>
                  <trackindex>2</trackindex>
                  <clipindex>1</clipindex>
                  <groupindex>1</groupindex>
                </link>
              </clipitem>
            </track>
          </video>
          <audio>
            <track>
              <clipitem id="clipitem-872" frameBlend="FALSE">
                <masterclipid>masterclip-287</masterclipid>
                <name>00510.MTS</name>
                <file id="file-287"/>
                <sourcetrack>
                  <mediatype>audio</mediatype>
                  <trackindex>1</trackindex>
                </sourcetrack>
                <link>
                  <linkclipref>clipitem-871</linkclipref>
                  <mediatype>video</mediatype>
                  <trackindex>1</trackindex>
                  <clipindex>1</clipindex>
                </link>
                <link>
                  <linkclipref>clipitem-872</linkclipref>
                  <mediatype>audio</mediatype>
                  <trackindex>1</trackindex>
                  <clipindex>1</clipindex>
                  <groupindex>1</groupindex>
                </link>
                <link>
                  <linkclipref>clipitem-873</linkclipref>
                  <mediatype>audio</mediatype>
                  <trackindex>2</trackindex>
                  <clipindex>1</clipindex>
                  <groupindex>1</groupindex>
                </link>
              </clipitem>
            </track>
            <track>
              <clipitem id="clipitem-873" frameBlend="FALSE">
                <masterclipid>masterclip-287</masterclipid>
                <name>00510.MTS</name>
                <file id="file-287"/>
                <sourcetrack>
                  <mediatype>audio</mediatype>
                  <trackindex>2</trackindex>
                </sourcetrack>
                <link>
                  <linkclipref>clipitem-871</linkclipref>
                  <mediatype>video</mediatype>
                  <trackindex>1</trackindex>
                  <clipindex>1</clipindex>
                </link>
                <link>
                  <linkclipref>clipitem-872</linkclipref>
                  <mediatype>audio</mediatype>
                  <trackindex>1</trackindex>
                  <clipindex>1</clipindex>
                  <groupindex>1</groupindex>
                </link>
                <link>
                  <linkclipref>clipitem-873</linkclipref>
                  <mediatype>audio</mediatype>
                  <trackindex>2</trackindex>
                  <clipindex>1</clipindex>
                  <groupindex>1</groupindex>
                </link>
              </clipitem>
            </track>
          </audio>
        </media>
        <logginginfo>
          <description/>
          <scene/>
          <shottake/>
          <lognote/>
        </logginginfo>
      </clip>
      <clip id="masterclip-288" frameBlend="FALSE">
        <uuid>bd4fab41-6229-4dfa-9103-ff6a2ac45883</uuid>
        <masterclipid>masterclip-288</masterclipid>
        <ismasterclip>TRUE</ismasterclip>
        <duration>133</duration>
        <rate>
          <timebase>24</timebase>
          <ntsc>TRUE</ntsc>
        </rate>
        <name>00511.MTS</name>
        <media>
          <video>
            <track>
              <clipitem id="clipitem-874" frameBlend="FALSE">
                <masterclipid>masterclip-288</masterclipid>
                <name>00511.MTS</name>
                <alphatype>black</alphatype>
                <pixelaspectratio>square</pixelaspectratio>
                <anamorphic>FALSE</anamorphic>
                <file id="file-288">
                  <name>00511.MTS</name>
                  <pathurl>file://localhost/Volumes/Macintosh%20HD/Users/jacksongs/Desktop/STREAM/00511.MTS</pathurl>
                  <rate>
                    <timebase>24</timebase>
                    <ntsc>TRUE</ntsc>
                  </rate>
                  <duration>133</duration>
                  <timecode>
                    <rate>
                      <timebase>24</timebase>
                      <ntsc>TRUE</ntsc>
                    </rate>
                    <string>00:00:00:00</string>
                    <frame>0</frame>
                    <displayformat>NDF</displayformat>
                    <reel>
                      <name/>
                    </reel>
                  </timecode>
                  <media>
                    <video>
                      <duration>18000</duration>
                      <samplecharacteristics>
                        <rate>
                          <timebase>24</timebase>
                          <ntsc>TRUE</ntsc>
                        </rate>
                        <width>1920</width>
                        <height>1080</height>
                        <anamorphic>FALSE</anamorphic>
                        <pixelaspectratio>square</pixelaspectratio>
                        <fielddominance>none</fielddominance>
                      </samplecharacteristics>
                    </video>
                    <audio>
                      <samplecharacteristics>
                        <depth>16</depth>
                        <samplerate>48000</samplerate>
                      </samplecharacteristics>
                      <channelcount>2</channelcount>
                    </audio>
                  </media>
                </file>
                <link>
                  <linkclipref>clipitem-874</linkclipref>
                  <mediatype>video</mediatype>
                  <trackindex>1</trackindex>
                  <clipindex>1</clipindex>
                </link>
                <link>
                  <linkclipref>clipitem-875</linkclipref>
                  <mediatype>audio</mediatype>
                  <trackindex>1</trackindex>
                  <clipindex>1</clipindex>
                  <groupindex>1</groupindex>
                </link>
                <link>
                  <linkclipref>clipitem-876</linkclipref>
                  <mediatype>audio</mediatype>
                  <trackindex>2</trackindex>
                  <clipindex>1</clipindex>
                  <groupindex>1</groupindex>
                </link>
              </clipitem>
            </track>
          </video>
          <audio>
            <track>
              <clipitem id="clipitem-875" frameBlend="FALSE">
                <masterclipid>masterclip-288</masterclipid>
                <name>00511.MTS</name>
                <file id="file-288"/>
                <sourcetrack>
                  <mediatype>audio</mediatype>
                  <trackindex>1</trackindex>
                </sourcetrack>
                <link>
                  <linkclipref>clipitem-874</linkclipref>
                  <mediatype>video</mediatype>
                  <trackindex>1</trackindex>
                  <clipindex>1</clipindex>
                </link>
                <link>
                  <linkclipref>clipitem-875</linkclipref>
                  <mediatype>audio</mediatype>
                  <trackindex>1</trackindex>
                  <clipindex>1</clipindex>
                  <groupindex>1</groupindex>
                </link>
                <link>
                  <linkclipref>clipitem-876</linkclipref>
                  <mediatype>audio</mediatype>
                  <trackindex>2</trackindex>
                  <clipindex>1</clipindex>
                  <groupindex>1</groupindex>
                </link>
              </clipitem>
            </track>
            <track>
              <clipitem id="clipitem-876" frameBlend="FALSE">
                <masterclipid>masterclip-288</masterclipid>
                <name>00511.MTS</name>
                <file id="file-288"/>
                <sourcetrack>
                  <mediatype>audio</mediatype>
                  <trackindex>2</trackindex>
                </sourcetrack>
                <link>
                  <linkclipref>clipitem-874</linkclipref>
                  <mediatype>video</mediatype>
                  <trackindex>1</trackindex>
                  <clipindex>1</clipindex>
                </link>
                <link>
                  <linkclipref>clipitem-875</linkclipref>
                  <mediatype>audio</mediatype>
                  <trackindex>1</trackindex>
                  <clipindex>1</clipindex>
                  <groupindex>1</groupindex>
                </link>
                <link>
                  <linkclipref>clipitem-876</linkclipref>
                  <mediatype>audio</mediatype>
                  <trackindex>2</trackindex>
                  <clipindex>1</clipindex>
                  <groupindex>1</groupindex>
                </link>
              </clipitem>
            </track>
          </audio>
        </media>
        <logginginfo>
          <description/>
          <scene/>
          <shottake/>
          <lognote/>
        </logginginfo>
      </clip>
      <clip id="masterclip-289" frameBlend="FALSE">
        <uuid>d0c0a823-ba6d-4972-b0bb-fbb3bef069f9</uuid>
        <masterclipid>masterclip-289</masterclipid>
        <ismasterclip>TRUE</ismasterclip>
        <duration>277</duration>
        <rate>
          <timebase>24</timebase>
          <ntsc>TRUE</ntsc>
        </rate>
        <name>00512.MTS</name>
        <media>
          <video>
            <track>
              <clipitem id="clipitem-877" frameBlend="FALSE">
                <masterclipid>masterclip-289</masterclipid>
                <name>00512.MTS</name>
                <alphatype>black</alphatype>
                <pixelaspectratio>square</pixelaspectratio>
                <anamorphic>FALSE</anamorphic>
                <file id="file-289">
                  <name>00512.MTS</name>
                  <pathurl>file://localhost/Volumes/Macintosh%20HD/Users/jacksongs/Desktop/STREAM/00512.MTS</pathurl>
                  <rate>
                    <timebase>24</timebase>
                    <ntsc>TRUE</ntsc>
                  </rate>
                  <duration>277</duration>
                  <timecode>
                    <rate>
                      <timebase>24</timebase>
                      <ntsc>TRUE</ntsc>
                    </rate>
                    <string>00:00:00:00</string>
                    <frame>0</frame>
                    <displayformat>NDF</displayformat>
                    <reel>
                      <name/>
                    </reel>
                  </timecode>
                  <media>
                    <video>
                      <duration>18000</duration>
                      <samplecharacteristics>
                        <rate>
                          <timebase>24</timebase>
                          <ntsc>TRUE</ntsc>
                        </rate>
                        <width>1920</width>
                        <height>1080</height>
                        <anamorphic>FALSE</anamorphic>
                        <pixelaspectratio>square</pixelaspectratio>
                        <fielddominance>none</fielddominance>
                      </samplecharacteristics>
                    </video>
                    <audio>
                      <samplecharacteristics>
                        <depth>16</depth>
                        <samplerate>48000</samplerate>
                      </samplecharacteristics>
                      <channelcount>2</channelcount>
                    </audio>
                  </media>
                </file>
                <link>
                  <linkclipref>clipitem-877</linkclipref>
                  <mediatype>video</mediatype>
                  <trackindex>1</trackindex>
                  <clipindex>1</clipindex>
                </link>
                <link>
                  <linkclipref>clipitem-878</linkclipref>
                  <mediatype>audio</mediatype>
                  <trackindex>1</trackindex>
                  <clipindex>1</clipindex>
                  <groupindex>1</groupindex>
                </link>
                <link>
                  <linkclipref>clipitem-879</linkclipref>
                  <mediatype>audio</mediatype>
                  <trackindex>2</trackindex>
                  <clipindex>1</clipindex>
                  <groupindex>1</groupindex>
                </link>
              </clipitem>
            </track>
          </video>
          <audio>
            <track>
              <clipitem id="clipitem-878" frameBlend="FALSE">
                <masterclipid>masterclip-289</masterclipid>
                <name>00512.MTS</name>
                <file id="file-289"/>
                <sourcetrack>
                  <mediatype>audio</mediatype>
                  <trackindex>1</trackindex>
                </sourcetrack>
                <link>
                  <linkclipref>clipitem-877</linkclipref>
                  <mediatype>video</mediatype>
                  <trackindex>1</trackindex>
                  <clipindex>1</clipindex>
                </link>
                <link>
                  <linkclipref>clipitem-878</linkclipref>
                  <mediatype>audio</mediatype>
                  <trackindex>1</trackindex>
                  <clipindex>1</clipindex>
                  <groupindex>1</groupindex>
                </link>
                <link>
                  <linkclipref>clipitem-879</linkclipref>
                  <mediatype>audio</mediatype>
                  <trackindex>2</trackindex>
                  <clipindex>1</clipindex>
                  <groupindex>1</groupindex>
                </link>
              </clipitem>
            </track>
            <track>
              <clipitem id="clipitem-879" frameBlend="FALSE">
                <masterclipid>masterclip-289</masterclipid>
                <name>00512.MTS</name>
                <file id="file-289"/>
                <sourcetrack>
                  <mediatype>audio</mediatype>
                  <trackindex>2</trackindex>
                </sourcetrack>
                <link>
                  <linkclipref>clipitem-877</linkclipref>
                  <mediatype>video</mediatype>
                  <trackindex>1</trackindex>
                  <clipindex>1</clipindex>
                </link>
                <link>
                  <linkclipref>clipitem-878</linkclipref>
                  <mediatype>audio</mediatype>
                  <trackindex>1</trackindex>
                  <clipindex>1</clipindex>
                  <groupindex>1</groupindex>
                </link>
                <link>
                  <linkclipref>clipitem-879</linkclipref>
                  <mediatype>audio</mediatype>
                  <trackindex>2</trackindex>
                  <clipindex>1</clipindex>
                  <groupindex>1</groupindex>
                </link>
              </clipitem>
            </track>
          </audio>
        </media>
        <logginginfo>
          <description/>
          <scene/>
          <shottake/>
          <lognote/>
        </logginginfo>
      </clip>
      <clip id="masterclip-290" frameBlend="FALSE">
        <uuid>60eace3c-7f0d-4806-a7d5-ef9fd68560de</uuid>
        <masterclipid>masterclip-290</masterclipid>
        <ismasterclip>TRUE</ismasterclip>
        <duration>649</duration>
        <rate>
          <timebase>24</timebase>
          <ntsc>TRUE</ntsc>
        </rate>
        <name>00513.MTS</name>
        <media>
          <video>
            <track>
              <clipitem id="clipitem-880" frameBlend="FALSE">
                <masterclipid>masterclip-290</masterclipid>
                <name>00513.MTS</name>
                <alphatype>black</alphatype>
                <pixelaspectratio>square</pixelaspectratio>
                <anamorphic>FALSE</anamorphic>
                <file id="file-290">
                  <name>00513.MTS</name>
                  <pathurl>file://localhost/Volumes/Macintosh%20HD/Users/jacksongs/Desktop/STREAM/00513.MTS</pathurl>
                  <rate>
                    <timebase>24</timebase>
                    <ntsc>TRUE</ntsc>
                  </rate>
                  <duration>649</duration>
                  <timecode>
                    <rate>
                      <timebase>24</timebase>
                      <ntsc>TRUE</ntsc>
                    </rate>
                    <string>00:00:00:00</string>
                    <frame>0</frame>
                    <displayformat>NDF</displayformat>
                    <reel>
                      <name/>
                    </reel>
                  </timecode>
                  <media>
                    <video>
                      <duration>18000</duration>
                      <samplecharacteristics>
                        <rate>
                          <timebase>24</timebase>
                          <ntsc>TRUE</ntsc>
                        </rate>
                        <width>1920</width>
                        <height>1080</height>
                        <anamorphic>FALSE</anamorphic>
                        <pixelaspectratio>square</pixelaspectratio>
                        <fielddominance>none</fielddominance>
                      </samplecharacteristics>
                    </video>
                    <audio>
                      <samplecharacteristics>
                        <depth>16</depth>
                        <samplerate>48000</samplerate>
                      </samplecharacteristics>
                      <channelcount>2</channelcount>
                    </audio>
                  </media>
                </file>
                <link>
                  <linkclipref>clipitem-880</linkclipref>
                  <mediatype>video</mediatype>
                  <trackindex>1</trackindex>
                  <clipindex>1</clipindex>
                </link>
                <link>
                  <linkclipref>clipitem-881</linkclipref>
                  <mediatype>audio</mediatype>
                  <trackindex>1</trackindex>
                  <clipindex>1</clipindex>
                  <groupindex>1</groupindex>
                </link>
                <link>
                  <linkclipref>clipitem-882</linkclipref>
                  <mediatype>audio</mediatype>
                  <trackindex>2</trackindex>
                  <clipindex>1</clipindex>
                  <groupindex>1</groupindex>
                </link>
              </clipitem>
            </track>
          </video>
          <audio>
            <track>
              <clipitem id="clipitem-881" frameBlend="FALSE">
                <masterclipid>masterclip-290</masterclipid>
                <name>00513.MTS</name>
                <file id="file-290"/>
                <sourcetrack>
                  <mediatype>audio</mediatype>
                  <trackindex>1</trackindex>
                </sourcetrack>
                <link>
                  <linkclipref>clipitem-880</linkclipref>
                  <mediatype>video</mediatype>
                  <trackindex>1</trackindex>
                  <clipindex>1</clipindex>
                </link>
                <link>
                  <linkclipref>clipitem-881</linkclipref>
                  <mediatype>audio</mediatype>
                  <trackindex>1</trackindex>
                  <clipindex>1</clipindex>
                  <groupindex>1</groupindex>
                </link>
                <link>
                  <linkclipref>clipitem-882</linkclipref>
                  <mediatype>audio</mediatype>
                  <trackindex>2</trackindex>
                  <clipindex>1</clipindex>
                  <groupindex>1</groupindex>
                </link>
              </clipitem>
            </track>
            <track>
              <clipitem id="clipitem-882" frameBlend="FALSE">
                <masterclipid>masterclip-290</masterclipid>
                <name>00513.MTS</name>
                <file id="file-290"/>
                <sourcetrack>
                  <mediatype>audio</mediatype>
                  <trackindex>2</trackindex>
                </sourcetrack>
                <link>
                  <linkclipref>clipitem-880</linkclipref>
                  <mediatype>video</mediatype>
                  <trackindex>1</trackindex>
                  <clipindex>1</clipindex>
                </link>
                <link>
                  <linkclipref>clipitem-881</linkclipref>
                  <mediatype>audio</mediatype>
                  <trackindex>1</trackindex>
                  <clipindex>1</clipindex>
                  <groupindex>1</groupindex>
                </link>
                <link>
                  <linkclipref>clipitem-882</linkclipref>
                  <mediatype>audio</mediatype>
                  <trackindex>2</trackindex>
                  <clipindex>1</clipindex>
                  <groupindex>1</groupindex>
                </link>
              </clipitem>
            </track>
          </audio>
        </media>
        <logginginfo>
          <description/>
          <scene/>
          <shottake/>
          <lognote/>
        </logginginfo>
      </clip>
      <clip id="masterclip-291" frameBlend="FALSE">
        <uuid>39a1b6cd-59c9-410f-b1d4-0986a5aebc29</uuid>
        <masterclipid>masterclip-291</masterclipid>
        <ismasterclip>TRUE</ismasterclip>
        <duration>529</duration>
        <rate>
          <timebase>24</timebase>
          <ntsc>TRUE</ntsc>
        </rate>
        <name>00514.MTS</name>
        <media>
          <video>
            <track>
              <clipitem id="clipitem-883" frameBlend="FALSE">
                <masterclipid>masterclip-291</masterclipid>
                <name>00514.MTS</name>
                <alphatype>black</alphatype>
                <pixelaspectratio>square</pixelaspectratio>
                <anamorphic>FALSE</anamorphic>
                <file id="file-291">
                  <name>00514.MTS</name>
                  <pathurl>file://localhost/Volumes/Macintosh%20HD/Users/jacksongs/Desktop/STREAM/00514.MTS</pathurl>
                  <rate>
                    <timebase>24</timebase>
                    <ntsc>TRUE</ntsc>
                  </rate>
                  <duration>529</duration>
                  <timecode>
                    <rate>
                      <timebase>24</timebase>
                      <ntsc>TRUE</ntsc>
                    </rate>
                    <string>00:00:00:00</string>
                    <frame>0</frame>
                    <displayformat>NDF</displayformat>
                    <reel>
                      <name/>
                    </reel>
                  </timecode>
                  <media>
                    <video>
                      <duration>18000</duration>
                      <samplecharacteristics>
                        <rate>
                          <timebase>24</timebase>
                          <ntsc>TRUE</ntsc>
                        </rate>
                        <width>1920</width>
                        <height>1080</height>
                        <anamorphic>FALSE</anamorphic>
                        <pixelaspectratio>square</pixelaspectratio>
                        <fielddominance>none</fielddominance>
                      </samplecharacteristics>
                    </video>
                    <audio>
                      <samplecharacteristics>
                        <depth>16</depth>
                        <samplerate>48000</samplerate>
                      </samplecharacteristics>
                      <channelcount>2</channelcount>
                    </audio>
                  </media>
                </file>
                <link>
                  <linkclipref>clipitem-883</linkclipref>
                  <mediatype>video</mediatype>
                  <trackindex>1</trackindex>
                  <clipindex>1</clipindex>
                </link>
                <link>
                  <linkclipref>clipitem-884</linkclipref>
                  <mediatype>audio</mediatype>
                  <trackindex>1</trackindex>
                  <clipindex>1</clipindex>
                  <groupindex>1</groupindex>
                </link>
                <link>
                  <linkclipref>clipitem-885</linkclipref>
                  <mediatype>audio</mediatype>
                  <trackindex>2</trackindex>
                  <clipindex>1</clipindex>
                  <groupindex>1</groupindex>
                </link>
              </clipitem>
            </track>
          </video>
          <audio>
            <track>
              <clipitem id="clipitem-884" frameBlend="FALSE">
                <masterclipid>masterclip-291</masterclipid>
                <name>00514.MTS</name>
                <file id="file-291"/>
                <sourcetrack>
                  <mediatype>audio</mediatype>
                  <trackindex>1</trackindex>
                </sourcetrack>
                <link>
                  <linkclipref>clipitem-883</linkclipref>
                  <mediatype>video</mediatype>
                  <trackindex>1</trackindex>
                  <clipindex>1</clipindex>
                </link>
                <link>
                  <linkclipref>clipitem-884</linkclipref>
                  <mediatype>audio</mediatype>
                  <trackindex>1</trackindex>
                  <clipindex>1</clipindex>
                  <groupindex>1</groupindex>
                </link>
                <link>
                  <linkclipref>clipitem-885</linkclipref>
                  <mediatype>audio</mediatype>
                  <trackindex>2</trackindex>
                  <clipindex>1</clipindex>
                  <groupindex>1</groupindex>
                </link>
              </clipitem>
            </track>
            <track>
              <clipitem id="clipitem-885" frameBlend="FALSE">
                <masterclipid>masterclip-291</masterclipid>
                <name>00514.MTS</name>
                <file id="file-291"/>
                <sourcetrack>
                  <mediatype>audio</mediatype>
                  <trackindex>2</trackindex>
                </sourcetrack>
                <link>
                  <linkclipref>clipitem-883</linkclipref>
                  <mediatype>video</mediatype>
                  <trackindex>1</trackindex>
                  <clipindex>1</clipindex>
                </link>
                <link>
                  <linkclipref>clipitem-884</linkclipref>
                  <mediatype>audio</mediatype>
                  <trackindex>1</trackindex>
                  <clipindex>1</clipindex>
                  <groupindex>1</groupindex>
                </link>
                <link>
                  <linkclipref>clipitem-885</linkclipref>
                  <mediatype>audio</mediatype>
                  <trackindex>2</trackindex>
                  <clipindex>1</clipindex>
                  <groupindex>1</groupindex>
                </link>
              </clipitem>
            </track>
          </audio>
        </media>
        <logginginfo>
          <description/>
          <scene/>
          <shottake/>
          <lognote/>
        </logginginfo>
      </clip>
      <clip id="masterclip-292" frameBlend="FALSE">
        <uuid>d2afedb7-6dfd-4031-920f-1719b5c7928b</uuid>
        <masterclipid>masterclip-292</masterclipid>
        <ismasterclip>TRUE</ismasterclip>
        <duration>673</duration>
        <rate>
          <timebase>24</timebase>
          <ntsc>TRUE</ntsc>
        </rate>
        <name>00515.MTS</name>
        <media>
          <video>
            <track>
              <clipitem id="clipitem-886" frameBlend="FALSE">
                <masterclipid>masterclip-292</masterclipid>
                <name>00515.MTS</name>
                <alphatype>black</alphatype>
                <pixelaspectratio>square</pixelaspectratio>
                <anamorphic>FALSE</anamorphic>
                <file id="file-292">
                  <name>00515.MTS</name>
                  <pathurl>file://localhost/Volumes/Macintosh%20HD/Users/jacksongs/Desktop/STREAM/00515.MTS</pathurl>
                  <rate>
                    <timebase>24</timebase>
                    <ntsc>TRUE</ntsc>
                  </rate>
                  <duration>673</duration>
                  <timecode>
                    <rate>
                      <timebase>24</timebase>
                      <ntsc>TRUE</ntsc>
                    </rate>
                    <string>00:00:00:00</string>
                    <frame>0</frame>
                    <displayformat>NDF</displayformat>
                    <reel>
                      <name/>
                    </reel>
                  </timecode>
                  <media>
                    <video>
                      <duration>18000</duration>
                      <samplecharacteristics>
                        <rate>
                          <timebase>24</timebase>
                          <ntsc>TRUE</ntsc>
                        </rate>
                        <width>1920</width>
                        <height>1080</height>
                        <anamorphic>FALSE</anamorphic>
                        <pixelaspectratio>square</pixelaspectratio>
                        <fielddominance>none</fielddominance>
                      </samplecharacteristics>
                    </video>
                    <audio>
                      <samplecharacteristics>
                        <depth>16</depth>
                        <samplerate>48000</samplerate>
                      </samplecharacteristics>
                      <channelcount>2</channelcount>
                    </audio>
                  </media>
                </file>
                <link>
                  <linkclipref>clipitem-886</linkclipref>
                  <mediatype>video</mediatype>
                  <trackindex>1</trackindex>
                  <clipindex>1</clipindex>
                </link>
                <link>
                  <linkclipref>clipitem-887</linkclipref>
                  <mediatype>audio</mediatype>
                  <trackindex>1</trackindex>
                  <clipindex>1</clipindex>
                  <groupindex>1</groupindex>
                </link>
                <link>
                  <linkclipref>clipitem-888</linkclipref>
                  <mediatype>audio</mediatype>
                  <trackindex>2</trackindex>
                  <clipindex>1</clipindex>
                  <groupindex>1</groupindex>
                </link>
              </clipitem>
            </track>
          </video>
          <audio>
            <track>
              <clipitem id="clipitem-887" frameBlend="FALSE">
                <masterclipid>masterclip-292</masterclipid>
                <name>00515.MTS</name>
                <file id="file-292"/>
                <sourcetrack>
                  <mediatype>audio</mediatype>
                  <trackindex>1</trackindex>
                </sourcetrack>
                <link>
                  <linkclipref>clipitem-886</linkclipref>
                  <mediatype>video</mediatype>
                  <trackindex>1</trackindex>
                  <clipindex>1</clipindex>
                </link>
                <link>
                  <linkclipref>clipitem-887</linkclipref>
                  <mediatype>audio</mediatype>
                  <trackindex>1</trackindex>
                  <clipindex>1</clipindex>
                  <groupindex>1</groupindex>
                </link>
                <link>
                  <linkclipref>clipitem-888</linkclipref>
                  <mediatype>audio</mediatype>
                  <trackindex>2</trackindex>
                  <clipindex>1</clipindex>
                  <groupindex>1</groupindex>
                </link>
              </clipitem>
            </track>
            <track>
              <clipitem id="clipitem-888" frameBlend="FALSE">
                <masterclipid>masterclip-292</masterclipid>
                <name>00515.MTS</name>
                <file id="file-292"/>
                <sourcetrack>
                  <mediatype>audio</mediatype>
                  <trackindex>2</trackindex>
                </sourcetrack>
                <link>
                  <linkclipref>clipitem-886</linkclipref>
                  <mediatype>video</mediatype>
                  <trackindex>1</trackindex>
                  <clipindex>1</clipindex>
                </link>
                <link>
                  <linkclipref>clipitem-887</linkclipref>
                  <mediatype>audio</mediatype>
                  <trackindex>1</trackindex>
                  <clipindex>1</clipindex>
                  <groupindex>1</groupindex>
                </link>
                <link>
                  <linkclipref>clipitem-888</linkclipref>
                  <mediatype>audio</mediatype>
                  <trackindex>2</trackindex>
                  <clipindex>1</clipindex>
                  <groupindex>1</groupindex>
                </link>
              </clipitem>
            </track>
          </audio>
        </media>
        <logginginfo>
          <description/>
          <scene/>
          <shottake/>
          <lognote/>
        </logginginfo>
      </clip>
      <clip id="masterclip-293" frameBlend="FALSE">
        <uuid>06ffa29b-430f-4efa-8546-6900dfef601b</uuid>
        <masterclipid>masterclip-293</masterclipid>
        <ismasterclip>TRUE</ismasterclip>
        <duration>229</duration>
        <rate>
          <timebase>24</timebase>
          <ntsc>TRUE</ntsc>
        </rate>
        <name>00516.MTS</name>
        <media>
          <video>
            <track>
              <clipitem id="clipitem-889" frameBlend="FALSE">
                <masterclipid>masterclip-293</masterclipid>
                <name>00516.MTS</name>
                <alphatype>black</alphatype>
                <pixelaspectratio>square</pixelaspectratio>
                <anamorphic>FALSE</anamorphic>
                <file id="file-293">
                  <name>00516.MTS</name>
                  <pathurl>file://localhost/Volumes/Macintosh%20HD/Users/jacksongs/Desktop/STREAM/00516.MTS</pathurl>
                  <rate>
                    <timebase>24</timebase>
                    <ntsc>TRUE</ntsc>
                  </rate>
                  <duration>229</duration>
                  <timecode>
                    <rate>
                      <timebase>24</timebase>
                      <ntsc>TRUE</ntsc>
                    </rate>
                    <string>00:00:00:00</string>
                    <frame>0</frame>
                    <displayformat>NDF</displayformat>
                    <reel>
                      <name/>
                    </reel>
                  </timecode>
                  <media>
                    <video>
                      <duration>18000</duration>
                      <samplecharacteristics>
                        <rate>
                          <timebase>24</timebase>
                          <ntsc>TRUE</ntsc>
                        </rate>
                        <width>1920</width>
                        <height>1080</height>
                        <anamorphic>FALSE</anamorphic>
                        <pixelaspectratio>square</pixelaspectratio>
                        <fielddominance>none</fielddominance>
                      </samplecharacteristics>
                    </video>
                    <audio>
                      <samplecharacteristics>
                        <depth>16</depth>
                        <samplerate>48000</samplerate>
                      </samplecharacteristics>
                      <channelcount>2</channelcount>
                    </audio>
                  </media>
                </file>
                <link>
                  <linkclipref>clipitem-889</linkclipref>
                  <mediatype>video</mediatype>
                  <trackindex>1</trackindex>
                  <clipindex>1</clipindex>
                </link>
                <link>
                  <linkclipref>clipitem-890</linkclipref>
                  <mediatype>audio</mediatype>
                  <trackindex>1</trackindex>
                  <clipindex>1</clipindex>
                  <groupindex>1</groupindex>
                </link>
                <link>
                  <linkclipref>clipitem-891</linkclipref>
                  <mediatype>audio</mediatype>
                  <trackindex>2</trackindex>
                  <clipindex>1</clipindex>
                  <groupindex>1</groupindex>
                </link>
              </clipitem>
            </track>
          </video>
          <audio>
            <track>
              <clipitem id="clipitem-890" frameBlend="FALSE">
                <masterclipid>masterclip-293</masterclipid>
                <name>00516.MTS</name>
                <file id="file-293"/>
                <sourcetrack>
                  <mediatype>audio</mediatype>
                  <trackindex>1</trackindex>
                </sourcetrack>
                <link>
                  <linkclipref>clipitem-889</linkclipref>
                  <mediatype>video</mediatype>
                  <trackindex>1</trackindex>
                  <clipindex>1</clipindex>
                </link>
                <link>
                  <linkclipref>clipitem-890</linkclipref>
                  <mediatype>audio</mediatype>
                  <trackindex>1</trackindex>
                  <clipindex>1</clipindex>
                  <groupindex>1</groupindex>
                </link>
                <link>
                  <linkclipref>clipitem-891</linkclipref>
                  <mediatype>audio</mediatype>
                  <trackindex>2</trackindex>
                  <clipindex>1</clipindex>
                  <groupindex>1</groupindex>
                </link>
              </clipitem>
            </track>
            <track>
              <clipitem id="clipitem-891" frameBlend="FALSE">
                <masterclipid>masterclip-293</masterclipid>
                <name>00516.MTS</name>
                <file id="file-293"/>
                <sourcetrack>
                  <mediatype>audio</mediatype>
                  <trackindex>2</trackindex>
                </sourcetrack>
                <link>
                  <linkclipref>clipitem-889</linkclipref>
                  <mediatype>video</mediatype>
                  <trackindex>1</trackindex>
                  <clipindex>1</clipindex>
                </link>
                <link>
                  <linkclipref>clipitem-890</linkclipref>
                  <mediatype>audio</mediatype>
                  <trackindex>1</trackindex>
                  <clipindex>1</clipindex>
                  <groupindex>1</groupindex>
                </link>
                <link>
                  <linkclipref>clipitem-891</linkclipref>
                  <mediatype>audio</mediatype>
                  <trackindex>2</trackindex>
                  <clipindex>1</clipindex>
                  <groupindex>1</groupindex>
                </link>
              </clipitem>
            </track>
          </audio>
        </media>
        <logginginfo>
          <description/>
          <scene/>
          <shottake/>
          <lognote/>
        </logginginfo>
      </clip>
      <clip id="masterclip-294" frameBlend="FALSE">
        <uuid>74420538-99a3-406c-b379-0e841b9d850f</uuid>
        <masterclipid>masterclip-294</masterclipid>
        <ismasterclip>TRUE</ismasterclip>
        <duration>1489</duration>
        <rate>
          <timebase>24</timebase>
          <ntsc>TRUE</ntsc>
        </rate>
        <name>00517.MTS</name>
        <media>
          <video>
            <track>
              <clipitem id="clipitem-892" frameBlend="FALSE">
                <masterclipid>masterclip-294</masterclipid>
                <name>00517.MTS</name>
                <alphatype>black</alphatype>
                <pixelaspectratio>square</pixelaspectratio>
                <anamorphic>FALSE</anamorphic>
                <file id="file-294">
                  <name>00517.MTS</name>
                  <pathurl>file://localhost/Volumes/Macintosh%20HD/Users/jacksongs/Desktop/STREAM/00517.MTS</pathurl>
                  <rate>
                    <timebase>24</timebase>
                    <ntsc>TRUE</ntsc>
                  </rate>
                  <duration>1489</duration>
                  <timecode>
                    <rate>
                      <timebase>24</timebase>
                      <ntsc>TRUE</ntsc>
                    </rate>
                    <string>00:00:00:00</string>
                    <frame>0</frame>
                    <displayformat>NDF</displayformat>
                    <reel>
                      <name/>
                    </reel>
                  </timecode>
                  <media>
                    <video>
                      <duration>18000</duration>
                      <samplecharacteristics>
                        <rate>
                          <timebase>24</timebase>
                          <ntsc>TRUE</ntsc>
                        </rate>
                        <width>1920</width>
                        <height>1080</height>
                        <anamorphic>FALSE</anamorphic>
                        <pixelaspectratio>square</pixelaspectratio>
                        <fielddominance>none</fielddominance>
                      </samplecharacteristics>
                    </video>
                    <audio>
                      <samplecharacteristics>
                        <depth>16</depth>
                        <samplerate>48000</samplerate>
                      </samplecharacteristics>
                      <channelcount>2</channelcount>
                    </audio>
                  </media>
                </file>
                <link>
                  <linkclipref>clipitem-892</linkclipref>
                  <mediatype>video</mediatype>
                  <trackindex>1</trackindex>
                  <clipindex>1</clipindex>
                </link>
                <link>
                  <linkclipref>clipitem-893</linkclipref>
                  <mediatype>audio</mediatype>
                  <trackindex>1</trackindex>
                  <clipindex>1</clipindex>
                  <groupindex>1</groupindex>
                </link>
                <link>
                  <linkclipref>clipitem-894</linkclipref>
                  <mediatype>audio</mediatype>
                  <trackindex>2</trackindex>
                  <clipindex>1</clipindex>
                  <groupindex>1</groupindex>
                </link>
              </clipitem>
            </track>
          </video>
          <audio>
            <track>
              <clipitem id="clipitem-893" frameBlend="FALSE">
                <masterclipid>masterclip-294</masterclipid>
                <name>00517.MTS</name>
                <file id="file-294"/>
                <sourcetrack>
                  <mediatype>audio</mediatype>
                  <trackindex>1</trackindex>
                </sourcetrack>
                <link>
                  <linkclipref>clipitem-892</linkclipref>
                  <mediatype>video</mediatype>
                  <trackindex>1</trackindex>
                  <clipindex>1</clipindex>
                </link>
                <link>
                  <linkclipref>clipitem-893</linkclipref>
                  <mediatype>audio</mediatype>
                  <trackindex>1</trackindex>
                  <clipindex>1</clipindex>
                  <groupindex>1</groupindex>
                </link>
                <link>
                  <linkclipref>clipitem-894</linkclipref>
                  <mediatype>audio</mediatype>
                  <trackindex>2</trackindex>
                  <clipindex>1</clipindex>
                  <groupindex>1</groupindex>
                </link>
              </clipitem>
            </track>
            <track>
              <clipitem id="clipitem-894" frameBlend="FALSE">
                <masterclipid>masterclip-294</masterclipid>
                <name>00517.MTS</name>
                <file id="file-294"/>
                <sourcetrack>
                  <mediatype>audio</mediatype>
                  <trackindex>2</trackindex>
                </sourcetrack>
                <link>
                  <linkclipref>clipitem-892</linkclipref>
                  <mediatype>video</mediatype>
                  <trackindex>1</trackindex>
                  <clipindex>1</clipindex>
                </link>
                <link>
                  <linkclipref>clipitem-893</linkclipref>
                  <mediatype>audio</mediatype>
                  <trackindex>1</trackindex>
                  <clipindex>1</clipindex>
                  <groupindex>1</groupindex>
                </link>
                <link>
                  <linkclipref>clipitem-894</linkclipref>
                  <mediatype>audio</mediatype>
                  <trackindex>2</trackindex>
                  <clipindex>1</clipindex>
                  <groupindex>1</groupindex>
                </link>
              </clipitem>
            </track>
          </audio>
        </media>
        <logginginfo>
          <description/>
          <scene/>
          <shottake/>
          <lognote/>
        </logginginfo>
      </clip>
      <clip id="masterclip-295" frameBlend="FALSE">
        <uuid>85bea9e3-4303-4be4-9003-ef7465e4b1b2</uuid>
        <masterclipid>masterclip-295</masterclipid>
        <ismasterclip>TRUE</ismasterclip>
        <duration>481</duration>
        <rate>
          <timebase>24</timebase>
          <ntsc>TRUE</ntsc>
        </rate>
        <name>00518.MTS</name>
        <media>
          <video>
            <track>
              <clipitem id="clipitem-895" frameBlend="FALSE">
                <masterclipid>masterclip-295</masterclipid>
                <name>00518.MTS</name>
                <alphatype>black</alphatype>
                <pixelaspectratio>square</pixelaspectratio>
                <anamorphic>FALSE</anamorphic>
                <file id="file-295">
                  <name>00518.MTS</name>
                  <pathurl>file://localhost/Volumes/Macintosh%20HD/Users/jacksongs/Desktop/STREAM/00518.MTS</pathurl>
                  <rate>
                    <timebase>24</timebase>
                    <ntsc>TRUE</ntsc>
                  </rate>
                  <duration>481</duration>
                  <timecode>
                    <rate>
                      <timebase>24</timebase>
                      <ntsc>TRUE</ntsc>
                    </rate>
                    <string>00:00:00:00</string>
                    <frame>0</frame>
                    <displayformat>NDF</displayformat>
                    <reel>
                      <name/>
                    </reel>
                  </timecode>
                  <media>
                    <video>
                      <duration>18000</duration>
                      <samplecharacteristics>
                        <rate>
                          <timebase>24</timebase>
                          <ntsc>TRUE</ntsc>
                        </rate>
                        <width>1920</width>
                        <height>1080</height>
                        <anamorphic>FALSE</anamorphic>
                        <pixelaspectratio>square</pixelaspectratio>
                        <fielddominance>none</fielddominance>
                      </samplecharacteristics>
                    </video>
                    <audio>
                      <samplecharacteristics>
                        <depth>16</depth>
                        <samplerate>48000</samplerate>
                      </samplecharacteristics>
                      <channelcount>2</channelcount>
                    </audio>
                  </media>
                </file>
                <link>
                  <linkclipref>clipitem-895</linkclipref>
                  <mediatype>video</mediatype>
                  <trackindex>1</trackindex>
                  <clipindex>1</clipindex>
                </link>
                <link>
                  <linkclipref>clipitem-896</linkclipref>
                  <mediatype>audio</mediatype>
                  <trackindex>1</trackindex>
                  <clipindex>1</clipindex>
                  <groupindex>1</groupindex>
                </link>
                <link>
                  <linkclipref>clipitem-897</linkclipref>
                  <mediatype>audio</mediatype>
                  <trackindex>2</trackindex>
                  <clipindex>1</clipindex>
                  <groupindex>1</groupindex>
                </link>
              </clipitem>
            </track>
          </video>
          <audio>
            <track>
              <clipitem id="clipitem-896" frameBlend="FALSE">
                <masterclipid>masterclip-295</masterclipid>
                <name>00518.MTS</name>
                <file id="file-295"/>
                <sourcetrack>
                  <mediatype>audio</mediatype>
                  <trackindex>1</trackindex>
                </sourcetrack>
                <link>
                  <linkclipref>clipitem-895</linkclipref>
                  <mediatype>video</mediatype>
                  <trackindex>1</trackindex>
                  <clipindex>1</clipindex>
                </link>
                <link>
                  <linkclipref>clipitem-896</linkclipref>
                  <mediatype>audio</mediatype>
                  <trackindex>1</trackindex>
                  <clipindex>1</clipindex>
                  <groupindex>1</groupindex>
                </link>
                <link>
                  <linkclipref>clipitem-897</linkclipref>
                  <mediatype>audio</mediatype>
                  <trackindex>2</trackindex>
                  <clipindex>1</clipindex>
                  <groupindex>1</groupindex>
                </link>
              </clipitem>
            </track>
            <track>
              <clipitem id="clipitem-897" frameBlend="FALSE">
                <masterclipid>masterclip-295</masterclipid>
                <name>00518.MTS</name>
                <file id="file-295"/>
                <sourcetrack>
                  <mediatype>audio</mediatype>
                  <trackindex>2</trackindex>
                </sourcetrack>
                <link>
                  <linkclipref>clipitem-895</linkclipref>
                  <mediatype>video</mediatype>
                  <trackindex>1</trackindex>
                  <clipindex>1</clipindex>
                </link>
                <link>
                  <linkclipref>clipitem-896</linkclipref>
                  <mediatype>audio</mediatype>
                  <trackindex>1</trackindex>
                  <clipindex>1</clipindex>
                  <groupindex>1</groupindex>
                </link>
                <link>
                  <linkclipref>clipitem-897</linkclipref>
                  <mediatype>audio</mediatype>
                  <trackindex>2</trackindex>
                  <clipindex>1</clipindex>
                  <groupindex>1</groupindex>
                </link>
              </clipitem>
            </track>
          </audio>
        </media>
        <logginginfo>
          <description/>
          <scene/>
          <shottake/>
          <lognote/>
        </logginginfo>
      </clip>
      <clip id="masterclip-296" frameBlend="FALSE">
        <uuid>c4795c31-83a0-4383-92ec-c55ffb8f4fef</uuid>
        <masterclipid>masterclip-296</masterclipid>
        <ismasterclip>TRUE</ismasterclip>
        <duration>133</duration>
        <rate>
          <timebase>24</timebase>
          <ntsc>TRUE</ntsc>
        </rate>
        <name>00519.MTS</name>
        <media>
          <video>
            <track>
              <clipitem id="clipitem-898" frameBlend="FALSE">
                <masterclipid>masterclip-296</masterclipid>
                <name>00519.MTS</name>
                <alphatype>black</alphatype>
                <pixelaspectratio>square</pixelaspectratio>
                <anamorphic>FALSE</anamorphic>
                <file id="file-296">
                  <name>00519.MTS</name>
                  <pathurl>file://localhost/Volumes/Macintosh%20HD/Users/jacksongs/Desktop/STREAM/00519.MTS</pathurl>
                  <rate>
                    <timebase>24</timebase>
                    <ntsc>TRUE</ntsc>
                  </rate>
                  <duration>133</duration>
                  <timecode>
                    <rate>
                      <timebase>24</timebase>
                      <ntsc>TRUE</ntsc>
                    </rate>
                    <string>00:00:00:00</string>
                    <frame>0</frame>
                    <displayformat>NDF</displayformat>
                    <reel>
                      <name/>
                    </reel>
                  </timecode>
                  <media>
                    <video>
                      <duration>18000</duration>
                      <samplecharacteristics>
                        <rate>
                          <timebase>24</timebase>
                          <ntsc>TRUE</ntsc>
                        </rate>
                        <width>1920</width>
                        <height>1080</height>
                        <anamorphic>FALSE</anamorphic>
                        <pixelaspectratio>square</pixelaspectratio>
                        <fielddominance>none</fielddominance>
                      </samplecharacteristics>
                    </video>
                    <audio>
                      <samplecharacteristics>
                        <depth>16</depth>
                        <samplerate>48000</samplerate>
                      </samplecharacteristics>
                      <channelcount>2</channelcount>
                    </audio>
                  </media>
                </file>
                <link>
                  <linkclipref>clipitem-898</linkclipref>
                  <mediatype>video</mediatype>
                  <trackindex>1</trackindex>
                  <clipindex>1</clipindex>
                </link>
                <link>
                  <linkclipref>clipitem-899</linkclipref>
                  <mediatype>audio</mediatype>
                  <trackindex>1</trackindex>
                  <clipindex>1</clipindex>
                  <groupindex>1</groupindex>
                </link>
                <link>
                  <linkclipref>clipitem-900</linkclipref>
                  <mediatype>audio</mediatype>
                  <trackindex>2</trackindex>
                  <clipindex>1</clipindex>
                  <groupindex>1</groupindex>
                </link>
              </clipitem>
            </track>
          </video>
          <audio>
            <track>
              <clipitem id="clipitem-899" frameBlend="FALSE">
                <masterclipid>masterclip-296</masterclipid>
                <name>00519.MTS</name>
                <file id="file-296"/>
                <sourcetrack>
                  <mediatype>audio</mediatype>
                  <trackindex>1</trackindex>
                </sourcetrack>
                <link>
                  <linkclipref>clipitem-898</linkclipref>
                  <mediatype>video</mediatype>
                  <trackindex>1</trackindex>
                  <clipindex>1</clipindex>
                </link>
                <link>
                  <linkclipref>clipitem-899</linkclipref>
                  <mediatype>audio</mediatype>
                  <trackindex>1</trackindex>
                  <clipindex>1</clipindex>
                  <groupindex>1</groupindex>
                </link>
                <link>
                  <linkclipref>clipitem-900</linkclipref>
                  <mediatype>audio</mediatype>
                  <trackindex>2</trackindex>
                  <clipindex>1</clipindex>
                  <groupindex>1</groupindex>
                </link>
              </clipitem>
            </track>
            <track>
              <clipitem id="clipitem-900" frameBlend="FALSE">
                <masterclipid>masterclip-296</masterclipid>
                <name>00519.MTS</name>
                <file id="file-296"/>
                <sourcetrack>
                  <mediatype>audio</mediatype>
                  <trackindex>2</trackindex>
                </sourcetrack>
                <link>
                  <linkclipref>clipitem-898</linkclipref>
                  <mediatype>video</mediatype>
                  <trackindex>1</trackindex>
                  <clipindex>1</clipindex>
                </link>
                <link>
                  <linkclipref>clipitem-899</linkclipref>
                  <mediatype>audio</mediatype>
                  <trackindex>1</trackindex>
                  <clipindex>1</clipindex>
                  <groupindex>1</groupindex>
                </link>
                <link>
                  <linkclipref>clipitem-900</linkclipref>
                  <mediatype>audio</mediatype>
                  <trackindex>2</trackindex>
                  <clipindex>1</clipindex>
                  <groupindex>1</groupindex>
                </link>
              </clipitem>
            </track>
          </audio>
        </media>
        <logginginfo>
          <description/>
          <scene/>
          <shottake/>
          <lognote/>
        </logginginfo>
      </clip>
      <clip id="masterclip-297" frameBlend="FALSE">
        <uuid>be5e6742-353d-475d-ab77-9f3ca78b16ab</uuid>
        <masterclipid>masterclip-297</masterclipid>
        <ismasterclip>TRUE</ismasterclip>
        <duration>397</duration>
        <rate>
          <timebase>24</timebase>
          <ntsc>TRUE</ntsc>
        </rate>
        <name>00520.MTS</name>
        <media>
          <video>
            <track>
              <clipitem id="clipitem-901" frameBlend="FALSE">
                <masterclipid>masterclip-297</masterclipid>
                <name>00520.MTS</name>
                <alphatype>black</alphatype>
                <pixelaspectratio>square</pixelaspectratio>
                <anamorphic>FALSE</anamorphic>
                <file id="file-297">
                  <name>00520.MTS</name>
                  <pathurl>file://localhost/Volumes/Macintosh%20HD/Users/jacksongs/Desktop/STREAM/00520.MTS</pathurl>
                  <rate>
                    <timebase>24</timebase>
                    <ntsc>TRUE</ntsc>
                  </rate>
                  <duration>397</duration>
                  <timecode>
                    <rate>
                      <timebase>24</timebase>
                      <ntsc>TRUE</ntsc>
                    </rate>
                    <string>00:00:00:00</string>
                    <frame>0</frame>
                    <displayformat>NDF</displayformat>
                    <reel>
                      <name/>
                    </reel>
                  </timecode>
                  <media>
                    <video>
                      <duration>18000</duration>
                      <samplecharacteristics>
                        <rate>
                          <timebase>24</timebase>
                          <ntsc>TRUE</ntsc>
                        </rate>
                        <width>1920</width>
                        <height>1080</height>
                        <anamorphic>FALSE</anamorphic>
                        <pixelaspectratio>square</pixelaspectratio>
                        <fielddominance>none</fielddominance>
                      </samplecharacteristics>
                    </video>
                    <audio>
                      <samplecharacteristics>
                        <depth>16</depth>
                        <samplerate>48000</samplerate>
                      </samplecharacteristics>
                      <channelcount>2</channelcount>
                    </audio>
                  </media>
                </file>
                <link>
                  <linkclipref>clipitem-901</linkclipref>
                  <mediatype>video</mediatype>
                  <trackindex>1</trackindex>
                  <clipindex>1</clipindex>
                </link>
                <link>
                  <linkclipref>clipitem-902</linkclipref>
                  <mediatype>audio</mediatype>
                  <trackindex>1</trackindex>
                  <clipindex>1</clipindex>
                  <groupindex>1</groupindex>
                </link>
                <link>
                  <linkclipref>clipitem-903</linkclipref>
                  <mediatype>audio</mediatype>
                  <trackindex>2</trackindex>
                  <clipindex>1</clipindex>
                  <groupindex>1</groupindex>
                </link>
              </clipitem>
            </track>
          </video>
          <audio>
            <track>
              <clipitem id="clipitem-902" frameBlend="FALSE">
                <masterclipid>masterclip-297</masterclipid>
                <name>00520.MTS</name>
                <file id="file-297"/>
                <sourcetrack>
                  <mediatype>audio</mediatype>
                  <trackindex>1</trackindex>
                </sourcetrack>
                <link>
                  <linkclipref>clipitem-901</linkclipref>
                  <mediatype>video</mediatype>
                  <trackindex>1</trackindex>
                  <clipindex>1</clipindex>
                </link>
                <link>
                  <linkclipref>clipitem-902</linkclipref>
                  <mediatype>audio</mediatype>
                  <trackindex>1</trackindex>
                  <clipindex>1</clipindex>
                  <groupindex>1</groupindex>
                </link>
                <link>
                  <linkclipref>clipitem-903</linkclipref>
                  <mediatype>audio</mediatype>
                  <trackindex>2</trackindex>
                  <clipindex>1</clipindex>
                  <groupindex>1</groupindex>
                </link>
              </clipitem>
            </track>
            <track>
              <clipitem id="clipitem-903" frameBlend="FALSE">
                <masterclipid>masterclip-297</masterclipid>
                <name>00520.MTS</name>
                <file id="file-297"/>
                <sourcetrack>
                  <mediatype>audio</mediatype>
                  <trackindex>2</trackindex>
                </sourcetrack>
                <link>
                  <linkclipref>clipitem-901</linkclipref>
                  <mediatype>video</mediatype>
                  <trackindex>1</trackindex>
                  <clipindex>1</clipindex>
                </link>
                <link>
                  <linkclipref>clipitem-902</linkclipref>
                  <mediatype>audio</mediatype>
                  <trackindex>1</trackindex>
                  <clipindex>1</clipindex>
                  <groupindex>1</groupindex>
                </link>
                <link>
                  <linkclipref>clipitem-903</linkclipref>
                  <mediatype>audio</mediatype>
                  <trackindex>2</trackindex>
                  <clipindex>1</clipindex>
                  <groupindex>1</groupindex>
                </link>
              </clipitem>
            </track>
          </audio>
        </media>
        <logginginfo>
          <description/>
          <scene/>
          <shottake/>
          <lognote/>
        </logginginfo>
      </clip>
      <clip id="masterclip-298" frameBlend="FALSE">
        <uuid>8d19940e-a6f8-4bba-b290-91f885f77dd8</uuid>
        <masterclipid>masterclip-298</masterclipid>
        <ismasterclip>TRUE</ismasterclip>
        <duration>181</duration>
        <rate>
          <timebase>24</timebase>
          <ntsc>TRUE</ntsc>
        </rate>
        <name>00521.MTS</name>
        <media>
          <video>
            <track>
              <clipitem id="clipitem-904" frameBlend="FALSE">
                <masterclipid>masterclip-298</masterclipid>
                <name>00521.MTS</name>
                <alphatype>black</alphatype>
                <pixelaspectratio>square</pixelaspectratio>
                <anamorphic>FALSE</anamorphic>
                <file id="file-298">
                  <name>00521.MTS</name>
                  <pathurl>file://localhost/Volumes/Macintosh%20HD/Users/jacksongs/Desktop/STREAM/00521.MTS</pathurl>
                  <rate>
                    <timebase>24</timebase>
                    <ntsc>TRUE</ntsc>
                  </rate>
                  <duration>181</duration>
                  <timecode>
                    <rate>
                      <timebase>24</timebase>
                      <ntsc>TRUE</ntsc>
                    </rate>
                    <string>00:00:00:00</string>
                    <frame>0</frame>
                    <displayformat>NDF</displayformat>
                    <reel>
                      <name/>
                    </reel>
                  </timecode>
                  <media>
                    <video>
                      <duration>18000</duration>
                      <samplecharacteristics>
                        <rate>
                          <timebase>24</timebase>
                          <ntsc>TRUE</ntsc>
                        </rate>
                        <width>1920</width>
                        <height>1080</height>
                        <anamorphic>FALSE</anamorphic>
                        <pixelaspectratio>square</pixelaspectratio>
                        <fielddominance>none</fielddominance>
                      </samplecharacteristics>
                    </video>
                    <audio>
                      <samplecharacteristics>
                        <depth>16</depth>
                        <samplerate>48000</samplerate>
                      </samplecharacteristics>
                      <channelcount>2</channelcount>
                    </audio>
                  </media>
                </file>
                <link>
                  <linkclipref>clipitem-904</linkclipref>
                  <mediatype>video</mediatype>
                  <trackindex>1</trackindex>
                  <clipindex>1</clipindex>
                </link>
                <link>
                  <linkclipref>clipitem-905</linkclipref>
                  <mediatype>audio</mediatype>
                  <trackindex>1</trackindex>
                  <clipindex>1</clipindex>
                  <groupindex>1</groupindex>
                </link>
                <link>
                  <linkclipref>clipitem-906</linkclipref>
                  <mediatype>audio</mediatype>
                  <trackindex>2</trackindex>
                  <clipindex>1</clipindex>
                  <groupindex>1</groupindex>
                </link>
              </clipitem>
            </track>
          </video>
          <audio>
            <track>
              <clipitem id="clipitem-905" frameBlend="FALSE">
                <masterclipid>masterclip-298</masterclipid>
                <name>00521.MTS</name>
                <file id="file-298"/>
                <sourcetrack>
                  <mediatype>audio</mediatype>
                  <trackindex>1</trackindex>
                </sourcetrack>
                <link>
                  <linkclipref>clipitem-904</linkclipref>
                  <mediatype>video</mediatype>
                  <trackindex>1</trackindex>
                  <clipindex>1</clipindex>
                </link>
                <link>
                  <linkclipref>clipitem-905</linkclipref>
                  <mediatype>audio</mediatype>
                  <trackindex>1</trackindex>
                  <clipindex>1</clipindex>
                  <groupindex>1</groupindex>
                </link>
                <link>
                  <linkclipref>clipitem-906</linkclipref>
                  <mediatype>audio</mediatype>
                  <trackindex>2</trackindex>
                  <clipindex>1</clipindex>
                  <groupindex>1</groupindex>
                </link>
              </clipitem>
            </track>
            <track>
              <clipitem id="clipitem-906" frameBlend="FALSE">
                <masterclipid>masterclip-298</masterclipid>
                <name>00521.MTS</name>
                <file id="file-298"/>
                <sourcetrack>
                  <mediatype>audio</mediatype>
                  <trackindex>2</trackindex>
                </sourcetrack>
                <link>
                  <linkclipref>clipitem-904</linkclipref>
                  <mediatype>video</mediatype>
                  <trackindex>1</trackindex>
                  <clipindex>1</clipindex>
                </link>
                <link>
                  <linkclipref>clipitem-905</linkclipref>
                  <mediatype>audio</mediatype>
                  <trackindex>1</trackindex>
                  <clipindex>1</clipindex>
                  <groupindex>1</groupindex>
                </link>
                <link>
                  <linkclipref>clipitem-906</linkclipref>
                  <mediatype>audio</mediatype>
                  <trackindex>2</trackindex>
                  <clipindex>1</clipindex>
                  <groupindex>1</groupindex>
                </link>
              </clipitem>
            </track>
          </audio>
        </media>
        <logginginfo>
          <description/>
          <scene/>
          <shottake/>
          <lognote/>
        </logginginfo>
      </clip>
      <clip id="masterclip-299" frameBlend="FALSE">
        <uuid>8cff3772-52f4-4a4e-bf42-f493cd67528c</uuid>
        <masterclipid>masterclip-299</masterclipid>
        <ismasterclip>TRUE</ismasterclip>
        <duration>253</duration>
        <rate>
          <timebase>24</timebase>
          <ntsc>TRUE</ntsc>
        </rate>
        <name>00522.MTS</name>
        <media>
          <video>
            <track>
              <clipitem id="clipitem-907" frameBlend="FALSE">
                <masterclipid>masterclip-299</masterclipid>
                <name>00522.MTS</name>
                <alphatype>black</alphatype>
                <pixelaspectratio>square</pixelaspectratio>
                <anamorphic>FALSE</anamorphic>
                <file id="file-299">
                  <name>00522.MTS</name>
                  <pathurl>file://localhost/Volumes/Macintosh%20HD/Users/jacksongs/Desktop/STREAM/00522.MTS</pathurl>
                  <rate>
                    <timebase>24</timebase>
                    <ntsc>TRUE</ntsc>
                  </rate>
                  <duration>253</duration>
                  <timecode>
                    <rate>
                      <timebase>24</timebase>
                      <ntsc>TRUE</ntsc>
                    </rate>
                    <string>00:00:00:00</string>
                    <frame>0</frame>
                    <displayformat>NDF</displayformat>
                    <reel>
                      <name/>
                    </reel>
                  </timecode>
                  <media>
                    <video>
                      <duration>18000</duration>
                      <samplecharacteristics>
                        <rate>
                          <timebase>24</timebase>
                          <ntsc>TRUE</ntsc>
                        </rate>
                        <width>1920</width>
                        <height>1080</height>
                        <anamorphic>FALSE</anamorphic>
                        <pixelaspectratio>square</pixelaspectratio>
                        <fielddominance>none</fielddominance>
                      </samplecharacteristics>
                    </video>
                    <audio>
                      <samplecharacteristics>
                        <depth>16</depth>
                        <samplerate>48000</samplerate>
                      </samplecharacteristics>
                      <channelcount>2</channelcount>
                    </audio>
                  </media>
                </file>
                <link>
                  <linkclipref>clipitem-907</linkclipref>
                  <mediatype>video</mediatype>
                  <trackindex>1</trackindex>
                  <clipindex>1</clipindex>
                </link>
                <link>
                  <linkclipref>clipitem-908</linkclipref>
                  <mediatype>audio</mediatype>
                  <trackindex>1</trackindex>
                  <clipindex>1</clipindex>
                  <groupindex>1</groupindex>
                </link>
                <link>
                  <linkclipref>clipitem-909</linkclipref>
                  <mediatype>audio</mediatype>
                  <trackindex>2</trackindex>
                  <clipindex>1</clipindex>
                  <groupindex>1</groupindex>
                </link>
              </clipitem>
            </track>
          </video>
          <audio>
            <track>
              <clipitem id="clipitem-908" frameBlend="FALSE">
                <masterclipid>masterclip-299</masterclipid>
                <name>00522.MTS</name>
                <file id="file-299"/>
                <sourcetrack>
                  <mediatype>audio</mediatype>
                  <trackindex>1</trackindex>
                </sourcetrack>
                <link>
                  <linkclipref>clipitem-907</linkclipref>
                  <mediatype>video</mediatype>
                  <trackindex>1</trackindex>
                  <clipindex>1</clipindex>
                </link>
                <link>
                  <linkclipref>clipitem-908</linkclipref>
                  <mediatype>audio</mediatype>
                  <trackindex>1</trackindex>
                  <clipindex>1</clipindex>
                  <groupindex>1</groupindex>
                </link>
                <link>
                  <linkclipref>clipitem-909</linkclipref>
                  <mediatype>audio</mediatype>
                  <trackindex>2</trackindex>
                  <clipindex>1</clipindex>
                  <groupindex>1</groupindex>
                </link>
              </clipitem>
            </track>
            <track>
              <clipitem id="clipitem-909" frameBlend="FALSE">
                <masterclipid>masterclip-299</masterclipid>
                <name>00522.MTS</name>
                <file id="file-299"/>
                <sourcetrack>
                  <mediatype>audio</mediatype>
                  <trackindex>2</trackindex>
                </sourcetrack>
                <link>
                  <linkclipref>clipitem-907</linkclipref>
                  <mediatype>video</mediatype>
                  <trackindex>1</trackindex>
                  <clipindex>1</clipindex>
                </link>
                <link>
                  <linkclipref>clipitem-908</linkclipref>
                  <mediatype>audio</mediatype>
                  <trackindex>1</trackindex>
                  <clipindex>1</clipindex>
                  <groupindex>1</groupindex>
                </link>
                <link>
                  <linkclipref>clipitem-909</linkclipref>
                  <mediatype>audio</mediatype>
                  <trackindex>2</trackindex>
                  <clipindex>1</clipindex>
                  <groupindex>1</groupindex>
                </link>
              </clipitem>
            </track>
          </audio>
        </media>
        <logginginfo>
          <description/>
          <scene/>
          <shottake/>
          <lognote/>
        </logginginfo>
      </clip>
      <clip id="masterclip-300" frameBlend="FALSE">
        <uuid>8e3372ad-5815-48a2-b1ac-2ede201f084f</uuid>
        <masterclipid>masterclip-300</masterclipid>
        <ismasterclip>TRUE</ismasterclip>
        <duration>193</duration>
        <rate>
          <timebase>24</timebase>
          <ntsc>TRUE</ntsc>
        </rate>
        <name>00523.MTS</name>
        <media>
          <video>
            <track>
              <clipitem id="clipitem-910" frameBlend="FALSE">
                <masterclipid>masterclip-300</masterclipid>
                <name>00523.MTS</name>
                <alphatype>black</alphatype>
                <pixelaspectratio>square</pixelaspectratio>
                <anamorphic>FALSE</anamorphic>
                <file id="file-300">
                  <name>00523.MTS</name>
                  <pathurl>file://localhost/Volumes/Macintosh%20HD/Users/jacksongs/Desktop/STREAM/00523.MTS</pathurl>
                  <rate>
                    <timebase>24</timebase>
                    <ntsc>TRUE</ntsc>
                  </rate>
                  <duration>193</duration>
                  <timecode>
                    <rate>
                      <timebase>24</timebase>
                      <ntsc>TRUE</ntsc>
                    </rate>
                    <string>00:00:00:00</string>
                    <frame>0</frame>
                    <displayformat>NDF</displayformat>
                    <reel>
                      <name/>
                    </reel>
                  </timecode>
                  <media>
                    <video>
                      <duration>18000</duration>
                      <samplecharacteristics>
                        <rate>
                          <timebase>24</timebase>
                          <ntsc>TRUE</ntsc>
                        </rate>
                        <width>1920</width>
                        <height>1080</height>
                        <anamorphic>FALSE</anamorphic>
                        <pixelaspectratio>square</pixelaspectratio>
                        <fielddominance>none</fielddominance>
                      </samplecharacteristics>
                    </video>
                    <audio>
                      <samplecharacteristics>
                        <depth>16</depth>
                        <samplerate>48000</samplerate>
                      </samplecharacteristics>
                      <channelcount>2</channelcount>
                    </audio>
                  </media>
                </file>
                <link>
                  <linkclipref>clipitem-910</linkclipref>
                  <mediatype>video</mediatype>
                  <trackindex>1</trackindex>
                  <clipindex>1</clipindex>
                </link>
                <link>
                  <linkclipref>clipitem-911</linkclipref>
                  <mediatype>audio</mediatype>
                  <trackindex>1</trackindex>
                  <clipindex>1</clipindex>
                  <groupindex>1</groupindex>
                </link>
                <link>
                  <linkclipref>clipitem-912</linkclipref>
                  <mediatype>audio</mediatype>
                  <trackindex>2</trackindex>
                  <clipindex>1</clipindex>
                  <groupindex>1</groupindex>
                </link>
              </clipitem>
            </track>
          </video>
          <audio>
            <track>
              <clipitem id="clipitem-911" frameBlend="FALSE">
                <masterclipid>masterclip-300</masterclipid>
                <name>00523.MTS</name>
                <file id="file-300"/>
                <sourcetrack>
                  <mediatype>audio</mediatype>
                  <trackindex>1</trackindex>
                </sourcetrack>
                <link>
                  <linkclipref>clipitem-910</linkclipref>
                  <mediatype>video</mediatype>
                  <trackindex>1</trackindex>
                  <clipindex>1</clipindex>
                </link>
                <link>
                  <linkclipref>clipitem-911</linkclipref>
                  <mediatype>audio</mediatype>
                  <trackindex>1</trackindex>
                  <clipindex>1</clipindex>
                  <groupindex>1</groupindex>
                </link>
                <link>
                  <linkclipref>clipitem-912</linkclipref>
                  <mediatype>audio</mediatype>
                  <trackindex>2</trackindex>
                  <clipindex>1</clipindex>
                  <groupindex>1</groupindex>
                </link>
              </clipitem>
            </track>
            <track>
              <clipitem id="clipitem-912" frameBlend="FALSE">
                <masterclipid>masterclip-300</masterclipid>
                <name>00523.MTS</name>
                <file id="file-300"/>
                <sourcetrack>
                  <mediatype>audio</mediatype>
                  <trackindex>2</trackindex>
                </sourcetrack>
                <link>
                  <linkclipref>clipitem-910</linkclipref>
                  <mediatype>video</mediatype>
                  <trackindex>1</trackindex>
                  <clipindex>1</clipindex>
                </link>
                <link>
                  <linkclipref>clipitem-911</linkclipref>
                  <mediatype>audio</mediatype>
                  <trackindex>1</trackindex>
                  <clipindex>1</clipindex>
                  <groupindex>1</groupindex>
                </link>
                <link>
                  <linkclipref>clipitem-912</linkclipref>
                  <mediatype>audio</mediatype>
                  <trackindex>2</trackindex>
                  <clipindex>1</clipindex>
                  <groupindex>1</groupindex>
                </link>
              </clipitem>
            </track>
          </audio>
        </media>
        <logginginfo>
          <description/>
          <scene/>
          <shottake/>
          <lognote/>
        </logginginfo>
      </clip>
      <clip id="masterclip-301" frameBlend="FALSE">
        <uuid>b2533045-9bbe-4a09-b510-c83dd1b07192</uuid>
        <masterclipid>masterclip-301</masterclipid>
        <ismasterclip>TRUE</ismasterclip>
        <duration>385</duration>
        <rate>
          <timebase>24</timebase>
          <ntsc>TRUE</ntsc>
        </rate>
        <name>00524.MTS</name>
        <media>
          <video>
            <track>
              <clipitem id="clipitem-913" frameBlend="FALSE">
                <masterclipid>masterclip-301</masterclipid>
                <name>00524.MTS</name>
                <alphatype>black</alphatype>
                <pixelaspectratio>square</pixelaspectratio>
                <anamorphic>FALSE</anamorphic>
                <file id="file-301">
                  <name>00524.MTS</name>
                  <pathurl>file://localhost/Volumes/Macintosh%20HD/Users/jacksongs/Desktop/STREAM/00524.MTS</pathurl>
                  <rate>
                    <timebase>24</timebase>
                    <ntsc>TRUE</ntsc>
                  </rate>
                  <duration>385</duration>
                  <timecode>
                    <rate>
                      <timebase>24</timebase>
                      <ntsc>TRUE</ntsc>
                    </rate>
                    <string>00:00:00:00</string>
                    <frame>0</frame>
                    <displayformat>NDF</displayformat>
                    <reel>
                      <name/>
                    </reel>
                  </timecode>
                  <media>
                    <video>
                      <duration>18000</duration>
                      <samplecharacteristics>
                        <rate>
                          <timebase>24</timebase>
                          <ntsc>TRUE</ntsc>
                        </rate>
                        <width>1920</width>
                        <height>1080</height>
                        <anamorphic>FALSE</anamorphic>
                        <pixelaspectratio>square</pixelaspectratio>
                        <fielddominance>none</fielddominance>
                      </samplecharacteristics>
                    </video>
                    <audio>
                      <samplecharacteristics>
                        <depth>16</depth>
                        <samplerate>48000</samplerate>
                      </samplecharacteristics>
                      <channelcount>2</channelcount>
                    </audio>
                  </media>
                </file>
                <link>
                  <linkclipref>clipitem-913</linkclipref>
                  <mediatype>video</mediatype>
                  <trackindex>1</trackindex>
                  <clipindex>1</clipindex>
                </link>
                <link>
                  <linkclipref>clipitem-914</linkclipref>
                  <mediatype>audio</mediatype>
                  <trackindex>1</trackindex>
                  <clipindex>1</clipindex>
                  <groupindex>1</groupindex>
                </link>
                <link>
                  <linkclipref>clipitem-915</linkclipref>
                  <mediatype>audio</mediatype>
                  <trackindex>2</trackindex>
                  <clipindex>1</clipindex>
                  <groupindex>1</groupindex>
                </link>
              </clipitem>
            </track>
          </video>
          <audio>
            <track>
              <clipitem id="clipitem-914" frameBlend="FALSE">
                <masterclipid>masterclip-301</masterclipid>
                <name>00524.MTS</name>
                <file id="file-301"/>
                <sourcetrack>
                  <mediatype>audio</mediatype>
                  <trackindex>1</trackindex>
                </sourcetrack>
                <link>
                  <linkclipref>clipitem-913</linkclipref>
                  <mediatype>video</mediatype>
                  <trackindex>1</trackindex>
                  <clipindex>1</clipindex>
                </link>
                <link>
                  <linkclipref>clipitem-914</linkclipref>
                  <mediatype>audio</mediatype>
                  <trackindex>1</trackindex>
                  <clipindex>1</clipindex>
                  <groupindex>1</groupindex>
                </link>
                <link>
                  <linkclipref>clipitem-915</linkclipref>
                  <mediatype>audio</mediatype>
                  <trackindex>2</trackindex>
                  <clipindex>1</clipindex>
                  <groupindex>1</groupindex>
                </link>
              </clipitem>
            </track>
            <track>
              <clipitem id="clipitem-915" frameBlend="FALSE">
                <masterclipid>masterclip-301</masterclipid>
                <name>00524.MTS</name>
                <file id="file-301"/>
                <sourcetrack>
                  <mediatype>audio</mediatype>
                  <trackindex>2</trackindex>
                </sourcetrack>
                <link>
                  <linkclipref>clipitem-913</linkclipref>
                  <mediatype>video</mediatype>
                  <trackindex>1</trackindex>
                  <clipindex>1</clipindex>
                </link>
                <link>
                  <linkclipref>clipitem-914</linkclipref>
                  <mediatype>audio</mediatype>
                  <trackindex>1</trackindex>
                  <clipindex>1</clipindex>
                  <groupindex>1</groupindex>
                </link>
                <link>
                  <linkclipref>clipitem-915</linkclipref>
                  <mediatype>audio</mediatype>
                  <trackindex>2</trackindex>
                  <clipindex>1</clipindex>
                  <groupindex>1</groupindex>
                </link>
              </clipitem>
            </track>
          </audio>
        </media>
        <logginginfo>
          <description/>
          <scene/>
          <shottake/>
          <lognote/>
        </logginginfo>
      </clip>
      <clip id="masterclip-302" frameBlend="FALSE">
        <uuid>72554d06-d3f2-4523-a444-c5d3407d8a14</uuid>
        <masterclipid>masterclip-302</masterclipid>
        <ismasterclip>TRUE</ismasterclip>
        <duration>181</duration>
        <rate>
          <timebase>24</timebase>
          <ntsc>TRUE</ntsc>
        </rate>
        <name>00525.MTS</name>
        <media>
          <video>
            <track>
              <clipitem id="clipitem-916" frameBlend="FALSE">
                <masterclipid>masterclip-302</masterclipid>
                <name>00525.MTS</name>
                <alphatype>black</alphatype>
                <pixelaspectratio>square</pixelaspectratio>
                <anamorphic>FALSE</anamorphic>
                <file id="file-302">
                  <name>00525.MTS</name>
                  <pathurl>file://localhost/Volumes/Macintosh%20HD/Users/jacksongs/Desktop/STREAM/00525.MTS</pathurl>
                  <rate>
                    <timebase>24</timebase>
                    <ntsc>TRUE</ntsc>
                  </rate>
                  <duration>181</duration>
                  <timecode>
                    <rate>
                      <timebase>24</timebase>
                      <ntsc>TRUE</ntsc>
                    </rate>
                    <string>00:00:00:00</string>
                    <frame>0</frame>
                    <displayformat>NDF</displayformat>
                    <reel>
                      <name/>
                    </reel>
                  </timecode>
                  <media>
                    <video>
                      <duration>18000</duration>
                      <samplecharacteristics>
                        <rate>
                          <timebase>24</timebase>
                          <ntsc>TRUE</ntsc>
                        </rate>
                        <width>1920</width>
                        <height>1080</height>
                        <anamorphic>FALSE</anamorphic>
                        <pixelaspectratio>square</pixelaspectratio>
                        <fielddominance>none</fielddominance>
                      </samplecharacteristics>
                    </video>
                    <audio>
                      <samplecharacteristics>
                        <depth>16</depth>
                        <samplerate>48000</samplerate>
                      </samplecharacteristics>
                      <channelcount>2</channelcount>
                    </audio>
                  </media>
                </file>
                <link>
                  <linkclipref>clipitem-916</linkclipref>
                  <mediatype>video</mediatype>
                  <trackindex>1</trackindex>
                  <clipindex>1</clipindex>
                </link>
                <link>
                  <linkclipref>clipitem-917</linkclipref>
                  <mediatype>audio</mediatype>
                  <trackindex>1</trackindex>
                  <clipindex>1</clipindex>
                  <groupindex>1</groupindex>
                </link>
                <link>
                  <linkclipref>clipitem-918</linkclipref>
                  <mediatype>audio</mediatype>
                  <trackindex>2</trackindex>
                  <clipindex>1</clipindex>
                  <groupindex>1</groupindex>
                </link>
              </clipitem>
            </track>
          </video>
          <audio>
            <track>
              <clipitem id="clipitem-917" frameBlend="FALSE">
                <masterclipid>masterclip-302</masterclipid>
                <name>00525.MTS</name>
                <file id="file-302"/>
                <sourcetrack>
                  <mediatype>audio</mediatype>
                  <trackindex>1</trackindex>
                </sourcetrack>
                <link>
                  <linkclipref>clipitem-916</linkclipref>
                  <mediatype>video</mediatype>
                  <trackindex>1</trackindex>
                  <clipindex>1</clipindex>
                </link>
                <link>
                  <linkclipref>clipitem-917</linkclipref>
                  <mediatype>audio</mediatype>
                  <trackindex>1</trackindex>
                  <clipindex>1</clipindex>
                  <groupindex>1</groupindex>
                </link>
                <link>
                  <linkclipref>clipitem-918</linkclipref>
                  <mediatype>audio</mediatype>
                  <trackindex>2</trackindex>
                  <clipindex>1</clipindex>
                  <groupindex>1</groupindex>
                </link>
              </clipitem>
            </track>
            <track>
              <clipitem id="clipitem-918" frameBlend="FALSE">
                <masterclipid>masterclip-302</masterclipid>
                <name>00525.MTS</name>
                <file id="file-302"/>
                <sourcetrack>
                  <mediatype>audio</mediatype>
                  <trackindex>2</trackindex>
                </sourcetrack>
                <link>
                  <linkclipref>clipitem-916</linkclipref>
                  <mediatype>video</mediatype>
                  <trackindex>1</trackindex>
                  <clipindex>1</clipindex>
                </link>
                <link>
                  <linkclipref>clipitem-917</linkclipref>
                  <mediatype>audio</mediatype>
                  <trackindex>1</trackindex>
                  <clipindex>1</clipindex>
                  <groupindex>1</groupindex>
                </link>
                <link>
                  <linkclipref>clipitem-918</linkclipref>
                  <mediatype>audio</mediatype>
                  <trackindex>2</trackindex>
                  <clipindex>1</clipindex>
                  <groupindex>1</groupindex>
                </link>
              </clipitem>
            </track>
          </audio>
        </media>
        <logginginfo>
          <description/>
          <scene/>
          <shottake/>
          <lognote/>
        </logginginfo>
      </clip>
      <clip id="masterclip-303" frameBlend="FALSE">
        <uuid>c0025e4f-7ff0-4cb4-8fb1-032395111c8b</uuid>
        <masterclipid>masterclip-303</masterclipid>
        <ismasterclip>TRUE</ismasterclip>
        <duration>217</duration>
        <rate>
          <timebase>24</timebase>
          <ntsc>TRUE</ntsc>
        </rate>
        <name>00526.MTS</name>
        <media>
          <video>
            <track>
              <clipitem id="clipitem-919" frameBlend="FALSE">
                <masterclipid>masterclip-303</masterclipid>
                <name>00526.MTS</name>
                <alphatype>black</alphatype>
                <pixelaspectratio>square</pixelaspectratio>
                <anamorphic>FALSE</anamorphic>
                <file id="file-303">
                  <name>00526.MTS</name>
                  <pathurl>file://localhost/Volumes/Macintosh%20HD/Users/jacksongs/Desktop/STREAM/00526.MTS</pathurl>
                  <rate>
                    <timebase>24</timebase>
                    <ntsc>TRUE</ntsc>
                  </rate>
                  <duration>217</duration>
                  <timecode>
                    <rate>
                      <timebase>24</timebase>
                      <ntsc>TRUE</ntsc>
                    </rate>
                    <string>00:00:00:00</string>
                    <frame>0</frame>
                    <displayformat>NDF</displayformat>
                    <reel>
                      <name/>
                    </reel>
                  </timecode>
                  <media>
                    <video>
                      <duration>18000</duration>
                      <samplecharacteristics>
                        <rate>
                          <timebase>24</timebase>
                          <ntsc>TRUE</ntsc>
                        </rate>
                        <width>1920</width>
                        <height>1080</height>
                        <anamorphic>FALSE</anamorphic>
                        <pixelaspectratio>square</pixelaspectratio>
                        <fielddominance>none</fielddominance>
                      </samplecharacteristics>
                    </video>
                    <audio>
                      <samplecharacteristics>
                        <depth>16</depth>
                        <samplerate>48000</samplerate>
                      </samplecharacteristics>
                      <channelcount>2</channelcount>
                    </audio>
                  </media>
                </file>
                <link>
                  <linkclipref>clipitem-919</linkclipref>
                  <mediatype>video</mediatype>
                  <trackindex>1</trackindex>
                  <clipindex>1</clipindex>
                </link>
                <link>
                  <linkclipref>clipitem-920</linkclipref>
                  <mediatype>audio</mediatype>
                  <trackindex>1</trackindex>
                  <clipindex>1</clipindex>
                  <groupindex>1</groupindex>
                </link>
                <link>
                  <linkclipref>clipitem-921</linkclipref>
                  <mediatype>audio</mediatype>
                  <trackindex>2</trackindex>
                  <clipindex>1</clipindex>
                  <groupindex>1</groupindex>
                </link>
              </clipitem>
            </track>
          </video>
          <audio>
            <track>
              <clipitem id="clipitem-920" frameBlend="FALSE">
                <masterclipid>masterclip-303</masterclipid>
                <name>00526.MTS</name>
                <file id="file-303"/>
                <sourcetrack>
                  <mediatype>audio</mediatype>
                  <trackindex>1</trackindex>
                </sourcetrack>
                <link>
                  <linkclipref>clipitem-919</linkclipref>
                  <mediatype>video</mediatype>
                  <trackindex>1</trackindex>
                  <clipindex>1</clipindex>
                </link>
                <link>
                  <linkclipref>clipitem-920</linkclipref>
                  <mediatype>audio</mediatype>
                  <trackindex>1</trackindex>
                  <clipindex>1</clipindex>
                  <groupindex>1</groupindex>
                </link>
                <link>
                  <linkclipref>clipitem-921</linkclipref>
                  <mediatype>audio</mediatype>
                  <trackindex>2</trackindex>
                  <clipindex>1</clipindex>
                  <groupindex>1</groupindex>
                </link>
              </clipitem>
            </track>
            <track>
              <clipitem id="clipitem-921" frameBlend="FALSE">
                <masterclipid>masterclip-303</masterclipid>
                <name>00526.MTS</name>
                <file id="file-303"/>
                <sourcetrack>
                  <mediatype>audio</mediatype>
                  <trackindex>2</trackindex>
                </sourcetrack>
                <link>
                  <linkclipref>clipitem-919</linkclipref>
                  <mediatype>video</mediatype>
                  <trackindex>1</trackindex>
                  <clipindex>1</clipindex>
                </link>
                <link>
                  <linkclipref>clipitem-920</linkclipref>
                  <mediatype>audio</mediatype>
                  <trackindex>1</trackindex>
                  <clipindex>1</clipindex>
                  <groupindex>1</groupindex>
                </link>
                <link>
                  <linkclipref>clipitem-921</linkclipref>
                  <mediatype>audio</mediatype>
                  <trackindex>2</trackindex>
                  <clipindex>1</clipindex>
                  <groupindex>1</groupindex>
                </link>
              </clipitem>
            </track>
          </audio>
        </media>
        <logginginfo>
          <description/>
          <scene/>
          <shottake/>
          <lognote/>
        </logginginfo>
      </clip>
      <clip id="masterclip-304" frameBlend="FALSE">
        <uuid>8d5a295d-b8f2-44a5-a08f-1eafea230b9a</uuid>
        <masterclipid>masterclip-304</masterclipid>
        <ismasterclip>TRUE</ismasterclip>
        <duration>325</duration>
        <rate>
          <timebase>24</timebase>
          <ntsc>TRUE</ntsc>
        </rate>
        <name>00527.MTS</name>
        <media>
          <video>
            <track>
              <clipitem id="clipitem-922" frameBlend="FALSE">
                <masterclipid>masterclip-304</masterclipid>
                <name>00527.MTS</name>
                <alphatype>black</alphatype>
                <pixelaspectratio>square</pixelaspectratio>
                <anamorphic>FALSE</anamorphic>
                <file id="file-304">
                  <name>00527.MTS</name>
                  <pathurl>file://localhost/Volumes/Macintosh%20HD/Users/jacksongs/Desktop/STREAM/00527.MTS</pathurl>
                  <rate>
                    <timebase>24</timebase>
                    <ntsc>TRUE</ntsc>
                  </rate>
                  <duration>325</duration>
                  <timecode>
                    <rate>
                      <timebase>24</timebase>
                      <ntsc>TRUE</ntsc>
                    </rate>
                    <string>00:00:00:00</string>
                    <frame>0</frame>
                    <displayformat>NDF</displayformat>
                    <reel>
                      <name/>
                    </reel>
                  </timecode>
                  <media>
                    <video>
                      <duration>18000</duration>
                      <samplecharacteristics>
                        <rate>
                          <timebase>24</timebase>
                          <ntsc>TRUE</ntsc>
                        </rate>
                        <width>1920</width>
                        <height>1080</height>
                        <anamorphic>FALSE</anamorphic>
                        <pixelaspectratio>square</pixelaspectratio>
                        <fielddominance>none</fielddominance>
                      </samplecharacteristics>
                    </video>
                    <audio>
                      <samplecharacteristics>
                        <depth>16</depth>
                        <samplerate>48000</samplerate>
                      </samplecharacteristics>
                      <channelcount>2</channelcount>
                    </audio>
                  </media>
                </file>
                <link>
                  <linkclipref>clipitem-922</linkclipref>
                  <mediatype>video</mediatype>
                  <trackindex>1</trackindex>
                  <clipindex>1</clipindex>
                </link>
                <link>
                  <linkclipref>clipitem-923</linkclipref>
                  <mediatype>audio</mediatype>
                  <trackindex>1</trackindex>
                  <clipindex>1</clipindex>
                  <groupindex>1</groupindex>
                </link>
                <link>
                  <linkclipref>clipitem-924</linkclipref>
                  <mediatype>audio</mediatype>
                  <trackindex>2</trackindex>
                  <clipindex>1</clipindex>
                  <groupindex>1</groupindex>
                </link>
              </clipitem>
            </track>
          </video>
          <audio>
            <track>
              <clipitem id="clipitem-923" frameBlend="FALSE">
                <masterclipid>masterclip-304</masterclipid>
                <name>00527.MTS</name>
                <file id="file-304"/>
                <sourcetrack>
                  <mediatype>audio</mediatype>
                  <trackindex>1</trackindex>
                </sourcetrack>
                <link>
                  <linkclipref>clipitem-922</linkclipref>
                  <mediatype>video</mediatype>
                  <trackindex>1</trackindex>
                  <clipindex>1</clipindex>
                </link>
                <link>
                  <linkclipref>clipitem-923</linkclipref>
                  <mediatype>audio</mediatype>
                  <trackindex>1</trackindex>
                  <clipindex>1</clipindex>
                  <groupindex>1</groupindex>
                </link>
                <link>
                  <linkclipref>clipitem-924</linkclipref>
                  <mediatype>audio</mediatype>
                  <trackindex>2</trackindex>
                  <clipindex>1</clipindex>
                  <groupindex>1</groupindex>
                </link>
              </clipitem>
            </track>
            <track>
              <clipitem id="clipitem-924" frameBlend="FALSE">
                <masterclipid>masterclip-304</masterclipid>
                <name>00527.MTS</name>
                <file id="file-304"/>
                <sourcetrack>
                  <mediatype>audio</mediatype>
                  <trackindex>2</trackindex>
                </sourcetrack>
                <link>
                  <linkclipref>clipitem-922</linkclipref>
                  <mediatype>video</mediatype>
                  <trackindex>1</trackindex>
                  <clipindex>1</clipindex>
                </link>
                <link>
                  <linkclipref>clipitem-923</linkclipref>
                  <mediatype>audio</mediatype>
                  <trackindex>1</trackindex>
                  <clipindex>1</clipindex>
                  <groupindex>1</groupindex>
                </link>
                <link>
                  <linkclipref>clipitem-924</linkclipref>
                  <mediatype>audio</mediatype>
                  <trackindex>2</trackindex>
                  <clipindex>1</clipindex>
                  <groupindex>1</groupindex>
                </link>
              </clipitem>
            </track>
          </audio>
        </media>
        <logginginfo>
          <description/>
          <scene/>
          <shottake/>
          <lognote/>
        </logginginfo>
      </clip>
      <clip id="masterclip-305" frameBlend="FALSE">
        <uuid>c94b3439-4a8e-4411-8ee4-48f628302cb8</uuid>
        <masterclipid>masterclip-305</masterclipid>
        <ismasterclip>TRUE</ismasterclip>
        <duration>397</duration>
        <rate>
          <timebase>24</timebase>
          <ntsc>TRUE</ntsc>
        </rate>
        <name>00528.MTS</name>
        <media>
          <video>
            <track>
              <clipitem id="clipitem-925" frameBlend="FALSE">
                <masterclipid>masterclip-305</masterclipid>
                <name>00528.MTS</name>
                <alphatype>black</alphatype>
                <pixelaspectratio>square</pixelaspectratio>
                <anamorphic>FALSE</anamorphic>
                <file id="file-305">
                  <name>00528.MTS</name>
                  <pathurl>file://localhost/Volumes/Macintosh%20HD/Users/jacksongs/Desktop/STREAM/00528.MTS</pathurl>
                  <rate>
                    <timebase>24</timebase>
                    <ntsc>TRUE</ntsc>
                  </rate>
                  <duration>397</duration>
                  <timecode>
                    <rate>
                      <timebase>24</timebase>
                      <ntsc>TRUE</ntsc>
                    </rate>
                    <string>00:00:00:00</string>
                    <frame>0</frame>
                    <displayformat>NDF</displayformat>
                    <reel>
                      <name/>
                    </reel>
                  </timecode>
                  <media>
                    <video>
                      <duration>18000</duration>
                      <samplecharacteristics>
                        <rate>
                          <timebase>24</timebase>
                          <ntsc>TRUE</ntsc>
                        </rate>
                        <width>1920</width>
                        <height>1080</height>
                        <anamorphic>FALSE</anamorphic>
                        <pixelaspectratio>square</pixelaspectratio>
                        <fielddominance>none</fielddominance>
                      </samplecharacteristics>
                    </video>
                    <audio>
                      <samplecharacteristics>
                        <depth>16</depth>
                        <samplerate>48000</samplerate>
                      </samplecharacteristics>
                      <channelcount>2</channelcount>
                    </audio>
                  </media>
                </file>
                <link>
                  <linkclipref>clipitem-925</linkclipref>
                  <mediatype>video</mediatype>
                  <trackindex>1</trackindex>
                  <clipindex>1</clipindex>
                </link>
                <link>
                  <linkclipref>clipitem-926</linkclipref>
                  <mediatype>audio</mediatype>
                  <trackindex>1</trackindex>
                  <clipindex>1</clipindex>
                  <groupindex>1</groupindex>
                </link>
                <link>
                  <linkclipref>clipitem-927</linkclipref>
                  <mediatype>audio</mediatype>
                  <trackindex>2</trackindex>
                  <clipindex>1</clipindex>
                  <groupindex>1</groupindex>
                </link>
              </clipitem>
            </track>
          </video>
          <audio>
            <track>
              <clipitem id="clipitem-926" frameBlend="FALSE">
                <masterclipid>masterclip-305</masterclipid>
                <name>00528.MTS</name>
                <file id="file-305"/>
                <sourcetrack>
                  <mediatype>audio</mediatype>
                  <trackindex>1</trackindex>
                </sourcetrack>
                <link>
                  <linkclipref>clipitem-925</linkclipref>
                  <mediatype>video</mediatype>
                  <trackindex>1</trackindex>
                  <clipindex>1</clipindex>
                </link>
                <link>
                  <linkclipref>clipitem-926</linkclipref>
                  <mediatype>audio</mediatype>
                  <trackindex>1</trackindex>
                  <clipindex>1</clipindex>
                  <groupindex>1</groupindex>
                </link>
                <link>
                  <linkclipref>clipitem-927</linkclipref>
                  <mediatype>audio</mediatype>
                  <trackindex>2</trackindex>
                  <clipindex>1</clipindex>
                  <groupindex>1</groupindex>
                </link>
              </clipitem>
            </track>
            <track>
              <clipitem id="clipitem-927" frameBlend="FALSE">
                <masterclipid>masterclip-305</masterclipid>
                <name>00528.MTS</name>
                <file id="file-305"/>
                <sourcetrack>
                  <mediatype>audio</mediatype>
                  <trackindex>2</trackindex>
                </sourcetrack>
                <link>
                  <linkclipref>clipitem-925</linkclipref>
                  <mediatype>video</mediatype>
                  <trackindex>1</trackindex>
                  <clipindex>1</clipindex>
                </link>
                <link>
                  <linkclipref>clipitem-926</linkclipref>
                  <mediatype>audio</mediatype>
                  <trackindex>1</trackindex>
                  <clipindex>1</clipindex>
                  <groupindex>1</groupindex>
                </link>
                <link>
                  <linkclipref>clipitem-927</linkclipref>
                  <mediatype>audio</mediatype>
                  <trackindex>2</trackindex>
                  <clipindex>1</clipindex>
                  <groupindex>1</groupindex>
                </link>
              </clipitem>
            </track>
          </audio>
        </media>
        <logginginfo>
          <description/>
          <scene/>
          <shottake/>
          <lognote/>
        </logginginfo>
      </clip>
      <clip id="masterclip-306" frameBlend="FALSE">
        <uuid>feb6b927-e301-4170-b121-742b115148fa</uuid>
        <masterclipid>masterclip-306</masterclipid>
        <ismasterclip>TRUE</ismasterclip>
        <duration>613</duration>
        <rate>
          <timebase>24</timebase>
          <ntsc>TRUE</ntsc>
        </rate>
        <name>00529.MTS</name>
        <media>
          <video>
            <track>
              <clipitem id="clipitem-928" frameBlend="FALSE">
                <masterclipid>masterclip-306</masterclipid>
                <name>00529.MTS</name>
                <alphatype>black</alphatype>
                <pixelaspectratio>square</pixelaspectratio>
                <anamorphic>FALSE</anamorphic>
                <file id="file-306">
                  <name>00529.MTS</name>
                  <pathurl>file://localhost/Volumes/Macintosh%20HD/Users/jacksongs/Desktop/STREAM/00529.MTS</pathurl>
                  <rate>
                    <timebase>24</timebase>
                    <ntsc>TRUE</ntsc>
                  </rate>
                  <duration>613</duration>
                  <timecode>
                    <rate>
                      <timebase>24</timebase>
                      <ntsc>TRUE</ntsc>
                    </rate>
                    <string>00:00:00:00</string>
                    <frame>0</frame>
                    <displayformat>NDF</displayformat>
                    <reel>
                      <name/>
                    </reel>
                  </timecode>
                  <media>
                    <video>
                      <duration>18000</duration>
                      <samplecharacteristics>
                        <rate>
                          <timebase>24</timebase>
                          <ntsc>TRUE</ntsc>
                        </rate>
                        <width>1920</width>
                        <height>1080</height>
                        <anamorphic>FALSE</anamorphic>
                        <pixelaspectratio>square</pixelaspectratio>
                        <fielddominance>none</fielddominance>
                      </samplecharacteristics>
                    </video>
                    <audio>
                      <samplecharacteristics>
                        <depth>16</depth>
                        <samplerate>48000</samplerate>
                      </samplecharacteristics>
                      <channelcount>2</channelcount>
                    </audio>
                  </media>
                </file>
                <link>
                  <linkclipref>clipitem-928</linkclipref>
                  <mediatype>video</mediatype>
                  <trackindex>1</trackindex>
                  <clipindex>1</clipindex>
                </link>
                <link>
                  <linkclipref>clipitem-929</linkclipref>
                  <mediatype>audio</mediatype>
                  <trackindex>1</trackindex>
                  <clipindex>1</clipindex>
                  <groupindex>1</groupindex>
                </link>
                <link>
                  <linkclipref>clipitem-930</linkclipref>
                  <mediatype>audio</mediatype>
                  <trackindex>2</trackindex>
                  <clipindex>1</clipindex>
                  <groupindex>1</groupindex>
                </link>
              </clipitem>
            </track>
          </video>
          <audio>
            <track>
              <clipitem id="clipitem-929" frameBlend="FALSE">
                <masterclipid>masterclip-306</masterclipid>
                <name>00529.MTS</name>
                <file id="file-306"/>
                <sourcetrack>
                  <mediatype>audio</mediatype>
                  <trackindex>1</trackindex>
                </sourcetrack>
                <link>
                  <linkclipref>clipitem-928</linkclipref>
                  <mediatype>video</mediatype>
                  <trackindex>1</trackindex>
                  <clipindex>1</clipindex>
                </link>
                <link>
                  <linkclipref>clipitem-929</linkclipref>
                  <mediatype>audio</mediatype>
                  <trackindex>1</trackindex>
                  <clipindex>1</clipindex>
                  <groupindex>1</groupindex>
                </link>
                <link>
                  <linkclipref>clipitem-930</linkclipref>
                  <mediatype>audio</mediatype>
                  <trackindex>2</trackindex>
                  <clipindex>1</clipindex>
                  <groupindex>1</groupindex>
                </link>
              </clipitem>
            </track>
            <track>
              <clipitem id="clipitem-930" frameBlend="FALSE">
                <masterclipid>masterclip-306</masterclipid>
                <name>00529.MTS</name>
                <file id="file-306"/>
                <sourcetrack>
                  <mediatype>audio</mediatype>
                  <trackindex>2</trackindex>
                </sourcetrack>
                <link>
                  <linkclipref>clipitem-928</linkclipref>
                  <mediatype>video</mediatype>
                  <trackindex>1</trackindex>
                  <clipindex>1</clipindex>
                </link>
                <link>
                  <linkclipref>clipitem-929</linkclipref>
                  <mediatype>audio</mediatype>
                  <trackindex>1</trackindex>
                  <clipindex>1</clipindex>
                  <groupindex>1</groupindex>
                </link>
                <link>
                  <linkclipref>clipitem-930</linkclipref>
                  <mediatype>audio</mediatype>
                  <trackindex>2</trackindex>
                  <clipindex>1</clipindex>
                  <groupindex>1</groupindex>
                </link>
              </clipitem>
            </track>
          </audio>
        </media>
        <logginginfo>
          <description/>
          <scene/>
          <shottake/>
          <lognote/>
        </logginginfo>
      </clip>
      <clip id="masterclip-307" frameBlend="FALSE">
        <uuid>8e7b239f-dbab-494b-9d29-97f77fe0b7c7</uuid>
        <masterclipid>masterclip-307</masterclipid>
        <ismasterclip>TRUE</ismasterclip>
        <duration>469</duration>
        <rate>
          <timebase>24</timebase>
          <ntsc>TRUE</ntsc>
        </rate>
        <name>00530.MTS</name>
        <media>
          <video>
            <track>
              <clipitem id="clipitem-931" frameBlend="FALSE">
                <masterclipid>masterclip-307</masterclipid>
                <name>00530.MTS</name>
                <alphatype>black</alphatype>
                <pixelaspectratio>square</pixelaspectratio>
                <anamorphic>FALSE</anamorphic>
                <file id="file-307">
                  <name>00530.MTS</name>
                  <pathurl>file://localhost/Volumes/Macintosh%20HD/Users/jacksongs/Desktop/STREAM/00530.MTS</pathurl>
                  <rate>
                    <timebase>24</timebase>
                    <ntsc>TRUE</ntsc>
                  </rate>
                  <duration>469</duration>
                  <timecode>
                    <rate>
                      <timebase>24</timebase>
                      <ntsc>TRUE</ntsc>
                    </rate>
                    <string>00:00:00:00</string>
                    <frame>0</frame>
                    <displayformat>NDF</displayformat>
                    <reel>
                      <name/>
                    </reel>
                  </timecode>
                  <media>
                    <video>
                      <duration>18000</duration>
                      <samplecharacteristics>
                        <rate>
                          <timebase>24</timebase>
                          <ntsc>TRUE</ntsc>
                        </rate>
                        <width>1920</width>
                        <height>1080</height>
                        <anamorphic>FALSE</anamorphic>
                        <pixelaspectratio>square</pixelaspectratio>
                        <fielddominance>none</fielddominance>
                      </samplecharacteristics>
                    </video>
                    <audio>
                      <samplecharacteristics>
                        <depth>16</depth>
                        <samplerate>48000</samplerate>
                      </samplecharacteristics>
                      <channelcount>2</channelcount>
                    </audio>
                  </media>
                </file>
                <link>
                  <linkclipref>clipitem-931</linkclipref>
                  <mediatype>video</mediatype>
                  <trackindex>1</trackindex>
                  <clipindex>1</clipindex>
                </link>
                <link>
                  <linkclipref>clipitem-932</linkclipref>
                  <mediatype>audio</mediatype>
                  <trackindex>1</trackindex>
                  <clipindex>1</clipindex>
                  <groupindex>1</groupindex>
                </link>
                <link>
                  <linkclipref>clipitem-933</linkclipref>
                  <mediatype>audio</mediatype>
                  <trackindex>2</trackindex>
                  <clipindex>1</clipindex>
                  <groupindex>1</groupindex>
                </link>
              </clipitem>
            </track>
          </video>
          <audio>
            <track>
              <clipitem id="clipitem-932" frameBlend="FALSE">
                <masterclipid>masterclip-307</masterclipid>
                <name>00530.MTS</name>
                <file id="file-307"/>
                <sourcetrack>
                  <mediatype>audio</mediatype>
                  <trackindex>1</trackindex>
                </sourcetrack>
                <link>
                  <linkclipref>clipitem-931</linkclipref>
                  <mediatype>video</mediatype>
                  <trackindex>1</trackindex>
                  <clipindex>1</clipindex>
                </link>
                <link>
                  <linkclipref>clipitem-932</linkclipref>
                  <mediatype>audio</mediatype>
                  <trackindex>1</trackindex>
                  <clipindex>1</clipindex>
                  <groupindex>1</groupindex>
                </link>
                <link>
                  <linkclipref>clipitem-933</linkclipref>
                  <mediatype>audio</mediatype>
                  <trackindex>2</trackindex>
                  <clipindex>1</clipindex>
                  <groupindex>1</groupindex>
                </link>
              </clipitem>
            </track>
            <track>
              <clipitem id="clipitem-933" frameBlend="FALSE">
                <masterclipid>masterclip-307</masterclipid>
                <name>00530.MTS</name>
                <file id="file-307"/>
                <sourcetrack>
                  <mediatype>audio</mediatype>
                  <trackindex>2</trackindex>
                </sourcetrack>
                <link>
                  <linkclipref>clipitem-931</linkclipref>
                  <mediatype>video</mediatype>
                  <trackindex>1</trackindex>
                  <clipindex>1</clipindex>
                </link>
                <link>
                  <linkclipref>clipitem-932</linkclipref>
                  <mediatype>audio</mediatype>
                  <trackindex>1</trackindex>
                  <clipindex>1</clipindex>
                  <groupindex>1</groupindex>
                </link>
                <link>
                  <linkclipref>clipitem-933</linkclipref>
                  <mediatype>audio</mediatype>
                  <trackindex>2</trackindex>
                  <clipindex>1</clipindex>
                  <groupindex>1</groupindex>
                </link>
              </clipitem>
            </track>
          </audio>
        </media>
        <logginginfo>
          <description/>
          <scene/>
          <shottake/>
          <lognote/>
        </logginginfo>
      </clip>
      <clip id="masterclip-308" frameBlend="FALSE">
        <uuid>8dd8171a-b435-4e6c-ac42-b55a622c5036</uuid>
        <masterclipid>masterclip-308</masterclipid>
        <ismasterclip>TRUE</ismasterclip>
        <duration>265</duration>
        <rate>
          <timebase>24</timebase>
          <ntsc>TRUE</ntsc>
        </rate>
        <name>00531.MTS</name>
        <media>
          <video>
            <track>
              <clipitem id="clipitem-934" frameBlend="FALSE">
                <masterclipid>masterclip-308</masterclipid>
                <name>00531.MTS</name>
                <alphatype>black</alphatype>
                <pixelaspectratio>square</pixelaspectratio>
                <anamorphic>FALSE</anamorphic>
                <file id="file-308">
                  <name>00531.MTS</name>
                  <pathurl>file://localhost/Volumes/Macintosh%20HD/Users/jacksongs/Desktop/STREAM/00531.MTS</pathurl>
                  <rate>
                    <timebase>24</timebase>
                    <ntsc>TRUE</ntsc>
                  </rate>
                  <duration>265</duration>
                  <timecode>
                    <rate>
                      <timebase>24</timebase>
                      <ntsc>TRUE</ntsc>
                    </rate>
                    <string>00:00:00:00</string>
                    <frame>0</frame>
                    <displayformat>NDF</displayformat>
                    <reel>
                      <name/>
                    </reel>
                  </timecode>
                  <media>
                    <video>
                      <duration>18000</duration>
                      <samplecharacteristics>
                        <rate>
                          <timebase>24</timebase>
                          <ntsc>TRUE</ntsc>
                        </rate>
                        <width>1920</width>
                        <height>1080</height>
                        <anamorphic>FALSE</anamorphic>
                        <pixelaspectratio>square</pixelaspectratio>
                        <fielddominance>none</fielddominance>
                      </samplecharacteristics>
                    </video>
                    <audio>
                      <samplecharacteristics>
                        <depth>16</depth>
                        <samplerate>48000</samplerate>
                      </samplecharacteristics>
                      <channelcount>2</channelcount>
                    </audio>
                  </media>
                </file>
                <link>
                  <linkclipref>clipitem-934</linkclipref>
                  <mediatype>video</mediatype>
                  <trackindex>1</trackindex>
                  <clipindex>1</clipindex>
                </link>
                <link>
                  <linkclipref>clipitem-935</linkclipref>
                  <mediatype>audio</mediatype>
                  <trackindex>1</trackindex>
                  <clipindex>1</clipindex>
                  <groupindex>1</groupindex>
                </link>
                <link>
                  <linkclipref>clipitem-936</linkclipref>
                  <mediatype>audio</mediatype>
                  <trackindex>2</trackindex>
                  <clipindex>1</clipindex>
                  <groupindex>1</groupindex>
                </link>
              </clipitem>
            </track>
          </video>
          <audio>
            <track>
              <clipitem id="clipitem-935" frameBlend="FALSE">
                <masterclipid>masterclip-308</masterclipid>
                <name>00531.MTS</name>
                <file id="file-308"/>
                <sourcetrack>
                  <mediatype>audio</mediatype>
                  <trackindex>1</trackindex>
                </sourcetrack>
                <link>
                  <linkclipref>clipitem-934</linkclipref>
                  <mediatype>video</mediatype>
                  <trackindex>1</trackindex>
                  <clipindex>1</clipindex>
                </link>
                <link>
                  <linkclipref>clipitem-935</linkclipref>
                  <mediatype>audio</mediatype>
                  <trackindex>1</trackindex>
                  <clipindex>1</clipindex>
                  <groupindex>1</groupindex>
                </link>
                <link>
                  <linkclipref>clipitem-936</linkclipref>
                  <mediatype>audio</mediatype>
                  <trackindex>2</trackindex>
                  <clipindex>1</clipindex>
                  <groupindex>1</groupindex>
                </link>
              </clipitem>
            </track>
            <track>
              <clipitem id="clipitem-936" frameBlend="FALSE">
                <masterclipid>masterclip-308</masterclipid>
                <name>00531.MTS</name>
                <file id="file-308"/>
                <sourcetrack>
                  <mediatype>audio</mediatype>
                  <trackindex>2</trackindex>
                </sourcetrack>
                <link>
                  <linkclipref>clipitem-934</linkclipref>
                  <mediatype>video</mediatype>
                  <trackindex>1</trackindex>
                  <clipindex>1</clipindex>
                </link>
                <link>
                  <linkclipref>clipitem-935</linkclipref>
                  <mediatype>audio</mediatype>
                  <trackindex>1</trackindex>
                  <clipindex>1</clipindex>
                  <groupindex>1</groupindex>
                </link>
                <link>
                  <linkclipref>clipitem-936</linkclipref>
                  <mediatype>audio</mediatype>
                  <trackindex>2</trackindex>
                  <clipindex>1</clipindex>
                  <groupindex>1</groupindex>
                </link>
              </clipitem>
            </track>
          </audio>
        </media>
        <logginginfo>
          <description/>
          <scene/>
          <shottake/>
          <lognote/>
        </logginginfo>
      </clip>
      <clip id="masterclip-309" frameBlend="FALSE">
        <uuid>0aa9106c-fa0b-4064-8d16-f48239b14a35</uuid>
        <masterclipid>masterclip-309</masterclipid>
        <ismasterclip>TRUE</ismasterclip>
        <duration>397</duration>
        <rate>
          <timebase>24</timebase>
          <ntsc>TRUE</ntsc>
        </rate>
        <name>00532.MTS</name>
        <media>
          <video>
            <track>
              <clipitem id="clipitem-937" frameBlend="FALSE">
                <masterclipid>masterclip-309</masterclipid>
                <name>00532.MTS</name>
                <alphatype>black</alphatype>
                <pixelaspectratio>square</pixelaspectratio>
                <anamorphic>FALSE</anamorphic>
                <file id="file-309">
                  <name>00532.MTS</name>
                  <pathurl>file://localhost/Volumes/Macintosh%20HD/Users/jacksongs/Desktop/STREAM/00532.MTS</pathurl>
                  <rate>
                    <timebase>24</timebase>
                    <ntsc>TRUE</ntsc>
                  </rate>
                  <duration>397</duration>
                  <timecode>
                    <rate>
                      <timebase>24</timebase>
                      <ntsc>TRUE</ntsc>
                    </rate>
                    <string>00:00:00:00</string>
                    <frame>0</frame>
                    <displayformat>NDF</displayformat>
                    <reel>
                      <name/>
                    </reel>
                  </timecode>
                  <media>
                    <video>
                      <duration>18000</duration>
                      <samplecharacteristics>
                        <rate>
                          <timebase>24</timebase>
                          <ntsc>TRUE</ntsc>
                        </rate>
                        <width>1920</width>
                        <height>1080</height>
                        <anamorphic>FALSE</anamorphic>
                        <pixelaspectratio>square</pixelaspectratio>
                        <fielddominance>none</fielddominance>
                      </samplecharacteristics>
                    </video>
                    <audio>
                      <samplecharacteristics>
                        <depth>16</depth>
                        <samplerate>48000</samplerate>
                      </samplecharacteristics>
                      <channelcount>2</channelcount>
                    </audio>
                  </media>
                </file>
                <link>
                  <linkclipref>clipitem-937</linkclipref>
                  <mediatype>video</mediatype>
                  <trackindex>1</trackindex>
                  <clipindex>1</clipindex>
                </link>
                <link>
                  <linkclipref>clipitem-938</linkclipref>
                  <mediatype>audio</mediatype>
                  <trackindex>1</trackindex>
                  <clipindex>1</clipindex>
                  <groupindex>1</groupindex>
                </link>
                <link>
                  <linkclipref>clipitem-939</linkclipref>
                  <mediatype>audio</mediatype>
                  <trackindex>2</trackindex>
                  <clipindex>1</clipindex>
                  <groupindex>1</groupindex>
                </link>
              </clipitem>
            </track>
          </video>
          <audio>
            <track>
              <clipitem id="clipitem-938" frameBlend="FALSE">
                <masterclipid>masterclip-309</masterclipid>
                <name>00532.MTS</name>
                <file id="file-309"/>
                <sourcetrack>
                  <mediatype>audio</mediatype>
                  <trackindex>1</trackindex>
                </sourcetrack>
                <link>
                  <linkclipref>clipitem-937</linkclipref>
                  <mediatype>video</mediatype>
                  <trackindex>1</trackindex>
                  <clipindex>1</clipindex>
                </link>
                <link>
                  <linkclipref>clipitem-938</linkclipref>
                  <mediatype>audio</mediatype>
                  <trackindex>1</trackindex>
                  <clipindex>1</clipindex>
                  <groupindex>1</groupindex>
                </link>
                <link>
                  <linkclipref>clipitem-939</linkclipref>
                  <mediatype>audio</mediatype>
                  <trackindex>2</trackindex>
                  <clipindex>1</clipindex>
                  <groupindex>1</groupindex>
                </link>
              </clipitem>
            </track>
            <track>
              <clipitem id="clipitem-939" frameBlend="FALSE">
                <masterclipid>masterclip-309</masterclipid>
                <name>00532.MTS</name>
                <file id="file-309"/>
                <sourcetrack>
                  <mediatype>audio</mediatype>
                  <trackindex>2</trackindex>
                </sourcetrack>
                <link>
                  <linkclipref>clipitem-937</linkclipref>
                  <mediatype>video</mediatype>
                  <trackindex>1</trackindex>
                  <clipindex>1</clipindex>
                </link>
                <link>
                  <linkclipref>clipitem-938</linkclipref>
                  <mediatype>audio</mediatype>
                  <trackindex>1</trackindex>
                  <clipindex>1</clipindex>
                  <groupindex>1</groupindex>
                </link>
                <link>
                  <linkclipref>clipitem-939</linkclipref>
                  <mediatype>audio</mediatype>
                  <trackindex>2</trackindex>
                  <clipindex>1</clipindex>
                  <groupindex>1</groupindex>
                </link>
              </clipitem>
            </track>
          </audio>
        </media>
        <logginginfo>
          <description/>
          <scene/>
          <shottake/>
          <lognote/>
        </logginginfo>
      </clip>
      <clip id="masterclip-310" frameBlend="FALSE">
        <uuid>4b8a20cc-1453-4a79-bc2f-f2b3f8185577</uuid>
        <masterclipid>masterclip-310</masterclipid>
        <ismasterclip>TRUE</ismasterclip>
        <duration>409</duration>
        <rate>
          <timebase>24</timebase>
          <ntsc>TRUE</ntsc>
        </rate>
        <name>00533.MTS</name>
        <media>
          <video>
            <track>
              <clipitem id="clipitem-940" frameBlend="FALSE">
                <masterclipid>masterclip-310</masterclipid>
                <name>00533.MTS</name>
                <alphatype>black</alphatype>
                <pixelaspectratio>square</pixelaspectratio>
                <anamorphic>FALSE</anamorphic>
                <file id="file-310">
                  <name>00533.MTS</name>
                  <pathurl>file://localhost/Volumes/Macintosh%20HD/Users/jacksongs/Desktop/STREAM/00533.MTS</pathurl>
                  <rate>
                    <timebase>24</timebase>
                    <ntsc>TRUE</ntsc>
                  </rate>
                  <duration>409</duration>
                  <timecode>
                    <rate>
                      <timebase>24</timebase>
                      <ntsc>TRUE</ntsc>
                    </rate>
                    <string>00:00:00:00</string>
                    <frame>0</frame>
                    <displayformat>NDF</displayformat>
                    <reel>
                      <name/>
                    </reel>
                  </timecode>
                  <media>
                    <video>
                      <duration>18000</duration>
                      <samplecharacteristics>
                        <rate>
                          <timebase>24</timebase>
                          <ntsc>TRUE</ntsc>
                        </rate>
                        <width>1920</width>
                        <height>1080</height>
                        <anamorphic>FALSE</anamorphic>
                        <pixelaspectratio>square</pixelaspectratio>
                        <fielddominance>none</fielddominance>
                      </samplecharacteristics>
                    </video>
                    <audio>
                      <samplecharacteristics>
                        <depth>16</depth>
                        <samplerate>48000</samplerate>
                      </samplecharacteristics>
                      <channelcount>2</channelcount>
                    </audio>
                  </media>
                </file>
                <link>
                  <linkclipref>clipitem-940</linkclipref>
                  <mediatype>video</mediatype>
                  <trackindex>1</trackindex>
                  <clipindex>1</clipindex>
                </link>
                <link>
                  <linkclipref>clipitem-941</linkclipref>
                  <mediatype>audio</mediatype>
                  <trackindex>1</trackindex>
                  <clipindex>1</clipindex>
                  <groupindex>1</groupindex>
                </link>
                <link>
                  <linkclipref>clipitem-942</linkclipref>
                  <mediatype>audio</mediatype>
                  <trackindex>2</trackindex>
                  <clipindex>1</clipindex>
                  <groupindex>1</groupindex>
                </link>
              </clipitem>
            </track>
          </video>
          <audio>
            <track>
              <clipitem id="clipitem-941" frameBlend="FALSE">
                <masterclipid>masterclip-310</masterclipid>
                <name>00533.MTS</name>
                <file id="file-310"/>
                <sourcetrack>
                  <mediatype>audio</mediatype>
                  <trackindex>1</trackindex>
                </sourcetrack>
                <link>
                  <linkclipref>clipitem-940</linkclipref>
                  <mediatype>video</mediatype>
                  <trackindex>1</trackindex>
                  <clipindex>1</clipindex>
                </link>
                <link>
                  <linkclipref>clipitem-941</linkclipref>
                  <mediatype>audio</mediatype>
                  <trackindex>1</trackindex>
                  <clipindex>1</clipindex>
                  <groupindex>1</groupindex>
                </link>
                <link>
                  <linkclipref>clipitem-942</linkclipref>
                  <mediatype>audio</mediatype>
                  <trackindex>2</trackindex>
                  <clipindex>1</clipindex>
                  <groupindex>1</groupindex>
                </link>
              </clipitem>
            </track>
            <track>
              <clipitem id="clipitem-942" frameBlend="FALSE">
                <masterclipid>masterclip-310</masterclipid>
                <name>00533.MTS</name>
                <file id="file-310"/>
                <sourcetrack>
                  <mediatype>audio</mediatype>
                  <trackindex>2</trackindex>
                </sourcetrack>
                <link>
                  <linkclipref>clipitem-940</linkclipref>
                  <mediatype>video</mediatype>
                  <trackindex>1</trackindex>
                  <clipindex>1</clipindex>
                </link>
                <link>
                  <linkclipref>clipitem-941</linkclipref>
                  <mediatype>audio</mediatype>
                  <trackindex>1</trackindex>
                  <clipindex>1</clipindex>
                  <groupindex>1</groupindex>
                </link>
                <link>
                  <linkclipref>clipitem-942</linkclipref>
                  <mediatype>audio</mediatype>
                  <trackindex>2</trackindex>
                  <clipindex>1</clipindex>
                  <groupindex>1</groupindex>
                </link>
              </clipitem>
            </track>
          </audio>
        </media>
        <logginginfo>
          <description/>
          <scene/>
          <shottake/>
          <lognote/>
        </logginginfo>
      </clip>
      <clip id="masterclip-311" frameBlend="FALSE">
        <uuid>e6998541-a865-4eed-aa1e-0fb080cb881a</uuid>
        <masterclipid>masterclip-311</masterclipid>
        <ismasterclip>TRUE</ismasterclip>
        <duration>313</duration>
        <rate>
          <timebase>24</timebase>
          <ntsc>TRUE</ntsc>
        </rate>
        <name>00534.MTS</name>
        <media>
          <video>
            <track>
              <clipitem id="clipitem-943" frameBlend="FALSE">
                <masterclipid>masterclip-311</masterclipid>
                <name>00534.MTS</name>
                <alphatype>black</alphatype>
                <pixelaspectratio>square</pixelaspectratio>
                <anamorphic>FALSE</anamorphic>
                <file id="file-311">
                  <name>00534.MTS</name>
                  <pathurl>file://localhost/Volumes/Macintosh%20HD/Users/jacksongs/Desktop/STREAM/00534.MTS</pathurl>
                  <rate>
                    <timebase>24</timebase>
                    <ntsc>TRUE</ntsc>
                  </rate>
                  <duration>313</duration>
                  <timecode>
                    <rate>
                      <timebase>24</timebase>
                      <ntsc>TRUE</ntsc>
                    </rate>
                    <string>00:00:00:00</string>
                    <frame>0</frame>
                    <displayformat>NDF</displayformat>
                    <reel>
                      <name/>
                    </reel>
                  </timecode>
                  <media>
                    <video>
                      <duration>18000</duration>
                      <samplecharacteristics>
                        <rate>
                          <timebase>24</timebase>
                          <ntsc>TRUE</ntsc>
                        </rate>
                        <width>1920</width>
                        <height>1080</height>
                        <anamorphic>FALSE</anamorphic>
                        <pixelaspectratio>square</pixelaspectratio>
                        <fielddominance>none</fielddominance>
                      </samplecharacteristics>
                    </video>
                    <audio>
                      <samplecharacteristics>
                        <depth>16</depth>
                        <samplerate>48000</samplerate>
                      </samplecharacteristics>
                      <channelcount>2</channelcount>
                    </audio>
                  </media>
                </file>
                <link>
                  <linkclipref>clipitem-943</linkclipref>
                  <mediatype>video</mediatype>
                  <trackindex>1</trackindex>
                  <clipindex>1</clipindex>
                </link>
                <link>
                  <linkclipref>clipitem-944</linkclipref>
                  <mediatype>audio</mediatype>
                  <trackindex>1</trackindex>
                  <clipindex>1</clipindex>
                  <groupindex>1</groupindex>
                </link>
                <link>
                  <linkclipref>clipitem-945</linkclipref>
                  <mediatype>audio</mediatype>
                  <trackindex>2</trackindex>
                  <clipindex>1</clipindex>
                  <groupindex>1</groupindex>
                </link>
              </clipitem>
            </track>
          </video>
          <audio>
            <track>
              <clipitem id="clipitem-944" frameBlend="FALSE">
                <masterclipid>masterclip-311</masterclipid>
                <name>00534.MTS</name>
                <file id="file-311"/>
                <sourcetrack>
                  <mediatype>audio</mediatype>
                  <trackindex>1</trackindex>
                </sourcetrack>
                <link>
                  <linkclipref>clipitem-943</linkclipref>
                  <mediatype>video</mediatype>
                  <trackindex>1</trackindex>
                  <clipindex>1</clipindex>
                </link>
                <link>
                  <linkclipref>clipitem-944</linkclipref>
                  <mediatype>audio</mediatype>
                  <trackindex>1</trackindex>
                  <clipindex>1</clipindex>
                  <groupindex>1</groupindex>
                </link>
                <link>
                  <linkclipref>clipitem-945</linkclipref>
                  <mediatype>audio</mediatype>
                  <trackindex>2</trackindex>
                  <clipindex>1</clipindex>
                  <groupindex>1</groupindex>
                </link>
              </clipitem>
            </track>
            <track>
              <clipitem id="clipitem-945" frameBlend="FALSE">
                <masterclipid>masterclip-311</masterclipid>
                <name>00534.MTS</name>
                <file id="file-311"/>
                <sourcetrack>
                  <mediatype>audio</mediatype>
                  <trackindex>2</trackindex>
                </sourcetrack>
                <link>
                  <linkclipref>clipitem-943</linkclipref>
                  <mediatype>video</mediatype>
                  <trackindex>1</trackindex>
                  <clipindex>1</clipindex>
                </link>
                <link>
                  <linkclipref>clipitem-944</linkclipref>
                  <mediatype>audio</mediatype>
                  <trackindex>1</trackindex>
                  <clipindex>1</clipindex>
                  <groupindex>1</groupindex>
                </link>
                <link>
                  <linkclipref>clipitem-945</linkclipref>
                  <mediatype>audio</mediatype>
                  <trackindex>2</trackindex>
                  <clipindex>1</clipindex>
                  <groupindex>1</groupindex>
                </link>
              </clipitem>
            </track>
          </audio>
        </media>
        <logginginfo>
          <description/>
          <scene/>
          <shottake/>
          <lognote/>
        </logginginfo>
      </clip>
      <clip id="masterclip-312" frameBlend="FALSE">
        <uuid>27024676-34c0-4d29-b004-9cea480347c8</uuid>
        <masterclipid>masterclip-312</masterclipid>
        <ismasterclip>TRUE</ismasterclip>
        <duration>229</duration>
        <rate>
          <timebase>24</timebase>
          <ntsc>TRUE</ntsc>
        </rate>
        <name>00535.MTS</name>
        <media>
          <video>
            <track>
              <clipitem id="clipitem-946" frameBlend="FALSE">
                <masterclipid>masterclip-312</masterclipid>
                <name>00535.MTS</name>
                <alphatype>black</alphatype>
                <pixelaspectratio>square</pixelaspectratio>
                <anamorphic>FALSE</anamorphic>
                <file id="file-312">
                  <name>00535.MTS</name>
                  <pathurl>file://localhost/Volumes/Macintosh%20HD/Users/jacksongs/Desktop/STREAM/00535.MTS</pathurl>
                  <rate>
                    <timebase>24</timebase>
                    <ntsc>TRUE</ntsc>
                  </rate>
                  <duration>229</duration>
                  <timecode>
                    <rate>
                      <timebase>24</timebase>
                      <ntsc>TRUE</ntsc>
                    </rate>
                    <string>00:00:00:00</string>
                    <frame>0</frame>
                    <displayformat>NDF</displayformat>
                    <reel>
                      <name/>
                    </reel>
                  </timecode>
                  <media>
                    <video>
                      <duration>18000</duration>
                      <samplecharacteristics>
                        <rate>
                          <timebase>24</timebase>
                          <ntsc>TRUE</ntsc>
                        </rate>
                        <width>1920</width>
                        <height>1080</height>
                        <anamorphic>FALSE</anamorphic>
                        <pixelaspectratio>square</pixelaspectratio>
                        <fielddominance>none</fielddominance>
                      </samplecharacteristics>
                    </video>
                    <audio>
                      <samplecharacteristics>
                        <depth>16</depth>
                        <samplerate>48000</samplerate>
                      </samplecharacteristics>
                      <channelcount>2</channelcount>
                    </audio>
                  </media>
                </file>
                <link>
                  <linkclipref>clipitem-946</linkclipref>
                  <mediatype>video</mediatype>
                  <trackindex>1</trackindex>
                  <clipindex>1</clipindex>
                </link>
                <link>
                  <linkclipref>clipitem-947</linkclipref>
                  <mediatype>audio</mediatype>
                  <trackindex>1</trackindex>
                  <clipindex>1</clipindex>
                  <groupindex>1</groupindex>
                </link>
                <link>
                  <linkclipref>clipitem-948</linkclipref>
                  <mediatype>audio</mediatype>
                  <trackindex>2</trackindex>
                  <clipindex>1</clipindex>
                  <groupindex>1</groupindex>
                </link>
              </clipitem>
            </track>
          </video>
          <audio>
            <track>
              <clipitem id="clipitem-947" frameBlend="FALSE">
                <masterclipid>masterclip-312</masterclipid>
                <name>00535.MTS</name>
                <file id="file-312"/>
                <sourcetrack>
                  <mediatype>audio</mediatype>
                  <trackindex>1</trackindex>
                </sourcetrack>
                <link>
                  <linkclipref>clipitem-946</linkclipref>
                  <mediatype>video</mediatype>
                  <trackindex>1</trackindex>
                  <clipindex>1</clipindex>
                </link>
                <link>
                  <linkclipref>clipitem-947</linkclipref>
                  <mediatype>audio</mediatype>
                  <trackindex>1</trackindex>
                  <clipindex>1</clipindex>
                  <groupindex>1</groupindex>
                </link>
                <link>
                  <linkclipref>clipitem-948</linkclipref>
                  <mediatype>audio</mediatype>
                  <trackindex>2</trackindex>
                  <clipindex>1</clipindex>
                  <groupindex>1</groupindex>
                </link>
              </clipitem>
            </track>
            <track>
              <clipitem id="clipitem-948" frameBlend="FALSE">
                <masterclipid>masterclip-312</masterclipid>
                <name>00535.MTS</name>
                <file id="file-312"/>
                <sourcetrack>
                  <mediatype>audio</mediatype>
                  <trackindex>2</trackindex>
                </sourcetrack>
                <link>
                  <linkclipref>clipitem-946</linkclipref>
                  <mediatype>video</mediatype>
                  <trackindex>1</trackindex>
                  <clipindex>1</clipindex>
                </link>
                <link>
                  <linkclipref>clipitem-947</linkclipref>
                  <mediatype>audio</mediatype>
                  <trackindex>1</trackindex>
                  <clipindex>1</clipindex>
                  <groupindex>1</groupindex>
                </link>
                <link>
                  <linkclipref>clipitem-948</linkclipref>
                  <mediatype>audio</mediatype>
                  <trackindex>2</trackindex>
                  <clipindex>1</clipindex>
                  <groupindex>1</groupindex>
                </link>
              </clipitem>
            </track>
          </audio>
        </media>
        <logginginfo>
          <description/>
          <scene/>
          <shottake/>
          <lognote/>
        </logginginfo>
      </clip>
      <clip id="masterclip-313" frameBlend="FALSE">
        <uuid>48247343-2b44-4ffa-8c22-bbd708f30fea</uuid>
        <masterclipid>masterclip-313</masterclipid>
        <ismasterclip>TRUE</ismasterclip>
        <duration>193</duration>
        <rate>
          <timebase>24</timebase>
          <ntsc>TRUE</ntsc>
        </rate>
        <name>00536.MTS</name>
        <media>
          <video>
            <track>
              <clipitem id="clipitem-949" frameBlend="FALSE">
                <masterclipid>masterclip-313</masterclipid>
                <name>00536.MTS</name>
                <alphatype>black</alphatype>
                <pixelaspectratio>square</pixelaspectratio>
                <anamorphic>FALSE</anamorphic>
                <file id="file-313">
                  <name>00536.MTS</name>
                  <pathurl>file://localhost/Volumes/Macintosh%20HD/Users/jacksongs/Desktop/STREAM/00536.MTS</pathurl>
                  <rate>
                    <timebase>24</timebase>
                    <ntsc>TRUE</ntsc>
                  </rate>
                  <duration>193</duration>
                  <timecode>
                    <rate>
                      <timebase>24</timebase>
                      <ntsc>TRUE</ntsc>
                    </rate>
                    <string>00:00:00:00</string>
                    <frame>0</frame>
                    <displayformat>NDF</displayformat>
                    <reel>
                      <name/>
                    </reel>
                  </timecode>
                  <media>
                    <video>
                      <duration>18000</duration>
                      <samplecharacteristics>
                        <rate>
                          <timebase>24</timebase>
                          <ntsc>TRUE</ntsc>
                        </rate>
                        <width>1920</width>
                        <height>1080</height>
                        <anamorphic>FALSE</anamorphic>
                        <pixelaspectratio>square</pixelaspectratio>
                        <fielddominance>none</fielddominance>
                      </samplecharacteristics>
                    </video>
                    <audio>
                      <samplecharacteristics>
                        <depth>16</depth>
                        <samplerate>48000</samplerate>
                      </samplecharacteristics>
                      <channelcount>2</channelcount>
                    </audio>
                  </media>
                </file>
                <link>
                  <linkclipref>clipitem-949</linkclipref>
                  <mediatype>video</mediatype>
                  <trackindex>1</trackindex>
                  <clipindex>1</clipindex>
                </link>
                <link>
                  <linkclipref>clipitem-950</linkclipref>
                  <mediatype>audio</mediatype>
                  <trackindex>1</trackindex>
                  <clipindex>1</clipindex>
                  <groupindex>1</groupindex>
                </link>
                <link>
                  <linkclipref>clipitem-951</linkclipref>
                  <mediatype>audio</mediatype>
                  <trackindex>2</trackindex>
                  <clipindex>1</clipindex>
                  <groupindex>1</groupindex>
                </link>
              </clipitem>
            </track>
          </video>
          <audio>
            <track>
              <clipitem id="clipitem-950" frameBlend="FALSE">
                <masterclipid>masterclip-313</masterclipid>
                <name>00536.MTS</name>
                <file id="file-313"/>
                <sourcetrack>
                  <mediatype>audio</mediatype>
                  <trackindex>1</trackindex>
                </sourcetrack>
                <link>
                  <linkclipref>clipitem-949</linkclipref>
                  <mediatype>video</mediatype>
                  <trackindex>1</trackindex>
                  <clipindex>1</clipindex>
                </link>
                <link>
                  <linkclipref>clipitem-950</linkclipref>
                  <mediatype>audio</mediatype>
                  <trackindex>1</trackindex>
                  <clipindex>1</clipindex>
                  <groupindex>1</groupindex>
                </link>
                <link>
                  <linkclipref>clipitem-951</linkclipref>
                  <mediatype>audio</mediatype>
                  <trackindex>2</trackindex>
                  <clipindex>1</clipindex>
                  <groupindex>1</groupindex>
                </link>
              </clipitem>
            </track>
            <track>
              <clipitem id="clipitem-951" frameBlend="FALSE">
                <masterclipid>masterclip-313</masterclipid>
                <name>00536.MTS</name>
                <file id="file-313"/>
                <sourcetrack>
                  <mediatype>audio</mediatype>
                  <trackindex>2</trackindex>
                </sourcetrack>
                <link>
                  <linkclipref>clipitem-949</linkclipref>
                  <mediatype>video</mediatype>
                  <trackindex>1</trackindex>
                  <clipindex>1</clipindex>
                </link>
                <link>
                  <linkclipref>clipitem-950</linkclipref>
                  <mediatype>audio</mediatype>
                  <trackindex>1</trackindex>
                  <clipindex>1</clipindex>
                  <groupindex>1</groupindex>
                </link>
                <link>
                  <linkclipref>clipitem-951</linkclipref>
                  <mediatype>audio</mediatype>
                  <trackindex>2</trackindex>
                  <clipindex>1</clipindex>
                  <groupindex>1</groupindex>
                </link>
              </clipitem>
            </track>
          </audio>
        </media>
        <logginginfo>
          <description/>
          <scene/>
          <shottake/>
          <lognote/>
        </logginginfo>
      </clip>
      <clip id="masterclip-314" frameBlend="FALSE">
        <uuid>dede1615-c6b3-4e8c-8205-8cd2e8754b23</uuid>
        <masterclipid>masterclip-314</masterclipid>
        <ismasterclip>TRUE</ismasterclip>
        <duration>301</duration>
        <rate>
          <timebase>24</timebase>
          <ntsc>TRUE</ntsc>
        </rate>
        <name>00537.MTS</name>
        <media>
          <video>
            <track>
              <clipitem id="clipitem-952" frameBlend="FALSE">
                <masterclipid>masterclip-314</masterclipid>
                <name>00537.MTS</name>
                <alphatype>black</alphatype>
                <pixelaspectratio>square</pixelaspectratio>
                <anamorphic>FALSE</anamorphic>
                <file id="file-314">
                  <name>00537.MTS</name>
                  <pathurl>file://localhost/Volumes/Macintosh%20HD/Users/jacksongs/Desktop/STREAM/00537.MTS</pathurl>
                  <rate>
                    <timebase>24</timebase>
                    <ntsc>TRUE</ntsc>
                  </rate>
                  <duration>301</duration>
                  <timecode>
                    <rate>
                      <timebase>24</timebase>
                      <ntsc>TRUE</ntsc>
                    </rate>
                    <string>00:00:00:00</string>
                    <frame>0</frame>
                    <displayformat>NDF</displayformat>
                    <reel>
                      <name/>
                    </reel>
                  </timecode>
                  <media>
                    <video>
                      <duration>18000</duration>
                      <samplecharacteristics>
                        <rate>
                          <timebase>24</timebase>
                          <ntsc>TRUE</ntsc>
                        </rate>
                        <width>1920</width>
                        <height>1080</height>
                        <anamorphic>FALSE</anamorphic>
                        <pixelaspectratio>square</pixelaspectratio>
                        <fielddominance>none</fielddominance>
                      </samplecharacteristics>
                    </video>
                    <audio>
                      <samplecharacteristics>
                        <depth>16</depth>
                        <samplerate>48000</samplerate>
                      </samplecharacteristics>
                      <channelcount>2</channelcount>
                    </audio>
                  </media>
                </file>
                <link>
                  <linkclipref>clipitem-952</linkclipref>
                  <mediatype>video</mediatype>
                  <trackindex>1</trackindex>
                  <clipindex>1</clipindex>
                </link>
                <link>
                  <linkclipref>clipitem-953</linkclipref>
                  <mediatype>audio</mediatype>
                  <trackindex>1</trackindex>
                  <clipindex>1</clipindex>
                  <groupindex>1</groupindex>
                </link>
                <link>
                  <linkclipref>clipitem-954</linkclipref>
                  <mediatype>audio</mediatype>
                  <trackindex>2</trackindex>
                  <clipindex>1</clipindex>
                  <groupindex>1</groupindex>
                </link>
              </clipitem>
            </track>
          </video>
          <audio>
            <track>
              <clipitem id="clipitem-953" frameBlend="FALSE">
                <masterclipid>masterclip-314</masterclipid>
                <name>00537.MTS</name>
                <file id="file-314"/>
                <sourcetrack>
                  <mediatype>audio</mediatype>
                  <trackindex>1</trackindex>
                </sourcetrack>
                <link>
                  <linkclipref>clipitem-952</linkclipref>
                  <mediatype>video</mediatype>
                  <trackindex>1</trackindex>
                  <clipindex>1</clipindex>
                </link>
                <link>
                  <linkclipref>clipitem-953</linkclipref>
                  <mediatype>audio</mediatype>
                  <trackindex>1</trackindex>
                  <clipindex>1</clipindex>
                  <groupindex>1</groupindex>
                </link>
                <link>
                  <linkclipref>clipitem-954</linkclipref>
                  <mediatype>audio</mediatype>
                  <trackindex>2</trackindex>
                  <clipindex>1</clipindex>
                  <groupindex>1</groupindex>
                </link>
              </clipitem>
            </track>
            <track>
              <clipitem id="clipitem-954" frameBlend="FALSE">
                <masterclipid>masterclip-314</masterclipid>
                <name>00537.MTS</name>
                <file id="file-314"/>
                <sourcetrack>
                  <mediatype>audio</mediatype>
                  <trackindex>2</trackindex>
                </sourcetrack>
                <link>
                  <linkclipref>clipitem-952</linkclipref>
                  <mediatype>video</mediatype>
                  <trackindex>1</trackindex>
                  <clipindex>1</clipindex>
                </link>
                <link>
                  <linkclipref>clipitem-953</linkclipref>
                  <mediatype>audio</mediatype>
                  <trackindex>1</trackindex>
                  <clipindex>1</clipindex>
                  <groupindex>1</groupindex>
                </link>
                <link>
                  <linkclipref>clipitem-954</linkclipref>
                  <mediatype>audio</mediatype>
                  <trackindex>2</trackindex>
                  <clipindex>1</clipindex>
                  <groupindex>1</groupindex>
                </link>
              </clipitem>
            </track>
          </audio>
        </media>
        <logginginfo>
          <description/>
          <scene/>
          <shottake/>
          <lognote/>
        </logginginfo>
      </clip>
      <clip id="masterclip-315" frameBlend="FALSE">
        <uuid>8aca0f7b-22d7-45ab-ac84-27cc18df0f8b</uuid>
        <masterclipid>masterclip-315</masterclipid>
        <ismasterclip>TRUE</ismasterclip>
        <duration>409</duration>
        <rate>
          <timebase>24</timebase>
          <ntsc>TRUE</ntsc>
        </rate>
        <name>00538.MTS</name>
        <media>
          <video>
            <track>
              <clipitem id="clipitem-955" frameBlend="FALSE">
                <masterclipid>masterclip-315</masterclipid>
                <name>00538.MTS</name>
                <alphatype>black</alphatype>
                <pixelaspectratio>square</pixelaspectratio>
                <anamorphic>FALSE</anamorphic>
                <file id="file-315">
                  <name>00538.MTS</name>
                  <pathurl>file://localhost/Volumes/Macintosh%20HD/Users/jacksongs/Desktop/STREAM/00538.MTS</pathurl>
                  <rate>
                    <timebase>24</timebase>
                    <ntsc>TRUE</ntsc>
                  </rate>
                  <duration>409</duration>
                  <timecode>
                    <rate>
                      <timebase>24</timebase>
                      <ntsc>TRUE</ntsc>
                    </rate>
                    <string>00:00:00:00</string>
                    <frame>0</frame>
                    <displayformat>NDF</displayformat>
                    <reel>
                      <name/>
                    </reel>
                  </timecode>
                  <media>
                    <video>
                      <duration>18000</duration>
                      <samplecharacteristics>
                        <rate>
                          <timebase>24</timebase>
                          <ntsc>TRUE</ntsc>
                        </rate>
                        <width>1920</width>
                        <height>1080</height>
                        <anamorphic>FALSE</anamorphic>
                        <pixelaspectratio>square</pixelaspectratio>
                        <fielddominance>none</fielddominance>
                      </samplecharacteristics>
                    </video>
                    <audio>
                      <samplecharacteristics>
                        <depth>16</depth>
                        <samplerate>48000</samplerate>
                      </samplecharacteristics>
                      <channelcount>2</channelcount>
                    </audio>
                  </media>
                </file>
                <link>
                  <linkclipref>clipitem-955</linkclipref>
                  <mediatype>video</mediatype>
                  <trackindex>1</trackindex>
                  <clipindex>1</clipindex>
                </link>
                <link>
                  <linkclipref>clipitem-956</linkclipref>
                  <mediatype>audio</mediatype>
                  <trackindex>1</trackindex>
                  <clipindex>1</clipindex>
                  <groupindex>1</groupindex>
                </link>
                <link>
                  <linkclipref>clipitem-957</linkclipref>
                  <mediatype>audio</mediatype>
                  <trackindex>2</trackindex>
                  <clipindex>1</clipindex>
                  <groupindex>1</groupindex>
                </link>
              </clipitem>
            </track>
          </video>
          <audio>
            <track>
              <clipitem id="clipitem-956" frameBlend="FALSE">
                <masterclipid>masterclip-315</masterclipid>
                <name>00538.MTS</name>
                <file id="file-315"/>
                <sourcetrack>
                  <mediatype>audio</mediatype>
                  <trackindex>1</trackindex>
                </sourcetrack>
                <link>
                  <linkclipref>clipitem-955</linkclipref>
                  <mediatype>video</mediatype>
                  <trackindex>1</trackindex>
                  <clipindex>1</clipindex>
                </link>
                <link>
                  <linkclipref>clipitem-956</linkclipref>
                  <mediatype>audio</mediatype>
                  <trackindex>1</trackindex>
                  <clipindex>1</clipindex>
                  <groupindex>1</groupindex>
                </link>
                <link>
                  <linkclipref>clipitem-957</linkclipref>
                  <mediatype>audio</mediatype>
                  <trackindex>2</trackindex>
                  <clipindex>1</clipindex>
                  <groupindex>1</groupindex>
                </link>
              </clipitem>
            </track>
            <track>
              <clipitem id="clipitem-957" frameBlend="FALSE">
                <masterclipid>masterclip-315</masterclipid>
                <name>00538.MTS</name>
                <file id="file-315"/>
                <sourcetrack>
                  <mediatype>audio</mediatype>
                  <trackindex>2</trackindex>
                </sourcetrack>
                <link>
                  <linkclipref>clipitem-955</linkclipref>
                  <mediatype>video</mediatype>
                  <trackindex>1</trackindex>
                  <clipindex>1</clipindex>
                </link>
                <link>
                  <linkclipref>clipitem-956</linkclipref>
                  <mediatype>audio</mediatype>
                  <trackindex>1</trackindex>
                  <clipindex>1</clipindex>
                  <groupindex>1</groupindex>
                </link>
                <link>
                  <linkclipref>clipitem-957</linkclipref>
                  <mediatype>audio</mediatype>
                  <trackindex>2</trackindex>
                  <clipindex>1</clipindex>
                  <groupindex>1</groupindex>
                </link>
              </clipitem>
            </track>
          </audio>
        </media>
        <logginginfo>
          <description/>
          <scene/>
          <shottake/>
          <lognote/>
        </logginginfo>
      </clip>
      <clip id="masterclip-316" frameBlend="FALSE">
        <uuid>ab9dc6e8-e24c-44cf-9dd9-d943374c8d02</uuid>
        <masterclipid>masterclip-316</masterclipid>
        <ismasterclip>TRUE</ismasterclip>
        <duration>313</duration>
        <rate>
          <timebase>24</timebase>
          <ntsc>TRUE</ntsc>
        </rate>
        <name>00539.MTS</name>
        <media>
          <video>
            <track>
              <clipitem id="clipitem-958" frameBlend="FALSE">
                <masterclipid>masterclip-316</masterclipid>
                <name>00539.MTS</name>
                <alphatype>black</alphatype>
                <pixelaspectratio>square</pixelaspectratio>
                <anamorphic>FALSE</anamorphic>
                <file id="file-316">
                  <name>00539.MTS</name>
                  <pathurl>file://localhost/Volumes/Macintosh%20HD/Users/jacksongs/Desktop/STREAM/00539.MTS</pathurl>
                  <rate>
                    <timebase>24</timebase>
                    <ntsc>TRUE</ntsc>
                  </rate>
                  <duration>313</duration>
                  <timecode>
                    <rate>
                      <timebase>24</timebase>
                      <ntsc>TRUE</ntsc>
                    </rate>
                    <string>00:00:00:00</string>
                    <frame>0</frame>
                    <displayformat>NDF</displayformat>
                    <reel>
                      <name/>
                    </reel>
                  </timecode>
                  <media>
                    <video>
                      <duration>18000</duration>
                      <samplecharacteristics>
                        <rate>
                          <timebase>24</timebase>
                          <ntsc>TRUE</ntsc>
                        </rate>
                        <width>1920</width>
                        <height>1080</height>
                        <anamorphic>FALSE</anamorphic>
                        <pixelaspectratio>square</pixelaspectratio>
                        <fielddominance>none</fielddominance>
                      </samplecharacteristics>
                    </video>
                    <audio>
                      <samplecharacteristics>
                        <depth>16</depth>
                        <samplerate>48000</samplerate>
                      </samplecharacteristics>
                      <channelcount>2</channelcount>
                    </audio>
                  </media>
                </file>
                <link>
                  <linkclipref>clipitem-958</linkclipref>
                  <mediatype>video</mediatype>
                  <trackindex>1</trackindex>
                  <clipindex>1</clipindex>
                </link>
                <link>
                  <linkclipref>clipitem-959</linkclipref>
                  <mediatype>audio</mediatype>
                  <trackindex>1</trackindex>
                  <clipindex>1</clipindex>
                  <groupindex>1</groupindex>
                </link>
                <link>
                  <linkclipref>clipitem-960</linkclipref>
                  <mediatype>audio</mediatype>
                  <trackindex>2</trackindex>
                  <clipindex>1</clipindex>
                  <groupindex>1</groupindex>
                </link>
              </clipitem>
            </track>
          </video>
          <audio>
            <track>
              <clipitem id="clipitem-959" frameBlend="FALSE">
                <masterclipid>masterclip-316</masterclipid>
                <name>00539.MTS</name>
                <file id="file-316"/>
                <sourcetrack>
                  <mediatype>audio</mediatype>
                  <trackindex>1</trackindex>
                </sourcetrack>
                <link>
                  <linkclipref>clipitem-958</linkclipref>
                  <mediatype>video</mediatype>
                  <trackindex>1</trackindex>
                  <clipindex>1</clipindex>
                </link>
                <link>
                  <linkclipref>clipitem-959</linkclipref>
                  <mediatype>audio</mediatype>
                  <trackindex>1</trackindex>
                  <clipindex>1</clipindex>
                  <groupindex>1</groupindex>
                </link>
                <link>
                  <linkclipref>clipitem-960</linkclipref>
                  <mediatype>audio</mediatype>
                  <trackindex>2</trackindex>
                  <clipindex>1</clipindex>
                  <groupindex>1</groupindex>
                </link>
              </clipitem>
            </track>
            <track>
              <clipitem id="clipitem-960" frameBlend="FALSE">
                <masterclipid>masterclip-316</masterclipid>
                <name>00539.MTS</name>
                <file id="file-316"/>
                <sourcetrack>
                  <mediatype>audio</mediatype>
                  <trackindex>2</trackindex>
                </sourcetrack>
                <link>
                  <linkclipref>clipitem-958</linkclipref>
                  <mediatype>video</mediatype>
                  <trackindex>1</trackindex>
                  <clipindex>1</clipindex>
                </link>
                <link>
                  <linkclipref>clipitem-959</linkclipref>
                  <mediatype>audio</mediatype>
                  <trackindex>1</trackindex>
                  <clipindex>1</clipindex>
                  <groupindex>1</groupindex>
                </link>
                <link>
                  <linkclipref>clipitem-960</linkclipref>
                  <mediatype>audio</mediatype>
                  <trackindex>2</trackindex>
                  <clipindex>1</clipindex>
                  <groupindex>1</groupindex>
                </link>
              </clipitem>
            </track>
          </audio>
        </media>
        <logginginfo>
          <description/>
          <scene/>
          <shottake/>
          <lognote/>
        </logginginfo>
      </clip>
      <clip id="masterclip-317" frameBlend="FALSE">
        <uuid>8e7e86f3-66cf-4256-b3c1-9aa79318a561</uuid>
        <masterclipid>masterclip-317</masterclipid>
        <ismasterclip>TRUE</ismasterclip>
        <duration>337</duration>
        <rate>
          <timebase>24</timebase>
          <ntsc>TRUE</ntsc>
        </rate>
        <name>00540.MTS</name>
        <media>
          <video>
            <track>
              <clipitem id="clipitem-961" frameBlend="FALSE">
                <masterclipid>masterclip-317</masterclipid>
                <name>00540.MTS</name>
                <alphatype>black</alphatype>
                <pixelaspectratio>square</pixelaspectratio>
                <anamorphic>FALSE</anamorphic>
                <file id="file-317">
                  <name>00540.MTS</name>
                  <pathurl>file://localhost/Volumes/Macintosh%20HD/Users/jacksongs/Desktop/STREAM/00540.MTS</pathurl>
                  <rate>
                    <timebase>24</timebase>
                    <ntsc>TRUE</ntsc>
                  </rate>
                  <duration>337</duration>
                  <timecode>
                    <rate>
                      <timebase>24</timebase>
                      <ntsc>TRUE</ntsc>
                    </rate>
                    <string>00:00:00:00</string>
                    <frame>0</frame>
                    <displayformat>NDF</displayformat>
                    <reel>
                      <name/>
                    </reel>
                  </timecode>
                  <media>
                    <video>
                      <duration>18000</duration>
                      <samplecharacteristics>
                        <rate>
                          <timebase>24</timebase>
                          <ntsc>TRUE</ntsc>
                        </rate>
                        <width>1920</width>
                        <height>1080</height>
                        <anamorphic>FALSE</anamorphic>
                        <pixelaspectratio>square</pixelaspectratio>
                        <fielddominance>none</fielddominance>
                      </samplecharacteristics>
                    </video>
                    <audio>
                      <samplecharacteristics>
                        <depth>16</depth>
                        <samplerate>48000</samplerate>
                      </samplecharacteristics>
                      <channelcount>2</channelcount>
                    </audio>
                  </media>
                </file>
                <link>
                  <linkclipref>clipitem-961</linkclipref>
                  <mediatype>video</mediatype>
                  <trackindex>1</trackindex>
                  <clipindex>1</clipindex>
                </link>
                <link>
                  <linkclipref>clipitem-962</linkclipref>
                  <mediatype>audio</mediatype>
                  <trackindex>1</trackindex>
                  <clipindex>1</clipindex>
                  <groupindex>1</groupindex>
                </link>
                <link>
                  <linkclipref>clipitem-963</linkclipref>
                  <mediatype>audio</mediatype>
                  <trackindex>2</trackindex>
                  <clipindex>1</clipindex>
                  <groupindex>1</groupindex>
                </link>
              </clipitem>
            </track>
          </video>
          <audio>
            <track>
              <clipitem id="clipitem-962" frameBlend="FALSE">
                <masterclipid>masterclip-317</masterclipid>
                <name>00540.MTS</name>
                <file id="file-317"/>
                <sourcetrack>
                  <mediatype>audio</mediatype>
                  <trackindex>1</trackindex>
                </sourcetrack>
                <link>
                  <linkclipref>clipitem-961</linkclipref>
                  <mediatype>video</mediatype>
                  <trackindex>1</trackindex>
                  <clipindex>1</clipindex>
                </link>
                <link>
                  <linkclipref>clipitem-962</linkclipref>
                  <mediatype>audio</mediatype>
                  <trackindex>1</trackindex>
                  <clipindex>1</clipindex>
                  <groupindex>1</groupindex>
                </link>
                <link>
                  <linkclipref>clipitem-963</linkclipref>
                  <mediatype>audio</mediatype>
                  <trackindex>2</trackindex>
                  <clipindex>1</clipindex>
                  <groupindex>1</groupindex>
                </link>
              </clipitem>
            </track>
            <track>
              <clipitem id="clipitem-963" frameBlend="FALSE">
                <masterclipid>masterclip-317</masterclipid>
                <name>00540.MTS</name>
                <file id="file-317"/>
                <sourcetrack>
                  <mediatype>audio</mediatype>
                  <trackindex>2</trackindex>
                </sourcetrack>
                <link>
                  <linkclipref>clipitem-961</linkclipref>
                  <mediatype>video</mediatype>
                  <trackindex>1</trackindex>
                  <clipindex>1</clipindex>
                </link>
                <link>
                  <linkclipref>clipitem-962</linkclipref>
                  <mediatype>audio</mediatype>
                  <trackindex>1</trackindex>
                  <clipindex>1</clipindex>
                  <groupindex>1</groupindex>
                </link>
                <link>
                  <linkclipref>clipitem-963</linkclipref>
                  <mediatype>audio</mediatype>
                  <trackindex>2</trackindex>
                  <clipindex>1</clipindex>
                  <groupindex>1</groupindex>
                </link>
              </clipitem>
            </track>
          </audio>
        </media>
        <logginginfo>
          <description/>
          <scene/>
          <shottake/>
          <lognote/>
        </logginginfo>
      </clip>
      <clip id="masterclip-318" frameBlend="FALSE">
        <uuid>c6e92d48-4cfb-4f59-8d2f-dfb26ee55a66</uuid>
        <masterclipid>masterclip-318</masterclipid>
        <ismasterclip>TRUE</ismasterclip>
        <duration>301</duration>
        <rate>
          <timebase>24</timebase>
          <ntsc>TRUE</ntsc>
        </rate>
        <name>00541.MTS</name>
        <media>
          <video>
            <track>
              <clipitem id="clipitem-964" frameBlend="FALSE">
                <masterclipid>masterclip-318</masterclipid>
                <name>00541.MTS</name>
                <alphatype>black</alphatype>
                <pixelaspectratio>square</pixelaspectratio>
                <anamorphic>FALSE</anamorphic>
                <file id="file-318">
                  <name>00541.MTS</name>
                  <pathurl>file://localhost/Volumes/Macintosh%20HD/Users/jacksongs/Desktop/STREAM/00541.MTS</pathurl>
                  <rate>
                    <timebase>24</timebase>
                    <ntsc>TRUE</ntsc>
                  </rate>
                  <duration>301</duration>
                  <timecode>
                    <rate>
                      <timebase>24</timebase>
                      <ntsc>TRUE</ntsc>
                    </rate>
                    <string>00:00:00:00</string>
                    <frame>0</frame>
                    <displayformat>NDF</displayformat>
                    <reel>
                      <name/>
                    </reel>
                  </timecode>
                  <media>
                    <video>
                      <duration>18000</duration>
                      <samplecharacteristics>
                        <rate>
                          <timebase>24</timebase>
                          <ntsc>TRUE</ntsc>
                        </rate>
                        <width>1920</width>
                        <height>1080</height>
                        <anamorphic>FALSE</anamorphic>
                        <pixelaspectratio>square</pixelaspectratio>
                        <fielddominance>none</fielddominance>
                      </samplecharacteristics>
                    </video>
                    <audio>
                      <samplecharacteristics>
                        <depth>16</depth>
                        <samplerate>48000</samplerate>
                      </samplecharacteristics>
                      <channelcount>2</channelcount>
                    </audio>
                  </media>
                </file>
                <link>
                  <linkclipref>clipitem-964</linkclipref>
                  <mediatype>video</mediatype>
                  <trackindex>1</trackindex>
                  <clipindex>1</clipindex>
                </link>
                <link>
                  <linkclipref>clipitem-965</linkclipref>
                  <mediatype>audio</mediatype>
                  <trackindex>1</trackindex>
                  <clipindex>1</clipindex>
                  <groupindex>1</groupindex>
                </link>
                <link>
                  <linkclipref>clipitem-966</linkclipref>
                  <mediatype>audio</mediatype>
                  <trackindex>2</trackindex>
                  <clipindex>1</clipindex>
                  <groupindex>1</groupindex>
                </link>
              </clipitem>
            </track>
          </video>
          <audio>
            <track>
              <clipitem id="clipitem-965" frameBlend="FALSE">
                <masterclipid>masterclip-318</masterclipid>
                <name>00541.MTS</name>
                <file id="file-318"/>
                <sourcetrack>
                  <mediatype>audio</mediatype>
                  <trackindex>1</trackindex>
                </sourcetrack>
                <link>
                  <linkclipref>clipitem-964</linkclipref>
                  <mediatype>video</mediatype>
                  <trackindex>1</trackindex>
                  <clipindex>1</clipindex>
                </link>
                <link>
                  <linkclipref>clipitem-965</linkclipref>
                  <mediatype>audio</mediatype>
                  <trackindex>1</trackindex>
                  <clipindex>1</clipindex>
                  <groupindex>1</groupindex>
                </link>
                <link>
                  <linkclipref>clipitem-966</linkclipref>
                  <mediatype>audio</mediatype>
                  <trackindex>2</trackindex>
                  <clipindex>1</clipindex>
                  <groupindex>1</groupindex>
                </link>
              </clipitem>
            </track>
            <track>
              <clipitem id="clipitem-966" frameBlend="FALSE">
                <masterclipid>masterclip-318</masterclipid>
                <name>00541.MTS</name>
                <file id="file-318"/>
                <sourcetrack>
                  <mediatype>audio</mediatype>
                  <trackindex>2</trackindex>
                </sourcetrack>
                <link>
                  <linkclipref>clipitem-964</linkclipref>
                  <mediatype>video</mediatype>
                  <trackindex>1</trackindex>
                  <clipindex>1</clipindex>
                </link>
                <link>
                  <linkclipref>clipitem-965</linkclipref>
                  <mediatype>audio</mediatype>
                  <trackindex>1</trackindex>
                  <clipindex>1</clipindex>
                  <groupindex>1</groupindex>
                </link>
                <link>
                  <linkclipref>clipitem-966</linkclipref>
                  <mediatype>audio</mediatype>
                  <trackindex>2</trackindex>
                  <clipindex>1</clipindex>
                  <groupindex>1</groupindex>
                </link>
              </clipitem>
            </track>
          </audio>
        </media>
        <logginginfo>
          <description/>
          <scene/>
          <shottake/>
          <lognote/>
        </logginginfo>
      </clip>
      <clip id="masterclip-319" frameBlend="FALSE">
        <uuid>bcfc9608-9006-4e6e-8367-d307e56fc8f6</uuid>
        <masterclipid>masterclip-319</masterclipid>
        <ismasterclip>TRUE</ismasterclip>
        <duration>289</duration>
        <rate>
          <timebase>24</timebase>
          <ntsc>TRUE</ntsc>
        </rate>
        <name>00542.MTS</name>
        <media>
          <video>
            <track>
              <clipitem id="clipitem-967" frameBlend="FALSE">
                <masterclipid>masterclip-319</masterclipid>
                <name>00542.MTS</name>
                <alphatype>black</alphatype>
                <pixelaspectratio>square</pixelaspectratio>
                <anamorphic>FALSE</anamorphic>
                <file id="file-319">
                  <name>00542.MTS</name>
                  <pathurl>file://localhost/Volumes/Macintosh%20HD/Users/jacksongs/Desktop/STREAM/00542.MTS</pathurl>
                  <rate>
                    <timebase>24</timebase>
                    <ntsc>TRUE</ntsc>
                  </rate>
                  <duration>289</duration>
                  <timecode>
                    <rate>
                      <timebase>24</timebase>
                      <ntsc>TRUE</ntsc>
                    </rate>
                    <string>00:00:00:00</string>
                    <frame>0</frame>
                    <displayformat>NDF</displayformat>
                    <reel>
                      <name/>
                    </reel>
                  </timecode>
                  <media>
                    <video>
                      <duration>18000</duration>
                      <samplecharacteristics>
                        <rate>
                          <timebase>24</timebase>
                          <ntsc>TRUE</ntsc>
                        </rate>
                        <width>1920</width>
                        <height>1080</height>
                        <anamorphic>FALSE</anamorphic>
                        <pixelaspectratio>square</pixelaspectratio>
                        <fielddominance>none</fielddominance>
                      </samplecharacteristics>
                    </video>
                    <audio>
                      <samplecharacteristics>
                        <depth>16</depth>
                        <samplerate>48000</samplerate>
                      </samplecharacteristics>
                      <channelcount>2</channelcount>
                    </audio>
                  </media>
                </file>
                <link>
                  <linkclipref>clipitem-967</linkclipref>
                  <mediatype>video</mediatype>
                  <trackindex>1</trackindex>
                  <clipindex>1</clipindex>
                </link>
                <link>
                  <linkclipref>clipitem-968</linkclipref>
                  <mediatype>audio</mediatype>
                  <trackindex>1</trackindex>
                  <clipindex>1</clipindex>
                  <groupindex>1</groupindex>
                </link>
                <link>
                  <linkclipref>clipitem-969</linkclipref>
                  <mediatype>audio</mediatype>
                  <trackindex>2</trackindex>
                  <clipindex>1</clipindex>
                  <groupindex>1</groupindex>
                </link>
              </clipitem>
            </track>
          </video>
          <audio>
            <track>
              <clipitem id="clipitem-968" frameBlend="FALSE">
                <masterclipid>masterclip-319</masterclipid>
                <name>00542.MTS</name>
                <file id="file-319"/>
                <sourcetrack>
                  <mediatype>audio</mediatype>
                  <trackindex>1</trackindex>
                </sourcetrack>
                <link>
                  <linkclipref>clipitem-967</linkclipref>
                  <mediatype>video</mediatype>
                  <trackindex>1</trackindex>
                  <clipindex>1</clipindex>
                </link>
                <link>
                  <linkclipref>clipitem-968</linkclipref>
                  <mediatype>audio</mediatype>
                  <trackindex>1</trackindex>
                  <clipindex>1</clipindex>
                  <groupindex>1</groupindex>
                </link>
                <link>
                  <linkclipref>clipitem-969</linkclipref>
                  <mediatype>audio</mediatype>
                  <trackindex>2</trackindex>
                  <clipindex>1</clipindex>
                  <groupindex>1</groupindex>
                </link>
              </clipitem>
            </track>
            <track>
              <clipitem id="clipitem-969" frameBlend="FALSE">
                <masterclipid>masterclip-319</masterclipid>
                <name>00542.MTS</name>
                <file id="file-319"/>
                <sourcetrack>
                  <mediatype>audio</mediatype>
                  <trackindex>2</trackindex>
                </sourcetrack>
                <link>
                  <linkclipref>clipitem-967</linkclipref>
                  <mediatype>video</mediatype>
                  <trackindex>1</trackindex>
                  <clipindex>1</clipindex>
                </link>
                <link>
                  <linkclipref>clipitem-968</linkclipref>
                  <mediatype>audio</mediatype>
                  <trackindex>1</trackindex>
                  <clipindex>1</clipindex>
                  <groupindex>1</groupindex>
                </link>
                <link>
                  <linkclipref>clipitem-969</linkclipref>
                  <mediatype>audio</mediatype>
                  <trackindex>2</trackindex>
                  <clipindex>1</clipindex>
                  <groupindex>1</groupindex>
                </link>
              </clipitem>
            </track>
          </audio>
        </media>
        <logginginfo>
          <description/>
          <scene/>
          <shottake/>
          <lognote/>
        </logginginfo>
      </clip>
      <clip id="masterclip-320" frameBlend="FALSE">
        <uuid>9d00360c-5499-4c52-8da6-5ac5dd51fcd4</uuid>
        <masterclipid>masterclip-320</masterclipid>
        <ismasterclip>TRUE</ismasterclip>
        <duration>385</duration>
        <rate>
          <timebase>24</timebase>
          <ntsc>TRUE</ntsc>
        </rate>
        <name>00543.MTS</name>
        <media>
          <video>
            <track>
              <clipitem id="clipitem-970" frameBlend="FALSE">
                <masterclipid>masterclip-320</masterclipid>
                <name>00543.MTS</name>
                <alphatype>black</alphatype>
                <pixelaspectratio>square</pixelaspectratio>
                <anamorphic>FALSE</anamorphic>
                <file id="file-320">
                  <name>00543.MTS</name>
                  <pathurl>file://localhost/Volumes/Macintosh%20HD/Users/jacksongs/Desktop/STREAM/00543.MTS</pathurl>
                  <rate>
                    <timebase>24</timebase>
                    <ntsc>TRUE</ntsc>
                  </rate>
                  <duration>385</duration>
                  <timecode>
                    <rate>
                      <timebase>24</timebase>
                      <ntsc>TRUE</ntsc>
                    </rate>
                    <string>00:00:00:00</string>
                    <frame>0</frame>
                    <displayformat>NDF</displayformat>
                    <reel>
                      <name/>
                    </reel>
                  </timecode>
                  <media>
                    <video>
                      <duration>18000</duration>
                      <samplecharacteristics>
                        <rate>
                          <timebase>24</timebase>
                          <ntsc>TRUE</ntsc>
                        </rate>
                        <width>1920</width>
                        <height>1080</height>
                        <anamorphic>FALSE</anamorphic>
                        <pixelaspectratio>square</pixelaspectratio>
                        <fielddominance>none</fielddominance>
                      </samplecharacteristics>
                    </video>
                    <audio>
                      <samplecharacteristics>
                        <depth>16</depth>
                        <samplerate>48000</samplerate>
                      </samplecharacteristics>
                      <channelcount>2</channelcount>
                    </audio>
                  </media>
                </file>
                <link>
                  <linkclipref>clipitem-970</linkclipref>
                  <mediatype>video</mediatype>
                  <trackindex>1</trackindex>
                  <clipindex>1</clipindex>
                </link>
                <link>
                  <linkclipref>clipitem-971</linkclipref>
                  <mediatype>audio</mediatype>
                  <trackindex>1</trackindex>
                  <clipindex>1</clipindex>
                  <groupindex>1</groupindex>
                </link>
                <link>
                  <linkclipref>clipitem-972</linkclipref>
                  <mediatype>audio</mediatype>
                  <trackindex>2</trackindex>
                  <clipindex>1</clipindex>
                  <groupindex>1</groupindex>
                </link>
              </clipitem>
            </track>
          </video>
          <audio>
            <track>
              <clipitem id="clipitem-971" frameBlend="FALSE">
                <masterclipid>masterclip-320</masterclipid>
                <name>00543.MTS</name>
                <file id="file-320"/>
                <sourcetrack>
                  <mediatype>audio</mediatype>
                  <trackindex>1</trackindex>
                </sourcetrack>
                <link>
                  <linkclipref>clipitem-970</linkclipref>
                  <mediatype>video</mediatype>
                  <trackindex>1</trackindex>
                  <clipindex>1</clipindex>
                </link>
                <link>
                  <linkclipref>clipitem-971</linkclipref>
                  <mediatype>audio</mediatype>
                  <trackindex>1</trackindex>
                  <clipindex>1</clipindex>
                  <groupindex>1</groupindex>
                </link>
                <link>
                  <linkclipref>clipitem-972</linkclipref>
                  <mediatype>audio</mediatype>
                  <trackindex>2</trackindex>
                  <clipindex>1</clipindex>
                  <groupindex>1</groupindex>
                </link>
              </clipitem>
            </track>
            <track>
              <clipitem id="clipitem-972" frameBlend="FALSE">
                <masterclipid>masterclip-320</masterclipid>
                <name>00543.MTS</name>
                <file id="file-320"/>
                <sourcetrack>
                  <mediatype>audio</mediatype>
                  <trackindex>2</trackindex>
                </sourcetrack>
                <link>
                  <linkclipref>clipitem-970</linkclipref>
                  <mediatype>video</mediatype>
                  <trackindex>1</trackindex>
                  <clipindex>1</clipindex>
                </link>
                <link>
                  <linkclipref>clipitem-971</linkclipref>
                  <mediatype>audio</mediatype>
                  <trackindex>1</trackindex>
                  <clipindex>1</clipindex>
                  <groupindex>1</groupindex>
                </link>
                <link>
                  <linkclipref>clipitem-972</linkclipref>
                  <mediatype>audio</mediatype>
                  <trackindex>2</trackindex>
                  <clipindex>1</clipindex>
                  <groupindex>1</groupindex>
                </link>
              </clipitem>
            </track>
          </audio>
        </media>
        <logginginfo>
          <description/>
          <scene/>
          <shottake/>
          <lognote/>
        </logginginfo>
      </clip>
      <clip id="masterclip-321" frameBlend="FALSE">
        <uuid>ac5f8fd0-a325-4bb8-b471-26e470c309ad</uuid>
        <masterclipid>masterclip-321</masterclipid>
        <ismasterclip>TRUE</ismasterclip>
        <duration>721</duration>
        <rate>
          <timebase>24</timebase>
          <ntsc>TRUE</ntsc>
        </rate>
        <name>00544.MTS</name>
        <media>
          <video>
            <track>
              <clipitem id="clipitem-973" frameBlend="FALSE">
                <masterclipid>masterclip-321</masterclipid>
                <name>00544.MTS</name>
                <alphatype>black</alphatype>
                <pixelaspectratio>square</pixelaspectratio>
                <anamorphic>FALSE</anamorphic>
                <file id="file-321">
                  <name>00544.MTS</name>
                  <pathurl>file://localhost/Volumes/Macintosh%20HD/Users/jacksongs/Desktop/STREAM/00544.MTS</pathurl>
                  <rate>
                    <timebase>24</timebase>
                    <ntsc>TRUE</ntsc>
                  </rate>
                  <duration>721</duration>
                  <timecode>
                    <rate>
                      <timebase>24</timebase>
                      <ntsc>TRUE</ntsc>
                    </rate>
                    <string>00:00:00:00</string>
                    <frame>0</frame>
                    <displayformat>NDF</displayformat>
                    <reel>
                      <name/>
                    </reel>
                  </timecode>
                  <media>
                    <video>
                      <duration>18000</duration>
                      <samplecharacteristics>
                        <rate>
                          <timebase>24</timebase>
                          <ntsc>TRUE</ntsc>
                        </rate>
                        <width>1920</width>
                        <height>1080</height>
                        <anamorphic>FALSE</anamorphic>
                        <pixelaspectratio>square</pixelaspectratio>
                        <fielddominance>none</fielddominance>
                      </samplecharacteristics>
                    </video>
                    <audio>
                      <samplecharacteristics>
                        <depth>16</depth>
                        <samplerate>48000</samplerate>
                      </samplecharacteristics>
                      <channelcount>2</channelcount>
                    </audio>
                  </media>
                </file>
                <link>
                  <linkclipref>clipitem-973</linkclipref>
                  <mediatype>video</mediatype>
                  <trackindex>1</trackindex>
                  <clipindex>1</clipindex>
                </link>
                <link>
                  <linkclipref>clipitem-974</linkclipref>
                  <mediatype>audio</mediatype>
                  <trackindex>1</trackindex>
                  <clipindex>1</clipindex>
                  <groupindex>1</groupindex>
                </link>
                <link>
                  <linkclipref>clipitem-975</linkclipref>
                  <mediatype>audio</mediatype>
                  <trackindex>2</trackindex>
                  <clipindex>1</clipindex>
                  <groupindex>1</groupindex>
                </link>
              </clipitem>
            </track>
          </video>
          <audio>
            <track>
              <clipitem id="clipitem-974" frameBlend="FALSE">
                <masterclipid>masterclip-321</masterclipid>
                <name>00544.MTS</name>
                <file id="file-321"/>
                <sourcetrack>
                  <mediatype>audio</mediatype>
                  <trackindex>1</trackindex>
                </sourcetrack>
                <link>
                  <linkclipref>clipitem-973</linkclipref>
                  <mediatype>video</mediatype>
                  <trackindex>1</trackindex>
                  <clipindex>1</clipindex>
                </link>
                <link>
                  <linkclipref>clipitem-974</linkclipref>
                  <mediatype>audio</mediatype>
                  <trackindex>1</trackindex>
                  <clipindex>1</clipindex>
                  <groupindex>1</groupindex>
                </link>
                <link>
                  <linkclipref>clipitem-975</linkclipref>
                  <mediatype>audio</mediatype>
                  <trackindex>2</trackindex>
                  <clipindex>1</clipindex>
                  <groupindex>1</groupindex>
                </link>
              </clipitem>
            </track>
            <track>
              <clipitem id="clipitem-975" frameBlend="FALSE">
                <masterclipid>masterclip-321</masterclipid>
                <name>00544.MTS</name>
                <file id="file-321"/>
                <sourcetrack>
                  <mediatype>audio</mediatype>
                  <trackindex>2</trackindex>
                </sourcetrack>
                <link>
                  <linkclipref>clipitem-973</linkclipref>
                  <mediatype>video</mediatype>
                  <trackindex>1</trackindex>
                  <clipindex>1</clipindex>
                </link>
                <link>
                  <linkclipref>clipitem-974</linkclipref>
                  <mediatype>audio</mediatype>
                  <trackindex>1</trackindex>
                  <clipindex>1</clipindex>
                  <groupindex>1</groupindex>
                </link>
                <link>
                  <linkclipref>clipitem-975</linkclipref>
                  <mediatype>audio</mediatype>
                  <trackindex>2</trackindex>
                  <clipindex>1</clipindex>
                  <groupindex>1</groupindex>
                </link>
              </clipitem>
            </track>
          </audio>
        </media>
        <logginginfo>
          <description/>
          <scene/>
          <shottake/>
          <lognote/>
        </logginginfo>
      </clip>
      <clip id="masterclip-322" frameBlend="FALSE">
        <uuid>061c0cae-fe33-4c5d-b3b1-614d84437afb</uuid>
        <masterclipid>masterclip-322</masterclipid>
        <ismasterclip>TRUE</ismasterclip>
        <duration>193</duration>
        <rate>
          <timebase>24</timebase>
          <ntsc>TRUE</ntsc>
        </rate>
        <name>00545.MTS</name>
        <media>
          <video>
            <track>
              <clipitem id="clipitem-976" frameBlend="FALSE">
                <masterclipid>masterclip-322</masterclipid>
                <name>00545.MTS</name>
                <alphatype>black</alphatype>
                <pixelaspectratio>square</pixelaspectratio>
                <anamorphic>FALSE</anamorphic>
                <file id="file-322">
                  <name>00545.MTS</name>
                  <pathurl>file://localhost/Volumes/Macintosh%20HD/Users/jacksongs/Desktop/STREAM/00545.MTS</pathurl>
                  <rate>
                    <timebase>24</timebase>
                    <ntsc>TRUE</ntsc>
                  </rate>
                  <duration>193</duration>
                  <timecode>
                    <rate>
                      <timebase>24</timebase>
                      <ntsc>TRUE</ntsc>
                    </rate>
                    <string>00:00:00:00</string>
                    <frame>0</frame>
                    <displayformat>NDF</displayformat>
                    <reel>
                      <name/>
                    </reel>
                  </timecode>
                  <media>
                    <video>
                      <duration>18000</duration>
                      <samplecharacteristics>
                        <rate>
                          <timebase>24</timebase>
                          <ntsc>TRUE</ntsc>
                        </rate>
                        <width>1920</width>
                        <height>1080</height>
                        <anamorphic>FALSE</anamorphic>
                        <pixelaspectratio>square</pixelaspectratio>
                        <fielddominance>none</fielddominance>
                      </samplecharacteristics>
                    </video>
                    <audio>
                      <samplecharacteristics>
                        <depth>16</depth>
                        <samplerate>48000</samplerate>
                      </samplecharacteristics>
                      <channelcount>2</channelcount>
                    </audio>
                  </media>
                </file>
                <link>
                  <linkclipref>clipitem-976</linkclipref>
                  <mediatype>video</mediatype>
                  <trackindex>1</trackindex>
                  <clipindex>1</clipindex>
                </link>
                <link>
                  <linkclipref>clipitem-977</linkclipref>
                  <mediatype>audio</mediatype>
                  <trackindex>1</trackindex>
                  <clipindex>1</clipindex>
                  <groupindex>1</groupindex>
                </link>
                <link>
                  <linkclipref>clipitem-978</linkclipref>
                  <mediatype>audio</mediatype>
                  <trackindex>2</trackindex>
                  <clipindex>1</clipindex>
                  <groupindex>1</groupindex>
                </link>
              </clipitem>
            </track>
          </video>
          <audio>
            <track>
              <clipitem id="clipitem-977" frameBlend="FALSE">
                <masterclipid>masterclip-322</masterclipid>
                <name>00545.MTS</name>
                <file id="file-322"/>
                <sourcetrack>
                  <mediatype>audio</mediatype>
                  <trackindex>1</trackindex>
                </sourcetrack>
                <link>
                  <linkclipref>clipitem-976</linkclipref>
                  <mediatype>video</mediatype>
                  <trackindex>1</trackindex>
                  <clipindex>1</clipindex>
                </link>
                <link>
                  <linkclipref>clipitem-977</linkclipref>
                  <mediatype>audio</mediatype>
                  <trackindex>1</trackindex>
                  <clipindex>1</clipindex>
                  <groupindex>1</groupindex>
                </link>
                <link>
                  <linkclipref>clipitem-978</linkclipref>
                  <mediatype>audio</mediatype>
                  <trackindex>2</trackindex>
                  <clipindex>1</clipindex>
                  <groupindex>1</groupindex>
                </link>
              </clipitem>
            </track>
            <track>
              <clipitem id="clipitem-978" frameBlend="FALSE">
                <masterclipid>masterclip-322</masterclipid>
                <name>00545.MTS</name>
                <file id="file-322"/>
                <sourcetrack>
                  <mediatype>audio</mediatype>
                  <trackindex>2</trackindex>
                </sourcetrack>
                <link>
                  <linkclipref>clipitem-976</linkclipref>
                  <mediatype>video</mediatype>
                  <trackindex>1</trackindex>
                  <clipindex>1</clipindex>
                </link>
                <link>
                  <linkclipref>clipitem-977</linkclipref>
                  <mediatype>audio</mediatype>
                  <trackindex>1</trackindex>
                  <clipindex>1</clipindex>
                  <groupindex>1</groupindex>
                </link>
                <link>
                  <linkclipref>clipitem-978</linkclipref>
                  <mediatype>audio</mediatype>
                  <trackindex>2</trackindex>
                  <clipindex>1</clipindex>
                  <groupindex>1</groupindex>
                </link>
              </clipitem>
            </track>
          </audio>
        </media>
        <logginginfo>
          <description/>
          <scene/>
          <shottake/>
          <lognote/>
        </logginginfo>
      </clip>
      <clip id="masterclip-323" frameBlend="FALSE">
        <uuid>9606432a-80da-445c-aac8-9dd0c45d5354</uuid>
        <masterclipid>masterclip-323</masterclipid>
        <ismasterclip>TRUE</ismasterclip>
        <duration>253</duration>
        <rate>
          <timebase>24</timebase>
          <ntsc>TRUE</ntsc>
        </rate>
        <name>00546.MTS</name>
        <media>
          <video>
            <track>
              <clipitem id="clipitem-979" frameBlend="FALSE">
                <masterclipid>masterclip-323</masterclipid>
                <name>00546.MTS</name>
                <alphatype>black</alphatype>
                <pixelaspectratio>square</pixelaspectratio>
                <anamorphic>FALSE</anamorphic>
                <file id="file-323">
                  <name>00546.MTS</name>
                  <pathurl>file://localhost/Volumes/Macintosh%20HD/Users/jacksongs/Desktop/STREAM/00546.MTS</pathurl>
                  <rate>
                    <timebase>24</timebase>
                    <ntsc>TRUE</ntsc>
                  </rate>
                  <duration>253</duration>
                  <timecode>
                    <rate>
                      <timebase>24</timebase>
                      <ntsc>TRUE</ntsc>
                    </rate>
                    <string>00:00:00:00</string>
                    <frame>0</frame>
                    <displayformat>NDF</displayformat>
                    <reel>
                      <name/>
                    </reel>
                  </timecode>
                  <media>
                    <video>
                      <duration>18000</duration>
                      <samplecharacteristics>
                        <rate>
                          <timebase>24</timebase>
                          <ntsc>TRUE</ntsc>
                        </rate>
                        <width>1920</width>
                        <height>1080</height>
                        <anamorphic>FALSE</anamorphic>
                        <pixelaspectratio>square</pixelaspectratio>
                        <fielddominance>none</fielddominance>
                      </samplecharacteristics>
                    </video>
                    <audio>
                      <samplecharacteristics>
                        <depth>16</depth>
                        <samplerate>48000</samplerate>
                      </samplecharacteristics>
                      <channelcount>2</channelcount>
                    </audio>
                  </media>
                </file>
                <link>
                  <linkclipref>clipitem-979</linkclipref>
                  <mediatype>video</mediatype>
                  <trackindex>1</trackindex>
                  <clipindex>1</clipindex>
                </link>
                <link>
                  <linkclipref>clipitem-980</linkclipref>
                  <mediatype>audio</mediatype>
                  <trackindex>1</trackindex>
                  <clipindex>1</clipindex>
                  <groupindex>1</groupindex>
                </link>
                <link>
                  <linkclipref>clipitem-981</linkclipref>
                  <mediatype>audio</mediatype>
                  <trackindex>2</trackindex>
                  <clipindex>1</clipindex>
                  <groupindex>1</groupindex>
                </link>
              </clipitem>
            </track>
          </video>
          <audio>
            <track>
              <clipitem id="clipitem-980" frameBlend="FALSE">
                <masterclipid>masterclip-323</masterclipid>
                <name>00546.MTS</name>
                <file id="file-323"/>
                <sourcetrack>
                  <mediatype>audio</mediatype>
                  <trackindex>1</trackindex>
                </sourcetrack>
                <link>
                  <linkclipref>clipitem-979</linkclipref>
                  <mediatype>video</mediatype>
                  <trackindex>1</trackindex>
                  <clipindex>1</clipindex>
                </link>
                <link>
                  <linkclipref>clipitem-980</linkclipref>
                  <mediatype>audio</mediatype>
                  <trackindex>1</trackindex>
                  <clipindex>1</clipindex>
                  <groupindex>1</groupindex>
                </link>
                <link>
                  <linkclipref>clipitem-981</linkclipref>
                  <mediatype>audio</mediatype>
                  <trackindex>2</trackindex>
                  <clipindex>1</clipindex>
                  <groupindex>1</groupindex>
                </link>
              </clipitem>
            </track>
            <track>
              <clipitem id="clipitem-981" frameBlend="FALSE">
                <masterclipid>masterclip-323</masterclipid>
                <name>00546.MTS</name>
                <file id="file-323"/>
                <sourcetrack>
                  <mediatype>audio</mediatype>
                  <trackindex>2</trackindex>
                </sourcetrack>
                <link>
                  <linkclipref>clipitem-979</linkclipref>
                  <mediatype>video</mediatype>
                  <trackindex>1</trackindex>
                  <clipindex>1</clipindex>
                </link>
                <link>
                  <linkclipref>clipitem-980</linkclipref>
                  <mediatype>audio</mediatype>
                  <trackindex>1</trackindex>
                  <clipindex>1</clipindex>
                  <groupindex>1</groupindex>
                </link>
                <link>
                  <linkclipref>clipitem-981</linkclipref>
                  <mediatype>audio</mediatype>
                  <trackindex>2</trackindex>
                  <clipindex>1</clipindex>
                  <groupindex>1</groupindex>
                </link>
              </clipitem>
            </track>
          </audio>
        </media>
        <logginginfo>
          <description/>
          <scene/>
          <shottake/>
          <lognote/>
        </logginginfo>
      </clip>
      <clip id="masterclip-324" frameBlend="FALSE">
        <uuid>fccb17a1-b35a-425b-ae52-49b9e6df7bf2</uuid>
        <masterclipid>masterclip-324</masterclipid>
        <ismasterclip>TRUE</ismasterclip>
        <duration>529</duration>
        <rate>
          <timebase>24</timebase>
          <ntsc>TRUE</ntsc>
        </rate>
        <name>00547.MTS</name>
        <media>
          <video>
            <track>
              <clipitem id="clipitem-982" frameBlend="FALSE">
                <masterclipid>masterclip-324</masterclipid>
                <name>00547.MTS</name>
                <alphatype>black</alphatype>
                <pixelaspectratio>square</pixelaspectratio>
                <anamorphic>FALSE</anamorphic>
                <file id="file-324">
                  <name>00547.MTS</name>
                  <pathurl>file://localhost/Volumes/Macintosh%20HD/Users/jacksongs/Desktop/STREAM/00547.MTS</pathurl>
                  <rate>
                    <timebase>24</timebase>
                    <ntsc>TRUE</ntsc>
                  </rate>
                  <duration>529</duration>
                  <timecode>
                    <rate>
                      <timebase>24</timebase>
                      <ntsc>TRUE</ntsc>
                    </rate>
                    <string>00:00:00:00</string>
                    <frame>0</frame>
                    <displayformat>NDF</displayformat>
                    <reel>
                      <name/>
                    </reel>
                  </timecode>
                  <media>
                    <video>
                      <duration>18000</duration>
                      <samplecharacteristics>
                        <rate>
                          <timebase>24</timebase>
                          <ntsc>TRUE</ntsc>
                        </rate>
                        <width>1920</width>
                        <height>1080</height>
                        <anamorphic>FALSE</anamorphic>
                        <pixelaspectratio>square</pixelaspectratio>
                        <fielddominance>none</fielddominance>
                      </samplecharacteristics>
                    </video>
                    <audio>
                      <samplecharacteristics>
                        <depth>16</depth>
                        <samplerate>48000</samplerate>
                      </samplecharacteristics>
                      <channelcount>2</channelcount>
                    </audio>
                  </media>
                </file>
                <link>
                  <linkclipref>clipitem-982</linkclipref>
                  <mediatype>video</mediatype>
                  <trackindex>1</trackindex>
                  <clipindex>1</clipindex>
                </link>
                <link>
                  <linkclipref>clipitem-983</linkclipref>
                  <mediatype>audio</mediatype>
                  <trackindex>1</trackindex>
                  <clipindex>1</clipindex>
                  <groupindex>1</groupindex>
                </link>
                <link>
                  <linkclipref>clipitem-984</linkclipref>
                  <mediatype>audio</mediatype>
                  <trackindex>2</trackindex>
                  <clipindex>1</clipindex>
                  <groupindex>1</groupindex>
                </link>
              </clipitem>
            </track>
          </video>
          <audio>
            <track>
              <clipitem id="clipitem-983" frameBlend="FALSE">
                <masterclipid>masterclip-324</masterclipid>
                <name>00547.MTS</name>
                <file id="file-324"/>
                <sourcetrack>
                  <mediatype>audio</mediatype>
                  <trackindex>1</trackindex>
                </sourcetrack>
                <link>
                  <linkclipref>clipitem-982</linkclipref>
                  <mediatype>video</mediatype>
                  <trackindex>1</trackindex>
                  <clipindex>1</clipindex>
                </link>
                <link>
                  <linkclipref>clipitem-983</linkclipref>
                  <mediatype>audio</mediatype>
                  <trackindex>1</trackindex>
                  <clipindex>1</clipindex>
                  <groupindex>1</groupindex>
                </link>
                <link>
                  <linkclipref>clipitem-984</linkclipref>
                  <mediatype>audio</mediatype>
                  <trackindex>2</trackindex>
                  <clipindex>1</clipindex>
                  <groupindex>1</groupindex>
                </link>
              </clipitem>
            </track>
            <track>
              <clipitem id="clipitem-984" frameBlend="FALSE">
                <masterclipid>masterclip-324</masterclipid>
                <name>00547.MTS</name>
                <file id="file-324"/>
                <sourcetrack>
                  <mediatype>audio</mediatype>
                  <trackindex>2</trackindex>
                </sourcetrack>
                <link>
                  <linkclipref>clipitem-982</linkclipref>
                  <mediatype>video</mediatype>
                  <trackindex>1</trackindex>
                  <clipindex>1</clipindex>
                </link>
                <link>
                  <linkclipref>clipitem-983</linkclipref>
                  <mediatype>audio</mediatype>
                  <trackindex>1</trackindex>
                  <clipindex>1</clipindex>
                  <groupindex>1</groupindex>
                </link>
                <link>
                  <linkclipref>clipitem-984</linkclipref>
                  <mediatype>audio</mediatype>
                  <trackindex>2</trackindex>
                  <clipindex>1</clipindex>
                  <groupindex>1</groupindex>
                </link>
              </clipitem>
            </track>
          </audio>
        </media>
        <logginginfo>
          <description/>
          <scene/>
          <shottake/>
          <lognote/>
        </logginginfo>
      </clip>
      <clip id="masterclip-325" frameBlend="FALSE">
        <uuid>42099051-76a4-4ef2-890c-48386e84d726</uuid>
        <masterclipid>masterclip-325</masterclipid>
        <ismasterclip>TRUE</ismasterclip>
        <duration>373</duration>
        <rate>
          <timebase>24</timebase>
          <ntsc>TRUE</ntsc>
        </rate>
        <name>00548.MTS</name>
        <media>
          <video>
            <track>
              <clipitem id="clipitem-985" frameBlend="FALSE">
                <masterclipid>masterclip-325</masterclipid>
                <name>00548.MTS</name>
                <alphatype>black</alphatype>
                <pixelaspectratio>square</pixelaspectratio>
                <anamorphic>FALSE</anamorphic>
                <file id="file-325">
                  <name>00548.MTS</name>
                  <pathurl>file://localhost/Volumes/Macintosh%20HD/Users/jacksongs/Desktop/STREAM/00548.MTS</pathurl>
                  <rate>
                    <timebase>24</timebase>
                    <ntsc>TRUE</ntsc>
                  </rate>
                  <duration>373</duration>
                  <timecode>
                    <rate>
                      <timebase>24</timebase>
                      <ntsc>TRUE</ntsc>
                    </rate>
                    <string>00:00:00:00</string>
                    <frame>0</frame>
                    <displayformat>NDF</displayformat>
                    <reel>
                      <name/>
                    </reel>
                  </timecode>
                  <media>
                    <video>
                      <duration>18000</duration>
                      <samplecharacteristics>
                        <rate>
                          <timebase>24</timebase>
                          <ntsc>TRUE</ntsc>
                        </rate>
                        <width>1920</width>
                        <height>1080</height>
                        <anamorphic>FALSE</anamorphic>
                        <pixelaspectratio>square</pixelaspectratio>
                        <fielddominance>none</fielddominance>
                      </samplecharacteristics>
                    </video>
                    <audio>
                      <samplecharacteristics>
                        <depth>16</depth>
                        <samplerate>48000</samplerate>
                      </samplecharacteristics>
                      <channelcount>2</channelcount>
                    </audio>
                  </media>
                </file>
                <link>
                  <linkclipref>clipitem-985</linkclipref>
                  <mediatype>video</mediatype>
                  <trackindex>1</trackindex>
                  <clipindex>1</clipindex>
                </link>
                <link>
                  <linkclipref>clipitem-986</linkclipref>
                  <mediatype>audio</mediatype>
                  <trackindex>1</trackindex>
                  <clipindex>1</clipindex>
                  <groupindex>1</groupindex>
                </link>
                <link>
                  <linkclipref>clipitem-987</linkclipref>
                  <mediatype>audio</mediatype>
                  <trackindex>2</trackindex>
                  <clipindex>1</clipindex>
                  <groupindex>1</groupindex>
                </link>
              </clipitem>
            </track>
          </video>
          <audio>
            <track>
              <clipitem id="clipitem-986" frameBlend="FALSE">
                <masterclipid>masterclip-325</masterclipid>
                <name>00548.MTS</name>
                <file id="file-325"/>
                <sourcetrack>
                  <mediatype>audio</mediatype>
                  <trackindex>1</trackindex>
                </sourcetrack>
                <link>
                  <linkclipref>clipitem-985</linkclipref>
                  <mediatype>video</mediatype>
                  <trackindex>1</trackindex>
                  <clipindex>1</clipindex>
                </link>
                <link>
                  <linkclipref>clipitem-986</linkclipref>
                  <mediatype>audio</mediatype>
                  <trackindex>1</trackindex>
                  <clipindex>1</clipindex>
                  <groupindex>1</groupindex>
                </link>
                <link>
                  <linkclipref>clipitem-987</linkclipref>
                  <mediatype>audio</mediatype>
                  <trackindex>2</trackindex>
                  <clipindex>1</clipindex>
                  <groupindex>1</groupindex>
                </link>
              </clipitem>
            </track>
            <track>
              <clipitem id="clipitem-987" frameBlend="FALSE">
                <masterclipid>masterclip-325</masterclipid>
                <name>00548.MTS</name>
                <file id="file-325"/>
                <sourcetrack>
                  <mediatype>audio</mediatype>
                  <trackindex>2</trackindex>
                </sourcetrack>
                <link>
                  <linkclipref>clipitem-985</linkclipref>
                  <mediatype>video</mediatype>
                  <trackindex>1</trackindex>
                  <clipindex>1</clipindex>
                </link>
                <link>
                  <linkclipref>clipitem-986</linkclipref>
                  <mediatype>audio</mediatype>
                  <trackindex>1</trackindex>
                  <clipindex>1</clipindex>
                  <groupindex>1</groupindex>
                </link>
                <link>
                  <linkclipref>clipitem-987</linkclipref>
                  <mediatype>audio</mediatype>
                  <trackindex>2</trackindex>
                  <clipindex>1</clipindex>
                  <groupindex>1</groupindex>
                </link>
              </clipitem>
            </track>
          </audio>
        </media>
        <logginginfo>
          <description/>
          <scene/>
          <shottake/>
          <lognote/>
        </logginginfo>
      </clip>
      <clip id="masterclip-326" frameBlend="FALSE">
        <uuid>e2dfc555-4b50-4abd-b170-e28ffd95a4b9</uuid>
        <masterclipid>masterclip-326</masterclipid>
        <ismasterclip>TRUE</ismasterclip>
        <duration>493</duration>
        <rate>
          <timebase>24</timebase>
          <ntsc>TRUE</ntsc>
        </rate>
        <name>00549.MTS</name>
        <media>
          <video>
            <track>
              <clipitem id="clipitem-988" frameBlend="FALSE">
                <masterclipid>masterclip-326</masterclipid>
                <name>00549.MTS</name>
                <alphatype>black</alphatype>
                <pixelaspectratio>square</pixelaspectratio>
                <anamorphic>FALSE</anamorphic>
                <file id="file-326">
                  <name>00549.MTS</name>
                  <pathurl>file://localhost/Volumes/Macintosh%20HD/Users/jacksongs/Desktop/STREAM/00549.MTS</pathurl>
                  <rate>
                    <timebase>24</timebase>
                    <ntsc>TRUE</ntsc>
                  </rate>
                  <duration>493</duration>
                  <timecode>
                    <rate>
                      <timebase>24</timebase>
                      <ntsc>TRUE</ntsc>
                    </rate>
                    <string>00:00:00:00</string>
                    <frame>0</frame>
                    <displayformat>NDF</displayformat>
                    <reel>
                      <name/>
                    </reel>
                  </timecode>
                  <media>
                    <video>
                      <duration>18000</duration>
                      <samplecharacteristics>
                        <rate>
                          <timebase>24</timebase>
                          <ntsc>TRUE</ntsc>
                        </rate>
                        <width>1920</width>
                        <height>1080</height>
                        <anamorphic>FALSE</anamorphic>
                        <pixelaspectratio>square</pixelaspectratio>
                        <fielddominance>none</fielddominance>
                      </samplecharacteristics>
                    </video>
                    <audio>
                      <samplecharacteristics>
                        <depth>16</depth>
                        <samplerate>48000</samplerate>
                      </samplecharacteristics>
                      <channelcount>2</channelcount>
                    </audio>
                  </media>
                </file>
                <link>
                  <linkclipref>clipitem-988</linkclipref>
                  <mediatype>video</mediatype>
                  <trackindex>1</trackindex>
                  <clipindex>1</clipindex>
                </link>
                <link>
                  <linkclipref>clipitem-989</linkclipref>
                  <mediatype>audio</mediatype>
                  <trackindex>1</trackindex>
                  <clipindex>1</clipindex>
                  <groupindex>1</groupindex>
                </link>
                <link>
                  <linkclipref>clipitem-990</linkclipref>
                  <mediatype>audio</mediatype>
                  <trackindex>2</trackindex>
                  <clipindex>1</clipindex>
                  <groupindex>1</groupindex>
                </link>
              </clipitem>
            </track>
          </video>
          <audio>
            <track>
              <clipitem id="clipitem-989" frameBlend="FALSE">
                <masterclipid>masterclip-326</masterclipid>
                <name>00549.MTS</name>
                <file id="file-326"/>
                <sourcetrack>
                  <mediatype>audio</mediatype>
                  <trackindex>1</trackindex>
                </sourcetrack>
                <link>
                  <linkclipref>clipitem-988</linkclipref>
                  <mediatype>video</mediatype>
                  <trackindex>1</trackindex>
                  <clipindex>1</clipindex>
                </link>
                <link>
                  <linkclipref>clipitem-989</linkclipref>
                  <mediatype>audio</mediatype>
                  <trackindex>1</trackindex>
                  <clipindex>1</clipindex>
                  <groupindex>1</groupindex>
                </link>
                <link>
                  <linkclipref>clipitem-990</linkclipref>
                  <mediatype>audio</mediatype>
                  <trackindex>2</trackindex>
                  <clipindex>1</clipindex>
                  <groupindex>1</groupindex>
                </link>
              </clipitem>
            </track>
            <track>
              <clipitem id="clipitem-990" frameBlend="FALSE">
                <masterclipid>masterclip-326</masterclipid>
                <name>00549.MTS</name>
                <file id="file-326"/>
                <sourcetrack>
                  <mediatype>audio</mediatype>
                  <trackindex>2</trackindex>
                </sourcetrack>
                <link>
                  <linkclipref>clipitem-988</linkclipref>
                  <mediatype>video</mediatype>
                  <trackindex>1</trackindex>
                  <clipindex>1</clipindex>
                </link>
                <link>
                  <linkclipref>clipitem-989</linkclipref>
                  <mediatype>audio</mediatype>
                  <trackindex>1</trackindex>
                  <clipindex>1</clipindex>
                  <groupindex>1</groupindex>
                </link>
                <link>
                  <linkclipref>clipitem-990</linkclipref>
                  <mediatype>audio</mediatype>
                  <trackindex>2</trackindex>
                  <clipindex>1</clipindex>
                  <groupindex>1</groupindex>
                </link>
              </clipitem>
            </track>
          </audio>
        </media>
        <logginginfo>
          <description/>
          <scene/>
          <shottake/>
          <lognote/>
        </logginginfo>
      </clip>
      <clip id="masterclip-327" frameBlend="FALSE">
        <uuid>a76abac6-087b-42af-8402-15faabeba90e</uuid>
        <masterclipid>masterclip-327</masterclipid>
        <ismasterclip>TRUE</ismasterclip>
        <duration>181</duration>
        <rate>
          <timebase>24</timebase>
          <ntsc>TRUE</ntsc>
        </rate>
        <name>00550.MTS</name>
        <media>
          <video>
            <track>
              <clipitem id="clipitem-991" frameBlend="FALSE">
                <masterclipid>masterclip-327</masterclipid>
                <name>00550.MTS</name>
                <alphatype>black</alphatype>
                <pixelaspectratio>square</pixelaspectratio>
                <anamorphic>FALSE</anamorphic>
                <file id="file-327">
                  <name>00550.MTS</name>
                  <pathurl>file://localhost/Volumes/Macintosh%20HD/Users/jacksongs/Desktop/STREAM/00550.MTS</pathurl>
                  <rate>
                    <timebase>24</timebase>
                    <ntsc>TRUE</ntsc>
                  </rate>
                  <duration>181</duration>
                  <timecode>
                    <rate>
                      <timebase>24</timebase>
                      <ntsc>TRUE</ntsc>
                    </rate>
                    <string>00:00:00:00</string>
                    <frame>0</frame>
                    <displayformat>NDF</displayformat>
                    <reel>
                      <name/>
                    </reel>
                  </timecode>
                  <media>
                    <video>
                      <duration>18000</duration>
                      <samplecharacteristics>
                        <rate>
                          <timebase>24</timebase>
                          <ntsc>TRUE</ntsc>
                        </rate>
                        <width>1920</width>
                        <height>1080</height>
                        <anamorphic>FALSE</anamorphic>
                        <pixelaspectratio>square</pixelaspectratio>
                        <fielddominance>none</fielddominance>
                      </samplecharacteristics>
                    </video>
                    <audio>
                      <samplecharacteristics>
                        <depth>16</depth>
                        <samplerate>48000</samplerate>
                      </samplecharacteristics>
                      <channelcount>2</channelcount>
                    </audio>
                  </media>
                </file>
                <link>
                  <linkclipref>clipitem-991</linkclipref>
                  <mediatype>video</mediatype>
                  <trackindex>1</trackindex>
                  <clipindex>1</clipindex>
                </link>
                <link>
                  <linkclipref>clipitem-992</linkclipref>
                  <mediatype>audio</mediatype>
                  <trackindex>1</trackindex>
                  <clipindex>1</clipindex>
                  <groupindex>1</groupindex>
                </link>
                <link>
                  <linkclipref>clipitem-993</linkclipref>
                  <mediatype>audio</mediatype>
                  <trackindex>2</trackindex>
                  <clipindex>1</clipindex>
                  <groupindex>1</groupindex>
                </link>
              </clipitem>
            </track>
          </video>
          <audio>
            <track>
              <clipitem id="clipitem-992" frameBlend="FALSE">
                <masterclipid>masterclip-327</masterclipid>
                <name>00550.MTS</name>
                <file id="file-327"/>
                <sourcetrack>
                  <mediatype>audio</mediatype>
                  <trackindex>1</trackindex>
                </sourcetrack>
                <link>
                  <linkclipref>clipitem-991</linkclipref>
                  <mediatype>video</mediatype>
                  <trackindex>1</trackindex>
                  <clipindex>1</clipindex>
                </link>
                <link>
                  <linkclipref>clipitem-992</linkclipref>
                  <mediatype>audio</mediatype>
                  <trackindex>1</trackindex>
                  <clipindex>1</clipindex>
                  <groupindex>1</groupindex>
                </link>
                <link>
                  <linkclipref>clipitem-993</linkclipref>
                  <mediatype>audio</mediatype>
                  <trackindex>2</trackindex>
                  <clipindex>1</clipindex>
                  <groupindex>1</groupindex>
                </link>
              </clipitem>
            </track>
            <track>
              <clipitem id="clipitem-993" frameBlend="FALSE">
                <masterclipid>masterclip-327</masterclipid>
                <name>00550.MTS</name>
                <file id="file-327"/>
                <sourcetrack>
                  <mediatype>audio</mediatype>
                  <trackindex>2</trackindex>
                </sourcetrack>
                <link>
                  <linkclipref>clipitem-991</linkclipref>
                  <mediatype>video</mediatype>
                  <trackindex>1</trackindex>
                  <clipindex>1</clipindex>
                </link>
                <link>
                  <linkclipref>clipitem-992</linkclipref>
                  <mediatype>audio</mediatype>
                  <trackindex>1</trackindex>
                  <clipindex>1</clipindex>
                  <groupindex>1</groupindex>
                </link>
                <link>
                  <linkclipref>clipitem-993</linkclipref>
                  <mediatype>audio</mediatype>
                  <trackindex>2</trackindex>
                  <clipindex>1</clipindex>
                  <groupindex>1</groupindex>
                </link>
              </clipitem>
            </track>
          </audio>
        </media>
        <logginginfo>
          <description/>
          <scene/>
          <shottake/>
          <lognote/>
        </logginginfo>
      </clip>
      <clip id="masterclip-328" frameBlend="FALSE">
        <uuid>e5eb7ba4-818e-43c2-9590-7e93fbf80e38</uuid>
        <masterclipid>masterclip-328</masterclipid>
        <ismasterclip>TRUE</ismasterclip>
        <duration>265</duration>
        <rate>
          <timebase>24</timebase>
          <ntsc>TRUE</ntsc>
        </rate>
        <name>00551.MTS</name>
        <media>
          <video>
            <track>
              <clipitem id="clipitem-994" frameBlend="FALSE">
                <masterclipid>masterclip-328</masterclipid>
                <name>00551.MTS</name>
                <alphatype>black</alphatype>
                <pixelaspectratio>square</pixelaspectratio>
                <anamorphic>FALSE</anamorphic>
                <file id="file-328">
                  <name>00551.MTS</name>
                  <pathurl>file://localhost/Volumes/Macintosh%20HD/Users/jacksongs/Desktop/STREAM/00551.MTS</pathurl>
                  <rate>
                    <timebase>24</timebase>
                    <ntsc>TRUE</ntsc>
                  </rate>
                  <duration>265</duration>
                  <timecode>
                    <rate>
                      <timebase>24</timebase>
                      <ntsc>TRUE</ntsc>
                    </rate>
                    <string>00:00:00:00</string>
                    <frame>0</frame>
                    <displayformat>NDF</displayformat>
                    <reel>
                      <name/>
                    </reel>
                  </timecode>
                  <media>
                    <video>
                      <duration>18000</duration>
                      <samplecharacteristics>
                        <rate>
                          <timebase>24</timebase>
                          <ntsc>TRUE</ntsc>
                        </rate>
                        <width>1920</width>
                        <height>1080</height>
                        <anamorphic>FALSE</anamorphic>
                        <pixelaspectratio>square</pixelaspectratio>
                        <fielddominance>none</fielddominance>
                      </samplecharacteristics>
                    </video>
                    <audio>
                      <samplecharacteristics>
                        <depth>16</depth>
                        <samplerate>48000</samplerate>
                      </samplecharacteristics>
                      <channelcount>2</channelcount>
                    </audio>
                  </media>
                </file>
                <link>
                  <linkclipref>clipitem-994</linkclipref>
                  <mediatype>video</mediatype>
                  <trackindex>1</trackindex>
                  <clipindex>1</clipindex>
                </link>
                <link>
                  <linkclipref>clipitem-995</linkclipref>
                  <mediatype>audio</mediatype>
                  <trackindex>1</trackindex>
                  <clipindex>1</clipindex>
                  <groupindex>1</groupindex>
                </link>
                <link>
                  <linkclipref>clipitem-996</linkclipref>
                  <mediatype>audio</mediatype>
                  <trackindex>2</trackindex>
                  <clipindex>1</clipindex>
                  <groupindex>1</groupindex>
                </link>
              </clipitem>
            </track>
          </video>
          <audio>
            <track>
              <clipitem id="clipitem-995" frameBlend="FALSE">
                <masterclipid>masterclip-328</masterclipid>
                <name>00551.MTS</name>
                <file id="file-328"/>
                <sourcetrack>
                  <mediatype>audio</mediatype>
                  <trackindex>1</trackindex>
                </sourcetrack>
                <link>
                  <linkclipref>clipitem-994</linkclipref>
                  <mediatype>video</mediatype>
                  <trackindex>1</trackindex>
                  <clipindex>1</clipindex>
                </link>
                <link>
                  <linkclipref>clipitem-995</linkclipref>
                  <mediatype>audio</mediatype>
                  <trackindex>1</trackindex>
                  <clipindex>1</clipindex>
                  <groupindex>1</groupindex>
                </link>
                <link>
                  <linkclipref>clipitem-996</linkclipref>
                  <mediatype>audio</mediatype>
                  <trackindex>2</trackindex>
                  <clipindex>1</clipindex>
                  <groupindex>1</groupindex>
                </link>
              </clipitem>
            </track>
            <track>
              <clipitem id="clipitem-996" frameBlend="FALSE">
                <masterclipid>masterclip-328</masterclipid>
                <name>00551.MTS</name>
                <file id="file-328"/>
                <sourcetrack>
                  <mediatype>audio</mediatype>
                  <trackindex>2</trackindex>
                </sourcetrack>
                <link>
                  <linkclipref>clipitem-994</linkclipref>
                  <mediatype>video</mediatype>
                  <trackindex>1</trackindex>
                  <clipindex>1</clipindex>
                </link>
                <link>
                  <linkclipref>clipitem-995</linkclipref>
                  <mediatype>audio</mediatype>
                  <trackindex>1</trackindex>
                  <clipindex>1</clipindex>
                  <groupindex>1</groupindex>
                </link>
                <link>
                  <linkclipref>clipitem-996</linkclipref>
                  <mediatype>audio</mediatype>
                  <trackindex>2</trackindex>
                  <clipindex>1</clipindex>
                  <groupindex>1</groupindex>
                </link>
              </clipitem>
            </track>
          </audio>
        </media>
        <logginginfo>
          <description/>
          <scene/>
          <shottake/>
          <lognote/>
        </logginginfo>
      </clip>
      <clip id="masterclip-329" frameBlend="FALSE">
        <uuid>0c443eed-96a8-4045-8e0f-b1dae929a81f</uuid>
        <masterclipid>masterclip-329</masterclipid>
        <ismasterclip>TRUE</ismasterclip>
        <duration>385</duration>
        <rate>
          <timebase>24</timebase>
          <ntsc>TRUE</ntsc>
        </rate>
        <name>00552.MTS</name>
        <media>
          <video>
            <track>
              <clipitem id="clipitem-997" frameBlend="FALSE">
                <masterclipid>masterclip-329</masterclipid>
                <name>00552.MTS</name>
                <alphatype>black</alphatype>
                <pixelaspectratio>square</pixelaspectratio>
                <anamorphic>FALSE</anamorphic>
                <file id="file-329">
                  <name>00552.MTS</name>
                  <pathurl>file://localhost/Volumes/Macintosh%20HD/Users/jacksongs/Desktop/STREAM/00552.MTS</pathurl>
                  <rate>
                    <timebase>24</timebase>
                    <ntsc>TRUE</ntsc>
                  </rate>
                  <duration>385</duration>
                  <timecode>
                    <rate>
                      <timebase>24</timebase>
                      <ntsc>TRUE</ntsc>
                    </rate>
                    <string>00:00:00:00</string>
                    <frame>0</frame>
                    <displayformat>NDF</displayformat>
                    <reel>
                      <name/>
                    </reel>
                  </timecode>
                  <media>
                    <video>
                      <duration>18000</duration>
                      <samplecharacteristics>
                        <rate>
                          <timebase>24</timebase>
                          <ntsc>TRUE</ntsc>
                        </rate>
                        <width>1920</width>
                        <height>1080</height>
                        <anamorphic>FALSE</anamorphic>
                        <pixelaspectratio>square</pixelaspectratio>
                        <fielddominance>none</fielddominance>
                      </samplecharacteristics>
                    </video>
                    <audio>
                      <samplecharacteristics>
                        <depth>16</depth>
                        <samplerate>48000</samplerate>
                      </samplecharacteristics>
                      <channelcount>2</channelcount>
                    </audio>
                  </media>
                </file>
                <link>
                  <linkclipref>clipitem-997</linkclipref>
                  <mediatype>video</mediatype>
                  <trackindex>1</trackindex>
                  <clipindex>1</clipindex>
                </link>
                <link>
                  <linkclipref>clipitem-998</linkclipref>
                  <mediatype>audio</mediatype>
                  <trackindex>1</trackindex>
                  <clipindex>1</clipindex>
                  <groupindex>1</groupindex>
                </link>
                <link>
                  <linkclipref>clipitem-999</linkclipref>
                  <mediatype>audio</mediatype>
                  <trackindex>2</trackindex>
                  <clipindex>1</clipindex>
                  <groupindex>1</groupindex>
                </link>
              </clipitem>
            </track>
          </video>
          <audio>
            <track>
              <clipitem id="clipitem-998" frameBlend="FALSE">
                <masterclipid>masterclip-329</masterclipid>
                <name>00552.MTS</name>
                <file id="file-329"/>
                <sourcetrack>
                  <mediatype>audio</mediatype>
                  <trackindex>1</trackindex>
                </sourcetrack>
                <link>
                  <linkclipref>clipitem-997</linkclipref>
                  <mediatype>video</mediatype>
                  <trackindex>1</trackindex>
                  <clipindex>1</clipindex>
                </link>
                <link>
                  <linkclipref>clipitem-998</linkclipref>
                  <mediatype>audio</mediatype>
                  <trackindex>1</trackindex>
                  <clipindex>1</clipindex>
                  <groupindex>1</groupindex>
                </link>
                <link>
                  <linkclipref>clipitem-999</linkclipref>
                  <mediatype>audio</mediatype>
                  <trackindex>2</trackindex>
                  <clipindex>1</clipindex>
                  <groupindex>1</groupindex>
                </link>
              </clipitem>
            </track>
            <track>
              <clipitem id="clipitem-999" frameBlend="FALSE">
                <masterclipid>masterclip-329</masterclipid>
                <name>00552.MTS</name>
                <file id="file-329"/>
                <sourcetrack>
                  <mediatype>audio</mediatype>
                  <trackindex>2</trackindex>
                </sourcetrack>
                <link>
                  <linkclipref>clipitem-997</linkclipref>
                  <mediatype>video</mediatype>
                  <trackindex>1</trackindex>
                  <clipindex>1</clipindex>
                </link>
                <link>
                  <linkclipref>clipitem-998</linkclipref>
                  <mediatype>audio</mediatype>
                  <trackindex>1</trackindex>
                  <clipindex>1</clipindex>
                  <groupindex>1</groupindex>
                </link>
                <link>
                  <linkclipref>clipitem-999</linkclipref>
                  <mediatype>audio</mediatype>
                  <trackindex>2</trackindex>
                  <clipindex>1</clipindex>
                  <groupindex>1</groupindex>
                </link>
              </clipitem>
            </track>
          </audio>
        </media>
        <logginginfo>
          <description/>
          <scene/>
          <shottake/>
          <lognote/>
        </logginginfo>
      </clip>
      <clip id="masterclip-330" frameBlend="FALSE">
        <uuid>02ac0763-bd70-46c1-aaa5-3e2583b5d26d</uuid>
        <masterclipid>masterclip-330</masterclipid>
        <ismasterclip>TRUE</ismasterclip>
        <duration>289</duration>
        <rate>
          <timebase>24</timebase>
          <ntsc>TRUE</ntsc>
        </rate>
        <name>00553.MTS</name>
        <media>
          <video>
            <track>
              <clipitem id="clipitem-1000" frameBlend="FALSE">
                <masterclipid>masterclip-330</masterclipid>
                <name>00553.MTS</name>
                <alphatype>black</alphatype>
                <pixelaspectratio>square</pixelaspectratio>
                <anamorphic>FALSE</anamorphic>
                <file id="file-330">
                  <name>00553.MTS</name>
                  <pathurl>file://localhost/Volumes/Macintosh%20HD/Users/jacksongs/Desktop/STREAM/00553.MTS</pathurl>
                  <rate>
                    <timebase>24</timebase>
                    <ntsc>TRUE</ntsc>
                  </rate>
                  <duration>289</duration>
                  <timecode>
                    <rate>
                      <timebase>24</timebase>
                      <ntsc>TRUE</ntsc>
                    </rate>
                    <string>00:00:00:00</string>
                    <frame>0</frame>
                    <displayformat>NDF</displayformat>
                    <reel>
                      <name/>
                    </reel>
                  </timecode>
                  <media>
                    <video>
                      <duration>18000</duration>
                      <samplecharacteristics>
                        <rate>
                          <timebase>24</timebase>
                          <ntsc>TRUE</ntsc>
                        </rate>
                        <width>1920</width>
                        <height>1080</height>
                        <anamorphic>FALSE</anamorphic>
                        <pixelaspectratio>square</pixelaspectratio>
                        <fielddominance>none</fielddominance>
                      </samplecharacteristics>
                    </video>
                    <audio>
                      <samplecharacteristics>
                        <depth>16</depth>
                        <samplerate>48000</samplerate>
                      </samplecharacteristics>
                      <channelcount>2</channelcount>
                    </audio>
                  </media>
                </file>
                <link>
                  <linkclipref>clipitem-1000</linkclipref>
                  <mediatype>video</mediatype>
                  <trackindex>1</trackindex>
                  <clipindex>1</clipindex>
                </link>
                <link>
                  <linkclipref>clipitem-1001</linkclipref>
                  <mediatype>audio</mediatype>
                  <trackindex>1</trackindex>
                  <clipindex>1</clipindex>
                  <groupindex>1</groupindex>
                </link>
                <link>
                  <linkclipref>clipitem-1002</linkclipref>
                  <mediatype>audio</mediatype>
                  <trackindex>2</trackindex>
                  <clipindex>1</clipindex>
                  <groupindex>1</groupindex>
                </link>
              </clipitem>
            </track>
          </video>
          <audio>
            <track>
              <clipitem id="clipitem-1001" frameBlend="FALSE">
                <masterclipid>masterclip-330</masterclipid>
                <name>00553.MTS</name>
                <file id="file-330"/>
                <sourcetrack>
                  <mediatype>audio</mediatype>
                  <trackindex>1</trackindex>
                </sourcetrack>
                <link>
                  <linkclipref>clipitem-1000</linkclipref>
                  <mediatype>video</mediatype>
                  <trackindex>1</trackindex>
                  <clipindex>1</clipindex>
                </link>
                <link>
                  <linkclipref>clipitem-1001</linkclipref>
                  <mediatype>audio</mediatype>
                  <trackindex>1</trackindex>
                  <clipindex>1</clipindex>
                  <groupindex>1</groupindex>
                </link>
                <link>
                  <linkclipref>clipitem-1002</linkclipref>
                  <mediatype>audio</mediatype>
                  <trackindex>2</trackindex>
                  <clipindex>1</clipindex>
                  <groupindex>1</groupindex>
                </link>
              </clipitem>
            </track>
            <track>
              <clipitem id="clipitem-1002" frameBlend="FALSE">
                <masterclipid>masterclip-330</masterclipid>
                <name>00553.MTS</name>
                <file id="file-330"/>
                <sourcetrack>
                  <mediatype>audio</mediatype>
                  <trackindex>2</trackindex>
                </sourcetrack>
                <link>
                  <linkclipref>clipitem-1000</linkclipref>
                  <mediatype>video</mediatype>
                  <trackindex>1</trackindex>
                  <clipindex>1</clipindex>
                </link>
                <link>
                  <linkclipref>clipitem-1001</linkclipref>
                  <mediatype>audio</mediatype>
                  <trackindex>1</trackindex>
                  <clipindex>1</clipindex>
                  <groupindex>1</groupindex>
                </link>
                <link>
                  <linkclipref>clipitem-1002</linkclipref>
                  <mediatype>audio</mediatype>
                  <trackindex>2</trackindex>
                  <clipindex>1</clipindex>
                  <groupindex>1</groupindex>
                </link>
              </clipitem>
            </track>
          </audio>
        </media>
        <logginginfo>
          <description/>
          <scene/>
          <shottake/>
          <lognote/>
        </logginginfo>
      </clip>
      <clip id="masterclip-331" frameBlend="FALSE">
        <uuid>90062cd3-5277-462d-9323-2c79d4ac3420</uuid>
        <masterclipid>masterclip-331</masterclipid>
        <ismasterclip>TRUE</ismasterclip>
        <duration>361</duration>
        <rate>
          <timebase>24</timebase>
          <ntsc>TRUE</ntsc>
        </rate>
        <name>00554.MTS</name>
        <media>
          <video>
            <track>
              <clipitem id="clipitem-1003" frameBlend="FALSE">
                <masterclipid>masterclip-331</masterclipid>
                <name>00554.MTS</name>
                <alphatype>black</alphatype>
                <pixelaspectratio>square</pixelaspectratio>
                <anamorphic>FALSE</anamorphic>
                <file id="file-331">
                  <name>00554.MTS</name>
                  <pathurl>file://localhost/Volumes/Macintosh%20HD/Users/jacksongs/Desktop/STREAM/00554.MTS</pathurl>
                  <rate>
                    <timebase>24</timebase>
                    <ntsc>TRUE</ntsc>
                  </rate>
                  <duration>361</duration>
                  <timecode>
                    <rate>
                      <timebase>24</timebase>
                      <ntsc>TRUE</ntsc>
                    </rate>
                    <string>00:00:00:00</string>
                    <frame>0</frame>
                    <displayformat>NDF</displayformat>
                    <reel>
                      <name/>
                    </reel>
                  </timecode>
                  <media>
                    <video>
                      <duration>18000</duration>
                      <samplecharacteristics>
                        <rate>
                          <timebase>24</timebase>
                          <ntsc>TRUE</ntsc>
                        </rate>
                        <width>1920</width>
                        <height>1080</height>
                        <anamorphic>FALSE</anamorphic>
                        <pixelaspectratio>square</pixelaspectratio>
                        <fielddominance>none</fielddominance>
                      </samplecharacteristics>
                    </video>
                    <audio>
                      <samplecharacteristics>
                        <depth>16</depth>
                        <samplerate>48000</samplerate>
                      </samplecharacteristics>
                      <channelcount>2</channelcount>
                    </audio>
                  </media>
                </file>
                <link>
                  <linkclipref>clipitem-1003</linkclipref>
                  <mediatype>video</mediatype>
                  <trackindex>1</trackindex>
                  <clipindex>1</clipindex>
                </link>
                <link>
                  <linkclipref>clipitem-1004</linkclipref>
                  <mediatype>audio</mediatype>
                  <trackindex>1</trackindex>
                  <clipindex>1</clipindex>
                  <groupindex>1</groupindex>
                </link>
                <link>
                  <linkclipref>clipitem-1005</linkclipref>
                  <mediatype>audio</mediatype>
                  <trackindex>2</trackindex>
                  <clipindex>1</clipindex>
                  <groupindex>1</groupindex>
                </link>
              </clipitem>
            </track>
          </video>
          <audio>
            <track>
              <clipitem id="clipitem-1004" frameBlend="FALSE">
                <masterclipid>masterclip-331</masterclipid>
                <name>00554.MTS</name>
                <file id="file-331"/>
                <sourcetrack>
                  <mediatype>audio</mediatype>
                  <trackindex>1</trackindex>
                </sourcetrack>
                <link>
                  <linkclipref>clipitem-1003</linkclipref>
                  <mediatype>video</mediatype>
                  <trackindex>1</trackindex>
                  <clipindex>1</clipindex>
                </link>
                <link>
                  <linkclipref>clipitem-1004</linkclipref>
                  <mediatype>audio</mediatype>
                  <trackindex>1</trackindex>
                  <clipindex>1</clipindex>
                  <groupindex>1</groupindex>
                </link>
                <link>
                  <linkclipref>clipitem-1005</linkclipref>
                  <mediatype>audio</mediatype>
                  <trackindex>2</trackindex>
                  <clipindex>1</clipindex>
                  <groupindex>1</groupindex>
                </link>
              </clipitem>
            </track>
            <track>
              <clipitem id="clipitem-1005" frameBlend="FALSE">
                <masterclipid>masterclip-331</masterclipid>
                <name>00554.MTS</name>
                <file id="file-331"/>
                <sourcetrack>
                  <mediatype>audio</mediatype>
                  <trackindex>2</trackindex>
                </sourcetrack>
                <link>
                  <linkclipref>clipitem-1003</linkclipref>
                  <mediatype>video</mediatype>
                  <trackindex>1</trackindex>
                  <clipindex>1</clipindex>
                </link>
                <link>
                  <linkclipref>clipitem-1004</linkclipref>
                  <mediatype>audio</mediatype>
                  <trackindex>1</trackindex>
                  <clipindex>1</clipindex>
                  <groupindex>1</groupindex>
                </link>
                <link>
                  <linkclipref>clipitem-1005</linkclipref>
                  <mediatype>audio</mediatype>
                  <trackindex>2</trackindex>
                  <clipindex>1</clipindex>
                  <groupindex>1</groupindex>
                </link>
              </clipitem>
            </track>
          </audio>
        </media>
        <logginginfo>
          <description/>
          <scene/>
          <shottake/>
          <lognote/>
        </logginginfo>
      </clip>
      <clip id="masterclip-332" frameBlend="FALSE">
        <uuid>6c7f4303-5351-4efc-a49b-6a06a6755e1f</uuid>
        <masterclipid>masterclip-332</masterclipid>
        <ismasterclip>TRUE</ismasterclip>
        <duration>973</duration>
        <rate>
          <timebase>24</timebase>
          <ntsc>TRUE</ntsc>
        </rate>
        <name>00555.MTS</name>
        <media>
          <video>
            <track>
              <clipitem id="clipitem-1006" frameBlend="FALSE">
                <masterclipid>masterclip-332</masterclipid>
                <name>00555.MTS</name>
                <alphatype>black</alphatype>
                <pixelaspectratio>square</pixelaspectratio>
                <anamorphic>FALSE</anamorphic>
                <file id="file-332">
                  <name>00555.MTS</name>
                  <pathurl>file://localhost/Volumes/Macintosh%20HD/Users/jacksongs/Desktop/STREAM/00555.MTS</pathurl>
                  <rate>
                    <timebase>24</timebase>
                    <ntsc>TRUE</ntsc>
                  </rate>
                  <duration>973</duration>
                  <timecode>
                    <rate>
                      <timebase>24</timebase>
                      <ntsc>TRUE</ntsc>
                    </rate>
                    <string>00:00:00:00</string>
                    <frame>0</frame>
                    <displayformat>NDF</displayformat>
                    <reel>
                      <name/>
                    </reel>
                  </timecode>
                  <media>
                    <video>
                      <duration>18000</duration>
                      <samplecharacteristics>
                        <rate>
                          <timebase>24</timebase>
                          <ntsc>TRUE</ntsc>
                        </rate>
                        <width>1920</width>
                        <height>1080</height>
                        <anamorphic>FALSE</anamorphic>
                        <pixelaspectratio>square</pixelaspectratio>
                        <fielddominance>none</fielddominance>
                      </samplecharacteristics>
                    </video>
                    <audio>
                      <samplecharacteristics>
                        <depth>16</depth>
                        <samplerate>48000</samplerate>
                      </samplecharacteristics>
                      <channelcount>2</channelcount>
                    </audio>
                  </media>
                </file>
                <link>
                  <linkclipref>clipitem-1006</linkclipref>
                  <mediatype>video</mediatype>
                  <trackindex>1</trackindex>
                  <clipindex>1</clipindex>
                </link>
                <link>
                  <linkclipref>clipitem-1007</linkclipref>
                  <mediatype>audio</mediatype>
                  <trackindex>1</trackindex>
                  <clipindex>1</clipindex>
                  <groupindex>1</groupindex>
                </link>
                <link>
                  <linkclipref>clipitem-1008</linkclipref>
                  <mediatype>audio</mediatype>
                  <trackindex>2</trackindex>
                  <clipindex>1</clipindex>
                  <groupindex>1</groupindex>
                </link>
              </clipitem>
            </track>
          </video>
          <audio>
            <track>
              <clipitem id="clipitem-1007" frameBlend="FALSE">
                <masterclipid>masterclip-332</masterclipid>
                <name>00555.MTS</name>
                <file id="file-332"/>
                <sourcetrack>
                  <mediatype>audio</mediatype>
                  <trackindex>1</trackindex>
                </sourcetrack>
                <link>
                  <linkclipref>clipitem-1006</linkclipref>
                  <mediatype>video</mediatype>
                  <trackindex>1</trackindex>
                  <clipindex>1</clipindex>
                </link>
                <link>
                  <linkclipref>clipitem-1007</linkclipref>
                  <mediatype>audio</mediatype>
                  <trackindex>1</trackindex>
                  <clipindex>1</clipindex>
                  <groupindex>1</groupindex>
                </link>
                <link>
                  <linkclipref>clipitem-1008</linkclipref>
                  <mediatype>audio</mediatype>
                  <trackindex>2</trackindex>
                  <clipindex>1</clipindex>
                  <groupindex>1</groupindex>
                </link>
              </clipitem>
            </track>
            <track>
              <clipitem id="clipitem-1008" frameBlend="FALSE">
                <masterclipid>masterclip-332</masterclipid>
                <name>00555.MTS</name>
                <file id="file-332"/>
                <sourcetrack>
                  <mediatype>audio</mediatype>
                  <trackindex>2</trackindex>
                </sourcetrack>
                <link>
                  <linkclipref>clipitem-1006</linkclipref>
                  <mediatype>video</mediatype>
                  <trackindex>1</trackindex>
                  <clipindex>1</clipindex>
                </link>
                <link>
                  <linkclipref>clipitem-1007</linkclipref>
                  <mediatype>audio</mediatype>
                  <trackindex>1</trackindex>
                  <clipindex>1</clipindex>
                  <groupindex>1</groupindex>
                </link>
                <link>
                  <linkclipref>clipitem-1008</linkclipref>
                  <mediatype>audio</mediatype>
                  <trackindex>2</trackindex>
                  <clipindex>1</clipindex>
                  <groupindex>1</groupindex>
                </link>
              </clipitem>
            </track>
          </audio>
        </media>
        <logginginfo>
          <description/>
          <scene/>
          <shottake/>
          <lognote/>
        </logginginfo>
      </clip>
      <clip id="masterclip-333" frameBlend="FALSE">
        <uuid>c8fd020d-0817-44e9-934d-05706dbaf16e</uuid>
        <masterclipid>masterclip-333</masterclipid>
        <ismasterclip>TRUE</ismasterclip>
        <duration>217</duration>
        <rate>
          <timebase>24</timebase>
          <ntsc>TRUE</ntsc>
        </rate>
        <name>00556.MTS</name>
        <media>
          <video>
            <track>
              <clipitem id="clipitem-1009" frameBlend="FALSE">
                <masterclipid>masterclip-333</masterclipid>
                <name>00556.MTS</name>
                <alphatype>black</alphatype>
                <pixelaspectratio>square</pixelaspectratio>
                <anamorphic>FALSE</anamorphic>
                <file id="file-333">
                  <name>00556.MTS</name>
                  <pathurl>file://localhost/Volumes/Macintosh%20HD/Users/jacksongs/Desktop/STREAM/00556.MTS</pathurl>
                  <rate>
                    <timebase>24</timebase>
                    <ntsc>TRUE</ntsc>
                  </rate>
                  <duration>217</duration>
                  <timecode>
                    <rate>
                      <timebase>24</timebase>
                      <ntsc>TRUE</ntsc>
                    </rate>
                    <string>00:00:00:00</string>
                    <frame>0</frame>
                    <displayformat>NDF</displayformat>
                    <reel>
                      <name/>
                    </reel>
                  </timecode>
                  <media>
                    <video>
                      <duration>18000</duration>
                      <samplecharacteristics>
                        <rate>
                          <timebase>24</timebase>
                          <ntsc>TRUE</ntsc>
                        </rate>
                        <width>1920</width>
                        <height>1080</height>
                        <anamorphic>FALSE</anamorphic>
                        <pixelaspectratio>square</pixelaspectratio>
                        <fielddominance>none</fielddominance>
                      </samplecharacteristics>
                    </video>
                    <audio>
                      <samplecharacteristics>
                        <depth>16</depth>
                        <samplerate>48000</samplerate>
                      </samplecharacteristics>
                      <channelcount>2</channelcount>
                    </audio>
                  </media>
                </file>
                <link>
                  <linkclipref>clipitem-1009</linkclipref>
                  <mediatype>video</mediatype>
                  <trackindex>1</trackindex>
                  <clipindex>1</clipindex>
                </link>
                <link>
                  <linkclipref>clipitem-1010</linkclipref>
                  <mediatype>audio</mediatype>
                  <trackindex>1</trackindex>
                  <clipindex>1</clipindex>
                  <groupindex>1</groupindex>
                </link>
                <link>
                  <linkclipref>clipitem-1011</linkclipref>
                  <mediatype>audio</mediatype>
                  <trackindex>2</trackindex>
                  <clipindex>1</clipindex>
                  <groupindex>1</groupindex>
                </link>
              </clipitem>
            </track>
          </video>
          <audio>
            <track>
              <clipitem id="clipitem-1010" frameBlend="FALSE">
                <masterclipid>masterclip-333</masterclipid>
                <name>00556.MTS</name>
                <file id="file-333"/>
                <sourcetrack>
                  <mediatype>audio</mediatype>
                  <trackindex>1</trackindex>
                </sourcetrack>
                <link>
                  <linkclipref>clipitem-1009</linkclipref>
                  <mediatype>video</mediatype>
                  <trackindex>1</trackindex>
                  <clipindex>1</clipindex>
                </link>
                <link>
                  <linkclipref>clipitem-1010</linkclipref>
                  <mediatype>audio</mediatype>
                  <trackindex>1</trackindex>
                  <clipindex>1</clipindex>
                  <groupindex>1</groupindex>
                </link>
                <link>
                  <linkclipref>clipitem-1011</linkclipref>
                  <mediatype>audio</mediatype>
                  <trackindex>2</trackindex>
                  <clipindex>1</clipindex>
                  <groupindex>1</groupindex>
                </link>
              </clipitem>
            </track>
            <track>
              <clipitem id="clipitem-1011" frameBlend="FALSE">
                <masterclipid>masterclip-333</masterclipid>
                <name>00556.MTS</name>
                <file id="file-333"/>
                <sourcetrack>
                  <mediatype>audio</mediatype>
                  <trackindex>2</trackindex>
                </sourcetrack>
                <link>
                  <linkclipref>clipitem-1009</linkclipref>
                  <mediatype>video</mediatype>
                  <trackindex>1</trackindex>
                  <clipindex>1</clipindex>
                </link>
                <link>
                  <linkclipref>clipitem-1010</linkclipref>
                  <mediatype>audio</mediatype>
                  <trackindex>1</trackindex>
                  <clipindex>1</clipindex>
                  <groupindex>1</groupindex>
                </link>
                <link>
                  <linkclipref>clipitem-1011</linkclipref>
                  <mediatype>audio</mediatype>
                  <trackindex>2</trackindex>
                  <clipindex>1</clipindex>
                  <groupindex>1</groupindex>
                </link>
              </clipitem>
            </track>
          </audio>
        </media>
        <logginginfo>
          <description/>
          <scene/>
          <shottake/>
          <lognote/>
        </logginginfo>
      </clip>
      <clip id="masterclip-334" frameBlend="FALSE">
        <uuid>19e14253-9719-4582-ae93-670e6718d2ac</uuid>
        <masterclipid>masterclip-334</masterclipid>
        <ismasterclip>TRUE</ismasterclip>
        <duration>121</duration>
        <rate>
          <timebase>24</timebase>
          <ntsc>TRUE</ntsc>
        </rate>
        <name>00557.MTS</name>
        <media>
          <video>
            <track>
              <clipitem id="clipitem-1012" frameBlend="FALSE">
                <masterclipid>masterclip-334</masterclipid>
                <name>00557.MTS</name>
                <alphatype>black</alphatype>
                <pixelaspectratio>square</pixelaspectratio>
                <anamorphic>FALSE</anamorphic>
                <file id="file-334">
                  <name>00557.MTS</name>
                  <pathurl>file://localhost/Volumes/Macintosh%20HD/Users/jacksongs/Desktop/STREAM/00557.MTS</pathurl>
                  <rate>
                    <timebase>24</timebase>
                    <ntsc>TRUE</ntsc>
                  </rate>
                  <duration>121</duration>
                  <timecode>
                    <rate>
                      <timebase>24</timebase>
                      <ntsc>TRUE</ntsc>
                    </rate>
                    <string>00:00:00:00</string>
                    <frame>0</frame>
                    <displayformat>NDF</displayformat>
                    <reel>
                      <name/>
                    </reel>
                  </timecode>
                  <media>
                    <video>
                      <duration>18000</duration>
                      <samplecharacteristics>
                        <rate>
                          <timebase>24</timebase>
                          <ntsc>TRUE</ntsc>
                        </rate>
                        <width>1920</width>
                        <height>1080</height>
                        <anamorphic>FALSE</anamorphic>
                        <pixelaspectratio>square</pixelaspectratio>
                        <fielddominance>none</fielddominance>
                      </samplecharacteristics>
                    </video>
                    <audio>
                      <samplecharacteristics>
                        <depth>16</depth>
                        <samplerate>48000</samplerate>
                      </samplecharacteristics>
                      <channelcount>2</channelcount>
                    </audio>
                  </media>
                </file>
                <link>
                  <linkclipref>clipitem-1012</linkclipref>
                  <mediatype>video</mediatype>
                  <trackindex>1</trackindex>
                  <clipindex>1</clipindex>
                </link>
                <link>
                  <linkclipref>clipitem-1013</linkclipref>
                  <mediatype>audio</mediatype>
                  <trackindex>1</trackindex>
                  <clipindex>1</clipindex>
                  <groupindex>1</groupindex>
                </link>
                <link>
                  <linkclipref>clipitem-1014</linkclipref>
                  <mediatype>audio</mediatype>
                  <trackindex>2</trackindex>
                  <clipindex>1</clipindex>
                  <groupindex>1</groupindex>
                </link>
              </clipitem>
            </track>
          </video>
          <audio>
            <track>
              <clipitem id="clipitem-1013" frameBlend="FALSE">
                <masterclipid>masterclip-334</masterclipid>
                <name>00557.MTS</name>
                <file id="file-334"/>
                <sourcetrack>
                  <mediatype>audio</mediatype>
                  <trackindex>1</trackindex>
                </sourcetrack>
                <link>
                  <linkclipref>clipitem-1012</linkclipref>
                  <mediatype>video</mediatype>
                  <trackindex>1</trackindex>
                  <clipindex>1</clipindex>
                </link>
                <link>
                  <linkclipref>clipitem-1013</linkclipref>
                  <mediatype>audio</mediatype>
                  <trackindex>1</trackindex>
                  <clipindex>1</clipindex>
                  <groupindex>1</groupindex>
                </link>
                <link>
                  <linkclipref>clipitem-1014</linkclipref>
                  <mediatype>audio</mediatype>
                  <trackindex>2</trackindex>
                  <clipindex>1</clipindex>
                  <groupindex>1</groupindex>
                </link>
              </clipitem>
            </track>
            <track>
              <clipitem id="clipitem-1014" frameBlend="FALSE">
                <masterclipid>masterclip-334</masterclipid>
                <name>00557.MTS</name>
                <file id="file-334"/>
                <sourcetrack>
                  <mediatype>audio</mediatype>
                  <trackindex>2</trackindex>
                </sourcetrack>
                <link>
                  <linkclipref>clipitem-1012</linkclipref>
                  <mediatype>video</mediatype>
                  <trackindex>1</trackindex>
                  <clipindex>1</clipindex>
                </link>
                <link>
                  <linkclipref>clipitem-1013</linkclipref>
                  <mediatype>audio</mediatype>
                  <trackindex>1</trackindex>
                  <clipindex>1</clipindex>
                  <groupindex>1</groupindex>
                </link>
                <link>
                  <linkclipref>clipitem-1014</linkclipref>
                  <mediatype>audio</mediatype>
                  <trackindex>2</trackindex>
                  <clipindex>1</clipindex>
                  <groupindex>1</groupindex>
                </link>
              </clipitem>
            </track>
          </audio>
        </media>
        <logginginfo>
          <description/>
          <scene/>
          <shottake/>
          <lognote/>
        </logginginfo>
      </clip>
      <clip id="masterclip-335" frameBlend="FALSE">
        <uuid>60ba4636-6753-4569-83a0-326b4050c9b4</uuid>
        <masterclipid>masterclip-335</masterclipid>
        <ismasterclip>TRUE</ismasterclip>
        <duration>193</duration>
        <rate>
          <timebase>24</timebase>
          <ntsc>TRUE</ntsc>
        </rate>
        <name>00558.MTS</name>
        <media>
          <video>
            <track>
              <clipitem id="clipitem-1015" frameBlend="FALSE">
                <masterclipid>masterclip-335</masterclipid>
                <name>00558.MTS</name>
                <alphatype>black</alphatype>
                <pixelaspectratio>square</pixelaspectratio>
                <anamorphic>FALSE</anamorphic>
                <file id="file-335">
                  <name>00558.MTS</name>
                  <pathurl>file://localhost/Volumes/Macintosh%20HD/Users/jacksongs/Desktop/STREAM/00558.MTS</pathurl>
                  <rate>
                    <timebase>24</timebase>
                    <ntsc>TRUE</ntsc>
                  </rate>
                  <duration>193</duration>
                  <timecode>
                    <rate>
                      <timebase>24</timebase>
                      <ntsc>TRUE</ntsc>
                    </rate>
                    <string>00:00:00:00</string>
                    <frame>0</frame>
                    <displayformat>NDF</displayformat>
                    <reel>
                      <name/>
                    </reel>
                  </timecode>
                  <media>
                    <video>
                      <duration>18000</duration>
                      <samplecharacteristics>
                        <rate>
                          <timebase>24</timebase>
                          <ntsc>TRUE</ntsc>
                        </rate>
                        <width>1920</width>
                        <height>1080</height>
                        <anamorphic>FALSE</anamorphic>
                        <pixelaspectratio>square</pixelaspectratio>
                        <fielddominance>none</fielddominance>
                      </samplecharacteristics>
                    </video>
                    <audio>
                      <samplecharacteristics>
                        <depth>16</depth>
                        <samplerate>48000</samplerate>
                      </samplecharacteristics>
                      <channelcount>2</channelcount>
                    </audio>
                  </media>
                </file>
                <link>
                  <linkclipref>clipitem-1015</linkclipref>
                  <mediatype>video</mediatype>
                  <trackindex>1</trackindex>
                  <clipindex>1</clipindex>
                </link>
                <link>
                  <linkclipref>clipitem-1016</linkclipref>
                  <mediatype>audio</mediatype>
                  <trackindex>1</trackindex>
                  <clipindex>1</clipindex>
                  <groupindex>1</groupindex>
                </link>
                <link>
                  <linkclipref>clipitem-1017</linkclipref>
                  <mediatype>audio</mediatype>
                  <trackindex>2</trackindex>
                  <clipindex>1</clipindex>
                  <groupindex>1</groupindex>
                </link>
              </clipitem>
            </track>
          </video>
          <audio>
            <track>
              <clipitem id="clipitem-1016" frameBlend="FALSE">
                <masterclipid>masterclip-335</masterclipid>
                <name>00558.MTS</name>
                <file id="file-335"/>
                <sourcetrack>
                  <mediatype>audio</mediatype>
                  <trackindex>1</trackindex>
                </sourcetrack>
                <link>
                  <linkclipref>clipitem-1015</linkclipref>
                  <mediatype>video</mediatype>
                  <trackindex>1</trackindex>
                  <clipindex>1</clipindex>
                </link>
                <link>
                  <linkclipref>clipitem-1016</linkclipref>
                  <mediatype>audio</mediatype>
                  <trackindex>1</trackindex>
                  <clipindex>1</clipindex>
                  <groupindex>1</groupindex>
                </link>
                <link>
                  <linkclipref>clipitem-1017</linkclipref>
                  <mediatype>audio</mediatype>
                  <trackindex>2</trackindex>
                  <clipindex>1</clipindex>
                  <groupindex>1</groupindex>
                </link>
              </clipitem>
            </track>
            <track>
              <clipitem id="clipitem-1017" frameBlend="FALSE">
                <masterclipid>masterclip-335</masterclipid>
                <name>00558.MTS</name>
                <file id="file-335"/>
                <sourcetrack>
                  <mediatype>audio</mediatype>
                  <trackindex>2</trackindex>
                </sourcetrack>
                <link>
                  <linkclipref>clipitem-1015</linkclipref>
                  <mediatype>video</mediatype>
                  <trackindex>1</trackindex>
                  <clipindex>1</clipindex>
                </link>
                <link>
                  <linkclipref>clipitem-1016</linkclipref>
                  <mediatype>audio</mediatype>
                  <trackindex>1</trackindex>
                  <clipindex>1</clipindex>
                  <groupindex>1</groupindex>
                </link>
                <link>
                  <linkclipref>clipitem-1017</linkclipref>
                  <mediatype>audio</mediatype>
                  <trackindex>2</trackindex>
                  <clipindex>1</clipindex>
                  <groupindex>1</groupindex>
                </link>
              </clipitem>
            </track>
          </audio>
        </media>
        <logginginfo>
          <description/>
          <scene/>
          <shottake/>
          <lognote/>
        </logginginfo>
      </clip>
      <clip id="masterclip-336" frameBlend="FALSE">
        <uuid>b9dacd48-722a-40c5-be7f-dc7e617a4a4c</uuid>
        <masterclipid>masterclip-336</masterclipid>
        <ismasterclip>TRUE</ismasterclip>
        <duration>193</duration>
        <rate>
          <timebase>24</timebase>
          <ntsc>TRUE</ntsc>
        </rate>
        <name>00559.MTS</name>
        <media>
          <video>
            <track>
              <clipitem id="clipitem-1018" frameBlend="FALSE">
                <masterclipid>masterclip-336</masterclipid>
                <name>00559.MTS</name>
                <alphatype>black</alphatype>
                <pixelaspectratio>square</pixelaspectratio>
                <anamorphic>FALSE</anamorphic>
                <file id="file-336">
                  <name>00559.MTS</name>
                  <pathurl>file://localhost/Volumes/Macintosh%20HD/Users/jacksongs/Desktop/STREAM/00559.MTS</pathurl>
                  <rate>
                    <timebase>24</timebase>
                    <ntsc>TRUE</ntsc>
                  </rate>
                  <duration>193</duration>
                  <timecode>
                    <rate>
                      <timebase>24</timebase>
                      <ntsc>TRUE</ntsc>
                    </rate>
                    <string>00:00:00:00</string>
                    <frame>0</frame>
                    <displayformat>NDF</displayformat>
                    <reel>
                      <name/>
                    </reel>
                  </timecode>
                  <media>
                    <video>
                      <duration>18000</duration>
                      <samplecharacteristics>
                        <rate>
                          <timebase>24</timebase>
                          <ntsc>TRUE</ntsc>
                        </rate>
                        <width>1920</width>
                        <height>1080</height>
                        <anamorphic>FALSE</anamorphic>
                        <pixelaspectratio>square</pixelaspectratio>
                        <fielddominance>none</fielddominance>
                      </samplecharacteristics>
                    </video>
                    <audio>
                      <samplecharacteristics>
                        <depth>16</depth>
                        <samplerate>48000</samplerate>
                      </samplecharacteristics>
                      <channelcount>2</channelcount>
                    </audio>
                  </media>
                </file>
                <link>
                  <linkclipref>clipitem-1018</linkclipref>
                  <mediatype>video</mediatype>
                  <trackindex>1</trackindex>
                  <clipindex>1</clipindex>
                </link>
                <link>
                  <linkclipref>clipitem-1019</linkclipref>
                  <mediatype>audio</mediatype>
                  <trackindex>1</trackindex>
                  <clipindex>1</clipindex>
                  <groupindex>1</groupindex>
                </link>
                <link>
                  <linkclipref>clipitem-1020</linkclipref>
                  <mediatype>audio</mediatype>
                  <trackindex>2</trackindex>
                  <clipindex>1</clipindex>
                  <groupindex>1</groupindex>
                </link>
              </clipitem>
            </track>
          </video>
          <audio>
            <track>
              <clipitem id="clipitem-1019" frameBlend="FALSE">
                <masterclipid>masterclip-336</masterclipid>
                <name>00559.MTS</name>
                <file id="file-336"/>
                <sourcetrack>
                  <mediatype>audio</mediatype>
                  <trackindex>1</trackindex>
                </sourcetrack>
                <link>
                  <linkclipref>clipitem-1018</linkclipref>
                  <mediatype>video</mediatype>
                  <trackindex>1</trackindex>
                  <clipindex>1</clipindex>
                </link>
                <link>
                  <linkclipref>clipitem-1019</linkclipref>
                  <mediatype>audio</mediatype>
                  <trackindex>1</trackindex>
                  <clipindex>1</clipindex>
                  <groupindex>1</groupindex>
                </link>
                <link>
                  <linkclipref>clipitem-1020</linkclipref>
                  <mediatype>audio</mediatype>
                  <trackindex>2</trackindex>
                  <clipindex>1</clipindex>
                  <groupindex>1</groupindex>
                </link>
              </clipitem>
            </track>
            <track>
              <clipitem id="clipitem-1020" frameBlend="FALSE">
                <masterclipid>masterclip-336</masterclipid>
                <name>00559.MTS</name>
                <file id="file-336"/>
                <sourcetrack>
                  <mediatype>audio</mediatype>
                  <trackindex>2</trackindex>
                </sourcetrack>
                <link>
                  <linkclipref>clipitem-1018</linkclipref>
                  <mediatype>video</mediatype>
                  <trackindex>1</trackindex>
                  <clipindex>1</clipindex>
                </link>
                <link>
                  <linkclipref>clipitem-1019</linkclipref>
                  <mediatype>audio</mediatype>
                  <trackindex>1</trackindex>
                  <clipindex>1</clipindex>
                  <groupindex>1</groupindex>
                </link>
                <link>
                  <linkclipref>clipitem-1020</linkclipref>
                  <mediatype>audio</mediatype>
                  <trackindex>2</trackindex>
                  <clipindex>1</clipindex>
                  <groupindex>1</groupindex>
                </link>
              </clipitem>
            </track>
          </audio>
        </media>
        <logginginfo>
          <description/>
          <scene/>
          <shottake/>
          <lognote/>
        </logginginfo>
      </clip>
      <clip id="masterclip-337" frameBlend="FALSE">
        <uuid>e071cdba-594d-439e-a79f-823b35196fcd</uuid>
        <masterclipid>masterclip-337</masterclipid>
        <ismasterclip>TRUE</ismasterclip>
        <duration>397</duration>
        <rate>
          <timebase>24</timebase>
          <ntsc>TRUE</ntsc>
        </rate>
        <name>00560.MTS</name>
        <media>
          <video>
            <track>
              <clipitem id="clipitem-1021" frameBlend="FALSE">
                <masterclipid>masterclip-337</masterclipid>
                <name>00560.MTS</name>
                <alphatype>black</alphatype>
                <pixelaspectratio>square</pixelaspectratio>
                <anamorphic>FALSE</anamorphic>
                <file id="file-337">
                  <name>00560.MTS</name>
                  <pathurl>file://localhost/Volumes/Macintosh%20HD/Users/jacksongs/Desktop/STREAM/00560.MTS</pathurl>
                  <rate>
                    <timebase>24</timebase>
                    <ntsc>TRUE</ntsc>
                  </rate>
                  <duration>397</duration>
                  <timecode>
                    <rate>
                      <timebase>24</timebase>
                      <ntsc>TRUE</ntsc>
                    </rate>
                    <string>00:00:00:00</string>
                    <frame>0</frame>
                    <displayformat>NDF</displayformat>
                    <reel>
                      <name/>
                    </reel>
                  </timecode>
                  <media>
                    <video>
                      <duration>18000</duration>
                      <samplecharacteristics>
                        <rate>
                          <timebase>24</timebase>
                          <ntsc>TRUE</ntsc>
                        </rate>
                        <width>1920</width>
                        <height>1080</height>
                        <anamorphic>FALSE</anamorphic>
                        <pixelaspectratio>square</pixelaspectratio>
                        <fielddominance>none</fielddominance>
                      </samplecharacteristics>
                    </video>
                    <audio>
                      <samplecharacteristics>
                        <depth>16</depth>
                        <samplerate>48000</samplerate>
                      </samplecharacteristics>
                      <channelcount>2</channelcount>
                    </audio>
                  </media>
                </file>
                <link>
                  <linkclipref>clipitem-1021</linkclipref>
                  <mediatype>video</mediatype>
                  <trackindex>1</trackindex>
                  <clipindex>1</clipindex>
                </link>
                <link>
                  <linkclipref>clipitem-1022</linkclipref>
                  <mediatype>audio</mediatype>
                  <trackindex>1</trackindex>
                  <clipindex>1</clipindex>
                  <groupindex>1</groupindex>
                </link>
                <link>
                  <linkclipref>clipitem-1023</linkclipref>
                  <mediatype>audio</mediatype>
                  <trackindex>2</trackindex>
                  <clipindex>1</clipindex>
                  <groupindex>1</groupindex>
                </link>
              </clipitem>
            </track>
          </video>
          <audio>
            <track>
              <clipitem id="clipitem-1022" frameBlend="FALSE">
                <masterclipid>masterclip-337</masterclipid>
                <name>00560.MTS</name>
                <file id="file-337"/>
                <sourcetrack>
                  <mediatype>audio</mediatype>
                  <trackindex>1</trackindex>
                </sourcetrack>
                <link>
                  <linkclipref>clipitem-1021</linkclipref>
                  <mediatype>video</mediatype>
                  <trackindex>1</trackindex>
                  <clipindex>1</clipindex>
                </link>
                <link>
                  <linkclipref>clipitem-1022</linkclipref>
                  <mediatype>audio</mediatype>
                  <trackindex>1</trackindex>
                  <clipindex>1</clipindex>
                  <groupindex>1</groupindex>
                </link>
                <link>
                  <linkclipref>clipitem-1023</linkclipref>
                  <mediatype>audio</mediatype>
                  <trackindex>2</trackindex>
                  <clipindex>1</clipindex>
                  <groupindex>1</groupindex>
                </link>
              </clipitem>
            </track>
            <track>
              <clipitem id="clipitem-1023" frameBlend="FALSE">
                <masterclipid>masterclip-337</masterclipid>
                <name>00560.MTS</name>
                <file id="file-337"/>
                <sourcetrack>
                  <mediatype>audio</mediatype>
                  <trackindex>2</trackindex>
                </sourcetrack>
                <link>
                  <linkclipref>clipitem-1021</linkclipref>
                  <mediatype>video</mediatype>
                  <trackindex>1</trackindex>
                  <clipindex>1</clipindex>
                </link>
                <link>
                  <linkclipref>clipitem-1022</linkclipref>
                  <mediatype>audio</mediatype>
                  <trackindex>1</trackindex>
                  <clipindex>1</clipindex>
                  <groupindex>1</groupindex>
                </link>
                <link>
                  <linkclipref>clipitem-1023</linkclipref>
                  <mediatype>audio</mediatype>
                  <trackindex>2</trackindex>
                  <clipindex>1</clipindex>
                  <groupindex>1</groupindex>
                </link>
              </clipitem>
            </track>
          </audio>
        </media>
        <logginginfo>
          <description/>
          <scene/>
          <shottake/>
          <lognote/>
        </logginginfo>
      </clip>
      <clip id="masterclip-338" frameBlend="FALSE">
        <uuid>854aa542-de3d-4740-b903-ae65bbe5fa95</uuid>
        <masterclipid>masterclip-338</masterclipid>
        <ismasterclip>TRUE</ismasterclip>
        <duration>1549</duration>
        <rate>
          <timebase>24</timebase>
          <ntsc>TRUE</ntsc>
        </rate>
        <name>00561.MTS</name>
        <media>
          <video>
            <track>
              <clipitem id="clipitem-1024" frameBlend="FALSE">
                <masterclipid>masterclip-338</masterclipid>
                <name>00561.MTS</name>
                <alphatype>black</alphatype>
                <pixelaspectratio>square</pixelaspectratio>
                <anamorphic>FALSE</anamorphic>
                <file id="file-338">
                  <name>00561.MTS</name>
                  <pathurl>file://localhost/Volumes/Macintosh%20HD/Users/jacksongs/Desktop/STREAM/00561.MTS</pathurl>
                  <rate>
                    <timebase>24</timebase>
                    <ntsc>TRUE</ntsc>
                  </rate>
                  <duration>1549</duration>
                  <timecode>
                    <rate>
                      <timebase>24</timebase>
                      <ntsc>TRUE</ntsc>
                    </rate>
                    <string>00:00:00:00</string>
                    <frame>0</frame>
                    <displayformat>NDF</displayformat>
                    <reel>
                      <name/>
                    </reel>
                  </timecode>
                  <media>
                    <video>
                      <duration>18000</duration>
                      <samplecharacteristics>
                        <rate>
                          <timebase>24</timebase>
                          <ntsc>TRUE</ntsc>
                        </rate>
                        <width>1920</width>
                        <height>1080</height>
                        <anamorphic>FALSE</anamorphic>
                        <pixelaspectratio>square</pixelaspectratio>
                        <fielddominance>none</fielddominance>
                      </samplecharacteristics>
                    </video>
                    <audio>
                      <samplecharacteristics>
                        <depth>16</depth>
                        <samplerate>48000</samplerate>
                      </samplecharacteristics>
                      <channelcount>2</channelcount>
                    </audio>
                  </media>
                </file>
                <link>
                  <linkclipref>clipitem-1024</linkclipref>
                  <mediatype>video</mediatype>
                  <trackindex>1</trackindex>
                  <clipindex>1</clipindex>
                </link>
                <link>
                  <linkclipref>clipitem-1025</linkclipref>
                  <mediatype>audio</mediatype>
                  <trackindex>1</trackindex>
                  <clipindex>1</clipindex>
                  <groupindex>1</groupindex>
                </link>
                <link>
                  <linkclipref>clipitem-1026</linkclipref>
                  <mediatype>audio</mediatype>
                  <trackindex>2</trackindex>
                  <clipindex>1</clipindex>
                  <groupindex>1</groupindex>
                </link>
              </clipitem>
            </track>
          </video>
          <audio>
            <track>
              <clipitem id="clipitem-1025" frameBlend="FALSE">
                <masterclipid>masterclip-338</masterclipid>
                <name>00561.MTS</name>
                <file id="file-338"/>
                <sourcetrack>
                  <mediatype>audio</mediatype>
                  <trackindex>1</trackindex>
                </sourcetrack>
                <link>
                  <linkclipref>clipitem-1024</linkclipref>
                  <mediatype>video</mediatype>
                  <trackindex>1</trackindex>
                  <clipindex>1</clipindex>
                </link>
                <link>
                  <linkclipref>clipitem-1025</linkclipref>
                  <mediatype>audio</mediatype>
                  <trackindex>1</trackindex>
                  <clipindex>1</clipindex>
                  <groupindex>1</groupindex>
                </link>
                <link>
                  <linkclipref>clipitem-1026</linkclipref>
                  <mediatype>audio</mediatype>
                  <trackindex>2</trackindex>
                  <clipindex>1</clipindex>
                  <groupindex>1</groupindex>
                </link>
              </clipitem>
            </track>
            <track>
              <clipitem id="clipitem-1026" frameBlend="FALSE">
                <masterclipid>masterclip-338</masterclipid>
                <name>00561.MTS</name>
                <file id="file-338"/>
                <sourcetrack>
                  <mediatype>audio</mediatype>
                  <trackindex>2</trackindex>
                </sourcetrack>
                <link>
                  <linkclipref>clipitem-1024</linkclipref>
                  <mediatype>video</mediatype>
                  <trackindex>1</trackindex>
                  <clipindex>1</clipindex>
                </link>
                <link>
                  <linkclipref>clipitem-1025</linkclipref>
                  <mediatype>audio</mediatype>
                  <trackindex>1</trackindex>
                  <clipindex>1</clipindex>
                  <groupindex>1</groupindex>
                </link>
                <link>
                  <linkclipref>clipitem-1026</linkclipref>
                  <mediatype>audio</mediatype>
                  <trackindex>2</trackindex>
                  <clipindex>1</clipindex>
                  <groupindex>1</groupindex>
                </link>
              </clipitem>
            </track>
          </audio>
        </media>
        <logginginfo>
          <description/>
          <scene/>
          <shottake/>
          <lognote/>
        </logginginfo>
      </clip>
      <clip id="masterclip-339" frameBlend="FALSE">
        <uuid>a7228c31-6c7f-4c65-a5f2-df619d9dae17</uuid>
        <masterclipid>masterclip-339</masterclipid>
        <ismasterclip>TRUE</ismasterclip>
        <duration>337</duration>
        <rate>
          <timebase>24</timebase>
          <ntsc>TRUE</ntsc>
        </rate>
        <name>00562.MTS</name>
        <media>
          <video>
            <track>
              <clipitem id="clipitem-1027" frameBlend="FALSE">
                <masterclipid>masterclip-339</masterclipid>
                <name>00562.MTS</name>
                <alphatype>black</alphatype>
                <pixelaspectratio>square</pixelaspectratio>
                <anamorphic>FALSE</anamorphic>
                <file id="file-339">
                  <name>00562.MTS</name>
                  <pathurl>file://localhost/Volumes/Macintosh%20HD/Users/jacksongs/Desktop/STREAM/00562.MTS</pathurl>
                  <rate>
                    <timebase>24</timebase>
                    <ntsc>TRUE</ntsc>
                  </rate>
                  <duration>337</duration>
                  <timecode>
                    <rate>
                      <timebase>24</timebase>
                      <ntsc>TRUE</ntsc>
                    </rate>
                    <string>00:00:00:00</string>
                    <frame>0</frame>
                    <displayformat>NDF</displayformat>
                    <reel>
                      <name/>
                    </reel>
                  </timecode>
                  <media>
                    <video>
                      <duration>18000</duration>
                      <samplecharacteristics>
                        <rate>
                          <timebase>24</timebase>
                          <ntsc>TRUE</ntsc>
                        </rate>
                        <width>1920</width>
                        <height>1080</height>
                        <anamorphic>FALSE</anamorphic>
                        <pixelaspectratio>square</pixelaspectratio>
                        <fielddominance>none</fielddominance>
                      </samplecharacteristics>
                    </video>
                    <audio>
                      <samplecharacteristics>
                        <depth>16</depth>
                        <samplerate>48000</samplerate>
                      </samplecharacteristics>
                      <channelcount>2</channelcount>
                    </audio>
                  </media>
                </file>
                <link>
                  <linkclipref>clipitem-1027</linkclipref>
                  <mediatype>video</mediatype>
                  <trackindex>1</trackindex>
                  <clipindex>1</clipindex>
                </link>
                <link>
                  <linkclipref>clipitem-1028</linkclipref>
                  <mediatype>audio</mediatype>
                  <trackindex>1</trackindex>
                  <clipindex>1</clipindex>
                  <groupindex>1</groupindex>
                </link>
                <link>
                  <linkclipref>clipitem-1029</linkclipref>
                  <mediatype>audio</mediatype>
                  <trackindex>2</trackindex>
                  <clipindex>1</clipindex>
                  <groupindex>1</groupindex>
                </link>
              </clipitem>
            </track>
          </video>
          <audio>
            <track>
              <clipitem id="clipitem-1028" frameBlend="FALSE">
                <masterclipid>masterclip-339</masterclipid>
                <name>00562.MTS</name>
                <file id="file-339"/>
                <sourcetrack>
                  <mediatype>audio</mediatype>
                  <trackindex>1</trackindex>
                </sourcetrack>
                <link>
                  <linkclipref>clipitem-1027</linkclipref>
                  <mediatype>video</mediatype>
                  <trackindex>1</trackindex>
                  <clipindex>1</clipindex>
                </link>
                <link>
                  <linkclipref>clipitem-1028</linkclipref>
                  <mediatype>audio</mediatype>
                  <trackindex>1</trackindex>
                  <clipindex>1</clipindex>
                  <groupindex>1</groupindex>
                </link>
                <link>
                  <linkclipref>clipitem-1029</linkclipref>
                  <mediatype>audio</mediatype>
                  <trackindex>2</trackindex>
                  <clipindex>1</clipindex>
                  <groupindex>1</groupindex>
                </link>
              </clipitem>
            </track>
            <track>
              <clipitem id="clipitem-1029" frameBlend="FALSE">
                <masterclipid>masterclip-339</masterclipid>
                <name>00562.MTS</name>
                <file id="file-339"/>
                <sourcetrack>
                  <mediatype>audio</mediatype>
                  <trackindex>2</trackindex>
                </sourcetrack>
                <link>
                  <linkclipref>clipitem-1027</linkclipref>
                  <mediatype>video</mediatype>
                  <trackindex>1</trackindex>
                  <clipindex>1</clipindex>
                </link>
                <link>
                  <linkclipref>clipitem-1028</linkclipref>
                  <mediatype>audio</mediatype>
                  <trackindex>1</trackindex>
                  <clipindex>1</clipindex>
                  <groupindex>1</groupindex>
                </link>
                <link>
                  <linkclipref>clipitem-1029</linkclipref>
                  <mediatype>audio</mediatype>
                  <trackindex>2</trackindex>
                  <clipindex>1</clipindex>
                  <groupindex>1</groupindex>
                </link>
              </clipitem>
            </track>
          </audio>
        </media>
        <logginginfo>
          <description/>
          <scene/>
          <shottake/>
          <lognote/>
        </logginginfo>
      </clip>
      <clip id="masterclip-340" frameBlend="FALSE">
        <uuid>9882149d-eaa5-4af4-a1ce-edb9a2e7a126</uuid>
        <masterclipid>masterclip-340</masterclipid>
        <ismasterclip>TRUE</ismasterclip>
        <duration>157</duration>
        <rate>
          <timebase>24</timebase>
          <ntsc>TRUE</ntsc>
        </rate>
        <name>00563.MTS</name>
        <media>
          <video>
            <track>
              <clipitem id="clipitem-1030" frameBlend="FALSE">
                <masterclipid>masterclip-340</masterclipid>
                <name>00563.MTS</name>
                <alphatype>black</alphatype>
                <pixelaspectratio>square</pixelaspectratio>
                <anamorphic>FALSE</anamorphic>
                <file id="file-340">
                  <name>00563.MTS</name>
                  <pathurl>file://localhost/Volumes/Macintosh%20HD/Users/jacksongs/Desktop/STREAM/00563.MTS</pathurl>
                  <rate>
                    <timebase>24</timebase>
                    <ntsc>TRUE</ntsc>
                  </rate>
                  <duration>157</duration>
                  <timecode>
                    <rate>
                      <timebase>24</timebase>
                      <ntsc>TRUE</ntsc>
                    </rate>
                    <string>00:00:00:00</string>
                    <frame>0</frame>
                    <displayformat>NDF</displayformat>
                    <reel>
                      <name/>
                    </reel>
                  </timecode>
                  <media>
                    <video>
                      <duration>18000</duration>
                      <samplecharacteristics>
                        <rate>
                          <timebase>24</timebase>
                          <ntsc>TRUE</ntsc>
                        </rate>
                        <width>1920</width>
                        <height>1080</height>
                        <anamorphic>FALSE</anamorphic>
                        <pixelaspectratio>square</pixelaspectratio>
                        <fielddominance>none</fielddominance>
                      </samplecharacteristics>
                    </video>
                    <audio>
                      <samplecharacteristics>
                        <depth>16</depth>
                        <samplerate>48000</samplerate>
                      </samplecharacteristics>
                      <channelcount>2</channelcount>
                    </audio>
                  </media>
                </file>
                <link>
                  <linkclipref>clipitem-1030</linkclipref>
                  <mediatype>video</mediatype>
                  <trackindex>1</trackindex>
                  <clipindex>1</clipindex>
                </link>
                <link>
                  <linkclipref>clipitem-1031</linkclipref>
                  <mediatype>audio</mediatype>
                  <trackindex>1</trackindex>
                  <clipindex>1</clipindex>
                  <groupindex>1</groupindex>
                </link>
                <link>
                  <linkclipref>clipitem-1032</linkclipref>
                  <mediatype>audio</mediatype>
                  <trackindex>2</trackindex>
                  <clipindex>1</clipindex>
                  <groupindex>1</groupindex>
                </link>
              </clipitem>
            </track>
          </video>
          <audio>
            <track>
              <clipitem id="clipitem-1031" frameBlend="FALSE">
                <masterclipid>masterclip-340</masterclipid>
                <name>00563.MTS</name>
                <file id="file-340"/>
                <sourcetrack>
                  <mediatype>audio</mediatype>
                  <trackindex>1</trackindex>
                </sourcetrack>
                <link>
                  <linkclipref>clipitem-1030</linkclipref>
                  <mediatype>video</mediatype>
                  <trackindex>1</trackindex>
                  <clipindex>1</clipindex>
                </link>
                <link>
                  <linkclipref>clipitem-1031</linkclipref>
                  <mediatype>audio</mediatype>
                  <trackindex>1</trackindex>
                  <clipindex>1</clipindex>
                  <groupindex>1</groupindex>
                </link>
                <link>
                  <linkclipref>clipitem-1032</linkclipref>
                  <mediatype>audio</mediatype>
                  <trackindex>2</trackindex>
                  <clipindex>1</clipindex>
                  <groupindex>1</groupindex>
                </link>
              </clipitem>
            </track>
            <track>
              <clipitem id="clipitem-1032" frameBlend="FALSE">
                <masterclipid>masterclip-340</masterclipid>
                <name>00563.MTS</name>
                <file id="file-340"/>
                <sourcetrack>
                  <mediatype>audio</mediatype>
                  <trackindex>2</trackindex>
                </sourcetrack>
                <link>
                  <linkclipref>clipitem-1030</linkclipref>
                  <mediatype>video</mediatype>
                  <trackindex>1</trackindex>
                  <clipindex>1</clipindex>
                </link>
                <link>
                  <linkclipref>clipitem-1031</linkclipref>
                  <mediatype>audio</mediatype>
                  <trackindex>1</trackindex>
                  <clipindex>1</clipindex>
                  <groupindex>1</groupindex>
                </link>
                <link>
                  <linkclipref>clipitem-1032</linkclipref>
                  <mediatype>audio</mediatype>
                  <trackindex>2</trackindex>
                  <clipindex>1</clipindex>
                  <groupindex>1</groupindex>
                </link>
              </clipitem>
            </track>
          </audio>
        </media>
        <logginginfo>
          <description/>
          <scene/>
          <shottake/>
          <lognote/>
        </logginginfo>
      </clip>
      <clip id="masterclip-341" frameBlend="FALSE">
        <uuid>ea5ad7cb-1db5-44fd-a8db-0749115ea923</uuid>
        <masterclipid>masterclip-341</masterclipid>
        <ismasterclip>TRUE</ismasterclip>
        <duration>169</duration>
        <rate>
          <timebase>24</timebase>
          <ntsc>TRUE</ntsc>
        </rate>
        <name>00564.MTS</name>
        <media>
          <video>
            <track>
              <clipitem id="clipitem-1033" frameBlend="FALSE">
                <masterclipid>masterclip-341</masterclipid>
                <name>00564.MTS</name>
                <alphatype>black</alphatype>
                <pixelaspectratio>square</pixelaspectratio>
                <anamorphic>FALSE</anamorphic>
                <file id="file-341">
                  <name>00564.MTS</name>
                  <pathurl>file://localhost/Volumes/Macintosh%20HD/Users/jacksongs/Desktop/STREAM/00564.MTS</pathurl>
                  <rate>
                    <timebase>24</timebase>
                    <ntsc>TRUE</ntsc>
                  </rate>
                  <duration>169</duration>
                  <timecode>
                    <rate>
                      <timebase>24</timebase>
                      <ntsc>TRUE</ntsc>
                    </rate>
                    <string>00:00:00:00</string>
                    <frame>0</frame>
                    <displayformat>NDF</displayformat>
                    <reel>
                      <name/>
                    </reel>
                  </timecode>
                  <media>
                    <video>
                      <duration>18000</duration>
                      <samplecharacteristics>
                        <rate>
                          <timebase>24</timebase>
                          <ntsc>TRUE</ntsc>
                        </rate>
                        <width>1920</width>
                        <height>1080</height>
                        <anamorphic>FALSE</anamorphic>
                        <pixelaspectratio>square</pixelaspectratio>
                        <fielddominance>none</fielddominance>
                      </samplecharacteristics>
                    </video>
                    <audio>
                      <samplecharacteristics>
                        <depth>16</depth>
                        <samplerate>48000</samplerate>
                      </samplecharacteristics>
                      <channelcount>2</channelcount>
                    </audio>
                  </media>
                </file>
                <link>
                  <linkclipref>clipitem-1033</linkclipref>
                  <mediatype>video</mediatype>
                  <trackindex>1</trackindex>
                  <clipindex>1</clipindex>
                </link>
                <link>
                  <linkclipref>clipitem-1034</linkclipref>
                  <mediatype>audio</mediatype>
                  <trackindex>1</trackindex>
                  <clipindex>1</clipindex>
                  <groupindex>1</groupindex>
                </link>
                <link>
                  <linkclipref>clipitem-1035</linkclipref>
                  <mediatype>audio</mediatype>
                  <trackindex>2</trackindex>
                  <clipindex>1</clipindex>
                  <groupindex>1</groupindex>
                </link>
              </clipitem>
            </track>
          </video>
          <audio>
            <track>
              <clipitem id="clipitem-1034" frameBlend="FALSE">
                <masterclipid>masterclip-341</masterclipid>
                <name>00564.MTS</name>
                <file id="file-341"/>
                <sourcetrack>
                  <mediatype>audio</mediatype>
                  <trackindex>1</trackindex>
                </sourcetrack>
                <link>
                  <linkclipref>clipitem-1033</linkclipref>
                  <mediatype>video</mediatype>
                  <trackindex>1</trackindex>
                  <clipindex>1</clipindex>
                </link>
                <link>
                  <linkclipref>clipitem-1034</linkclipref>
                  <mediatype>audio</mediatype>
                  <trackindex>1</trackindex>
                  <clipindex>1</clipindex>
                  <groupindex>1</groupindex>
                </link>
                <link>
                  <linkclipref>clipitem-1035</linkclipref>
                  <mediatype>audio</mediatype>
                  <trackindex>2</trackindex>
                  <clipindex>1</clipindex>
                  <groupindex>1</groupindex>
                </link>
              </clipitem>
            </track>
            <track>
              <clipitem id="clipitem-1035" frameBlend="FALSE">
                <masterclipid>masterclip-341</masterclipid>
                <name>00564.MTS</name>
                <file id="file-341"/>
                <sourcetrack>
                  <mediatype>audio</mediatype>
                  <trackindex>2</trackindex>
                </sourcetrack>
                <link>
                  <linkclipref>clipitem-1033</linkclipref>
                  <mediatype>video</mediatype>
                  <trackindex>1</trackindex>
                  <clipindex>1</clipindex>
                </link>
                <link>
                  <linkclipref>clipitem-1034</linkclipref>
                  <mediatype>audio</mediatype>
                  <trackindex>1</trackindex>
                  <clipindex>1</clipindex>
                  <groupindex>1</groupindex>
                </link>
                <link>
                  <linkclipref>clipitem-1035</linkclipref>
                  <mediatype>audio</mediatype>
                  <trackindex>2</trackindex>
                  <clipindex>1</clipindex>
                  <groupindex>1</groupindex>
                </link>
              </clipitem>
            </track>
          </audio>
        </media>
        <logginginfo>
          <description/>
          <scene/>
          <shottake/>
          <lognote/>
        </logginginfo>
      </clip>
      <clip id="masterclip-342" frameBlend="FALSE">
        <uuid>c63b9f3d-06cc-4a41-93a3-921d0db35f1f</uuid>
        <masterclipid>masterclip-342</masterclipid>
        <ismasterclip>TRUE</ismasterclip>
        <duration>313</duration>
        <rate>
          <timebase>24</timebase>
          <ntsc>TRUE</ntsc>
        </rate>
        <name>00565.MTS</name>
        <media>
          <video>
            <track>
              <clipitem id="clipitem-1036" frameBlend="FALSE">
                <masterclipid>masterclip-342</masterclipid>
                <name>00565.MTS</name>
                <alphatype>black</alphatype>
                <pixelaspectratio>square</pixelaspectratio>
                <anamorphic>FALSE</anamorphic>
                <file id="file-342">
                  <name>00565.MTS</name>
                  <pathurl>file://localhost/Volumes/Macintosh%20HD/Users/jacksongs/Desktop/STREAM/00565.MTS</pathurl>
                  <rate>
                    <timebase>24</timebase>
                    <ntsc>TRUE</ntsc>
                  </rate>
                  <duration>313</duration>
                  <timecode>
                    <rate>
                      <timebase>24</timebase>
                      <ntsc>TRUE</ntsc>
                    </rate>
                    <string>00:00:00:00</string>
                    <frame>0</frame>
                    <displayformat>NDF</displayformat>
                    <reel>
                      <name/>
                    </reel>
                  </timecode>
                  <media>
                    <video>
                      <duration>18000</duration>
                      <samplecharacteristics>
                        <rate>
                          <timebase>24</timebase>
                          <ntsc>TRUE</ntsc>
                        </rate>
                        <width>1920</width>
                        <height>1080</height>
                        <anamorphic>FALSE</anamorphic>
                        <pixelaspectratio>square</pixelaspectratio>
                        <fielddominance>none</fielddominance>
                      </samplecharacteristics>
                    </video>
                    <audio>
                      <samplecharacteristics>
                        <depth>16</depth>
                        <samplerate>48000</samplerate>
                      </samplecharacteristics>
                      <channelcount>2</channelcount>
                    </audio>
                  </media>
                </file>
                <link>
                  <linkclipref>clipitem-1036</linkclipref>
                  <mediatype>video</mediatype>
                  <trackindex>1</trackindex>
                  <clipindex>1</clipindex>
                </link>
                <link>
                  <linkclipref>clipitem-1037</linkclipref>
                  <mediatype>audio</mediatype>
                  <trackindex>1</trackindex>
                  <clipindex>1</clipindex>
                  <groupindex>1</groupindex>
                </link>
                <link>
                  <linkclipref>clipitem-1038</linkclipref>
                  <mediatype>audio</mediatype>
                  <trackindex>2</trackindex>
                  <clipindex>1</clipindex>
                  <groupindex>1</groupindex>
                </link>
              </clipitem>
            </track>
          </video>
          <audio>
            <track>
              <clipitem id="clipitem-1037" frameBlend="FALSE">
                <masterclipid>masterclip-342</masterclipid>
                <name>00565.MTS</name>
                <file id="file-342"/>
                <sourcetrack>
                  <mediatype>audio</mediatype>
                  <trackindex>1</trackindex>
                </sourcetrack>
                <link>
                  <linkclipref>clipitem-1036</linkclipref>
                  <mediatype>video</mediatype>
                  <trackindex>1</trackindex>
                  <clipindex>1</clipindex>
                </link>
                <link>
                  <linkclipref>clipitem-1037</linkclipref>
                  <mediatype>audio</mediatype>
                  <trackindex>1</trackindex>
                  <clipindex>1</clipindex>
                  <groupindex>1</groupindex>
                </link>
                <link>
                  <linkclipref>clipitem-1038</linkclipref>
                  <mediatype>audio</mediatype>
                  <trackindex>2</trackindex>
                  <clipindex>1</clipindex>
                  <groupindex>1</groupindex>
                </link>
              </clipitem>
            </track>
            <track>
              <clipitem id="clipitem-1038" frameBlend="FALSE">
                <masterclipid>masterclip-342</masterclipid>
                <name>00565.MTS</name>
                <file id="file-342"/>
                <sourcetrack>
                  <mediatype>audio</mediatype>
                  <trackindex>2</trackindex>
                </sourcetrack>
                <link>
                  <linkclipref>clipitem-1036</linkclipref>
                  <mediatype>video</mediatype>
                  <trackindex>1</trackindex>
                  <clipindex>1</clipindex>
                </link>
                <link>
                  <linkclipref>clipitem-1037</linkclipref>
                  <mediatype>audio</mediatype>
                  <trackindex>1</trackindex>
                  <clipindex>1</clipindex>
                  <groupindex>1</groupindex>
                </link>
                <link>
                  <linkclipref>clipitem-1038</linkclipref>
                  <mediatype>audio</mediatype>
                  <trackindex>2</trackindex>
                  <clipindex>1</clipindex>
                  <groupindex>1</groupindex>
                </link>
              </clipitem>
            </track>
          </audio>
        </media>
        <logginginfo>
          <description/>
          <scene/>
          <shottake/>
          <lognote/>
        </logginginfo>
      </clip>
      <clip id="masterclip-343" frameBlend="FALSE">
        <uuid>a72dc39b-8074-42e6-b65b-b57437174260</uuid>
        <masterclipid>masterclip-343</masterclipid>
        <ismasterclip>TRUE</ismasterclip>
        <duration>337</duration>
        <rate>
          <timebase>24</timebase>
          <ntsc>TRUE</ntsc>
        </rate>
        <name>00566.MTS</name>
        <media>
          <video>
            <track>
              <clipitem id="clipitem-1039" frameBlend="FALSE">
                <masterclipid>masterclip-343</masterclipid>
                <name>00566.MTS</name>
                <alphatype>black</alphatype>
                <pixelaspectratio>square</pixelaspectratio>
                <anamorphic>FALSE</anamorphic>
                <file id="file-343">
                  <name>00566.MTS</name>
                  <pathurl>file://localhost/Volumes/Macintosh%20HD/Users/jacksongs/Desktop/STREAM/00566.MTS</pathurl>
                  <rate>
                    <timebase>24</timebase>
                    <ntsc>TRUE</ntsc>
                  </rate>
                  <duration>337</duration>
                  <timecode>
                    <rate>
                      <timebase>24</timebase>
                      <ntsc>TRUE</ntsc>
                    </rate>
                    <string>00:00:00:00</string>
                    <frame>0</frame>
                    <displayformat>NDF</displayformat>
                    <reel>
                      <name/>
                    </reel>
                  </timecode>
                  <media>
                    <video>
                      <duration>18000</duration>
                      <samplecharacteristics>
                        <rate>
                          <timebase>24</timebase>
                          <ntsc>TRUE</ntsc>
                        </rate>
                        <width>1920</width>
                        <height>1080</height>
                        <anamorphic>FALSE</anamorphic>
                        <pixelaspectratio>square</pixelaspectratio>
                        <fielddominance>none</fielddominance>
                      </samplecharacteristics>
                    </video>
                    <audio>
                      <samplecharacteristics>
                        <depth>16</depth>
                        <samplerate>48000</samplerate>
                      </samplecharacteristics>
                      <channelcount>2</channelcount>
                    </audio>
                  </media>
                </file>
                <link>
                  <linkclipref>clipitem-1039</linkclipref>
                  <mediatype>video</mediatype>
                  <trackindex>1</trackindex>
                  <clipindex>1</clipindex>
                </link>
                <link>
                  <linkclipref>clipitem-1040</linkclipref>
                  <mediatype>audio</mediatype>
                  <trackindex>1</trackindex>
                  <clipindex>1</clipindex>
                  <groupindex>1</groupindex>
                </link>
                <link>
                  <linkclipref>clipitem-1041</linkclipref>
                  <mediatype>audio</mediatype>
                  <trackindex>2</trackindex>
                  <clipindex>1</clipindex>
                  <groupindex>1</groupindex>
                </link>
              </clipitem>
            </track>
          </video>
          <audio>
            <track>
              <clipitem id="clipitem-1040" frameBlend="FALSE">
                <masterclipid>masterclip-343</masterclipid>
                <name>00566.MTS</name>
                <file id="file-343"/>
                <sourcetrack>
                  <mediatype>audio</mediatype>
                  <trackindex>1</trackindex>
                </sourcetrack>
                <link>
                  <linkclipref>clipitem-1039</linkclipref>
                  <mediatype>video</mediatype>
                  <trackindex>1</trackindex>
                  <clipindex>1</clipindex>
                </link>
                <link>
                  <linkclipref>clipitem-1040</linkclipref>
                  <mediatype>audio</mediatype>
                  <trackindex>1</trackindex>
                  <clipindex>1</clipindex>
                  <groupindex>1</groupindex>
                </link>
                <link>
                  <linkclipref>clipitem-1041</linkclipref>
                  <mediatype>audio</mediatype>
                  <trackindex>2</trackindex>
                  <clipindex>1</clipindex>
                  <groupindex>1</groupindex>
                </link>
              </clipitem>
            </track>
            <track>
              <clipitem id="clipitem-1041" frameBlend="FALSE">
                <masterclipid>masterclip-343</masterclipid>
                <name>00566.MTS</name>
                <file id="file-343"/>
                <sourcetrack>
                  <mediatype>audio</mediatype>
                  <trackindex>2</trackindex>
                </sourcetrack>
                <link>
                  <linkclipref>clipitem-1039</linkclipref>
                  <mediatype>video</mediatype>
                  <trackindex>1</trackindex>
                  <clipindex>1</clipindex>
                </link>
                <link>
                  <linkclipref>clipitem-1040</linkclipref>
                  <mediatype>audio</mediatype>
                  <trackindex>1</trackindex>
                  <clipindex>1</clipindex>
                  <groupindex>1</groupindex>
                </link>
                <link>
                  <linkclipref>clipitem-1041</linkclipref>
                  <mediatype>audio</mediatype>
                  <trackindex>2</trackindex>
                  <clipindex>1</clipindex>
                  <groupindex>1</groupindex>
                </link>
              </clipitem>
            </track>
          </audio>
        </media>
        <logginginfo>
          <description/>
          <scene/>
          <shottake/>
          <lognote/>
        </logginginfo>
      </clip>
      <clip id="masterclip-344" frameBlend="FALSE">
        <uuid>a6711b1a-5466-443d-9015-38c01c93bb56</uuid>
        <masterclipid>masterclip-344</masterclipid>
        <ismasterclip>TRUE</ismasterclip>
        <duration>229</duration>
        <rate>
          <timebase>24</timebase>
          <ntsc>TRUE</ntsc>
        </rate>
        <name>00567.MTS</name>
        <media>
          <video>
            <track>
              <clipitem id="clipitem-1042" frameBlend="FALSE">
                <masterclipid>masterclip-344</masterclipid>
                <name>00567.MTS</name>
                <alphatype>black</alphatype>
                <pixelaspectratio>square</pixelaspectratio>
                <anamorphic>FALSE</anamorphic>
                <file id="file-344">
                  <name>00567.MTS</name>
                  <pathurl>file://localhost/Volumes/Macintosh%20HD/Users/jacksongs/Desktop/STREAM/00567.MTS</pathurl>
                  <rate>
                    <timebase>24</timebase>
                    <ntsc>TRUE</ntsc>
                  </rate>
                  <duration>229</duration>
                  <timecode>
                    <rate>
                      <timebase>24</timebase>
                      <ntsc>TRUE</ntsc>
                    </rate>
                    <string>00:00:00:00</string>
                    <frame>0</frame>
                    <displayformat>NDF</displayformat>
                    <reel>
                      <name/>
                    </reel>
                  </timecode>
                  <media>
                    <video>
                      <duration>18000</duration>
                      <samplecharacteristics>
                        <rate>
                          <timebase>24</timebase>
                          <ntsc>TRUE</ntsc>
                        </rate>
                        <width>1920</width>
                        <height>1080</height>
                        <anamorphic>FALSE</anamorphic>
                        <pixelaspectratio>square</pixelaspectratio>
                        <fielddominance>none</fielddominance>
                      </samplecharacteristics>
                    </video>
                    <audio>
                      <samplecharacteristics>
                        <depth>16</depth>
                        <samplerate>48000</samplerate>
                      </samplecharacteristics>
                      <channelcount>2</channelcount>
                    </audio>
                  </media>
                </file>
                <link>
                  <linkclipref>clipitem-1042</linkclipref>
                  <mediatype>video</mediatype>
                  <trackindex>1</trackindex>
                  <clipindex>1</clipindex>
                </link>
                <link>
                  <linkclipref>clipitem-1043</linkclipref>
                  <mediatype>audio</mediatype>
                  <trackindex>1</trackindex>
                  <clipindex>1</clipindex>
                  <groupindex>1</groupindex>
                </link>
                <link>
                  <linkclipref>clipitem-1044</linkclipref>
                  <mediatype>audio</mediatype>
                  <trackindex>2</trackindex>
                  <clipindex>1</clipindex>
                  <groupindex>1</groupindex>
                </link>
              </clipitem>
            </track>
          </video>
          <audio>
            <track>
              <clipitem id="clipitem-1043" frameBlend="FALSE">
                <masterclipid>masterclip-344</masterclipid>
                <name>00567.MTS</name>
                <file id="file-344"/>
                <sourcetrack>
                  <mediatype>audio</mediatype>
                  <trackindex>1</trackindex>
                </sourcetrack>
                <link>
                  <linkclipref>clipitem-1042</linkclipref>
                  <mediatype>video</mediatype>
                  <trackindex>1</trackindex>
                  <clipindex>1</clipindex>
                </link>
                <link>
                  <linkclipref>clipitem-1043</linkclipref>
                  <mediatype>audio</mediatype>
                  <trackindex>1</trackindex>
                  <clipindex>1</clipindex>
                  <groupindex>1</groupindex>
                </link>
                <link>
                  <linkclipref>clipitem-1044</linkclipref>
                  <mediatype>audio</mediatype>
                  <trackindex>2</trackindex>
                  <clipindex>1</clipindex>
                  <groupindex>1</groupindex>
                </link>
              </clipitem>
            </track>
            <track>
              <clipitem id="clipitem-1044" frameBlend="FALSE">
                <masterclipid>masterclip-344</masterclipid>
                <name>00567.MTS</name>
                <file id="file-344"/>
                <sourcetrack>
                  <mediatype>audio</mediatype>
                  <trackindex>2</trackindex>
                </sourcetrack>
                <link>
                  <linkclipref>clipitem-1042</linkclipref>
                  <mediatype>video</mediatype>
                  <trackindex>1</trackindex>
                  <clipindex>1</clipindex>
                </link>
                <link>
                  <linkclipref>clipitem-1043</linkclipref>
                  <mediatype>audio</mediatype>
                  <trackindex>1</trackindex>
                  <clipindex>1</clipindex>
                  <groupindex>1</groupindex>
                </link>
                <link>
                  <linkclipref>clipitem-1044</linkclipref>
                  <mediatype>audio</mediatype>
                  <trackindex>2</trackindex>
                  <clipindex>1</clipindex>
                  <groupindex>1</groupindex>
                </link>
              </clipitem>
            </track>
          </audio>
        </media>
        <logginginfo>
          <description/>
          <scene/>
          <shottake/>
          <lognote/>
        </logginginfo>
      </clip>
      <clip id="masterclip-345" frameBlend="FALSE">
        <uuid>db0ce1ee-2b5c-47fc-8138-2567f55202d8</uuid>
        <masterclipid>masterclip-345</masterclipid>
        <ismasterclip>TRUE</ismasterclip>
        <duration>277</duration>
        <rate>
          <timebase>24</timebase>
          <ntsc>TRUE</ntsc>
        </rate>
        <name>00568.MTS</name>
        <media>
          <video>
            <track>
              <clipitem id="clipitem-1045" frameBlend="FALSE">
                <masterclipid>masterclip-345</masterclipid>
                <name>00568.MTS</name>
                <alphatype>black</alphatype>
                <pixelaspectratio>square</pixelaspectratio>
                <anamorphic>FALSE</anamorphic>
                <file id="file-345">
                  <name>00568.MTS</name>
                  <pathurl>file://localhost/Volumes/Macintosh%20HD/Users/jacksongs/Desktop/STREAM/00568.MTS</pathurl>
                  <rate>
                    <timebase>24</timebase>
                    <ntsc>TRUE</ntsc>
                  </rate>
                  <duration>277</duration>
                  <timecode>
                    <rate>
                      <timebase>24</timebase>
                      <ntsc>TRUE</ntsc>
                    </rate>
                    <string>00:00:00:00</string>
                    <frame>0</frame>
                    <displayformat>NDF</displayformat>
                    <reel>
                      <name/>
                    </reel>
                  </timecode>
                  <media>
                    <video>
                      <duration>18000</duration>
                      <samplecharacteristics>
                        <rate>
                          <timebase>24</timebase>
                          <ntsc>TRUE</ntsc>
                        </rate>
                        <width>1920</width>
                        <height>1080</height>
                        <anamorphic>FALSE</anamorphic>
                        <pixelaspectratio>square</pixelaspectratio>
                        <fielddominance>none</fielddominance>
                      </samplecharacteristics>
                    </video>
                    <audio>
                      <samplecharacteristics>
                        <depth>16</depth>
                        <samplerate>48000</samplerate>
                      </samplecharacteristics>
                      <channelcount>2</channelcount>
                    </audio>
                  </media>
                </file>
                <link>
                  <linkclipref>clipitem-1045</linkclipref>
                  <mediatype>video</mediatype>
                  <trackindex>1</trackindex>
                  <clipindex>1</clipindex>
                </link>
                <link>
                  <linkclipref>clipitem-1046</linkclipref>
                  <mediatype>audio</mediatype>
                  <trackindex>1</trackindex>
                  <clipindex>1</clipindex>
                  <groupindex>1</groupindex>
                </link>
                <link>
                  <linkclipref>clipitem-1047</linkclipref>
                  <mediatype>audio</mediatype>
                  <trackindex>2</trackindex>
                  <clipindex>1</clipindex>
                  <groupindex>1</groupindex>
                </link>
              </clipitem>
            </track>
          </video>
          <audio>
            <track>
              <clipitem id="clipitem-1046" frameBlend="FALSE">
                <masterclipid>masterclip-345</masterclipid>
                <name>00568.MTS</name>
                <file id="file-345"/>
                <sourcetrack>
                  <mediatype>audio</mediatype>
                  <trackindex>1</trackindex>
                </sourcetrack>
                <link>
                  <linkclipref>clipitem-1045</linkclipref>
                  <mediatype>video</mediatype>
                  <trackindex>1</trackindex>
                  <clipindex>1</clipindex>
                </link>
                <link>
                  <linkclipref>clipitem-1046</linkclipref>
                  <mediatype>audio</mediatype>
                  <trackindex>1</trackindex>
                  <clipindex>1</clipindex>
                  <groupindex>1</groupindex>
                </link>
                <link>
                  <linkclipref>clipitem-1047</linkclipref>
                  <mediatype>audio</mediatype>
                  <trackindex>2</trackindex>
                  <clipindex>1</clipindex>
                  <groupindex>1</groupindex>
                </link>
              </clipitem>
            </track>
            <track>
              <clipitem id="clipitem-1047" frameBlend="FALSE">
                <masterclipid>masterclip-345</masterclipid>
                <name>00568.MTS</name>
                <file id="file-345"/>
                <sourcetrack>
                  <mediatype>audio</mediatype>
                  <trackindex>2</trackindex>
                </sourcetrack>
                <link>
                  <linkclipref>clipitem-1045</linkclipref>
                  <mediatype>video</mediatype>
                  <trackindex>1</trackindex>
                  <clipindex>1</clipindex>
                </link>
                <link>
                  <linkclipref>clipitem-1046</linkclipref>
                  <mediatype>audio</mediatype>
                  <trackindex>1</trackindex>
                  <clipindex>1</clipindex>
                  <groupindex>1</groupindex>
                </link>
                <link>
                  <linkclipref>clipitem-1047</linkclipref>
                  <mediatype>audio</mediatype>
                  <trackindex>2</trackindex>
                  <clipindex>1</clipindex>
                  <groupindex>1</groupindex>
                </link>
              </clipitem>
            </track>
          </audio>
        </media>
        <logginginfo>
          <description/>
          <scene/>
          <shottake/>
          <lognote/>
        </logginginfo>
      </clip>
      <clip id="masterclip-346" frameBlend="FALSE">
        <uuid>38d85589-4f10-4075-ab57-f02a0b60b901</uuid>
        <masterclipid>masterclip-346</masterclipid>
        <ismasterclip>TRUE</ismasterclip>
        <duration>241</duration>
        <rate>
          <timebase>24</timebase>
          <ntsc>TRUE</ntsc>
        </rate>
        <name>00569.MTS</name>
        <media>
          <video>
            <track>
              <clipitem id="clipitem-1048" frameBlend="FALSE">
                <masterclipid>masterclip-346</masterclipid>
                <name>00569.MTS</name>
                <alphatype>black</alphatype>
                <pixelaspectratio>square</pixelaspectratio>
                <anamorphic>FALSE</anamorphic>
                <file id="file-346">
                  <name>00569.MTS</name>
                  <pathurl>file://localhost/Volumes/Macintosh%20HD/Users/jacksongs/Desktop/STREAM/00569.MTS</pathurl>
                  <rate>
                    <timebase>24</timebase>
                    <ntsc>TRUE</ntsc>
                  </rate>
                  <duration>241</duration>
                  <timecode>
                    <rate>
                      <timebase>24</timebase>
                      <ntsc>TRUE</ntsc>
                    </rate>
                    <string>00:00:00:00</string>
                    <frame>0</frame>
                    <displayformat>NDF</displayformat>
                    <reel>
                      <name/>
                    </reel>
                  </timecode>
                  <media>
                    <video>
                      <duration>18000</duration>
                      <samplecharacteristics>
                        <rate>
                          <timebase>24</timebase>
                          <ntsc>TRUE</ntsc>
                        </rate>
                        <width>1920</width>
                        <height>1080</height>
                        <anamorphic>FALSE</anamorphic>
                        <pixelaspectratio>square</pixelaspectratio>
                        <fielddominance>none</fielddominance>
                      </samplecharacteristics>
                    </video>
                    <audio>
                      <samplecharacteristics>
                        <depth>16</depth>
                        <samplerate>48000</samplerate>
                      </samplecharacteristics>
                      <channelcount>2</channelcount>
                    </audio>
                  </media>
                </file>
                <link>
                  <linkclipref>clipitem-1048</linkclipref>
                  <mediatype>video</mediatype>
                  <trackindex>1</trackindex>
                  <clipindex>1</clipindex>
                </link>
                <link>
                  <linkclipref>clipitem-1049</linkclipref>
                  <mediatype>audio</mediatype>
                  <trackindex>1</trackindex>
                  <clipindex>1</clipindex>
                  <groupindex>1</groupindex>
                </link>
                <link>
                  <linkclipref>clipitem-1050</linkclipref>
                  <mediatype>audio</mediatype>
                  <trackindex>2</trackindex>
                  <clipindex>1</clipindex>
                  <groupindex>1</groupindex>
                </link>
              </clipitem>
            </track>
          </video>
          <audio>
            <track>
              <clipitem id="clipitem-1049" frameBlend="FALSE">
                <masterclipid>masterclip-346</masterclipid>
                <name>00569.MTS</name>
                <file id="file-346"/>
                <sourcetrack>
                  <mediatype>audio</mediatype>
                  <trackindex>1</trackindex>
                </sourcetrack>
                <link>
                  <linkclipref>clipitem-1048</linkclipref>
                  <mediatype>video</mediatype>
                  <trackindex>1</trackindex>
                  <clipindex>1</clipindex>
                </link>
                <link>
                  <linkclipref>clipitem-1049</linkclipref>
                  <mediatype>audio</mediatype>
                  <trackindex>1</trackindex>
                  <clipindex>1</clipindex>
                  <groupindex>1</groupindex>
                </link>
                <link>
                  <linkclipref>clipitem-1050</linkclipref>
                  <mediatype>audio</mediatype>
                  <trackindex>2</trackindex>
                  <clipindex>1</clipindex>
                  <groupindex>1</groupindex>
                </link>
              </clipitem>
            </track>
            <track>
              <clipitem id="clipitem-1050" frameBlend="FALSE">
                <masterclipid>masterclip-346</masterclipid>
                <name>00569.MTS</name>
                <file id="file-346"/>
                <sourcetrack>
                  <mediatype>audio</mediatype>
                  <trackindex>2</trackindex>
                </sourcetrack>
                <link>
                  <linkclipref>clipitem-1048</linkclipref>
                  <mediatype>video</mediatype>
                  <trackindex>1</trackindex>
                  <clipindex>1</clipindex>
                </link>
                <link>
                  <linkclipref>clipitem-1049</linkclipref>
                  <mediatype>audio</mediatype>
                  <trackindex>1</trackindex>
                  <clipindex>1</clipindex>
                  <groupindex>1</groupindex>
                </link>
                <link>
                  <linkclipref>clipitem-1050</linkclipref>
                  <mediatype>audio</mediatype>
                  <trackindex>2</trackindex>
                  <clipindex>1</clipindex>
                  <groupindex>1</groupindex>
                </link>
              </clipitem>
            </track>
          </audio>
        </media>
        <logginginfo>
          <description/>
          <scene/>
          <shottake/>
          <lognote/>
        </logginginfo>
      </clip>
      <clip id="masterclip-347" frameBlend="FALSE">
        <uuid>fd4c71d7-e8f7-41ca-9e78-326e193d3623</uuid>
        <masterclipid>masterclip-347</masterclipid>
        <ismasterclip>TRUE</ismasterclip>
        <duration>625</duration>
        <rate>
          <timebase>24</timebase>
          <ntsc>TRUE</ntsc>
        </rate>
        <name>00570.MTS</name>
        <media>
          <video>
            <track>
              <clipitem id="clipitem-1051" frameBlend="FALSE">
                <masterclipid>masterclip-347</masterclipid>
                <name>00570.MTS</name>
                <alphatype>black</alphatype>
                <pixelaspectratio>square</pixelaspectratio>
                <anamorphic>FALSE</anamorphic>
                <file id="file-347">
                  <name>00570.MTS</name>
                  <pathurl>file://localhost/Volumes/Macintosh%20HD/Users/jacksongs/Desktop/STREAM/00570.MTS</pathurl>
                  <rate>
                    <timebase>24</timebase>
                    <ntsc>TRUE</ntsc>
                  </rate>
                  <duration>625</duration>
                  <timecode>
                    <rate>
                      <timebase>24</timebase>
                      <ntsc>TRUE</ntsc>
                    </rate>
                    <string>00:00:00:00</string>
                    <frame>0</frame>
                    <displayformat>NDF</displayformat>
                    <reel>
                      <name/>
                    </reel>
                  </timecode>
                  <media>
                    <video>
                      <duration>18000</duration>
                      <samplecharacteristics>
                        <rate>
                          <timebase>24</timebase>
                          <ntsc>TRUE</ntsc>
                        </rate>
                        <width>1920</width>
                        <height>1080</height>
                        <anamorphic>FALSE</anamorphic>
                        <pixelaspectratio>square</pixelaspectratio>
                        <fielddominance>none</fielddominance>
                      </samplecharacteristics>
                    </video>
                    <audio>
                      <samplecharacteristics>
                        <depth>16</depth>
                        <samplerate>48000</samplerate>
                      </samplecharacteristics>
                      <channelcount>2</channelcount>
                    </audio>
                  </media>
                </file>
                <link>
                  <linkclipref>clipitem-1051</linkclipref>
                  <mediatype>video</mediatype>
                  <trackindex>1</trackindex>
                  <clipindex>1</clipindex>
                </link>
                <link>
                  <linkclipref>clipitem-1052</linkclipref>
                  <mediatype>audio</mediatype>
                  <trackindex>1</trackindex>
                  <clipindex>1</clipindex>
                  <groupindex>1</groupindex>
                </link>
                <link>
                  <linkclipref>clipitem-1053</linkclipref>
                  <mediatype>audio</mediatype>
                  <trackindex>2</trackindex>
                  <clipindex>1</clipindex>
                  <groupindex>1</groupindex>
                </link>
              </clipitem>
            </track>
          </video>
          <audio>
            <track>
              <clipitem id="clipitem-1052" frameBlend="FALSE">
                <masterclipid>masterclip-347</masterclipid>
                <name>00570.MTS</name>
                <file id="file-347"/>
                <sourcetrack>
                  <mediatype>audio</mediatype>
                  <trackindex>1</trackindex>
                </sourcetrack>
                <link>
                  <linkclipref>clipitem-1051</linkclipref>
                  <mediatype>video</mediatype>
                  <trackindex>1</trackindex>
                  <clipindex>1</clipindex>
                </link>
                <link>
                  <linkclipref>clipitem-1052</linkclipref>
                  <mediatype>audio</mediatype>
                  <trackindex>1</trackindex>
                  <clipindex>1</clipindex>
                  <groupindex>1</groupindex>
                </link>
                <link>
                  <linkclipref>clipitem-1053</linkclipref>
                  <mediatype>audio</mediatype>
                  <trackindex>2</trackindex>
                  <clipindex>1</clipindex>
                  <groupindex>1</groupindex>
                </link>
              </clipitem>
            </track>
            <track>
              <clipitem id="clipitem-1053" frameBlend="FALSE">
                <masterclipid>masterclip-347</masterclipid>
                <name>00570.MTS</name>
                <file id="file-347"/>
                <sourcetrack>
                  <mediatype>audio</mediatype>
                  <trackindex>2</trackindex>
                </sourcetrack>
                <link>
                  <linkclipref>clipitem-1051</linkclipref>
                  <mediatype>video</mediatype>
                  <trackindex>1</trackindex>
                  <clipindex>1</clipindex>
                </link>
                <link>
                  <linkclipref>clipitem-1052</linkclipref>
                  <mediatype>audio</mediatype>
                  <trackindex>1</trackindex>
                  <clipindex>1</clipindex>
                  <groupindex>1</groupindex>
                </link>
                <link>
                  <linkclipref>clipitem-1053</linkclipref>
                  <mediatype>audio</mediatype>
                  <trackindex>2</trackindex>
                  <clipindex>1</clipindex>
                  <groupindex>1</groupindex>
                </link>
              </clipitem>
            </track>
          </audio>
        </media>
        <logginginfo>
          <description/>
          <scene/>
          <shottake/>
          <lognote/>
        </logginginfo>
      </clip>
      <clip id="masterclip-348" frameBlend="FALSE">
        <uuid>1b508b87-c566-451f-b075-08e0ae414a3e</uuid>
        <masterclipid>masterclip-348</masterclipid>
        <ismasterclip>TRUE</ismasterclip>
        <duration>409</duration>
        <rate>
          <timebase>24</timebase>
          <ntsc>TRUE</ntsc>
        </rate>
        <name>00571.MTS</name>
        <media>
          <video>
            <track>
              <clipitem id="clipitem-1054" frameBlend="FALSE">
                <masterclipid>masterclip-348</masterclipid>
                <name>00571.MTS</name>
                <alphatype>black</alphatype>
                <pixelaspectratio>square</pixelaspectratio>
                <anamorphic>FALSE</anamorphic>
                <file id="file-348">
                  <name>00571.MTS</name>
                  <pathurl>file://localhost/Volumes/Macintosh%20HD/Users/jacksongs/Desktop/STREAM/00571.MTS</pathurl>
                  <rate>
                    <timebase>24</timebase>
                    <ntsc>TRUE</ntsc>
                  </rate>
                  <duration>409</duration>
                  <timecode>
                    <rate>
                      <timebase>24</timebase>
                      <ntsc>TRUE</ntsc>
                    </rate>
                    <string>00:00:00:00</string>
                    <frame>0</frame>
                    <displayformat>NDF</displayformat>
                    <reel>
                      <name/>
                    </reel>
                  </timecode>
                  <media>
                    <video>
                      <duration>18000</duration>
                      <samplecharacteristics>
                        <rate>
                          <timebase>24</timebase>
                          <ntsc>TRUE</ntsc>
                        </rate>
                        <width>1920</width>
                        <height>1080</height>
                        <anamorphic>FALSE</anamorphic>
                        <pixelaspectratio>square</pixelaspectratio>
                        <fielddominance>none</fielddominance>
                      </samplecharacteristics>
                    </video>
                    <audio>
                      <samplecharacteristics>
                        <depth>16</depth>
                        <samplerate>48000</samplerate>
                      </samplecharacteristics>
                      <channelcount>2</channelcount>
                    </audio>
                  </media>
                </file>
                <link>
                  <linkclipref>clipitem-1054</linkclipref>
                  <mediatype>video</mediatype>
                  <trackindex>1</trackindex>
                  <clipindex>1</clipindex>
                </link>
                <link>
                  <linkclipref>clipitem-1055</linkclipref>
                  <mediatype>audio</mediatype>
                  <trackindex>1</trackindex>
                  <clipindex>1</clipindex>
                  <groupindex>1</groupindex>
                </link>
                <link>
                  <linkclipref>clipitem-1056</linkclipref>
                  <mediatype>audio</mediatype>
                  <trackindex>2</trackindex>
                  <clipindex>1</clipindex>
                  <groupindex>1</groupindex>
                </link>
              </clipitem>
            </track>
          </video>
          <audio>
            <track>
              <clipitem id="clipitem-1055" frameBlend="FALSE">
                <masterclipid>masterclip-348</masterclipid>
                <name>00571.MTS</name>
                <file id="file-348"/>
                <sourcetrack>
                  <mediatype>audio</mediatype>
                  <trackindex>1</trackindex>
                </sourcetrack>
                <link>
                  <linkclipref>clipitem-1054</linkclipref>
                  <mediatype>video</mediatype>
                  <trackindex>1</trackindex>
                  <clipindex>1</clipindex>
                </link>
                <link>
                  <linkclipref>clipitem-1055</linkclipref>
                  <mediatype>audio</mediatype>
                  <trackindex>1</trackindex>
                  <clipindex>1</clipindex>
                  <groupindex>1</groupindex>
                </link>
                <link>
                  <linkclipref>clipitem-1056</linkclipref>
                  <mediatype>audio</mediatype>
                  <trackindex>2</trackindex>
                  <clipindex>1</clipindex>
                  <groupindex>1</groupindex>
                </link>
              </clipitem>
            </track>
            <track>
              <clipitem id="clipitem-1056" frameBlend="FALSE">
                <masterclipid>masterclip-348</masterclipid>
                <name>00571.MTS</name>
                <file id="file-348"/>
                <sourcetrack>
                  <mediatype>audio</mediatype>
                  <trackindex>2</trackindex>
                </sourcetrack>
                <link>
                  <linkclipref>clipitem-1054</linkclipref>
                  <mediatype>video</mediatype>
                  <trackindex>1</trackindex>
                  <clipindex>1</clipindex>
                </link>
                <link>
                  <linkclipref>clipitem-1055</linkclipref>
                  <mediatype>audio</mediatype>
                  <trackindex>1</trackindex>
                  <clipindex>1</clipindex>
                  <groupindex>1</groupindex>
                </link>
                <link>
                  <linkclipref>clipitem-1056</linkclipref>
                  <mediatype>audio</mediatype>
                  <trackindex>2</trackindex>
                  <clipindex>1</clipindex>
                  <groupindex>1</groupindex>
                </link>
              </clipitem>
            </track>
          </audio>
        </media>
        <logginginfo>
          <description/>
          <scene/>
          <shottake/>
          <lognote/>
        </logginginfo>
      </clip>
      <clip id="masterclip-349" frameBlend="FALSE">
        <uuid>cf88774d-f164-4905-8e4c-37c9e29ec0be</uuid>
        <masterclipid>masterclip-349</masterclipid>
        <ismasterclip>TRUE</ismasterclip>
        <duration>289</duration>
        <rate>
          <timebase>24</timebase>
          <ntsc>TRUE</ntsc>
        </rate>
        <name>00572.MTS</name>
        <media>
          <video>
            <track>
              <clipitem id="clipitem-1057" frameBlend="FALSE">
                <masterclipid>masterclip-349</masterclipid>
                <name>00572.MTS</name>
                <alphatype>black</alphatype>
                <pixelaspectratio>square</pixelaspectratio>
                <anamorphic>FALSE</anamorphic>
                <file id="file-349">
                  <name>00572.MTS</name>
                  <pathurl>file://localhost/Volumes/Macintosh%20HD/Users/jacksongs/Desktop/STREAM/00572.MTS</pathurl>
                  <rate>
                    <timebase>24</timebase>
                    <ntsc>TRUE</ntsc>
                  </rate>
                  <duration>289</duration>
                  <timecode>
                    <rate>
                      <timebase>24</timebase>
                      <ntsc>TRUE</ntsc>
                    </rate>
                    <string>00:00:00:00</string>
                    <frame>0</frame>
                    <displayformat>NDF</displayformat>
                    <reel>
                      <name/>
                    </reel>
                  </timecode>
                  <media>
                    <video>
                      <duration>18000</duration>
                      <samplecharacteristics>
                        <rate>
                          <timebase>24</timebase>
                          <ntsc>TRUE</ntsc>
                        </rate>
                        <width>1920</width>
                        <height>1080</height>
                        <anamorphic>FALSE</anamorphic>
                        <pixelaspectratio>square</pixelaspectratio>
                        <fielddominance>none</fielddominance>
                      </samplecharacteristics>
                    </video>
                    <audio>
                      <samplecharacteristics>
                        <depth>16</depth>
                        <samplerate>48000</samplerate>
                      </samplecharacteristics>
                      <channelcount>2</channelcount>
                    </audio>
                  </media>
                </file>
                <link>
                  <linkclipref>clipitem-1057</linkclipref>
                  <mediatype>video</mediatype>
                  <trackindex>1</trackindex>
                  <clipindex>1</clipindex>
                </link>
                <link>
                  <linkclipref>clipitem-1058</linkclipref>
                  <mediatype>audio</mediatype>
                  <trackindex>1</trackindex>
                  <clipindex>1</clipindex>
                  <groupindex>1</groupindex>
                </link>
                <link>
                  <linkclipref>clipitem-1059</linkclipref>
                  <mediatype>audio</mediatype>
                  <trackindex>2</trackindex>
                  <clipindex>1</clipindex>
                  <groupindex>1</groupindex>
                </link>
              </clipitem>
            </track>
          </video>
          <audio>
            <track>
              <clipitem id="clipitem-1058" frameBlend="FALSE">
                <masterclipid>masterclip-349</masterclipid>
                <name>00572.MTS</name>
                <file id="file-349"/>
                <sourcetrack>
                  <mediatype>audio</mediatype>
                  <trackindex>1</trackindex>
                </sourcetrack>
                <link>
                  <linkclipref>clipitem-1057</linkclipref>
                  <mediatype>video</mediatype>
                  <trackindex>1</trackindex>
                  <clipindex>1</clipindex>
                </link>
                <link>
                  <linkclipref>clipitem-1058</linkclipref>
                  <mediatype>audio</mediatype>
                  <trackindex>1</trackindex>
                  <clipindex>1</clipindex>
                  <groupindex>1</groupindex>
                </link>
                <link>
                  <linkclipref>clipitem-1059</linkclipref>
                  <mediatype>audio</mediatype>
                  <trackindex>2</trackindex>
                  <clipindex>1</clipindex>
                  <groupindex>1</groupindex>
                </link>
              </clipitem>
            </track>
            <track>
              <clipitem id="clipitem-1059" frameBlend="FALSE">
                <masterclipid>masterclip-349</masterclipid>
                <name>00572.MTS</name>
                <file id="file-349"/>
                <sourcetrack>
                  <mediatype>audio</mediatype>
                  <trackindex>2</trackindex>
                </sourcetrack>
                <link>
                  <linkclipref>clipitem-1057</linkclipref>
                  <mediatype>video</mediatype>
                  <trackindex>1</trackindex>
                  <clipindex>1</clipindex>
                </link>
                <link>
                  <linkclipref>clipitem-1058</linkclipref>
                  <mediatype>audio</mediatype>
                  <trackindex>1</trackindex>
                  <clipindex>1</clipindex>
                  <groupindex>1</groupindex>
                </link>
                <link>
                  <linkclipref>clipitem-1059</linkclipref>
                  <mediatype>audio</mediatype>
                  <trackindex>2</trackindex>
                  <clipindex>1</clipindex>
                  <groupindex>1</groupindex>
                </link>
              </clipitem>
            </track>
          </audio>
        </media>
        <logginginfo>
          <description/>
          <scene/>
          <shottake/>
          <lognote/>
        </logginginfo>
      </clip>
      <clip id="masterclip-350" frameBlend="FALSE">
        <uuid>fb5b00bb-bd77-4851-aa7c-4bc49af34a84</uuid>
        <masterclipid>masterclip-350</masterclipid>
        <ismasterclip>TRUE</ismasterclip>
        <duration>229</duration>
        <rate>
          <timebase>24</timebase>
          <ntsc>TRUE</ntsc>
        </rate>
        <name>00573.MTS</name>
        <media>
          <video>
            <track>
              <clipitem id="clipitem-1060" frameBlend="FALSE">
                <masterclipid>masterclip-350</masterclipid>
                <name>00573.MTS</name>
                <alphatype>black</alphatype>
                <pixelaspectratio>square</pixelaspectratio>
                <anamorphic>FALSE</anamorphic>
                <file id="file-350">
                  <name>00573.MTS</name>
                  <pathurl>file://localhost/Volumes/Macintosh%20HD/Users/jacksongs/Desktop/STREAM/00573.MTS</pathurl>
                  <rate>
                    <timebase>24</timebase>
                    <ntsc>TRUE</ntsc>
                  </rate>
                  <duration>229</duration>
                  <timecode>
                    <rate>
                      <timebase>24</timebase>
                      <ntsc>TRUE</ntsc>
                    </rate>
                    <string>00:00:00:00</string>
                    <frame>0</frame>
                    <displayformat>NDF</displayformat>
                    <reel>
                      <name/>
                    </reel>
                  </timecode>
                  <media>
                    <video>
                      <duration>18000</duration>
                      <samplecharacteristics>
                        <rate>
                          <timebase>24</timebase>
                          <ntsc>TRUE</ntsc>
                        </rate>
                        <width>1920</width>
                        <height>1080</height>
                        <anamorphic>FALSE</anamorphic>
                        <pixelaspectratio>square</pixelaspectratio>
                        <fielddominance>none</fielddominance>
                      </samplecharacteristics>
                    </video>
                    <audio>
                      <samplecharacteristics>
                        <depth>16</depth>
                        <samplerate>48000</samplerate>
                      </samplecharacteristics>
                      <channelcount>2</channelcount>
                    </audio>
                  </media>
                </file>
                <link>
                  <linkclipref>clipitem-1060</linkclipref>
                  <mediatype>video</mediatype>
                  <trackindex>1</trackindex>
                  <clipindex>1</clipindex>
                </link>
                <link>
                  <linkclipref>clipitem-1061</linkclipref>
                  <mediatype>audio</mediatype>
                  <trackindex>1</trackindex>
                  <clipindex>1</clipindex>
                  <groupindex>1</groupindex>
                </link>
                <link>
                  <linkclipref>clipitem-1062</linkclipref>
                  <mediatype>audio</mediatype>
                  <trackindex>2</trackindex>
                  <clipindex>1</clipindex>
                  <groupindex>1</groupindex>
                </link>
              </clipitem>
            </track>
          </video>
          <audio>
            <track>
              <clipitem id="clipitem-1061" frameBlend="FALSE">
                <masterclipid>masterclip-350</masterclipid>
                <name>00573.MTS</name>
                <file id="file-350"/>
                <sourcetrack>
                  <mediatype>audio</mediatype>
                  <trackindex>1</trackindex>
                </sourcetrack>
                <link>
                  <linkclipref>clipitem-1060</linkclipref>
                  <mediatype>video</mediatype>
                  <trackindex>1</trackindex>
                  <clipindex>1</clipindex>
                </link>
                <link>
                  <linkclipref>clipitem-1061</linkclipref>
                  <mediatype>audio</mediatype>
                  <trackindex>1</trackindex>
                  <clipindex>1</clipindex>
                  <groupindex>1</groupindex>
                </link>
                <link>
                  <linkclipref>clipitem-1062</linkclipref>
                  <mediatype>audio</mediatype>
                  <trackindex>2</trackindex>
                  <clipindex>1</clipindex>
                  <groupindex>1</groupindex>
                </link>
              </clipitem>
            </track>
            <track>
              <clipitem id="clipitem-1062" frameBlend="FALSE">
                <masterclipid>masterclip-350</masterclipid>
                <name>00573.MTS</name>
                <file id="file-350"/>
                <sourcetrack>
                  <mediatype>audio</mediatype>
                  <trackindex>2</trackindex>
                </sourcetrack>
                <link>
                  <linkclipref>clipitem-1060</linkclipref>
                  <mediatype>video</mediatype>
                  <trackindex>1</trackindex>
                  <clipindex>1</clipindex>
                </link>
                <link>
                  <linkclipref>clipitem-1061</linkclipref>
                  <mediatype>audio</mediatype>
                  <trackindex>1</trackindex>
                  <clipindex>1</clipindex>
                  <groupindex>1</groupindex>
                </link>
                <link>
                  <linkclipref>clipitem-1062</linkclipref>
                  <mediatype>audio</mediatype>
                  <trackindex>2</trackindex>
                  <clipindex>1</clipindex>
                  <groupindex>1</groupindex>
                </link>
              </clipitem>
            </track>
          </audio>
        </media>
        <logginginfo>
          <description/>
          <scene/>
          <shottake/>
          <lognote/>
        </logginginfo>
      </clip>
      <clip id="masterclip-351" frameBlend="FALSE">
        <uuid>06de09c4-0240-4638-b2b7-4494f34b9c81</uuid>
        <masterclipid>masterclip-351</masterclipid>
        <ismasterclip>TRUE</ismasterclip>
        <duration>265</duration>
        <rate>
          <timebase>24</timebase>
          <ntsc>TRUE</ntsc>
        </rate>
        <name>00574.MTS</name>
        <media>
          <video>
            <track>
              <clipitem id="clipitem-1063" frameBlend="FALSE">
                <masterclipid>masterclip-351</masterclipid>
                <name>00574.MTS</name>
                <alphatype>black</alphatype>
                <pixelaspectratio>square</pixelaspectratio>
                <anamorphic>FALSE</anamorphic>
                <file id="file-351">
                  <name>00574.MTS</name>
                  <pathurl>file://localhost/Volumes/Macintosh%20HD/Users/jacksongs/Desktop/STREAM/00574.MTS</pathurl>
                  <rate>
                    <timebase>24</timebase>
                    <ntsc>TRUE</ntsc>
                  </rate>
                  <duration>265</duration>
                  <timecode>
                    <rate>
                      <timebase>24</timebase>
                      <ntsc>TRUE</ntsc>
                    </rate>
                    <string>00:00:00:00</string>
                    <frame>0</frame>
                    <displayformat>NDF</displayformat>
                    <reel>
                      <name/>
                    </reel>
                  </timecode>
                  <media>
                    <video>
                      <duration>18000</duration>
                      <samplecharacteristics>
                        <rate>
                          <timebase>24</timebase>
                          <ntsc>TRUE</ntsc>
                        </rate>
                        <width>1920</width>
                        <height>1080</height>
                        <anamorphic>FALSE</anamorphic>
                        <pixelaspectratio>square</pixelaspectratio>
                        <fielddominance>none</fielddominance>
                      </samplecharacteristics>
                    </video>
                    <audio>
                      <samplecharacteristics>
                        <depth>16</depth>
                        <samplerate>48000</samplerate>
                      </samplecharacteristics>
                      <channelcount>2</channelcount>
                    </audio>
                  </media>
                </file>
                <link>
                  <linkclipref>clipitem-1063</linkclipref>
                  <mediatype>video</mediatype>
                  <trackindex>1</trackindex>
                  <clipindex>1</clipindex>
                </link>
                <link>
                  <linkclipref>clipitem-1064</linkclipref>
                  <mediatype>audio</mediatype>
                  <trackindex>1</trackindex>
                  <clipindex>1</clipindex>
                  <groupindex>1</groupindex>
                </link>
                <link>
                  <linkclipref>clipitem-1065</linkclipref>
                  <mediatype>audio</mediatype>
                  <trackindex>2</trackindex>
                  <clipindex>1</clipindex>
                  <groupindex>1</groupindex>
                </link>
              </clipitem>
            </track>
          </video>
          <audio>
            <track>
              <clipitem id="clipitem-1064" frameBlend="FALSE">
                <masterclipid>masterclip-351</masterclipid>
                <name>00574.MTS</name>
                <file id="file-351"/>
                <sourcetrack>
                  <mediatype>audio</mediatype>
                  <trackindex>1</trackindex>
                </sourcetrack>
                <link>
                  <linkclipref>clipitem-1063</linkclipref>
                  <mediatype>video</mediatype>
                  <trackindex>1</trackindex>
                  <clipindex>1</clipindex>
                </link>
                <link>
                  <linkclipref>clipitem-1064</linkclipref>
                  <mediatype>audio</mediatype>
                  <trackindex>1</trackindex>
                  <clipindex>1</clipindex>
                  <groupindex>1</groupindex>
                </link>
                <link>
                  <linkclipref>clipitem-1065</linkclipref>
                  <mediatype>audio</mediatype>
                  <trackindex>2</trackindex>
                  <clipindex>1</clipindex>
                  <groupindex>1</groupindex>
                </link>
              </clipitem>
            </track>
            <track>
              <clipitem id="clipitem-1065" frameBlend="FALSE">
                <masterclipid>masterclip-351</masterclipid>
                <name>00574.MTS</name>
                <file id="file-351"/>
                <sourcetrack>
                  <mediatype>audio</mediatype>
                  <trackindex>2</trackindex>
                </sourcetrack>
                <link>
                  <linkclipref>clipitem-1063</linkclipref>
                  <mediatype>video</mediatype>
                  <trackindex>1</trackindex>
                  <clipindex>1</clipindex>
                </link>
                <link>
                  <linkclipref>clipitem-1064</linkclipref>
                  <mediatype>audio</mediatype>
                  <trackindex>1</trackindex>
                  <clipindex>1</clipindex>
                  <groupindex>1</groupindex>
                </link>
                <link>
                  <linkclipref>clipitem-1065</linkclipref>
                  <mediatype>audio</mediatype>
                  <trackindex>2</trackindex>
                  <clipindex>1</clipindex>
                  <groupindex>1</groupindex>
                </link>
              </clipitem>
            </track>
          </audio>
        </media>
        <logginginfo>
          <description/>
          <scene/>
          <shottake/>
          <lognote/>
        </logginginfo>
      </clip>
      <clip id="masterclip-352" frameBlend="FALSE">
        <uuid>024a61df-a30f-4657-8cc9-d758e3ccebd5</uuid>
        <masterclipid>masterclip-352</masterclipid>
        <ismasterclip>TRUE</ismasterclip>
        <duration>1021</duration>
        <rate>
          <timebase>24</timebase>
          <ntsc>TRUE</ntsc>
        </rate>
        <name>00575.MTS</name>
        <media>
          <video>
            <track>
              <clipitem id="clipitem-1066" frameBlend="FALSE">
                <masterclipid>masterclip-352</masterclipid>
                <name>00575.MTS</name>
                <alphatype>black</alphatype>
                <pixelaspectratio>square</pixelaspectratio>
                <anamorphic>FALSE</anamorphic>
                <file id="file-352">
                  <name>00575.MTS</name>
                  <pathurl>file://localhost/Volumes/Macintosh%20HD/Users/jacksongs/Desktop/STREAM/00575.MTS</pathurl>
                  <rate>
                    <timebase>24</timebase>
                    <ntsc>TRUE</ntsc>
                  </rate>
                  <duration>1021</duration>
                  <timecode>
                    <rate>
                      <timebase>24</timebase>
                      <ntsc>TRUE</ntsc>
                    </rate>
                    <string>00:00:00:00</string>
                    <frame>0</frame>
                    <displayformat>NDF</displayformat>
                    <reel>
                      <name/>
                    </reel>
                  </timecode>
                  <media>
                    <video>
                      <duration>18000</duration>
                      <samplecharacteristics>
                        <rate>
                          <timebase>24</timebase>
                          <ntsc>TRUE</ntsc>
                        </rate>
                        <width>1920</width>
                        <height>1080</height>
                        <anamorphic>FALSE</anamorphic>
                        <pixelaspectratio>square</pixelaspectratio>
                        <fielddominance>none</fielddominance>
                      </samplecharacteristics>
                    </video>
                    <audio>
                      <samplecharacteristics>
                        <depth>16</depth>
                        <samplerate>48000</samplerate>
                      </samplecharacteristics>
                      <channelcount>2</channelcount>
                    </audio>
                  </media>
                </file>
                <link>
                  <linkclipref>clipitem-1066</linkclipref>
                  <mediatype>video</mediatype>
                  <trackindex>1</trackindex>
                  <clipindex>1</clipindex>
                </link>
                <link>
                  <linkclipref>clipitem-1067</linkclipref>
                  <mediatype>audio</mediatype>
                  <trackindex>1</trackindex>
                  <clipindex>1</clipindex>
                  <groupindex>1</groupindex>
                </link>
                <link>
                  <linkclipref>clipitem-1068</linkclipref>
                  <mediatype>audio</mediatype>
                  <trackindex>2</trackindex>
                  <clipindex>1</clipindex>
                  <groupindex>1</groupindex>
                </link>
              </clipitem>
            </track>
          </video>
          <audio>
            <track>
              <clipitem id="clipitem-1067" frameBlend="FALSE">
                <masterclipid>masterclip-352</masterclipid>
                <name>00575.MTS</name>
                <file id="file-352"/>
                <sourcetrack>
                  <mediatype>audio</mediatype>
                  <trackindex>1</trackindex>
                </sourcetrack>
                <link>
                  <linkclipref>clipitem-1066</linkclipref>
                  <mediatype>video</mediatype>
                  <trackindex>1</trackindex>
                  <clipindex>1</clipindex>
                </link>
                <link>
                  <linkclipref>clipitem-1067</linkclipref>
                  <mediatype>audio</mediatype>
                  <trackindex>1</trackindex>
                  <clipindex>1</clipindex>
                  <groupindex>1</groupindex>
                </link>
                <link>
                  <linkclipref>clipitem-1068</linkclipref>
                  <mediatype>audio</mediatype>
                  <trackindex>2</trackindex>
                  <clipindex>1</clipindex>
                  <groupindex>1</groupindex>
                </link>
              </clipitem>
            </track>
            <track>
              <clipitem id="clipitem-1068" frameBlend="FALSE">
                <masterclipid>masterclip-352</masterclipid>
                <name>00575.MTS</name>
                <file id="file-352"/>
                <sourcetrack>
                  <mediatype>audio</mediatype>
                  <trackindex>2</trackindex>
                </sourcetrack>
                <link>
                  <linkclipref>clipitem-1066</linkclipref>
                  <mediatype>video</mediatype>
                  <trackindex>1</trackindex>
                  <clipindex>1</clipindex>
                </link>
                <link>
                  <linkclipref>clipitem-1067</linkclipref>
                  <mediatype>audio</mediatype>
                  <trackindex>1</trackindex>
                  <clipindex>1</clipindex>
                  <groupindex>1</groupindex>
                </link>
                <link>
                  <linkclipref>clipitem-1068</linkclipref>
                  <mediatype>audio</mediatype>
                  <trackindex>2</trackindex>
                  <clipindex>1</clipindex>
                  <groupindex>1</groupindex>
                </link>
              </clipitem>
            </track>
          </audio>
        </media>
        <logginginfo>
          <description/>
          <scene/>
          <shottake/>
          <lognote/>
        </logginginfo>
      </clip>
      <clip id="masterclip-353" frameBlend="FALSE">
        <uuid>6c3dd398-e611-4638-af96-2b8886684d98</uuid>
        <masterclipid>masterclip-353</masterclipid>
        <ismasterclip>TRUE</ismasterclip>
        <duration>1165</duration>
        <rate>
          <timebase>24</timebase>
          <ntsc>TRUE</ntsc>
        </rate>
        <name>00576.MTS</name>
        <media>
          <video>
            <track>
              <clipitem id="clipitem-1069" frameBlend="FALSE">
                <masterclipid>masterclip-353</masterclipid>
                <name>00576.MTS</name>
                <alphatype>black</alphatype>
                <pixelaspectratio>square</pixelaspectratio>
                <anamorphic>FALSE</anamorphic>
                <file id="file-353">
                  <name>00576.MTS</name>
                  <pathurl>file://localhost/Volumes/Macintosh%20HD/Users/jacksongs/Desktop/STREAM/00576.MTS</pathurl>
                  <rate>
                    <timebase>24</timebase>
                    <ntsc>TRUE</ntsc>
                  </rate>
                  <duration>1165</duration>
                  <timecode>
                    <rate>
                      <timebase>24</timebase>
                      <ntsc>TRUE</ntsc>
                    </rate>
                    <string>00:00:00:00</string>
                    <frame>0</frame>
                    <displayformat>NDF</displayformat>
                    <reel>
                      <name/>
                    </reel>
                  </timecode>
                  <media>
                    <video>
                      <duration>18000</duration>
                      <samplecharacteristics>
                        <rate>
                          <timebase>24</timebase>
                          <ntsc>TRUE</ntsc>
                        </rate>
                        <width>1920</width>
                        <height>1080</height>
                        <anamorphic>FALSE</anamorphic>
                        <pixelaspectratio>square</pixelaspectratio>
                        <fielddominance>none</fielddominance>
                      </samplecharacteristics>
                    </video>
                    <audio>
                      <samplecharacteristics>
                        <depth>16</depth>
                        <samplerate>48000</samplerate>
                      </samplecharacteristics>
                      <channelcount>2</channelcount>
                    </audio>
                  </media>
                </file>
                <link>
                  <linkclipref>clipitem-1069</linkclipref>
                  <mediatype>video</mediatype>
                  <trackindex>1</trackindex>
                  <clipindex>1</clipindex>
                </link>
                <link>
                  <linkclipref>clipitem-1070</linkclipref>
                  <mediatype>audio</mediatype>
                  <trackindex>1</trackindex>
                  <clipindex>1</clipindex>
                  <groupindex>1</groupindex>
                </link>
                <link>
                  <linkclipref>clipitem-1071</linkclipref>
                  <mediatype>audio</mediatype>
                  <trackindex>2</trackindex>
                  <clipindex>1</clipindex>
                  <groupindex>1</groupindex>
                </link>
              </clipitem>
            </track>
          </video>
          <audio>
            <track>
              <clipitem id="clipitem-1070" frameBlend="FALSE">
                <masterclipid>masterclip-353</masterclipid>
                <name>00576.MTS</name>
                <file id="file-353"/>
                <sourcetrack>
                  <mediatype>audio</mediatype>
                  <trackindex>1</trackindex>
                </sourcetrack>
                <link>
                  <linkclipref>clipitem-1069</linkclipref>
                  <mediatype>video</mediatype>
                  <trackindex>1</trackindex>
                  <clipindex>1</clipindex>
                </link>
                <link>
                  <linkclipref>clipitem-1070</linkclipref>
                  <mediatype>audio</mediatype>
                  <trackindex>1</trackindex>
                  <clipindex>1</clipindex>
                  <groupindex>1</groupindex>
                </link>
                <link>
                  <linkclipref>clipitem-1071</linkclipref>
                  <mediatype>audio</mediatype>
                  <trackindex>2</trackindex>
                  <clipindex>1</clipindex>
                  <groupindex>1</groupindex>
                </link>
              </clipitem>
            </track>
            <track>
              <clipitem id="clipitem-1071" frameBlend="FALSE">
                <masterclipid>masterclip-353</masterclipid>
                <name>00576.MTS</name>
                <file id="file-353"/>
                <sourcetrack>
                  <mediatype>audio</mediatype>
                  <trackindex>2</trackindex>
                </sourcetrack>
                <link>
                  <linkclipref>clipitem-1069</linkclipref>
                  <mediatype>video</mediatype>
                  <trackindex>1</trackindex>
                  <clipindex>1</clipindex>
                </link>
                <link>
                  <linkclipref>clipitem-1070</linkclipref>
                  <mediatype>audio</mediatype>
                  <trackindex>1</trackindex>
                  <clipindex>1</clipindex>
                  <groupindex>1</groupindex>
                </link>
                <link>
                  <linkclipref>clipitem-1071</linkclipref>
                  <mediatype>audio</mediatype>
                  <trackindex>2</trackindex>
                  <clipindex>1</clipindex>
                  <groupindex>1</groupindex>
                </link>
              </clipitem>
            </track>
          </audio>
        </media>
        <logginginfo>
          <description/>
          <scene/>
          <shottake/>
          <lognote/>
        </logginginfo>
      </clip>
      <clip id="masterclip-354" frameBlend="FALSE">
        <uuid>47ed39ea-9aff-4128-bd04-ec96f9868fa5</uuid>
        <masterclipid>masterclip-354</masterclipid>
        <ismasterclip>TRUE</ismasterclip>
        <duration>289</duration>
        <rate>
          <timebase>24</timebase>
          <ntsc>TRUE</ntsc>
        </rate>
        <name>00577.MTS</name>
        <media>
          <video>
            <track>
              <clipitem id="clipitem-1072" frameBlend="FALSE">
                <masterclipid>masterclip-354</masterclipid>
                <name>00577.MTS</name>
                <alphatype>black</alphatype>
                <pixelaspectratio>square</pixelaspectratio>
                <anamorphic>FALSE</anamorphic>
                <file id="file-354">
                  <name>00577.MTS</name>
                  <pathurl>file://localhost/Volumes/Macintosh%20HD/Users/jacksongs/Desktop/STREAM/00577.MTS</pathurl>
                  <rate>
                    <timebase>24</timebase>
                    <ntsc>TRUE</ntsc>
                  </rate>
                  <duration>289</duration>
                  <timecode>
                    <rate>
                      <timebase>24</timebase>
                      <ntsc>TRUE</ntsc>
                    </rate>
                    <string>00:00:00:00</string>
                    <frame>0</frame>
                    <displayformat>NDF</displayformat>
                    <reel>
                      <name/>
                    </reel>
                  </timecode>
                  <media>
                    <video>
                      <duration>18000</duration>
                      <samplecharacteristics>
                        <rate>
                          <timebase>24</timebase>
                          <ntsc>TRUE</ntsc>
                        </rate>
                        <width>1920</width>
                        <height>1080</height>
                        <anamorphic>FALSE</anamorphic>
                        <pixelaspectratio>square</pixelaspectratio>
                        <fielddominance>none</fielddominance>
                      </samplecharacteristics>
                    </video>
                    <audio>
                      <samplecharacteristics>
                        <depth>16</depth>
                        <samplerate>48000</samplerate>
                      </samplecharacteristics>
                      <channelcount>2</channelcount>
                    </audio>
                  </media>
                </file>
                <link>
                  <linkclipref>clipitem-1072</linkclipref>
                  <mediatype>video</mediatype>
                  <trackindex>1</trackindex>
                  <clipindex>1</clipindex>
                </link>
                <link>
                  <linkclipref>clipitem-1073</linkclipref>
                  <mediatype>audio</mediatype>
                  <trackindex>1</trackindex>
                  <clipindex>1</clipindex>
                  <groupindex>1</groupindex>
                </link>
                <link>
                  <linkclipref>clipitem-1074</linkclipref>
                  <mediatype>audio</mediatype>
                  <trackindex>2</trackindex>
                  <clipindex>1</clipindex>
                  <groupindex>1</groupindex>
                </link>
              </clipitem>
            </track>
          </video>
          <audio>
            <track>
              <clipitem id="clipitem-1073" frameBlend="FALSE">
                <masterclipid>masterclip-354</masterclipid>
                <name>00577.MTS</name>
                <file id="file-354"/>
                <sourcetrack>
                  <mediatype>audio</mediatype>
                  <trackindex>1</trackindex>
                </sourcetrack>
                <link>
                  <linkclipref>clipitem-1072</linkclipref>
                  <mediatype>video</mediatype>
                  <trackindex>1</trackindex>
                  <clipindex>1</clipindex>
                </link>
                <link>
                  <linkclipref>clipitem-1073</linkclipref>
                  <mediatype>audio</mediatype>
                  <trackindex>1</trackindex>
                  <clipindex>1</clipindex>
                  <groupindex>1</groupindex>
                </link>
                <link>
                  <linkclipref>clipitem-1074</linkclipref>
                  <mediatype>audio</mediatype>
                  <trackindex>2</trackindex>
                  <clipindex>1</clipindex>
                  <groupindex>1</groupindex>
                </link>
              </clipitem>
            </track>
            <track>
              <clipitem id="clipitem-1074" frameBlend="FALSE">
                <masterclipid>masterclip-354</masterclipid>
                <name>00577.MTS</name>
                <file id="file-354"/>
                <sourcetrack>
                  <mediatype>audio</mediatype>
                  <trackindex>2</trackindex>
                </sourcetrack>
                <link>
                  <linkclipref>clipitem-1072</linkclipref>
                  <mediatype>video</mediatype>
                  <trackindex>1</trackindex>
                  <clipindex>1</clipindex>
                </link>
                <link>
                  <linkclipref>clipitem-1073</linkclipref>
                  <mediatype>audio</mediatype>
                  <trackindex>1</trackindex>
                  <clipindex>1</clipindex>
                  <groupindex>1</groupindex>
                </link>
                <link>
                  <linkclipref>clipitem-1074</linkclipref>
                  <mediatype>audio</mediatype>
                  <trackindex>2</trackindex>
                  <clipindex>1</clipindex>
                  <groupindex>1</groupindex>
                </link>
              </clipitem>
            </track>
          </audio>
        </media>
        <logginginfo>
          <description/>
          <scene/>
          <shottake/>
          <lognote/>
        </logginginfo>
      </clip>
      <clip id="masterclip-355" frameBlend="FALSE">
        <uuid>234dc04b-d813-45db-ac42-b8ebca8b5ad3</uuid>
        <masterclipid>masterclip-355</masterclipid>
        <ismasterclip>TRUE</ismasterclip>
        <duration>121</duration>
        <rate>
          <timebase>24</timebase>
          <ntsc>TRUE</ntsc>
        </rate>
        <name>00578.MTS</name>
        <media>
          <video>
            <track>
              <clipitem id="clipitem-1075" frameBlend="FALSE">
                <masterclipid>masterclip-355</masterclipid>
                <name>00578.MTS</name>
                <alphatype>black</alphatype>
                <pixelaspectratio>square</pixelaspectratio>
                <anamorphic>FALSE</anamorphic>
                <file id="file-355">
                  <name>00578.MTS</name>
                  <pathurl>file://localhost/Volumes/Macintosh%20HD/Users/jacksongs/Desktop/STREAM/00578.MTS</pathurl>
                  <rate>
                    <timebase>24</timebase>
                    <ntsc>TRUE</ntsc>
                  </rate>
                  <duration>121</duration>
                  <timecode>
                    <rate>
                      <timebase>24</timebase>
                      <ntsc>TRUE</ntsc>
                    </rate>
                    <string>00:00:00:00</string>
                    <frame>0</frame>
                    <displayformat>NDF</displayformat>
                    <reel>
                      <name/>
                    </reel>
                  </timecode>
                  <media>
                    <video>
                      <duration>18000</duration>
                      <samplecharacteristics>
                        <rate>
                          <timebase>24</timebase>
                          <ntsc>TRUE</ntsc>
                        </rate>
                        <width>1920</width>
                        <height>1080</height>
                        <anamorphic>FALSE</anamorphic>
                        <pixelaspectratio>square</pixelaspectratio>
                        <fielddominance>none</fielddominance>
                      </samplecharacteristics>
                    </video>
                    <audio>
                      <samplecharacteristics>
                        <depth>16</depth>
                        <samplerate>48000</samplerate>
                      </samplecharacteristics>
                      <channelcount>2</channelcount>
                    </audio>
                  </media>
                </file>
                <link>
                  <linkclipref>clipitem-1075</linkclipref>
                  <mediatype>video</mediatype>
                  <trackindex>1</trackindex>
                  <clipindex>1</clipindex>
                </link>
                <link>
                  <linkclipref>clipitem-1076</linkclipref>
                  <mediatype>audio</mediatype>
                  <trackindex>1</trackindex>
                  <clipindex>1</clipindex>
                  <groupindex>1</groupindex>
                </link>
                <link>
                  <linkclipref>clipitem-1077</linkclipref>
                  <mediatype>audio</mediatype>
                  <trackindex>2</trackindex>
                  <clipindex>1</clipindex>
                  <groupindex>1</groupindex>
                </link>
              </clipitem>
            </track>
          </video>
          <audio>
            <track>
              <clipitem id="clipitem-1076" frameBlend="FALSE">
                <masterclipid>masterclip-355</masterclipid>
                <name>00578.MTS</name>
                <file id="file-355"/>
                <sourcetrack>
                  <mediatype>audio</mediatype>
                  <trackindex>1</trackindex>
                </sourcetrack>
                <link>
                  <linkclipref>clipitem-1075</linkclipref>
                  <mediatype>video</mediatype>
                  <trackindex>1</trackindex>
                  <clipindex>1</clipindex>
                </link>
                <link>
                  <linkclipref>clipitem-1076</linkclipref>
                  <mediatype>audio</mediatype>
                  <trackindex>1</trackindex>
                  <clipindex>1</clipindex>
                  <groupindex>1</groupindex>
                </link>
                <link>
                  <linkclipref>clipitem-1077</linkclipref>
                  <mediatype>audio</mediatype>
                  <trackindex>2</trackindex>
                  <clipindex>1</clipindex>
                  <groupindex>1</groupindex>
                </link>
              </clipitem>
            </track>
            <track>
              <clipitem id="clipitem-1077" frameBlend="FALSE">
                <masterclipid>masterclip-355</masterclipid>
                <name>00578.MTS</name>
                <file id="file-355"/>
                <sourcetrack>
                  <mediatype>audio</mediatype>
                  <trackindex>2</trackindex>
                </sourcetrack>
                <link>
                  <linkclipref>clipitem-1075</linkclipref>
                  <mediatype>video</mediatype>
                  <trackindex>1</trackindex>
                  <clipindex>1</clipindex>
                </link>
                <link>
                  <linkclipref>clipitem-1076</linkclipref>
                  <mediatype>audio</mediatype>
                  <trackindex>1</trackindex>
                  <clipindex>1</clipindex>
                  <groupindex>1</groupindex>
                </link>
                <link>
                  <linkclipref>clipitem-1077</linkclipref>
                  <mediatype>audio</mediatype>
                  <trackindex>2</trackindex>
                  <clipindex>1</clipindex>
                  <groupindex>1</groupindex>
                </link>
              </clipitem>
            </track>
          </audio>
        </media>
        <logginginfo>
          <description/>
          <scene/>
          <shottake/>
          <lognote/>
        </logginginfo>
      </clip>
      <clip id="masterclip-356" frameBlend="FALSE">
        <uuid>7da92256-57ac-4360-b8d8-6d7347f38657</uuid>
        <masterclipid>masterclip-356</masterclipid>
        <ismasterclip>TRUE</ismasterclip>
        <duration>301</duration>
        <rate>
          <timebase>24</timebase>
          <ntsc>TRUE</ntsc>
        </rate>
        <name>00579.MTS</name>
        <media>
          <video>
            <track>
              <clipitem id="clipitem-1078" frameBlend="FALSE">
                <masterclipid>masterclip-356</masterclipid>
                <name>00579.MTS</name>
                <alphatype>black</alphatype>
                <pixelaspectratio>square</pixelaspectratio>
                <anamorphic>FALSE</anamorphic>
                <file id="file-356">
                  <name>00579.MTS</name>
                  <pathurl>file://localhost/Volumes/Macintosh%20HD/Users/jacksongs/Desktop/STREAM/00579.MTS</pathurl>
                  <rate>
                    <timebase>24</timebase>
                    <ntsc>TRUE</ntsc>
                  </rate>
                  <duration>301</duration>
                  <timecode>
                    <rate>
                      <timebase>24</timebase>
                      <ntsc>TRUE</ntsc>
                    </rate>
                    <string>00:00:00:00</string>
                    <frame>0</frame>
                    <displayformat>NDF</displayformat>
                    <reel>
                      <name/>
                    </reel>
                  </timecode>
                  <media>
                    <video>
                      <duration>18000</duration>
                      <samplecharacteristics>
                        <rate>
                          <timebase>24</timebase>
                          <ntsc>TRUE</ntsc>
                        </rate>
                        <width>1920</width>
                        <height>1080</height>
                        <anamorphic>FALSE</anamorphic>
                        <pixelaspectratio>square</pixelaspectratio>
                        <fielddominance>none</fielddominance>
                      </samplecharacteristics>
                    </video>
                    <audio>
                      <samplecharacteristics>
                        <depth>16</depth>
                        <samplerate>48000</samplerate>
                      </samplecharacteristics>
                      <channelcount>2</channelcount>
                    </audio>
                  </media>
                </file>
                <link>
                  <linkclipref>clipitem-1078</linkclipref>
                  <mediatype>video</mediatype>
                  <trackindex>1</trackindex>
                  <clipindex>1</clipindex>
                </link>
                <link>
                  <linkclipref>clipitem-1079</linkclipref>
                  <mediatype>audio</mediatype>
                  <trackindex>1</trackindex>
                  <clipindex>1</clipindex>
                  <groupindex>1</groupindex>
                </link>
                <link>
                  <linkclipref>clipitem-1080</linkclipref>
                  <mediatype>audio</mediatype>
                  <trackindex>2</trackindex>
                  <clipindex>1</clipindex>
                  <groupindex>1</groupindex>
                </link>
              </clipitem>
            </track>
          </video>
          <audio>
            <track>
              <clipitem id="clipitem-1079" frameBlend="FALSE">
                <masterclipid>masterclip-356</masterclipid>
                <name>00579.MTS</name>
                <file id="file-356"/>
                <sourcetrack>
                  <mediatype>audio</mediatype>
                  <trackindex>1</trackindex>
                </sourcetrack>
                <link>
                  <linkclipref>clipitem-1078</linkclipref>
                  <mediatype>video</mediatype>
                  <trackindex>1</trackindex>
                  <clipindex>1</clipindex>
                </link>
                <link>
                  <linkclipref>clipitem-1079</linkclipref>
                  <mediatype>audio</mediatype>
                  <trackindex>1</trackindex>
                  <clipindex>1</clipindex>
                  <groupindex>1</groupindex>
                </link>
                <link>
                  <linkclipref>clipitem-1080</linkclipref>
                  <mediatype>audio</mediatype>
                  <trackindex>2</trackindex>
                  <clipindex>1</clipindex>
                  <groupindex>1</groupindex>
                </link>
              </clipitem>
            </track>
            <track>
              <clipitem id="clipitem-1080" frameBlend="FALSE">
                <masterclipid>masterclip-356</masterclipid>
                <name>00579.MTS</name>
                <file id="file-356"/>
                <sourcetrack>
                  <mediatype>audio</mediatype>
                  <trackindex>2</trackindex>
                </sourcetrack>
                <link>
                  <linkclipref>clipitem-1078</linkclipref>
                  <mediatype>video</mediatype>
                  <trackindex>1</trackindex>
                  <clipindex>1</clipindex>
                </link>
                <link>
                  <linkclipref>clipitem-1079</linkclipref>
                  <mediatype>audio</mediatype>
                  <trackindex>1</trackindex>
                  <clipindex>1</clipindex>
                  <groupindex>1</groupindex>
                </link>
                <link>
                  <linkclipref>clipitem-1080</linkclipref>
                  <mediatype>audio</mediatype>
                  <trackindex>2</trackindex>
                  <clipindex>1</clipindex>
                  <groupindex>1</groupindex>
                </link>
              </clipitem>
            </track>
          </audio>
        </media>
        <logginginfo>
          <description/>
          <scene/>
          <shottake/>
          <lognote/>
        </logginginfo>
      </clip>
      <clip id="masterclip-357" frameBlend="FALSE">
        <uuid>2c915f21-0ba4-4f98-bbd3-d88e2dca152d</uuid>
        <masterclipid>masterclip-357</masterclipid>
        <ismasterclip>TRUE</ismasterclip>
        <duration>745</duration>
        <rate>
          <timebase>24</timebase>
          <ntsc>TRUE</ntsc>
        </rate>
        <name>00580.MTS</name>
        <media>
          <video>
            <track>
              <clipitem id="clipitem-1081" frameBlend="FALSE">
                <masterclipid>masterclip-357</masterclipid>
                <name>00580.MTS</name>
                <alphatype>black</alphatype>
                <pixelaspectratio>square</pixelaspectratio>
                <anamorphic>FALSE</anamorphic>
                <file id="file-357">
                  <name>00580.MTS</name>
                  <pathurl>file://localhost/Volumes/Macintosh%20HD/Users/jacksongs/Desktop/STREAM/00580.MTS</pathurl>
                  <rate>
                    <timebase>24</timebase>
                    <ntsc>TRUE</ntsc>
                  </rate>
                  <duration>745</duration>
                  <timecode>
                    <rate>
                      <timebase>24</timebase>
                      <ntsc>TRUE</ntsc>
                    </rate>
                    <string>00:00:00:00</string>
                    <frame>0</frame>
                    <displayformat>NDF</displayformat>
                    <reel>
                      <name/>
                    </reel>
                  </timecode>
                  <media>
                    <video>
                      <duration>18000</duration>
                      <samplecharacteristics>
                        <rate>
                          <timebase>24</timebase>
                          <ntsc>TRUE</ntsc>
                        </rate>
                        <width>1920</width>
                        <height>1080</height>
                        <anamorphic>FALSE</anamorphic>
                        <pixelaspectratio>square</pixelaspectratio>
                        <fielddominance>none</fielddominance>
                      </samplecharacteristics>
                    </video>
                    <audio>
                      <samplecharacteristics>
                        <depth>16</depth>
                        <samplerate>48000</samplerate>
                      </samplecharacteristics>
                      <channelcount>2</channelcount>
                    </audio>
                  </media>
                </file>
                <link>
                  <linkclipref>clipitem-1081</linkclipref>
                  <mediatype>video</mediatype>
                  <trackindex>1</trackindex>
                  <clipindex>1</clipindex>
                </link>
                <link>
                  <linkclipref>clipitem-1082</linkclipref>
                  <mediatype>audio</mediatype>
                  <trackindex>1</trackindex>
                  <clipindex>1</clipindex>
                  <groupindex>1</groupindex>
                </link>
                <link>
                  <linkclipref>clipitem-1083</linkclipref>
                  <mediatype>audio</mediatype>
                  <trackindex>2</trackindex>
                  <clipindex>1</clipindex>
                  <groupindex>1</groupindex>
                </link>
              </clipitem>
            </track>
          </video>
          <audio>
            <track>
              <clipitem id="clipitem-1082" frameBlend="FALSE">
                <masterclipid>masterclip-357</masterclipid>
                <name>00580.MTS</name>
                <file id="file-357"/>
                <sourcetrack>
                  <mediatype>audio</mediatype>
                  <trackindex>1</trackindex>
                </sourcetrack>
                <link>
                  <linkclipref>clipitem-1081</linkclipref>
                  <mediatype>video</mediatype>
                  <trackindex>1</trackindex>
                  <clipindex>1</clipindex>
                </link>
                <link>
                  <linkclipref>clipitem-1082</linkclipref>
                  <mediatype>audio</mediatype>
                  <trackindex>1</trackindex>
                  <clipindex>1</clipindex>
                  <groupindex>1</groupindex>
                </link>
                <link>
                  <linkclipref>clipitem-1083</linkclipref>
                  <mediatype>audio</mediatype>
                  <trackindex>2</trackindex>
                  <clipindex>1</clipindex>
                  <groupindex>1</groupindex>
                </link>
              </clipitem>
            </track>
            <track>
              <clipitem id="clipitem-1083" frameBlend="FALSE">
                <masterclipid>masterclip-357</masterclipid>
                <name>00580.MTS</name>
                <file id="file-357"/>
                <sourcetrack>
                  <mediatype>audio</mediatype>
                  <trackindex>2</trackindex>
                </sourcetrack>
                <link>
                  <linkclipref>clipitem-1081</linkclipref>
                  <mediatype>video</mediatype>
                  <trackindex>1</trackindex>
                  <clipindex>1</clipindex>
                </link>
                <link>
                  <linkclipref>clipitem-1082</linkclipref>
                  <mediatype>audio</mediatype>
                  <trackindex>1</trackindex>
                  <clipindex>1</clipindex>
                  <groupindex>1</groupindex>
                </link>
                <link>
                  <linkclipref>clipitem-1083</linkclipref>
                  <mediatype>audio</mediatype>
                  <trackindex>2</trackindex>
                  <clipindex>1</clipindex>
                  <groupindex>1</groupindex>
                </link>
              </clipitem>
            </track>
          </audio>
        </media>
        <logginginfo>
          <description/>
          <scene/>
          <shottake/>
          <lognote/>
        </logginginfo>
      </clip>
      <clip id="masterclip-358" frameBlend="FALSE">
        <uuid>fca0220b-4065-4ba5-992a-6ea4af418c60</uuid>
        <masterclipid>masterclip-358</masterclipid>
        <ismasterclip>TRUE</ismasterclip>
        <duration>337</duration>
        <rate>
          <timebase>24</timebase>
          <ntsc>TRUE</ntsc>
        </rate>
        <name>00581.MTS</name>
        <media>
          <video>
            <track>
              <clipitem id="clipitem-1084" frameBlend="FALSE">
                <masterclipid>masterclip-358</masterclipid>
                <name>00581.MTS</name>
                <alphatype>black</alphatype>
                <pixelaspectratio>square</pixelaspectratio>
                <anamorphic>FALSE</anamorphic>
                <file id="file-358">
                  <name>00581.MTS</name>
                  <pathurl>file://localhost/Volumes/Macintosh%20HD/Users/jacksongs/Desktop/STREAM/00581.MTS</pathurl>
                  <rate>
                    <timebase>24</timebase>
                    <ntsc>TRUE</ntsc>
                  </rate>
                  <duration>337</duration>
                  <timecode>
                    <rate>
                      <timebase>24</timebase>
                      <ntsc>TRUE</ntsc>
                    </rate>
                    <string>00:00:00:00</string>
                    <frame>0</frame>
                    <displayformat>NDF</displayformat>
                    <reel>
                      <name/>
                    </reel>
                  </timecode>
                  <media>
                    <video>
                      <duration>18000</duration>
                      <samplecharacteristics>
                        <rate>
                          <timebase>24</timebase>
                          <ntsc>TRUE</ntsc>
                        </rate>
                        <width>1920</width>
                        <height>1080</height>
                        <anamorphic>FALSE</anamorphic>
                        <pixelaspectratio>square</pixelaspectratio>
                        <fielddominance>none</fielddominance>
                      </samplecharacteristics>
                    </video>
                    <audio>
                      <samplecharacteristics>
                        <depth>16</depth>
                        <samplerate>48000</samplerate>
                      </samplecharacteristics>
                      <channelcount>2</channelcount>
                    </audio>
                  </media>
                </file>
                <link>
                  <linkclipref>clipitem-1084</linkclipref>
                  <mediatype>video</mediatype>
                  <trackindex>1</trackindex>
                  <clipindex>1</clipindex>
                </link>
                <link>
                  <linkclipref>clipitem-1085</linkclipref>
                  <mediatype>audio</mediatype>
                  <trackindex>1</trackindex>
                  <clipindex>1</clipindex>
                  <groupindex>1</groupindex>
                </link>
                <link>
                  <linkclipref>clipitem-1086</linkclipref>
                  <mediatype>audio</mediatype>
                  <trackindex>2</trackindex>
                  <clipindex>1</clipindex>
                  <groupindex>1</groupindex>
                </link>
              </clipitem>
            </track>
          </video>
          <audio>
            <track>
              <clipitem id="clipitem-1085" frameBlend="FALSE">
                <masterclipid>masterclip-358</masterclipid>
                <name>00581.MTS</name>
                <file id="file-358"/>
                <sourcetrack>
                  <mediatype>audio</mediatype>
                  <trackindex>1</trackindex>
                </sourcetrack>
                <link>
                  <linkclipref>clipitem-1084</linkclipref>
                  <mediatype>video</mediatype>
                  <trackindex>1</trackindex>
                  <clipindex>1</clipindex>
                </link>
                <link>
                  <linkclipref>clipitem-1085</linkclipref>
                  <mediatype>audio</mediatype>
                  <trackindex>1</trackindex>
                  <clipindex>1</clipindex>
                  <groupindex>1</groupindex>
                </link>
                <link>
                  <linkclipref>clipitem-1086</linkclipref>
                  <mediatype>audio</mediatype>
                  <trackindex>2</trackindex>
                  <clipindex>1</clipindex>
                  <groupindex>1</groupindex>
                </link>
              </clipitem>
            </track>
            <track>
              <clipitem id="clipitem-1086" frameBlend="FALSE">
                <masterclipid>masterclip-358</masterclipid>
                <name>00581.MTS</name>
                <file id="file-358"/>
                <sourcetrack>
                  <mediatype>audio</mediatype>
                  <trackindex>2</trackindex>
                </sourcetrack>
                <link>
                  <linkclipref>clipitem-1084</linkclipref>
                  <mediatype>video</mediatype>
                  <trackindex>1</trackindex>
                  <clipindex>1</clipindex>
                </link>
                <link>
                  <linkclipref>clipitem-1085</linkclipref>
                  <mediatype>audio</mediatype>
                  <trackindex>1</trackindex>
                  <clipindex>1</clipindex>
                  <groupindex>1</groupindex>
                </link>
                <link>
                  <linkclipref>clipitem-1086</linkclipref>
                  <mediatype>audio</mediatype>
                  <trackindex>2</trackindex>
                  <clipindex>1</clipindex>
                  <groupindex>1</groupindex>
                </link>
              </clipitem>
            </track>
          </audio>
        </media>
        <logginginfo>
          <description/>
          <scene/>
          <shottake/>
          <lognote/>
        </logginginfo>
      </clip>
      <clip id="masterclip-359" frameBlend="FALSE">
        <uuid>7cb72d16-11bf-4fe6-9ee6-193965b23016</uuid>
        <masterclipid>masterclip-359</masterclipid>
        <ismasterclip>TRUE</ismasterclip>
        <duration>385</duration>
        <rate>
          <timebase>24</timebase>
          <ntsc>TRUE</ntsc>
        </rate>
        <name>00582.MTS</name>
        <media>
          <video>
            <track>
              <clipitem id="clipitem-1087" frameBlend="FALSE">
                <masterclipid>masterclip-359</masterclipid>
                <name>00582.MTS</name>
                <alphatype>black</alphatype>
                <pixelaspectratio>square</pixelaspectratio>
                <anamorphic>FALSE</anamorphic>
                <file id="file-359">
                  <name>00582.MTS</name>
                  <pathurl>file://localhost/Volumes/Macintosh%20HD/Users/jacksongs/Desktop/STREAM/00582.MTS</pathurl>
                  <rate>
                    <timebase>24</timebase>
                    <ntsc>TRUE</ntsc>
                  </rate>
                  <duration>385</duration>
                  <timecode>
                    <rate>
                      <timebase>24</timebase>
                      <ntsc>TRUE</ntsc>
                    </rate>
                    <string>00:00:00:00</string>
                    <frame>0</frame>
                    <displayformat>NDF</displayformat>
                    <reel>
                      <name/>
                    </reel>
                  </timecode>
                  <media>
                    <video>
                      <duration>18000</duration>
                      <samplecharacteristics>
                        <rate>
                          <timebase>24</timebase>
                          <ntsc>TRUE</ntsc>
                        </rate>
                        <width>1920</width>
                        <height>1080</height>
                        <anamorphic>FALSE</anamorphic>
                        <pixelaspectratio>square</pixelaspectratio>
                        <fielddominance>none</fielddominance>
                      </samplecharacteristics>
                    </video>
                    <audio>
                      <samplecharacteristics>
                        <depth>16</depth>
                        <samplerate>48000</samplerate>
                      </samplecharacteristics>
                      <channelcount>2</channelcount>
                    </audio>
                  </media>
                </file>
                <link>
                  <linkclipref>clipitem-1087</linkclipref>
                  <mediatype>video</mediatype>
                  <trackindex>1</trackindex>
                  <clipindex>1</clipindex>
                </link>
                <link>
                  <linkclipref>clipitem-1088</linkclipref>
                  <mediatype>audio</mediatype>
                  <trackindex>1</trackindex>
                  <clipindex>1</clipindex>
                  <groupindex>1</groupindex>
                </link>
                <link>
                  <linkclipref>clipitem-1089</linkclipref>
                  <mediatype>audio</mediatype>
                  <trackindex>2</trackindex>
                  <clipindex>1</clipindex>
                  <groupindex>1</groupindex>
                </link>
              </clipitem>
            </track>
          </video>
          <audio>
            <track>
              <clipitem id="clipitem-1088" frameBlend="FALSE">
                <masterclipid>masterclip-359</masterclipid>
                <name>00582.MTS</name>
                <file id="file-359"/>
                <sourcetrack>
                  <mediatype>audio</mediatype>
                  <trackindex>1</trackindex>
                </sourcetrack>
                <link>
                  <linkclipref>clipitem-1087</linkclipref>
                  <mediatype>video</mediatype>
                  <trackindex>1</trackindex>
                  <clipindex>1</clipindex>
                </link>
                <link>
                  <linkclipref>clipitem-1088</linkclipref>
                  <mediatype>audio</mediatype>
                  <trackindex>1</trackindex>
                  <clipindex>1</clipindex>
                  <groupindex>1</groupindex>
                </link>
                <link>
                  <linkclipref>clipitem-1089</linkclipref>
                  <mediatype>audio</mediatype>
                  <trackindex>2</trackindex>
                  <clipindex>1</clipindex>
                  <groupindex>1</groupindex>
                </link>
              </clipitem>
            </track>
            <track>
              <clipitem id="clipitem-1089" frameBlend="FALSE">
                <masterclipid>masterclip-359</masterclipid>
                <name>00582.MTS</name>
                <file id="file-359"/>
                <sourcetrack>
                  <mediatype>audio</mediatype>
                  <trackindex>2</trackindex>
                </sourcetrack>
                <link>
                  <linkclipref>clipitem-1087</linkclipref>
                  <mediatype>video</mediatype>
                  <trackindex>1</trackindex>
                  <clipindex>1</clipindex>
                </link>
                <link>
                  <linkclipref>clipitem-1088</linkclipref>
                  <mediatype>audio</mediatype>
                  <trackindex>1</trackindex>
                  <clipindex>1</clipindex>
                  <groupindex>1</groupindex>
                </link>
                <link>
                  <linkclipref>clipitem-1089</linkclipref>
                  <mediatype>audio</mediatype>
                  <trackindex>2</trackindex>
                  <clipindex>1</clipindex>
                  <groupindex>1</groupindex>
                </link>
              </clipitem>
            </track>
          </audio>
        </media>
        <logginginfo>
          <description/>
          <scene/>
          <shottake/>
          <lognote/>
        </logginginfo>
      </clip>
      <clip id="masterclip-360" frameBlend="FALSE">
        <uuid>a56592bd-5020-40f0-ac8b-6f1b9a18bb0e</uuid>
        <masterclipid>masterclip-360</masterclipid>
        <ismasterclip>TRUE</ismasterclip>
        <duration>109</duration>
        <rate>
          <timebase>24</timebase>
          <ntsc>TRUE</ntsc>
        </rate>
        <name>00583.MTS</name>
        <media>
          <video>
            <track>
              <clipitem id="clipitem-1090" frameBlend="FALSE">
                <masterclipid>masterclip-360</masterclipid>
                <name>00583.MTS</name>
                <alphatype>black</alphatype>
                <pixelaspectratio>square</pixelaspectratio>
                <anamorphic>FALSE</anamorphic>
                <file id="file-360">
                  <name>00583.MTS</name>
                  <pathurl>file://localhost/Volumes/Macintosh%20HD/Users/jacksongs/Desktop/STREAM/00583.MTS</pathurl>
                  <rate>
                    <timebase>24</timebase>
                    <ntsc>TRUE</ntsc>
                  </rate>
                  <duration>109</duration>
                  <timecode>
                    <rate>
                      <timebase>24</timebase>
                      <ntsc>TRUE</ntsc>
                    </rate>
                    <string>00:00:00:00</string>
                    <frame>0</frame>
                    <displayformat>NDF</displayformat>
                    <reel>
                      <name/>
                    </reel>
                  </timecode>
                  <media>
                    <video>
                      <duration>18000</duration>
                      <samplecharacteristics>
                        <rate>
                          <timebase>24</timebase>
                          <ntsc>TRUE</ntsc>
                        </rate>
                        <width>1920</width>
                        <height>1080</height>
                        <anamorphic>FALSE</anamorphic>
                        <pixelaspectratio>square</pixelaspectratio>
                        <fielddominance>none</fielddominance>
                      </samplecharacteristics>
                    </video>
                    <audio>
                      <samplecharacteristics>
                        <depth>16</depth>
                        <samplerate>48000</samplerate>
                      </samplecharacteristics>
                      <channelcount>2</channelcount>
                    </audio>
                  </media>
                </file>
                <link>
                  <linkclipref>clipitem-1090</linkclipref>
                  <mediatype>video</mediatype>
                  <trackindex>1</trackindex>
                  <clipindex>1</clipindex>
                </link>
                <link>
                  <linkclipref>clipitem-1091</linkclipref>
                  <mediatype>audio</mediatype>
                  <trackindex>1</trackindex>
                  <clipindex>1</clipindex>
                  <groupindex>1</groupindex>
                </link>
                <link>
                  <linkclipref>clipitem-1092</linkclipref>
                  <mediatype>audio</mediatype>
                  <trackindex>2</trackindex>
                  <clipindex>1</clipindex>
                  <groupindex>1</groupindex>
                </link>
              </clipitem>
            </track>
          </video>
          <audio>
            <track>
              <clipitem id="clipitem-1091" frameBlend="FALSE">
                <masterclipid>masterclip-360</masterclipid>
                <name>00583.MTS</name>
                <file id="file-360"/>
                <sourcetrack>
                  <mediatype>audio</mediatype>
                  <trackindex>1</trackindex>
                </sourcetrack>
                <link>
                  <linkclipref>clipitem-1090</linkclipref>
                  <mediatype>video</mediatype>
                  <trackindex>1</trackindex>
                  <clipindex>1</clipindex>
                </link>
                <link>
                  <linkclipref>clipitem-1091</linkclipref>
                  <mediatype>audio</mediatype>
                  <trackindex>1</trackindex>
                  <clipindex>1</clipindex>
                  <groupindex>1</groupindex>
                </link>
                <link>
                  <linkclipref>clipitem-1092</linkclipref>
                  <mediatype>audio</mediatype>
                  <trackindex>2</trackindex>
                  <clipindex>1</clipindex>
                  <groupindex>1</groupindex>
                </link>
              </clipitem>
            </track>
            <track>
              <clipitem id="clipitem-1092" frameBlend="FALSE">
                <masterclipid>masterclip-360</masterclipid>
                <name>00583.MTS</name>
                <file id="file-360"/>
                <sourcetrack>
                  <mediatype>audio</mediatype>
                  <trackindex>2</trackindex>
                </sourcetrack>
                <link>
                  <linkclipref>clipitem-1090</linkclipref>
                  <mediatype>video</mediatype>
                  <trackindex>1</trackindex>
                  <clipindex>1</clipindex>
                </link>
                <link>
                  <linkclipref>clipitem-1091</linkclipref>
                  <mediatype>audio</mediatype>
                  <trackindex>1</trackindex>
                  <clipindex>1</clipindex>
                  <groupindex>1</groupindex>
                </link>
                <link>
                  <linkclipref>clipitem-1092</linkclipref>
                  <mediatype>audio</mediatype>
                  <trackindex>2</trackindex>
                  <clipindex>1</clipindex>
                  <groupindex>1</groupindex>
                </link>
              </clipitem>
            </track>
          </audio>
        </media>
        <logginginfo>
          <description/>
          <scene/>
          <shottake/>
          <lognote/>
        </logginginfo>
      </clip>
      <clip id="masterclip-361" frameBlend="FALSE">
        <uuid>195414c2-7db9-4712-8b27-47c9585e6767</uuid>
        <masterclipid>masterclip-361</masterclipid>
        <ismasterclip>TRUE</ismasterclip>
        <duration>145</duration>
        <rate>
          <timebase>24</timebase>
          <ntsc>TRUE</ntsc>
        </rate>
        <name>00584.MTS</name>
        <media>
          <video>
            <track>
              <clipitem id="clipitem-1093" frameBlend="FALSE">
                <masterclipid>masterclip-361</masterclipid>
                <name>00584.MTS</name>
                <alphatype>black</alphatype>
                <pixelaspectratio>square</pixelaspectratio>
                <anamorphic>FALSE</anamorphic>
                <file id="file-361">
                  <name>00584.MTS</name>
                  <pathurl>file://localhost/Volumes/Macintosh%20HD/Users/jacksongs/Desktop/STREAM/00584.MTS</pathurl>
                  <rate>
                    <timebase>24</timebase>
                    <ntsc>TRUE</ntsc>
                  </rate>
                  <duration>145</duration>
                  <timecode>
                    <rate>
                      <timebase>24</timebase>
                      <ntsc>TRUE</ntsc>
                    </rate>
                    <string>00:00:00:00</string>
                    <frame>0</frame>
                    <displayformat>NDF</displayformat>
                    <reel>
                      <name/>
                    </reel>
                  </timecode>
                  <media>
                    <video>
                      <duration>18000</duration>
                      <samplecharacteristics>
                        <rate>
                          <timebase>24</timebase>
                          <ntsc>TRUE</ntsc>
                        </rate>
                        <width>1920</width>
                        <height>1080</height>
                        <anamorphic>FALSE</anamorphic>
                        <pixelaspectratio>square</pixelaspectratio>
                        <fielddominance>none</fielddominance>
                      </samplecharacteristics>
                    </video>
                    <audio>
                      <samplecharacteristics>
                        <depth>16</depth>
                        <samplerate>48000</samplerate>
                      </samplecharacteristics>
                      <channelcount>2</channelcount>
                    </audio>
                  </media>
                </file>
                <link>
                  <linkclipref>clipitem-1093</linkclipref>
                  <mediatype>video</mediatype>
                  <trackindex>1</trackindex>
                  <clipindex>1</clipindex>
                </link>
                <link>
                  <linkclipref>clipitem-1094</linkclipref>
                  <mediatype>audio</mediatype>
                  <trackindex>1</trackindex>
                  <clipindex>1</clipindex>
                  <groupindex>1</groupindex>
                </link>
                <link>
                  <linkclipref>clipitem-1095</linkclipref>
                  <mediatype>audio</mediatype>
                  <trackindex>2</trackindex>
                  <clipindex>1</clipindex>
                  <groupindex>1</groupindex>
                </link>
              </clipitem>
            </track>
          </video>
          <audio>
            <track>
              <clipitem id="clipitem-1094" frameBlend="FALSE">
                <masterclipid>masterclip-361</masterclipid>
                <name>00584.MTS</name>
                <file id="file-361"/>
                <sourcetrack>
                  <mediatype>audio</mediatype>
                  <trackindex>1</trackindex>
                </sourcetrack>
                <link>
                  <linkclipref>clipitem-1093</linkclipref>
                  <mediatype>video</mediatype>
                  <trackindex>1</trackindex>
                  <clipindex>1</clipindex>
                </link>
                <link>
                  <linkclipref>clipitem-1094</linkclipref>
                  <mediatype>audio</mediatype>
                  <trackindex>1</trackindex>
                  <clipindex>1</clipindex>
                  <groupindex>1</groupindex>
                </link>
                <link>
                  <linkclipref>clipitem-1095</linkclipref>
                  <mediatype>audio</mediatype>
                  <trackindex>2</trackindex>
                  <clipindex>1</clipindex>
                  <groupindex>1</groupindex>
                </link>
              </clipitem>
            </track>
            <track>
              <clipitem id="clipitem-1095" frameBlend="FALSE">
                <masterclipid>masterclip-361</masterclipid>
                <name>00584.MTS</name>
                <file id="file-361"/>
                <sourcetrack>
                  <mediatype>audio</mediatype>
                  <trackindex>2</trackindex>
                </sourcetrack>
                <link>
                  <linkclipref>clipitem-1093</linkclipref>
                  <mediatype>video</mediatype>
                  <trackindex>1</trackindex>
                  <clipindex>1</clipindex>
                </link>
                <link>
                  <linkclipref>clipitem-1094</linkclipref>
                  <mediatype>audio</mediatype>
                  <trackindex>1</trackindex>
                  <clipindex>1</clipindex>
                  <groupindex>1</groupindex>
                </link>
                <link>
                  <linkclipref>clipitem-1095</linkclipref>
                  <mediatype>audio</mediatype>
                  <trackindex>2</trackindex>
                  <clipindex>1</clipindex>
                  <groupindex>1</groupindex>
                </link>
              </clipitem>
            </track>
          </audio>
        </media>
        <logginginfo>
          <description/>
          <scene/>
          <shottake/>
          <lognote/>
        </logginginfo>
      </clip>
      <clip id="masterclip-362" frameBlend="FALSE">
        <uuid>48b9324d-68bd-4f7a-84f4-168d99447525</uuid>
        <masterclipid>masterclip-362</masterclipid>
        <ismasterclip>TRUE</ismasterclip>
        <duration>445</duration>
        <rate>
          <timebase>24</timebase>
          <ntsc>TRUE</ntsc>
        </rate>
        <name>00585.MTS</name>
        <media>
          <video>
            <track>
              <clipitem id="clipitem-1096" frameBlend="FALSE">
                <masterclipid>masterclip-362</masterclipid>
                <name>00585.MTS</name>
                <alphatype>black</alphatype>
                <pixelaspectratio>square</pixelaspectratio>
                <anamorphic>FALSE</anamorphic>
                <file id="file-362">
                  <name>00585.MTS</name>
                  <pathurl>file://localhost/Volumes/Macintosh%20HD/Users/jacksongs/Desktop/STREAM/00585.MTS</pathurl>
                  <rate>
                    <timebase>24</timebase>
                    <ntsc>TRUE</ntsc>
                  </rate>
                  <duration>445</duration>
                  <timecode>
                    <rate>
                      <timebase>24</timebase>
                      <ntsc>TRUE</ntsc>
                    </rate>
                    <string>00:00:00:00</string>
                    <frame>0</frame>
                    <displayformat>NDF</displayformat>
                    <reel>
                      <name/>
                    </reel>
                  </timecode>
                  <media>
                    <video>
                      <duration>18000</duration>
                      <samplecharacteristics>
                        <rate>
                          <timebase>24</timebase>
                          <ntsc>TRUE</ntsc>
                        </rate>
                        <width>1920</width>
                        <height>1080</height>
                        <anamorphic>FALSE</anamorphic>
                        <pixelaspectratio>square</pixelaspectratio>
                        <fielddominance>none</fielddominance>
                      </samplecharacteristics>
                    </video>
                    <audio>
                      <samplecharacteristics>
                        <depth>16</depth>
                        <samplerate>48000</samplerate>
                      </samplecharacteristics>
                      <channelcount>2</channelcount>
                    </audio>
                  </media>
                </file>
                <link>
                  <linkclipref>clipitem-1096</linkclipref>
                  <mediatype>video</mediatype>
                  <trackindex>1</trackindex>
                  <clipindex>1</clipindex>
                </link>
                <link>
                  <linkclipref>clipitem-1097</linkclipref>
                  <mediatype>audio</mediatype>
                  <trackindex>1</trackindex>
                  <clipindex>1</clipindex>
                  <groupindex>1</groupindex>
                </link>
                <link>
                  <linkclipref>clipitem-1098</linkclipref>
                  <mediatype>audio</mediatype>
                  <trackindex>2</trackindex>
                  <clipindex>1</clipindex>
                  <groupindex>1</groupindex>
                </link>
              </clipitem>
            </track>
          </video>
          <audio>
            <track>
              <clipitem id="clipitem-1097" frameBlend="FALSE">
                <masterclipid>masterclip-362</masterclipid>
                <name>00585.MTS</name>
                <file id="file-362"/>
                <sourcetrack>
                  <mediatype>audio</mediatype>
                  <trackindex>1</trackindex>
                </sourcetrack>
                <link>
                  <linkclipref>clipitem-1096</linkclipref>
                  <mediatype>video</mediatype>
                  <trackindex>1</trackindex>
                  <clipindex>1</clipindex>
                </link>
                <link>
                  <linkclipref>clipitem-1097</linkclipref>
                  <mediatype>audio</mediatype>
                  <trackindex>1</trackindex>
                  <clipindex>1</clipindex>
                  <groupindex>1</groupindex>
                </link>
                <link>
                  <linkclipref>clipitem-1098</linkclipref>
                  <mediatype>audio</mediatype>
                  <trackindex>2</trackindex>
                  <clipindex>1</clipindex>
                  <groupindex>1</groupindex>
                </link>
              </clipitem>
            </track>
            <track>
              <clipitem id="clipitem-1098" frameBlend="FALSE">
                <masterclipid>masterclip-362</masterclipid>
                <name>00585.MTS</name>
                <file id="file-362"/>
                <sourcetrack>
                  <mediatype>audio</mediatype>
                  <trackindex>2</trackindex>
                </sourcetrack>
                <link>
                  <linkclipref>clipitem-1096</linkclipref>
                  <mediatype>video</mediatype>
                  <trackindex>1</trackindex>
                  <clipindex>1</clipindex>
                </link>
                <link>
                  <linkclipref>clipitem-1097</linkclipref>
                  <mediatype>audio</mediatype>
                  <trackindex>1</trackindex>
                  <clipindex>1</clipindex>
                  <groupindex>1</groupindex>
                </link>
                <link>
                  <linkclipref>clipitem-1098</linkclipref>
                  <mediatype>audio</mediatype>
                  <trackindex>2</trackindex>
                  <clipindex>1</clipindex>
                  <groupindex>1</groupindex>
                </link>
              </clipitem>
            </track>
          </audio>
        </media>
        <logginginfo>
          <description/>
          <scene/>
          <shottake/>
          <lognote/>
        </logginginfo>
      </clip>
      <clip id="masterclip-363" frameBlend="FALSE">
        <uuid>ac6d80d5-996e-4d9f-9403-dda77ced7781</uuid>
        <masterclipid>masterclip-363</masterclipid>
        <ismasterclip>TRUE</ismasterclip>
        <duration>733</duration>
        <rate>
          <timebase>24</timebase>
          <ntsc>TRUE</ntsc>
        </rate>
        <name>00586.MTS</name>
        <media>
          <video>
            <track>
              <clipitem id="clipitem-1099" frameBlend="FALSE">
                <masterclipid>masterclip-363</masterclipid>
                <name>00586.MTS</name>
                <alphatype>black</alphatype>
                <pixelaspectratio>square</pixelaspectratio>
                <anamorphic>FALSE</anamorphic>
                <file id="file-363">
                  <name>00586.MTS</name>
                  <pathurl>file://localhost/Volumes/Macintosh%20HD/Users/jacksongs/Desktop/STREAM/00586.MTS</pathurl>
                  <rate>
                    <timebase>24</timebase>
                    <ntsc>TRUE</ntsc>
                  </rate>
                  <duration>733</duration>
                  <timecode>
                    <rate>
                      <timebase>24</timebase>
                      <ntsc>TRUE</ntsc>
                    </rate>
                    <string>00:00:00:00</string>
                    <frame>0</frame>
                    <displayformat>NDF</displayformat>
                    <reel>
                      <name/>
                    </reel>
                  </timecode>
                  <media>
                    <video>
                      <duration>18000</duration>
                      <samplecharacteristics>
                        <rate>
                          <timebase>24</timebase>
                          <ntsc>TRUE</ntsc>
                        </rate>
                        <width>1920</width>
                        <height>1080</height>
                        <anamorphic>FALSE</anamorphic>
                        <pixelaspectratio>square</pixelaspectratio>
                        <fielddominance>none</fielddominance>
                      </samplecharacteristics>
                    </video>
                    <audio>
                      <samplecharacteristics>
                        <depth>16</depth>
                        <samplerate>48000</samplerate>
                      </samplecharacteristics>
                      <channelcount>2</channelcount>
                    </audio>
                  </media>
                </file>
                <link>
                  <linkclipref>clipitem-1099</linkclipref>
                  <mediatype>video</mediatype>
                  <trackindex>1</trackindex>
                  <clipindex>1</clipindex>
                </link>
                <link>
                  <linkclipref>clipitem-1100</linkclipref>
                  <mediatype>audio</mediatype>
                  <trackindex>1</trackindex>
                  <clipindex>1</clipindex>
                  <groupindex>1</groupindex>
                </link>
                <link>
                  <linkclipref>clipitem-1101</linkclipref>
                  <mediatype>audio</mediatype>
                  <trackindex>2</trackindex>
                  <clipindex>1</clipindex>
                  <groupindex>1</groupindex>
                </link>
              </clipitem>
            </track>
          </video>
          <audio>
            <track>
              <clipitem id="clipitem-1100" frameBlend="FALSE">
                <masterclipid>masterclip-363</masterclipid>
                <name>00586.MTS</name>
                <file id="file-363"/>
                <sourcetrack>
                  <mediatype>audio</mediatype>
                  <trackindex>1</trackindex>
                </sourcetrack>
                <link>
                  <linkclipref>clipitem-1099</linkclipref>
                  <mediatype>video</mediatype>
                  <trackindex>1</trackindex>
                  <clipindex>1</clipindex>
                </link>
                <link>
                  <linkclipref>clipitem-1100</linkclipref>
                  <mediatype>audio</mediatype>
                  <trackindex>1</trackindex>
                  <clipindex>1</clipindex>
                  <groupindex>1</groupindex>
                </link>
                <link>
                  <linkclipref>clipitem-1101</linkclipref>
                  <mediatype>audio</mediatype>
                  <trackindex>2</trackindex>
                  <clipindex>1</clipindex>
                  <groupindex>1</groupindex>
                </link>
              </clipitem>
            </track>
            <track>
              <clipitem id="clipitem-1101" frameBlend="FALSE">
                <masterclipid>masterclip-363</masterclipid>
                <name>00586.MTS</name>
                <file id="file-363"/>
                <sourcetrack>
                  <mediatype>audio</mediatype>
                  <trackindex>2</trackindex>
                </sourcetrack>
                <link>
                  <linkclipref>clipitem-1099</linkclipref>
                  <mediatype>video</mediatype>
                  <trackindex>1</trackindex>
                  <clipindex>1</clipindex>
                </link>
                <link>
                  <linkclipref>clipitem-1100</linkclipref>
                  <mediatype>audio</mediatype>
                  <trackindex>1</trackindex>
                  <clipindex>1</clipindex>
                  <groupindex>1</groupindex>
                </link>
                <link>
                  <linkclipref>clipitem-1101</linkclipref>
                  <mediatype>audio</mediatype>
                  <trackindex>2</trackindex>
                  <clipindex>1</clipindex>
                  <groupindex>1</groupindex>
                </link>
              </clipitem>
            </track>
          </audio>
        </media>
        <logginginfo>
          <description/>
          <scene/>
          <shottake/>
          <lognote/>
        </logginginfo>
      </clip>
      <clip id="masterclip-364" frameBlend="FALSE">
        <uuid>9638d1f3-2c7b-491c-8fc5-7ca68e5cc967</uuid>
        <masterclipid>masterclip-364</masterclipid>
        <ismasterclip>TRUE</ismasterclip>
        <duration>757</duration>
        <rate>
          <timebase>24</timebase>
          <ntsc>TRUE</ntsc>
        </rate>
        <name>00587.MTS</name>
        <media>
          <video>
            <track>
              <clipitem id="clipitem-1102" frameBlend="FALSE">
                <masterclipid>masterclip-364</masterclipid>
                <name>00587.MTS</name>
                <alphatype>black</alphatype>
                <pixelaspectratio>square</pixelaspectratio>
                <anamorphic>FALSE</anamorphic>
                <file id="file-364">
                  <name>00587.MTS</name>
                  <pathurl>file://localhost/Volumes/Macintosh%20HD/Users/jacksongs/Desktop/STREAM/00587.MTS</pathurl>
                  <rate>
                    <timebase>24</timebase>
                    <ntsc>TRUE</ntsc>
                  </rate>
                  <duration>757</duration>
                  <timecode>
                    <rate>
                      <timebase>24</timebase>
                      <ntsc>TRUE</ntsc>
                    </rate>
                    <string>00:00:00:00</string>
                    <frame>0</frame>
                    <displayformat>NDF</displayformat>
                    <reel>
                      <name/>
                    </reel>
                  </timecode>
                  <media>
                    <video>
                      <duration>18000</duration>
                      <samplecharacteristics>
                        <rate>
                          <timebase>24</timebase>
                          <ntsc>TRUE</ntsc>
                        </rate>
                        <width>1920</width>
                        <height>1080</height>
                        <anamorphic>FALSE</anamorphic>
                        <pixelaspectratio>square</pixelaspectratio>
                        <fielddominance>none</fielddominance>
                      </samplecharacteristics>
                    </video>
                    <audio>
                      <samplecharacteristics>
                        <depth>16</depth>
                        <samplerate>48000</samplerate>
                      </samplecharacteristics>
                      <channelcount>2</channelcount>
                    </audio>
                  </media>
                </file>
                <link>
                  <linkclipref>clipitem-1102</linkclipref>
                  <mediatype>video</mediatype>
                  <trackindex>1</trackindex>
                  <clipindex>1</clipindex>
                </link>
                <link>
                  <linkclipref>clipitem-1103</linkclipref>
                  <mediatype>audio</mediatype>
                  <trackindex>1</trackindex>
                  <clipindex>1</clipindex>
                  <groupindex>1</groupindex>
                </link>
                <link>
                  <linkclipref>clipitem-1104</linkclipref>
                  <mediatype>audio</mediatype>
                  <trackindex>2</trackindex>
                  <clipindex>1</clipindex>
                  <groupindex>1</groupindex>
                </link>
              </clipitem>
            </track>
          </video>
          <audio>
            <track>
              <clipitem id="clipitem-1103" frameBlend="FALSE">
                <masterclipid>masterclip-364</masterclipid>
                <name>00587.MTS</name>
                <file id="file-364"/>
                <sourcetrack>
                  <mediatype>audio</mediatype>
                  <trackindex>1</trackindex>
                </sourcetrack>
                <link>
                  <linkclipref>clipitem-1102</linkclipref>
                  <mediatype>video</mediatype>
                  <trackindex>1</trackindex>
                  <clipindex>1</clipindex>
                </link>
                <link>
                  <linkclipref>clipitem-1103</linkclipref>
                  <mediatype>audio</mediatype>
                  <trackindex>1</trackindex>
                  <clipindex>1</clipindex>
                  <groupindex>1</groupindex>
                </link>
                <link>
                  <linkclipref>clipitem-1104</linkclipref>
                  <mediatype>audio</mediatype>
                  <trackindex>2</trackindex>
                  <clipindex>1</clipindex>
                  <groupindex>1</groupindex>
                </link>
              </clipitem>
            </track>
            <track>
              <clipitem id="clipitem-1104" frameBlend="FALSE">
                <masterclipid>masterclip-364</masterclipid>
                <name>00587.MTS</name>
                <file id="file-364"/>
                <sourcetrack>
                  <mediatype>audio</mediatype>
                  <trackindex>2</trackindex>
                </sourcetrack>
                <link>
                  <linkclipref>clipitem-1102</linkclipref>
                  <mediatype>video</mediatype>
                  <trackindex>1</trackindex>
                  <clipindex>1</clipindex>
                </link>
                <link>
                  <linkclipref>clipitem-1103</linkclipref>
                  <mediatype>audio</mediatype>
                  <trackindex>1</trackindex>
                  <clipindex>1</clipindex>
                  <groupindex>1</groupindex>
                </link>
                <link>
                  <linkclipref>clipitem-1104</linkclipref>
                  <mediatype>audio</mediatype>
                  <trackindex>2</trackindex>
                  <clipindex>1</clipindex>
                  <groupindex>1</groupindex>
                </link>
              </clipitem>
            </track>
          </audio>
        </media>
        <logginginfo>
          <description/>
          <scene/>
          <shottake/>
          <lognote/>
        </logginginfo>
      </clip>
      <clip id="masterclip-365" frameBlend="FALSE">
        <uuid>7bdc7916-5b46-4ef1-86e4-7cb2a19fe9fd</uuid>
        <masterclipid>masterclip-365</masterclipid>
        <ismasterclip>TRUE</ismasterclip>
        <duration>1201</duration>
        <rate>
          <timebase>24</timebase>
          <ntsc>TRUE</ntsc>
        </rate>
        <name>00588.MTS</name>
        <media>
          <video>
            <track>
              <clipitem id="clipitem-1105" frameBlend="FALSE">
                <masterclipid>masterclip-365</masterclipid>
                <name>00588.MTS</name>
                <alphatype>black</alphatype>
                <pixelaspectratio>square</pixelaspectratio>
                <anamorphic>FALSE</anamorphic>
                <file id="file-365">
                  <name>00588.MTS</name>
                  <pathurl>file://localhost/Volumes/Macintosh%20HD/Users/jacksongs/Desktop/STREAM/00588.MTS</pathurl>
                  <rate>
                    <timebase>24</timebase>
                    <ntsc>TRUE</ntsc>
                  </rate>
                  <duration>1201</duration>
                  <timecode>
                    <rate>
                      <timebase>24</timebase>
                      <ntsc>TRUE</ntsc>
                    </rate>
                    <string>00:00:00:00</string>
                    <frame>0</frame>
                    <displayformat>NDF</displayformat>
                    <reel>
                      <name/>
                    </reel>
                  </timecode>
                  <media>
                    <video>
                      <duration>18000</duration>
                      <samplecharacteristics>
                        <rate>
                          <timebase>24</timebase>
                          <ntsc>TRUE</ntsc>
                        </rate>
                        <width>1920</width>
                        <height>1080</height>
                        <anamorphic>FALSE</anamorphic>
                        <pixelaspectratio>square</pixelaspectratio>
                        <fielddominance>none</fielddominance>
                      </samplecharacteristics>
                    </video>
                    <audio>
                      <samplecharacteristics>
                        <depth>16</depth>
                        <samplerate>48000</samplerate>
                      </samplecharacteristics>
                      <channelcount>2</channelcount>
                    </audio>
                  </media>
                </file>
                <link>
                  <linkclipref>clipitem-1105</linkclipref>
                  <mediatype>video</mediatype>
                  <trackindex>1</trackindex>
                  <clipindex>1</clipindex>
                </link>
                <link>
                  <linkclipref>clipitem-1106</linkclipref>
                  <mediatype>audio</mediatype>
                  <trackindex>1</trackindex>
                  <clipindex>1</clipindex>
                  <groupindex>1</groupindex>
                </link>
                <link>
                  <linkclipref>clipitem-1107</linkclipref>
                  <mediatype>audio</mediatype>
                  <trackindex>2</trackindex>
                  <clipindex>1</clipindex>
                  <groupindex>1</groupindex>
                </link>
              </clipitem>
            </track>
          </video>
          <audio>
            <track>
              <clipitem id="clipitem-1106" frameBlend="FALSE">
                <masterclipid>masterclip-365</masterclipid>
                <name>00588.MTS</name>
                <file id="file-365"/>
                <sourcetrack>
                  <mediatype>audio</mediatype>
                  <trackindex>1</trackindex>
                </sourcetrack>
                <link>
                  <linkclipref>clipitem-1105</linkclipref>
                  <mediatype>video</mediatype>
                  <trackindex>1</trackindex>
                  <clipindex>1</clipindex>
                </link>
                <link>
                  <linkclipref>clipitem-1106</linkclipref>
                  <mediatype>audio</mediatype>
                  <trackindex>1</trackindex>
                  <clipindex>1</clipindex>
                  <groupindex>1</groupindex>
                </link>
                <link>
                  <linkclipref>clipitem-1107</linkclipref>
                  <mediatype>audio</mediatype>
                  <trackindex>2</trackindex>
                  <clipindex>1</clipindex>
                  <groupindex>1</groupindex>
                </link>
              </clipitem>
            </track>
            <track>
              <clipitem id="clipitem-1107" frameBlend="FALSE">
                <masterclipid>masterclip-365</masterclipid>
                <name>00588.MTS</name>
                <file id="file-365"/>
                <sourcetrack>
                  <mediatype>audio</mediatype>
                  <trackindex>2</trackindex>
                </sourcetrack>
                <link>
                  <linkclipref>clipitem-1105</linkclipref>
                  <mediatype>video</mediatype>
                  <trackindex>1</trackindex>
                  <clipindex>1</clipindex>
                </link>
                <link>
                  <linkclipref>clipitem-1106</linkclipref>
                  <mediatype>audio</mediatype>
                  <trackindex>1</trackindex>
                  <clipindex>1</clipindex>
                  <groupindex>1</groupindex>
                </link>
                <link>
                  <linkclipref>clipitem-1107</linkclipref>
                  <mediatype>audio</mediatype>
                  <trackindex>2</trackindex>
                  <clipindex>1</clipindex>
                  <groupindex>1</groupindex>
                </link>
              </clipitem>
            </track>
          </audio>
        </media>
        <logginginfo>
          <description/>
          <scene/>
          <shottake/>
          <lognote/>
        </logginginfo>
      </clip>
      <clip id="masterclip-366" frameBlend="FALSE">
        <uuid>8672c26f-eba9-42f5-a853-c88e7adcf274</uuid>
        <masterclipid>masterclip-366</masterclipid>
        <ismasterclip>TRUE</ismasterclip>
        <duration>937</duration>
        <rate>
          <timebase>24</timebase>
          <ntsc>TRUE</ntsc>
        </rate>
        <name>00589.MTS</name>
        <media>
          <video>
            <track>
              <clipitem id="clipitem-1108" frameBlend="FALSE">
                <masterclipid>masterclip-366</masterclipid>
                <name>00589.MTS</name>
                <alphatype>black</alphatype>
                <pixelaspectratio>square</pixelaspectratio>
                <anamorphic>FALSE</anamorphic>
                <file id="file-366">
                  <name>00589.MTS</name>
                  <pathurl>file://localhost/Volumes/Macintosh%20HD/Users/jacksongs/Desktop/STREAM/00589.MTS</pathurl>
                  <rate>
                    <timebase>24</timebase>
                    <ntsc>TRUE</ntsc>
                  </rate>
                  <duration>937</duration>
                  <timecode>
                    <rate>
                      <timebase>24</timebase>
                      <ntsc>TRUE</ntsc>
                    </rate>
                    <string>00:00:00:00</string>
                    <frame>0</frame>
                    <displayformat>NDF</displayformat>
                    <reel>
                      <name/>
                    </reel>
                  </timecode>
                  <media>
                    <video>
                      <duration>18000</duration>
                      <samplecharacteristics>
                        <rate>
                          <timebase>24</timebase>
                          <ntsc>TRUE</ntsc>
                        </rate>
                        <width>1920</width>
                        <height>1080</height>
                        <anamorphic>FALSE</anamorphic>
                        <pixelaspectratio>square</pixelaspectratio>
                        <fielddominance>none</fielddominance>
                      </samplecharacteristics>
                    </video>
                    <audio>
                      <samplecharacteristics>
                        <depth>16</depth>
                        <samplerate>48000</samplerate>
                      </samplecharacteristics>
                      <channelcount>2</channelcount>
                    </audio>
                  </media>
                </file>
                <link>
                  <linkclipref>clipitem-1108</linkclipref>
                  <mediatype>video</mediatype>
                  <trackindex>1</trackindex>
                  <clipindex>1</clipindex>
                </link>
                <link>
                  <linkclipref>clipitem-1109</linkclipref>
                  <mediatype>audio</mediatype>
                  <trackindex>1</trackindex>
                  <clipindex>1</clipindex>
                  <groupindex>1</groupindex>
                </link>
                <link>
                  <linkclipref>clipitem-1110</linkclipref>
                  <mediatype>audio</mediatype>
                  <trackindex>2</trackindex>
                  <clipindex>1</clipindex>
                  <groupindex>1</groupindex>
                </link>
              </clipitem>
            </track>
          </video>
          <audio>
            <track>
              <clipitem id="clipitem-1109" frameBlend="FALSE">
                <masterclipid>masterclip-366</masterclipid>
                <name>00589.MTS</name>
                <file id="file-366"/>
                <sourcetrack>
                  <mediatype>audio</mediatype>
                  <trackindex>1</trackindex>
                </sourcetrack>
                <link>
                  <linkclipref>clipitem-1108</linkclipref>
                  <mediatype>video</mediatype>
                  <trackindex>1</trackindex>
                  <clipindex>1</clipindex>
                </link>
                <link>
                  <linkclipref>clipitem-1109</linkclipref>
                  <mediatype>audio</mediatype>
                  <trackindex>1</trackindex>
                  <clipindex>1</clipindex>
                  <groupindex>1</groupindex>
                </link>
                <link>
                  <linkclipref>clipitem-1110</linkclipref>
                  <mediatype>audio</mediatype>
                  <trackindex>2</trackindex>
                  <clipindex>1</clipindex>
                  <groupindex>1</groupindex>
                </link>
              </clipitem>
            </track>
            <track>
              <clipitem id="clipitem-1110" frameBlend="FALSE">
                <masterclipid>masterclip-366</masterclipid>
                <name>00589.MTS</name>
                <file id="file-366"/>
                <sourcetrack>
                  <mediatype>audio</mediatype>
                  <trackindex>2</trackindex>
                </sourcetrack>
                <link>
                  <linkclipref>clipitem-1108</linkclipref>
                  <mediatype>video</mediatype>
                  <trackindex>1</trackindex>
                  <clipindex>1</clipindex>
                </link>
                <link>
                  <linkclipref>clipitem-1109</linkclipref>
                  <mediatype>audio</mediatype>
                  <trackindex>1</trackindex>
                  <clipindex>1</clipindex>
                  <groupindex>1</groupindex>
                </link>
                <link>
                  <linkclipref>clipitem-1110</linkclipref>
                  <mediatype>audio</mediatype>
                  <trackindex>2</trackindex>
                  <clipindex>1</clipindex>
                  <groupindex>1</groupindex>
                </link>
              </clipitem>
            </track>
          </audio>
        </media>
        <logginginfo>
          <description/>
          <scene/>
          <shottake/>
          <lognote/>
        </logginginfo>
      </clip>
      <clip id="masterclip-367" frameBlend="FALSE">
        <uuid>33090342-b939-4ec3-b069-2786b496017a</uuid>
        <masterclipid>masterclip-367</masterclipid>
        <ismasterclip>TRUE</ismasterclip>
        <duration>1249</duration>
        <rate>
          <timebase>24</timebase>
          <ntsc>TRUE</ntsc>
        </rate>
        <name>00590.MTS</name>
        <media>
          <video>
            <track>
              <clipitem id="clipitem-1111" frameBlend="FALSE">
                <masterclipid>masterclip-367</masterclipid>
                <name>00590.MTS</name>
                <alphatype>black</alphatype>
                <pixelaspectratio>square</pixelaspectratio>
                <anamorphic>FALSE</anamorphic>
                <file id="file-367">
                  <name>00590.MTS</name>
                  <pathurl>file://localhost/Volumes/Macintosh%20HD/Users/jacksongs/Desktop/STREAM/00590.MTS</pathurl>
                  <rate>
                    <timebase>24</timebase>
                    <ntsc>TRUE</ntsc>
                  </rate>
                  <duration>1249</duration>
                  <timecode>
                    <rate>
                      <timebase>24</timebase>
                      <ntsc>TRUE</ntsc>
                    </rate>
                    <string>00:00:00:00</string>
                    <frame>0</frame>
                    <displayformat>NDF</displayformat>
                    <reel>
                      <name/>
                    </reel>
                  </timecode>
                  <media>
                    <video>
                      <duration>18000</duration>
                      <samplecharacteristics>
                        <rate>
                          <timebase>24</timebase>
                          <ntsc>TRUE</ntsc>
                        </rate>
                        <width>1920</width>
                        <height>1080</height>
                        <anamorphic>FALSE</anamorphic>
                        <pixelaspectratio>square</pixelaspectratio>
                        <fielddominance>none</fielddominance>
                      </samplecharacteristics>
                    </video>
                    <audio>
                      <samplecharacteristics>
                        <depth>16</depth>
                        <samplerate>48000</samplerate>
                      </samplecharacteristics>
                      <channelcount>2</channelcount>
                    </audio>
                  </media>
                </file>
                <link>
                  <linkclipref>clipitem-1111</linkclipref>
                  <mediatype>video</mediatype>
                  <trackindex>1</trackindex>
                  <clipindex>1</clipindex>
                </link>
                <link>
                  <linkclipref>clipitem-1112</linkclipref>
                  <mediatype>audio</mediatype>
                  <trackindex>1</trackindex>
                  <clipindex>1</clipindex>
                  <groupindex>1</groupindex>
                </link>
                <link>
                  <linkclipref>clipitem-1113</linkclipref>
                  <mediatype>audio</mediatype>
                  <trackindex>2</trackindex>
                  <clipindex>1</clipindex>
                  <groupindex>1</groupindex>
                </link>
              </clipitem>
            </track>
          </video>
          <audio>
            <track>
              <clipitem id="clipitem-1112" frameBlend="FALSE">
                <masterclipid>masterclip-367</masterclipid>
                <name>00590.MTS</name>
                <file id="file-367"/>
                <sourcetrack>
                  <mediatype>audio</mediatype>
                  <trackindex>1</trackindex>
                </sourcetrack>
                <link>
                  <linkclipref>clipitem-1111</linkclipref>
                  <mediatype>video</mediatype>
                  <trackindex>1</trackindex>
                  <clipindex>1</clipindex>
                </link>
                <link>
                  <linkclipref>clipitem-1112</linkclipref>
                  <mediatype>audio</mediatype>
                  <trackindex>1</trackindex>
                  <clipindex>1</clipindex>
                  <groupindex>1</groupindex>
                </link>
                <link>
                  <linkclipref>clipitem-1113</linkclipref>
                  <mediatype>audio</mediatype>
                  <trackindex>2</trackindex>
                  <clipindex>1</clipindex>
                  <groupindex>1</groupindex>
                </link>
              </clipitem>
            </track>
            <track>
              <clipitem id="clipitem-1113" frameBlend="FALSE">
                <masterclipid>masterclip-367</masterclipid>
                <name>00590.MTS</name>
                <file id="file-367"/>
                <sourcetrack>
                  <mediatype>audio</mediatype>
                  <trackindex>2</trackindex>
                </sourcetrack>
                <link>
                  <linkclipref>clipitem-1111</linkclipref>
                  <mediatype>video</mediatype>
                  <trackindex>1</trackindex>
                  <clipindex>1</clipindex>
                </link>
                <link>
                  <linkclipref>clipitem-1112</linkclipref>
                  <mediatype>audio</mediatype>
                  <trackindex>1</trackindex>
                  <clipindex>1</clipindex>
                  <groupindex>1</groupindex>
                </link>
                <link>
                  <linkclipref>clipitem-1113</linkclipref>
                  <mediatype>audio</mediatype>
                  <trackindex>2</trackindex>
                  <clipindex>1</clipindex>
                  <groupindex>1</groupindex>
                </link>
              </clipitem>
            </track>
          </audio>
        </media>
        <logginginfo>
          <description/>
          <scene/>
          <shottake/>
          <lognote/>
        </logginginfo>
      </clip>
      <clip id="masterclip-368" frameBlend="FALSE">
        <uuid>aad10754-15e2-419d-9cfc-4d4acc2e3f4e</uuid>
        <masterclipid>masterclip-368</masterclipid>
        <ismasterclip>TRUE</ismasterclip>
        <duration>385</duration>
        <rate>
          <timebase>24</timebase>
          <ntsc>TRUE</ntsc>
        </rate>
        <name>00591.MTS</name>
        <media>
          <video>
            <track>
              <clipitem id="clipitem-1114" frameBlend="FALSE">
                <masterclipid>masterclip-368</masterclipid>
                <name>00591.MTS</name>
                <alphatype>black</alphatype>
                <pixelaspectratio>square</pixelaspectratio>
                <anamorphic>FALSE</anamorphic>
                <file id="file-368">
                  <name>00591.MTS</name>
                  <pathurl>file://localhost/Volumes/Macintosh%20HD/Users/jacksongs/Desktop/STREAM/00591.MTS</pathurl>
                  <rate>
                    <timebase>24</timebase>
                    <ntsc>TRUE</ntsc>
                  </rate>
                  <duration>385</duration>
                  <timecode>
                    <rate>
                      <timebase>24</timebase>
                      <ntsc>TRUE</ntsc>
                    </rate>
                    <string>00:00:00:00</string>
                    <frame>0</frame>
                    <displayformat>NDF</displayformat>
                    <reel>
                      <name/>
                    </reel>
                  </timecode>
                  <media>
                    <video>
                      <duration>18000</duration>
                      <samplecharacteristics>
                        <rate>
                          <timebase>24</timebase>
                          <ntsc>TRUE</ntsc>
                        </rate>
                        <width>1920</width>
                        <height>1080</height>
                        <anamorphic>FALSE</anamorphic>
                        <pixelaspectratio>square</pixelaspectratio>
                        <fielddominance>none</fielddominance>
                      </samplecharacteristics>
                    </video>
                    <audio>
                      <samplecharacteristics>
                        <depth>16</depth>
                        <samplerate>48000</samplerate>
                      </samplecharacteristics>
                      <channelcount>2</channelcount>
                    </audio>
                  </media>
                </file>
                <link>
                  <linkclipref>clipitem-1114</linkclipref>
                  <mediatype>video</mediatype>
                  <trackindex>1</trackindex>
                  <clipindex>1</clipindex>
                </link>
                <link>
                  <linkclipref>clipitem-1115</linkclipref>
                  <mediatype>audio</mediatype>
                  <trackindex>1</trackindex>
                  <clipindex>1</clipindex>
                  <groupindex>1</groupindex>
                </link>
                <link>
                  <linkclipref>clipitem-1116</linkclipref>
                  <mediatype>audio</mediatype>
                  <trackindex>2</trackindex>
                  <clipindex>1</clipindex>
                  <groupindex>1</groupindex>
                </link>
              </clipitem>
            </track>
          </video>
          <audio>
            <track>
              <clipitem id="clipitem-1115" frameBlend="FALSE">
                <masterclipid>masterclip-368</masterclipid>
                <name>00591.MTS</name>
                <file id="file-368"/>
                <sourcetrack>
                  <mediatype>audio</mediatype>
                  <trackindex>1</trackindex>
                </sourcetrack>
                <link>
                  <linkclipref>clipitem-1114</linkclipref>
                  <mediatype>video</mediatype>
                  <trackindex>1</trackindex>
                  <clipindex>1</clipindex>
                </link>
                <link>
                  <linkclipref>clipitem-1115</linkclipref>
                  <mediatype>audio</mediatype>
                  <trackindex>1</trackindex>
                  <clipindex>1</clipindex>
                  <groupindex>1</groupindex>
                </link>
                <link>
                  <linkclipref>clipitem-1116</linkclipref>
                  <mediatype>audio</mediatype>
                  <trackindex>2</trackindex>
                  <clipindex>1</clipindex>
                  <groupindex>1</groupindex>
                </link>
              </clipitem>
            </track>
            <track>
              <clipitem id="clipitem-1116" frameBlend="FALSE">
                <masterclipid>masterclip-368</masterclipid>
                <name>00591.MTS</name>
                <file id="file-368"/>
                <sourcetrack>
                  <mediatype>audio</mediatype>
                  <trackindex>2</trackindex>
                </sourcetrack>
                <link>
                  <linkclipref>clipitem-1114</linkclipref>
                  <mediatype>video</mediatype>
                  <trackindex>1</trackindex>
                  <clipindex>1</clipindex>
                </link>
                <link>
                  <linkclipref>clipitem-1115</linkclipref>
                  <mediatype>audio</mediatype>
                  <trackindex>1</trackindex>
                  <clipindex>1</clipindex>
                  <groupindex>1</groupindex>
                </link>
                <link>
                  <linkclipref>clipitem-1116</linkclipref>
                  <mediatype>audio</mediatype>
                  <trackindex>2</trackindex>
                  <clipindex>1</clipindex>
                  <groupindex>1</groupindex>
                </link>
              </clipitem>
            </track>
          </audio>
        </media>
        <logginginfo>
          <description/>
          <scene/>
          <shottake/>
          <lognote/>
        </logginginfo>
      </clip>
      <clip id="masterclip-369" frameBlend="FALSE">
        <uuid>a0fe2e3c-3f19-4fe4-8193-c3aac2b33974</uuid>
        <masterclipid>masterclip-369</masterclipid>
        <ismasterclip>TRUE</ismasterclip>
        <duration>109</duration>
        <rate>
          <timebase>24</timebase>
          <ntsc>TRUE</ntsc>
        </rate>
        <name>00592.MTS</name>
        <media>
          <video>
            <track>
              <clipitem id="clipitem-1117" frameBlend="FALSE">
                <masterclipid>masterclip-369</masterclipid>
                <name>00592.MTS</name>
                <alphatype>black</alphatype>
                <pixelaspectratio>square</pixelaspectratio>
                <anamorphic>FALSE</anamorphic>
                <file id="file-369">
                  <name>00592.MTS</name>
                  <pathurl>file://localhost/Volumes/Macintosh%20HD/Users/jacksongs/Desktop/STREAM/00592.MTS</pathurl>
                  <rate>
                    <timebase>24</timebase>
                    <ntsc>TRUE</ntsc>
                  </rate>
                  <duration>109</duration>
                  <timecode>
                    <rate>
                      <timebase>24</timebase>
                      <ntsc>TRUE</ntsc>
                    </rate>
                    <string>00:00:00:00</string>
                    <frame>0</frame>
                    <displayformat>NDF</displayformat>
                    <reel>
                      <name/>
                    </reel>
                  </timecode>
                  <media>
                    <video>
                      <duration>18000</duration>
                      <samplecharacteristics>
                        <rate>
                          <timebase>24</timebase>
                          <ntsc>TRUE</ntsc>
                        </rate>
                        <width>1920</width>
                        <height>1080</height>
                        <anamorphic>FALSE</anamorphic>
                        <pixelaspectratio>square</pixelaspectratio>
                        <fielddominance>none</fielddominance>
                      </samplecharacteristics>
                    </video>
                    <audio>
                      <samplecharacteristics>
                        <depth>16</depth>
                        <samplerate>48000</samplerate>
                      </samplecharacteristics>
                      <channelcount>2</channelcount>
                    </audio>
                  </media>
                </file>
                <link>
                  <linkclipref>clipitem-1117</linkclipref>
                  <mediatype>video</mediatype>
                  <trackindex>1</trackindex>
                  <clipindex>1</clipindex>
                </link>
                <link>
                  <linkclipref>clipitem-1118</linkclipref>
                  <mediatype>audio</mediatype>
                  <trackindex>1</trackindex>
                  <clipindex>1</clipindex>
                  <groupindex>1</groupindex>
                </link>
                <link>
                  <linkclipref>clipitem-1119</linkclipref>
                  <mediatype>audio</mediatype>
                  <trackindex>2</trackindex>
                  <clipindex>1</clipindex>
                  <groupindex>1</groupindex>
                </link>
              </clipitem>
            </track>
          </video>
          <audio>
            <track>
              <clipitem id="clipitem-1118" frameBlend="FALSE">
                <masterclipid>masterclip-369</masterclipid>
                <name>00592.MTS</name>
                <file id="file-369"/>
                <sourcetrack>
                  <mediatype>audio</mediatype>
                  <trackindex>1</trackindex>
                </sourcetrack>
                <link>
                  <linkclipref>clipitem-1117</linkclipref>
                  <mediatype>video</mediatype>
                  <trackindex>1</trackindex>
                  <clipindex>1</clipindex>
                </link>
                <link>
                  <linkclipref>clipitem-1118</linkclipref>
                  <mediatype>audio</mediatype>
                  <trackindex>1</trackindex>
                  <clipindex>1</clipindex>
                  <groupindex>1</groupindex>
                </link>
                <link>
                  <linkclipref>clipitem-1119</linkclipref>
                  <mediatype>audio</mediatype>
                  <trackindex>2</trackindex>
                  <clipindex>1</clipindex>
                  <groupindex>1</groupindex>
                </link>
              </clipitem>
            </track>
            <track>
              <clipitem id="clipitem-1119" frameBlend="FALSE">
                <masterclipid>masterclip-369</masterclipid>
                <name>00592.MTS</name>
                <file id="file-369"/>
                <sourcetrack>
                  <mediatype>audio</mediatype>
                  <trackindex>2</trackindex>
                </sourcetrack>
                <link>
                  <linkclipref>clipitem-1117</linkclipref>
                  <mediatype>video</mediatype>
                  <trackindex>1</trackindex>
                  <clipindex>1</clipindex>
                </link>
                <link>
                  <linkclipref>clipitem-1118</linkclipref>
                  <mediatype>audio</mediatype>
                  <trackindex>1</trackindex>
                  <clipindex>1</clipindex>
                  <groupindex>1</groupindex>
                </link>
                <link>
                  <linkclipref>clipitem-1119</linkclipref>
                  <mediatype>audio</mediatype>
                  <trackindex>2</trackindex>
                  <clipindex>1</clipindex>
                  <groupindex>1</groupindex>
                </link>
              </clipitem>
            </track>
          </audio>
        </media>
        <logginginfo>
          <description/>
          <scene/>
          <shottake/>
          <lognote/>
        </logginginfo>
      </clip>
      <clip id="masterclip-370" frameBlend="FALSE">
        <uuid>76c16e9f-769f-4d20-aef7-5988c3c338cb</uuid>
        <masterclipid>masterclip-370</masterclipid>
        <ismasterclip>TRUE</ismasterclip>
        <duration>193</duration>
        <rate>
          <timebase>24</timebase>
          <ntsc>TRUE</ntsc>
        </rate>
        <name>00593.MTS</name>
        <media>
          <video>
            <track>
              <clipitem id="clipitem-1120" frameBlend="FALSE">
                <masterclipid>masterclip-370</masterclipid>
                <name>00593.MTS</name>
                <alphatype>black</alphatype>
                <pixelaspectratio>square</pixelaspectratio>
                <anamorphic>FALSE</anamorphic>
                <file id="file-370">
                  <name>00593.MTS</name>
                  <pathurl>file://localhost/Volumes/Macintosh%20HD/Users/jacksongs/Desktop/STREAM/00593.MTS</pathurl>
                  <rate>
                    <timebase>24</timebase>
                    <ntsc>TRUE</ntsc>
                  </rate>
                  <duration>193</duration>
                  <timecode>
                    <rate>
                      <timebase>24</timebase>
                      <ntsc>TRUE</ntsc>
                    </rate>
                    <string>00:00:00:00</string>
                    <frame>0</frame>
                    <displayformat>NDF</displayformat>
                    <reel>
                      <name/>
                    </reel>
                  </timecode>
                  <media>
                    <video>
                      <duration>18000</duration>
                      <samplecharacteristics>
                        <rate>
                          <timebase>24</timebase>
                          <ntsc>TRUE</ntsc>
                        </rate>
                        <width>1920</width>
                        <height>1080</height>
                        <anamorphic>FALSE</anamorphic>
                        <pixelaspectratio>square</pixelaspectratio>
                        <fielddominance>none</fielddominance>
                      </samplecharacteristics>
                    </video>
                    <audio>
                      <samplecharacteristics>
                        <depth>16</depth>
                        <samplerate>48000</samplerate>
                      </samplecharacteristics>
                      <channelcount>2</channelcount>
                    </audio>
                  </media>
                </file>
                <link>
                  <linkclipref>clipitem-1120</linkclipref>
                  <mediatype>video</mediatype>
                  <trackindex>1</trackindex>
                  <clipindex>1</clipindex>
                </link>
                <link>
                  <linkclipref>clipitem-1121</linkclipref>
                  <mediatype>audio</mediatype>
                  <trackindex>1</trackindex>
                  <clipindex>1</clipindex>
                  <groupindex>1</groupindex>
                </link>
                <link>
                  <linkclipref>clipitem-1122</linkclipref>
                  <mediatype>audio</mediatype>
                  <trackindex>2</trackindex>
                  <clipindex>1</clipindex>
                  <groupindex>1</groupindex>
                </link>
              </clipitem>
            </track>
          </video>
          <audio>
            <track>
              <clipitem id="clipitem-1121" frameBlend="FALSE">
                <masterclipid>masterclip-370</masterclipid>
                <name>00593.MTS</name>
                <file id="file-370"/>
                <sourcetrack>
                  <mediatype>audio</mediatype>
                  <trackindex>1</trackindex>
                </sourcetrack>
                <link>
                  <linkclipref>clipitem-1120</linkclipref>
                  <mediatype>video</mediatype>
                  <trackindex>1</trackindex>
                  <clipindex>1</clipindex>
                </link>
                <link>
                  <linkclipref>clipitem-1121</linkclipref>
                  <mediatype>audio</mediatype>
                  <trackindex>1</trackindex>
                  <clipindex>1</clipindex>
                  <groupindex>1</groupindex>
                </link>
                <link>
                  <linkclipref>clipitem-1122</linkclipref>
                  <mediatype>audio</mediatype>
                  <trackindex>2</trackindex>
                  <clipindex>1</clipindex>
                  <groupindex>1</groupindex>
                </link>
              </clipitem>
            </track>
            <track>
              <clipitem id="clipitem-1122" frameBlend="FALSE">
                <masterclipid>masterclip-370</masterclipid>
                <name>00593.MTS</name>
                <file id="file-370"/>
                <sourcetrack>
                  <mediatype>audio</mediatype>
                  <trackindex>2</trackindex>
                </sourcetrack>
                <link>
                  <linkclipref>clipitem-1120</linkclipref>
                  <mediatype>video</mediatype>
                  <trackindex>1</trackindex>
                  <clipindex>1</clipindex>
                </link>
                <link>
                  <linkclipref>clipitem-1121</linkclipref>
                  <mediatype>audio</mediatype>
                  <trackindex>1</trackindex>
                  <clipindex>1</clipindex>
                  <groupindex>1</groupindex>
                </link>
                <link>
                  <linkclipref>clipitem-1122</linkclipref>
                  <mediatype>audio</mediatype>
                  <trackindex>2</trackindex>
                  <clipindex>1</clipindex>
                  <groupindex>1</groupindex>
                </link>
              </clipitem>
            </track>
          </audio>
        </media>
        <logginginfo>
          <description/>
          <scene/>
          <shottake/>
          <lognote/>
        </logginginfo>
      </clip>
      <clip id="masterclip-371" frameBlend="FALSE">
        <uuid>2c52b7a7-c9f7-473d-8cf8-982529a0cf81</uuid>
        <masterclipid>masterclip-371</masterclipid>
        <ismasterclip>TRUE</ismasterclip>
        <duration>925</duration>
        <rate>
          <timebase>24</timebase>
          <ntsc>TRUE</ntsc>
        </rate>
        <name>00594.MTS</name>
        <media>
          <video>
            <track>
              <clipitem id="clipitem-1123" frameBlend="FALSE">
                <masterclipid>masterclip-371</masterclipid>
                <name>00594.MTS</name>
                <alphatype>black</alphatype>
                <pixelaspectratio>square</pixelaspectratio>
                <anamorphic>FALSE</anamorphic>
                <file id="file-371">
                  <name>00594.MTS</name>
                  <pathurl>file://localhost/Volumes/Macintosh%20HD/Users/jacksongs/Desktop/STREAM/00594.MTS</pathurl>
                  <rate>
                    <timebase>24</timebase>
                    <ntsc>TRUE</ntsc>
                  </rate>
                  <duration>925</duration>
                  <timecode>
                    <rate>
                      <timebase>24</timebase>
                      <ntsc>TRUE</ntsc>
                    </rate>
                    <string>00:00:00:00</string>
                    <frame>0</frame>
                    <displayformat>NDF</displayformat>
                    <reel>
                      <name/>
                    </reel>
                  </timecode>
                  <media>
                    <video>
                      <duration>18000</duration>
                      <samplecharacteristics>
                        <rate>
                          <timebase>24</timebase>
                          <ntsc>TRUE</ntsc>
                        </rate>
                        <width>1920</width>
                        <height>1080</height>
                        <anamorphic>FALSE</anamorphic>
                        <pixelaspectratio>square</pixelaspectratio>
                        <fielddominance>none</fielddominance>
                      </samplecharacteristics>
                    </video>
                    <audio>
                      <samplecharacteristics>
                        <depth>16</depth>
                        <samplerate>48000</samplerate>
                      </samplecharacteristics>
                      <channelcount>2</channelcount>
                    </audio>
                  </media>
                </file>
                <link>
                  <linkclipref>clipitem-1123</linkclipref>
                  <mediatype>video</mediatype>
                  <trackindex>1</trackindex>
                  <clipindex>1</clipindex>
                </link>
                <link>
                  <linkclipref>clipitem-1124</linkclipref>
                  <mediatype>audio</mediatype>
                  <trackindex>1</trackindex>
                  <clipindex>1</clipindex>
                  <groupindex>1</groupindex>
                </link>
                <link>
                  <linkclipref>clipitem-1125</linkclipref>
                  <mediatype>audio</mediatype>
                  <trackindex>2</trackindex>
                  <clipindex>1</clipindex>
                  <groupindex>1</groupindex>
                </link>
              </clipitem>
            </track>
          </video>
          <audio>
            <track>
              <clipitem id="clipitem-1124" frameBlend="FALSE">
                <masterclipid>masterclip-371</masterclipid>
                <name>00594.MTS</name>
                <file id="file-371"/>
                <sourcetrack>
                  <mediatype>audio</mediatype>
                  <trackindex>1</trackindex>
                </sourcetrack>
                <link>
                  <linkclipref>clipitem-1123</linkclipref>
                  <mediatype>video</mediatype>
                  <trackindex>1</trackindex>
                  <clipindex>1</clipindex>
                </link>
                <link>
                  <linkclipref>clipitem-1124</linkclipref>
                  <mediatype>audio</mediatype>
                  <trackindex>1</trackindex>
                  <clipindex>1</clipindex>
                  <groupindex>1</groupindex>
                </link>
                <link>
                  <linkclipref>clipitem-1125</linkclipref>
                  <mediatype>audio</mediatype>
                  <trackindex>2</trackindex>
                  <clipindex>1</clipindex>
                  <groupindex>1</groupindex>
                </link>
              </clipitem>
            </track>
            <track>
              <clipitem id="clipitem-1125" frameBlend="FALSE">
                <masterclipid>masterclip-371</masterclipid>
                <name>00594.MTS</name>
                <file id="file-371"/>
                <sourcetrack>
                  <mediatype>audio</mediatype>
                  <trackindex>2</trackindex>
                </sourcetrack>
                <link>
                  <linkclipref>clipitem-1123</linkclipref>
                  <mediatype>video</mediatype>
                  <trackindex>1</trackindex>
                  <clipindex>1</clipindex>
                </link>
                <link>
                  <linkclipref>clipitem-1124</linkclipref>
                  <mediatype>audio</mediatype>
                  <trackindex>1</trackindex>
                  <clipindex>1</clipindex>
                  <groupindex>1</groupindex>
                </link>
                <link>
                  <linkclipref>clipitem-1125</linkclipref>
                  <mediatype>audio</mediatype>
                  <trackindex>2</trackindex>
                  <clipindex>1</clipindex>
                  <groupindex>1</groupindex>
                </link>
              </clipitem>
            </track>
          </audio>
        </media>
        <logginginfo>
          <description/>
          <scene/>
          <shottake/>
          <lognote/>
        </logginginfo>
      </clip>
      <clip id="masterclip-372" frameBlend="FALSE">
        <uuid>b2f79389-8aad-4631-bb4a-f77055368f3b</uuid>
        <masterclipid>masterclip-372</masterclipid>
        <ismasterclip>TRUE</ismasterclip>
        <duration>613</duration>
        <rate>
          <timebase>24</timebase>
          <ntsc>TRUE</ntsc>
        </rate>
        <name>00595.MTS</name>
        <media>
          <video>
            <track>
              <clipitem id="clipitem-1126" frameBlend="FALSE">
                <masterclipid>masterclip-372</masterclipid>
                <name>00595.MTS</name>
                <alphatype>black</alphatype>
                <pixelaspectratio>square</pixelaspectratio>
                <anamorphic>FALSE</anamorphic>
                <file id="file-372">
                  <name>00595.MTS</name>
                  <pathurl>file://localhost/Volumes/Macintosh%20HD/Users/jacksongs/Desktop/STREAM/00595.MTS</pathurl>
                  <rate>
                    <timebase>24</timebase>
                    <ntsc>TRUE</ntsc>
                  </rate>
                  <duration>613</duration>
                  <timecode>
                    <rate>
                      <timebase>24</timebase>
                      <ntsc>TRUE</ntsc>
                    </rate>
                    <string>00:00:00:00</string>
                    <frame>0</frame>
                    <displayformat>NDF</displayformat>
                    <reel>
                      <name/>
                    </reel>
                  </timecode>
                  <media>
                    <video>
                      <duration>18000</duration>
                      <samplecharacteristics>
                        <rate>
                          <timebase>24</timebase>
                          <ntsc>TRUE</ntsc>
                        </rate>
                        <width>1920</width>
                        <height>1080</height>
                        <anamorphic>FALSE</anamorphic>
                        <pixelaspectratio>square</pixelaspectratio>
                        <fielddominance>none</fielddominance>
                      </samplecharacteristics>
                    </video>
                    <audio>
                      <samplecharacteristics>
                        <depth>16</depth>
                        <samplerate>48000</samplerate>
                      </samplecharacteristics>
                      <channelcount>2</channelcount>
                    </audio>
                  </media>
                </file>
                <link>
                  <linkclipref>clipitem-1126</linkclipref>
                  <mediatype>video</mediatype>
                  <trackindex>1</trackindex>
                  <clipindex>1</clipindex>
                </link>
                <link>
                  <linkclipref>clipitem-1127</linkclipref>
                  <mediatype>audio</mediatype>
                  <trackindex>1</trackindex>
                  <clipindex>1</clipindex>
                  <groupindex>1</groupindex>
                </link>
                <link>
                  <linkclipref>clipitem-1128</linkclipref>
                  <mediatype>audio</mediatype>
                  <trackindex>2</trackindex>
                  <clipindex>1</clipindex>
                  <groupindex>1</groupindex>
                </link>
              </clipitem>
            </track>
          </video>
          <audio>
            <track>
              <clipitem id="clipitem-1127" frameBlend="FALSE">
                <masterclipid>masterclip-372</masterclipid>
                <name>00595.MTS</name>
                <file id="file-372"/>
                <sourcetrack>
                  <mediatype>audio</mediatype>
                  <trackindex>1</trackindex>
                </sourcetrack>
                <link>
                  <linkclipref>clipitem-1126</linkclipref>
                  <mediatype>video</mediatype>
                  <trackindex>1</trackindex>
                  <clipindex>1</clipindex>
                </link>
                <link>
                  <linkclipref>clipitem-1127</linkclipref>
                  <mediatype>audio</mediatype>
                  <trackindex>1</trackindex>
                  <clipindex>1</clipindex>
                  <groupindex>1</groupindex>
                </link>
                <link>
                  <linkclipref>clipitem-1128</linkclipref>
                  <mediatype>audio</mediatype>
                  <trackindex>2</trackindex>
                  <clipindex>1</clipindex>
                  <groupindex>1</groupindex>
                </link>
              </clipitem>
            </track>
            <track>
              <clipitem id="clipitem-1128" frameBlend="FALSE">
                <masterclipid>masterclip-372</masterclipid>
                <name>00595.MTS</name>
                <file id="file-372"/>
                <sourcetrack>
                  <mediatype>audio</mediatype>
                  <trackindex>2</trackindex>
                </sourcetrack>
                <link>
                  <linkclipref>clipitem-1126</linkclipref>
                  <mediatype>video</mediatype>
                  <trackindex>1</trackindex>
                  <clipindex>1</clipindex>
                </link>
                <link>
                  <linkclipref>clipitem-1127</linkclipref>
                  <mediatype>audio</mediatype>
                  <trackindex>1</trackindex>
                  <clipindex>1</clipindex>
                  <groupindex>1</groupindex>
                </link>
                <link>
                  <linkclipref>clipitem-1128</linkclipref>
                  <mediatype>audio</mediatype>
                  <trackindex>2</trackindex>
                  <clipindex>1</clipindex>
                  <groupindex>1</groupindex>
                </link>
              </clipitem>
            </track>
          </audio>
        </media>
        <logginginfo>
          <description/>
          <scene/>
          <shottake/>
          <lognote/>
        </logginginfo>
      </clip>
      <clip id="masterclip-373" frameBlend="FALSE">
        <uuid>9afc30b1-cce0-4c83-b053-c35217781f9f</uuid>
        <masterclipid>masterclip-373</masterclipid>
        <ismasterclip>TRUE</ismasterclip>
        <duration>265</duration>
        <rate>
          <timebase>24</timebase>
          <ntsc>TRUE</ntsc>
        </rate>
        <name>00596.MTS</name>
        <media>
          <video>
            <track>
              <clipitem id="clipitem-1129" frameBlend="FALSE">
                <masterclipid>masterclip-373</masterclipid>
                <name>00596.MTS</name>
                <alphatype>black</alphatype>
                <pixelaspectratio>square</pixelaspectratio>
                <anamorphic>FALSE</anamorphic>
                <file id="file-373">
                  <name>00596.MTS</name>
                  <pathurl>file://localhost/Volumes/Macintosh%20HD/Users/jacksongs/Desktop/STREAM/00596.MTS</pathurl>
                  <rate>
                    <timebase>24</timebase>
                    <ntsc>TRUE</ntsc>
                  </rate>
                  <duration>265</duration>
                  <timecode>
                    <rate>
                      <timebase>24</timebase>
                      <ntsc>TRUE</ntsc>
                    </rate>
                    <string>00:00:00:00</string>
                    <frame>0</frame>
                    <displayformat>NDF</displayformat>
                    <reel>
                      <name/>
                    </reel>
                  </timecode>
                  <media>
                    <video>
                      <duration>18000</duration>
                      <samplecharacteristics>
                        <rate>
                          <timebase>24</timebase>
                          <ntsc>TRUE</ntsc>
                        </rate>
                        <width>1920</width>
                        <height>1080</height>
                        <anamorphic>FALSE</anamorphic>
                        <pixelaspectratio>square</pixelaspectratio>
                        <fielddominance>none</fielddominance>
                      </samplecharacteristics>
                    </video>
                    <audio>
                      <samplecharacteristics>
                        <depth>16</depth>
                        <samplerate>48000</samplerate>
                      </samplecharacteristics>
                      <channelcount>2</channelcount>
                    </audio>
                  </media>
                </file>
                <link>
                  <linkclipref>clipitem-1129</linkclipref>
                  <mediatype>video</mediatype>
                  <trackindex>1</trackindex>
                  <clipindex>1</clipindex>
                </link>
                <link>
                  <linkclipref>clipitem-1130</linkclipref>
                  <mediatype>audio</mediatype>
                  <trackindex>1</trackindex>
                  <clipindex>1</clipindex>
                  <groupindex>1</groupindex>
                </link>
                <link>
                  <linkclipref>clipitem-1131</linkclipref>
                  <mediatype>audio</mediatype>
                  <trackindex>2</trackindex>
                  <clipindex>1</clipindex>
                  <groupindex>1</groupindex>
                </link>
              </clipitem>
            </track>
          </video>
          <audio>
            <track>
              <clipitem id="clipitem-1130" frameBlend="FALSE">
                <masterclipid>masterclip-373</masterclipid>
                <name>00596.MTS</name>
                <file id="file-373"/>
                <sourcetrack>
                  <mediatype>audio</mediatype>
                  <trackindex>1</trackindex>
                </sourcetrack>
                <link>
                  <linkclipref>clipitem-1129</linkclipref>
                  <mediatype>video</mediatype>
                  <trackindex>1</trackindex>
                  <clipindex>1</clipindex>
                </link>
                <link>
                  <linkclipref>clipitem-1130</linkclipref>
                  <mediatype>audio</mediatype>
                  <trackindex>1</trackindex>
                  <clipindex>1</clipindex>
                  <groupindex>1</groupindex>
                </link>
                <link>
                  <linkclipref>clipitem-1131</linkclipref>
                  <mediatype>audio</mediatype>
                  <trackindex>2</trackindex>
                  <clipindex>1</clipindex>
                  <groupindex>1</groupindex>
                </link>
              </clipitem>
            </track>
            <track>
              <clipitem id="clipitem-1131" frameBlend="FALSE">
                <masterclipid>masterclip-373</masterclipid>
                <name>00596.MTS</name>
                <file id="file-373"/>
                <sourcetrack>
                  <mediatype>audio</mediatype>
                  <trackindex>2</trackindex>
                </sourcetrack>
                <link>
                  <linkclipref>clipitem-1129</linkclipref>
                  <mediatype>video</mediatype>
                  <trackindex>1</trackindex>
                  <clipindex>1</clipindex>
                </link>
                <link>
                  <linkclipref>clipitem-1130</linkclipref>
                  <mediatype>audio</mediatype>
                  <trackindex>1</trackindex>
                  <clipindex>1</clipindex>
                  <groupindex>1</groupindex>
                </link>
                <link>
                  <linkclipref>clipitem-1131</linkclipref>
                  <mediatype>audio</mediatype>
                  <trackindex>2</trackindex>
                  <clipindex>1</clipindex>
                  <groupindex>1</groupindex>
                </link>
              </clipitem>
            </track>
          </audio>
        </media>
        <logginginfo>
          <description/>
          <scene/>
          <shottake/>
          <lognote/>
        </logginginfo>
      </clip>
      <clip id="masterclip-374" frameBlend="FALSE">
        <uuid>7dd05b30-3dca-4c5e-8d51-b964f08fb55d</uuid>
        <masterclipid>masterclip-374</masterclipid>
        <ismasterclip>TRUE</ismasterclip>
        <duration>709</duration>
        <rate>
          <timebase>24</timebase>
          <ntsc>TRUE</ntsc>
        </rate>
        <name>00597.MTS</name>
        <media>
          <video>
            <track>
              <clipitem id="clipitem-1132" frameBlend="FALSE">
                <masterclipid>masterclip-374</masterclipid>
                <name>00597.MTS</name>
                <alphatype>black</alphatype>
                <pixelaspectratio>square</pixelaspectratio>
                <anamorphic>FALSE</anamorphic>
                <file id="file-374">
                  <name>00597.MTS</name>
                  <pathurl>file://localhost/Volumes/Macintosh%20HD/Users/jacksongs/Desktop/STREAM/00597.MTS</pathurl>
                  <rate>
                    <timebase>24</timebase>
                    <ntsc>TRUE</ntsc>
                  </rate>
                  <duration>709</duration>
                  <timecode>
                    <rate>
                      <timebase>24</timebase>
                      <ntsc>TRUE</ntsc>
                    </rate>
                    <string>00:00:00:00</string>
                    <frame>0</frame>
                    <displayformat>NDF</displayformat>
                    <reel>
                      <name/>
                    </reel>
                  </timecode>
                  <media>
                    <video>
                      <duration>18000</duration>
                      <samplecharacteristics>
                        <rate>
                          <timebase>24</timebase>
                          <ntsc>TRUE</ntsc>
                        </rate>
                        <width>1920</width>
                        <height>1080</height>
                        <anamorphic>FALSE</anamorphic>
                        <pixelaspectratio>square</pixelaspectratio>
                        <fielddominance>none</fielddominance>
                      </samplecharacteristics>
                    </video>
                    <audio>
                      <samplecharacteristics>
                        <depth>16</depth>
                        <samplerate>48000</samplerate>
                      </samplecharacteristics>
                      <channelcount>2</channelcount>
                    </audio>
                  </media>
                </file>
                <link>
                  <linkclipref>clipitem-1132</linkclipref>
                  <mediatype>video</mediatype>
                  <trackindex>1</trackindex>
                  <clipindex>1</clipindex>
                </link>
                <link>
                  <linkclipref>clipitem-1133</linkclipref>
                  <mediatype>audio</mediatype>
                  <trackindex>1</trackindex>
                  <clipindex>1</clipindex>
                  <groupindex>1</groupindex>
                </link>
                <link>
                  <linkclipref>clipitem-1134</linkclipref>
                  <mediatype>audio</mediatype>
                  <trackindex>2</trackindex>
                  <clipindex>1</clipindex>
                  <groupindex>1</groupindex>
                </link>
              </clipitem>
            </track>
          </video>
          <audio>
            <track>
              <clipitem id="clipitem-1133" frameBlend="FALSE">
                <masterclipid>masterclip-374</masterclipid>
                <name>00597.MTS</name>
                <file id="file-374"/>
                <sourcetrack>
                  <mediatype>audio</mediatype>
                  <trackindex>1</trackindex>
                </sourcetrack>
                <link>
                  <linkclipref>clipitem-1132</linkclipref>
                  <mediatype>video</mediatype>
                  <trackindex>1</trackindex>
                  <clipindex>1</clipindex>
                </link>
                <link>
                  <linkclipref>clipitem-1133</linkclipref>
                  <mediatype>audio</mediatype>
                  <trackindex>1</trackindex>
                  <clipindex>1</clipindex>
                  <groupindex>1</groupindex>
                </link>
                <link>
                  <linkclipref>clipitem-1134</linkclipref>
                  <mediatype>audio</mediatype>
                  <trackindex>2</trackindex>
                  <clipindex>1</clipindex>
                  <groupindex>1</groupindex>
                </link>
              </clipitem>
            </track>
            <track>
              <clipitem id="clipitem-1134" frameBlend="FALSE">
                <masterclipid>masterclip-374</masterclipid>
                <name>00597.MTS</name>
                <file id="file-374"/>
                <sourcetrack>
                  <mediatype>audio</mediatype>
                  <trackindex>2</trackindex>
                </sourcetrack>
                <link>
                  <linkclipref>clipitem-1132</linkclipref>
                  <mediatype>video</mediatype>
                  <trackindex>1</trackindex>
                  <clipindex>1</clipindex>
                </link>
                <link>
                  <linkclipref>clipitem-1133</linkclipref>
                  <mediatype>audio</mediatype>
                  <trackindex>1</trackindex>
                  <clipindex>1</clipindex>
                  <groupindex>1</groupindex>
                </link>
                <link>
                  <linkclipref>clipitem-1134</linkclipref>
                  <mediatype>audio</mediatype>
                  <trackindex>2</trackindex>
                  <clipindex>1</clipindex>
                  <groupindex>1</groupindex>
                </link>
              </clipitem>
            </track>
          </audio>
        </media>
        <logginginfo>
          <description/>
          <scene/>
          <shottake/>
          <lognote/>
        </logginginfo>
      </clip>
      <clip id="masterclip-375" frameBlend="FALSE">
        <uuid>02522f53-98b9-4d1a-a7a4-105583a923fc</uuid>
        <masterclipid>masterclip-375</masterclipid>
        <ismasterclip>TRUE</ismasterclip>
        <duration>349</duration>
        <rate>
          <timebase>24</timebase>
          <ntsc>TRUE</ntsc>
        </rate>
        <name>00598.MTS</name>
        <media>
          <video>
            <track>
              <clipitem id="clipitem-1135" frameBlend="FALSE">
                <masterclipid>masterclip-375</masterclipid>
                <name>00598.MTS</name>
                <alphatype>black</alphatype>
                <pixelaspectratio>square</pixelaspectratio>
                <anamorphic>FALSE</anamorphic>
                <file id="file-375">
                  <name>00598.MTS</name>
                  <pathurl>file://localhost/Volumes/Macintosh%20HD/Users/jacksongs/Desktop/STREAM/00598.MTS</pathurl>
                  <rate>
                    <timebase>24</timebase>
                    <ntsc>TRUE</ntsc>
                  </rate>
                  <duration>349</duration>
                  <timecode>
                    <rate>
                      <timebase>24</timebase>
                      <ntsc>TRUE</ntsc>
                    </rate>
                    <string>00:00:00:00</string>
                    <frame>0</frame>
                    <displayformat>NDF</displayformat>
                    <reel>
                      <name/>
                    </reel>
                  </timecode>
                  <media>
                    <video>
                      <duration>18000</duration>
                      <samplecharacteristics>
                        <rate>
                          <timebase>24</timebase>
                          <ntsc>TRUE</ntsc>
                        </rate>
                        <width>1920</width>
                        <height>1080</height>
                        <anamorphic>FALSE</anamorphic>
                        <pixelaspectratio>square</pixelaspectratio>
                        <fielddominance>none</fielddominance>
                      </samplecharacteristics>
                    </video>
                    <audio>
                      <samplecharacteristics>
                        <depth>16</depth>
                        <samplerate>48000</samplerate>
                      </samplecharacteristics>
                      <channelcount>2</channelcount>
                    </audio>
                  </media>
                </file>
                <link>
                  <linkclipref>clipitem-1135</linkclipref>
                  <mediatype>video</mediatype>
                  <trackindex>1</trackindex>
                  <clipindex>1</clipindex>
                </link>
                <link>
                  <linkclipref>clipitem-1136</linkclipref>
                  <mediatype>audio</mediatype>
                  <trackindex>1</trackindex>
                  <clipindex>1</clipindex>
                  <groupindex>1</groupindex>
                </link>
                <link>
                  <linkclipref>clipitem-1137</linkclipref>
                  <mediatype>audio</mediatype>
                  <trackindex>2</trackindex>
                  <clipindex>1</clipindex>
                  <groupindex>1</groupindex>
                </link>
              </clipitem>
            </track>
          </video>
          <audio>
            <track>
              <clipitem id="clipitem-1136" frameBlend="FALSE">
                <masterclipid>masterclip-375</masterclipid>
                <name>00598.MTS</name>
                <file id="file-375"/>
                <sourcetrack>
                  <mediatype>audio</mediatype>
                  <trackindex>1</trackindex>
                </sourcetrack>
                <link>
                  <linkclipref>clipitem-1135</linkclipref>
                  <mediatype>video</mediatype>
                  <trackindex>1</trackindex>
                  <clipindex>1</clipindex>
                </link>
                <link>
                  <linkclipref>clipitem-1136</linkclipref>
                  <mediatype>audio</mediatype>
                  <trackindex>1</trackindex>
                  <clipindex>1</clipindex>
                  <groupindex>1</groupindex>
                </link>
                <link>
                  <linkclipref>clipitem-1137</linkclipref>
                  <mediatype>audio</mediatype>
                  <trackindex>2</trackindex>
                  <clipindex>1</clipindex>
                  <groupindex>1</groupindex>
                </link>
              </clipitem>
            </track>
            <track>
              <clipitem id="clipitem-1137" frameBlend="FALSE">
                <masterclipid>masterclip-375</masterclipid>
                <name>00598.MTS</name>
                <file id="file-375"/>
                <sourcetrack>
                  <mediatype>audio</mediatype>
                  <trackindex>2</trackindex>
                </sourcetrack>
                <link>
                  <linkclipref>clipitem-1135</linkclipref>
                  <mediatype>video</mediatype>
                  <trackindex>1</trackindex>
                  <clipindex>1</clipindex>
                </link>
                <link>
                  <linkclipref>clipitem-1136</linkclipref>
                  <mediatype>audio</mediatype>
                  <trackindex>1</trackindex>
                  <clipindex>1</clipindex>
                  <groupindex>1</groupindex>
                </link>
                <link>
                  <linkclipref>clipitem-1137</linkclipref>
                  <mediatype>audio</mediatype>
                  <trackindex>2</trackindex>
                  <clipindex>1</clipindex>
                  <groupindex>1</groupindex>
                </link>
              </clipitem>
            </track>
          </audio>
        </media>
        <logginginfo>
          <description/>
          <scene/>
          <shottake/>
          <lognote/>
        </logginginfo>
      </clip>
      <clip id="masterclip-376" frameBlend="FALSE">
        <uuid>c37788b2-fff4-4dde-8e2b-b113e884df4d</uuid>
        <masterclipid>masterclip-376</masterclipid>
        <ismasterclip>TRUE</ismasterclip>
        <duration>121</duration>
        <rate>
          <timebase>24</timebase>
          <ntsc>TRUE</ntsc>
        </rate>
        <name>00599.MTS</name>
        <media>
          <video>
            <track>
              <clipitem id="clipitem-1138" frameBlend="FALSE">
                <masterclipid>masterclip-376</masterclipid>
                <name>00599.MTS</name>
                <alphatype>black</alphatype>
                <pixelaspectratio>square</pixelaspectratio>
                <anamorphic>FALSE</anamorphic>
                <file id="file-376">
                  <name>00599.MTS</name>
                  <pathurl>file://localhost/Volumes/Macintosh%20HD/Users/jacksongs/Desktop/STREAM/00599.MTS</pathurl>
                  <rate>
                    <timebase>24</timebase>
                    <ntsc>TRUE</ntsc>
                  </rate>
                  <duration>121</duration>
                  <timecode>
                    <rate>
                      <timebase>24</timebase>
                      <ntsc>TRUE</ntsc>
                    </rate>
                    <string>00:00:00:00</string>
                    <frame>0</frame>
                    <displayformat>NDF</displayformat>
                    <reel>
                      <name/>
                    </reel>
                  </timecode>
                  <media>
                    <video>
                      <duration>18000</duration>
                      <samplecharacteristics>
                        <rate>
                          <timebase>24</timebase>
                          <ntsc>TRUE</ntsc>
                        </rate>
                        <width>1920</width>
                        <height>1080</height>
                        <anamorphic>FALSE</anamorphic>
                        <pixelaspectratio>square</pixelaspectratio>
                        <fielddominance>none</fielddominance>
                      </samplecharacteristics>
                    </video>
                    <audio>
                      <samplecharacteristics>
                        <depth>16</depth>
                        <samplerate>48000</samplerate>
                      </samplecharacteristics>
                      <channelcount>2</channelcount>
                    </audio>
                  </media>
                </file>
                <link>
                  <linkclipref>clipitem-1138</linkclipref>
                  <mediatype>video</mediatype>
                  <trackindex>1</trackindex>
                  <clipindex>1</clipindex>
                </link>
                <link>
                  <linkclipref>clipitem-1139</linkclipref>
                  <mediatype>audio</mediatype>
                  <trackindex>1</trackindex>
                  <clipindex>1</clipindex>
                  <groupindex>1</groupindex>
                </link>
                <link>
                  <linkclipref>clipitem-1140</linkclipref>
                  <mediatype>audio</mediatype>
                  <trackindex>2</trackindex>
                  <clipindex>1</clipindex>
                  <groupindex>1</groupindex>
                </link>
              </clipitem>
            </track>
          </video>
          <audio>
            <track>
              <clipitem id="clipitem-1139" frameBlend="FALSE">
                <masterclipid>masterclip-376</masterclipid>
                <name>00599.MTS</name>
                <file id="file-376"/>
                <sourcetrack>
                  <mediatype>audio</mediatype>
                  <trackindex>1</trackindex>
                </sourcetrack>
                <link>
                  <linkclipref>clipitem-1138</linkclipref>
                  <mediatype>video</mediatype>
                  <trackindex>1</trackindex>
                  <clipindex>1</clipindex>
                </link>
                <link>
                  <linkclipref>clipitem-1139</linkclipref>
                  <mediatype>audio</mediatype>
                  <trackindex>1</trackindex>
                  <clipindex>1</clipindex>
                  <groupindex>1</groupindex>
                </link>
                <link>
                  <linkclipref>clipitem-1140</linkclipref>
                  <mediatype>audio</mediatype>
                  <trackindex>2</trackindex>
                  <clipindex>1</clipindex>
                  <groupindex>1</groupindex>
                </link>
              </clipitem>
            </track>
            <track>
              <clipitem id="clipitem-1140" frameBlend="FALSE">
                <masterclipid>masterclip-376</masterclipid>
                <name>00599.MTS</name>
                <file id="file-376"/>
                <sourcetrack>
                  <mediatype>audio</mediatype>
                  <trackindex>2</trackindex>
                </sourcetrack>
                <link>
                  <linkclipref>clipitem-1138</linkclipref>
                  <mediatype>video</mediatype>
                  <trackindex>1</trackindex>
                  <clipindex>1</clipindex>
                </link>
                <link>
                  <linkclipref>clipitem-1139</linkclipref>
                  <mediatype>audio</mediatype>
                  <trackindex>1</trackindex>
                  <clipindex>1</clipindex>
                  <groupindex>1</groupindex>
                </link>
                <link>
                  <linkclipref>clipitem-1140</linkclipref>
                  <mediatype>audio</mediatype>
                  <trackindex>2</trackindex>
                  <clipindex>1</clipindex>
                  <groupindex>1</groupindex>
                </link>
              </clipitem>
            </track>
          </audio>
        </media>
        <logginginfo>
          <description/>
          <scene/>
          <shottake/>
          <lognote/>
        </logginginfo>
      </clip>
      <clip id="masterclip-377" frameBlend="FALSE">
        <uuid>2a5ab45e-901c-4d24-96a2-9fe973ed845c</uuid>
        <masterclipid>masterclip-377</masterclipid>
        <ismasterclip>TRUE</ismasterclip>
        <duration>4357</duration>
        <rate>
          <timebase>24</timebase>
          <ntsc>TRUE</ntsc>
        </rate>
        <name>00600.MTS</name>
        <media>
          <video>
            <track>
              <clipitem id="clipitem-1141" frameBlend="FALSE">
                <masterclipid>masterclip-377</masterclipid>
                <name>00600.MTS</name>
                <alphatype>black</alphatype>
                <pixelaspectratio>square</pixelaspectratio>
                <anamorphic>FALSE</anamorphic>
                <file id="file-377">
                  <name>00600.MTS</name>
                  <pathurl>file://localhost/Volumes/Macintosh%20HD/Users/jacksongs/Desktop/STREAM/00600.MTS</pathurl>
                  <rate>
                    <timebase>24</timebase>
                    <ntsc>TRUE</ntsc>
                  </rate>
                  <duration>4357</duration>
                  <timecode>
                    <rate>
                      <timebase>24</timebase>
                      <ntsc>TRUE</ntsc>
                    </rate>
                    <string>00:00:00:00</string>
                    <frame>0</frame>
                    <displayformat>NDF</displayformat>
                    <reel>
                      <name/>
                    </reel>
                  </timecode>
                  <media>
                    <video>
                      <duration>18000</duration>
                      <samplecharacteristics>
                        <rate>
                          <timebase>24</timebase>
                          <ntsc>TRUE</ntsc>
                        </rate>
                        <width>1920</width>
                        <height>1080</height>
                        <anamorphic>FALSE</anamorphic>
                        <pixelaspectratio>square</pixelaspectratio>
                        <fielddominance>none</fielddominance>
                      </samplecharacteristics>
                    </video>
                    <audio>
                      <samplecharacteristics>
                        <depth>16</depth>
                        <samplerate>48000</samplerate>
                      </samplecharacteristics>
                      <channelcount>2</channelcount>
                    </audio>
                  </media>
                </file>
                <link>
                  <linkclipref>clipitem-1141</linkclipref>
                  <mediatype>video</mediatype>
                  <trackindex>1</trackindex>
                  <clipindex>1</clipindex>
                </link>
                <link>
                  <linkclipref>clipitem-1142</linkclipref>
                  <mediatype>audio</mediatype>
                  <trackindex>1</trackindex>
                  <clipindex>1</clipindex>
                  <groupindex>1</groupindex>
                </link>
                <link>
                  <linkclipref>clipitem-1143</linkclipref>
                  <mediatype>audio</mediatype>
                  <trackindex>2</trackindex>
                  <clipindex>1</clipindex>
                  <groupindex>1</groupindex>
                </link>
              </clipitem>
            </track>
          </video>
          <audio>
            <track>
              <clipitem id="clipitem-1142" frameBlend="FALSE">
                <masterclipid>masterclip-377</masterclipid>
                <name>00600.MTS</name>
                <file id="file-377"/>
                <sourcetrack>
                  <mediatype>audio</mediatype>
                  <trackindex>1</trackindex>
                </sourcetrack>
                <link>
                  <linkclipref>clipitem-1141</linkclipref>
                  <mediatype>video</mediatype>
                  <trackindex>1</trackindex>
                  <clipindex>1</clipindex>
                </link>
                <link>
                  <linkclipref>clipitem-1142</linkclipref>
                  <mediatype>audio</mediatype>
                  <trackindex>1</trackindex>
                  <clipindex>1</clipindex>
                  <groupindex>1</groupindex>
                </link>
                <link>
                  <linkclipref>clipitem-1143</linkclipref>
                  <mediatype>audio</mediatype>
                  <trackindex>2</trackindex>
                  <clipindex>1</clipindex>
                  <groupindex>1</groupindex>
                </link>
              </clipitem>
            </track>
            <track>
              <clipitem id="clipitem-1143" frameBlend="FALSE">
                <masterclipid>masterclip-377</masterclipid>
                <name>00600.MTS</name>
                <file id="file-377"/>
                <sourcetrack>
                  <mediatype>audio</mediatype>
                  <trackindex>2</trackindex>
                </sourcetrack>
                <link>
                  <linkclipref>clipitem-1141</linkclipref>
                  <mediatype>video</mediatype>
                  <trackindex>1</trackindex>
                  <clipindex>1</clipindex>
                </link>
                <link>
                  <linkclipref>clipitem-1142</linkclipref>
                  <mediatype>audio</mediatype>
                  <trackindex>1</trackindex>
                  <clipindex>1</clipindex>
                  <groupindex>1</groupindex>
                </link>
                <link>
                  <linkclipref>clipitem-1143</linkclipref>
                  <mediatype>audio</mediatype>
                  <trackindex>2</trackindex>
                  <clipindex>1</clipindex>
                  <groupindex>1</groupindex>
                </link>
              </clipitem>
            </track>
          </audio>
        </media>
        <logginginfo>
          <description/>
          <scene/>
          <shottake/>
          <lognote/>
        </logginginfo>
      </clip>
      <clip id="masterclip-378" frameBlend="FALSE">
        <uuid>638a2b76-905d-4068-9748-66c84bbb0765</uuid>
        <masterclipid>masterclip-378</masterclipid>
        <ismasterclip>TRUE</ismasterclip>
        <duration>32485</duration>
        <rate>
          <timebase>24</timebase>
          <ntsc>TRUE</ntsc>
        </rate>
        <name>00601.MTS</name>
        <media>
          <video>
            <track>
              <clipitem id="clipitem-1144" frameBlend="FALSE">
                <masterclipid>masterclip-378</masterclipid>
                <name>00601.MTS</name>
                <alphatype>black</alphatype>
                <pixelaspectratio>square</pixelaspectratio>
                <anamorphic>FALSE</anamorphic>
                <file id="file-378">
                  <name>00601.MTS</name>
                  <pathurl>file://localhost/Volumes/Macintosh%20HD/Users/jacksongs/Desktop/STREAM/00601.MTS</pathurl>
                  <rate>
                    <timebase>24</timebase>
                    <ntsc>TRUE</ntsc>
                  </rate>
                  <duration>32485</duration>
                  <timecode>
                    <rate>
                      <timebase>24</timebase>
                      <ntsc>TRUE</ntsc>
                    </rate>
                    <string>00:00:00:00</string>
                    <frame>0</frame>
                    <displayformat>NDF</displayformat>
                    <reel>
                      <name/>
                    </reel>
                  </timecode>
                  <media>
                    <video>
                      <duration>18000</duration>
                      <samplecharacteristics>
                        <rate>
                          <timebase>24</timebase>
                          <ntsc>TRUE</ntsc>
                        </rate>
                        <width>1920</width>
                        <height>1080</height>
                        <anamorphic>FALSE</anamorphic>
                        <pixelaspectratio>square</pixelaspectratio>
                        <fielddominance>none</fielddominance>
                      </samplecharacteristics>
                    </video>
                    <audio>
                      <samplecharacteristics>
                        <depth>16</depth>
                        <samplerate>48000</samplerate>
                      </samplecharacteristics>
                      <channelcount>2</channelcount>
                    </audio>
                  </media>
                </file>
                <link>
                  <linkclipref>clipitem-1144</linkclipref>
                  <mediatype>video</mediatype>
                  <trackindex>1</trackindex>
                  <clipindex>1</clipindex>
                </link>
                <link>
                  <linkclipref>clipitem-1145</linkclipref>
                  <mediatype>audio</mediatype>
                  <trackindex>1</trackindex>
                  <clipindex>1</clipindex>
                  <groupindex>1</groupindex>
                </link>
                <link>
                  <linkclipref>clipitem-1146</linkclipref>
                  <mediatype>audio</mediatype>
                  <trackindex>2</trackindex>
                  <clipindex>1</clipindex>
                  <groupindex>1</groupindex>
                </link>
              </clipitem>
            </track>
          </video>
          <audio>
            <track>
              <clipitem id="clipitem-1145" frameBlend="FALSE">
                <masterclipid>masterclip-378</masterclipid>
                <name>00601.MTS</name>
                <file id="file-378"/>
                <sourcetrack>
                  <mediatype>audio</mediatype>
                  <trackindex>1</trackindex>
                </sourcetrack>
                <link>
                  <linkclipref>clipitem-1144</linkclipref>
                  <mediatype>video</mediatype>
                  <trackindex>1</trackindex>
                  <clipindex>1</clipindex>
                </link>
                <link>
                  <linkclipref>clipitem-1145</linkclipref>
                  <mediatype>audio</mediatype>
                  <trackindex>1</trackindex>
                  <clipindex>1</clipindex>
                  <groupindex>1</groupindex>
                </link>
                <link>
                  <linkclipref>clipitem-1146</linkclipref>
                  <mediatype>audio</mediatype>
                  <trackindex>2</trackindex>
                  <clipindex>1</clipindex>
                  <groupindex>1</groupindex>
                </link>
              </clipitem>
            </track>
            <track>
              <clipitem id="clipitem-1146" frameBlend="FALSE">
                <masterclipid>masterclip-378</masterclipid>
                <name>00601.MTS</name>
                <file id="file-378"/>
                <sourcetrack>
                  <mediatype>audio</mediatype>
                  <trackindex>2</trackindex>
                </sourcetrack>
                <link>
                  <linkclipref>clipitem-1144</linkclipref>
                  <mediatype>video</mediatype>
                  <trackindex>1</trackindex>
                  <clipindex>1</clipindex>
                </link>
                <link>
                  <linkclipref>clipitem-1145</linkclipref>
                  <mediatype>audio</mediatype>
                  <trackindex>1</trackindex>
                  <clipindex>1</clipindex>
                  <groupindex>1</groupindex>
                </link>
                <link>
                  <linkclipref>clipitem-1146</linkclipref>
                  <mediatype>audio</mediatype>
                  <trackindex>2</trackindex>
                  <clipindex>1</clipindex>
                  <groupindex>1</groupindex>
                </link>
              </clipitem>
            </track>
          </audio>
        </media>
        <logginginfo>
          <description/>
          <scene/>
          <shottake/>
          <lognote/>
        </logginginfo>
      </clip>
      <sequence id="sequence-4" TL.SQAudioVisibleBase="0" TL.SQVideoVisibleBase="0" TL.SQVisibleBaseTime="0" TL.SQAVDividerPosition="0.5" TL.SQHideShyTracks="0" TL.SQHeaderWidth="164" Monitor.ProgramZoomOut="152409600000000" Monitor.ProgramZoomIn="0" TL.SQTimePerPixel="0.2" MZ.EditLine="0" MZ.Sequence.PreviewFrameSizeHeight="1080" MZ.Sequence.PreviewFrameSizeWidth="1920" MZ.Sequence.AudioTimeDisplayFormat="200" MZ.Sequence.VideoTimeDisplayFormat="110" MZ.Sequence.PreviewRenderingClassID="1297106761" MZ.Sequence.PreviewRenderingPresetCodec="1297107278" MZ.Sequence.PreviewRenderingPresetPath="EncoderPresets/SequencePreview/cc7991f5-c236-4db1-957e-2c71f924e81c/I-Frame Only MPEG.epr" MZ.Sequence.PreviewUseMaxRenderQuality="false" MZ.Sequence.PreviewUseMaxBitDepth="false" MZ.Sequence.EditingModeGUID="cc7991f5-c236-4db1-957e-2c71f924e81c" MZ.WorkOutPoint="4460319864000" MZ.WorkInPoint="0">
        <uuid>58fd6449-1110-43ca-b5fb-8ac49891ad70</uuid>
        <duration>421</duration>
        <rate>
          <timebase>24</timebase>
          <ntsc>TRUE</ntsc>
        </rate>
        <name>Sequence</name>
        <media>
          <video>
            <format>
              <samplecharacteristics>
                <rate>
                  <timebase>24</timebase>
                  <ntsc>TRUE</ntsc>
                </rate>
                <codec>
                  <name>Apple ProRes 422</name>
                  <appspecificdata>
                    <appname>Final Cut Pro</appname>
                    <appmanufacturer>Apple Inc.</appmanufacturer>
                    <appversion>7.0</appversion>
                    <data>
                      <qtcodec>
                        <codecname>Apple ProRes 422</codecname>
                        <codectypename>Apple ProRes 422</codectypename>
                        <codectypecode>apcn</codectypecode>
                        <codecvendorcode>appl</codecvendorcode>
                        <spatialquality>1024</spatialquality>
                        <temporalquality>0</temporalquality>
                        <keyframerate>0</keyframerate>
                        <datarate>0</datarate>
                      </qtcodec>
                    </data>
                  </appspecificdata>
                </codec>
                <width>1920</width>
                <height>1080</height>
                <anamorphic>FALSE</anamorphic>
                <pixelaspectratio>square</pixelaspectratio>
                <fielddominance>none</fielddominance>
                <colordepth>24</colordepth>
              </samplecharacteristics>
            </format>
            <track TL.SQTrackShy="0" TL.SQTrackExpandedHeight="45" TL.SQTrackExpanded="1" TL.SQTrackVideoKeyframeStyle="0" TL.SQTrackVideoDisplayStyle="1" MZ.TrackTargeted="1">
              <enabled>TRUE</enabled>
              <locked>FALSE</locked>
              <clipitem id="clipitem-1147" frameBlend="FALSE">
                <masterclipid>masterclip-379</masterclipid>
                <name>00325.MTS</name>
                <enabled>TRUE</enabled>
                <duration>205</duration>
                <start>216</start>
                <end>421</end>
                <in>0</in>
                <out>205</out>
                <alphatype>black</alphatype>
                <pixelaspectratio>square</pixelaspectratio>
                <anamorphic>FALSE</anamorphic>
                <file id="file-379">
                  <name>00325.MTS</name>
                  <pathurl>file://localhost/Volumes/Macintosh%20HD/Users/jacksongs/Desktop/STREAM/00325.MTS</pathurl>
                  <rate>
                    <timebase>24</timebase>
                    <ntsc>TRUE</ntsc>
                  </rate>
                  <duration>205</duration>
                  <timecode>
                    <rate>
                      <timebase>24</timebase>
                      <ntsc>TRUE</ntsc>
                    </rate>
                    <string>00:00:00:00</string>
                    <frame>0</frame>
                    <displayformat>NDF</displayformat>
                    <reel>
                      <name/>
                    </reel>
                  </timecode>
                  <media>
                    <video>
                      <duration>18000</duration>
                      <samplecharacteristics>
                        <rate>
                          <timebase>24</timebase>
                          <ntsc>TRUE</ntsc>
                        </rate>
                        <width>1920</width>
                        <height>1080</height>
                        <anamorphic>FALSE</anamorphic>
                        <pixelaspectratio>square</pixelaspectratio>
                        <fielddominance>none</fielddominance>
                      </samplecharacteristics>
                    </video>
                    <audio>
                      <samplecharacteristics>
                        <depth>16</depth>
                        <samplerate>48000</samplerate>
                      </samplecharacteristics>
                      <channelcount>2</channelcount>
                    </audio>
                  </media>
                </file>
                <link>
                  <linkclipref>clipitem-1147</linkclipref>
                  <mediatype>video</mediatype>
                  <trackindex>1</trackindex>
                  <clipindex>1</clipindex>
                </link>
                <link>
                  <linkclipref>clipitem-1148</linkclipref>
                  <mediatype>audio</mediatype>
                  <trackindex>1</trackindex>
                  <clipindex>1</clipindex>
                  <groupindex>1</groupindex>
                </link>
                <link>
                  <linkclipref>clipitem-1149</linkclipref>
                  <mediatype>audio</mediatype>
                  <trackindex>2</trackindex>
                  <clipindex>1</clipindex>
                  <groupindex>1</groupindex>
                </link>
              </clipitem>
            </track>
            <track TL.SQTrackShy="0" TL.SQTrackCollapsedHeight="25" TL.SQTrackExpanded="0" TL.SQTrackVideoKeyframeStyle="0" TL.SQTrackVideoDisplayStyle="1" MZ.TrackTargeted="0">
              <enabled>TRUE</enabled>
              <locked>FALSE</locked>
            </track>
            <track TL.SQTrackShy="0" TL.SQTrackCollapsedHeight="25" TL.SQTrackExpanded="0" TL.SQTrackVideoKeyframeStyle="0" TL.SQTrackVideoDisplayStyle="1" MZ.TrackTargeted="0">
              <enabled>TRUE</enabled>
              <locked>FALSE</locked>
            </track>
          </video>
          <audio>
            <format>
              <samplecharacteristics>
                <depth>16</depth>
                <samplerate>48000</samplerate>
              </samplecharacteristics>
            </format>
            <outputs>
              <group>
                <index>1</index>
                <numchannels>1</numchannels>
                <downmix>0</downmix>
                <channel>
                  <index>1</index>
                </channel>
              </group>
              <group>
                <index>2</index>
                <numchannels>1</numchannels>
                <downmix>0</downmix>
                <channel>
                  <index>2</index>
                </channel>
              </group>
            </outputs>
            <track TL.SQTrackAudioKeyframeStyle="0" TL.SQTrackAudioDisplayStyle="0" TL.SQTrackShy="0" TL.SQTrackCollapsedHeight="25" TL.SQTrackExpanded="0" MZ.TrackTargeted="1" MZ.TrackName="Audio 1" PannerCurrentValue="0.5" PannerIsInverted="true" PannerKeyframes="" PannerStartKeyframe="-91445760000000000,0.5,0,0,0,0,0,0" PannerName="Balance" currentExplodedTrackIndex="0" totalExplodedTrackCount="2" premiereTrackType="Stereo">
              <enabled>TRUE</enabled>
              <locked>FALSE</locked>
              <clipitem id="clipitem-1148" frameBlend="FALSE" PannerCurrentValue="0.5" PannerKeyframes="" PannerStartKeyframe="-91445760000000000,0.5,0,0,0,0,0,0" PannerIsInverted="true" PannerName="Balance">
                <masterclipid>masterclip-379</masterclipid>
                <name>00325.MTS</name>
                <enabled>TRUE</enabled>
                <duration>205</duration>
                <start>216</start>
                <end>421</end>
                <in>0</in>
                <out>205</out>
                <file id="file-379"/>
                <sourcetrack>
                  <mediatype>audio</mediatype>
                  <trackindex>1</trackindex>
                </sourcetrack>
                <filter>
                  <effect>
                    <name>Audio Pan</name>
                    <effectid>audiopan</effectid>
                    <effectcategory>audiopan</effectcategory>
                    <effecttype>audiopan</effecttype>
                    <mediatype>audio</mediatype>
                    <parameter authoringApp="PremierePro">
                      <parameterid>pan</parameterid>
                      <name>Pan</name>
                      <valuemin>-1</valuemin>
                      <valuemax>1</valuemax>
                      <value>0</value>
                    </parameter>
                  </effect>
                </filter>
                <link>
                  <linkclipref>clipitem-1147</linkclipref>
                  <mediatype>video</mediatype>
                  <trackindex>1</trackindex>
                  <clipindex>1</clipindex>
                </link>
                <link>
                  <linkclipref>clipitem-1148</linkclipref>
                  <mediatype>audio</mediatype>
                  <trackindex>1</trackindex>
                  <clipindex>1</clipindex>
                  <groupindex>1</groupindex>
                </link>
                <link>
                  <linkclipref>clipitem-1149</linkclipref>
                  <mediatype>audio</mediatype>
                  <trackindex>2</trackindex>
                  <clipindex>1</clipindex>
                  <groupindex>1</groupindex>
                </link>
              </clipitem>
              <outputchannelindex>1</outputchannelindex>
            </track>
            <track TL.SQTrackAudioKeyframeStyle="0" TL.SQTrackAudioDisplayStyle="0" TL.SQTrackShy="0" TL.SQTrackCollapsedHeight="25" TL.SQTrackExpanded="0" MZ.TrackTargeted="1" MZ.TrackName="Audio 1" PannerCurrentValue="0.5" PannerIsInverted="true" PannerKeyframes="" PannerStartKeyframe="-91445760000000000,0.5,0,0,0,0,0,0" PannerName="Balance" currentExplodedTrackIndex="1" totalExplodedTrackCount="2" premiereTrackType="Stereo">
              <enabled>TRUE</enabled>
              <locked>FALSE</locked>
              <clipitem id="clipitem-1149" frameBlend="FALSE" PannerCurrentValue="0.5" PannerKeyframes="" PannerStartKeyframe="-91445760000000000,0.5,0,0,0,0,0,0" PannerIsInverted="true" PannerName="Balance">
                <masterclipid>masterclip-379</masterclipid>
                <name>00325.MTS</name>
                <enabled>TRUE</enabled>
                <duration>205</duration>
                <start>216</start>
                <end>421</end>
                <in>0</in>
                <out>205</out>
                <file id="file-379"/>
                <sourcetrack>
                  <mediatype>audio</mediatype>
                  <trackindex>2</trackindex>
                </sourcetrack>
                <filter>
                  <effect>
                    <name>Audio Pan</name>
                    <effectid>audiopan</effectid>
                    <effectcategory>audiopan</effectcategory>
                    <effecttype>audiopan</effecttype>
                    <mediatype>audio</mediatype>
                    <parameter authoringApp="PremierePro">
                      <parameterid>pan</parameterid>
                      <name>Pan</name>
                      <valuemin>-1</valuemin>
                      <valuemax>1</valuemax>
                      <value>0</value>
                    </parameter>
                  </effect>
                </filter>
                <link>
                  <linkclipref>clipitem-1147</linkclipref>
                  <mediatype>video</mediatype>
                  <trackindex>1</trackindex>
                  <clipindex>1</clipindex>
                </link>
                <link>
                  <linkclipref>clipitem-1148</linkclipref>
                  <mediatype>audio</mediatype>
                  <trackindex>1</trackindex>
                  <clipindex>1</clipindex>
                  <groupindex>1</groupindex>
                </link>
                <link>
                  <linkclipref>clipitem-1149</linkclipref>
                  <mediatype>audio</mediatype>
                  <trackindex>2</trackindex>
                  <clipindex>1</clipindex>
                  <groupindex>1</groupindex>
                </link>
              </clipitem>
              <outputchannelindex>2</outputchannelindex>
            </track>
            <track TL.SQTrackAudioKeyframeStyle="0" TL.SQTrackAudioDisplayStyle="0" TL.SQTrackShy="0" TL.SQTrackCollapsedHeight="25" TL.SQTrackExpanded="0" MZ.TrackTargeted="1" MZ.TrackName="Audio 2" PannerCurrentValue="0.5" PannerIsInverted="true" PannerKeyframes="" PannerStartKeyframe="-91445760000000000,0.5,0,0,0,0,0,0" PannerName="Balance" currentExplodedTrackIndex="0" totalExplodedTrackCount="2" premiereTrackType="Stereo">
              <enabled>TRUE</enabled>
              <locked>FALSE</locked>
              <outputchannelindex>1</outputchannelindex>
            </track>
            <track TL.SQTrackAudioKeyframeStyle="0" TL.SQTrackAudioDisplayStyle="0" TL.SQTrackShy="0" TL.SQTrackCollapsedHeight="25" TL.SQTrackExpanded="0" MZ.TrackTargeted="1" MZ.TrackName="Audio 2" PannerCurrentValue="0.5" PannerIsInverted="true" PannerKeyframes="" PannerStartKeyframe="-91445760000000000,0.5,0,0,0,0,0,0" PannerName="Balance" currentExplodedTrackIndex="1" totalExplodedTrackCount="2" premiereTrackType="Stereo">
              <enabled>TRUE</enabled>
              <locked>FALSE</locked>
              <outputchannelindex>2</outputchannelindex>
            </track>
            <track TL.SQTrackAudioKeyframeStyle="0" TL.SQTrackAudioDisplayStyle="0" TL.SQTrackShy="0" TL.SQTrackCollapsedHeight="25" TL.SQTrackExpanded="0" MZ.TrackTargeted="1" MZ.TrackName="Audio 3" PannerCurrentValue="0.5" PannerIsInverted="true" PannerKeyframes="" PannerStartKeyframe="-91445760000000000,0.5,0,0,0,0,0,0" PannerName="Balance" currentExplodedTrackIndex="0" totalExplodedTrackCount="2" premiereTrackType="Stereo">
              <enabled>TRUE</enabled>
              <locked>FALSE</locked>
              <outputchannelindex>1</outputchannelindex>
            </track>
            <track TL.SQTrackAudioKeyframeStyle="0" TL.SQTrackAudioDisplayStyle="0" TL.SQTrackShy="0" TL.SQTrackCollapsedHeight="25" TL.SQTrackExpanded="0" MZ.TrackTargeted="1" MZ.TrackName="Audio 3" PannerCurrentValue="0.5" PannerIsInverted="true" PannerKeyframes="" PannerStartKeyframe="-91445760000000000,0.5,0,0,0,0,0,0" PannerName="Balance" currentExplodedTrackIndex="1" totalExplodedTrackCount="2" premiereTrackType="Stereo">
              <enabled>TRUE</enabled>
              <locked>FALSE</locked>
              <outputchannelindex>2</outputchannelindex>
            </track>
          </audio>
        </media>
        <timecode>
          <rate>
            <timebase>24</timebase>
            <ntsc>TRUE</ntsc>
          </rate>
          <string>00:00:00:00</string>
          <frame>0</frame>
          <displayformat>NDF</displayformat>
        </timecode>
      </sequence>
      <clip id="masterclip-379" frameBlend="FALSE">
        <uuid>4c376b96-fdc5-4af9-b5e4-62568f34ccbd</uuid>
        <masterclipid>masterclip-379</masterclipid>
        <ismasterclip>TRUE</ismasterclip>
        <duration>205</duration>
        <rate>
          <timebase>24</timebase>
          <ntsc>TRUE</ntsc>
        </rate>
        <name>00325.MTS</name>
        <media>
          <video>
            <track>
              <clipitem id="clipitem-1150" frameBlend="FALSE">
                <masterclipid>masterclip-379</masterclipid>
                <name>00325.MTS</name>
                <alphatype>black</alphatype>
                <file id="file-379"/>
                <link>
                  <linkclipref>clipitem-1150</linkclipref>
                  <mediatype>video</mediatype>
                  <trackindex>1</trackindex>
                  <clipindex>1</clipindex>
                </link>
                <link>
                  <linkclipref>clipitem-1151</linkclipref>
                  <mediatype>audio</mediatype>
                  <trackindex>1</trackindex>
                  <clipindex>1</clipindex>
                  <groupindex>1</groupindex>
                </link>
                <link>
                  <linkclipref>clipitem-1152</linkclipref>
                  <mediatype>audio</mediatype>
                  <trackindex>2</trackindex>
                  <clipindex>1</clipindex>
                  <groupindex>1</groupindex>
                </link>
              </clipitem>
            </track>
          </video>
          <audio>
            <track>
              <clipitem id="clipitem-1151" frameBlend="FALSE">
                <masterclipid>masterclip-379</masterclipid>
                <name>00325.MTS</name>
                <file id="file-379"/>
                <sourcetrack>
                  <mediatype>audio</mediatype>
                  <trackindex>1</trackindex>
                </sourcetrack>
                <link>
                  <linkclipref>clipitem-1150</linkclipref>
                  <mediatype>video</mediatype>
                  <trackindex>1</trackindex>
                  <clipindex>1</clipindex>
                </link>
                <link>
                  <linkclipref>clipitem-1151</linkclipref>
                  <mediatype>audio</mediatype>
                  <trackindex>1</trackindex>
                  <clipindex>1</clipindex>
                  <groupindex>1</groupindex>
                </link>
                <link>
                  <linkclipref>clipitem-1152</linkclipref>
                  <mediatype>audio</mediatype>
                  <trackindex>2</trackindex>
                  <clipindex>1</clipindex>
                  <groupindex>1</groupindex>
                </link>
              </clipitem>
            </track>
            <track>
              <clipitem id="clipitem-1152" frameBlend="FALSE">
                <masterclipid>masterclip-379</masterclipid>
                <name>00325.MTS</name>
                <file id="file-379"/>
                <sourcetrack>
                  <mediatype>audio</mediatype>
                  <trackindex>2</trackindex>
                </sourcetrack>
                <link>
                  <linkclipref>clipitem-1150</linkclipref>
                  <mediatype>video</mediatype>
                  <trackindex>1</trackindex>
                  <clipindex>1</clipindex>
                </link>
                <link>
                  <linkclipref>clipitem-1151</linkclipref>
                  <mediatype>audio</mediatype>
                  <trackindex>1</trackindex>
                  <clipindex>1</clipindex>
                  <groupindex>1</groupindex>
                </link>
                <link>
                  <linkclipref>clipitem-1152</linkclipref>
                  <mediatype>audio</mediatype>
                  <trackindex>2</trackindex>
                  <clipindex>1</clipindex>
                  <groupindex>1</groupindex>
                </link>
              </clipitem>
            </track>
          </audio>
        </media>
        <logginginfo>
          <description/>
          <scene/>
          <shottake/>
          <lognote/>
        </logginginfo>
      </clip>
    </children>
  </project>
</xmeml>
